<?xml version="1.0" encoding="utf-8" standalone="no"?>
<!DOCTYPE svg PUBLIC "-//W3C//DTD SVG 1.1//EN"
  "http://www.w3.org/Graphics/SVG/1.1/DTD/svg11.dtd">
<!-- Created with matplotlib (http://matplotlib.org/) -->
<svg height="648pt" version="1.1" viewBox="0 0 864 648" width="864pt" xmlns="http://www.w3.org/2000/svg" xmlns:xlink="http://www.w3.org/1999/xlink">
 <defs>
  <style type="text/css">
*{stroke-linecap:butt;stroke-linejoin:round;}
  </style>
 </defs>
 <g id="figure_1">
  <g id="patch_1">
   <path d="M 0 648 
L 864 648 
L 864 0 
L 0 0 
z
" style="fill:#ffffff;"/>
  </g>
  <g id="axes_1">
   <g id="patch_2">
    <path d="M 68.16 584.52 
L 660.368 584.52 
L 660.368 52.52 
L 68.16 52.52 
z
" style="fill:#ffffff;"/>
   </g>
   <g id="PathCollection_1">
    <path clip-path="url(#p34f464a621)" d="M 601.1472 584.52 
L 660.368 584.52 
L 660.368 537.718759 
L 601.1472 549.062879 
L 564.518268 584.52 
z
" style="fill:#fcfcfc;"/>
    <path clip-path="url(#p34f464a621)" d="M 541.9264 495.586166 
L 601.1472 528.754265 
L 660.368 535.262256 
L 660.368 487.792727 
L 660.368 439.429091 
L 660.368 391.065455 
L 660.368 342.701818 
L 660.368 294.338182 
L 660.368 245.974545 
L 660.368 197.610909 
L 660.368 149.247273 
L 660.368 100.883636 
L 660.368 52.52 
L 601.1472 52.52 
L 541.9264 52.52 
L 482.7056 52.52 
L 430.377553 52.52 
L 458.998322 100.883636 
L 460.838936 149.247273 
L 461.356742 197.610909 
L 464.051876 245.974545 
L 468.951092 294.338182 
L 471.461359 342.701818 
L 480.557314 391.065455 
L 482.7056 397.205969 
L 506.993318 439.429091 
L 524.546181 487.792727 
z
" style="fill:#fcfcfc;"/>
   </g>
   <g id="PathCollection_2">
    <path clip-path="url(#p34f464a621)" d="M 364.264 584.52 
L 423.4848 584.52 
L 482.7056 584.52 
L 541.9264 584.52 
L 564.518268 584.52 
L 601.1472 549.062879 
L 660.368 537.718759 
L 660.368 536.156364 
L 660.368 535.262256 
L 601.1472 528.754265 
L 541.9264 495.586166 
L 524.546181 487.792727 
L 506.993318 439.429091 
L 482.7056 397.205969 
L 480.557314 391.065455 
L 471.461359 342.701818 
L 468.951092 294.338182 
L 464.051876 245.974545 
L 461.356742 197.610909 
L 460.838936 149.247273 
L 458.998322 100.883636 
L 430.377553 52.52 
L 423.4848 52.52 
L 364.264 52.52 
L 305.0432 52.52 
L 266.522282 52.52 
L 286.741661 100.883636 
L 288.038129 149.247273 
L 288.400472 197.610909 
L 290.29099 245.974545 
L 293.737575 294.338182 
L 295.515002 342.701818 
L 301.908581 391.065455 
L 305.0432 403.833454 
L 315.509709 439.429091 
L 324.887508 487.792727 
L 364.264 522.075508 
L 378.292026 536.156364 
L 364.264 559.574545 
L 347.004894 584.52 
z
" style="fill:#f5f5f5;"/>
   </g>
   <g id="PathCollection_3">
    <path clip-path="url(#p34f464a621)" d="M 245.8224 584.52 
L 305.0432 584.52 
L 347.004894 584.52 
L 364.264 559.574545 
L 378.292026 536.156364 
L 364.264 522.075508 
L 324.887508 487.792727 
L 315.509709 439.429091 
L 305.0432 403.833454 
L 301.908581 391.065455 
L 295.515002 342.701818 
L 293.737575 294.338182 
L 290.29099 245.974545 
L 288.400472 197.610909 
L 288.038129 149.247273 
L 286.741661 100.883636 
L 266.522282 52.52 
L 245.8224 52.52 
L 197.143195 52.52 
L 204.754598 100.883636 
L 205.242822 149.247273 
L 205.380626 197.610909 
L 206.090222 245.974545 
L 207.389177 294.338182 
L 208.062853 342.701818 
L 210.466873 391.065455 
L 214.946914 439.429091 
L 217.954983 487.792727 
L 235.396163 536.156364 
L 225.034132 584.52 
z
" style="fill:#ececec;"/>
   </g>
   <g id="PathCollection_4">
    <path clip-path="url(#p34f464a621)" d="M 186.6016 584.52 
L 225.034132 584.52 
L 235.396163 536.156364 
L 217.954983 487.792727 
L 214.946914 439.429091 
L 210.466873 391.065455 
L 208.062853 342.701818 
L 207.389177 294.338182 
L 206.090222 245.974545 
L 205.380626 197.610909 
L 205.242822 149.247273 
L 204.754598 100.883636 
L 197.143195 52.52 
L 186.6016 52.52 
L 171.774707 52.52 
L 173.70528 100.883636 
L 173.869718 149.247273 
L 173.916089 197.610909 
L 174.154555 245.974545 
L 174.592253 294.338182 
L 174.820076 342.701818 
L 175.628432 391.065455 
L 177.140246 439.429091 
L 178.508646 487.792727 
L 184.035122 536.156364 
L 180.609737 584.52 
z
" style="fill:#e1e1e1;"/>
   </g>
   <g id="PathCollection_5">
    <path clip-path="url(#p34f464a621)" d="M 184.035122 536.156364 
L 178.508646 487.792727 
L 177.140246 439.429091 
L 175.628432 391.065455 
L 174.820076 342.701818 
L 174.592253 294.338182 
L 174.154555 245.974545 
L 173.916089 197.610909 
L 173.869718 149.247273 
L 173.70528 100.883636 
L 171.774707 52.52 
L 153.54492 52.52 
L 154.700417 100.883636 
L 154.865017 149.247273 
L 154.911389 197.610909 
L 155.149692 245.974545 
L 155.587715 294.338182 
L 155.816392 342.701818 
L 156.624423 391.065455 
L 158.140017 439.429091 
L 160.2903 487.792727 
L 165.043871 536.156364 
L 161.664133 584.52 
L 180.609737 584.52 
z
" style="fill:#d6d6d6;"/>
   </g>
   <g id="PathCollection_6">
    <path clip-path="url(#p34f464a621)" d="M 165.043871 536.156364 
L 160.2903 487.792727 
L 158.140017 439.429091 
L 156.624423 391.065455 
L 155.816392 342.701818 
L 155.587715 294.338182 
L 155.149692 245.974545 
L 154.911389 197.610909 
L 154.865017 149.247273 
L 154.700417 100.883636 
L 153.54492 52.52 
L 135.315133 52.52 
L 135.695554 100.883636 
L 135.860317 149.247273 
L 135.906689 197.610909 
L 136.144829 245.974545 
L 136.583177 294.338182 
L 136.812708 342.701818 
L 137.620414 391.065455 
L 139.139788 439.429091 
L 142.071953 487.792727 
L 146.052619 536.156364 
L 142.718529 584.52 
L 161.664133 584.52 
z
" style="fill:#c9c9c9;"/>
   </g>
   <g id="PathCollection_7">
    <path clip-path="url(#p34f464a621)" d="M 127.3808 584.52 
L 142.718529 584.52 
L 146.052619 536.156364 
L 142.071953 487.792727 
L 139.139788 439.429091 
L 137.620414 391.065455 
L 136.812708 342.701818 
L 136.583177 294.338182 
L 136.144829 245.974545 
L 135.906689 197.610909 
L 135.860317 149.247273 
L 135.695554 100.883636 
L 135.315133 52.52 
L 127.3808 52.52 
L 123.692439 52.52 
L 123.707232 100.883636 
L 123.763887 149.247273 
L 123.779833 197.610909 
L 123.861632 245.974545 
L 124.012352 294.338182 
L 124.091428 342.701818 
L 124.368916 391.065455 
L 124.892042 439.429091 
L 126.097991 487.792727 
L 127.272578 536.156364 
L 126.138821 584.52 
z
" style="fill:#bbbbbb;"/>
   </g>
   <g id="PathCollection_8">
    <path clip-path="url(#p34f464a621)" d="M 127.272578 536.156364 
L 126.097991 487.792727 
L 124.892042 439.429091 
L 124.368916 391.065455 
L 124.091428 342.701818 
L 124.012352 294.338182 
L 123.861632 245.974545 
L 123.779833 197.610909 
L 123.763887 149.247273 
L 123.707232 100.883636 
L 123.692439 52.52 
L 117.161593 52.52 
L 117.176366 100.883636 
L 117.23304 149.247273 
L 117.249005 197.610909 
L 117.330785 245.974545 
L 117.481568 294.338182 
L 117.56075 342.701818 
L 117.83819 391.065455 
L 118.36181 439.429091 
L 119.47214 487.792727 
L 120.838477 536.156364 
L 119.616965 584.52 
L 126.138821 584.52 
z
" style="fill:#a9a9a9;"/>
   </g>
   <g id="PathCollection_9">
    <path clip-path="url(#p34f464a621)" d="M 120.838477 536.156364 
L 119.47214 487.792727 
L 118.36181 439.429091 
L 117.83819 391.065455 
L 117.56075 342.701818 
L 117.481568 294.338182 
L 117.330785 245.974545 
L 117.249005 197.610909 
L 117.23304 149.247273 
L 117.176366 100.883636 
L 117.161593 52.52 
L 110.630747 52.52 
L 110.645501 100.883636 
L 110.702194 149.247273 
L 110.718178 197.610909 
L 110.799939 245.974545 
L 110.950785 294.338182 
L 111.030071 342.701818 
L 111.307464 391.065455 
L 111.831578 439.429091 
L 112.846288 487.792727 
L 114.404375 536.156364 
L 113.095109 584.52 
L 119.616965 584.52 
z
" style="fill:#979797;"/>
   </g>
   <g id="PathCollection_10">
    <path clip-path="url(#p34f464a621)" d="M 114.404375 536.156364 
L 112.846288 487.792727 
L 111.831578 439.429091 
L 111.307464 391.065455 
L 111.030071 342.701818 
L 110.950785 294.338182 
L 110.799939 245.974545 
L 110.718178 197.610909 
L 110.702194 149.247273 
L 110.645501 100.883636 
L 110.630747 52.52 
L 104.0999 52.52 
L 104.114635 100.883636 
L 104.171348 149.247273 
L 104.187351 197.610909 
L 104.269093 245.974545 
L 104.420001 294.338182 
L 104.499393 342.701818 
L 104.776737 391.065455 
L 105.301346 439.429091 
L 106.220437 487.792727 
L 107.970274 536.156364 
L 106.573253 584.52 
L 113.095109 584.52 
z
" style="fill:#858585;"/>
   </g>
   <g id="PathCollection_11">
    <path clip-path="url(#p34f464a621)" d="M 107.970274 536.156364 
L 106.220437 487.792727 
L 105.301346 439.429091 
L 104.776737 391.065455 
L 104.499393 342.701818 
L 104.420001 294.338182 
L 104.269093 245.974545 
L 104.187351 197.610909 
L 104.171348 149.247273 
L 104.114635 100.883636 
L 104.0999 52.52 
L 97.569054 52.52 
L 97.58377 100.883636 
L 97.640501 149.247273 
L 97.656524 197.610909 
L 97.738246 245.974545 
L 97.889217 294.338182 
L 97.968715 342.701818 
L 98.246011 391.065455 
L 98.771114 439.429091 
L 99.594585 487.792727 
L 101.536172 536.156364 
L 100.051397 584.52 
L 106.573253 584.52 
z
" style="fill:#757575;"/>
   </g>
   <g id="PathCollection_12">
    <path clip-path="url(#p34f464a621)" d="M 101.536172 536.156364 
L 99.594585 487.792727 
L 98.771114 439.429091 
L 98.246011 391.065455 
L 97.968715 342.701818 
L 97.889217 294.338182 
L 97.738246 245.974545 
L 97.656524 197.610909 
L 97.640501 149.247273 
L 97.58377 100.883636 
L 97.569054 52.52 
L 91.038208 52.52 
L 91.052904 100.883636 
L 91.109655 149.247273 
L 91.125697 197.610909 
L 91.2074 245.974545 
L 91.358433 294.338182 
L 91.438037 342.701818 
L 91.715285 391.065455 
L 92.240883 439.429091 
L 92.968734 487.792727 
L 95.102071 536.156364 
L 93.529541 584.52 
L 100.051397 584.52 
z
" style="fill:#656565;"/>
   </g>
   <g id="PathCollection_13">
    <path clip-path="url(#p34f464a621)" d="M 95.102071 536.156364 
L 92.968734 487.792727 
L 92.240883 439.429091 
L 91.715285 391.065455 
L 91.438037 342.701818 
L 91.358433 294.338182 
L 91.2074 245.974545 
L 91.125697 197.610909 
L 91.109655 149.247273 
L 91.052904 100.883636 
L 91.038208 52.52 
L 84.507361 52.52 
L 84.522039 100.883636 
L 84.578809 149.247273 
L 84.59487 197.610909 
L 84.676554 245.974545 
L 84.827649 294.338182 
L 84.907358 342.701818 
L 85.184558 391.065455 
L 85.710651 439.429091 
L 86.342882 487.792727 
L 88.667969 536.156364 
L 87.007685 584.52 
L 93.529541 584.52 
z
" style="fill:#555555;"/>
   </g>
   <g id="PathCollection_14">
    <path clip-path="url(#p34f464a621)" d="M 88.667969 536.156364 
L 86.342882 487.792727 
L 85.710651 439.429091 
L 85.184558 391.065455 
L 84.907358 342.701818 
L 84.827649 294.338182 
L 84.676554 245.974545 
L 84.59487 197.610909 
L 84.578809 149.247273 
L 84.522039 100.883636 
L 84.507361 52.52 
L 77.976515 52.52 
L 77.991173 100.883636 
L 78.047963 149.247273 
L 78.064043 197.610909 
L 78.145708 245.974545 
L 78.296865 294.338182 
L 78.37668 342.701818 
L 78.653832 391.065455 
L 79.180419 439.429091 
L 79.717031 487.792727 
L 82.233868 536.156364 
L 80.485829 584.52 
L 87.007685 584.52 
z
" style="fill:#414141;"/>
   </g>
   <g id="PathCollection_15">
    <path clip-path="url(#p34f464a621)" d="M 82.233868 536.156364 
L 79.717031 487.792727 
L 79.180419 439.429091 
L 78.653832 391.065455 
L 78.37668 342.701818 
L 78.296865 294.338182 
L 78.145708 245.974545 
L 78.064043 197.610909 
L 78.047963 149.247273 
L 77.991173 100.883636 
L 77.976515 52.52 
L 71.445669 52.52 
L 71.460308 100.883636 
L 71.517116 149.247273 
L 71.533216 197.610909 
L 71.614861 245.974545 
L 71.766081 294.338182 
L 71.846002 342.701818 
L 72.123106 391.065455 
L 72.650187 439.429091 
L 73.09118 487.792727 
L 75.799766 536.156364 
L 73.963974 584.52 
L 80.485829 584.52 
z
" style="fill:#2c2c2c;"/>
   </g>
   <g id="PathCollection_16">
    <path clip-path="url(#p34f464a621)" d="M 75.799766 536.156364 
L 73.09118 487.792727 
L 72.650187 439.429091 
L 72.123106 391.065455 
L 71.846002 342.701818 
L 71.766081 294.338182 
L 71.614861 245.974545 
L 71.533216 197.610909 
L 71.517116 149.247273 
L 71.460308 100.883636 
L 71.445669 52.52 
L 68.16 52.52 
L 68.16 100.883636 
L 68.16 149.247273 
L 68.16 197.610909 
L 68.16 245.974545 
L 68.16 294.338182 
L 68.16 342.701818 
L 68.16 391.065455 
L 68.16 439.429091 
L 68.16 487.792727 
L 68.16 515.705879 
L 69.365665 536.156364 
L 68.16 566.623319 
L 68.16 584.52 
L 73.963974 584.52 
z
" style="fill:#1a1a1a;"/>
   </g>
   <g id="PathCollection_17">
    <path clip-path="url(#p34f464a621)" d="M 69.365665 536.156364 
L 68.16 515.705879 
L 68.16 536.156364 
L 68.16 566.623319 
z
" style="fill:#080808;"/>
   </g>
   <g id="matplotlib.axis_1">
    <g id="xtick_1">
     <g id="line2d_1">
      <defs>
       <path d="M 0 0 
L 0 3.5 
" id="mc0ae5883a2" style="stroke:#000000;stroke-width:0.8;"/>
      </defs>
      <g>
       <use style="stroke:#000000;stroke-width:0.8;" x="148.098355" xlink:href="#mc0ae5883a2" y="584.52"/>
      </g>
     </g>
     <g id="text_1">
      <!-- 500 -->
      <defs>
       <path d="M 50.296875 72.90625 
L 50.296875 64.890625 
L 16.890625 64.890625 
L 16.890625 44 
Q 19.4375 45.75 22.828125 46.625 
Q 26.21875 47.515625 30.421875 47.515625 
Q 42.234375 47.515625 49.0625 40.96875 
Q 55.90625 34.421875 55.90625 23.09375 
Q 55.90625 11.53125 49 5.046875 
Q 42.09375 -1.421875 29.59375 -1.421875 
Q 24.5625 -1.421875 19.28125 -0.1875 
Q 14.015625 1.03125 8.5 3.515625 
L 8.5 17.671875 
L 14.015625 17.671875 
Q 14.453125 10.75 18.421875 7.078125 
Q 22.40625 3.421875 29.59375 3.421875 
Q 37.3125 3.421875 41.453125 8.5 
Q 45.609375 13.578125 45.609375 23.09375 
Q 45.609375 32.5625 41.484375 37.609375 
Q 37.359375 42.671875 29.59375 42.671875 
Q 25.203125 42.671875 21.84375 41.109375 
Q 18.5 39.546875 15.921875 36.28125 
L 11.71875 36.28125 
L 11.71875 72.90625 
z
" id="DejaVuSerif-35"/>
       <path d="M 31.78125 3.421875 
Q 39.265625 3.421875 42.96875 11.625 
Q 46.6875 19.828125 46.6875 36.375 
Q 46.6875 52.984375 42.96875 61.1875 
Q 39.265625 69.390625 31.78125 69.390625 
Q 24.3125 69.390625 20.59375 61.1875 
Q 16.890625 52.984375 16.890625 36.375 
Q 16.890625 19.828125 20.59375 11.625 
Q 24.3125 3.421875 31.78125 3.421875 
z
M 31.78125 -1.421875 
Q 19.921875 -1.421875 13.25 8.53125 
Q 6.59375 18.5 6.59375 36.375 
Q 6.59375 54.296875 13.25 64.25 
Q 19.921875 74.21875 31.78125 74.21875 
Q 43.703125 74.21875 50.34375 64.25 
Q 56.984375 54.296875 56.984375 36.375 
Q 56.984375 18.5 50.34375 8.53125 
Q 43.703125 -1.421875 31.78125 -1.421875 
z
" id="DejaVuSerif-30"/>
      </defs>
      <g transform="translate(141.474992 596.793316)scale(0.0694 -0.0694)">
       <use xlink:href="#DejaVuSerif-35"/>
       <use x="63.623047" xlink:href="#DejaVuSerif-30"/>
       <use x="127.246094" xlink:href="#DejaVuSerif-30"/>
      </g>
     </g>
    </g>
    <g id="xtick_2">
     <g id="line2d_2">
      <g>
       <use style="stroke:#000000;stroke-width:0.8;" x="235.150985" xlink:href="#mc0ae5883a2" y="584.52"/>
      </g>
     </g>
     <g id="text_2">
      <!-- 600 -->
      <defs>
       <path d="M 32.71875 3.421875 
Q 39.59375 3.421875 43.296875 8.46875 
Q 47.015625 13.53125 47.015625 23 
Q 47.015625 32.46875 43.296875 37.515625 
Q 39.59375 42.578125 32.71875 42.578125 
Q 25.734375 42.578125 22.0625 37.6875 
Q 18.40625 32.8125 18.40625 23.578125 
Q 18.40625 13.875 22.109375 8.640625 
Q 25.828125 3.421875 32.71875 3.421875 
z
M 16.796875 40.140625 
Q 20.125 43.796875 24.3125 45.59375 
Q 28.515625 47.40625 33.796875 47.40625 
Q 44.671875 47.40625 51 40.859375 
Q 57.328125 34.328125 57.328125 23 
Q 57.328125 11.921875 50.515625 5.25 
Q 43.703125 -1.421875 32.328125 -1.421875 
Q 19.96875 -1.421875 13.328125 7.78125 
Q 6.6875 17 6.6875 34.078125 
Q 6.6875 53.21875 14.546875 63.71875 
Q 22.40625 74.21875 36.71875 74.21875 
Q 40.578125 74.21875 44.828125 73.484375 
Q 49.078125 72.75 53.515625 71.296875 
L 53.515625 59.28125 
L 48 59.28125 
Q 47.40625 64.203125 44.234375 66.796875 
Q 41.0625 69.390625 35.6875 69.390625 
Q 26.21875 69.390625 21.578125 62.203125 
Q 16.9375 55.03125 16.796875 40.140625 
z
" id="DejaVuSerif-36"/>
      </defs>
      <g transform="translate(228.527623 596.793316)scale(0.0694 -0.0694)">
       <use xlink:href="#DejaVuSerif-36"/>
       <use x="63.623047" xlink:href="#DejaVuSerif-30"/>
       <use x="127.246094" xlink:href="#DejaVuSerif-30"/>
      </g>
     </g>
    </g>
    <g id="xtick_3">
     <g id="line2d_3">
      <g>
       <use style="stroke:#000000;stroke-width:0.8;" x="322.203616" xlink:href="#mc0ae5883a2" y="584.52"/>
      </g>
     </g>
     <g id="text_3">
      <!-- 700 -->
      <defs>
       <path d="M 56.390625 67.921875 
L 27.875 0 
L 20.609375 0 
L 47.796875 64.890625 
L 14.109375 64.890625 
L 14.109375 55.90625 
L 8.40625 55.90625 
L 8.40625 72.90625 
L 56.390625 72.90625 
z
" id="DejaVuSerif-37"/>
      </defs>
      <g transform="translate(315.580254 596.793316)scale(0.0694 -0.0694)">
       <use xlink:href="#DejaVuSerif-37"/>
       <use x="63.623047" xlink:href="#DejaVuSerif-30"/>
       <use x="127.246094" xlink:href="#DejaVuSerif-30"/>
      </g>
     </g>
    </g>
    <g id="xtick_4">
     <g id="line2d_4">
      <g>
       <use style="stroke:#000000;stroke-width:0.8;" x="409.256247" xlink:href="#mc0ae5883a2" y="584.52"/>
      </g>
     </g>
     <g id="text_4">
      <!-- 800 -->
      <defs>
       <path d="M 46.578125 19.921875 
Q 46.578125 27.734375 42.6875 32.046875 
Q 38.8125 36.375 31.78125 36.375 
Q 24.75 36.375 20.875 32.046875 
Q 17 27.734375 17 19.921875 
Q 17 12.0625 20.875 7.734375 
Q 24.75 3.421875 31.78125 3.421875 
Q 38.8125 3.421875 42.6875 7.734375 
Q 46.578125 12.0625 46.578125 19.921875 
z
M 44.578125 55.328125 
Q 44.578125 61.96875 41.203125 65.671875 
Q 37.84375 69.390625 31.78125 69.390625 
Q 25.78125 69.390625 22.390625 65.671875 
Q 19 61.96875 19 55.328125 
Q 19 48.640625 22.390625 44.921875 
Q 25.78125 41.21875 31.78125 41.21875 
Q 37.84375 41.21875 41.203125 44.921875 
Q 44.578125 48.640625 44.578125 55.328125 
z
M 39.3125 38.8125 
Q 47.609375 37.703125 52.25 32.6875 
Q 56.890625 27.6875 56.890625 19.921875 
Q 56.890625 9.671875 50.390625 4.125 
Q 43.890625 -1.421875 31.78125 -1.421875 
Q 19.734375 -1.421875 13.203125 4.125 
Q 6.6875 9.671875 6.6875 19.921875 
Q 6.6875 27.6875 11.328125 32.6875 
Q 15.96875 37.703125 24.3125 38.8125 
Q 16.9375 40.140625 13 44.40625 
Q 9.078125 48.6875 9.078125 55.328125 
Q 9.078125 64.109375 15.125 69.15625 
Q 21.1875 74.21875 31.78125 74.21875 
Q 42.390625 74.21875 48.4375 69.15625 
Q 54.5 64.109375 54.5 55.328125 
Q 54.5 48.6875 50.5625 44.40625 
Q 46.625 40.140625 39.3125 38.8125 
z
" id="DejaVuSerif-38"/>
      </defs>
      <g transform="translate(402.632885 596.793316)scale(0.0694 -0.0694)">
       <use xlink:href="#DejaVuSerif-38"/>
       <use x="63.623047" xlink:href="#DejaVuSerif-30"/>
       <use x="127.246094" xlink:href="#DejaVuSerif-30"/>
      </g>
     </g>
    </g>
    <g id="xtick_5">
     <g id="line2d_5">
      <g>
       <use style="stroke:#000000;stroke-width:0.8;" x="496.308878" xlink:href="#mc0ae5883a2" y="584.52"/>
      </g>
     </g>
     <g id="text_5">
      <!-- 900 -->
      <defs>
       <path d="M 46.78125 32.671875 
Q 43.5 29 39.25 27.1875 
Q 35.015625 25.390625 29.6875 25.390625 
Q 18.84375 25.390625 12.5625 31.9375 
Q 6.296875 38.484375 6.296875 49.8125 
Q 6.296875 60.890625 13.109375 67.546875 
Q 19.921875 74.21875 31.296875 74.21875 
Q 43.65625 74.21875 50.265625 65.015625 
Q 56.890625 55.8125 56.890625 38.71875 
Q 56.890625 19.578125 49.015625 9.078125 
Q 41.15625 -1.421875 26.90625 -1.421875 
Q 23.046875 -1.421875 18.796875 -0.6875 
Q 14.546875 0.046875 10.109375 1.515625 
L 10.109375 13.625 
L 15.578125 13.625 
Q 16.21875 8.6875 19.390625 6.046875 
Q 22.5625 3.421875 27.875 3.421875 
Q 37.359375 3.421875 41.984375 10.5625 
Q 46.625 17.71875 46.78125 32.671875 
z
M 30.90625 69.390625 
Q 23.96875 69.390625 20.28125 64.328125 
Q 16.609375 59.28125 16.609375 49.8125 
Q 16.609375 40.328125 20.28125 35.25 
Q 23.96875 30.171875 30.90625 30.171875 
Q 37.84375 30.171875 41.53125 35.078125 
Q 45.21875 39.984375 45.21875 49.21875 
Q 45.21875 58.9375 41.5 64.15625 
Q 37.796875 69.390625 30.90625 69.390625 
z
" id="DejaVuSerif-39"/>
      </defs>
      <g transform="translate(489.685516 596.793316)scale(0.0694 -0.0694)">
       <use xlink:href="#DejaVuSerif-39"/>
       <use x="63.623047" xlink:href="#DejaVuSerif-30"/>
       <use x="127.246094" xlink:href="#DejaVuSerif-30"/>
      </g>
     </g>
    </g>
    <g id="xtick_6">
     <g id="line2d_6">
      <g>
       <use style="stroke:#000000;stroke-width:0.8;" x="583.361509" xlink:href="#mc0ae5883a2" y="584.52"/>
      </g>
     </g>
     <g id="text_6">
      <!-- 1000 -->
      <defs>
       <path d="M 14.203125 0 
L 14.203125 5.171875 
L 26.90625 5.171875 
L 26.90625 65.828125 
L 12.203125 56.296875 
L 12.203125 62.703125 
L 29.984375 74.21875 
L 36.71875 74.21875 
L 36.71875 5.171875 
L 49.421875 5.171875 
L 49.421875 0 
z
" id="DejaVuSerif-31"/>
      </defs>
      <g transform="translate(574.530359 596.793316)scale(0.0694 -0.0694)">
       <use xlink:href="#DejaVuSerif-31"/>
       <use x="63.623047" xlink:href="#DejaVuSerif-30"/>
       <use x="127.246094" xlink:href="#DejaVuSerif-30"/>
       <use x="190.869141" xlink:href="#DejaVuSerif-30"/>
      </g>
     </g>
    </g>
   </g>
   <g id="matplotlib.axis_2">
    <g id="ytick_1">
     <g id="line2d_7">
      <defs>
       <path d="M 0 0 
L -3.5 0 
" id="m7ce0b7afe5" style="stroke:#000000;stroke-width:0.8;"/>
      </defs>
      <g>
       <use style="stroke:#000000;stroke-width:0.8;" x="68.16" xlink:href="#m7ce0b7afe5" y="539.793309"/>
      </g>
     </g>
     <g id="text_7">
      <!-- 800 -->
      <g transform="translate(47.913275 542.429967)scale(0.0694 -0.0694)">
       <use xlink:href="#DejaVuSerif-38"/>
       <use x="63.623047" xlink:href="#DejaVuSerif-30"/>
       <use x="127.246094" xlink:href="#DejaVuSerif-30"/>
      </g>
     </g>
    </g>
    <g id="ytick_2">
     <g id="line2d_8">
      <g>
       <use style="stroke:#000000;stroke-width:0.8;" x="68.16" xlink:href="#m7ce0b7afe5" y="468.157091"/>
      </g>
     </g>
     <g id="text_8">
      <!-- 1000 -->
      <g transform="translate(43.4977 470.793749)scale(0.0694 -0.0694)">
       <use xlink:href="#DejaVuSerif-31"/>
       <use x="63.623047" xlink:href="#DejaVuSerif-30"/>
       <use x="127.246094" xlink:href="#DejaVuSerif-30"/>
       <use x="190.869141" xlink:href="#DejaVuSerif-30"/>
      </g>
     </g>
    </g>
    <g id="ytick_3">
     <g id="line2d_9">
      <g>
       <use style="stroke:#000000;stroke-width:0.8;" x="68.16" xlink:href="#m7ce0b7afe5" y="396.520873"/>
      </g>
     </g>
     <g id="text_9">
      <!-- 1200 -->
      <defs>
       <path d="M 12.796875 55.515625 
L 7.328125 55.515625 
L 7.328125 68.5 
Q 12.546875 71.296875 17.84375 72.75 
Q 23.140625 74.21875 28.21875 74.21875 
Q 39.59375 74.21875 46.1875 68.703125 
Q 52.78125 63.1875 52.78125 53.71875 
Q 52.78125 43.015625 37.84375 28.125 
Q 36.671875 27 36.078125 26.421875 
L 17.671875 8.015625 
L 48.09375 8.015625 
L 48.09375 17 
L 53.8125 17 
L 53.8125 0 
L 6.78125 0 
L 6.78125 5.328125 
L 28.90625 27.390625 
Q 36.234375 34.71875 39.359375 40.84375 
Q 42.484375 46.96875 42.484375 53.71875 
Q 42.484375 61.078125 38.640625 65.234375 
Q 34.8125 69.390625 28.078125 69.390625 
Q 21.09375 69.390625 17.28125 65.921875 
Q 13.484375 62.453125 12.796875 55.515625 
z
" id="DejaVuSerif-32"/>
      </defs>
      <g transform="translate(43.4977 399.157531)scale(0.0694 -0.0694)">
       <use xlink:href="#DejaVuSerif-31"/>
       <use x="63.623047" xlink:href="#DejaVuSerif-32"/>
       <use x="127.246094" xlink:href="#DejaVuSerif-30"/>
       <use x="190.869141" xlink:href="#DejaVuSerif-30"/>
      </g>
     </g>
    </g>
    <g id="ytick_4">
     <g id="line2d_10">
      <g>
       <use style="stroke:#000000;stroke-width:0.8;" x="68.16" xlink:href="#m7ce0b7afe5" y="324.884655"/>
      </g>
     </g>
     <g id="text_10">
      <!-- 1400 -->
      <defs>
       <path d="M 34.90625 24.703125 
L 34.90625 63.484375 
L 10.015625 24.703125 
z
M 56.390625 0 
L 23.1875 0 
L 23.1875 5.171875 
L 34.90625 5.171875 
L 34.90625 19.484375 
L 3.078125 19.484375 
L 3.078125 24.8125 
L 35.015625 74.21875 
L 44.671875 74.21875 
L 44.671875 24.703125 
L 58.59375 24.703125 
L 58.59375 19.484375 
L 44.671875 19.484375 
L 44.671875 5.171875 
L 56.390625 5.171875 
z
" id="DejaVuSerif-34"/>
      </defs>
      <g transform="translate(43.4977 327.521312)scale(0.0694 -0.0694)">
       <use xlink:href="#DejaVuSerif-31"/>
       <use x="63.623047" xlink:href="#DejaVuSerif-34"/>
       <use x="127.246094" xlink:href="#DejaVuSerif-30"/>
       <use x="190.869141" xlink:href="#DejaVuSerif-30"/>
      </g>
     </g>
    </g>
    <g id="ytick_5">
     <g id="line2d_11">
      <g>
       <use style="stroke:#000000;stroke-width:0.8;" x="68.16" xlink:href="#m7ce0b7afe5" y="253.248436"/>
      </g>
     </g>
     <g id="text_11">
      <!-- 1600 -->
      <g transform="translate(43.4977 255.885094)scale(0.0694 -0.0694)">
       <use xlink:href="#DejaVuSerif-31"/>
       <use x="63.623047" xlink:href="#DejaVuSerif-36"/>
       <use x="127.246094" xlink:href="#DejaVuSerif-30"/>
       <use x="190.869141" xlink:href="#DejaVuSerif-30"/>
      </g>
     </g>
    </g>
    <g id="ytick_6">
     <g id="line2d_12">
      <g>
       <use style="stroke:#000000;stroke-width:0.8;" x="68.16" xlink:href="#m7ce0b7afe5" y="181.612218"/>
      </g>
     </g>
     <g id="text_12">
      <!-- 1800 -->
      <g transform="translate(43.4977 184.248876)scale(0.0694 -0.0694)">
       <use xlink:href="#DejaVuSerif-31"/>
       <use x="63.623047" xlink:href="#DejaVuSerif-38"/>
       <use x="127.246094" xlink:href="#DejaVuSerif-30"/>
       <use x="190.869141" xlink:href="#DejaVuSerif-30"/>
      </g>
     </g>
    </g>
    <g id="ytick_7">
     <g id="line2d_13">
      <g>
       <use style="stroke:#000000;stroke-width:0.8;" x="68.16" xlink:href="#m7ce0b7afe5" y="109.976"/>
      </g>
     </g>
     <g id="text_13">
      <!-- 2000 -->
      <g transform="translate(43.4977 112.612658)scale(0.0694 -0.0694)">
       <use xlink:href="#DejaVuSerif-32"/>
       <use x="63.623047" xlink:href="#DejaVuSerif-30"/>
       <use x="127.246094" xlink:href="#DejaVuSerif-30"/>
       <use x="190.869141" xlink:href="#DejaVuSerif-30"/>
      </g>
     </g>
    </g>
   </g>
   <g id="patch_3">
    <path d="M 68.16 584.52 
L 68.16 52.52 
" style="fill:none;stroke:#000000;stroke-linecap:square;stroke-linejoin:miter;stroke-width:0.8;"/>
   </g>
   <g id="patch_4">
    <path d="M 660.368 584.52 
L 660.368 52.52 
" style="fill:none;stroke:#000000;stroke-linecap:square;stroke-linejoin:miter;stroke-width:0.8;"/>
   </g>
   <g id="patch_5">
    <path d="M 68.16 584.52 
L 660.368 584.52 
" style="fill:none;stroke:#000000;stroke-linecap:square;stroke-linejoin:miter;stroke-width:0.8;"/>
   </g>
   <g id="patch_6">
    <path d="M 68.16 52.52 
L 660.368 52.52 
" style="fill:none;stroke:#000000;stroke-linecap:square;stroke-linejoin:miter;stroke-width:0.8;"/>
   </g>
  </g>
  <g id="axes_2">
   <g id="patch_7">
    <path clip-path="url(#ped4bef14a4)" d="M 697.381 584.52 
L 697.381 553.225882 
L 697.381 83.814118 
L 697.381 52.52 
L 723.981 52.52 
L 723.981 83.814118 
L 723.981 553.225882 
L 723.981 584.52 
z
" style="fill:#ffffff;stroke:#ffffff;stroke-linejoin:miter;stroke-width:0.01;"/>
   </g>
   <g id="QuadMesh_1">
    <path clip-path="url(#ped4bef14a4)" d="M 697.381 584.52 
L 723.981 584.52 
L 723.981 553.225882 
L 697.381 553.225882 
L 697.381 584.52 
" style="fill:#fcfcfc;"/>
    <path clip-path="url(#ped4bef14a4)" d="M 697.381 553.225882 
L 723.981 553.225882 
L 723.981 521.931765 
L 697.381 521.931765 
L 697.381 553.225882 
" style="fill:#f5f5f5;"/>
    <path clip-path="url(#ped4bef14a4)" d="M 697.381 521.931765 
L 723.981 521.931765 
L 723.981 490.637647 
L 697.381 490.637647 
L 697.381 521.931765 
" style="fill:#ececec;"/>
    <path clip-path="url(#ped4bef14a4)" d="M 697.381 490.637647 
L 723.981 490.637647 
L 723.981 459.343529 
L 697.381 459.343529 
L 697.381 490.637647 
" style="fill:#e1e1e1;"/>
    <path clip-path="url(#ped4bef14a4)" d="M 697.381 459.343529 
L 723.981 459.343529 
L 723.981 428.049412 
L 697.381 428.049412 
L 697.381 459.343529 
" style="fill:#d6d6d6;"/>
    <path clip-path="url(#ped4bef14a4)" d="M 697.381 428.049412 
L 723.981 428.049412 
L 723.981 396.755294 
L 697.381 396.755294 
L 697.381 428.049412 
" style="fill:#c9c9c9;"/>
    <path clip-path="url(#ped4bef14a4)" d="M 697.381 396.755294 
L 723.981 396.755294 
L 723.981 365.461176 
L 697.381 365.461176 
L 697.381 396.755294 
" style="fill:#bbbbbb;"/>
    <path clip-path="url(#ped4bef14a4)" d="M 697.381 365.461176 
L 723.981 365.461176 
L 723.981 334.167059 
L 697.381 334.167059 
L 697.381 365.461176 
" style="fill:#a9a9a9;"/>
    <path clip-path="url(#ped4bef14a4)" d="M 697.381 334.167059 
L 723.981 334.167059 
L 723.981 302.872941 
L 697.381 302.872941 
L 697.381 334.167059 
" style="fill:#979797;"/>
    <path clip-path="url(#ped4bef14a4)" d="M 697.381 302.872941 
L 723.981 302.872941 
L 723.981 271.578824 
L 697.381 271.578824 
L 697.381 302.872941 
" style="fill:#858585;"/>
    <path clip-path="url(#ped4bef14a4)" d="M 697.381 271.578824 
L 723.981 271.578824 
L 723.981 240.284706 
L 697.381 240.284706 
L 697.381 271.578824 
" style="fill:#757575;"/>
    <path clip-path="url(#ped4bef14a4)" d="M 697.381 240.284706 
L 723.981 240.284706 
L 723.981 208.990588 
L 697.381 208.990588 
L 697.381 240.284706 
" style="fill:#656565;"/>
    <path clip-path="url(#ped4bef14a4)" d="M 697.381 208.990588 
L 723.981 208.990588 
L 723.981 177.696471 
L 697.381 177.696471 
L 697.381 208.990588 
" style="fill:#555555;"/>
    <path clip-path="url(#ped4bef14a4)" d="M 697.381 177.696471 
L 723.981 177.696471 
L 723.981 146.402353 
L 697.381 146.402353 
L 697.381 177.696471 
" style="fill:#414141;"/>
    <path clip-path="url(#ped4bef14a4)" d="M 697.381 146.402353 
L 723.981 146.402353 
L 723.981 115.108235 
L 697.381 115.108235 
L 697.381 146.402353 
" style="fill:#2c2c2c;"/>
    <path clip-path="url(#ped4bef14a4)" d="M 697.381 115.108235 
L 723.981 115.108235 
L 723.981 83.814118 
L 697.381 83.814118 
L 697.381 115.108235 
" style="fill:#1a1a1a;"/>
    <path clip-path="url(#ped4bef14a4)" d="M 697.381 83.814118 
L 723.981 83.814118 
L 723.981 52.52 
L 697.381 52.52 
L 697.381 83.814118 
" style="fill:#080808;"/>
   </g>
   <g id="matplotlib.axis_3"/>
   <g id="matplotlib.axis_4">
    <g id="ytick_8">
     <g id="line2d_14">
      <defs>
       <path d="M 0 0 
L 3.5 0 
" id="mdf25806812" style="stroke:#000000;stroke-width:0.8;"/>
      </defs>
      <g>
       <use style="stroke:#000000;stroke-width:0.8;" x="723.981" xlink:href="#mdf25806812" y="553.225882"/>
      </g>
     </g>
     <g id="text_14">
      <!-- −0.0052 -->
      <defs>
       <path d="M 10.59375 35.296875 
L 73.1875 35.296875 
L 73.1875 27.390625 
L 10.59375 27.390625 
z
" id="DejaVuSerif-2212"/>
       <path d="M 9.421875 5.078125 
Q 9.421875 7.8125 11.28125 9.71875 
Q 13.140625 11.625 15.921875 11.625 
Q 18.609375 11.625 20.5 9.71875 
Q 22.40625 7.8125 22.40625 5.078125 
Q 22.40625 2.390625 20.5 0.484375 
Q 18.609375 -1.421875 15.921875 -1.421875 
Q 13.140625 -1.421875 11.28125 0.453125 
Q 9.421875 2.34375 9.421875 5.078125 
z
" id="DejaVuSerif-2e"/>
      </defs>
      <g transform="translate(730.981 555.86254)scale(0.0694 -0.0694)">
       <use xlink:href="#DejaVuSerif-2212"/>
       <use x="83.789062" xlink:href="#DejaVuSerif-30"/>
       <use x="147.412109" xlink:href="#DejaVuSerif-2e"/>
       <use x="179.199219" xlink:href="#DejaVuSerif-30"/>
       <use x="242.822266" xlink:href="#DejaVuSerif-30"/>
       <use x="306.445312" xlink:href="#DejaVuSerif-35"/>
       <use x="370.068359" xlink:href="#DejaVuSerif-32"/>
      </g>
     </g>
    </g>
    <g id="ytick_9">
     <g id="line2d_15">
      <g>
       <use style="stroke:#000000;stroke-width:0.8;" x="723.981" xlink:href="#mdf25806812" y="490.637647"/>
      </g>
     </g>
     <g id="text_15">
      <!-- −0.0049 -->
      <g transform="translate(730.981 493.274305)scale(0.0694 -0.0694)">
       <use xlink:href="#DejaVuSerif-2212"/>
       <use x="83.789062" xlink:href="#DejaVuSerif-30"/>
       <use x="147.412109" xlink:href="#DejaVuSerif-2e"/>
       <use x="179.199219" xlink:href="#DejaVuSerif-30"/>
       <use x="242.822266" xlink:href="#DejaVuSerif-30"/>
       <use x="306.445312" xlink:href="#DejaVuSerif-34"/>
       <use x="370.068359" xlink:href="#DejaVuSerif-39"/>
      </g>
     </g>
    </g>
    <g id="ytick_10">
     <g id="line2d_16">
      <g>
       <use style="stroke:#000000;stroke-width:0.8;" x="723.981" xlink:href="#mdf25806812" y="428.049412"/>
      </g>
     </g>
     <g id="text_16">
      <!-- −0.0046 -->
      <g transform="translate(730.981 430.68607)scale(0.0694 -0.0694)">
       <use xlink:href="#DejaVuSerif-2212"/>
       <use x="83.789062" xlink:href="#DejaVuSerif-30"/>
       <use x="147.412109" xlink:href="#DejaVuSerif-2e"/>
       <use x="179.199219" xlink:href="#DejaVuSerif-30"/>
       <use x="242.822266" xlink:href="#DejaVuSerif-30"/>
       <use x="306.445312" xlink:href="#DejaVuSerif-34"/>
       <use x="370.068359" xlink:href="#DejaVuSerif-36"/>
      </g>
     </g>
    </g>
    <g id="ytick_11">
     <g id="line2d_17">
      <g>
       <use style="stroke:#000000;stroke-width:0.8;" x="723.981" xlink:href="#mdf25806812" y="365.461176"/>
      </g>
     </g>
     <g id="text_17">
      <!-- −0.0043 -->
      <defs>
       <path d="M 9.71875 69.828125 
Q 15.4375 71.96875 20.671875 73.09375 
Q 25.921875 74.21875 30.515625 74.21875 
Q 41.21875 74.21875 47.21875 69.59375 
Q 53.21875 64.984375 53.21875 56.78125 
Q 53.21875 50.203125 49.0625 45.78125 
Q 44.921875 41.359375 37.3125 39.796875 
Q 46.296875 38.53125 51.25 33.28125 
Q 56.203125 28.03125 56.203125 19.671875 
Q 56.203125 9.46875 49.34375 4.015625 
Q 42.484375 -1.421875 29.59375 -1.421875 
Q 23.875 -1.421875 18.421875 -0.1875 
Q 12.984375 1.03125 7.625 3.515625 
L 7.625 17.671875 
L 13.09375 17.671875 
Q 13.578125 10.640625 17.828125 7.03125 
Q 22.078125 3.421875 29.78125 3.421875 
Q 37.25 3.421875 41.578125 7.734375 
Q 45.90625 12.0625 45.90625 19.578125 
Q 45.90625 28.171875 41.453125 32.59375 
Q 37.015625 37.015625 28.421875 37.015625 
L 23.78125 37.015625 
L 23.78125 42 
L 26.21875 42 
Q 34.765625 42 39.03125 45.53125 
Q 43.3125 49.078125 43.3125 56.203125 
Q 43.3125 62.59375 39.796875 65.984375 
Q 36.28125 69.390625 29.6875 69.390625 
Q 23.09375 69.390625 19.453125 66.265625 
Q 15.828125 63.140625 15.1875 56.984375 
L 9.71875 56.984375 
z
" id="DejaVuSerif-33"/>
      </defs>
      <g transform="translate(730.981 368.097834)scale(0.0694 -0.0694)">
       <use xlink:href="#DejaVuSerif-2212"/>
       <use x="83.789062" xlink:href="#DejaVuSerif-30"/>
       <use x="147.412109" xlink:href="#DejaVuSerif-2e"/>
       <use x="179.199219" xlink:href="#DejaVuSerif-30"/>
       <use x="242.822266" xlink:href="#DejaVuSerif-30"/>
       <use x="306.445312" xlink:href="#DejaVuSerif-34"/>
       <use x="370.068359" xlink:href="#DejaVuSerif-33"/>
      </g>
     </g>
    </g>
    <g id="ytick_12">
     <g id="line2d_18">
      <g>
       <use style="stroke:#000000;stroke-width:0.8;" x="723.981" xlink:href="#mdf25806812" y="302.872941"/>
      </g>
     </g>
     <g id="text_18">
      <!-- −0.0040 -->
      <g transform="translate(730.981 305.509599)scale(0.0694 -0.0694)">
       <use xlink:href="#DejaVuSerif-2212"/>
       <use x="83.789062" xlink:href="#DejaVuSerif-30"/>
       <use x="147.412109" xlink:href="#DejaVuSerif-2e"/>
       <use x="179.199219" xlink:href="#DejaVuSerif-30"/>
       <use x="242.822266" xlink:href="#DejaVuSerif-30"/>
       <use x="306.445312" xlink:href="#DejaVuSerif-34"/>
       <use x="370.068359" xlink:href="#DejaVuSerif-30"/>
      </g>
     </g>
    </g>
    <g id="ytick_13">
     <g id="line2d_19">
      <g>
       <use style="stroke:#000000;stroke-width:0.8;" x="723.981" xlink:href="#mdf25806812" y="240.284706"/>
      </g>
     </g>
     <g id="text_19">
      <!-- −0.0037 -->
      <g transform="translate(730.981 242.921364)scale(0.0694 -0.0694)">
       <use xlink:href="#DejaVuSerif-2212"/>
       <use x="83.789062" xlink:href="#DejaVuSerif-30"/>
       <use x="147.412109" xlink:href="#DejaVuSerif-2e"/>
       <use x="179.199219" xlink:href="#DejaVuSerif-30"/>
       <use x="242.822266" xlink:href="#DejaVuSerif-30"/>
       <use x="306.445312" xlink:href="#DejaVuSerif-33"/>
       <use x="370.068359" xlink:href="#DejaVuSerif-37"/>
      </g>
     </g>
    </g>
    <g id="ytick_14">
     <g id="line2d_20">
      <g>
       <use style="stroke:#000000;stroke-width:0.8;" x="723.981" xlink:href="#mdf25806812" y="177.696471"/>
      </g>
     </g>
     <g id="text_20">
      <!-- −0.0034 -->
      <g transform="translate(730.981 180.333128)scale(0.0694 -0.0694)">
       <use xlink:href="#DejaVuSerif-2212"/>
       <use x="83.789062" xlink:href="#DejaVuSerif-30"/>
       <use x="147.412109" xlink:href="#DejaVuSerif-2e"/>
       <use x="179.199219" xlink:href="#DejaVuSerif-30"/>
       <use x="242.822266" xlink:href="#DejaVuSerif-30"/>
       <use x="306.445312" xlink:href="#DejaVuSerif-33"/>
       <use x="370.068359" xlink:href="#DejaVuSerif-34"/>
      </g>
     </g>
    </g>
    <g id="ytick_15">
     <g id="line2d_21">
      <g>
       <use style="stroke:#000000;stroke-width:0.8;" x="723.981" xlink:href="#mdf25806812" y="115.108235"/>
      </g>
     </g>
     <g id="text_21">
      <!-- −0.0031 -->
      <g transform="translate(730.981 117.744893)scale(0.0694 -0.0694)">
       <use xlink:href="#DejaVuSerif-2212"/>
       <use x="83.789062" xlink:href="#DejaVuSerif-30"/>
       <use x="147.412109" xlink:href="#DejaVuSerif-2e"/>
       <use x="179.199219" xlink:href="#DejaVuSerif-30"/>
       <use x="242.822266" xlink:href="#DejaVuSerif-30"/>
       <use x="306.445312" xlink:href="#DejaVuSerif-33"/>
       <use x="370.068359" xlink:href="#DejaVuSerif-31"/>
      </g>
     </g>
    </g>
    <g id="ytick_16">
     <g id="line2d_22">
      <g>
       <use style="stroke:#000000;stroke-width:0.8;" x="723.981" xlink:href="#mdf25806812" y="52.52"/>
      </g>
     </g>
     <g id="text_22">
      <!-- −0.0028 -->
      <g transform="translate(730.981 55.156658)scale(0.0694 -0.0694)">
       <use xlink:href="#DejaVuSerif-2212"/>
       <use x="83.789062" xlink:href="#DejaVuSerif-30"/>
       <use x="147.412109" xlink:href="#DejaVuSerif-2e"/>
       <use x="179.199219" xlink:href="#DejaVuSerif-30"/>
       <use x="242.822266" xlink:href="#DejaVuSerif-30"/>
       <use x="306.445312" xlink:href="#DejaVuSerif-32"/>
       <use x="370.068359" xlink:href="#DejaVuSerif-38"/>
      </g>
     </g>
    </g>
    <g id="text_23">
     <!-- −5.3745e2 -->
     <defs>
      <path d="M 54.203125 25 
L 15.484375 25 
L 15.484375 24.609375 
Q 15.484375 14.109375 19.4375 8.765625 
Q 23.390625 3.421875 31.109375 3.421875 
Q 37.015625 3.421875 40.796875 6.515625 
Q 44.578125 9.625 46.09375 15.71875 
L 53.328125 15.71875 
Q 51.171875 7.171875 45.375 2.875 
Q 39.59375 -1.421875 30.171875 -1.421875 
Q 18.796875 -1.421875 11.890625 6.078125 
Q 4.984375 13.578125 4.984375 25.984375 
Q 4.984375 38.28125 11.765625 45.796875 
Q 18.5625 53.328125 29.59375 53.328125 
Q 41.359375 53.328125 47.65625 46.0625 
Q 53.953125 38.8125 54.203125 25 
z
M 43.609375 30.171875 
Q 43.3125 39.265625 39.765625 43.875 
Q 36.234375 48.484375 29.59375 48.484375 
Q 23.390625 48.484375 19.828125 43.84375 
Q 16.265625 39.203125 15.484375 30.171875 
z
" id="DejaVuSerif-65"/>
     </defs>
     <g transform="translate(685.358816 49.52)scale(0.0694 -0.0694)">
      <use xlink:href="#DejaVuSerif-2212"/>
      <use x="83.789062" xlink:href="#DejaVuSerif-35"/>
      <use x="147.412109" xlink:href="#DejaVuSerif-2e"/>
      <use x="179.199219" xlink:href="#DejaVuSerif-33"/>
      <use x="242.822266" xlink:href="#DejaVuSerif-37"/>
      <use x="306.445312" xlink:href="#DejaVuSerif-34"/>
      <use x="370.068359" xlink:href="#DejaVuSerif-35"/>
      <use x="433.691406" xlink:href="#DejaVuSerif-65"/>
      <use x="492.871094" xlink:href="#DejaVuSerif-32"/>
     </g>
    </g>
   </g>
   <g id="patch_8">
    <path d="M 697.381 584.52 
L 697.381 553.225882 
L 697.381 83.814118 
L 697.381 52.52 
L 723.981 52.52 
L 723.981 83.814118 
L 723.981 553.225882 
L 723.981 584.52 
z
" style="fill:none;stroke:#000000;stroke-linejoin:miter;stroke-width:0.8;"/>
   </g>
  </g>
 </g>
 <defs>
  <clipPath id="p34f464a621">
   <rect height="532" width="592.208" x="68.16" y="52.52"/>
  </clipPath>
  <clipPath id="ped4bef14a4">
   <rect height="532" width="26.6" x="697.381" y="52.52"/>
  </clipPath>
 </defs>
</svg>
