<?xml version="1.0" encoding="utf-8" standalone="no"?>
<!DOCTYPE svg PUBLIC "-//W3C//DTD SVG 1.1//EN"
  "http://www.w3.org/Graphics/SVG/1.1/DTD/svg11.dtd">
<!-- Created with matplotlib (http://matplotlib.org/) -->
<svg height="648pt" version="1.1" viewBox="0 0 864 648" width="864pt" xmlns="http://www.w3.org/2000/svg" xmlns:xlink="http://www.w3.org/1999/xlink">
 <defs>
  <style type="text/css">
*{stroke-linecap:butt;stroke-linejoin:round;}
  </style>
 </defs>
 <g id="figure_1">
  <g id="patch_1">
   <path d="M 0 648 
L 864 648 
L 864 0 
L 0 0 
z
" style="fill:#ffffff;"/>
  </g>
  <g id="axes_1">
   <g id="patch_2">
    <path d="M 68.16 584.52 
L 660.368 584.52 
L 660.368 52.52 
L 68.16 52.52 
z
" style="fill:#ffffff;"/>
   </g>
   <g id="PathCollection_1">
    <path clip-path="url(#pbfc758e77a)" d="M 660.368 250.273536 
L 660.368 212.12 
L 660.368 158.92 
L 660.368 105.72 
L 660.368 52.52 
L 636.805347 52.52 
L 641.779685 105.72 
L 643.219625 158.92 
L 651.073842 212.12 
z
" style="fill:#fcfcfc;"/>
   </g>
   <g id="PathCollection_2">
    <path clip-path="url(#pbfc758e77a)" d="M 660.368 468.689091 
L 660.368 424.92 
L 660.368 371.72 
L 660.368 318.52 
L 660.368 265.32 
L 660.368 250.273536 
L 651.073842 212.12 
L 643.219625 158.92 
L 641.779685 105.72 
L 636.805347 52.52 
L 561.666667 52.52 
L 543.663034 52.52 
L 546.690193 105.72 
L 547.566476 158.92 
L 552.338673 212.12 
L 560.231591 265.32 
L 561.666667 284.862856 
L 565.724679 318.52 
L 590.465464 371.72 
L 636.674444 424.92 
z
" style="fill:#f6f6f6;"/>
   </g>
   <g id="PathCollection_3">
    <path clip-path="url(#pbfc758e77a)" d="M 660.368 584.52 
L 660.368 572.577143 
L 637.050638 584.52 
z
" style="fill:#efefef;"/>
    <path clip-path="url(#pbfc758e77a)" d="M 561.666667 478.275556 
L 660.368 507.692827 
L 660.368 478.12 
L 660.368 468.689091 
L 636.674444 424.92 
L 590.465464 371.72 
L 565.724679 318.52 
L 561.666667 284.862856 
L 560.231591 265.32 
L 552.338673 212.12 
L 547.566476 158.92 
L 546.690193 105.72 
L 543.663034 52.52 
L 479.933359 52.52 
L 482.960519 105.72 
L 483.836802 158.92 
L 488.557521 212.12 
L 496.450438 265.32 
L 500.406517 318.52 
L 515.425331 371.72 
L 543.554134 424.92 
L 561.348275 478.12 
z
" style="fill:#efefef;"/>
   </g>
   <g id="PathCollection_4">
    <path clip-path="url(#pbfc758e77a)" d="M 561.666667 584.52 
L 637.050638 584.52 
L 660.368 572.577143 
L 660.368 531.32 
L 660.368 507.692827 
L 561.666667 478.275556 
L 561.348275 478.12 
L 543.554134 424.92 
L 515.425331 371.72 
L 500.406517 318.52 
L 496.450438 265.32 
L 488.557521 212.12 
L 483.836802 158.92 
L 482.960519 105.72 
L 479.933359 52.52 
L 462.965333 52.52 
L 428.74343 52.52 
L 430.958817 105.72 
L 431.600113 158.92 
L 435.039794 212.12 
L 440.81146 265.32 
L 443.726444 318.52 
L 454.681888 371.72 
L 462.965333 393.181364 
L 479.721421 424.92 
L 497.669996 478.12 
L 561.666667 509.386667 
L 635.300994 531.32 
L 561.666667 569.061887 
L 543.114992 584.52 
z
" style="fill:#e5e5e5;"/>
   </g>
   <g id="PathCollection_5">
    <path clip-path="url(#pbfc758e77a)" d="M 561.666667 569.061887 
L 635.300994 531.32 
L 561.666667 509.386667 
L 497.669996 478.12 
L 479.721421 424.92 
L 462.965333 393.181364 
L 454.681888 371.72 
L 443.726444 318.52 
L 440.81146 265.32 
L 435.039794 212.12 
L 431.600113 158.92 
L 430.958817 105.72 
L 428.74343 52.52 
L 382.103698 52.52 
L 384.319085 105.72 
L 384.960381 158.92 
L 388.400061 212.12 
L 394.171728 265.32 
L 397.086712 318.52 
L 408.014591 371.72 
L 428.548202 424.92 
L 441.756782 478.12 
L 462.965333 492.275556 
L 542.881574 531.32 
L 478.866769 584.52 
L 543.114992 584.52 
z
" style="fill:#dcdcdc;"/>
   </g>
   <g id="PathCollection_6">
    <path clip-path="url(#pbfc758e77a)" d="M 462.965333 584.52 
L 478.866769 584.52 
L 542.881574 531.32 
L 462.965333 492.275556 
L 441.756782 478.12 
L 428.548202 424.92 
L 408.014591 371.72 
L 397.086712 318.52 
L 394.171728 265.32 
L 388.400061 212.12 
L 384.960381 158.92 
L 384.319085 105.72 
L 382.103698 52.52 
L 364.264 52.52 
L 330.591031 52.52 
L 333.181259 105.72 
L 333.9101 158.92 
L 337.952733 212.12 
L 344.68744 265.32 
L 348.09799 318.52 
L 360.853449 371.72 
L 364.264 379.276819 
L 381.880905 424.92 
L 395.144582 478.12 
L 462.965333 523.386667 
L 479.203294 531.32 
L 462.965333 544.785012 
L 427.72322 584.52 
z
" style="fill:#d0d0d0;"/>
   </g>
   <g id="PathCollection_7">
    <path clip-path="url(#pbfc758e77a)" d="M 462.965333 544.785012 
L 479.203294 531.32 
L 462.965333 523.386667 
L 395.144582 478.12 
L 381.880905 424.92 
L 364.264 379.276819 
L 360.853449 371.72 
L 348.09799 318.52 
L 344.68744 265.32 
L 337.952733 212.12 
L 333.9101 158.92 
L 333.181259 105.72 
L 330.591031 52.52 
L 276.059908 52.52 
L 278.650136 105.72 
L 279.341291 158.92 
L 283.42161 212.12 
L 290.118631 265.32 
L 293.529181 318.52 
L 306.28464 371.72 
L 330.271425 424.92 
L 345.859746 478.12 
L 364.264 488.62 
L 428.239244 531.32 
L 380.889847 584.52 
L 427.72322 584.52 
z
" style="fill:#c5c5c5;"/>
   </g>
   <g id="PathCollection_8">
    <path clip-path="url(#pbfc758e77a)" d="M 364.264 584.52 
L 380.889847 584.52 
L 428.239244 531.32 
L 364.264 488.62 
L 345.859746 478.12 
L 330.271425 424.92 
L 306.28464 371.72 
L 293.529181 318.52 
L 290.118631 265.32 
L 283.42161 212.12 
L 279.341291 158.92 
L 278.650136 105.72 
L 276.059908 52.52 
L 265.562667 52.52 
L 228.535337 52.52 
L 230.713415 105.72 
L 231.306487 158.92 
L 234.725665 212.12 
L 240.357451 265.32 
L 243.208706 318.52 
L 253.933897 371.72 
L 265.562667 402.488091 
L 275.664878 424.92 
L 291.328623 478.12 
L 364.264 519.731111 
L 381.627045 531.32 
L 364.264 550.796167 
L 329.018403 584.52 
z
" style="fill:#b6b6b6;"/>
   </g>
   <g id="PathCollection_9">
    <path clip-path="url(#pbfc758e77a)" d="M 364.264 550.796167 
L 381.627045 531.32 
L 364.264 519.731111 
L 291.328623 478.12 
L 275.664878 424.92 
L 265.562667 402.488091 
L 253.933897 371.72 
L 243.208706 318.52 
L 240.357451 265.32 
L 234.725665 212.12 
L 231.306487 158.92 
L 230.713415 105.72 
L 228.535337 52.52 
L 182.681059 52.52 
L 184.859137 105.72 
L 185.478822 158.92 
L 188.871387 212.12 
L 194.529786 265.32 
L 197.354428 318.52 
L 208.106232 371.72 
L 228.19143 424.92 
L 241.416601 478.12 
L 265.562667 494.555139 
L 329.998392 531.32 
L 274.374066 584.52 
L 329.018403 584.52 
z
" style="fill:#a7a7a7;"/>
   </g>
   <g id="PathCollection_10">
    <path clip-path="url(#pbfc758e77a)" d="M 265.562667 584.52 
L 274.374066 584.52 
L 329.998392 531.32 
L 265.562667 494.555139 
L 241.416601 478.12 
L 228.19143 424.92 
L 208.106232 371.72 
L 197.354428 318.52 
L 194.529786 265.32 
L 188.871387 212.12 
L 185.478822 158.92 
L 184.859137 105.72 
L 182.681059 52.52 
L 166.861333 52.52 
L 155.659363 52.52 
L 156.471719 105.72 
L 156.706875 158.92 
L 157.966239 212.12 
L 160.0831 265.32 
L 161.132081 318.52 
L 165.150738 371.72 
L 166.861333 383.88 
L 182.337152 424.92 
L 195.64207 478.12 
L 265.562667 525.711801 
L 275.391845 531.32 
L 265.562667 540.719755 
L 227.280242 584.52 
z
" style="fill:#959595;"/>
   </g>
   <g id="PathCollection_11">
    <path clip-path="url(#pbfc758e77a)" d="M 265.562667 540.719755 
L 275.391845 531.32 
L 265.562667 525.711801 
L 195.64207 478.12 
L 182.337152 424.92 
L 166.861333 383.88 
L 165.150738 371.72 
L 161.132081 318.52 
L 160.0831 265.32 
L 157.966239 212.12 
L 156.706875 158.92 
L 156.471719 105.72 
L 155.659363 52.52 
L 138.557117 52.52 
L 139.369474 105.72 
L 139.60463 158.92 
L 140.860289 212.12 
L 142.97715 265.32 
L 144.029836 318.52 
L 148.044788 371.72 
L 155.533549 424.92 
L 160.518993 478.12 
L 166.861333 489.695385 
L 228.005779 531.32 
L 181.638007 584.52 
L 227.280242 584.52 
z
" style="fill:#878787;"/>
   </g>
   <g id="PathCollection_12">
    <path clip-path="url(#pbfc758e77a)" d="M 166.861333 584.52 
L 181.638007 584.52 
L 228.005779 531.32 
L 166.861333 489.695385 
L 160.518993 478.12 
L 155.533549 424.92 
L 148.044788 371.72 
L 144.029836 318.52 
L 142.97715 265.32 
L 140.860289 212.12 
L 139.60463 158.92 
L 139.369474 105.72 
L 138.557117 52.52 
L 121.454872 52.52 
L 122.267229 105.72 
L 122.502385 158.92 
L 123.754339 212.12 
L 125.8712 265.32 
L 126.92759 318.52 
L 130.938838 371.72 
L 138.435007 424.92 
L 143.435249 478.12 
L 166.861333 520.874872 
L 182.204696 531.32 
L 166.861333 548.943733 
L 155.350788 584.52 
z
" style="fill:#797979;"/>
   </g>
   <g id="PathCollection_13">
    <path clip-path="url(#pbfc758e77a)" d="M 166.861333 548.943733 
L 182.204696 531.32 
L 166.861333 520.874872 
L 143.435249 478.12 
L 138.435007 424.92 
L 130.938838 371.72 
L 126.92759 318.52 
L 125.8712 265.32 
L 123.754339 212.12 
L 122.502385 158.92 
L 122.267229 105.72 
L 121.454872 52.52 
L 104.352627 52.52 
L 105.164983 105.72 
L 105.400139 158.92 
L 106.648388 212.12 
L 108.76525 265.32 
L 109.825345 318.52 
L 113.832887 371.72 
L 121.336465 424.92 
L 126.351504 478.12 
L 155.498185 531.32 
L 138.329648 584.52 
L 155.350788 584.52 
z
" style="fill:#6a6a6a;"/>
   </g>
   <g id="PathCollection_14">
    <path clip-path="url(#pbfc758e77a)" d="M 155.498185 531.32 
L 126.351504 478.12 
L 121.336465 424.92 
L 113.832887 371.72 
L 109.825345 318.52 
L 108.76525 265.32 
L 106.648388 212.12 
L 105.400139 158.92 
L 105.164983 105.72 
L 104.352627 52.52 
L 87.250381 52.52 
L 88.062738 105.72 
L 88.297894 158.92 
L 89.542438 212.12 
L 91.659299 265.32 
L 92.7231 318.52 
L 96.726937 371.72 
L 104.237923 424.92 
L 109.26776 478.12 
L 138.410743 531.32 
L 121.308508 584.52 
L 138.329648 584.52 
z
" style="fill:#5d5d5d;"/>
   </g>
   <g id="PathCollection_15">
    <path clip-path="url(#pbfc758e77a)" d="M 138.410743 531.32 
L 109.26776 478.12 
L 104.237923 424.92 
L 96.726937 371.72 
L 92.7231 318.52 
L 91.659299 265.32 
L 89.542438 212.12 
L 88.297894 158.92 
L 88.062738 105.72 
L 87.250381 52.52 
L 70.148136 52.52 
L 70.960493 105.72 
L 71.195649 158.92 
L 72.436488 212.12 
L 74.553349 265.32 
L 75.620854 318.52 
L 79.620987 371.72 
L 87.139382 424.92 
L 92.184016 478.12 
L 121.323302 531.32 
L 104.287369 584.52 
L 121.308508 584.52 
z
" style="fill:#4d4d4d;"/>
   </g>
   <g id="PathCollection_16">
    <path clip-path="url(#pbfc758e77a)" d="M 121.323302 531.32 
L 92.184016 478.12 
L 87.139382 424.92 
L 79.620987 371.72 
L 75.620854 318.52 
L 74.553349 265.32 
L 72.436488 212.12 
L 71.195649 158.92 
L 70.960493 105.72 
L 70.148136 52.52 
L 68.16 52.52 
L 68.16 105.72 
L 68.16 158.92 
L 68.16 212.12 
L 68.16 265.32 
L 68.16 318.52 
L 68.16 371.72 
L 68.16 411.62 
L 70.04084 424.92 
L 75.100271 478.12 
L 104.235861 531.32 
L 87.266229 584.52 
L 104.287369 584.52 
z
" style="fill:#3a3a3a;"/>
   </g>
   <g id="PathCollection_17">
    <path clip-path="url(#pbfc758e77a)" d="M 104.235861 531.32 
L 75.100271 478.12 
L 70.04084 424.92 
L 68.16 411.62 
L 68.16 424.92 
L 68.16 478.12 
L 68.16 496.646393 
L 87.148419 531.32 
L 70.24509 584.52 
L 87.266229 584.52 
z
" style="fill:#272727;"/>
   </g>
   <g id="PathCollection_18">
    <path clip-path="url(#pbfc758e77a)" d="M 87.148419 531.32 
L 68.16 496.646393 
L 68.16 527.848739 
L 70.060978 531.32 
L 68.16 537.305841 
L 68.16 584.52 
L 70.24509 584.52 
z
" style="fill:#171717;"/>
   </g>
   <g id="PathCollection_19">
    <path clip-path="url(#pbfc758e77a)" d="M 70.060978 531.32 
L 68.16 527.848739 
L 68.16 531.32 
L 68.16 537.305841 
z
" style="fill:#070707;"/>
   </g>
   <g id="matplotlib.axis_1">
    <g id="xtick_1">
     <g id="line2d_1">
      <defs>
       <path d="M 0 0 
L 0 3.5 
" id="m3c422c7ae8" style="stroke:#000000;stroke-width:0.8;"/>
      </defs>
      <g>
       <use style="stroke:#000000;stroke-width:0.8;" x="68.16" xlink:href="#m3c422c7ae8" y="584.52"/>
      </g>
     </g>
     <g id="text_1">
      <!-- 40 -->
      <defs>
       <path d="M 34.90625 24.703125 
L 34.90625 63.484375 
L 10.015625 24.703125 
z
M 56.390625 0 
L 23.1875 0 
L 23.1875 5.171875 
L 34.90625 5.171875 
L 34.90625 19.484375 
L 3.078125 19.484375 
L 3.078125 24.8125 
L 35.015625 74.21875 
L 44.671875 74.21875 
L 44.671875 24.703125 
L 58.59375 24.703125 
L 58.59375 19.484375 
L 44.671875 19.484375 
L 44.671875 5.171875 
L 56.390625 5.171875 
z
" id="DejaVuSerif-34"/>
       <path d="M 31.78125 3.421875 
Q 39.265625 3.421875 42.96875 11.625 
Q 46.6875 19.828125 46.6875 36.375 
Q 46.6875 52.984375 42.96875 61.1875 
Q 39.265625 69.390625 31.78125 69.390625 
Q 24.3125 69.390625 20.59375 61.1875 
Q 16.890625 52.984375 16.890625 36.375 
Q 16.890625 19.828125 20.59375 11.625 
Q 24.3125 3.421875 31.78125 3.421875 
z
M 31.78125 -1.421875 
Q 19.921875 -1.421875 13.25 8.53125 
Q 6.59375 18.5 6.59375 36.375 
Q 6.59375 54.296875 13.25 64.25 
Q 19.921875 74.21875 31.78125 74.21875 
Q 43.703125 74.21875 50.34375 64.25 
Q 56.984375 54.296875 56.984375 36.375 
Q 56.984375 18.5 50.34375 8.53125 
Q 43.703125 -1.421875 31.78125 -1.421875 
z
" id="DejaVuSerif-30"/>
      </defs>
      <g transform="translate(63.744425 596.793316)scale(0.0694 -0.0694)">
       <use xlink:href="#DejaVuSerif-34"/>
       <use x="63.623047" xlink:href="#DejaVuSerif-30"/>
      </g>
     </g>
    </g>
    <g id="xtick_2">
     <g id="line2d_2">
      <g>
       <use style="stroke:#000000;stroke-width:0.8;" x="166.861333" xlink:href="#m3c422c7ae8" y="584.52"/>
      </g>
     </g>
     <g id="text_2">
      <!-- 45 -->
      <defs>
       <path d="M 50.296875 72.90625 
L 50.296875 64.890625 
L 16.890625 64.890625 
L 16.890625 44 
Q 19.4375 45.75 22.828125 46.625 
Q 26.21875 47.515625 30.421875 47.515625 
Q 42.234375 47.515625 49.0625 40.96875 
Q 55.90625 34.421875 55.90625 23.09375 
Q 55.90625 11.53125 49 5.046875 
Q 42.09375 -1.421875 29.59375 -1.421875 
Q 24.5625 -1.421875 19.28125 -0.1875 
Q 14.015625 1.03125 8.5 3.515625 
L 8.5 17.671875 
L 14.015625 17.671875 
Q 14.453125 10.75 18.421875 7.078125 
Q 22.40625 3.421875 29.59375 3.421875 
Q 37.3125 3.421875 41.453125 8.5 
Q 45.609375 13.578125 45.609375 23.09375 
Q 45.609375 32.5625 41.484375 37.609375 
Q 37.359375 42.671875 29.59375 42.671875 
Q 25.203125 42.671875 21.84375 41.109375 
Q 18.5 39.546875 15.921875 36.28125 
L 11.71875 36.28125 
L 11.71875 72.90625 
z
" id="DejaVuSerif-35"/>
      </defs>
      <g transform="translate(162.445758 596.793316)scale(0.0694 -0.0694)">
       <use xlink:href="#DejaVuSerif-34"/>
       <use x="63.623047" xlink:href="#DejaVuSerif-35"/>
      </g>
     </g>
    </g>
    <g id="xtick_3">
     <g id="line2d_3">
      <g>
       <use style="stroke:#000000;stroke-width:0.8;" x="265.562667" xlink:href="#m3c422c7ae8" y="584.52"/>
      </g>
     </g>
     <g id="text_3">
      <!-- 50 -->
      <g transform="translate(261.147092 596.793316)scale(0.0694 -0.0694)">
       <use xlink:href="#DejaVuSerif-35"/>
       <use x="63.623047" xlink:href="#DejaVuSerif-30"/>
      </g>
     </g>
    </g>
    <g id="xtick_4">
     <g id="line2d_4">
      <g>
       <use style="stroke:#000000;stroke-width:0.8;" x="364.264" xlink:href="#m3c422c7ae8" y="584.52"/>
      </g>
     </g>
     <g id="text_4">
      <!-- 55 -->
      <g transform="translate(359.848425 596.793316)scale(0.0694 -0.0694)">
       <use xlink:href="#DejaVuSerif-35"/>
       <use x="63.623047" xlink:href="#DejaVuSerif-35"/>
      </g>
     </g>
    </g>
    <g id="xtick_5">
     <g id="line2d_5">
      <g>
       <use style="stroke:#000000;stroke-width:0.8;" x="462.965333" xlink:href="#m3c422c7ae8" y="584.52"/>
      </g>
     </g>
     <g id="text_5">
      <!-- 60 -->
      <defs>
       <path d="M 32.71875 3.421875 
Q 39.59375 3.421875 43.296875 8.46875 
Q 47.015625 13.53125 47.015625 23 
Q 47.015625 32.46875 43.296875 37.515625 
Q 39.59375 42.578125 32.71875 42.578125 
Q 25.734375 42.578125 22.0625 37.6875 
Q 18.40625 32.8125 18.40625 23.578125 
Q 18.40625 13.875 22.109375 8.640625 
Q 25.828125 3.421875 32.71875 3.421875 
z
M 16.796875 40.140625 
Q 20.125 43.796875 24.3125 45.59375 
Q 28.515625 47.40625 33.796875 47.40625 
Q 44.671875 47.40625 51 40.859375 
Q 57.328125 34.328125 57.328125 23 
Q 57.328125 11.921875 50.515625 5.25 
Q 43.703125 -1.421875 32.328125 -1.421875 
Q 19.96875 -1.421875 13.328125 7.78125 
Q 6.6875 17 6.6875 34.078125 
Q 6.6875 53.21875 14.546875 63.71875 
Q 22.40625 74.21875 36.71875 74.21875 
Q 40.578125 74.21875 44.828125 73.484375 
Q 49.078125 72.75 53.515625 71.296875 
L 53.515625 59.28125 
L 48 59.28125 
Q 47.40625 64.203125 44.234375 66.796875 
Q 41.0625 69.390625 35.6875 69.390625 
Q 26.21875 69.390625 21.578125 62.203125 
Q 16.9375 55.03125 16.796875 40.140625 
z
" id="DejaVuSerif-36"/>
      </defs>
      <g transform="translate(458.549758 596.793316)scale(0.0694 -0.0694)">
       <use xlink:href="#DejaVuSerif-36"/>
       <use x="63.623047" xlink:href="#DejaVuSerif-30"/>
      </g>
     </g>
    </g>
    <g id="xtick_6">
     <g id="line2d_6">
      <g>
       <use style="stroke:#000000;stroke-width:0.8;" x="561.666667" xlink:href="#m3c422c7ae8" y="584.52"/>
      </g>
     </g>
     <g id="text_6">
      <!-- 65 -->
      <g transform="translate(557.251092 596.793316)scale(0.0694 -0.0694)">
       <use xlink:href="#DejaVuSerif-36"/>
       <use x="63.623047" xlink:href="#DejaVuSerif-35"/>
      </g>
     </g>
    </g>
    <g id="xtick_7">
     <g id="line2d_7">
      <g>
       <use style="stroke:#000000;stroke-width:0.8;" x="660.368" xlink:href="#m3c422c7ae8" y="584.52"/>
      </g>
     </g>
     <g id="text_7">
      <!-- 70 -->
      <defs>
       <path d="M 56.390625 67.921875 
L 27.875 0 
L 20.609375 0 
L 47.796875 64.890625 
L 14.109375 64.890625 
L 14.109375 55.90625 
L 8.40625 55.90625 
L 8.40625 72.90625 
L 56.390625 72.90625 
z
" id="DejaVuSerif-37"/>
      </defs>
      <g transform="translate(655.952425 596.793316)scale(0.0694 -0.0694)">
       <use xlink:href="#DejaVuSerif-37"/>
       <use x="63.623047" xlink:href="#DejaVuSerif-30"/>
      </g>
     </g>
    </g>
   </g>
   <g id="matplotlib.axis_2">
    <g id="ytick_1">
     <g id="line2d_8">
      <defs>
       <path d="M 0 0 
L -3.5 0 
" id="mbaa29e43a6" style="stroke:#000000;stroke-width:0.8;"/>
      </defs>
      <g>
       <use style="stroke:#000000;stroke-width:0.8;" x="68.16" xlink:href="#mbaa29e43a6" y="584.52"/>
      </g>
     </g>
     <g id="text_8">
      <!-- 100 -->
      <defs>
       <path d="M 14.203125 0 
L 14.203125 5.171875 
L 26.90625 5.171875 
L 26.90625 65.828125 
L 12.203125 56.296875 
L 12.203125 62.703125 
L 29.984375 74.21875 
L 36.71875 74.21875 
L 36.71875 5.171875 
L 49.421875 5.171875 
L 49.421875 0 
z
" id="DejaVuSerif-31"/>
      </defs>
      <g transform="translate(47.913275 587.156658)scale(0.0694 -0.0694)">
       <use xlink:href="#DejaVuSerif-31"/>
       <use x="63.623047" xlink:href="#DejaVuSerif-30"/>
       <use x="127.246094" xlink:href="#DejaVuSerif-30"/>
      </g>
     </g>
    </g>
    <g id="ytick_2">
     <g id="line2d_9">
      <g>
       <use style="stroke:#000000;stroke-width:0.8;" x="68.16" xlink:href="#mbaa29e43a6" y="518.02"/>
      </g>
     </g>
     <g id="text_9">
      <!-- 125 -->
      <defs>
       <path d="M 12.796875 55.515625 
L 7.328125 55.515625 
L 7.328125 68.5 
Q 12.546875 71.296875 17.84375 72.75 
Q 23.140625 74.21875 28.21875 74.21875 
Q 39.59375 74.21875 46.1875 68.703125 
Q 52.78125 63.1875 52.78125 53.71875 
Q 52.78125 43.015625 37.84375 28.125 
Q 36.671875 27 36.078125 26.421875 
L 17.671875 8.015625 
L 48.09375 8.015625 
L 48.09375 17 
L 53.8125 17 
L 53.8125 0 
L 6.78125 0 
L 6.78125 5.328125 
L 28.90625 27.390625 
Q 36.234375 34.71875 39.359375 40.84375 
Q 42.484375 46.96875 42.484375 53.71875 
Q 42.484375 61.078125 38.640625 65.234375 
Q 34.8125 69.390625 28.078125 69.390625 
Q 21.09375 69.390625 17.28125 65.921875 
Q 13.484375 62.453125 12.796875 55.515625 
z
" id="DejaVuSerif-32"/>
      </defs>
      <g transform="translate(47.913275 520.656658)scale(0.0694 -0.0694)">
       <use xlink:href="#DejaVuSerif-31"/>
       <use x="63.623047" xlink:href="#DejaVuSerif-32"/>
       <use x="127.246094" xlink:href="#DejaVuSerif-35"/>
      </g>
     </g>
    </g>
    <g id="ytick_3">
     <g id="line2d_10">
      <g>
       <use style="stroke:#000000;stroke-width:0.8;" x="68.16" xlink:href="#mbaa29e43a6" y="451.52"/>
      </g>
     </g>
     <g id="text_10">
      <!-- 150 -->
      <g transform="translate(47.913275 454.156658)scale(0.0694 -0.0694)">
       <use xlink:href="#DejaVuSerif-31"/>
       <use x="63.623047" xlink:href="#DejaVuSerif-35"/>
       <use x="127.246094" xlink:href="#DejaVuSerif-30"/>
      </g>
     </g>
    </g>
    <g id="ytick_4">
     <g id="line2d_11">
      <g>
       <use style="stroke:#000000;stroke-width:0.8;" x="68.16" xlink:href="#mbaa29e43a6" y="385.02"/>
      </g>
     </g>
     <g id="text_11">
      <!-- 175 -->
      <g transform="translate(47.913275 387.656658)scale(0.0694 -0.0694)">
       <use xlink:href="#DejaVuSerif-31"/>
       <use x="63.623047" xlink:href="#DejaVuSerif-37"/>
       <use x="127.246094" xlink:href="#DejaVuSerif-35"/>
      </g>
     </g>
    </g>
    <g id="ytick_5">
     <g id="line2d_12">
      <g>
       <use style="stroke:#000000;stroke-width:0.8;" x="68.16" xlink:href="#mbaa29e43a6" y="318.52"/>
      </g>
     </g>
     <g id="text_12">
      <!-- 200 -->
      <g transform="translate(47.913275 321.156658)scale(0.0694 -0.0694)">
       <use xlink:href="#DejaVuSerif-32"/>
       <use x="63.623047" xlink:href="#DejaVuSerif-30"/>
       <use x="127.246094" xlink:href="#DejaVuSerif-30"/>
      </g>
     </g>
    </g>
    <g id="ytick_6">
     <g id="line2d_13">
      <g>
       <use style="stroke:#000000;stroke-width:0.8;" x="68.16" xlink:href="#mbaa29e43a6" y="252.02"/>
      </g>
     </g>
     <g id="text_13">
      <!-- 225 -->
      <g transform="translate(47.913275 254.656658)scale(0.0694 -0.0694)">
       <use xlink:href="#DejaVuSerif-32"/>
       <use x="63.623047" xlink:href="#DejaVuSerif-32"/>
       <use x="127.246094" xlink:href="#DejaVuSerif-35"/>
      </g>
     </g>
    </g>
    <g id="ytick_7">
     <g id="line2d_14">
      <g>
       <use style="stroke:#000000;stroke-width:0.8;" x="68.16" xlink:href="#mbaa29e43a6" y="185.52"/>
      </g>
     </g>
     <g id="text_14">
      <!-- 250 -->
      <g transform="translate(47.913275 188.156658)scale(0.0694 -0.0694)">
       <use xlink:href="#DejaVuSerif-32"/>
       <use x="63.623047" xlink:href="#DejaVuSerif-35"/>
       <use x="127.246094" xlink:href="#DejaVuSerif-30"/>
      </g>
     </g>
    </g>
    <g id="ytick_8">
     <g id="line2d_15">
      <g>
       <use style="stroke:#000000;stroke-width:0.8;" x="68.16" xlink:href="#mbaa29e43a6" y="119.02"/>
      </g>
     </g>
     <g id="text_15">
      <!-- 275 -->
      <g transform="translate(47.913275 121.656658)scale(0.0694 -0.0694)">
       <use xlink:href="#DejaVuSerif-32"/>
       <use x="63.623047" xlink:href="#DejaVuSerif-37"/>
       <use x="127.246094" xlink:href="#DejaVuSerif-35"/>
      </g>
     </g>
    </g>
    <g id="ytick_9">
     <g id="line2d_16">
      <g>
       <use style="stroke:#000000;stroke-width:0.8;" x="68.16" xlink:href="#mbaa29e43a6" y="52.52"/>
      </g>
     </g>
     <g id="text_16">
      <!-- 300 -->
      <defs>
       <path d="M 9.71875 69.828125 
Q 15.4375 71.96875 20.671875 73.09375 
Q 25.921875 74.21875 30.515625 74.21875 
Q 41.21875 74.21875 47.21875 69.59375 
Q 53.21875 64.984375 53.21875 56.78125 
Q 53.21875 50.203125 49.0625 45.78125 
Q 44.921875 41.359375 37.3125 39.796875 
Q 46.296875 38.53125 51.25 33.28125 
Q 56.203125 28.03125 56.203125 19.671875 
Q 56.203125 9.46875 49.34375 4.015625 
Q 42.484375 -1.421875 29.59375 -1.421875 
Q 23.875 -1.421875 18.421875 -0.1875 
Q 12.984375 1.03125 7.625 3.515625 
L 7.625 17.671875 
L 13.09375 17.671875 
Q 13.578125 10.640625 17.828125 7.03125 
Q 22.078125 3.421875 29.78125 3.421875 
Q 37.25 3.421875 41.578125 7.734375 
Q 45.90625 12.0625 45.90625 19.578125 
Q 45.90625 28.171875 41.453125 32.59375 
Q 37.015625 37.015625 28.421875 37.015625 
L 23.78125 37.015625 
L 23.78125 42 
L 26.21875 42 
Q 34.765625 42 39.03125 45.53125 
Q 43.3125 49.078125 43.3125 56.203125 
Q 43.3125 62.59375 39.796875 65.984375 
Q 36.28125 69.390625 29.6875 69.390625 
Q 23.09375 69.390625 19.453125 66.265625 
Q 15.828125 63.140625 15.1875 56.984375 
L 9.71875 56.984375 
z
" id="DejaVuSerif-33"/>
      </defs>
      <g transform="translate(47.913275 55.156658)scale(0.0694 -0.0694)">
       <use xlink:href="#DejaVuSerif-33"/>
       <use x="63.623047" xlink:href="#DejaVuSerif-30"/>
       <use x="127.246094" xlink:href="#DejaVuSerif-30"/>
      </g>
     </g>
    </g>
   </g>
   <g id="patch_3">
    <path d="M 68.16 584.52 
L 68.16 52.52 
" style="fill:none;stroke:#000000;stroke-linecap:square;stroke-linejoin:miter;stroke-width:0.8;"/>
   </g>
   <g id="patch_4">
    <path d="M 660.368 584.52 
L 660.368 52.52 
" style="fill:none;stroke:#000000;stroke-linecap:square;stroke-linejoin:miter;stroke-width:0.8;"/>
   </g>
   <g id="patch_5">
    <path d="M 68.16 584.52 
L 660.368 584.52 
" style="fill:none;stroke:#000000;stroke-linecap:square;stroke-linejoin:miter;stroke-width:0.8;"/>
   </g>
   <g id="patch_6">
    <path d="M 68.16 52.52 
L 660.368 52.52 
" style="fill:none;stroke:#000000;stroke-linecap:square;stroke-linejoin:miter;stroke-width:0.8;"/>
   </g>
  </g>
  <g id="axes_2">
   <g id="patch_7">
    <path clip-path="url(#p04e0b0139d)" d="M 697.381 584.52 
L 697.381 556.52 
L 697.381 80.52 
L 697.381 52.52 
L 723.981 52.52 
L 723.981 80.52 
L 723.981 556.52 
L 723.981 584.52 
z
" style="fill:#ffffff;stroke:#ffffff;stroke-linejoin:miter;stroke-width:0.01;"/>
   </g>
   <g id="QuadMesh_1">
    <path clip-path="url(#p04e0b0139d)" d="M 697.381 584.52 
L 723.981 584.52 
L 723.981 556.52 
L 697.381 556.52 
L 697.381 584.52 
" style="fill:#fcfcfc;"/>
    <path clip-path="url(#p04e0b0139d)" d="M 697.381 556.52 
L 723.981 556.52 
L 723.981 528.52 
L 697.381 528.52 
L 697.381 556.52 
" style="fill:#f6f6f6;"/>
    <path clip-path="url(#p04e0b0139d)" d="M 697.381 528.52 
L 723.981 528.52 
L 723.981 500.52 
L 697.381 500.52 
L 697.381 528.52 
" style="fill:#efefef;"/>
    <path clip-path="url(#p04e0b0139d)" d="M 697.381 500.52 
L 723.981 500.52 
L 723.981 472.52 
L 697.381 472.52 
L 697.381 500.52 
" style="fill:#e5e5e5;"/>
    <path clip-path="url(#p04e0b0139d)" d="M 697.381 472.52 
L 723.981 472.52 
L 723.981 444.52 
L 697.381 444.52 
L 697.381 472.52 
" style="fill:#dcdcdc;"/>
    <path clip-path="url(#p04e0b0139d)" d="M 697.381 444.52 
L 723.981 444.52 
L 723.981 416.52 
L 697.381 416.52 
L 697.381 444.52 
" style="fill:#d0d0d0;"/>
    <path clip-path="url(#p04e0b0139d)" d="M 697.381 416.52 
L 723.981 416.52 
L 723.981 388.52 
L 697.381 388.52 
L 697.381 416.52 
" style="fill:#c5c5c5;"/>
    <path clip-path="url(#p04e0b0139d)" d="M 697.381 388.52 
L 723.981 388.52 
L 723.981 360.52 
L 697.381 360.52 
L 697.381 388.52 
" style="fill:#b6b6b6;"/>
    <path clip-path="url(#p04e0b0139d)" d="M 697.381 360.52 
L 723.981 360.52 
L 723.981 332.52 
L 697.381 332.52 
L 697.381 360.52 
" style="fill:#a7a7a7;"/>
    <path clip-path="url(#p04e0b0139d)" d="M 697.381 332.52 
L 723.981 332.52 
L 723.981 304.52 
L 697.381 304.52 
L 697.381 332.52 
" style="fill:#959595;"/>
    <path clip-path="url(#p04e0b0139d)" d="M 697.381 304.52 
L 723.981 304.52 
L 723.981 276.52 
L 697.381 276.52 
L 697.381 304.52 
" style="fill:#878787;"/>
    <path clip-path="url(#p04e0b0139d)" d="M 697.381 276.52 
L 723.981 276.52 
L 723.981 248.52 
L 697.381 248.52 
L 697.381 276.52 
" style="fill:#797979;"/>
    <path clip-path="url(#p04e0b0139d)" d="M 697.381 248.52 
L 723.981 248.52 
L 723.981 220.52 
L 697.381 220.52 
L 697.381 248.52 
" style="fill:#6a6a6a;"/>
    <path clip-path="url(#p04e0b0139d)" d="M 697.381 220.52 
L 723.981 220.52 
L 723.981 192.52 
L 697.381 192.52 
L 697.381 220.52 
" style="fill:#5d5d5d;"/>
    <path clip-path="url(#p04e0b0139d)" d="M 697.381 192.52 
L 723.981 192.52 
L 723.981 164.52 
L 697.381 164.52 
L 697.381 192.52 
" style="fill:#4d4d4d;"/>
    <path clip-path="url(#p04e0b0139d)" d="M 697.381 164.52 
L 723.981 164.52 
L 723.981 136.52 
L 697.381 136.52 
L 697.381 164.52 
" style="fill:#3a3a3a;"/>
    <path clip-path="url(#p04e0b0139d)" d="M 697.381 136.52 
L 723.981 136.52 
L 723.981 108.52 
L 697.381 108.52 
L 697.381 136.52 
" style="fill:#272727;"/>
    <path clip-path="url(#p04e0b0139d)" d="M 697.381 108.52 
L 723.981 108.52 
L 723.981 80.52 
L 697.381 80.52 
L 697.381 108.52 
" style="fill:#171717;"/>
    <path clip-path="url(#p04e0b0139d)" d="M 697.381 80.52 
L 723.981 80.52 
L 723.981 52.52 
L 697.381 52.52 
L 697.381 80.52 
" style="fill:#070707;"/>
   </g>
   <g id="matplotlib.axis_3"/>
   <g id="matplotlib.axis_4">
    <g id="ytick_10">
     <g id="line2d_17">
      <defs>
       <path d="M 0 0 
L 3.5 0 
" id="m337f494b11" style="stroke:#000000;stroke-width:0.8;"/>
      </defs>
      <g>
       <use style="stroke:#000000;stroke-width:0.8;" x="723.981" xlink:href="#m337f494b11" y="556.52"/>
      </g>
     </g>
     <g id="text_17">
      <!-- −0.000090 -->
      <defs>
       <path d="M 10.59375 35.296875 
L 73.1875 35.296875 
L 73.1875 27.390625 
L 10.59375 27.390625 
z
" id="DejaVuSerif-2212"/>
       <path d="M 9.421875 5.078125 
Q 9.421875 7.8125 11.28125 9.71875 
Q 13.140625 11.625 15.921875 11.625 
Q 18.609375 11.625 20.5 9.71875 
Q 22.40625 7.8125 22.40625 5.078125 
Q 22.40625 2.390625 20.5 0.484375 
Q 18.609375 -1.421875 15.921875 -1.421875 
Q 13.140625 -1.421875 11.28125 0.453125 
Q 9.421875 2.34375 9.421875 5.078125 
z
" id="DejaVuSerif-2e"/>
       <path d="M 46.78125 32.671875 
Q 43.5 29 39.25 27.1875 
Q 35.015625 25.390625 29.6875 25.390625 
Q 18.84375 25.390625 12.5625 31.9375 
Q 6.296875 38.484375 6.296875 49.8125 
Q 6.296875 60.890625 13.109375 67.546875 
Q 19.921875 74.21875 31.296875 74.21875 
Q 43.65625 74.21875 50.265625 65.015625 
Q 56.890625 55.8125 56.890625 38.71875 
Q 56.890625 19.578125 49.015625 9.078125 
Q 41.15625 -1.421875 26.90625 -1.421875 
Q 23.046875 -1.421875 18.796875 -0.6875 
Q 14.546875 0.046875 10.109375 1.515625 
L 10.109375 13.625 
L 15.578125 13.625 
Q 16.21875 8.6875 19.390625 6.046875 
Q 22.5625 3.421875 27.875 3.421875 
Q 37.359375 3.421875 41.984375 10.5625 
Q 46.625 17.71875 46.78125 32.671875 
z
M 30.90625 69.390625 
Q 23.96875 69.390625 20.28125 64.328125 
Q 16.609375 59.28125 16.609375 49.8125 
Q 16.609375 40.328125 20.28125 35.25 
Q 23.96875 30.171875 30.90625 30.171875 
Q 37.84375 30.171875 41.53125 35.078125 
Q 45.21875 39.984375 45.21875 49.21875 
Q 45.21875 58.9375 41.5 64.15625 
Q 37.796875 69.390625 30.90625 69.390625 
z
" id="DejaVuSerif-39"/>
      </defs>
      <g transform="translate(730.981 559.156658)scale(0.0694 -0.0694)">
       <use xlink:href="#DejaVuSerif-2212"/>
       <use x="83.789062" xlink:href="#DejaVuSerif-30"/>
       <use x="147.412109" xlink:href="#DejaVuSerif-2e"/>
       <use x="179.199219" xlink:href="#DejaVuSerif-30"/>
       <use x="242.822266" xlink:href="#DejaVuSerif-30"/>
       <use x="306.445312" xlink:href="#DejaVuSerif-30"/>
       <use x="370.068359" xlink:href="#DejaVuSerif-30"/>
       <use x="433.691406" xlink:href="#DejaVuSerif-39"/>
       <use x="497.314453" xlink:href="#DejaVuSerif-30"/>
      </g>
     </g>
    </g>
    <g id="ytick_11">
     <g id="line2d_18">
      <g>
       <use style="stroke:#000000;stroke-width:0.8;" x="723.981" xlink:href="#m337f494b11" y="500.52"/>
      </g>
     </g>
     <g id="text_18">
      <!-- −0.000086 -->
      <defs>
       <path d="M 46.578125 19.921875 
Q 46.578125 27.734375 42.6875 32.046875 
Q 38.8125 36.375 31.78125 36.375 
Q 24.75 36.375 20.875 32.046875 
Q 17 27.734375 17 19.921875 
Q 17 12.0625 20.875 7.734375 
Q 24.75 3.421875 31.78125 3.421875 
Q 38.8125 3.421875 42.6875 7.734375 
Q 46.578125 12.0625 46.578125 19.921875 
z
M 44.578125 55.328125 
Q 44.578125 61.96875 41.203125 65.671875 
Q 37.84375 69.390625 31.78125 69.390625 
Q 25.78125 69.390625 22.390625 65.671875 
Q 19 61.96875 19 55.328125 
Q 19 48.640625 22.390625 44.921875 
Q 25.78125 41.21875 31.78125 41.21875 
Q 37.84375 41.21875 41.203125 44.921875 
Q 44.578125 48.640625 44.578125 55.328125 
z
M 39.3125 38.8125 
Q 47.609375 37.703125 52.25 32.6875 
Q 56.890625 27.6875 56.890625 19.921875 
Q 56.890625 9.671875 50.390625 4.125 
Q 43.890625 -1.421875 31.78125 -1.421875 
Q 19.734375 -1.421875 13.203125 4.125 
Q 6.6875 9.671875 6.6875 19.921875 
Q 6.6875 27.6875 11.328125 32.6875 
Q 15.96875 37.703125 24.3125 38.8125 
Q 16.9375 40.140625 13 44.40625 
Q 9.078125 48.6875 9.078125 55.328125 
Q 9.078125 64.109375 15.125 69.15625 
Q 21.1875 74.21875 31.78125 74.21875 
Q 42.390625 74.21875 48.4375 69.15625 
Q 54.5 64.109375 54.5 55.328125 
Q 54.5 48.6875 50.5625 44.40625 
Q 46.625 40.140625 39.3125 38.8125 
z
" id="DejaVuSerif-38"/>
      </defs>
      <g transform="translate(730.981 503.156658)scale(0.0694 -0.0694)">
       <use xlink:href="#DejaVuSerif-2212"/>
       <use x="83.789062" xlink:href="#DejaVuSerif-30"/>
       <use x="147.412109" xlink:href="#DejaVuSerif-2e"/>
       <use x="179.199219" xlink:href="#DejaVuSerif-30"/>
       <use x="242.822266" xlink:href="#DejaVuSerif-30"/>
       <use x="306.445312" xlink:href="#DejaVuSerif-30"/>
       <use x="370.068359" xlink:href="#DejaVuSerif-30"/>
       <use x="433.691406" xlink:href="#DejaVuSerif-38"/>
       <use x="497.314453" xlink:href="#DejaVuSerif-36"/>
      </g>
     </g>
    </g>
    <g id="ytick_12">
     <g id="line2d_19">
      <g>
       <use style="stroke:#000000;stroke-width:0.8;" x="723.981" xlink:href="#m337f494b11" y="444.52"/>
      </g>
     </g>
     <g id="text_19">
      <!-- −0.000082 -->
      <g transform="translate(730.981 447.156658)scale(0.0694 -0.0694)">
       <use xlink:href="#DejaVuSerif-2212"/>
       <use x="83.789062" xlink:href="#DejaVuSerif-30"/>
       <use x="147.412109" xlink:href="#DejaVuSerif-2e"/>
       <use x="179.199219" xlink:href="#DejaVuSerif-30"/>
       <use x="242.822266" xlink:href="#DejaVuSerif-30"/>
       <use x="306.445312" xlink:href="#DejaVuSerif-30"/>
       <use x="370.068359" xlink:href="#DejaVuSerif-30"/>
       <use x="433.691406" xlink:href="#DejaVuSerif-38"/>
       <use x="497.314453" xlink:href="#DejaVuSerif-32"/>
      </g>
     </g>
    </g>
    <g id="ytick_13">
     <g id="line2d_20">
      <g>
       <use style="stroke:#000000;stroke-width:0.8;" x="723.981" xlink:href="#m337f494b11" y="388.52"/>
      </g>
     </g>
     <g id="text_20">
      <!-- −0.000078 -->
      <g transform="translate(730.981 391.156658)scale(0.0694 -0.0694)">
       <use xlink:href="#DejaVuSerif-2212"/>
       <use x="83.789062" xlink:href="#DejaVuSerif-30"/>
       <use x="147.412109" xlink:href="#DejaVuSerif-2e"/>
       <use x="179.199219" xlink:href="#DejaVuSerif-30"/>
       <use x="242.822266" xlink:href="#DejaVuSerif-30"/>
       <use x="306.445312" xlink:href="#DejaVuSerif-30"/>
       <use x="370.068359" xlink:href="#DejaVuSerif-30"/>
       <use x="433.691406" xlink:href="#DejaVuSerif-37"/>
       <use x="497.314453" xlink:href="#DejaVuSerif-38"/>
      </g>
     </g>
    </g>
    <g id="ytick_14">
     <g id="line2d_21">
      <g>
       <use style="stroke:#000000;stroke-width:0.8;" x="723.981" xlink:href="#m337f494b11" y="332.52"/>
      </g>
     </g>
     <g id="text_21">
      <!-- −0.000074 -->
      <g transform="translate(730.981 335.156658)scale(0.0694 -0.0694)">
       <use xlink:href="#DejaVuSerif-2212"/>
       <use x="83.789062" xlink:href="#DejaVuSerif-30"/>
       <use x="147.412109" xlink:href="#DejaVuSerif-2e"/>
       <use x="179.199219" xlink:href="#DejaVuSerif-30"/>
       <use x="242.822266" xlink:href="#DejaVuSerif-30"/>
       <use x="306.445312" xlink:href="#DejaVuSerif-30"/>
       <use x="370.068359" xlink:href="#DejaVuSerif-30"/>
       <use x="433.691406" xlink:href="#DejaVuSerif-37"/>
       <use x="497.314453" xlink:href="#DejaVuSerif-34"/>
      </g>
     </g>
    </g>
    <g id="ytick_15">
     <g id="line2d_22">
      <g>
       <use style="stroke:#000000;stroke-width:0.8;" x="723.981" xlink:href="#m337f494b11" y="276.52"/>
      </g>
     </g>
     <g id="text_22">
      <!-- −0.000070 -->
      <g transform="translate(730.981 279.156658)scale(0.0694 -0.0694)">
       <use xlink:href="#DejaVuSerif-2212"/>
       <use x="83.789062" xlink:href="#DejaVuSerif-30"/>
       <use x="147.412109" xlink:href="#DejaVuSerif-2e"/>
       <use x="179.199219" xlink:href="#DejaVuSerif-30"/>
       <use x="242.822266" xlink:href="#DejaVuSerif-30"/>
       <use x="306.445312" xlink:href="#DejaVuSerif-30"/>
       <use x="370.068359" xlink:href="#DejaVuSerif-30"/>
       <use x="433.691406" xlink:href="#DejaVuSerif-37"/>
       <use x="497.314453" xlink:href="#DejaVuSerif-30"/>
      </g>
     </g>
    </g>
    <g id="ytick_16">
     <g id="line2d_23">
      <g>
       <use style="stroke:#000000;stroke-width:0.8;" x="723.981" xlink:href="#m337f494b11" y="220.52"/>
      </g>
     </g>
     <g id="text_23">
      <!-- −0.000066 -->
      <g transform="translate(730.981 223.156658)scale(0.0694 -0.0694)">
       <use xlink:href="#DejaVuSerif-2212"/>
       <use x="83.789062" xlink:href="#DejaVuSerif-30"/>
       <use x="147.412109" xlink:href="#DejaVuSerif-2e"/>
       <use x="179.199219" xlink:href="#DejaVuSerif-30"/>
       <use x="242.822266" xlink:href="#DejaVuSerif-30"/>
       <use x="306.445312" xlink:href="#DejaVuSerif-30"/>
       <use x="370.068359" xlink:href="#DejaVuSerif-30"/>
       <use x="433.691406" xlink:href="#DejaVuSerif-36"/>
       <use x="497.314453" xlink:href="#DejaVuSerif-36"/>
      </g>
     </g>
    </g>
    <g id="ytick_17">
     <g id="line2d_24">
      <g>
       <use style="stroke:#000000;stroke-width:0.8;" x="723.981" xlink:href="#m337f494b11" y="164.52"/>
      </g>
     </g>
     <g id="text_24">
      <!-- −0.000062 -->
      <g transform="translate(730.981 167.156658)scale(0.0694 -0.0694)">
       <use xlink:href="#DejaVuSerif-2212"/>
       <use x="83.789062" xlink:href="#DejaVuSerif-30"/>
       <use x="147.412109" xlink:href="#DejaVuSerif-2e"/>
       <use x="179.199219" xlink:href="#DejaVuSerif-30"/>
       <use x="242.822266" xlink:href="#DejaVuSerif-30"/>
       <use x="306.445312" xlink:href="#DejaVuSerif-30"/>
       <use x="370.068359" xlink:href="#DejaVuSerif-30"/>
       <use x="433.691406" xlink:href="#DejaVuSerif-36"/>
       <use x="497.314453" xlink:href="#DejaVuSerif-32"/>
      </g>
     </g>
    </g>
    <g id="ytick_18">
     <g id="line2d_25">
      <g>
       <use style="stroke:#000000;stroke-width:0.8;" x="723.981" xlink:href="#m337f494b11" y="108.52"/>
      </g>
     </g>
     <g id="text_25">
      <!-- −0.000058 -->
      <g transform="translate(730.981 111.156658)scale(0.0694 -0.0694)">
       <use xlink:href="#DejaVuSerif-2212"/>
       <use x="83.789062" xlink:href="#DejaVuSerif-30"/>
       <use x="147.412109" xlink:href="#DejaVuSerif-2e"/>
       <use x="179.199219" xlink:href="#DejaVuSerif-30"/>
       <use x="242.822266" xlink:href="#DejaVuSerif-30"/>
       <use x="306.445312" xlink:href="#DejaVuSerif-30"/>
       <use x="370.068359" xlink:href="#DejaVuSerif-30"/>
       <use x="433.691406" xlink:href="#DejaVuSerif-35"/>
       <use x="497.314453" xlink:href="#DejaVuSerif-38"/>
      </g>
     </g>
    </g>
    <g id="ytick_19">
     <g id="line2d_26">
      <g>
       <use style="stroke:#000000;stroke-width:0.8;" x="723.981" xlink:href="#m337f494b11" y="52.52"/>
      </g>
     </g>
     <g id="text_26">
      <!-- −0.000054 -->
      <g transform="translate(730.981 55.156658)scale(0.0694 -0.0694)">
       <use xlink:href="#DejaVuSerif-2212"/>
       <use x="83.789062" xlink:href="#DejaVuSerif-30"/>
       <use x="147.412109" xlink:href="#DejaVuSerif-2e"/>
       <use x="179.199219" xlink:href="#DejaVuSerif-30"/>
       <use x="242.822266" xlink:href="#DejaVuSerif-30"/>
       <use x="306.445312" xlink:href="#DejaVuSerif-30"/>
       <use x="370.068359" xlink:href="#DejaVuSerif-30"/>
       <use x="433.691406" xlink:href="#DejaVuSerif-35"/>
       <use x="497.314453" xlink:href="#DejaVuSerif-34"/>
      </g>
     </g>
    </g>
    <g id="text_27">
     <!-- −3.94999e1 -->
     <defs>
      <path d="M 54.203125 25 
L 15.484375 25 
L 15.484375 24.609375 
Q 15.484375 14.109375 19.4375 8.765625 
Q 23.390625 3.421875 31.109375 3.421875 
Q 37.015625 3.421875 40.796875 6.515625 
Q 44.578125 9.625 46.09375 15.71875 
L 53.328125 15.71875 
Q 51.171875 7.171875 45.375 2.875 
Q 39.59375 -1.421875 30.171875 -1.421875 
Q 18.796875 -1.421875 11.890625 6.078125 
Q 4.984375 13.578125 4.984375 25.984375 
Q 4.984375 38.28125 11.765625 45.796875 
Q 18.5625 53.328125 29.59375 53.328125 
Q 41.359375 53.328125 47.65625 46.0625 
Q 53.953125 38.8125 54.203125 25 
z
M 43.609375 30.171875 
Q 43.3125 39.265625 39.765625 43.875 
Q 36.234375 48.484375 29.59375 48.484375 
Q 23.390625 48.484375 19.828125 43.84375 
Q 16.265625 39.203125 15.484375 30.171875 
z
" id="DejaVuSerif-65"/>
     </defs>
     <g transform="translate(680.943241 49.52)scale(0.0694 -0.0694)">
      <use xlink:href="#DejaVuSerif-2212"/>
      <use x="83.789062" xlink:href="#DejaVuSerif-33"/>
      <use x="147.412109" xlink:href="#DejaVuSerif-2e"/>
      <use x="179.199219" xlink:href="#DejaVuSerif-39"/>
      <use x="242.822266" xlink:href="#DejaVuSerif-34"/>
      <use x="306.445312" xlink:href="#DejaVuSerif-39"/>
      <use x="370.068359" xlink:href="#DejaVuSerif-39"/>
      <use x="433.691406" xlink:href="#DejaVuSerif-39"/>
      <use x="497.314453" xlink:href="#DejaVuSerif-65"/>
      <use x="556.494141" xlink:href="#DejaVuSerif-31"/>
     </g>
    </g>
   </g>
   <g id="patch_8">
    <path d="M 697.381 584.52 
L 697.381 556.52 
L 697.381 80.52 
L 697.381 52.52 
L 723.981 52.52 
L 723.981 80.52 
L 723.981 556.52 
L 723.981 584.52 
z
" style="fill:none;stroke:#000000;stroke-linejoin:miter;stroke-width:0.8;"/>
   </g>
  </g>
 </g>
 <defs>
  <clipPath id="pbfc758e77a">
   <rect height="532" width="592.208" x="68.16" y="52.52"/>
  </clipPath>
  <clipPath id="p04e0b0139d">
   <rect height="532" width="26.6" x="697.381" y="52.52"/>
  </clipPath>
 </defs>
</svg>
