<?xml version="1.0" encoding="utf-8" standalone="no"?>
<!DOCTYPE svg PUBLIC "-//W3C//DTD SVG 1.1//EN"
  "http://www.w3.org/Graphics/SVG/1.1/DTD/svg11.dtd">
<!-- Created with matplotlib (http://matplotlib.org/) -->
<svg height="648pt" version="1.1" viewBox="0 0 864 648" width="864pt" xmlns="http://www.w3.org/2000/svg" xmlns:xlink="http://www.w3.org/1999/xlink">
 <defs>
  <style type="text/css">
*{stroke-linecap:butt;stroke-linejoin:round;}
  </style>
 </defs>
 <g id="figure_1">
  <g id="patch_1">
   <path d="M 0 648 
L 864 648 
L 864 0 
L 0 0 
z
" style="fill:#ffffff;"/>
  </g>
  <g id="axes_1">
   <g id="patch_2">
    <path d="M 68.16 584.52 
L 660.368 584.52 
L 660.368 52.52 
L 68.16 52.52 
z
" style="fill:#ffffff;"/>
   </g>
   <g id="PathCollection_1">
    <path clip-path="url(#p4612c38700)" d="M 75.085062 531.32 
L 75.085062 478.12 
L 71.622801 424.92 
L 71.622801 371.72 
L 71.622801 318.52 
L 71.622801 265.32 
L 71.622801 212.12 
L 71.622801 158.92 
L 71.622801 105.72 
L 71.622801 52.52 
L 68.16 52.52 
L 68.16 105.72 
L 68.16 158.92 
L 68.16 212.12 
L 68.16 265.32 
L 68.16 318.52 
L 68.16 371.72 
L 68.16 424.92 
L 68.16 478.12 
L 68.16 531.32 
L 68.16 535.052607 
z
" style="fill:#fcfcfc;"/>
   </g>
   <g id="PathCollection_2">
    <path clip-path="url(#p4612c38700)" d="M 87.368987 531.32 
L 87.368987 478.12 
L 77.765241 424.92 
L 77.765241 371.72 
L 77.765241 318.52 
L 77.765241 265.32 
L 77.765241 212.12 
L 77.765241 158.92 
L 77.765241 105.72 
L 77.765241 52.52 
L 71.622801 52.52 
L 71.622801 105.72 
L 71.622801 158.92 
L 71.622801 212.12 
L 71.622801 265.32 
L 71.622801 318.52 
L 71.622801 371.72 
L 71.622801 424.92 
L 75.085062 478.12 
L 75.085062 531.32 
L 68.16 535.052607 
L 68.16 541.67364 
z
" style="fill:#f5f5f5;"/>
   </g>
   <g id="PathCollection_3">
    <path clip-path="url(#p4612c38700)" d="M 99.652911 531.32 
L 99.652911 478.12 
L 83.907681 424.92 
L 83.907681 371.72 
L 83.907681 318.52 
L 83.907681 265.32 
L 83.907681 212.12 
L 83.907681 158.92 
L 83.907681 105.72 
L 83.907681 52.52 
L 77.765241 52.52 
L 77.765241 105.72 
L 77.765241 158.92 
L 77.765241 212.12 
L 77.765241 265.32 
L 77.765241 318.52 
L 77.765241 371.72 
L 77.765241 424.92 
L 87.368987 478.12 
L 87.368987 531.32 
L 68.16 541.67364 
L 68.16 548.294673 
z
" style="fill:#ececec;"/>
   </g>
   <g id="PathCollection_4">
    <path clip-path="url(#p4612c38700)" d="M 111.936836 531.32 
L 111.936836 478.12 
L 90.050121 424.92 
L 90.050121 371.72 
L 90.050121 318.52 
L 90.050121 265.32 
L 90.050121 212.12 
L 90.050121 158.92 
L 90.050121 105.72 
L 90.050121 52.52 
L 83.907681 52.52 
L 83.907681 105.72 
L 83.907681 158.92 
L 83.907681 212.12 
L 83.907681 265.32 
L 83.907681 318.52 
L 83.907681 371.72 
L 83.907681 424.92 
L 99.652911 478.12 
L 99.652911 531.32 
L 68.16 548.294673 
L 68.16 554.915706 
z
" style="fill:#e1e1e1;"/>
   </g>
   <g id="PathCollection_5">
    <path clip-path="url(#p4612c38700)" d="M 124.22076 531.32 
L 124.22076 478.12 
L 96.192561 424.92 
L 96.192561 371.72 
L 96.192561 318.52 
L 96.192561 265.32 
L 96.192561 212.12 
L 96.192561 158.92 
L 96.192561 105.72 
L 96.192561 52.52 
L 90.050121 52.52 
L 90.050121 105.72 
L 90.050121 158.92 
L 90.050121 212.12 
L 90.050121 265.32 
L 90.050121 318.52 
L 90.050121 371.72 
L 90.050121 424.92 
L 111.936836 478.12 
L 111.936836 531.32 
L 68.16 554.915706 
L 68.16 561.536739 
z
" style="fill:#d6d6d6;"/>
   </g>
   <g id="PathCollection_6">
    <path clip-path="url(#p4612c38700)" d="M 136.504685 531.32 
L 136.504685 478.12 
L 102.335001 424.92 
L 102.335001 371.72 
L 102.335001 318.52 
L 102.335001 265.32 
L 102.335001 212.12 
L 102.335001 158.92 
L 102.335001 105.72 
L 102.335001 52.52 
L 96.192561 52.52 
L 96.192561 105.72 
L 96.192561 158.92 
L 96.192561 212.12 
L 96.192561 265.32 
L 96.192561 318.52 
L 96.192561 371.72 
L 96.192561 424.92 
L 124.22076 478.12 
L 124.22076 531.32 
L 68.16 561.536739 
L 68.16 568.157772 
z
" style="fill:#c9c9c9;"/>
   </g>
   <g id="PathCollection_7">
    <path clip-path="url(#p4612c38700)" d="M 148.788609 531.32 
L 148.788609 478.12 
L 108.477441 424.92 
L 108.477441 371.72 
L 108.477441 318.52 
L 108.477441 265.32 
L 108.477441 212.12 
L 108.477441 158.92 
L 108.477441 105.72 
L 108.477441 52.52 
L 102.335001 52.52 
L 102.335001 105.72 
L 102.335001 158.92 
L 102.335001 212.12 
L 102.335001 265.32 
L 102.335001 318.52 
L 102.335001 371.72 
L 102.335001 424.92 
L 136.504685 478.12 
L 136.504685 531.32 
L 68.16 568.157772 
L 68.16 574.778805 
z
" style="fill:#bbbbbb;"/>
   </g>
   <g id="PathCollection_8">
    <path clip-path="url(#p4612c38700)" d="M 161.072534 531.32 
L 161.072534 478.12 
L 114.619881 424.92 
L 114.619881 371.72 
L 114.619881 318.52 
L 114.619881 265.32 
L 114.619881 212.12 
L 114.619881 158.92 
L 114.619881 105.72 
L 114.619881 52.52 
L 108.477441 52.52 
L 108.477441 105.72 
L 108.477441 158.92 
L 108.477441 212.12 
L 108.477441 265.32 
L 108.477441 318.52 
L 108.477441 371.72 
L 108.477441 424.92 
L 148.788609 478.12 
L 148.788609 531.32 
L 68.16 574.778805 
L 68.16 581.399838 
z
" style="fill:#a9a9a9;"/>
   </g>
   <g id="PathCollection_9">
    <path clip-path="url(#p4612c38700)" d="M 166.861333 534.821416 
L 173.357469 531.32 
L 173.357469 478.12 
L 166.861333 474.618584 
L 120.762321 424.92 
L 120.762321 371.72 
L 120.762321 318.52 
L 120.762321 265.32 
L 120.762321 212.12 
L 120.762321 158.92 
L 120.762321 105.72 
L 120.762321 52.52 
L 114.619881 52.52 
L 114.619881 105.72 
L 114.619881 158.92 
L 114.619881 212.12 
L 114.619881 265.32 
L 114.619881 318.52 
L 114.619881 371.72 
L 114.619881 424.92 
L 161.072534 478.12 
L 161.072534 531.32 
L 68.16 581.399838 
L 68.16 584.52 
L 74.656136 584.52 
z
" style="fill:#959595;"/>
    <path clip-path="url(#p4612c38700)" d="M 364.264 534.821416 
L 370.760136 531.32 
L 370.760136 478.12 
L 364.264 474.618584 
L 357.767864 478.12 
L 357.767864 531.32 
z
" style="fill:#959595;"/>
    <path clip-path="url(#p4612c38700)" d="M 561.666667 534.821416 
L 660.368 534.821416 
L 660.368 531.32 
L 660.368 478.12 
L 660.368 424.92 
L 660.368 371.72 
L 660.368 318.52 
L 660.368 265.32 
L 660.368 212.12 
L 660.368 158.92 
L 660.368 105.72 
L 660.368 52.52 
L 561.666667 52.52 
L 555.170531 52.52 
L 555.170531 105.72 
L 555.170531 158.92 
L 555.170531 212.12 
L 555.170531 265.32 
L 555.170531 318.52 
L 555.170531 371.72 
L 555.170531 424.92 
L 555.170531 478.12 
L 555.170531 531.32 
z
" style="fill:#959595;"/>
   </g>
   <g id="PathCollection_10">
    <path clip-path="url(#p4612c38700)" d="M 166.861333 541.443479 
L 185.643305 531.32 
L 185.643305 478.12 
L 166.861333 467.996521 
L 126.904761 424.92 
L 126.904761 371.72 
L 126.904761 318.52 
L 126.904761 265.32 
L 126.904761 212.12 
L 126.904761 158.92 
L 126.904761 105.72 
L 126.904761 52.52 
L 120.762321 52.52 
L 120.762321 105.72 
L 120.762321 158.92 
L 120.762321 212.12 
L 120.762321 265.32 
L 120.762321 318.52 
L 120.762321 371.72 
L 120.762321 424.92 
L 166.861333 474.618584 
L 173.357469 478.12 
L 173.357469 531.32 
L 166.861333 534.821416 
L 74.656136 584.52 
L 86.941971 584.52 
z
" style="fill:#858585;"/>
    <path clip-path="url(#p4612c38700)" d="M 364.264 541.443479 
L 383.045971 531.32 
L 383.045971 478.12 
L 364.264 467.996521 
L 345.482029 478.12 
L 345.482029 531.32 
z
M 357.767864 531.32 
L 357.767864 478.12 
L 364.264 474.618584 
L 370.760136 478.12 
L 370.760136 531.32 
L 364.264 534.821416 
z
" style="fill:#858585;"/>
    <path clip-path="url(#p4612c38700)" d="M 561.666667 541.443479 
L 660.368 541.443479 
L 660.368 534.821416 
L 561.666667 534.821416 
L 555.170531 531.32 
L 555.170531 478.12 
L 555.170531 424.92 
L 555.170531 371.72 
L 555.170531 318.52 
L 555.170531 265.32 
L 555.170531 212.12 
L 555.170531 158.92 
L 555.170531 105.72 
L 555.170531 52.52 
L 542.884695 52.52 
L 542.884695 105.72 
L 542.884695 158.92 
L 542.884695 212.12 
L 542.884695 265.32 
L 542.884695 318.52 
L 542.884695 371.72 
L 542.884695 424.92 
L 542.884695 478.12 
L 542.884695 531.32 
z
" style="fill:#858585;"/>
   </g>
   <g id="PathCollection_11">
    <path clip-path="url(#p4612c38700)" d="M 166.861333 548.065542 
L 197.929141 531.32 
L 197.929141 478.12 
L 166.861333 461.374458 
L 133.047201 424.92 
L 133.047201 371.72 
L 133.047201 318.52 
L 133.047201 265.32 
L 133.047201 212.12 
L 133.047201 158.92 
L 133.047201 105.72 
L 133.047201 52.52 
L 126.904761 52.52 
L 126.904761 105.72 
L 126.904761 158.92 
L 126.904761 212.12 
L 126.904761 265.32 
L 126.904761 318.52 
L 126.904761 371.72 
L 126.904761 424.92 
L 166.861333 467.996521 
L 185.643305 478.12 
L 185.643305 531.32 
L 166.861333 541.443479 
L 86.941971 584.52 
L 99.227807 584.52 
z
" style="fill:#757575;"/>
    <path clip-path="url(#p4612c38700)" d="M 364.264 548.065542 
L 395.331807 531.32 
L 395.331807 478.12 
L 364.264 461.374458 
L 333.196193 478.12 
L 333.196193 531.32 
z
M 345.482029 531.32 
L 345.482029 478.12 
L 364.264 467.996521 
L 383.045971 478.12 
L 383.045971 531.32 
L 364.264 541.443479 
z
" style="fill:#757575;"/>
    <path clip-path="url(#p4612c38700)" d="M 561.666667 548.065542 
L 660.368 548.065542 
L 660.368 541.443479 
L 561.666667 541.443479 
L 542.884695 531.32 
L 542.884695 478.12 
L 542.884695 424.92 
L 542.884695 371.72 
L 542.884695 318.52 
L 542.884695 265.32 
L 542.884695 212.12 
L 542.884695 158.92 
L 542.884695 105.72 
L 542.884695 52.52 
L 530.598859 52.52 
L 530.598859 105.72 
L 530.598859 158.92 
L 530.598859 212.12 
L 530.598859 265.32 
L 530.598859 318.52 
L 530.598859 371.72 
L 530.598859 424.92 
L 530.598859 478.12 
L 530.598859 531.32 
z
" style="fill:#757575;"/>
   </g>
   <g id="PathCollection_12">
    <path clip-path="url(#p4612c38700)" d="M 166.861333 554.687605 
L 210.214976 531.32 
L 210.214976 478.12 
L 166.861333 454.752395 
L 139.189641 424.92 
L 139.189641 371.72 
L 139.189641 318.52 
L 139.189641 265.32 
L 139.189641 212.12 
L 139.189641 158.92 
L 139.189641 105.72 
L 139.189641 52.52 
L 133.047201 52.52 
L 133.047201 105.72 
L 133.047201 158.92 
L 133.047201 212.12 
L 133.047201 265.32 
L 133.047201 318.52 
L 133.047201 371.72 
L 133.047201 424.92 
L 166.861333 461.374458 
L 197.929141 478.12 
L 197.929141 531.32 
L 166.861333 548.065542 
L 99.227807 584.52 
L 111.513643 584.52 
z
" style="fill:#656565;"/>
    <path clip-path="url(#p4612c38700)" d="M 364.264 554.687605 
L 407.617643 531.32 
L 407.617643 478.12 
L 364.264 454.752395 
L 320.910357 478.12 
L 320.910357 531.32 
z
M 333.196193 531.32 
L 333.196193 478.12 
L 364.264 461.374458 
L 395.331807 478.12 
L 395.331807 531.32 
L 364.264 548.065542 
z
" style="fill:#656565;"/>
    <path clip-path="url(#p4612c38700)" d="M 561.666667 554.687605 
L 660.368 554.687605 
L 660.368 548.065542 
L 561.666667 548.065542 
L 530.598859 531.32 
L 530.598859 478.12 
L 530.598859 424.92 
L 530.598859 371.72 
L 530.598859 318.52 
L 530.598859 265.32 
L 530.598859 212.12 
L 530.598859 158.92 
L 530.598859 105.72 
L 530.598859 52.52 
L 518.313024 52.52 
L 518.313024 105.72 
L 518.313024 158.92 
L 518.313024 212.12 
L 518.313024 265.32 
L 518.313024 318.52 
L 518.313024 371.72 
L 518.313024 424.92 
L 518.313024 478.12 
L 518.313024 531.32 
z
" style="fill:#656565;"/>
   </g>
   <g id="PathCollection_13">
    <path clip-path="url(#p4612c38700)" d="M 166.861333 561.309669 
L 222.500812 531.32 
L 222.500812 478.12 
L 166.861333 448.130331 
L 145.332081 424.92 
L 145.332081 371.72 
L 145.332081 318.52 
L 145.332081 265.32 
L 145.332081 212.12 
L 145.332081 158.92 
L 145.332081 105.72 
L 145.332081 52.52 
L 139.189641 52.52 
L 139.189641 105.72 
L 139.189641 158.92 
L 139.189641 212.12 
L 139.189641 265.32 
L 139.189641 318.52 
L 139.189641 371.72 
L 139.189641 424.92 
L 166.861333 454.752395 
L 210.214976 478.12 
L 210.214976 531.32 
L 166.861333 554.687605 
L 111.513643 584.52 
L 123.799479 584.52 
z
" style="fill:#555555;"/>
    <path clip-path="url(#p4612c38700)" d="M 364.264 561.309669 
L 419.903479 531.32 
L 419.903479 478.12 
L 364.264 448.130331 
L 308.624521 478.12 
L 308.624521 531.32 
z
M 320.910357 531.32 
L 320.910357 478.12 
L 364.264 454.752395 
L 407.617643 478.12 
L 407.617643 531.32 
L 364.264 554.687605 
z
" style="fill:#555555;"/>
    <path clip-path="url(#p4612c38700)" d="M 561.666667 561.309669 
L 660.368 561.309669 
L 660.368 554.687605 
L 561.666667 554.687605 
L 518.313024 531.32 
L 518.313024 478.12 
L 518.313024 424.92 
L 518.313024 371.72 
L 518.313024 318.52 
L 518.313024 265.32 
L 518.313024 212.12 
L 518.313024 158.92 
L 518.313024 105.72 
L 518.313024 52.52 
L 506.027188 52.52 
L 506.027188 105.72 
L 506.027188 158.92 
L 506.027188 212.12 
L 506.027188 265.32 
L 506.027188 318.52 
L 506.027188 371.72 
L 506.027188 424.92 
L 506.027188 478.12 
L 506.027188 531.32 
z
" style="fill:#555555;"/>
   </g>
   <g id="PathCollection_14">
    <path clip-path="url(#p4612c38700)" d="M 166.861333 567.931732 
L 234.786648 531.32 
L 234.786648 478.12 
L 166.861333 441.508268 
L 151.474521 424.92 
L 151.474521 371.72 
L 151.474521 318.52 
L 151.474521 265.32 
L 151.474521 212.12 
L 151.474521 158.92 
L 151.474521 105.72 
L 151.474521 52.52 
L 145.332081 52.52 
L 145.332081 105.72 
L 145.332081 158.92 
L 145.332081 212.12 
L 145.332081 265.32 
L 145.332081 318.52 
L 145.332081 371.72 
L 145.332081 424.92 
L 166.861333 448.130331 
L 222.500812 478.12 
L 222.500812 531.32 
L 166.861333 561.309669 
L 123.799479 584.52 
L 136.085315 584.52 
z
" style="fill:#414141;"/>
    <path clip-path="url(#p4612c38700)" d="M 364.264 567.931732 
L 432.189315 531.32 
L 432.189315 478.12 
L 364.264 441.508268 
L 296.338685 478.12 
L 296.338685 531.32 
z
M 308.624521 531.32 
L 308.624521 478.12 
L 364.264 448.130331 
L 419.903479 478.12 
L 419.903479 531.32 
L 364.264 561.309669 
z
" style="fill:#414141;"/>
    <path clip-path="url(#p4612c38700)" d="M 561.666667 567.931732 
L 660.368 567.931732 
L 660.368 561.309669 
L 561.666667 561.309669 
L 506.027188 531.32 
L 506.027188 478.12 
L 506.027188 424.92 
L 506.027188 371.72 
L 506.027188 318.52 
L 506.027188 265.32 
L 506.027188 212.12 
L 506.027188 158.92 
L 506.027188 105.72 
L 506.027188 52.52 
L 493.741352 52.52 
L 493.741352 105.72 
L 493.741352 158.92 
L 493.741352 212.12 
L 493.741352 265.32 
L 493.741352 318.52 
L 493.741352 371.72 
L 493.741352 424.92 
L 493.741352 478.12 
L 493.741352 531.32 
z
" style="fill:#414141;"/>
   </g>
   <g id="PathCollection_15">
    <path clip-path="url(#p4612c38700)" d="M 166.861333 574.553795 
L 247.072484 531.32 
L 247.072484 478.12 
L 166.861333 434.886205 
L 157.616961 424.92 
L 157.616961 371.72 
L 157.616961 318.52 
L 157.616961 265.32 
L 157.616961 212.12 
L 157.616961 158.92 
L 157.616961 105.72 
L 157.616961 52.52 
L 151.474521 52.52 
L 151.474521 105.72 
L 151.474521 158.92 
L 151.474521 212.12 
L 151.474521 265.32 
L 151.474521 318.52 
L 151.474521 371.72 
L 151.474521 424.92 
L 166.861333 441.508268 
L 234.786648 478.12 
L 234.786648 531.32 
L 166.861333 567.931732 
L 136.085315 584.52 
L 148.37115 584.52 
z
" style="fill:#2c2c2c;"/>
    <path clip-path="url(#p4612c38700)" d="M 364.264 574.553795 
L 444.47515 531.32 
L 444.47515 478.12 
L 364.264 434.886205 
L 284.05285 478.12 
L 284.05285 531.32 
z
M 296.338685 531.32 
L 296.338685 478.12 
L 364.264 441.508268 
L 432.189315 478.12 
L 432.189315 531.32 
L 364.264 567.931732 
z
" style="fill:#2c2c2c;"/>
    <path clip-path="url(#p4612c38700)" d="M 561.666667 574.553795 
L 660.368 574.553795 
L 660.368 567.931732 
L 561.666667 567.931732 
L 493.741352 531.32 
L 493.741352 478.12 
L 493.741352 424.92 
L 493.741352 371.72 
L 493.741352 318.52 
L 493.741352 265.32 
L 493.741352 212.12 
L 493.741352 158.92 
L 493.741352 105.72 
L 493.741352 52.52 
L 481.455516 52.52 
L 481.455516 105.72 
L 481.455516 158.92 
L 481.455516 212.12 
L 481.455516 265.32 
L 481.455516 318.52 
L 481.455516 371.72 
L 481.455516 424.92 
L 481.455516 478.12 
L 481.455516 531.32 
z
" style="fill:#2c2c2c;"/>
   </g>
   <g id="PathCollection_16">
    <path clip-path="url(#p4612c38700)" d="M 166.861333 581.175858 
L 259.35832 531.32 
L 259.35832 478.12 
L 166.861333 428.264142 
L 163.759401 424.92 
L 163.759401 371.72 
L 163.759401 318.52 
L 163.759401 265.32 
L 163.759401 212.12 
L 163.759401 158.92 
L 163.759401 105.72 
L 163.759401 52.52 
L 157.616961 52.52 
L 157.616961 105.72 
L 157.616961 158.92 
L 157.616961 212.12 
L 157.616961 265.32 
L 157.616961 318.52 
L 157.616961 371.72 
L 157.616961 424.92 
L 166.861333 434.886205 
L 247.072484 478.12 
L 247.072484 531.32 
L 166.861333 574.553795 
L 148.37115 584.52 
L 160.656986 584.52 
z
" style="fill:#1a1a1a;"/>
    <path clip-path="url(#p4612c38700)" d="M 364.264 581.175858 
L 456.760986 531.32 
L 456.760986 478.12 
L 364.264 428.264142 
L 271.767014 478.12 
L 271.767014 531.32 
z
M 284.05285 531.32 
L 284.05285 478.12 
L 364.264 434.886205 
L 444.47515 478.12 
L 444.47515 531.32 
L 364.264 574.553795 
z
" style="fill:#1a1a1a;"/>
    <path clip-path="url(#p4612c38700)" d="M 561.666667 581.175858 
L 660.368 581.175858 
L 660.368 574.553795 
L 561.666667 574.553795 
L 481.455516 531.32 
L 481.455516 478.12 
L 481.455516 424.92 
L 481.455516 371.72 
L 481.455516 318.52 
L 481.455516 265.32 
L 481.455516 212.12 
L 481.455516 158.92 
L 481.455516 105.72 
L 481.455516 52.52 
L 469.16968 52.52 
L 469.16968 105.72 
L 469.16968 158.92 
L 469.16968 212.12 
L 469.16968 265.32 
L 469.16968 318.52 
L 469.16968 371.72 
L 469.16968 424.92 
L 469.16968 478.12 
L 469.16968 531.32 
z
" style="fill:#1a1a1a;"/>
   </g>
   <g id="PathCollection_17">
    <path clip-path="url(#p4612c38700)" d="M 166.861333 584.52 
L 265.562667 584.52 
L 364.264 584.52 
L 462.965333 584.52 
L 561.666667 584.52 
L 660.368 584.52 
L 660.368 581.175858 
L 561.666667 581.175858 
L 469.16968 531.32 
L 469.16968 478.12 
L 469.16968 424.92 
L 469.16968 371.72 
L 469.16968 318.52 
L 469.16968 265.32 
L 469.16968 212.12 
L 469.16968 158.92 
L 469.16968 105.72 
L 469.16968 52.52 
L 462.965333 52.52 
L 364.264 52.52 
L 265.562667 52.52 
L 166.861333 52.52 
L 163.759401 52.52 
L 163.759401 105.72 
L 163.759401 158.92 
L 163.759401 212.12 
L 163.759401 265.32 
L 163.759401 318.52 
L 163.759401 371.72 
L 163.759401 424.92 
L 166.861333 428.264142 
L 259.35832 478.12 
L 259.35832 531.32 
L 166.861333 581.175858 
L 160.656986 584.52 
z
M 271.767014 531.32 
L 271.767014 478.12 
L 364.264 428.264142 
L 456.760986 478.12 
L 456.760986 531.32 
L 364.264 581.175858 
z
" style="fill:#080808;"/>
   </g>
   <g id="matplotlib.axis_1">
    <g id="xtick_1">
     <g id="line2d_1">
      <defs>
       <path d="M 0 0 
L 0 3.5 
" id="mf641b8cde3" style="stroke:#000000;stroke-width:0.8;"/>
      </defs>
      <g>
       <use style="stroke:#000000;stroke-width:0.8;" x="76.531783" xlink:href="#mf641b8cde3" y="584.52"/>
      </g>
     </g>
     <g id="text_1">
      <!-- 550 -->
      <defs>
       <path d="M 50.296875 72.90625 
L 50.296875 64.890625 
L 16.890625 64.890625 
L 16.890625 44 
Q 19.4375 45.75 22.828125 46.625 
Q 26.21875 47.515625 30.421875 47.515625 
Q 42.234375 47.515625 49.0625 40.96875 
Q 55.90625 34.421875 55.90625 23.09375 
Q 55.90625 11.53125 49 5.046875 
Q 42.09375 -1.421875 29.59375 -1.421875 
Q 24.5625 -1.421875 19.28125 -0.1875 
Q 14.015625 1.03125 8.5 3.515625 
L 8.5 17.671875 
L 14.015625 17.671875 
Q 14.453125 10.75 18.421875 7.078125 
Q 22.40625 3.421875 29.59375 3.421875 
Q 37.3125 3.421875 41.453125 8.5 
Q 45.609375 13.578125 45.609375 23.09375 
Q 45.609375 32.5625 41.484375 37.609375 
Q 37.359375 42.671875 29.59375 42.671875 
Q 25.203125 42.671875 21.84375 41.109375 
Q 18.5 39.546875 15.921875 36.28125 
L 11.71875 36.28125 
L 11.71875 72.90625 
z
" id="DejaVuSerif-35"/>
       <path d="M 31.78125 3.421875 
Q 39.265625 3.421875 42.96875 11.625 
Q 46.6875 19.828125 46.6875 36.375 
Q 46.6875 52.984375 42.96875 61.1875 
Q 39.265625 69.390625 31.78125 69.390625 
Q 24.3125 69.390625 20.59375 61.1875 
Q 16.890625 52.984375 16.890625 36.375 
Q 16.890625 19.828125 20.59375 11.625 
Q 24.3125 3.421875 31.78125 3.421875 
z
M 31.78125 -1.421875 
Q 19.921875 -1.421875 13.25 8.53125 
Q 6.59375 18.5 6.59375 36.375 
Q 6.59375 54.296875 13.25 64.25 
Q 19.921875 74.21875 31.78125 74.21875 
Q 43.703125 74.21875 50.34375 64.25 
Q 56.984375 54.296875 56.984375 36.375 
Q 56.984375 18.5 50.34375 8.53125 
Q 43.703125 -1.421875 31.78125 -1.421875 
z
" id="DejaVuSerif-30"/>
      </defs>
      <g transform="translate(69.908421 596.793316)scale(0.0694 -0.0694)">
       <use xlink:href="#DejaVuSerif-35"/>
       <use x="63.623047" xlink:href="#DejaVuSerif-35"/>
       <use x="127.246094" xlink:href="#DejaVuSerif-30"/>
      </g>
     </g>
    </g>
    <g id="xtick_2">
     <g id="line2d_2">
      <g>
       <use style="stroke:#000000;stroke-width:0.8;" x="149.075642" xlink:href="#mf641b8cde3" y="584.52"/>
      </g>
     </g>
     <g id="text_2">
      <!-- 600 -->
      <defs>
       <path d="M 32.71875 3.421875 
Q 39.59375 3.421875 43.296875 8.46875 
Q 47.015625 13.53125 47.015625 23 
Q 47.015625 32.46875 43.296875 37.515625 
Q 39.59375 42.578125 32.71875 42.578125 
Q 25.734375 42.578125 22.0625 37.6875 
Q 18.40625 32.8125 18.40625 23.578125 
Q 18.40625 13.875 22.109375 8.640625 
Q 25.828125 3.421875 32.71875 3.421875 
z
M 16.796875 40.140625 
Q 20.125 43.796875 24.3125 45.59375 
Q 28.515625 47.40625 33.796875 47.40625 
Q 44.671875 47.40625 51 40.859375 
Q 57.328125 34.328125 57.328125 23 
Q 57.328125 11.921875 50.515625 5.25 
Q 43.703125 -1.421875 32.328125 -1.421875 
Q 19.96875 -1.421875 13.328125 7.78125 
Q 6.6875 17 6.6875 34.078125 
Q 6.6875 53.21875 14.546875 63.71875 
Q 22.40625 74.21875 36.71875 74.21875 
Q 40.578125 74.21875 44.828125 73.484375 
Q 49.078125 72.75 53.515625 71.296875 
L 53.515625 59.28125 
L 48 59.28125 
Q 47.40625 64.203125 44.234375 66.796875 
Q 41.0625 69.390625 35.6875 69.390625 
Q 26.21875 69.390625 21.578125 62.203125 
Q 16.9375 55.03125 16.796875 40.140625 
z
" id="DejaVuSerif-36"/>
      </defs>
      <g transform="translate(142.45228 596.793316)scale(0.0694 -0.0694)">
       <use xlink:href="#DejaVuSerif-36"/>
       <use x="63.623047" xlink:href="#DejaVuSerif-30"/>
       <use x="127.246094" xlink:href="#DejaVuSerif-30"/>
      </g>
     </g>
    </g>
    <g id="xtick_3">
     <g id="line2d_3">
      <g>
       <use style="stroke:#000000;stroke-width:0.8;" x="221.619502" xlink:href="#mf641b8cde3" y="584.52"/>
      </g>
     </g>
     <g id="text_3">
      <!-- 650 -->
      <g transform="translate(214.996139 596.793316)scale(0.0694 -0.0694)">
       <use xlink:href="#DejaVuSerif-36"/>
       <use x="63.623047" xlink:href="#DejaVuSerif-35"/>
       <use x="127.246094" xlink:href="#DejaVuSerif-30"/>
      </g>
     </g>
    </g>
    <g id="xtick_4">
     <g id="line2d_4">
      <g>
       <use style="stroke:#000000;stroke-width:0.8;" x="294.163361" xlink:href="#mf641b8cde3" y="584.52"/>
      </g>
     </g>
     <g id="text_4">
      <!-- 700 -->
      <defs>
       <path d="M 56.390625 67.921875 
L 27.875 0 
L 20.609375 0 
L 47.796875 64.890625 
L 14.109375 64.890625 
L 14.109375 55.90625 
L 8.40625 55.90625 
L 8.40625 72.90625 
L 56.390625 72.90625 
z
" id="DejaVuSerif-37"/>
      </defs>
      <g transform="translate(287.539998 596.793316)scale(0.0694 -0.0694)">
       <use xlink:href="#DejaVuSerif-37"/>
       <use x="63.623047" xlink:href="#DejaVuSerif-30"/>
       <use x="127.246094" xlink:href="#DejaVuSerif-30"/>
      </g>
     </g>
    </g>
    <g id="xtick_5">
     <g id="line2d_5">
      <g>
       <use style="stroke:#000000;stroke-width:0.8;" x="366.70722" xlink:href="#mf641b8cde3" y="584.52"/>
      </g>
     </g>
     <g id="text_5">
      <!-- 750 -->
      <g transform="translate(360.083857 596.793316)scale(0.0694 -0.0694)">
       <use xlink:href="#DejaVuSerif-37"/>
       <use x="63.623047" xlink:href="#DejaVuSerif-35"/>
       <use x="127.246094" xlink:href="#DejaVuSerif-30"/>
      </g>
     </g>
    </g>
    <g id="xtick_6">
     <g id="line2d_6">
      <g>
       <use style="stroke:#000000;stroke-width:0.8;" x="439.251079" xlink:href="#mf641b8cde3" y="584.52"/>
      </g>
     </g>
     <g id="text_6">
      <!-- 800 -->
      <defs>
       <path d="M 46.578125 19.921875 
Q 46.578125 27.734375 42.6875 32.046875 
Q 38.8125 36.375 31.78125 36.375 
Q 24.75 36.375 20.875 32.046875 
Q 17 27.734375 17 19.921875 
Q 17 12.0625 20.875 7.734375 
Q 24.75 3.421875 31.78125 3.421875 
Q 38.8125 3.421875 42.6875 7.734375 
Q 46.578125 12.0625 46.578125 19.921875 
z
M 44.578125 55.328125 
Q 44.578125 61.96875 41.203125 65.671875 
Q 37.84375 69.390625 31.78125 69.390625 
Q 25.78125 69.390625 22.390625 65.671875 
Q 19 61.96875 19 55.328125 
Q 19 48.640625 22.390625 44.921875 
Q 25.78125 41.21875 31.78125 41.21875 
Q 37.84375 41.21875 41.203125 44.921875 
Q 44.578125 48.640625 44.578125 55.328125 
z
M 39.3125 38.8125 
Q 47.609375 37.703125 52.25 32.6875 
Q 56.890625 27.6875 56.890625 19.921875 
Q 56.890625 9.671875 50.390625 4.125 
Q 43.890625 -1.421875 31.78125 -1.421875 
Q 19.734375 -1.421875 13.203125 4.125 
Q 6.6875 9.671875 6.6875 19.921875 
Q 6.6875 27.6875 11.328125 32.6875 
Q 15.96875 37.703125 24.3125 38.8125 
Q 16.9375 40.140625 13 44.40625 
Q 9.078125 48.6875 9.078125 55.328125 
Q 9.078125 64.109375 15.125 69.15625 
Q 21.1875 74.21875 31.78125 74.21875 
Q 42.390625 74.21875 48.4375 69.15625 
Q 54.5 64.109375 54.5 55.328125 
Q 54.5 48.6875 50.5625 44.40625 
Q 46.625 40.140625 39.3125 38.8125 
z
" id="DejaVuSerif-38"/>
      </defs>
      <g transform="translate(432.627716 596.793316)scale(0.0694 -0.0694)">
       <use xlink:href="#DejaVuSerif-38"/>
       <use x="63.623047" xlink:href="#DejaVuSerif-30"/>
       <use x="127.246094" xlink:href="#DejaVuSerif-30"/>
      </g>
     </g>
    </g>
    <g id="xtick_7">
     <g id="line2d_7">
      <g>
       <use style="stroke:#000000;stroke-width:0.8;" x="511.794938" xlink:href="#mf641b8cde3" y="584.52"/>
      </g>
     </g>
     <g id="text_7">
      <!-- 850 -->
      <g transform="translate(505.171575 596.793316)scale(0.0694 -0.0694)">
       <use xlink:href="#DejaVuSerif-38"/>
       <use x="63.623047" xlink:href="#DejaVuSerif-35"/>
       <use x="127.246094" xlink:href="#DejaVuSerif-30"/>
      </g>
     </g>
    </g>
    <g id="xtick_8">
     <g id="line2d_8">
      <g>
       <use style="stroke:#000000;stroke-width:0.8;" x="584.338797" xlink:href="#mf641b8cde3" y="584.52"/>
      </g>
     </g>
     <g id="text_8">
      <!-- 900 -->
      <defs>
       <path d="M 46.78125 32.671875 
Q 43.5 29 39.25 27.1875 
Q 35.015625 25.390625 29.6875 25.390625 
Q 18.84375 25.390625 12.5625 31.9375 
Q 6.296875 38.484375 6.296875 49.8125 
Q 6.296875 60.890625 13.109375 67.546875 
Q 19.921875 74.21875 31.296875 74.21875 
Q 43.65625 74.21875 50.265625 65.015625 
Q 56.890625 55.8125 56.890625 38.71875 
Q 56.890625 19.578125 49.015625 9.078125 
Q 41.15625 -1.421875 26.90625 -1.421875 
Q 23.046875 -1.421875 18.796875 -0.6875 
Q 14.546875 0.046875 10.109375 1.515625 
L 10.109375 13.625 
L 15.578125 13.625 
Q 16.21875 8.6875 19.390625 6.046875 
Q 22.5625 3.421875 27.875 3.421875 
Q 37.359375 3.421875 41.984375 10.5625 
Q 46.625 17.71875 46.78125 32.671875 
z
M 30.90625 69.390625 
Q 23.96875 69.390625 20.28125 64.328125 
Q 16.609375 59.28125 16.609375 49.8125 
Q 16.609375 40.328125 20.28125 35.25 
Q 23.96875 30.171875 30.90625 30.171875 
Q 37.84375 30.171875 41.53125 35.078125 
Q 45.21875 39.984375 45.21875 49.21875 
Q 45.21875 58.9375 41.5 64.15625 
Q 37.796875 69.390625 30.90625 69.390625 
z
" id="DejaVuSerif-39"/>
      </defs>
      <g transform="translate(577.715435 596.793316)scale(0.0694 -0.0694)">
       <use xlink:href="#DejaVuSerif-39"/>
       <use x="63.623047" xlink:href="#DejaVuSerif-30"/>
       <use x="127.246094" xlink:href="#DejaVuSerif-30"/>
      </g>
     </g>
    </g>
    <g id="xtick_9">
     <g id="line2d_9">
      <g>
       <use style="stroke:#000000;stroke-width:0.8;" x="656.882656" xlink:href="#mf641b8cde3" y="584.52"/>
      </g>
     </g>
     <g id="text_9">
      <!-- 950 -->
      <g transform="translate(650.259294 596.793316)scale(0.0694 -0.0694)">
       <use xlink:href="#DejaVuSerif-39"/>
       <use x="63.623047" xlink:href="#DejaVuSerif-35"/>
       <use x="127.246094" xlink:href="#DejaVuSerif-30"/>
      </g>
     </g>
    </g>
   </g>
   <g id="matplotlib.axis_2">
    <g id="ytick_1">
     <g id="line2d_10">
      <defs>
       <path d="M 0 0 
L -3.5 0 
" id="mf82c092cc5" style="stroke:#000000;stroke-width:0.8;"/>
      </defs>
      <g>
       <use style="stroke:#000000;stroke-width:0.8;" x="68.16" xlink:href="#mf82c092cc5" y="535.32064"/>
      </g>
     </g>
     <g id="text_10">
      <!-- 800 -->
      <g transform="translate(47.913275 537.957298)scale(0.0694 -0.0694)">
       <use xlink:href="#DejaVuSerif-38"/>
       <use x="63.623047" xlink:href="#DejaVuSerif-30"/>
       <use x="127.246094" xlink:href="#DejaVuSerif-30"/>
      </g>
     </g>
    </g>
    <g id="ytick_2">
     <g id="line2d_11">
      <g>
       <use style="stroke:#000000;stroke-width:0.8;" x="68.16" xlink:href="#mf82c092cc5" y="456.5208"/>
      </g>
     </g>
     <g id="text_11">
      <!-- 1000 -->
      <defs>
       <path d="M 14.203125 0 
L 14.203125 5.171875 
L 26.90625 5.171875 
L 26.90625 65.828125 
L 12.203125 56.296875 
L 12.203125 62.703125 
L 29.984375 74.21875 
L 36.71875 74.21875 
L 36.71875 5.171875 
L 49.421875 5.171875 
L 49.421875 0 
z
" id="DejaVuSerif-31"/>
      </defs>
      <g transform="translate(43.4977 459.157458)scale(0.0694 -0.0694)">
       <use xlink:href="#DejaVuSerif-31"/>
       <use x="63.623047" xlink:href="#DejaVuSerif-30"/>
       <use x="127.246094" xlink:href="#DejaVuSerif-30"/>
       <use x="190.869141" xlink:href="#DejaVuSerif-30"/>
      </g>
     </g>
    </g>
    <g id="ytick_3">
     <g id="line2d_12">
      <g>
       <use style="stroke:#000000;stroke-width:0.8;" x="68.16" xlink:href="#mf82c092cc5" y="377.72096"/>
      </g>
     </g>
     <g id="text_12">
      <!-- 1200 -->
      <defs>
       <path d="M 12.796875 55.515625 
L 7.328125 55.515625 
L 7.328125 68.5 
Q 12.546875 71.296875 17.84375 72.75 
Q 23.140625 74.21875 28.21875 74.21875 
Q 39.59375 74.21875 46.1875 68.703125 
Q 52.78125 63.1875 52.78125 53.71875 
Q 52.78125 43.015625 37.84375 28.125 
Q 36.671875 27 36.078125 26.421875 
L 17.671875 8.015625 
L 48.09375 8.015625 
L 48.09375 17 
L 53.8125 17 
L 53.8125 0 
L 6.78125 0 
L 6.78125 5.328125 
L 28.90625 27.390625 
Q 36.234375 34.71875 39.359375 40.84375 
Q 42.484375 46.96875 42.484375 53.71875 
Q 42.484375 61.078125 38.640625 65.234375 
Q 34.8125 69.390625 28.078125 69.390625 
Q 21.09375 69.390625 17.28125 65.921875 
Q 13.484375 62.453125 12.796875 55.515625 
z
" id="DejaVuSerif-32"/>
      </defs>
      <g transform="translate(43.4977 380.357618)scale(0.0694 -0.0694)">
       <use xlink:href="#DejaVuSerif-31"/>
       <use x="63.623047" xlink:href="#DejaVuSerif-32"/>
       <use x="127.246094" xlink:href="#DejaVuSerif-30"/>
       <use x="190.869141" xlink:href="#DejaVuSerif-30"/>
      </g>
     </g>
    </g>
    <g id="ytick_4">
     <g id="line2d_13">
      <g>
       <use style="stroke:#000000;stroke-width:0.8;" x="68.16" xlink:href="#mf82c092cc5" y="298.92112"/>
      </g>
     </g>
     <g id="text_13">
      <!-- 1400 -->
      <defs>
       <path d="M 34.90625 24.703125 
L 34.90625 63.484375 
L 10.015625 24.703125 
z
M 56.390625 0 
L 23.1875 0 
L 23.1875 5.171875 
L 34.90625 5.171875 
L 34.90625 19.484375 
L 3.078125 19.484375 
L 3.078125 24.8125 
L 35.015625 74.21875 
L 44.671875 74.21875 
L 44.671875 24.703125 
L 58.59375 24.703125 
L 58.59375 19.484375 
L 44.671875 19.484375 
L 44.671875 5.171875 
L 56.390625 5.171875 
z
" id="DejaVuSerif-34"/>
      </defs>
      <g transform="translate(43.4977 301.557778)scale(0.0694 -0.0694)">
       <use xlink:href="#DejaVuSerif-31"/>
       <use x="63.623047" xlink:href="#DejaVuSerif-34"/>
       <use x="127.246094" xlink:href="#DejaVuSerif-30"/>
       <use x="190.869141" xlink:href="#DejaVuSerif-30"/>
      </g>
     </g>
    </g>
    <g id="ytick_5">
     <g id="line2d_14">
      <g>
       <use style="stroke:#000000;stroke-width:0.8;" x="68.16" xlink:href="#mf82c092cc5" y="220.12128"/>
      </g>
     </g>
     <g id="text_14">
      <!-- 1600 -->
      <g transform="translate(43.4977 222.757938)scale(0.0694 -0.0694)">
       <use xlink:href="#DejaVuSerif-31"/>
       <use x="63.623047" xlink:href="#DejaVuSerif-36"/>
       <use x="127.246094" xlink:href="#DejaVuSerif-30"/>
       <use x="190.869141" xlink:href="#DejaVuSerif-30"/>
      </g>
     </g>
    </g>
    <g id="ytick_6">
     <g id="line2d_15">
      <g>
       <use style="stroke:#000000;stroke-width:0.8;" x="68.16" xlink:href="#mf82c092cc5" y="141.32144"/>
      </g>
     </g>
     <g id="text_15">
      <!-- 1800 -->
      <g transform="translate(43.4977 143.958098)scale(0.0694 -0.0694)">
       <use xlink:href="#DejaVuSerif-31"/>
       <use x="63.623047" xlink:href="#DejaVuSerif-38"/>
       <use x="127.246094" xlink:href="#DejaVuSerif-30"/>
       <use x="190.869141" xlink:href="#DejaVuSerif-30"/>
      </g>
     </g>
    </g>
    <g id="ytick_7">
     <g id="line2d_16">
      <g>
       <use style="stroke:#000000;stroke-width:0.8;" x="68.16" xlink:href="#mf82c092cc5" y="62.5216"/>
      </g>
     </g>
     <g id="text_16">
      <!-- 2000 -->
      <g transform="translate(43.4977 65.158258)scale(0.0694 -0.0694)">
       <use xlink:href="#DejaVuSerif-32"/>
       <use x="63.623047" xlink:href="#DejaVuSerif-30"/>
       <use x="127.246094" xlink:href="#DejaVuSerif-30"/>
       <use x="190.869141" xlink:href="#DejaVuSerif-30"/>
      </g>
     </g>
    </g>
   </g>
   <g id="patch_3">
    <path d="M 68.16 584.52 
L 68.16 52.52 
" style="fill:none;stroke:#000000;stroke-linecap:square;stroke-linejoin:miter;stroke-width:0.8;"/>
   </g>
   <g id="patch_4">
    <path d="M 660.368 584.52 
L 660.368 52.52 
" style="fill:none;stroke:#000000;stroke-linecap:square;stroke-linejoin:miter;stroke-width:0.8;"/>
   </g>
   <g id="patch_5">
    <path d="M 68.16 584.52 
L 660.368 584.52 
" style="fill:none;stroke:#000000;stroke-linecap:square;stroke-linejoin:miter;stroke-width:0.8;"/>
   </g>
   <g id="patch_6">
    <path d="M 68.16 52.52 
L 660.368 52.52 
" style="fill:none;stroke:#000000;stroke-linecap:square;stroke-linejoin:miter;stroke-width:0.8;"/>
   </g>
  </g>
  <g id="axes_2">
   <g id="patch_7">
    <path clip-path="url(#p664327051b)" d="M 697.381 584.52 
L 697.381 553.225882 
L 697.381 83.814118 
L 697.381 52.52 
L 723.981 52.52 
L 723.981 83.814118 
L 723.981 553.225882 
L 723.981 584.52 
z
" style="fill:#ffffff;stroke:#ffffff;stroke-linejoin:miter;stroke-width:0.01;"/>
   </g>
   <g id="QuadMesh_1">
    <path clip-path="url(#p664327051b)" d="M 697.381 584.52 
L 723.981 584.52 
L 723.981 553.225882 
L 697.381 553.225882 
L 697.381 584.52 
" style="fill:#fcfcfc;"/>
    <path clip-path="url(#p664327051b)" d="M 697.381 553.225882 
L 723.981 553.225882 
L 723.981 521.931765 
L 697.381 521.931765 
L 697.381 553.225882 
" style="fill:#f5f5f5;"/>
    <path clip-path="url(#p664327051b)" d="M 697.381 521.931765 
L 723.981 521.931765 
L 723.981 490.637647 
L 697.381 490.637647 
L 697.381 521.931765 
" style="fill:#ececec;"/>
    <path clip-path="url(#p664327051b)" d="M 697.381 490.637647 
L 723.981 490.637647 
L 723.981 459.343529 
L 697.381 459.343529 
L 697.381 490.637647 
" style="fill:#e1e1e1;"/>
    <path clip-path="url(#p664327051b)" d="M 697.381 459.343529 
L 723.981 459.343529 
L 723.981 428.049412 
L 697.381 428.049412 
L 697.381 459.343529 
" style="fill:#d6d6d6;"/>
    <path clip-path="url(#p664327051b)" d="M 697.381 428.049412 
L 723.981 428.049412 
L 723.981 396.755294 
L 697.381 396.755294 
L 697.381 428.049412 
" style="fill:#c9c9c9;"/>
    <path clip-path="url(#p664327051b)" d="M 697.381 396.755294 
L 723.981 396.755294 
L 723.981 365.461176 
L 697.381 365.461176 
L 697.381 396.755294 
" style="fill:#bbbbbb;"/>
    <path clip-path="url(#p664327051b)" d="M 697.381 365.461176 
L 723.981 365.461176 
L 723.981 334.167059 
L 697.381 334.167059 
L 697.381 365.461176 
" style="fill:#a9a9a9;"/>
    <path clip-path="url(#p664327051b)" d="M 697.381 334.167059 
L 723.981 334.167059 
L 723.981 302.872941 
L 697.381 302.872941 
L 697.381 334.167059 
" style="fill:#959595;"/>
    <path clip-path="url(#p664327051b)" d="M 697.381 302.872941 
L 723.981 302.872941 
L 723.981 271.578824 
L 697.381 271.578824 
L 697.381 302.872941 
" style="fill:#858585;"/>
    <path clip-path="url(#p664327051b)" d="M 697.381 271.578824 
L 723.981 271.578824 
L 723.981 240.284706 
L 697.381 240.284706 
L 697.381 271.578824 
" style="fill:#757575;"/>
    <path clip-path="url(#p664327051b)" d="M 697.381 240.284706 
L 723.981 240.284706 
L 723.981 208.990588 
L 697.381 208.990588 
L 697.381 240.284706 
" style="fill:#656565;"/>
    <path clip-path="url(#p664327051b)" d="M 697.381 208.990588 
L 723.981 208.990588 
L 723.981 177.696471 
L 697.381 177.696471 
L 697.381 208.990588 
" style="fill:#555555;"/>
    <path clip-path="url(#p664327051b)" d="M 697.381 177.696471 
L 723.981 177.696471 
L 723.981 146.402353 
L 697.381 146.402353 
L 697.381 177.696471 
" style="fill:#414141;"/>
    <path clip-path="url(#p664327051b)" d="M 697.381 146.402353 
L 723.981 146.402353 
L 723.981 115.108235 
L 697.381 115.108235 
L 697.381 146.402353 
" style="fill:#2c2c2c;"/>
    <path clip-path="url(#p664327051b)" d="M 697.381 115.108235 
L 723.981 115.108235 
L 723.981 83.814118 
L 697.381 83.814118 
L 697.381 115.108235 
" style="fill:#1a1a1a;"/>
    <path clip-path="url(#p664327051b)" d="M 697.381 83.814118 
L 723.981 83.814118 
L 723.981 52.52 
L 697.381 52.52 
L 697.381 83.814118 
" style="fill:#080808;"/>
   </g>
   <g id="matplotlib.axis_3"/>
   <g id="matplotlib.axis_4">
    <g id="ytick_8">
     <g id="line2d_17">
      <defs>
       <path d="M 0 0 
L 3.5 0 
" id="mf8bbceddbe" style="stroke:#000000;stroke-width:0.8;"/>
      </defs>
      <g>
       <use style="stroke:#000000;stroke-width:0.8;" x="723.981" xlink:href="#mf8bbceddbe" y="584.52"/>
      </g>
     </g>
     <g id="text_17">
      <!-- 0.0053088 -->
      <defs>
       <path d="M 9.421875 5.078125 
Q 9.421875 7.8125 11.28125 9.71875 
Q 13.140625 11.625 15.921875 11.625 
Q 18.609375 11.625 20.5 9.71875 
Q 22.40625 7.8125 22.40625 5.078125 
Q 22.40625 2.390625 20.5 0.484375 
Q 18.609375 -1.421875 15.921875 -1.421875 
Q 13.140625 -1.421875 11.28125 0.453125 
Q 9.421875 2.34375 9.421875 5.078125 
z
" id="DejaVuSerif-2e"/>
       <path d="M 9.71875 69.828125 
Q 15.4375 71.96875 20.671875 73.09375 
Q 25.921875 74.21875 30.515625 74.21875 
Q 41.21875 74.21875 47.21875 69.59375 
Q 53.21875 64.984375 53.21875 56.78125 
Q 53.21875 50.203125 49.0625 45.78125 
Q 44.921875 41.359375 37.3125 39.796875 
Q 46.296875 38.53125 51.25 33.28125 
Q 56.203125 28.03125 56.203125 19.671875 
Q 56.203125 9.46875 49.34375 4.015625 
Q 42.484375 -1.421875 29.59375 -1.421875 
Q 23.875 -1.421875 18.421875 -0.1875 
Q 12.984375 1.03125 7.625 3.515625 
L 7.625 17.671875 
L 13.09375 17.671875 
Q 13.578125 10.640625 17.828125 7.03125 
Q 22.078125 3.421875 29.78125 3.421875 
Q 37.25 3.421875 41.578125 7.734375 
Q 45.90625 12.0625 45.90625 19.578125 
Q 45.90625 28.171875 41.453125 32.59375 
Q 37.015625 37.015625 28.421875 37.015625 
L 23.78125 37.015625 
L 23.78125 42 
L 26.21875 42 
Q 34.765625 42 39.03125 45.53125 
Q 43.3125 49.078125 43.3125 56.203125 
Q 43.3125 62.59375 39.796875 65.984375 
Q 36.28125 69.390625 29.6875 69.390625 
Q 23.09375 69.390625 19.453125 66.265625 
Q 15.828125 63.140625 15.1875 56.984375 
L 9.71875 56.984375 
z
" id="DejaVuSerif-33"/>
      </defs>
      <g transform="translate(730.981 587.156658)scale(0.0694 -0.0694)">
       <use xlink:href="#DejaVuSerif-30"/>
       <use x="63.623047" xlink:href="#DejaVuSerif-2e"/>
       <use x="95.410156" xlink:href="#DejaVuSerif-30"/>
       <use x="159.033203" xlink:href="#DejaVuSerif-30"/>
       <use x="222.65625" xlink:href="#DejaVuSerif-35"/>
       <use x="286.279297" xlink:href="#DejaVuSerif-33"/>
       <use x="349.902344" xlink:href="#DejaVuSerif-30"/>
       <use x="413.525391" xlink:href="#DejaVuSerif-38"/>
       <use x="477.148438" xlink:href="#DejaVuSerif-38"/>
      </g>
     </g>
    </g>
    <g id="ytick_9">
     <g id="line2d_18">
      <g>
       <use style="stroke:#000000;stroke-width:0.8;" x="723.981" xlink:href="#mf8bbceddbe" y="521.931765"/>
      </g>
     </g>
     <g id="text_18">
      <!-- 0.0053104 -->
      <g transform="translate(730.981 524.568423)scale(0.0694 -0.0694)">
       <use xlink:href="#DejaVuSerif-30"/>
       <use x="63.623047" xlink:href="#DejaVuSerif-2e"/>
       <use x="95.410156" xlink:href="#DejaVuSerif-30"/>
       <use x="159.033203" xlink:href="#DejaVuSerif-30"/>
       <use x="222.65625" xlink:href="#DejaVuSerif-35"/>
       <use x="286.279297" xlink:href="#DejaVuSerif-33"/>
       <use x="349.902344" xlink:href="#DejaVuSerif-31"/>
       <use x="413.525391" xlink:href="#DejaVuSerif-30"/>
       <use x="477.148438" xlink:href="#DejaVuSerif-34"/>
      </g>
     </g>
    </g>
    <g id="ytick_10">
     <g id="line2d_19">
      <g>
       <use style="stroke:#000000;stroke-width:0.8;" x="723.981" xlink:href="#mf8bbceddbe" y="459.343529"/>
      </g>
     </g>
     <g id="text_19">
      <!-- 0.0053120 -->
      <g transform="translate(730.981 461.980187)scale(0.0694 -0.0694)">
       <use xlink:href="#DejaVuSerif-30"/>
       <use x="63.623047" xlink:href="#DejaVuSerif-2e"/>
       <use x="95.410156" xlink:href="#DejaVuSerif-30"/>
       <use x="159.033203" xlink:href="#DejaVuSerif-30"/>
       <use x="222.65625" xlink:href="#DejaVuSerif-35"/>
       <use x="286.279297" xlink:href="#DejaVuSerif-33"/>
       <use x="349.902344" xlink:href="#DejaVuSerif-31"/>
       <use x="413.525391" xlink:href="#DejaVuSerif-32"/>
       <use x="477.148438" xlink:href="#DejaVuSerif-30"/>
      </g>
     </g>
    </g>
    <g id="ytick_11">
     <g id="line2d_20">
      <g>
       <use style="stroke:#000000;stroke-width:0.8;" x="723.981" xlink:href="#mf8bbceddbe" y="396.755294"/>
      </g>
     </g>
     <g id="text_20">
      <!-- 0.0053136 -->
      <g transform="translate(730.981 399.391952)scale(0.0694 -0.0694)">
       <use xlink:href="#DejaVuSerif-30"/>
       <use x="63.623047" xlink:href="#DejaVuSerif-2e"/>
       <use x="95.410156" xlink:href="#DejaVuSerif-30"/>
       <use x="159.033203" xlink:href="#DejaVuSerif-30"/>
       <use x="222.65625" xlink:href="#DejaVuSerif-35"/>
       <use x="286.279297" xlink:href="#DejaVuSerif-33"/>
       <use x="349.902344" xlink:href="#DejaVuSerif-31"/>
       <use x="413.525391" xlink:href="#DejaVuSerif-33"/>
       <use x="477.148438" xlink:href="#DejaVuSerif-36"/>
      </g>
     </g>
    </g>
    <g id="ytick_12">
     <g id="line2d_21">
      <g>
       <use style="stroke:#000000;stroke-width:0.8;" x="723.981" xlink:href="#mf8bbceddbe" y="334.167059"/>
      </g>
     </g>
     <g id="text_21">
      <!-- 0.0053152 -->
      <g transform="translate(730.981 336.803717)scale(0.0694 -0.0694)">
       <use xlink:href="#DejaVuSerif-30"/>
       <use x="63.623047" xlink:href="#DejaVuSerif-2e"/>
       <use x="95.410156" xlink:href="#DejaVuSerif-30"/>
       <use x="159.033203" xlink:href="#DejaVuSerif-30"/>
       <use x="222.65625" xlink:href="#DejaVuSerif-35"/>
       <use x="286.279297" xlink:href="#DejaVuSerif-33"/>
       <use x="349.902344" xlink:href="#DejaVuSerif-31"/>
       <use x="413.525391" xlink:href="#DejaVuSerif-35"/>
       <use x="477.148438" xlink:href="#DejaVuSerif-32"/>
      </g>
     </g>
    </g>
    <g id="ytick_13">
     <g id="line2d_22">
      <g>
       <use style="stroke:#000000;stroke-width:0.8;" x="723.981" xlink:href="#mf8bbceddbe" y="271.578824"/>
      </g>
     </g>
     <g id="text_22">
      <!-- 0.0053168 -->
      <g transform="translate(730.981 274.215481)scale(0.0694 -0.0694)">
       <use xlink:href="#DejaVuSerif-30"/>
       <use x="63.623047" xlink:href="#DejaVuSerif-2e"/>
       <use x="95.410156" xlink:href="#DejaVuSerif-30"/>
       <use x="159.033203" xlink:href="#DejaVuSerif-30"/>
       <use x="222.65625" xlink:href="#DejaVuSerif-35"/>
       <use x="286.279297" xlink:href="#DejaVuSerif-33"/>
       <use x="349.902344" xlink:href="#DejaVuSerif-31"/>
       <use x="413.525391" xlink:href="#DejaVuSerif-36"/>
       <use x="477.148438" xlink:href="#DejaVuSerif-38"/>
      </g>
     </g>
    </g>
    <g id="ytick_14">
     <g id="line2d_23">
      <g>
       <use style="stroke:#000000;stroke-width:0.8;" x="723.981" xlink:href="#mf8bbceddbe" y="208.990588"/>
      </g>
     </g>
     <g id="text_23">
      <!-- 0.0053184 -->
      <g transform="translate(730.981 211.627246)scale(0.0694 -0.0694)">
       <use xlink:href="#DejaVuSerif-30"/>
       <use x="63.623047" xlink:href="#DejaVuSerif-2e"/>
       <use x="95.410156" xlink:href="#DejaVuSerif-30"/>
       <use x="159.033203" xlink:href="#DejaVuSerif-30"/>
       <use x="222.65625" xlink:href="#DejaVuSerif-35"/>
       <use x="286.279297" xlink:href="#DejaVuSerif-33"/>
       <use x="349.902344" xlink:href="#DejaVuSerif-31"/>
       <use x="413.525391" xlink:href="#DejaVuSerif-38"/>
       <use x="477.148438" xlink:href="#DejaVuSerif-34"/>
      </g>
     </g>
    </g>
    <g id="ytick_15">
     <g id="line2d_24">
      <g>
       <use style="stroke:#000000;stroke-width:0.8;" x="723.981" xlink:href="#mf8bbceddbe" y="146.402353"/>
      </g>
     </g>
     <g id="text_24">
      <!-- 0.0053200 -->
      <g transform="translate(730.981 149.039011)scale(0.0694 -0.0694)">
       <use xlink:href="#DejaVuSerif-30"/>
       <use x="63.623047" xlink:href="#DejaVuSerif-2e"/>
       <use x="95.410156" xlink:href="#DejaVuSerif-30"/>
       <use x="159.033203" xlink:href="#DejaVuSerif-30"/>
       <use x="222.65625" xlink:href="#DejaVuSerif-35"/>
       <use x="286.279297" xlink:href="#DejaVuSerif-33"/>
       <use x="349.902344" xlink:href="#DejaVuSerif-32"/>
       <use x="413.525391" xlink:href="#DejaVuSerif-30"/>
       <use x="477.148438" xlink:href="#DejaVuSerif-30"/>
      </g>
     </g>
    </g>
    <g id="ytick_16">
     <g id="line2d_25">
      <g>
       <use style="stroke:#000000;stroke-width:0.8;" x="723.981" xlink:href="#mf8bbceddbe" y="83.814118"/>
      </g>
     </g>
     <g id="text_25">
      <!-- 0.0053216 -->
      <g transform="translate(730.981 86.450775)scale(0.0694 -0.0694)">
       <use xlink:href="#DejaVuSerif-30"/>
       <use x="63.623047" xlink:href="#DejaVuSerif-2e"/>
       <use x="95.410156" xlink:href="#DejaVuSerif-30"/>
       <use x="159.033203" xlink:href="#DejaVuSerif-30"/>
       <use x="222.65625" xlink:href="#DejaVuSerif-35"/>
       <use x="286.279297" xlink:href="#DejaVuSerif-33"/>
       <use x="349.902344" xlink:href="#DejaVuSerif-32"/>
       <use x="413.525391" xlink:href="#DejaVuSerif-31"/>
       <use x="477.148438" xlink:href="#DejaVuSerif-36"/>
      </g>
     </g>
    </g>
   </g>
   <g id="patch_8">
    <path d="M 697.381 584.52 
L 697.381 553.225882 
L 697.381 83.814118 
L 697.381 52.52 
L 723.981 52.52 
L 723.981 83.814118 
L 723.981 553.225882 
L 723.981 584.52 
z
" style="fill:none;stroke:#000000;stroke-linejoin:miter;stroke-width:0.8;"/>
   </g>
  </g>
 </g>
 <defs>
  <clipPath id="p4612c38700">
   <rect height="532" width="592.208" x="68.16" y="52.52"/>
  </clipPath>
  <clipPath id="p664327051b">
   <rect height="532" width="26.6" x="697.381" y="52.52"/>
  </clipPath>
 </defs>
</svg>
