<?xml version="1.0" encoding="utf-8" standalone="no"?>
<!DOCTYPE svg PUBLIC "-//W3C//DTD SVG 1.1//EN"
  "http://www.w3.org/Graphics/SVG/1.1/DTD/svg11.dtd">
<!-- Created with matplotlib (http://matplotlib.org/) -->
<svg height="648pt" version="1.1" viewBox="0 0 864 648" width="864pt" xmlns="http://www.w3.org/2000/svg" xmlns:xlink="http://www.w3.org/1999/xlink">
 <defs>
  <style type="text/css">
*{stroke-linecap:butt;stroke-linejoin:round;}
  </style>
 </defs>
 <g id="figure_1">
  <g id="patch_1">
   <path d="M 0 648 
L 864 648 
L 864 0 
L 0 0 
z
" style="fill:#ffffff;"/>
  </g>
  <g id="axes_1">
   <g id="patch_2">
    <path d="M 68.16 584.52 
L 660.368 584.52 
L 660.368 52.52 
L 68.16 52.52 
z
" style="fill:#ffffff;"/>
   </g>
   <g id="PathCollection_1">
    <path clip-path="url(#p46f0bc4e3c)" d="M 82.458488 536.156364 
L 73.878684 487.792727 
L 68.16 464.453062 
L 68.16 487.792727 
L 68.16 536.156364 
L 68.16 584.52 
L 82.458488 584.52 
z
" style="fill:#fcfcfc;"/>
    <path clip-path="url(#p46f0bc4e3c)" d="M 82.458488 342.701818 
L 82.458488 294.338182 
L 82.458488 245.974545 
L 68.16 222.63488 
L 68.16 245.974545 
L 68.16 294.338182 
L 68.16 342.701818 
L 68.16 366.041483 
z
" style="fill:#fcfcfc;"/>
   </g>
   <g id="PathCollection_2">
    <path clip-path="url(#p46f0bc4e3c)" d="M 100.884375 536.156364 
L 81.248121 487.792727 
L 71.255549 439.429091 
L 74.354953 391.065455 
L 100.884375 342.701818 
L 100.884375 294.338182 
L 100.884375 245.974545 
L 74.354953 197.610909 
L 74.354953 149.247273 
L 74.354953 100.883636 
L 74.354953 52.52 
L 68.16 52.52 
L 68.16 100.883636 
L 68.16 149.247273 
L 68.16 197.610909 
L 68.16 222.63488 
L 82.458488 245.974545 
L 82.458488 294.338182 
L 82.458488 342.701818 
L 68.16 366.041483 
L 68.16 391.065455 
L 68.16 439.429091 
L 68.16 464.453062 
L 73.878684 487.792727 
L 82.458488 536.156364 
L 82.458488 584.52 
L 100.884375 584.52 
z
" style="fill:#f6f6f6;"/>
   </g>
   <g id="PathCollection_3">
    <path clip-path="url(#p46f0bc4e3c)" d="M 119.310262 536.156364 
L 88.617559 487.792727 
L 89.681436 439.429091 
L 111.229673 391.065455 
L 119.310262 342.701818 
L 119.310262 294.338182 
L 119.310262 245.974545 
L 111.229673 197.610909 
L 111.229673 149.247273 
L 111.229673 100.883636 
L 111.229673 52.52 
L 74.354953 52.52 
L 74.354953 100.883636 
L 74.354953 149.247273 
L 74.354953 197.610909 
L 100.884375 245.974545 
L 100.884375 294.338182 
L 100.884375 342.701818 
L 74.354953 391.065455 
L 71.255549 439.429091 
L 81.248121 487.792727 
L 100.884375 536.156364 
L 100.884375 584.52 
L 119.310262 584.52 
z
" style="fill:#f0f0f0;"/>
   </g>
   <g id="PathCollection_4">
    <path clip-path="url(#p46f0bc4e3c)" d="M 127.3808 584.52 
L 131.523455 584.52 
L 130.832583 536.156364 
L 127.3808 530.519623 
L 95.986996 487.792727 
L 108.107322 439.429091 
L 127.3808 407.968666 
L 130.832583 391.065455 
L 131.523455 342.701818 
L 131.523455 294.338182 
L 131.523455 245.974545 
L 131.523455 197.610909 
L 131.523455 149.247273 
L 131.523455 100.883636 
L 132.558474 52.52 
L 127.3808 52.52 
L 111.229673 52.52 
L 111.229673 100.883636 
L 111.229673 149.247273 
L 111.229673 197.610909 
L 119.310262 245.974545 
L 119.310262 294.338182 
L 119.310262 342.701818 
L 111.229673 391.065455 
L 89.681436 439.429091 
L 88.617559 487.792727 
L 119.310262 536.156364 
L 119.310262 584.52 
z
" style="fill:#e7e7e7;"/>
   </g>
   <g id="PathCollection_5">
    <path clip-path="url(#p46f0bc4e3c)" d="M 136.974545 536.156364 
L 127.3808 520.489835 
L 103.356434 487.792727 
L 126.533209 439.429091 
L 127.3808 438.045554 
L 136.974545 391.065455 
L 138.894727 342.701818 
L 138.894727 294.338182 
L 138.894727 245.974545 
L 138.894727 197.610909 
L 138.894727 149.247273 
L 138.894727 100.883636 
L 141.771418 52.52 
L 132.558474 52.52 
L 131.523455 100.883636 
L 131.523455 149.247273 
L 131.523455 197.610909 
L 131.523455 245.974545 
L 131.523455 294.338182 
L 131.523455 342.701818 
L 130.832583 391.065455 
L 127.3808 407.968666 
L 108.107322 439.429091 
L 95.986996 487.792727 
L 127.3808 530.519623 
L 130.832583 536.156364 
L 131.523455 584.52 
L 138.894727 584.52 
z
" style="fill:#dedede;"/>
   </g>
   <g id="PathCollection_6">
    <path clip-path="url(#p46f0bc4e3c)" d="M 143.116507 536.156364 
L 127.3808 510.460048 
L 110.725871 487.792727 
L 127.3808 453.784694 
L 134.412994 439.429091 
L 143.116507 391.065455 
L 146.265999 342.701818 
L 146.265999 294.338182 
L 146.265999 245.974545 
L 146.265999 197.610909 
L 146.265999 149.247273 
L 146.265999 100.883636 
L 150.984361 52.52 
L 141.771418 52.52 
L 138.894727 100.883636 
L 138.894727 149.247273 
L 138.894727 197.610909 
L 138.894727 245.974545 
L 138.894727 294.338182 
L 138.894727 342.701818 
L 136.974545 391.065455 
L 127.3808 438.045554 
L 126.533209 439.429091 
L 103.356434 487.792727 
L 127.3808 520.489835 
L 136.974545 536.156364 
L 138.894727 584.52 
L 146.265999 584.52 
z
" style="fill:#d4d4d4;"/>
   </g>
   <g id="PathCollection_7">
    <path clip-path="url(#p46f0bc4e3c)" d="M 149.25847 536.156364 
L 127.3808 500.43026 
L 118.095309 487.792727 
L 127.3808 468.832496 
L 141.784266 439.429091 
L 149.25847 391.065455 
L 153.637271 342.701818 
L 153.637271 294.338182 
L 153.637271 245.974545 
L 153.637271 197.610909 
L 153.637271 149.247273 
L 153.637271 100.883636 
L 160.197304 52.52 
L 150.984361 52.52 
L 146.265999 100.883636 
L 146.265999 149.247273 
L 146.265999 197.610909 
L 146.265999 245.974545 
L 146.265999 294.338182 
L 146.265999 342.701818 
L 143.116507 391.065455 
L 134.412994 439.429091 
L 127.3808 453.784694 
L 110.725871 487.792727 
L 127.3808 510.460048 
L 143.116507 536.156364 
L 146.265999 584.52 
L 153.637271 584.52 
z
" style="fill:#c8c8c8;"/>
   </g>
   <g id="PathCollection_8">
    <path clip-path="url(#p46f0bc4e3c)" d="M 155.400432 536.156364 
L 127.3808 490.400472 
L 125.464746 487.792727 
L 127.3808 483.880299 
L 149.155538 439.429091 
L 155.400432 391.065455 
L 161.008543 342.701818 
L 161.008543 294.338182 
L 161.008543 245.974545 
L 161.008543 197.610909 
L 161.008543 149.247273 
L 161.008543 100.883636 
L 169.410248 52.52 
L 160.197304 52.52 
L 153.637271 100.883636 
L 153.637271 149.247273 
L 153.637271 197.610909 
L 153.637271 245.974545 
L 153.637271 294.338182 
L 153.637271 342.701818 
L 149.25847 391.065455 
L 141.784266 439.429091 
L 127.3808 468.832496 
L 118.095309 487.792727 
L 127.3808 500.43026 
L 149.25847 536.156364 
L 153.637271 584.52 
L 161.008543 584.52 
z
" style="fill:#bdbdbd;"/>
   </g>
   <g id="PathCollection_9">
    <path clip-path="url(#p46f0bc4e3c)" d="M 161.542394 536.156364 
L 141.024446 487.792727 
L 156.52681 439.429091 
L 161.542394 391.065455 
L 168.379815 342.701818 
L 168.379815 294.338182 
L 168.379815 245.974545 
L 168.379815 197.610909 
L 168.379815 149.247273 
L 168.379815 100.883636 
L 178.623191 52.52 
L 169.410248 52.52 
L 161.008543 100.883636 
L 161.008543 149.247273 
L 161.008543 197.610909 
L 161.008543 245.974545 
L 161.008543 294.338182 
L 161.008543 342.701818 
L 155.400432 391.065455 
L 149.155538 439.429091 
L 127.3808 483.880299 
L 125.464746 487.792727 
L 127.3808 490.400472 
L 155.400432 536.156364 
L 161.008543 584.52 
L 168.379815 584.52 
z
" style="fill:#aeaeae;"/>
    <path clip-path="url(#p46f0bc4e3c)" d="M 660.368 584.52 
L 660.368 562.235385 
L 646.724354 584.52 
z
" style="fill:#aeaeae;"/>
    <path clip-path="url(#p46f0bc4e3c)" d="M 660.368 510.077342 
L 660.368 487.792727 
L 660.368 465.508113 
L 633.080707 487.792727 
z
" style="fill:#aeaeae;"/>
    <path clip-path="url(#p46f0bc4e3c)" d="M 660.368 268.25916 
L 660.368 245.974545 
L 660.368 223.689931 
L 646.724354 245.974545 
z
" style="fill:#aeaeae;"/>
    <path clip-path="url(#p46f0bc4e3c)" d="M 423.4848 58.08942 
L 432.57679 52.52 
L 423.4848 52.52 
L 419.588695 52.52 
z
" style="fill:#aeaeae;"/>
   </g>
   <g id="PathCollection_10">
    <path clip-path="url(#p46f0bc4e3c)" d="M 167.684356 536.156364 
L 159.461806 487.792727 
L 163.898082 439.429091 
L 167.684356 391.065455 
L 175.751087 342.701818 
L 175.751087 294.338182 
L 175.751087 245.974545 
L 175.751087 197.610909 
L 175.751087 149.247273 
L 175.751087 100.883636 
L 186.6016 56.555322 
L 187.836134 52.52 
L 186.6016 52.52 
L 178.623191 52.52 
L 168.379815 100.883636 
L 168.379815 149.247273 
L 168.379815 197.610909 
L 168.379815 245.974545 
L 168.379815 294.338182 
L 168.379815 342.701818 
L 161.542394 391.065455 
L 156.52681 439.429091 
L 141.024446 487.792727 
L 161.542394 536.156364 
L 168.379815 584.52 
L 175.751087 584.52 
z
" style="fill:#9e9e9e;"/>
    <path clip-path="url(#p46f0bc4e3c)" d="M 541.9264 584.52 
L 546.867612 584.52 
L 541.9264 580.484678 
L 539.457331 584.52 
z
" style="fill:#9e9e9e;"/>
    <path clip-path="url(#p46f0bc4e3c)" d="M 660.368 562.235385 
L 660.368 536.156364 
L 660.368 510.077342 
L 633.080707 487.792727 
L 660.368 465.508113 
L 660.368 439.429091 
L 660.368 391.065455 
L 660.368 342.701818 
L 660.368 294.338182 
L 660.368 268.25916 
L 646.724354 245.974545 
L 660.368 223.689931 
L 660.368 197.610909 
L 660.368 149.247273 
L 660.368 100.883636 
L 660.368 52.52 
L 655.426788 52.52 
L 655.426788 100.883636 
L 655.426788 149.247273 
L 655.426788 197.610909 
L 628.286994 245.974545 
L 655.426788 294.338182 
L 655.426788 342.701818 
L 655.426788 391.065455 
L 657.898931 439.429091 
L 601.1472 485.776322 
L 541.9264 483.757405 
L 539.457331 487.792727 
L 541.9264 491.828049 
L 601.1472 491.828049 
L 655.426788 536.156364 
L 628.286994 584.52 
L 646.724354 584.52 
z
" style="fill:#9e9e9e;"/>
    <path clip-path="url(#p46f0bc4e3c)" d="M 541.9264 346.73714 
L 546.867612 342.701818 
L 546.867612 294.338182 
L 546.867612 245.974545 
L 546.867612 197.610909 
L 546.867612 149.247273 
L 541.9264 145.211951 
L 540.280013 149.247273 
L 540.280013 197.610909 
L 540.280013 245.974545 
L 540.280013 294.338182 
L 540.280013 342.701818 
z
" style="fill:#9e9e9e;"/>
    <path clip-path="url(#p46f0bc4e3c)" d="M 423.4848 65.615663 
L 444.863263 52.52 
L 432.57679 52.52 
L 423.4848 58.08942 
L 419.588695 52.52 
L 414.323688 52.52 
z
" style="fill:#9e9e9e;"/>
    <path clip-path="url(#p46f0bc4e3c)" d="M 541.9264 56.555322 
L 546.867612 52.52 
L 541.9264 52.52 
L 539.457331 52.52 
z
" style="fill:#9e9e9e;"/>
   </g>
   <g id="PathCollection_11">
    <path clip-path="url(#p46f0bc4e3c)" d="M 173.826319 536.156364 
L 177.899166 487.792727 
L 171.269354 439.429091 
L 173.826319 391.065455 
L 183.12236 342.701818 
L 183.12236 294.338182 
L 183.12236 245.974545 
L 183.12236 197.610909 
L 183.12236 149.247273 
L 183.12236 100.883636 
L 186.6016 86.669666 
L 197.049078 52.52 
L 187.836134 52.52 
L 186.6016 56.555322 
L 175.751087 100.883636 
L 175.751087 149.247273 
L 175.751087 197.610909 
L 175.751087 245.974545 
L 175.751087 294.338182 
L 175.751087 342.701818 
L 167.684356 391.065455 
L 163.898082 439.429091 
L 159.461806 487.792727 
L 167.684356 536.156364 
L 175.751087 584.52 
L 183.12236 584.52 
z
" style="fill:#8f8f8f;"/>
    <path clip-path="url(#p46f0bc4e3c)" d="M 541.9264 580.484678 
L 546.867612 584.52 
L 583.742332 584.52 
L 541.9264 550.370334 
L 521.031444 584.52 
L 539.457331 584.52 
z
" style="fill:#8f8f8f;"/>
    <path clip-path="url(#p46f0bc4e3c)" d="M 655.426788 536.156364 
L 601.1472 491.828049 
L 541.9264 491.828049 
L 539.457331 487.792727 
L 541.9264 483.757405 
L 601.1472 485.776322 
L 657.898931 439.429091 
L 655.426788 391.065455 
L 655.426788 342.701818 
L 655.426788 294.338182 
L 628.286994 245.974545 
L 655.426788 197.610909 
L 655.426788 149.247273 
L 655.426788 100.883636 
L 655.426788 52.52 
L 618.552068 52.52 
L 618.552068 100.883636 
L 618.552068 149.247273 
L 618.552068 197.610909 
L 609.849634 245.974545 
L 618.552068 294.338182 
L 618.552068 342.701818 
L 618.552068 391.065455 
L 639.473044 439.429091 
L 601.1472 470.72852 
L 541.9264 453.643061 
L 521.031444 487.792727 
L 541.9264 521.942393 
L 601.1472 521.942393 
L 618.552068 536.156364 
L 609.849634 584.52 
L 628.286994 584.52 
z
" style="fill:#8f8f8f;"/>
    <path clip-path="url(#p46f0bc4e3c)" d="M 541.9264 376.851484 
L 583.742332 342.701818 
L 583.742332 294.338182 
L 583.742332 245.974545 
L 583.742332 197.610909 
L 583.742332 149.247273 
L 541.9264 115.097607 
L 527.99354 149.247273 
L 527.99354 197.610909 
L 527.99354 245.974545 
L 527.99354 294.338182 
L 527.99354 342.701818 
z
M 540.280013 342.701818 
L 540.280013 294.338182 
L 540.280013 245.974545 
L 540.280013 197.610909 
L 540.280013 149.247273 
L 541.9264 145.211951 
L 546.867612 149.247273 
L 546.867612 197.610909 
L 546.867612 245.974545 
L 546.867612 294.338182 
L 546.867612 342.701818 
L 541.9264 346.73714 
z
" style="fill:#8f8f8f;"/>
    <path clip-path="url(#p46f0bc4e3c)" d="M 423.4848 73.141905 
L 457.149736 52.52 
L 444.863263 52.52 
L 423.4848 65.615663 
L 414.323688 52.52 
L 409.058681 52.52 
z
" style="fill:#8f8f8f;"/>
    <path clip-path="url(#p46f0bc4e3c)" d="M 541.9264 86.669666 
L 583.742332 52.52 
L 546.867612 52.52 
L 541.9264 56.555322 
L 539.457331 52.52 
L 521.031444 52.52 
z
" style="fill:#8f8f8f;"/>
   </g>
   <g id="PathCollection_12">
    <path clip-path="url(#p46f0bc4e3c)" d="M 186.6016 584.52 
L 206.047236 584.52 
L 186.6016 568.639403 
L 179.968281 536.156364 
L 186.6016 503.673324 
L 245.8224 503.673324 
L 265.268036 487.792727 
L 245.8224 471.91213 
L 186.6016 471.91213 
L 178.640626 439.429091 
L 179.968281 391.065455 
L 186.6016 358.582415 
L 206.047236 342.701818 
L 245.8224 310.218779 
L 265.268036 294.338182 
L 265.268036 245.974545 
L 265.268036 197.610909 
L 265.268036 149.247273 
L 245.8224 133.366676 
L 206.047236 100.883636 
L 206.262021 52.52 
L 197.049078 52.52 
L 186.6016 86.669666 
L 183.12236 100.883636 
L 183.12236 149.247273 
L 183.12236 197.610909 
L 183.12236 245.974545 
L 183.12236 294.338182 
L 183.12236 342.701818 
L 173.826319 391.065455 
L 171.269354 439.429091 
L 177.899166 487.792727 
L 173.826319 536.156364 
L 183.12236 584.52 
z
" style="fill:#818181;"/>
    <path clip-path="url(#p46f0bc4e3c)" d="M 364.264 584.52 
L 373.992868 584.52 
L 364.264 568.639403 
L 344.818364 584.52 
z
" style="fill:#818181;"/>
    <path clip-path="url(#p46f0bc4e3c)" d="M 541.9264 550.370334 
L 583.742332 584.52 
L 601.1472 584.52 
L 609.849634 584.52 
L 618.552068 536.156364 
L 601.1472 521.942393 
L 541.9264 521.942393 
L 521.031444 487.792727 
L 541.9264 453.643061 
L 601.1472 470.72852 
L 639.473044 439.429091 
L 618.552068 391.065455 
L 618.552068 342.701818 
L 618.552068 294.338182 
L 609.849634 245.974545 
L 618.552068 197.610909 
L 618.552068 149.247273 
L 618.552068 100.883636 
L 618.552068 52.52 
L 601.1472 52.52 
L 583.742332 52.52 
L 541.9264 86.669666 
L 521.031444 52.52 
L 502.605558 52.52 
L 532.197532 100.883636 
L 515.707067 149.247273 
L 515.707067 197.610909 
L 515.707067 245.974545 
L 515.707067 294.338182 
L 515.707067 342.701818 
L 532.197532 391.065455 
L 535.441833 439.429091 
L 502.605558 487.792727 
L 532.197532 536.156364 
L 502.605558 584.52 
L 521.031444 584.52 
z
M 561.372036 439.429091 
L 601.1472 406.946052 
L 621.047158 439.429091 
L 601.1472 455.680717 
z
M 527.99354 342.701818 
L 527.99354 294.338182 
L 527.99354 245.974545 
L 527.99354 197.610909 
L 527.99354 149.247273 
L 541.9264 115.097607 
L 583.742332 149.247273 
L 583.742332 197.610909 
L 583.742332 245.974545 
L 583.742332 294.338182 
L 583.742332 342.701818 
L 541.9264 376.851484 
z
" style="fill:#818181;"/>
    <path clip-path="url(#p46f0bc4e3c)" d="M 364.264 503.673324 
L 383.709636 487.792727 
L 364.264 471.91213 
L 344.818364 487.792727 
z
" style="fill:#818181;"/>
    <path clip-path="url(#p46f0bc4e3c)" d="M 305.0432 68.400597 
L 308.934263 52.52 
L 305.0432 52.52 
L 298.558633 52.52 
z
" style="fill:#818181;"/>
    <path clip-path="url(#p46f0bc4e3c)" d="M 423.4848 80.668148 
L 469.436209 52.52 
L 457.149736 52.52 
L 423.4848 73.141905 
L 409.058681 52.52 
L 403.793673 52.52 
z
" style="fill:#818181;"/>
   </g>
   <g id="PathCollection_13">
    <path clip-path="url(#p46f0bc4e3c)" d="M 186.6016 568.639403 
L 206.047236 584.52 
L 242.876092 584.52 
L 186.6016 538.562515 
L 186.110243 536.156364 
L 186.6016 533.750213 
L 245.8224 533.750213 
L 302.096892 487.792727 
L 245.8224 441.835242 
L 186.6016 441.835242 
L 186.011898 439.429091 
L 186.110243 391.065455 
L 186.6016 388.659303 
L 242.876092 342.701818 
L 245.8224 340.295667 
L 302.096892 294.338182 
L 302.096892 245.974545 
L 302.096892 197.610909 
L 302.096892 149.247273 
L 245.8224 103.289787 
L 242.876092 100.883636 
L 215.474965 52.52 
L 206.262021 52.52 
L 206.047236 100.883636 
L 245.8224 133.366676 
L 265.268036 149.247273 
L 265.268036 197.610909 
L 265.268036 245.974545 
L 265.268036 294.338182 
L 245.8224 310.218779 
L 206.047236 342.701818 
L 186.6016 358.582415 
L 179.968281 391.065455 
L 178.640626 439.429091 
L 186.6016 471.91213 
L 245.8224 471.91213 
L 265.268036 487.792727 
L 245.8224 503.673324 
L 186.6016 503.673324 
L 179.968281 536.156364 
z
" style="fill:#737373;"/>
    <path clip-path="url(#p46f0bc4e3c)" d="M 364.264 568.639403 
L 373.992868 584.52 
L 392.418755 584.52 
L 364.264 538.562515 
L 307.989508 584.52 
L 344.818364 584.52 
z
" style="fill:#737373;"/>
    <path clip-path="url(#p46f0bc4e3c)" d="M 532.197532 536.156364 
L 502.605558 487.792727 
L 535.441833 439.429091 
L 532.197532 391.065455 
L 515.707067 342.701818 
L 515.707067 294.338182 
L 515.707067 245.974545 
L 515.707067 197.610909 
L 515.707067 149.247273 
L 532.197532 100.883636 
L 502.605558 52.52 
L 484.179671 52.52 
L 513.771645 100.883636 
L 503.420594 149.247273 
L 503.420594 197.610909 
L 503.420594 245.974545 
L 503.420594 294.338182 
L 503.420594 342.701818 
L 513.771645 391.065455 
L 523.160456 439.429091 
L 484.179671 487.792727 
L 513.771645 536.156364 
L 484.179671 584.52 
L 502.605558 584.52 
z
" style="fill:#737373;"/>
    <path clip-path="url(#p46f0bc4e3c)" d="M 364.264 533.750213 
L 420.538492 487.792727 
L 364.264 441.835242 
L 307.989508 487.792727 
z
M 344.818364 487.792727 
L 364.264 471.91213 
L 383.709636 487.792727 
L 364.264 503.673324 
z
" style="fill:#737373;"/>
    <path clip-path="url(#p46f0bc4e3c)" d="M 601.1472 455.680717 
L 621.047158 439.429091 
L 601.1472 406.946052 
L 561.372036 439.429091 
z
M 598.200892 439.429091 
L 601.1472 437.02294 
L 602.621271 439.429091 
L 601.1472 440.632915 
z
" style="fill:#737373;"/>
    <path clip-path="url(#p46f0bc4e3c)" d="M 305.0432 98.477485 
L 316.303701 52.52 
L 308.934263 52.52 
L 305.0432 68.400597 
L 298.558633 52.52 
L 286.277256 52.52 
z
" style="fill:#737373;"/>
    <path clip-path="url(#p46f0bc4e3c)" d="M 423.4848 88.194391 
L 481.722682 52.52 
L 469.436209 52.52 
L 423.4848 80.668148 
L 403.793673 52.52 
L 398.528666 52.52 
z
" style="fill:#737373;"/>
   </g>
   <g id="PathCollection_14">
    <path clip-path="url(#p46f0bc4e3c)" d="M 186.6016 538.562515 
L 242.876092 584.52 
L 245.8224 584.52 
L 305.0432 584.52 
L 307.989508 584.52 
L 364.264 538.562515 
L 392.418755 584.52 
L 410.844642 584.52 
L 398.188742 536.156364 
L 423.4848 515.497924 
L 482.7056 515.497924 
L 495.345758 536.156364 
L 482.7056 556.814804 
L 448.780858 584.52 
L 482.7056 584.52 
L 484.179671 584.52 
L 513.771645 536.156364 
L 484.179671 487.792727 
L 523.160456 439.429091 
L 513.771645 391.065455 
L 503.420594 342.701818 
L 503.420594 294.338182 
L 503.420594 245.974545 
L 503.420594 197.610909 
L 503.420594 149.247273 
L 513.771645 100.883636 
L 484.179671 52.52 
L 482.7056 52.52 
L 481.722682 52.52 
L 423.4848 88.194391 
L 398.528666 52.52 
L 393.263659 52.52 
L 364.264 93.961647 
L 323.673138 52.52 
L 316.303701 52.52 
L 305.0432 98.477485 
L 286.277256 52.52 
L 273.995879 52.52 
L 245.8224 87.039658 
L 224.687908 52.52 
L 215.474965 52.52 
L 242.876092 100.883636 
L 245.8224 103.289787 
L 302.096892 149.247273 
L 302.096892 197.610909 
L 302.096892 245.974545 
L 302.096892 294.338182 
L 245.8224 340.295667 
L 242.876092 342.701818 
L 186.6016 388.659303 
L 186.110243 391.065455 
L 186.011898 439.429091 
L 186.6016 441.835242 
L 245.8224 441.835242 
L 302.096892 487.792727 
L 245.8224 533.750213 
L 186.6016 533.750213 
L 186.110243 536.156364 
z
M 279.747142 536.156364 
L 305.0432 515.497924 
L 330.339258 536.156364 
L 305.0432 556.814804 
z
M 307.989508 487.792727 
L 364.264 441.835242 
L 420.538492 487.792727 
L 364.264 533.750213 
z
M 279.747142 439.429091 
L 305.0432 418.770651 
L 330.339258 439.429091 
L 305.0432 460.087531 
z
M 398.188742 439.429091 
L 398.188742 391.065455 
L 398.188742 342.701818 
L 398.188742 294.338182 
L 423.4848 273.679742 
L 457.409542 245.974545 
L 423.4848 218.269349 
L 398.188742 197.610909 
L 398.188742 149.247273 
L 398.188742 100.883636 
L 423.4848 95.720634 
L 482.7056 80.225196 
L 495.345758 100.883636 
L 491.13412 149.247273 
L 491.13412 197.610909 
L 491.13412 245.974545 
L 491.13412 294.338182 
L 491.13412 342.701818 
L 495.345758 391.065455 
L 510.879079 439.429091 
L 482.7056 473.948749 
L 423.4848 460.087531 
z
" style="fill:#666666;"/>
    <path clip-path="url(#p46f0bc4e3c)" d="M 601.1472 440.632915 
L 602.621271 439.429091 
L 601.1472 437.02294 
L 598.200892 439.429091 
z
" style="fill:#666666;"/>
   </g>
   <g id="PathCollection_15">
    <path clip-path="url(#p46f0bc4e3c)" d="M 305.0432 556.814804 
L 330.339258 536.156364 
L 305.0432 515.497924 
L 279.747142 536.156364 
z
" style="fill:#585858;"/>
    <path clip-path="url(#p46f0bc4e3c)" d="M 423.4848 584.52 
L 448.780858 584.52 
L 482.7056 556.814804 
L 495.345758 536.156364 
L 482.7056 515.497924 
L 423.4848 515.497924 
L 398.188742 536.156364 
L 410.844642 584.52 
z
" style="fill:#585858;"/>
    <path clip-path="url(#p46f0bc4e3c)" d="M 305.0432 460.087531 
L 330.339258 439.429091 
L 305.0432 418.770651 
L 279.747142 439.429091 
z
" style="fill:#585858;"/>
    <path clip-path="url(#p46f0bc4e3c)" d="M 423.4848 460.087531 
L 482.7056 473.948749 
L 510.879079 439.429091 
L 495.345758 391.065455 
L 491.13412 342.701818 
L 491.13412 294.338182 
L 491.13412 245.974545 
L 491.13412 197.610909 
L 491.13412 149.247273 
L 495.345758 100.883636 
L 482.7056 80.225196 
L 423.4848 95.720634 
L 398.188742 100.883636 
L 398.188742 149.247273 
L 398.188742 197.610909 
L 423.4848 218.269349 
L 457.409542 245.974545 
L 423.4848 273.679742 
L 398.188742 294.338182 
L 398.188742 342.701818 
L 398.188742 391.065455 
L 398.188742 439.429091 
z
M 435.049061 439.429091 
L 482.7056 400.509597 
L 498.597702 439.429091 
L 482.7056 458.900947 
z
" style="fill:#585858;"/>
    <path clip-path="url(#p46f0bc4e3c)" d="M 245.8224 87.039658 
L 273.995879 52.52 
L 261.714502 52.52 
L 245.8224 71.991856 
L 233.900851 52.52 
L 224.687908 52.52 
z
" style="fill:#585858;"/>
    <path clip-path="url(#p46f0bc4e3c)" d="M 364.264 93.961647 
L 393.263659 52.52 
L 387.998652 52.52 
L 364.264 86.437746 
L 331.042576 52.52 
L 323.673138 52.52 
z
" style="fill:#585858;"/>
   </g>
   <g id="PathCollection_16">
    <path clip-path="url(#p46f0bc4e3c)" d="M 482.7056 458.900947 
L 498.597702 439.429091 
L 482.7056 400.509597 
L 435.049061 439.429091 
z
M 471.877916 439.429091 
L 482.7056 430.586486 
L 486.316325 439.429091 
L 482.7056 443.853145 
z
" style="fill:#484848;"/>
    <path clip-path="url(#p46f0bc4e3c)" d="M 245.8224 71.991856 
L 261.714502 52.52 
L 249.433125 52.52 
L 245.8224 56.944054 
L 243.113795 52.52 
L 233.900851 52.52 
z
" style="fill:#484848;"/>
    <path clip-path="url(#p46f0bc4e3c)" d="M 364.264 86.437746 
L 387.998652 52.52 
L 382.733645 52.52 
L 364.264 78.913845 
L 338.412013 52.52 
L 331.042576 52.52 
z
" style="fill:#484848;"/>
   </g>
   <g id="PathCollection_17">
    <path clip-path="url(#p46f0bc4e3c)" d="M 482.7056 443.853145 
L 486.316325 439.429091 
L 482.7056 430.586486 
L 471.877916 439.429091 
z
" style="fill:#363636;"/>
    <path clip-path="url(#p46f0bc4e3c)" d="M 245.8224 56.944054 
L 249.433125 52.52 
L 245.8224 52.52 
L 243.113795 52.52 
z
" style="fill:#363636;"/>
    <path clip-path="url(#p46f0bc4e3c)" d="M 364.264 78.913845 
L 382.733645 52.52 
L 377.468638 52.52 
L 364.264 71.389944 
L 345.781451 52.52 
L 338.412013 52.52 
z
" style="fill:#363636;"/>
   </g>
   <g id="PathCollection_18">
    <path clip-path="url(#p46f0bc4e3c)" d="M 364.264 71.389944 
L 377.468638 52.52 
L 372.203631 52.52 
L 364.264 63.866043 
L 353.150888 52.52 
L 345.781451 52.52 
z
" style="fill:#252525;"/>
   </g>
   <g id="PathCollection_19">
    <path clip-path="url(#p46f0bc4e3c)" d="M 364.264 63.866043 
L 372.203631 52.52 
L 366.938624 52.52 
L 364.264 56.342142 
L 360.520326 52.52 
L 353.150888 52.52 
z
" style="fill:#161616;"/>
   </g>
   <g id="PathCollection_20">
    <path clip-path="url(#p46f0bc4e3c)" d="M 364.264 56.342142 
L 366.938624 52.52 
L 364.264 52.52 
L 360.520326 52.52 
z
" style="fill:#070707;"/>
   </g>
   <g id="matplotlib.axis_1">
    <g id="xtick_1">
     <g id="line2d_1">
      <defs>
       <path d="M 0 0 
L 0 3.5 
" id="m99b5acc24a" style="stroke:#000000;stroke-width:0.8;"/>
      </defs>
      <g>
       <use style="stroke:#000000;stroke-width:0.8;" x="148.098355" xlink:href="#m99b5acc24a" y="584.52"/>
      </g>
     </g>
     <g id="text_1">
      <!-- 500 -->
      <defs>
       <path d="M 50.296875 72.90625 
L 50.296875 64.890625 
L 16.890625 64.890625 
L 16.890625 44 
Q 19.4375 45.75 22.828125 46.625 
Q 26.21875 47.515625 30.421875 47.515625 
Q 42.234375 47.515625 49.0625 40.96875 
Q 55.90625 34.421875 55.90625 23.09375 
Q 55.90625 11.53125 49 5.046875 
Q 42.09375 -1.421875 29.59375 -1.421875 
Q 24.5625 -1.421875 19.28125 -0.1875 
Q 14.015625 1.03125 8.5 3.515625 
L 8.5 17.671875 
L 14.015625 17.671875 
Q 14.453125 10.75 18.421875 7.078125 
Q 22.40625 3.421875 29.59375 3.421875 
Q 37.3125 3.421875 41.453125 8.5 
Q 45.609375 13.578125 45.609375 23.09375 
Q 45.609375 32.5625 41.484375 37.609375 
Q 37.359375 42.671875 29.59375 42.671875 
Q 25.203125 42.671875 21.84375 41.109375 
Q 18.5 39.546875 15.921875 36.28125 
L 11.71875 36.28125 
L 11.71875 72.90625 
z
" id="DejaVuSerif-35"/>
       <path d="M 31.78125 3.421875 
Q 39.265625 3.421875 42.96875 11.625 
Q 46.6875 19.828125 46.6875 36.375 
Q 46.6875 52.984375 42.96875 61.1875 
Q 39.265625 69.390625 31.78125 69.390625 
Q 24.3125 69.390625 20.59375 61.1875 
Q 16.890625 52.984375 16.890625 36.375 
Q 16.890625 19.828125 20.59375 11.625 
Q 24.3125 3.421875 31.78125 3.421875 
z
M 31.78125 -1.421875 
Q 19.921875 -1.421875 13.25 8.53125 
Q 6.59375 18.5 6.59375 36.375 
Q 6.59375 54.296875 13.25 64.25 
Q 19.921875 74.21875 31.78125 74.21875 
Q 43.703125 74.21875 50.34375 64.25 
Q 56.984375 54.296875 56.984375 36.375 
Q 56.984375 18.5 50.34375 8.53125 
Q 43.703125 -1.421875 31.78125 -1.421875 
z
" id="DejaVuSerif-30"/>
      </defs>
      <g transform="translate(141.474992 596.793316)scale(0.0694 -0.0694)">
       <use xlink:href="#DejaVuSerif-35"/>
       <use x="63.623047" xlink:href="#DejaVuSerif-30"/>
       <use x="127.246094" xlink:href="#DejaVuSerif-30"/>
      </g>
     </g>
    </g>
    <g id="xtick_2">
     <g id="line2d_2">
      <g>
       <use style="stroke:#000000;stroke-width:0.8;" x="235.150985" xlink:href="#m99b5acc24a" y="584.52"/>
      </g>
     </g>
     <g id="text_2">
      <!-- 600 -->
      <defs>
       <path d="M 32.71875 3.421875 
Q 39.59375 3.421875 43.296875 8.46875 
Q 47.015625 13.53125 47.015625 23 
Q 47.015625 32.46875 43.296875 37.515625 
Q 39.59375 42.578125 32.71875 42.578125 
Q 25.734375 42.578125 22.0625 37.6875 
Q 18.40625 32.8125 18.40625 23.578125 
Q 18.40625 13.875 22.109375 8.640625 
Q 25.828125 3.421875 32.71875 3.421875 
z
M 16.796875 40.140625 
Q 20.125 43.796875 24.3125 45.59375 
Q 28.515625 47.40625 33.796875 47.40625 
Q 44.671875 47.40625 51 40.859375 
Q 57.328125 34.328125 57.328125 23 
Q 57.328125 11.921875 50.515625 5.25 
Q 43.703125 -1.421875 32.328125 -1.421875 
Q 19.96875 -1.421875 13.328125 7.78125 
Q 6.6875 17 6.6875 34.078125 
Q 6.6875 53.21875 14.546875 63.71875 
Q 22.40625 74.21875 36.71875 74.21875 
Q 40.578125 74.21875 44.828125 73.484375 
Q 49.078125 72.75 53.515625 71.296875 
L 53.515625 59.28125 
L 48 59.28125 
Q 47.40625 64.203125 44.234375 66.796875 
Q 41.0625 69.390625 35.6875 69.390625 
Q 26.21875 69.390625 21.578125 62.203125 
Q 16.9375 55.03125 16.796875 40.140625 
z
" id="DejaVuSerif-36"/>
      </defs>
      <g transform="translate(228.527623 596.793316)scale(0.0694 -0.0694)">
       <use xlink:href="#DejaVuSerif-36"/>
       <use x="63.623047" xlink:href="#DejaVuSerif-30"/>
       <use x="127.246094" xlink:href="#DejaVuSerif-30"/>
      </g>
     </g>
    </g>
    <g id="xtick_3">
     <g id="line2d_3">
      <g>
       <use style="stroke:#000000;stroke-width:0.8;" x="322.203616" xlink:href="#m99b5acc24a" y="584.52"/>
      </g>
     </g>
     <g id="text_3">
      <!-- 700 -->
      <defs>
       <path d="M 56.390625 67.921875 
L 27.875 0 
L 20.609375 0 
L 47.796875 64.890625 
L 14.109375 64.890625 
L 14.109375 55.90625 
L 8.40625 55.90625 
L 8.40625 72.90625 
L 56.390625 72.90625 
z
" id="DejaVuSerif-37"/>
      </defs>
      <g transform="translate(315.580254 596.793316)scale(0.0694 -0.0694)">
       <use xlink:href="#DejaVuSerif-37"/>
       <use x="63.623047" xlink:href="#DejaVuSerif-30"/>
       <use x="127.246094" xlink:href="#DejaVuSerif-30"/>
      </g>
     </g>
    </g>
    <g id="xtick_4">
     <g id="line2d_4">
      <g>
       <use style="stroke:#000000;stroke-width:0.8;" x="409.256247" xlink:href="#m99b5acc24a" y="584.52"/>
      </g>
     </g>
     <g id="text_4">
      <!-- 800 -->
      <defs>
       <path d="M 46.578125 19.921875 
Q 46.578125 27.734375 42.6875 32.046875 
Q 38.8125 36.375 31.78125 36.375 
Q 24.75 36.375 20.875 32.046875 
Q 17 27.734375 17 19.921875 
Q 17 12.0625 20.875 7.734375 
Q 24.75 3.421875 31.78125 3.421875 
Q 38.8125 3.421875 42.6875 7.734375 
Q 46.578125 12.0625 46.578125 19.921875 
z
M 44.578125 55.328125 
Q 44.578125 61.96875 41.203125 65.671875 
Q 37.84375 69.390625 31.78125 69.390625 
Q 25.78125 69.390625 22.390625 65.671875 
Q 19 61.96875 19 55.328125 
Q 19 48.640625 22.390625 44.921875 
Q 25.78125 41.21875 31.78125 41.21875 
Q 37.84375 41.21875 41.203125 44.921875 
Q 44.578125 48.640625 44.578125 55.328125 
z
M 39.3125 38.8125 
Q 47.609375 37.703125 52.25 32.6875 
Q 56.890625 27.6875 56.890625 19.921875 
Q 56.890625 9.671875 50.390625 4.125 
Q 43.890625 -1.421875 31.78125 -1.421875 
Q 19.734375 -1.421875 13.203125 4.125 
Q 6.6875 9.671875 6.6875 19.921875 
Q 6.6875 27.6875 11.328125 32.6875 
Q 15.96875 37.703125 24.3125 38.8125 
Q 16.9375 40.140625 13 44.40625 
Q 9.078125 48.6875 9.078125 55.328125 
Q 9.078125 64.109375 15.125 69.15625 
Q 21.1875 74.21875 31.78125 74.21875 
Q 42.390625 74.21875 48.4375 69.15625 
Q 54.5 64.109375 54.5 55.328125 
Q 54.5 48.6875 50.5625 44.40625 
Q 46.625 40.140625 39.3125 38.8125 
z
" id="DejaVuSerif-38"/>
      </defs>
      <g transform="translate(402.632885 596.793316)scale(0.0694 -0.0694)">
       <use xlink:href="#DejaVuSerif-38"/>
       <use x="63.623047" xlink:href="#DejaVuSerif-30"/>
       <use x="127.246094" xlink:href="#DejaVuSerif-30"/>
      </g>
     </g>
    </g>
    <g id="xtick_5">
     <g id="line2d_5">
      <g>
       <use style="stroke:#000000;stroke-width:0.8;" x="496.308878" xlink:href="#m99b5acc24a" y="584.52"/>
      </g>
     </g>
     <g id="text_5">
      <!-- 900 -->
      <defs>
       <path d="M 46.78125 32.671875 
Q 43.5 29 39.25 27.1875 
Q 35.015625 25.390625 29.6875 25.390625 
Q 18.84375 25.390625 12.5625 31.9375 
Q 6.296875 38.484375 6.296875 49.8125 
Q 6.296875 60.890625 13.109375 67.546875 
Q 19.921875 74.21875 31.296875 74.21875 
Q 43.65625 74.21875 50.265625 65.015625 
Q 56.890625 55.8125 56.890625 38.71875 
Q 56.890625 19.578125 49.015625 9.078125 
Q 41.15625 -1.421875 26.90625 -1.421875 
Q 23.046875 -1.421875 18.796875 -0.6875 
Q 14.546875 0.046875 10.109375 1.515625 
L 10.109375 13.625 
L 15.578125 13.625 
Q 16.21875 8.6875 19.390625 6.046875 
Q 22.5625 3.421875 27.875 3.421875 
Q 37.359375 3.421875 41.984375 10.5625 
Q 46.625 17.71875 46.78125 32.671875 
z
M 30.90625 69.390625 
Q 23.96875 69.390625 20.28125 64.328125 
Q 16.609375 59.28125 16.609375 49.8125 
Q 16.609375 40.328125 20.28125 35.25 
Q 23.96875 30.171875 30.90625 30.171875 
Q 37.84375 30.171875 41.53125 35.078125 
Q 45.21875 39.984375 45.21875 49.21875 
Q 45.21875 58.9375 41.5 64.15625 
Q 37.796875 69.390625 30.90625 69.390625 
z
" id="DejaVuSerif-39"/>
      </defs>
      <g transform="translate(489.685516 596.793316)scale(0.0694 -0.0694)">
       <use xlink:href="#DejaVuSerif-39"/>
       <use x="63.623047" xlink:href="#DejaVuSerif-30"/>
       <use x="127.246094" xlink:href="#DejaVuSerif-30"/>
      </g>
     </g>
    </g>
    <g id="xtick_6">
     <g id="line2d_6">
      <g>
       <use style="stroke:#000000;stroke-width:0.8;" x="583.361509" xlink:href="#m99b5acc24a" y="584.52"/>
      </g>
     </g>
     <g id="text_6">
      <!-- 1000 -->
      <defs>
       <path d="M 14.203125 0 
L 14.203125 5.171875 
L 26.90625 5.171875 
L 26.90625 65.828125 
L 12.203125 56.296875 
L 12.203125 62.703125 
L 29.984375 74.21875 
L 36.71875 74.21875 
L 36.71875 5.171875 
L 49.421875 5.171875 
L 49.421875 0 
z
" id="DejaVuSerif-31"/>
      </defs>
      <g transform="translate(574.530359 596.793316)scale(0.0694 -0.0694)">
       <use xlink:href="#DejaVuSerif-31"/>
       <use x="63.623047" xlink:href="#DejaVuSerif-30"/>
       <use x="127.246094" xlink:href="#DejaVuSerif-30"/>
       <use x="190.869141" xlink:href="#DejaVuSerif-30"/>
      </g>
     </g>
    </g>
   </g>
   <g id="matplotlib.axis_2">
    <g id="ytick_1">
     <g id="line2d_7">
      <defs>
       <path d="M 0 0 
L -3.5 0 
" id="m902ddaa670" style="stroke:#000000;stroke-width:0.8;"/>
      </defs>
      <g>
       <use style="stroke:#000000;stroke-width:0.8;" x="68.16" xlink:href="#m902ddaa670" y="539.793309"/>
      </g>
     </g>
     <g id="text_7">
      <!-- 800 -->
      <g transform="translate(47.913275 542.429967)scale(0.0694 -0.0694)">
       <use xlink:href="#DejaVuSerif-38"/>
       <use x="63.623047" xlink:href="#DejaVuSerif-30"/>
       <use x="127.246094" xlink:href="#DejaVuSerif-30"/>
      </g>
     </g>
    </g>
    <g id="ytick_2">
     <g id="line2d_8">
      <g>
       <use style="stroke:#000000;stroke-width:0.8;" x="68.16" xlink:href="#m902ddaa670" y="468.157091"/>
      </g>
     </g>
     <g id="text_8">
      <!-- 1000 -->
      <g transform="translate(43.4977 470.793749)scale(0.0694 -0.0694)">
       <use xlink:href="#DejaVuSerif-31"/>
       <use x="63.623047" xlink:href="#DejaVuSerif-30"/>
       <use x="127.246094" xlink:href="#DejaVuSerif-30"/>
       <use x="190.869141" xlink:href="#DejaVuSerif-30"/>
      </g>
     </g>
    </g>
    <g id="ytick_3">
     <g id="line2d_9">
      <g>
       <use style="stroke:#000000;stroke-width:0.8;" x="68.16" xlink:href="#m902ddaa670" y="396.520873"/>
      </g>
     </g>
     <g id="text_9">
      <!-- 1200 -->
      <defs>
       <path d="M 12.796875 55.515625 
L 7.328125 55.515625 
L 7.328125 68.5 
Q 12.546875 71.296875 17.84375 72.75 
Q 23.140625 74.21875 28.21875 74.21875 
Q 39.59375 74.21875 46.1875 68.703125 
Q 52.78125 63.1875 52.78125 53.71875 
Q 52.78125 43.015625 37.84375 28.125 
Q 36.671875 27 36.078125 26.421875 
L 17.671875 8.015625 
L 48.09375 8.015625 
L 48.09375 17 
L 53.8125 17 
L 53.8125 0 
L 6.78125 0 
L 6.78125 5.328125 
L 28.90625 27.390625 
Q 36.234375 34.71875 39.359375 40.84375 
Q 42.484375 46.96875 42.484375 53.71875 
Q 42.484375 61.078125 38.640625 65.234375 
Q 34.8125 69.390625 28.078125 69.390625 
Q 21.09375 69.390625 17.28125 65.921875 
Q 13.484375 62.453125 12.796875 55.515625 
z
" id="DejaVuSerif-32"/>
      </defs>
      <g transform="translate(43.4977 399.157531)scale(0.0694 -0.0694)">
       <use xlink:href="#DejaVuSerif-31"/>
       <use x="63.623047" xlink:href="#DejaVuSerif-32"/>
       <use x="127.246094" xlink:href="#DejaVuSerif-30"/>
       <use x="190.869141" xlink:href="#DejaVuSerif-30"/>
      </g>
     </g>
    </g>
    <g id="ytick_4">
     <g id="line2d_10">
      <g>
       <use style="stroke:#000000;stroke-width:0.8;" x="68.16" xlink:href="#m902ddaa670" y="324.884655"/>
      </g>
     </g>
     <g id="text_10">
      <!-- 1400 -->
      <defs>
       <path d="M 34.90625 24.703125 
L 34.90625 63.484375 
L 10.015625 24.703125 
z
M 56.390625 0 
L 23.1875 0 
L 23.1875 5.171875 
L 34.90625 5.171875 
L 34.90625 19.484375 
L 3.078125 19.484375 
L 3.078125 24.8125 
L 35.015625 74.21875 
L 44.671875 74.21875 
L 44.671875 24.703125 
L 58.59375 24.703125 
L 58.59375 19.484375 
L 44.671875 19.484375 
L 44.671875 5.171875 
L 56.390625 5.171875 
z
" id="DejaVuSerif-34"/>
      </defs>
      <g transform="translate(43.4977 327.521312)scale(0.0694 -0.0694)">
       <use xlink:href="#DejaVuSerif-31"/>
       <use x="63.623047" xlink:href="#DejaVuSerif-34"/>
       <use x="127.246094" xlink:href="#DejaVuSerif-30"/>
       <use x="190.869141" xlink:href="#DejaVuSerif-30"/>
      </g>
     </g>
    </g>
    <g id="ytick_5">
     <g id="line2d_11">
      <g>
       <use style="stroke:#000000;stroke-width:0.8;" x="68.16" xlink:href="#m902ddaa670" y="253.248436"/>
      </g>
     </g>
     <g id="text_11">
      <!-- 1600 -->
      <g transform="translate(43.4977 255.885094)scale(0.0694 -0.0694)">
       <use xlink:href="#DejaVuSerif-31"/>
       <use x="63.623047" xlink:href="#DejaVuSerif-36"/>
       <use x="127.246094" xlink:href="#DejaVuSerif-30"/>
       <use x="190.869141" xlink:href="#DejaVuSerif-30"/>
      </g>
     </g>
    </g>
    <g id="ytick_6">
     <g id="line2d_12">
      <g>
       <use style="stroke:#000000;stroke-width:0.8;" x="68.16" xlink:href="#m902ddaa670" y="181.612218"/>
      </g>
     </g>
     <g id="text_12">
      <!-- 1800 -->
      <g transform="translate(43.4977 184.248876)scale(0.0694 -0.0694)">
       <use xlink:href="#DejaVuSerif-31"/>
       <use x="63.623047" xlink:href="#DejaVuSerif-38"/>
       <use x="127.246094" xlink:href="#DejaVuSerif-30"/>
       <use x="190.869141" xlink:href="#DejaVuSerif-30"/>
      </g>
     </g>
    </g>
    <g id="ytick_7">
     <g id="line2d_13">
      <g>
       <use style="stroke:#000000;stroke-width:0.8;" x="68.16" xlink:href="#m902ddaa670" y="109.976"/>
      </g>
     </g>
     <g id="text_13">
      <!-- 2000 -->
      <g transform="translate(43.4977 112.612658)scale(0.0694 -0.0694)">
       <use xlink:href="#DejaVuSerif-32"/>
       <use x="63.623047" xlink:href="#DejaVuSerif-30"/>
       <use x="127.246094" xlink:href="#DejaVuSerif-30"/>
       <use x="190.869141" xlink:href="#DejaVuSerif-30"/>
      </g>
     </g>
    </g>
   </g>
   <g id="patch_3">
    <path d="M 68.16 584.52 
L 68.16 52.52 
" style="fill:none;stroke:#000000;stroke-linecap:square;stroke-linejoin:miter;stroke-width:0.8;"/>
   </g>
   <g id="patch_4">
    <path d="M 660.368 584.52 
L 660.368 52.52 
" style="fill:none;stroke:#000000;stroke-linecap:square;stroke-linejoin:miter;stroke-width:0.8;"/>
   </g>
   <g id="patch_5">
    <path d="M 68.16 584.52 
L 660.368 584.52 
" style="fill:none;stroke:#000000;stroke-linecap:square;stroke-linejoin:miter;stroke-width:0.8;"/>
   </g>
   <g id="patch_6">
    <path d="M 68.16 52.52 
L 660.368 52.52 
" style="fill:none;stroke:#000000;stroke-linecap:square;stroke-linejoin:miter;stroke-width:0.8;"/>
   </g>
  </g>
  <g id="axes_2">
   <g id="patch_7">
    <path clip-path="url(#p13b396eb5b)" d="M 697.381 584.52 
L 697.381 557.92 
L 697.381 79.12 
L 697.381 52.52 
L 723.981 52.52 
L 723.981 79.12 
L 723.981 557.92 
L 723.981 584.52 
z
" style="fill:#ffffff;stroke:#ffffff;stroke-linejoin:miter;stroke-width:0.01;"/>
   </g>
   <g id="QuadMesh_1">
    <path clip-path="url(#p13b396eb5b)" d="M 697.381 584.52 
L 723.981 584.52 
L 723.981 557.92 
L 697.381 557.92 
L 697.381 584.52 
" style="fill:#fcfcfc;"/>
    <path clip-path="url(#p13b396eb5b)" d="M 697.381 557.92 
L 723.981 557.92 
L 723.981 531.32 
L 697.381 531.32 
L 697.381 557.92 
" style="fill:#f6f6f6;"/>
    <path clip-path="url(#p13b396eb5b)" d="M 697.381 531.32 
L 723.981 531.32 
L 723.981 504.72 
L 697.381 504.72 
L 697.381 531.32 
" style="fill:#f0f0f0;"/>
    <path clip-path="url(#p13b396eb5b)" d="M 697.381 504.72 
L 723.981 504.72 
L 723.981 478.12 
L 697.381 478.12 
L 697.381 504.72 
" style="fill:#e7e7e7;"/>
    <path clip-path="url(#p13b396eb5b)" d="M 697.381 478.12 
L 723.981 478.12 
L 723.981 451.52 
L 697.381 451.52 
L 697.381 478.12 
" style="fill:#dedede;"/>
    <path clip-path="url(#p13b396eb5b)" d="M 697.381 451.52 
L 723.981 451.52 
L 723.981 424.92 
L 697.381 424.92 
L 697.381 451.52 
" style="fill:#d4d4d4;"/>
    <path clip-path="url(#p13b396eb5b)" d="M 697.381 424.92 
L 723.981 424.92 
L 723.981 398.32 
L 697.381 398.32 
L 697.381 424.92 
" style="fill:#c8c8c8;"/>
    <path clip-path="url(#p13b396eb5b)" d="M 697.381 398.32 
L 723.981 398.32 
L 723.981 371.72 
L 697.381 371.72 
L 697.381 398.32 
" style="fill:#bdbdbd;"/>
    <path clip-path="url(#p13b396eb5b)" d="M 697.381 371.72 
L 723.981 371.72 
L 723.981 345.12 
L 697.381 345.12 
L 697.381 371.72 
" style="fill:#aeaeae;"/>
    <path clip-path="url(#p13b396eb5b)" d="M 697.381 345.12 
L 723.981 345.12 
L 723.981 318.52 
L 697.381 318.52 
L 697.381 345.12 
" style="fill:#9e9e9e;"/>
    <path clip-path="url(#p13b396eb5b)" d="M 697.381 318.52 
L 723.981 318.52 
L 723.981 291.92 
L 697.381 291.92 
L 697.381 318.52 
" style="fill:#8f8f8f;"/>
    <path clip-path="url(#p13b396eb5b)" d="M 697.381 291.92 
L 723.981 291.92 
L 723.981 265.32 
L 697.381 265.32 
L 697.381 291.92 
" style="fill:#818181;"/>
    <path clip-path="url(#p13b396eb5b)" d="M 697.381 265.32 
L 723.981 265.32 
L 723.981 238.72 
L 697.381 238.72 
L 697.381 265.32 
" style="fill:#737373;"/>
    <path clip-path="url(#p13b396eb5b)" d="M 697.381 238.72 
L 723.981 238.72 
L 723.981 212.12 
L 697.381 212.12 
L 697.381 238.72 
" style="fill:#666666;"/>
    <path clip-path="url(#p13b396eb5b)" d="M 697.381 212.12 
L 723.981 212.12 
L 723.981 185.52 
L 697.381 185.52 
L 697.381 212.12 
" style="fill:#585858;"/>
    <path clip-path="url(#p13b396eb5b)" d="M 697.381 185.52 
L 723.981 185.52 
L 723.981 158.92 
L 697.381 158.92 
L 697.381 185.52 
" style="fill:#484848;"/>
    <path clip-path="url(#p13b396eb5b)" d="M 697.381 158.92 
L 723.981 158.92 
L 723.981 132.32 
L 697.381 132.32 
L 697.381 158.92 
" style="fill:#363636;"/>
    <path clip-path="url(#p13b396eb5b)" d="M 697.381 132.32 
L 723.981 132.32 
L 723.981 105.72 
L 697.381 105.72 
L 697.381 132.32 
" style="fill:#252525;"/>
    <path clip-path="url(#p13b396eb5b)" d="M 697.381 105.72 
L 723.981 105.72 
L 723.981 79.12 
L 697.381 79.12 
L 697.381 105.72 
" style="fill:#161616;"/>
    <path clip-path="url(#p13b396eb5b)" d="M 697.381 79.12 
L 723.981 79.12 
L 723.981 52.52 
L 697.381 52.52 
L 697.381 79.12 
" style="fill:#070707;"/>
   </g>
   <g id="matplotlib.axis_3"/>
   <g id="matplotlib.axis_4">
    <g id="ytick_8">
     <g id="line2d_14">
      <defs>
       <path d="M 0 0 
L 3.5 0 
" id="md26a8dd944" style="stroke:#000000;stroke-width:0.8;"/>
      </defs>
      <g>
       <use style="stroke:#000000;stroke-width:0.8;" x="723.981" xlink:href="#md26a8dd944" y="584.52"/>
      </g>
     </g>
     <g id="text_14">
      <!-- 0.0021965 -->
      <defs>
       <path d="M 9.421875 5.078125 
Q 9.421875 7.8125 11.28125 9.71875 
Q 13.140625 11.625 15.921875 11.625 
Q 18.609375 11.625 20.5 9.71875 
Q 22.40625 7.8125 22.40625 5.078125 
Q 22.40625 2.390625 20.5 0.484375 
Q 18.609375 -1.421875 15.921875 -1.421875 
Q 13.140625 -1.421875 11.28125 0.453125 
Q 9.421875 2.34375 9.421875 5.078125 
z
" id="DejaVuSerif-2e"/>
      </defs>
      <g transform="translate(730.981 587.156658)scale(0.0694 -0.0694)">
       <use xlink:href="#DejaVuSerif-30"/>
       <use x="63.623047" xlink:href="#DejaVuSerif-2e"/>
       <use x="95.410156" xlink:href="#DejaVuSerif-30"/>
       <use x="159.033203" xlink:href="#DejaVuSerif-30"/>
       <use x="222.65625" xlink:href="#DejaVuSerif-32"/>
       <use x="286.279297" xlink:href="#DejaVuSerif-31"/>
       <use x="349.902344" xlink:href="#DejaVuSerif-39"/>
       <use x="413.525391" xlink:href="#DejaVuSerif-36"/>
       <use x="477.148438" xlink:href="#DejaVuSerif-35"/>
      </g>
     </g>
    </g>
    <g id="ytick_9">
     <g id="line2d_15">
      <g>
       <use style="stroke:#000000;stroke-width:0.8;" x="723.981" xlink:href="#md26a8dd944" y="504.72"/>
      </g>
     </g>
     <g id="text_15">
      <!-- 0.0021980 -->
      <g transform="translate(730.981 507.356658)scale(0.0694 -0.0694)">
       <use xlink:href="#DejaVuSerif-30"/>
       <use x="63.623047" xlink:href="#DejaVuSerif-2e"/>
       <use x="95.410156" xlink:href="#DejaVuSerif-30"/>
       <use x="159.033203" xlink:href="#DejaVuSerif-30"/>
       <use x="222.65625" xlink:href="#DejaVuSerif-32"/>
       <use x="286.279297" xlink:href="#DejaVuSerif-31"/>
       <use x="349.902344" xlink:href="#DejaVuSerif-39"/>
       <use x="413.525391" xlink:href="#DejaVuSerif-38"/>
       <use x="477.148438" xlink:href="#DejaVuSerif-30"/>
      </g>
     </g>
    </g>
    <g id="ytick_10">
     <g id="line2d_16">
      <g>
       <use style="stroke:#000000;stroke-width:0.8;" x="723.981" xlink:href="#md26a8dd944" y="424.92"/>
      </g>
     </g>
     <g id="text_16">
      <!-- 0.0021995 -->
      <g transform="translate(730.981 427.556658)scale(0.0694 -0.0694)">
       <use xlink:href="#DejaVuSerif-30"/>
       <use x="63.623047" xlink:href="#DejaVuSerif-2e"/>
       <use x="95.410156" xlink:href="#DejaVuSerif-30"/>
       <use x="159.033203" xlink:href="#DejaVuSerif-30"/>
       <use x="222.65625" xlink:href="#DejaVuSerif-32"/>
       <use x="286.279297" xlink:href="#DejaVuSerif-31"/>
       <use x="349.902344" xlink:href="#DejaVuSerif-39"/>
       <use x="413.525391" xlink:href="#DejaVuSerif-39"/>
       <use x="477.148438" xlink:href="#DejaVuSerif-35"/>
      </g>
     </g>
    </g>
    <g id="ytick_11">
     <g id="line2d_17">
      <g>
       <use style="stroke:#000000;stroke-width:0.8;" x="723.981" xlink:href="#md26a8dd944" y="345.12"/>
      </g>
     </g>
     <g id="text_17">
      <!-- 0.0022010 -->
      <g transform="translate(730.981 347.756658)scale(0.0694 -0.0694)">
       <use xlink:href="#DejaVuSerif-30"/>
       <use x="63.623047" xlink:href="#DejaVuSerif-2e"/>
       <use x="95.410156" xlink:href="#DejaVuSerif-30"/>
       <use x="159.033203" xlink:href="#DejaVuSerif-30"/>
       <use x="222.65625" xlink:href="#DejaVuSerif-32"/>
       <use x="286.279297" xlink:href="#DejaVuSerif-32"/>
       <use x="349.902344" xlink:href="#DejaVuSerif-30"/>
       <use x="413.525391" xlink:href="#DejaVuSerif-31"/>
       <use x="477.148438" xlink:href="#DejaVuSerif-30"/>
      </g>
     </g>
    </g>
    <g id="ytick_12">
     <g id="line2d_18">
      <g>
       <use style="stroke:#000000;stroke-width:0.8;" x="723.981" xlink:href="#md26a8dd944" y="265.32"/>
      </g>
     </g>
     <g id="text_18">
      <!-- 0.0022025 -->
      <g transform="translate(730.981 267.956658)scale(0.0694 -0.0694)">
       <use xlink:href="#DejaVuSerif-30"/>
       <use x="63.623047" xlink:href="#DejaVuSerif-2e"/>
       <use x="95.410156" xlink:href="#DejaVuSerif-30"/>
       <use x="159.033203" xlink:href="#DejaVuSerif-30"/>
       <use x="222.65625" xlink:href="#DejaVuSerif-32"/>
       <use x="286.279297" xlink:href="#DejaVuSerif-32"/>
       <use x="349.902344" xlink:href="#DejaVuSerif-30"/>
       <use x="413.525391" xlink:href="#DejaVuSerif-32"/>
       <use x="477.148438" xlink:href="#DejaVuSerif-35"/>
      </g>
     </g>
    </g>
    <g id="ytick_13">
     <g id="line2d_19">
      <g>
       <use style="stroke:#000000;stroke-width:0.8;" x="723.981" xlink:href="#md26a8dd944" y="185.52"/>
      </g>
     </g>
     <g id="text_19">
      <!-- 0.0022040 -->
      <g transform="translate(730.981 188.156658)scale(0.0694 -0.0694)">
       <use xlink:href="#DejaVuSerif-30"/>
       <use x="63.623047" xlink:href="#DejaVuSerif-2e"/>
       <use x="95.410156" xlink:href="#DejaVuSerif-30"/>
       <use x="159.033203" xlink:href="#DejaVuSerif-30"/>
       <use x="222.65625" xlink:href="#DejaVuSerif-32"/>
       <use x="286.279297" xlink:href="#DejaVuSerif-32"/>
       <use x="349.902344" xlink:href="#DejaVuSerif-30"/>
       <use x="413.525391" xlink:href="#DejaVuSerif-34"/>
       <use x="477.148438" xlink:href="#DejaVuSerif-30"/>
      </g>
     </g>
    </g>
    <g id="ytick_14">
     <g id="line2d_20">
      <g>
       <use style="stroke:#000000;stroke-width:0.8;" x="723.981" xlink:href="#md26a8dd944" y="105.72"/>
      </g>
     </g>
     <g id="text_20">
      <!-- 0.0022055 -->
      <g transform="translate(730.981 108.356658)scale(0.0694 -0.0694)">
       <use xlink:href="#DejaVuSerif-30"/>
       <use x="63.623047" xlink:href="#DejaVuSerif-2e"/>
       <use x="95.410156" xlink:href="#DejaVuSerif-30"/>
       <use x="159.033203" xlink:href="#DejaVuSerif-30"/>
       <use x="222.65625" xlink:href="#DejaVuSerif-32"/>
       <use x="286.279297" xlink:href="#DejaVuSerif-32"/>
       <use x="349.902344" xlink:href="#DejaVuSerif-30"/>
       <use x="413.525391" xlink:href="#DejaVuSerif-35"/>
       <use x="477.148438" xlink:href="#DejaVuSerif-35"/>
      </g>
     </g>
    </g>
   </g>
   <g id="patch_8">
    <path d="M 697.381 584.52 
L 697.381 557.92 
L 697.381 79.12 
L 697.381 52.52 
L 723.981 52.52 
L 723.981 79.12 
L 723.981 557.92 
L 723.981 584.52 
z
" style="fill:none;stroke:#000000;stroke-linejoin:miter;stroke-width:0.8;"/>
   </g>
  </g>
 </g>
 <defs>
  <clipPath id="p46f0bc4e3c">
   <rect height="532" width="592.208" x="68.16" y="52.52"/>
  </clipPath>
  <clipPath id="p13b396eb5b">
   <rect height="532" width="26.6" x="697.381" y="52.52"/>
  </clipPath>
 </defs>
</svg>
