<?xml version="1.0" encoding="utf-8" standalone="no"?>
<!DOCTYPE svg PUBLIC "-//W3C//DTD SVG 1.1//EN"
  "http://www.w3.org/Graphics/SVG/1.1/DTD/svg11.dtd">
<!-- Created with matplotlib (http://matplotlib.org/) -->
<svg height="648pt" version="1.1" viewBox="0 0 864 648" width="864pt" xmlns="http://www.w3.org/2000/svg" xmlns:xlink="http://www.w3.org/1999/xlink">
 <defs>
  <style type="text/css">
*{stroke-linecap:butt;stroke-linejoin:round;}
  </style>
 </defs>
 <g id="figure_1">
  <g id="patch_1">
   <path d="M 0 648 
L 864 648 
L 864 0 
L 0 0 
z
" style="fill:#ffffff;"/>
  </g>
  <g id="axes_1">
   <g id="patch_2">
    <path d="M 68.16 584.52 
L 660.368 584.52 
L 660.368 52.52 
L 68.16 52.52 
z
" style="fill:#ffffff;"/>
   </g>
   <g id="PathCollection_1">
    <path clip-path="url(#p72422e8466)" d="M 79.509995 573.662857 
L 68.16 572.572388 
L 68.16 573.662857 
L 68.16 575.577181 
z
" style="fill:#fcfcfc;"/>
    <path clip-path="url(#p72422e8466)" d="M 660.368 584.52 
L 660.368 584.392729 
L 658.99457 584.52 
z
" style="fill:#fcfcfc;"/>
   </g>
   <g id="PathCollection_2">
    <path clip-path="url(#p72422e8466)" d="M 122.239386 573.662857 
L 68.16 568.46709 
L 68.16 572.572388 
L 79.509995 573.662857 
L 68.16 575.577181 
L 68.16 582.784046 
z
" style="fill:#f6f6f6;"/>
    <path clip-path="url(#p72422e8466)" d="M 660.368 584.392729 
L 660.368 582.427146 
L 637.783302 584.52 
L 658.99457 584.52 
z
" style="fill:#f6f6f6;"/>
   </g>
   <g id="PathCollection_3">
    <path clip-path="url(#p72422e8466)" d="M 164.968777 573.662857 
L 68.16 564.361793 
L 68.16 568.46709 
L 122.239386 573.662857 
L 68.16 582.784046 
L 68.16 584.52 
L 85.923374 584.52 
z
" style="fill:#f0f0f0;"/>
    <path clip-path="url(#p72422e8466)" d="M 660.368 582.427146 
L 660.368 580.461563 
L 616.572034 584.52 
L 637.783302 584.52 
z
" style="fill:#f0f0f0;"/>
   </g>
   <g id="PathCollection_4">
    <path clip-path="url(#p72422e8466)" d="M 207.698169 573.662857 
L 68.16 560.256496 
L 68.16 564.361793 
L 164.968777 573.662857 
L 85.923374 584.52 
L 109.323174 584.52 
z
" style="fill:#e7e7e7;"/>
    <path clip-path="url(#p72422e8466)" d="M 660.368 580.461563 
L 660.368 578.49598 
L 595.360766 584.52 
L 616.572034 584.52 
z
" style="fill:#e7e7e7;"/>
   </g>
   <g id="PathCollection_5">
    <path clip-path="url(#p72422e8466)" d="M 250.42756 573.662857 
L 68.16 556.151198 
L 68.16 560.256496 
L 207.698169 573.662857 
L 109.323174 584.52 
L 132.722974 584.52 
z
" style="fill:#dedede;"/>
    <path clip-path="url(#p72422e8466)" d="M 660.368 578.49598 
L 660.368 576.530397 
L 574.149498 584.52 
L 595.360766 584.52 
z
" style="fill:#dedede;"/>
   </g>
   <g id="PathCollection_6">
    <path clip-path="url(#p72422e8466)" d="M 293.156952 573.662857 
L 68.16 552.045901 
L 68.16 556.151198 
L 250.42756 573.662857 
L 132.722974 584.52 
L 156.122775 584.52 
z
" style="fill:#d4d4d4;"/>
    <path clip-path="url(#p72422e8466)" d="M 660.368 576.530397 
L 660.368 574.564814 
L 552.93823 584.52 
L 574.149498 584.52 
z
" style="fill:#d4d4d4;"/>
   </g>
   <g id="PathCollection_7">
    <path clip-path="url(#p72422e8466)" d="M 335.886343 573.662857 
L 68.16 547.940604 
L 68.16 552.045901 
L 293.156952 573.662857 
L 156.122775 584.52 
L 179.522575 584.52 
z
" style="fill:#c8c8c8;"/>
    <path clip-path="url(#p72422e8466)" d="M 660.368 574.564814 
L 660.368 573.662857 
L 660.368 570.528998 
L 527.425227 573.662857 
L 531.726962 584.52 
L 552.93823 584.52 
z
" style="fill:#c8c8c8;"/>
   </g>
   <g id="PathCollection_8">
    <path clip-path="url(#p72422e8466)" d="M 364.264 574.167173 
L 510.515694 584.52 
L 531.726962 584.52 
L 527.425227 573.662857 
L 660.368 570.528998 
L 660.368 564.737621 
L 364.264 571.905898 
L 68.16 543.835306 
L 68.16 547.940604 
L 335.886343 573.662857 
L 179.522575 584.52 
L 202.922376 584.52 
z
" style="fill:#bebebe;"/>
   </g>
   <g id="PathCollection_9">
    <path clip-path="url(#p72422e8466)" d="M 364.264 575.668671 
L 489.304426 584.52 
L 510.515694 584.52 
L 364.264 574.167173 
L 202.922376 584.52 
L 226.322176 584.52 
z
" style="fill:#aeaeae;"/>
    <path clip-path="url(#p72422e8466)" d="M 364.264 571.905898 
L 660.368 564.737621 
L 660.368 558.946244 
L 364.264 566.674905 
L 86.962841 541.091428 
L 68.16 537.317567 
L 68.16 541.091428 
L 68.16 543.835306 
z
" style="fill:#aeaeae;"/>
   </g>
   <g id="PathCollection_10">
    <path clip-path="url(#p72422e8466)" d="M 364.264 577.170168 
L 468.093157 584.52 
L 489.304426 584.52 
L 364.264 575.668671 
L 226.322176 584.52 
L 249.721977 584.52 
z
" style="fill:#9e9e9e;"/>
    <path clip-path="url(#p72422e8466)" d="M 364.264 566.674905 
L 660.368 558.946244 
L 660.368 553.154867 
L 364.264 561.443913 
L 143.661949 541.091428 
L 68.16 525.937659 
L 68.16 537.317567 
L 86.962841 541.091428 
z
" style="fill:#9e9e9e;"/>
   </g>
   <g id="PathCollection_11">
    <path clip-path="url(#p72422e8466)" d="M 364.264 578.671666 
L 446.881889 584.52 
L 468.093157 584.52 
L 364.264 577.170168 
L 249.721977 584.52 
L 273.121777 584.52 
z
" style="fill:#8f8f8f;"/>
    <path clip-path="url(#p72422e8466)" d="M 364.264 561.443913 
L 660.368 553.154867 
L 660.368 547.36349 
L 364.264 556.21292 
L 200.361056 541.091428 
L 90.45681 519.377143 
L 68.16 513.654679 
L 68.16 519.377143 
L 68.16 525.937659 
L 143.661949 541.091428 
z
" style="fill:#8f8f8f;"/>
    <path clip-path="url(#p72422e8466)" d="M 82.009088 52.52 
L 68.16 52.52 
L 68.16 54.877625 
z
" style="fill:#8f8f8f;"/>
   </g>
   <g id="PathCollection_12">
    <path clip-path="url(#p72422e8466)" d="M 364.264 580.173164 
L 425.670621 584.52 
L 446.881889 584.52 
L 364.264 578.671666 
L 273.121777 584.52 
L 296.521578 584.52 
z
" style="fill:#818181;"/>
    <path clip-path="url(#p72422e8466)" d="M 364.264 556.21292 
L 660.368 547.36349 
L 660.368 541.572113 
L 364.264 550.981928 
L 257.060163 541.091428 
L 143.10571 519.377143 
L 102.011377 508.52 
L 68.16 493.625399 
L 68.16 508.52 
L 68.16 513.654679 
L 90.45681 519.377143 
L 200.361056 541.091428 
z
" style="fill:#818181;"/>
    <path clip-path="url(#p72422e8466)" d="M 660.368 495.302217 
L 660.368 486.805714 
L 660.368 480.09912 
L 653.684593 486.805714 
z
" style="fill:#818181;"/>
    <path clip-path="url(#p72422e8466)" d="M 195.410017 52.52 
L 82.009088 52.52 
L 68.16 54.877625 
L 68.16 74.182645 
z
" style="fill:#818181;"/>
   </g>
   <g id="PathCollection_13">
    <path clip-path="url(#p72422e8466)" d="M 364.264 581.674662 
L 404.459353 584.52 
L 425.670621 584.52 
L 364.264 580.173164 
L 296.521578 584.52 
L 319.921378 584.52 
z
" style="fill:#737373;"/>
    <path clip-path="url(#p72422e8466)" d="M 364.264 550.981928 
L 660.368 541.572113 
L 660.368 541.091428 
L 660.368 519.377143 
L 660.368 508.52 
L 660.368 495.302217 
L 653.684593 486.805714 
L 660.368 480.09912 
L 660.368 423.203311 
L 596.985486 486.805714 
L 608.027638 508.52 
L 606.229371 519.377143 
L 510.166165 541.091428 
L 364.264 545.750935 
L 313.75927 541.091428 
L 195.754611 519.377143 
L 156.610372 508.52 
L 112.147549 486.805714 
L 68.16 441.264221 
L 68.16 486.805714 
L 68.16 493.625399 
L 102.011377 508.52 
L 143.10571 519.377143 
L 257.060163 541.091428 
z
" style="fill:#737373;"/>
    <path clip-path="url(#p72422e8466)" d="M 308.810946 52.52 
L 195.410017 52.52 
L 68.16 74.182645 
L 68.16 93.487664 
z
" style="fill:#737373;"/>
   </g>
   <g id="PathCollection_14">
    <path clip-path="url(#p72422e8466)" d="M 364.264 583.176159 
L 383.248085 584.52 
L 404.459353 584.52 
L 364.264 581.674662 
L 319.921378 584.52 
L 343.321179 584.52 
z
" style="fill:#666666;"/>
    <path clip-path="url(#p72422e8466)" d="M 364.264 545.750935 
L 510.166165 541.091428 
L 606.229371 519.377143 
L 608.027638 508.52 
L 596.985486 486.805714 
L 660.368 423.203311 
L 660.368 378.234286 
L 660.368 355.571318 
L 646.932035 378.234286 
L 540.286378 486.805714 
L 543.934129 508.52 
L 530.629958 519.377143 
L 364.264 540.064409 
L 248.403512 519.377143 
L 211.209367 508.52 
L 173.571949 486.805714 
L 68.754687 378.234286 
L 68.16 378.071672 
L 68.16 378.234286 
L 68.16 441.264221 
L 112.147549 486.805714 
L 156.610372 508.52 
L 195.754611 519.377143 
L 313.75927 541.091428 
z
" style="fill:#666666;"/>
    <path clip-path="url(#p72422e8466)" d="M 364.264 76.538616 
L 480.154201 52.52 
L 364.264 52.52 
L 308.810946 52.52 
L 68.16 93.487664 
L 68.16 112.792683 
z
" style="fill:#666666;"/>
   </g>
   <g id="PathCollection_15">
    <path clip-path="url(#p72422e8466)" d="M 364.264 584.52 
L 383.248085 584.52 
L 364.264 583.176159 
L 343.321179 584.52 
z
" style="fill:#585858;"/>
    <path clip-path="url(#p72422e8466)" d="M 364.264 540.064409 
L 530.629958 519.377143 
L 543.934129 508.52 
L 540.286378 486.805714 
L 646.932035 378.234286 
L 660.368 355.571318 
L 660.368 269.662857 
L 660.368 195.645074 
L 643.067187 269.662857 
L 582.836791 378.234286 
L 483.587271 486.805714 
L 479.84062 508.52 
L 455.030545 519.377143 
L 364.264 530.663777 
L 301.052413 519.377143 
L 265.808362 508.52 
L 234.996349 486.805714 
L 135.761702 378.234286 
L 68.16 359.748926 
L 68.16 378.071672 
L 68.754687 378.234286 
L 173.571949 486.805714 
L 211.209367 508.52 
L 248.403512 519.377143 
z
" style="fill:#585858;"/>
    <path clip-path="url(#p72422e8466)" d="M 364.264 123.541778 
L 660.368 126.537783 
L 660.368 52.52 
L 480.154201 52.52 
L 364.264 76.538616 
L 68.16 112.792683 
L 68.16 132.097703 
z
" style="fill:#585858;"/>
   </g>
   <g id="PathCollection_16">
    <path clip-path="url(#p72422e8466)" d="M 364.264 530.663777 
L 455.030545 519.377143 
L 479.84062 508.52 
L 483.587271 486.805714 
L 582.836791 378.234286 
L 643.067187 269.662857 
L 660.368 195.645074 
L 660.368 161.091429 
L 660.368 126.537783 
L 364.264 123.541778 
L 68.16 132.097703 
L 68.16 151.402722 
L 279.550036 161.091429 
L 364.264 169.788602 
L 558.827073 269.662857 
L 518.741548 378.234286 
L 426.888164 486.805714 
L 415.747111 508.52 
L 379.431132 519.377143 
L 364.264 521.263145 
L 353.701314 519.377143 
L 320.407357 508.52 
L 296.42075 486.805714 
L 202.768718 378.234286 
L 68.16 341.426181 
L 68.16 359.748926 
L 135.761702 378.234286 
L 234.996349 486.805714 
L 265.808362 508.52 
L 301.052413 519.377143 
z
" style="fill:#484848;"/>
   </g>
   <g id="PathCollection_17">
    <path clip-path="url(#p72422e8466)" d="M 364.264 521.263145 
L 379.431132 519.377143 
L 415.747111 508.52 
L 426.888164 486.805714 
L 518.741548 378.234286 
L 558.827073 269.662857 
L 364.264 169.788602 
L 279.550036 161.091429 
L 68.16 151.402722 
L 68.16 161.091429 
L 68.16 176.929233 
L 364.264 213.03123 
L 474.586959 269.662857 
L 454.646305 378.234286 
L 370.189057 486.805714 
L 364.264 494.338139 
L 357.84515 486.805714 
L 269.775733 378.234286 
L 68.16 323.103435 
L 68.16 341.426181 
L 202.768718 378.234286 
L 296.42075 486.805714 
L 320.407357 508.52 
L 353.701314 519.377143 
z
" style="fill:#363636;"/>
   </g>
   <g id="PathCollection_18">
    <path clip-path="url(#p72422e8466)" d="M 364.264 494.338139 
L 370.189057 486.805714 
L 454.646305 378.234286 
L 474.586959 269.662857 
L 364.264 213.03123 
L 68.16 176.929233 
L 68.16 208.724073 
L 364.264 256.273859 
L 390.346845 269.662857 
L 390.551062 378.234286 
L 364.264 412.338916 
L 336.782748 378.234286 
L 68.16 304.78069 
L 68.16 323.103435 
L 269.775733 378.234286 
L 357.84515 486.805714 
z
" style="fill:#252525;"/>
   </g>
   <g id="PathCollection_19">
    <path clip-path="url(#p72422e8466)" d="M 364.264 412.338916 
L 390.551062 378.234286 
L 390.346845 269.662857 
L 364.264 256.273859 
L 68.16 208.724073 
L 68.16 240.518913 
L 237.056284 269.662857 
L 68.16 286.457944 
L 68.16 304.78069 
L 336.782748 378.234286 
z
" style="fill:#161616;"/>
   </g>
   <g id="PathCollection_20">
    <path clip-path="url(#p72422e8466)" d="M 237.056284 269.662857 
L 68.16 240.518913 
L 68.16 269.662857 
L 68.16 286.457944 
z
" style="fill:#070707;"/>
   </g>
   <g id="matplotlib.axis_1">
    <g id="xtick_1">
     <g id="line2d_1">
      <defs>
       <path d="M 0 0 
L 0 3.5 
" id="m2708c2fb30" style="stroke:#000000;stroke-width:0.8;"/>
      </defs>
      <g>
       <use style="stroke:#000000;stroke-width:0.8;" x="68.16" xlink:href="#m2708c2fb30" y="584.52"/>
      </g>
     </g>
     <g id="text_1">
      <!-- 3.0 -->
      <defs>
       <path d="M 9.71875 69.828125 
Q 15.4375 71.96875 20.671875 73.09375 
Q 25.921875 74.21875 30.515625 74.21875 
Q 41.21875 74.21875 47.21875 69.59375 
Q 53.21875 64.984375 53.21875 56.78125 
Q 53.21875 50.203125 49.0625 45.78125 
Q 44.921875 41.359375 37.3125 39.796875 
Q 46.296875 38.53125 51.25 33.28125 
Q 56.203125 28.03125 56.203125 19.671875 
Q 56.203125 9.46875 49.34375 4.015625 
Q 42.484375 -1.421875 29.59375 -1.421875 
Q 23.875 -1.421875 18.421875 -0.1875 
Q 12.984375 1.03125 7.625 3.515625 
L 7.625 17.671875 
L 13.09375 17.671875 
Q 13.578125 10.640625 17.828125 7.03125 
Q 22.078125 3.421875 29.78125 3.421875 
Q 37.25 3.421875 41.578125 7.734375 
Q 45.90625 12.0625 45.90625 19.578125 
Q 45.90625 28.171875 41.453125 32.59375 
Q 37.015625 37.015625 28.421875 37.015625 
L 23.78125 37.015625 
L 23.78125 42 
L 26.21875 42 
Q 34.765625 42 39.03125 45.53125 
Q 43.3125 49.078125 43.3125 56.203125 
Q 43.3125 62.59375 39.796875 65.984375 
Q 36.28125 69.390625 29.6875 69.390625 
Q 23.09375 69.390625 19.453125 66.265625 
Q 15.828125 63.140625 15.1875 56.984375 
L 9.71875 56.984375 
z
" id="DejaVuSerif-33"/>
       <path d="M 9.421875 5.078125 
Q 9.421875 7.8125 11.28125 9.71875 
Q 13.140625 11.625 15.921875 11.625 
Q 18.609375 11.625 20.5 9.71875 
Q 22.40625 7.8125 22.40625 5.078125 
Q 22.40625 2.390625 20.5 0.484375 
Q 18.609375 -1.421875 15.921875 -1.421875 
Q 13.140625 -1.421875 11.28125 0.453125 
Q 9.421875 2.34375 9.421875 5.078125 
z
" id="DejaVuSerif-2e"/>
       <path d="M 31.78125 3.421875 
Q 39.265625 3.421875 42.96875 11.625 
Q 46.6875 19.828125 46.6875 36.375 
Q 46.6875 52.984375 42.96875 61.1875 
Q 39.265625 69.390625 31.78125 69.390625 
Q 24.3125 69.390625 20.59375 61.1875 
Q 16.890625 52.984375 16.890625 36.375 
Q 16.890625 19.828125 20.59375 11.625 
Q 24.3125 3.421875 31.78125 3.421875 
z
M 31.78125 -1.421875 
Q 19.921875 -1.421875 13.25 8.53125 
Q 6.59375 18.5 6.59375 36.375 
Q 6.59375 54.296875 13.25 64.25 
Q 19.921875 74.21875 31.78125 74.21875 
Q 43.703125 74.21875 50.34375 64.25 
Q 56.984375 54.296875 56.984375 36.375 
Q 56.984375 18.5 50.34375 8.53125 
Q 43.703125 -1.421875 31.78125 -1.421875 
z
" id="DejaVuSerif-30"/>
      </defs>
      <g transform="translate(62.641616 596.793316)scale(0.0694 -0.0694)">
       <use xlink:href="#DejaVuSerif-33"/>
       <use x="63.623047" xlink:href="#DejaVuSerif-2e"/>
       <use x="95.410156" xlink:href="#DejaVuSerif-30"/>
      </g>
     </g>
    </g>
    <g id="xtick_2">
     <g id="line2d_2">
      <g>
       <use style="stroke:#000000;stroke-width:0.8;" x="142.186" xlink:href="#m2708c2fb30" y="584.52"/>
      </g>
     </g>
     <g id="text_2">
      <!-- 3.5 -->
      <defs>
       <path d="M 50.296875 72.90625 
L 50.296875 64.890625 
L 16.890625 64.890625 
L 16.890625 44 
Q 19.4375 45.75 22.828125 46.625 
Q 26.21875 47.515625 30.421875 47.515625 
Q 42.234375 47.515625 49.0625 40.96875 
Q 55.90625 34.421875 55.90625 23.09375 
Q 55.90625 11.53125 49 5.046875 
Q 42.09375 -1.421875 29.59375 -1.421875 
Q 24.5625 -1.421875 19.28125 -0.1875 
Q 14.015625 1.03125 8.5 3.515625 
L 8.5 17.671875 
L 14.015625 17.671875 
Q 14.453125 10.75 18.421875 7.078125 
Q 22.40625 3.421875 29.59375 3.421875 
Q 37.3125 3.421875 41.453125 8.5 
Q 45.609375 13.578125 45.609375 23.09375 
Q 45.609375 32.5625 41.484375 37.609375 
Q 37.359375 42.671875 29.59375 42.671875 
Q 25.203125 42.671875 21.84375 41.109375 
Q 18.5 39.546875 15.921875 36.28125 
L 11.71875 36.28125 
L 11.71875 72.90625 
z
" id="DejaVuSerif-35"/>
      </defs>
      <g transform="translate(136.667616 596.793316)scale(0.0694 -0.0694)">
       <use xlink:href="#DejaVuSerif-33"/>
       <use x="63.623047" xlink:href="#DejaVuSerif-2e"/>
       <use x="95.410156" xlink:href="#DejaVuSerif-35"/>
      </g>
     </g>
    </g>
    <g id="xtick_3">
     <g id="line2d_3">
      <g>
       <use style="stroke:#000000;stroke-width:0.8;" x="216.212" xlink:href="#m2708c2fb30" y="584.52"/>
      </g>
     </g>
     <g id="text_3">
      <!-- 4.0 -->
      <defs>
       <path d="M 34.90625 24.703125 
L 34.90625 63.484375 
L 10.015625 24.703125 
z
M 56.390625 0 
L 23.1875 0 
L 23.1875 5.171875 
L 34.90625 5.171875 
L 34.90625 19.484375 
L 3.078125 19.484375 
L 3.078125 24.8125 
L 35.015625 74.21875 
L 44.671875 74.21875 
L 44.671875 24.703125 
L 58.59375 24.703125 
L 58.59375 19.484375 
L 44.671875 19.484375 
L 44.671875 5.171875 
L 56.390625 5.171875 
z
" id="DejaVuSerif-34"/>
      </defs>
      <g transform="translate(210.693616 596.793316)scale(0.0694 -0.0694)">
       <use xlink:href="#DejaVuSerif-34"/>
       <use x="63.623047" xlink:href="#DejaVuSerif-2e"/>
       <use x="95.410156" xlink:href="#DejaVuSerif-30"/>
      </g>
     </g>
    </g>
    <g id="xtick_4">
     <g id="line2d_4">
      <g>
       <use style="stroke:#000000;stroke-width:0.8;" x="290.238" xlink:href="#m2708c2fb30" y="584.52"/>
      </g>
     </g>
     <g id="text_4">
      <!-- 4.5 -->
      <g transform="translate(284.719616 596.793316)scale(0.0694 -0.0694)">
       <use xlink:href="#DejaVuSerif-34"/>
       <use x="63.623047" xlink:href="#DejaVuSerif-2e"/>
       <use x="95.410156" xlink:href="#DejaVuSerif-35"/>
      </g>
     </g>
    </g>
    <g id="xtick_5">
     <g id="line2d_5">
      <g>
       <use style="stroke:#000000;stroke-width:0.8;" x="364.264" xlink:href="#m2708c2fb30" y="584.52"/>
      </g>
     </g>
     <g id="text_5">
      <!-- 5.0 -->
      <g transform="translate(358.745616 596.793316)scale(0.0694 -0.0694)">
       <use xlink:href="#DejaVuSerif-35"/>
       <use x="63.623047" xlink:href="#DejaVuSerif-2e"/>
       <use x="95.410156" xlink:href="#DejaVuSerif-30"/>
      </g>
     </g>
    </g>
    <g id="xtick_6">
     <g id="line2d_6">
      <g>
       <use style="stroke:#000000;stroke-width:0.8;" x="438.29" xlink:href="#m2708c2fb30" y="584.52"/>
      </g>
     </g>
     <g id="text_6">
      <!-- 5.5 -->
      <g transform="translate(432.771616 596.793316)scale(0.0694 -0.0694)">
       <use xlink:href="#DejaVuSerif-35"/>
       <use x="63.623047" xlink:href="#DejaVuSerif-2e"/>
       <use x="95.410156" xlink:href="#DejaVuSerif-35"/>
      </g>
     </g>
    </g>
    <g id="xtick_7">
     <g id="line2d_7">
      <g>
       <use style="stroke:#000000;stroke-width:0.8;" x="512.316" xlink:href="#m2708c2fb30" y="584.52"/>
      </g>
     </g>
     <g id="text_7">
      <!-- 6.0 -->
      <defs>
       <path d="M 32.71875 3.421875 
Q 39.59375 3.421875 43.296875 8.46875 
Q 47.015625 13.53125 47.015625 23 
Q 47.015625 32.46875 43.296875 37.515625 
Q 39.59375 42.578125 32.71875 42.578125 
Q 25.734375 42.578125 22.0625 37.6875 
Q 18.40625 32.8125 18.40625 23.578125 
Q 18.40625 13.875 22.109375 8.640625 
Q 25.828125 3.421875 32.71875 3.421875 
z
M 16.796875 40.140625 
Q 20.125 43.796875 24.3125 45.59375 
Q 28.515625 47.40625 33.796875 47.40625 
Q 44.671875 47.40625 51 40.859375 
Q 57.328125 34.328125 57.328125 23 
Q 57.328125 11.921875 50.515625 5.25 
Q 43.703125 -1.421875 32.328125 -1.421875 
Q 19.96875 -1.421875 13.328125 7.78125 
Q 6.6875 17 6.6875 34.078125 
Q 6.6875 53.21875 14.546875 63.71875 
Q 22.40625 74.21875 36.71875 74.21875 
Q 40.578125 74.21875 44.828125 73.484375 
Q 49.078125 72.75 53.515625 71.296875 
L 53.515625 59.28125 
L 48 59.28125 
Q 47.40625 64.203125 44.234375 66.796875 
Q 41.0625 69.390625 35.6875 69.390625 
Q 26.21875 69.390625 21.578125 62.203125 
Q 16.9375 55.03125 16.796875 40.140625 
z
" id="DejaVuSerif-36"/>
      </defs>
      <g transform="translate(506.797616 596.793316)scale(0.0694 -0.0694)">
       <use xlink:href="#DejaVuSerif-36"/>
       <use x="63.623047" xlink:href="#DejaVuSerif-2e"/>
       <use x="95.410156" xlink:href="#DejaVuSerif-30"/>
      </g>
     </g>
    </g>
    <g id="xtick_8">
     <g id="line2d_8">
      <g>
       <use style="stroke:#000000;stroke-width:0.8;" x="586.342" xlink:href="#m2708c2fb30" y="584.52"/>
      </g>
     </g>
     <g id="text_8">
      <!-- 6.5 -->
      <g transform="translate(580.823616 596.793316)scale(0.0694 -0.0694)">
       <use xlink:href="#DejaVuSerif-36"/>
       <use x="63.623047" xlink:href="#DejaVuSerif-2e"/>
       <use x="95.410156" xlink:href="#DejaVuSerif-35"/>
      </g>
     </g>
    </g>
    <g id="xtick_9">
     <g id="line2d_9">
      <g>
       <use style="stroke:#000000;stroke-width:0.8;" x="660.368" xlink:href="#m2708c2fb30" y="584.52"/>
      </g>
     </g>
     <g id="text_9">
      <!-- 7.0 -->
      <defs>
       <path d="M 56.390625 67.921875 
L 27.875 0 
L 20.609375 0 
L 47.796875 64.890625 
L 14.109375 64.890625 
L 14.109375 55.90625 
L 8.40625 55.90625 
L 8.40625 72.90625 
L 56.390625 72.90625 
z
" id="DejaVuSerif-37"/>
      </defs>
      <g transform="translate(654.849616 596.793316)scale(0.0694 -0.0694)">
       <use xlink:href="#DejaVuSerif-37"/>
       <use x="63.623047" xlink:href="#DejaVuSerif-2e"/>
       <use x="95.410156" xlink:href="#DejaVuSerif-30"/>
      </g>
     </g>
    </g>
   </g>
   <g id="matplotlib.axis_2">
    <g id="ytick_1">
     <g id="line2d_10">
      <defs>
       <path d="M 0 0 
L -3.5 0 
" id="m3a292eb342" style="stroke:#000000;stroke-width:0.8;"/>
      </defs>
      <g>
       <use style="stroke:#000000;stroke-width:0.8;" x="68.16" xlink:href="#m3a292eb342" y="515.578926"/>
      </g>
     </g>
     <g id="text_10">
      <!-- 0.1 -->
      <defs>
       <path d="M 14.203125 0 
L 14.203125 5.171875 
L 26.90625 5.171875 
L 26.90625 65.828125 
L 12.203125 56.296875 
L 12.203125 62.703125 
L 29.984375 74.21875 
L 36.71875 74.21875 
L 36.71875 5.171875 
L 49.421875 5.171875 
L 49.421875 0 
z
" id="DejaVuSerif-31"/>
      </defs>
      <g transform="translate(50.123231 518.215584)scale(0.0694 -0.0694)">
       <use xlink:href="#DejaVuSerif-30"/>
       <use x="63.623047" xlink:href="#DejaVuSerif-2e"/>
       <use x="95.410156" xlink:href="#DejaVuSerif-31"/>
      </g>
     </g>
    </g>
    <g id="ytick_2">
     <g id="line2d_11">
      <g>
       <use style="stroke:#000000;stroke-width:0.8;" x="68.16" xlink:href="#m3a292eb342" y="435.780709"/>
      </g>
     </g>
     <g id="text_11">
      <!-- 0.2 -->
      <defs>
       <path d="M 12.796875 55.515625 
L 7.328125 55.515625 
L 7.328125 68.5 
Q 12.546875 71.296875 17.84375 72.75 
Q 23.140625 74.21875 28.21875 74.21875 
Q 39.59375 74.21875 46.1875 68.703125 
Q 52.78125 63.1875 52.78125 53.71875 
Q 52.78125 43.015625 37.84375 28.125 
Q 36.671875 27 36.078125 26.421875 
L 17.671875 8.015625 
L 48.09375 8.015625 
L 48.09375 17 
L 53.8125 17 
L 53.8125 0 
L 6.78125 0 
L 6.78125 5.328125 
L 28.90625 27.390625 
Q 36.234375 34.71875 39.359375 40.84375 
Q 42.484375 46.96875 42.484375 53.71875 
Q 42.484375 61.078125 38.640625 65.234375 
Q 34.8125 69.390625 28.078125 69.390625 
Q 21.09375 69.390625 17.28125 65.921875 
Q 13.484375 62.453125 12.796875 55.515625 
z
" id="DejaVuSerif-32"/>
      </defs>
      <g transform="translate(50.123231 438.417367)scale(0.0694 -0.0694)">
       <use xlink:href="#DejaVuSerif-30"/>
       <use x="63.623047" xlink:href="#DejaVuSerif-2e"/>
       <use x="95.410156" xlink:href="#DejaVuSerif-32"/>
      </g>
     </g>
    </g>
    <g id="ytick_3">
     <g id="line2d_12">
      <g>
       <use style="stroke:#000000;stroke-width:0.8;" x="68.16" xlink:href="#m3a292eb342" y="355.982492"/>
      </g>
     </g>
     <g id="text_12">
      <!-- 0.3 -->
      <g transform="translate(50.123231 358.61915)scale(0.0694 -0.0694)">
       <use xlink:href="#DejaVuSerif-30"/>
       <use x="63.623047" xlink:href="#DejaVuSerif-2e"/>
       <use x="95.410156" xlink:href="#DejaVuSerif-33"/>
      </g>
     </g>
    </g>
    <g id="ytick_4">
     <g id="line2d_13">
      <g>
       <use style="stroke:#000000;stroke-width:0.8;" x="68.16" xlink:href="#m3a292eb342" y="276.184275"/>
      </g>
     </g>
     <g id="text_13">
      <!-- 0.4 -->
      <g transform="translate(50.123231 278.820933)scale(0.0694 -0.0694)">
       <use xlink:href="#DejaVuSerif-30"/>
       <use x="63.623047" xlink:href="#DejaVuSerif-2e"/>
       <use x="95.410156" xlink:href="#DejaVuSerif-34"/>
      </g>
     </g>
    </g>
    <g id="ytick_5">
     <g id="line2d_14">
      <g>
       <use style="stroke:#000000;stroke-width:0.8;" x="68.16" xlink:href="#m3a292eb342" y="196.386058"/>
      </g>
     </g>
     <g id="text_14">
      <!-- 0.5 -->
      <g transform="translate(50.123231 199.022716)scale(0.0694 -0.0694)">
       <use xlink:href="#DejaVuSerif-30"/>
       <use x="63.623047" xlink:href="#DejaVuSerif-2e"/>
       <use x="95.410156" xlink:href="#DejaVuSerif-35"/>
      </g>
     </g>
    </g>
    <g id="ytick_6">
     <g id="line2d_15">
      <g>
       <use style="stroke:#000000;stroke-width:0.8;" x="68.16" xlink:href="#m3a292eb342" y="116.587841"/>
      </g>
     </g>
     <g id="text_15">
      <!-- 0.6 -->
      <g transform="translate(50.123231 119.224499)scale(0.0694 -0.0694)">
       <use xlink:href="#DejaVuSerif-30"/>
       <use x="63.623047" xlink:href="#DejaVuSerif-2e"/>
       <use x="95.410156" xlink:href="#DejaVuSerif-36"/>
      </g>
     </g>
    </g>
   </g>
   <g id="patch_3">
    <path d="M 68.16 584.52 
L 68.16 52.52 
" style="fill:none;stroke:#000000;stroke-linecap:square;stroke-linejoin:miter;stroke-width:0.8;"/>
   </g>
   <g id="patch_4">
    <path d="M 660.368 584.52 
L 660.368 52.52 
" style="fill:none;stroke:#000000;stroke-linecap:square;stroke-linejoin:miter;stroke-width:0.8;"/>
   </g>
   <g id="patch_5">
    <path d="M 68.16 584.52 
L 660.368 584.52 
" style="fill:none;stroke:#000000;stroke-linecap:square;stroke-linejoin:miter;stroke-width:0.8;"/>
   </g>
   <g id="patch_6">
    <path d="M 68.16 52.52 
L 660.368 52.52 
" style="fill:none;stroke:#000000;stroke-linecap:square;stroke-linejoin:miter;stroke-width:0.8;"/>
   </g>
  </g>
  <g id="axes_2">
   <g id="patch_7">
    <path clip-path="url(#pc7fc188612)" d="M 697.381 584.52 
L 697.381 557.92 
L 697.381 79.12 
L 697.381 52.52 
L 723.981 52.52 
L 723.981 79.12 
L 723.981 557.92 
L 723.981 584.52 
z
" style="fill:#ffffff;stroke:#ffffff;stroke-linejoin:miter;stroke-width:0.01;"/>
   </g>
   <g id="QuadMesh_1">
    <path clip-path="url(#pc7fc188612)" d="M 697.381 584.52 
L 723.981 584.52 
L 723.981 557.92 
L 697.381 557.92 
L 697.381 584.52 
" style="fill:#fcfcfc;"/>
    <path clip-path="url(#pc7fc188612)" d="M 697.381 557.92 
L 723.981 557.92 
L 723.981 531.32 
L 697.381 531.32 
L 697.381 557.92 
" style="fill:#f6f6f6;"/>
    <path clip-path="url(#pc7fc188612)" d="M 697.381 531.32 
L 723.981 531.32 
L 723.981 504.72 
L 697.381 504.72 
L 697.381 531.32 
" style="fill:#f0f0f0;"/>
    <path clip-path="url(#pc7fc188612)" d="M 697.381 504.72 
L 723.981 504.72 
L 723.981 478.12 
L 697.381 478.12 
L 697.381 504.72 
" style="fill:#e7e7e7;"/>
    <path clip-path="url(#pc7fc188612)" d="M 697.381 478.12 
L 723.981 478.12 
L 723.981 451.52 
L 697.381 451.52 
L 697.381 478.12 
" style="fill:#dedede;"/>
    <path clip-path="url(#pc7fc188612)" d="M 697.381 451.52 
L 723.981 451.52 
L 723.981 424.92 
L 697.381 424.92 
L 697.381 451.52 
" style="fill:#d4d4d4;"/>
    <path clip-path="url(#pc7fc188612)" d="M 697.381 424.92 
L 723.981 424.92 
L 723.981 398.32 
L 697.381 398.32 
L 697.381 424.92 
" style="fill:#c8c8c8;"/>
    <path clip-path="url(#pc7fc188612)" d="M 697.381 398.32 
L 723.981 398.32 
L 723.981 371.72 
L 697.381 371.72 
L 697.381 398.32 
" style="fill:#bebebe;"/>
    <path clip-path="url(#pc7fc188612)" d="M 697.381 371.72 
L 723.981 371.72 
L 723.981 345.12 
L 697.381 345.12 
L 697.381 371.72 
" style="fill:#aeaeae;"/>
    <path clip-path="url(#pc7fc188612)" d="M 697.381 345.12 
L 723.981 345.12 
L 723.981 318.52 
L 697.381 318.52 
L 697.381 345.12 
" style="fill:#9e9e9e;"/>
    <path clip-path="url(#pc7fc188612)" d="M 697.381 318.52 
L 723.981 318.52 
L 723.981 291.92 
L 697.381 291.92 
L 697.381 318.52 
" style="fill:#8f8f8f;"/>
    <path clip-path="url(#pc7fc188612)" d="M 697.381 291.92 
L 723.981 291.92 
L 723.981 265.32 
L 697.381 265.32 
L 697.381 291.92 
" style="fill:#818181;"/>
    <path clip-path="url(#pc7fc188612)" d="M 697.381 265.32 
L 723.981 265.32 
L 723.981 238.72 
L 697.381 238.72 
L 697.381 265.32 
" style="fill:#737373;"/>
    <path clip-path="url(#pc7fc188612)" d="M 697.381 238.72 
L 723.981 238.72 
L 723.981 212.12 
L 697.381 212.12 
L 697.381 238.72 
" style="fill:#666666;"/>
    <path clip-path="url(#pc7fc188612)" d="M 697.381 212.12 
L 723.981 212.12 
L 723.981 185.52 
L 697.381 185.52 
L 697.381 212.12 
" style="fill:#585858;"/>
    <path clip-path="url(#pc7fc188612)" d="M 697.381 185.52 
L 723.981 185.52 
L 723.981 158.92 
L 697.381 158.92 
L 697.381 185.52 
" style="fill:#484848;"/>
    <path clip-path="url(#pc7fc188612)" d="M 697.381 158.92 
L 723.981 158.92 
L 723.981 132.32 
L 697.381 132.32 
L 697.381 158.92 
" style="fill:#363636;"/>
    <path clip-path="url(#pc7fc188612)" d="M 697.381 132.32 
L 723.981 132.32 
L 723.981 105.72 
L 697.381 105.72 
L 697.381 132.32 
" style="fill:#252525;"/>
    <path clip-path="url(#pc7fc188612)" d="M 697.381 105.72 
L 723.981 105.72 
L 723.981 79.12 
L 697.381 79.12 
L 697.381 105.72 
" style="fill:#161616;"/>
    <path clip-path="url(#pc7fc188612)" d="M 697.381 79.12 
L 723.981 79.12 
L 723.981 52.52 
L 697.381 52.52 
L 697.381 79.12 
" style="fill:#070707;"/>
   </g>
   <g id="matplotlib.axis_3"/>
   <g id="matplotlib.axis_4">
    <g id="ytick_7">
     <g id="line2d_16">
      <defs>
       <path d="M 0 0 
L 3.5 0 
" id="maaaad89f83" style="stroke:#000000;stroke-width:0.8;"/>
      </defs>
      <g>
       <use style="stroke:#000000;stroke-width:0.8;" x="723.981" xlink:href="#maaaad89f83" y="584.52"/>
      </g>
     </g>
     <g id="text_16">
      <!-- 0.002112 -->
      <g transform="translate(730.981 587.156658)scale(0.0694 -0.0694)">
       <use xlink:href="#DejaVuSerif-30"/>
       <use x="63.623047" xlink:href="#DejaVuSerif-2e"/>
       <use x="95.410156" xlink:href="#DejaVuSerif-30"/>
       <use x="159.033203" xlink:href="#DejaVuSerif-30"/>
       <use x="222.65625" xlink:href="#DejaVuSerif-32"/>
       <use x="286.279297" xlink:href="#DejaVuSerif-31"/>
       <use x="349.902344" xlink:href="#DejaVuSerif-31"/>
       <use x="413.525391" xlink:href="#DejaVuSerif-32"/>
      </g>
     </g>
    </g>
    <g id="ytick_8">
     <g id="line2d_17">
      <g>
       <use style="stroke:#000000;stroke-width:0.8;" x="723.981" xlink:href="#maaaad89f83" y="504.72"/>
      </g>
     </g>
     <g id="text_17">
      <!-- 0.002136 -->
      <g transform="translate(730.981 507.356658)scale(0.0694 -0.0694)">
       <use xlink:href="#DejaVuSerif-30"/>
       <use x="63.623047" xlink:href="#DejaVuSerif-2e"/>
       <use x="95.410156" xlink:href="#DejaVuSerif-30"/>
       <use x="159.033203" xlink:href="#DejaVuSerif-30"/>
       <use x="222.65625" xlink:href="#DejaVuSerif-32"/>
       <use x="286.279297" xlink:href="#DejaVuSerif-31"/>
       <use x="349.902344" xlink:href="#DejaVuSerif-33"/>
       <use x="413.525391" xlink:href="#DejaVuSerif-36"/>
      </g>
     </g>
    </g>
    <g id="ytick_9">
     <g id="line2d_18">
      <g>
       <use style="stroke:#000000;stroke-width:0.8;" x="723.981" xlink:href="#maaaad89f83" y="424.92"/>
      </g>
     </g>
     <g id="text_18">
      <!-- 0.002160 -->
      <g transform="translate(730.981 427.556658)scale(0.0694 -0.0694)">
       <use xlink:href="#DejaVuSerif-30"/>
       <use x="63.623047" xlink:href="#DejaVuSerif-2e"/>
       <use x="95.410156" xlink:href="#DejaVuSerif-30"/>
       <use x="159.033203" xlink:href="#DejaVuSerif-30"/>
       <use x="222.65625" xlink:href="#DejaVuSerif-32"/>
       <use x="286.279297" xlink:href="#DejaVuSerif-31"/>
       <use x="349.902344" xlink:href="#DejaVuSerif-36"/>
       <use x="413.525391" xlink:href="#DejaVuSerif-30"/>
      </g>
     </g>
    </g>
    <g id="ytick_10">
     <g id="line2d_19">
      <g>
       <use style="stroke:#000000;stroke-width:0.8;" x="723.981" xlink:href="#maaaad89f83" y="345.12"/>
      </g>
     </g>
     <g id="text_19">
      <!-- 0.002184 -->
      <defs>
       <path d="M 46.578125 19.921875 
Q 46.578125 27.734375 42.6875 32.046875 
Q 38.8125 36.375 31.78125 36.375 
Q 24.75 36.375 20.875 32.046875 
Q 17 27.734375 17 19.921875 
Q 17 12.0625 20.875 7.734375 
Q 24.75 3.421875 31.78125 3.421875 
Q 38.8125 3.421875 42.6875 7.734375 
Q 46.578125 12.0625 46.578125 19.921875 
z
M 44.578125 55.328125 
Q 44.578125 61.96875 41.203125 65.671875 
Q 37.84375 69.390625 31.78125 69.390625 
Q 25.78125 69.390625 22.390625 65.671875 
Q 19 61.96875 19 55.328125 
Q 19 48.640625 22.390625 44.921875 
Q 25.78125 41.21875 31.78125 41.21875 
Q 37.84375 41.21875 41.203125 44.921875 
Q 44.578125 48.640625 44.578125 55.328125 
z
M 39.3125 38.8125 
Q 47.609375 37.703125 52.25 32.6875 
Q 56.890625 27.6875 56.890625 19.921875 
Q 56.890625 9.671875 50.390625 4.125 
Q 43.890625 -1.421875 31.78125 -1.421875 
Q 19.734375 -1.421875 13.203125 4.125 
Q 6.6875 9.671875 6.6875 19.921875 
Q 6.6875 27.6875 11.328125 32.6875 
Q 15.96875 37.703125 24.3125 38.8125 
Q 16.9375 40.140625 13 44.40625 
Q 9.078125 48.6875 9.078125 55.328125 
Q 9.078125 64.109375 15.125 69.15625 
Q 21.1875 74.21875 31.78125 74.21875 
Q 42.390625 74.21875 48.4375 69.15625 
Q 54.5 64.109375 54.5 55.328125 
Q 54.5 48.6875 50.5625 44.40625 
Q 46.625 40.140625 39.3125 38.8125 
z
" id="DejaVuSerif-38"/>
      </defs>
      <g transform="translate(730.981 347.756658)scale(0.0694 -0.0694)">
       <use xlink:href="#DejaVuSerif-30"/>
       <use x="63.623047" xlink:href="#DejaVuSerif-2e"/>
       <use x="95.410156" xlink:href="#DejaVuSerif-30"/>
       <use x="159.033203" xlink:href="#DejaVuSerif-30"/>
       <use x="222.65625" xlink:href="#DejaVuSerif-32"/>
       <use x="286.279297" xlink:href="#DejaVuSerif-31"/>
       <use x="349.902344" xlink:href="#DejaVuSerif-38"/>
       <use x="413.525391" xlink:href="#DejaVuSerif-34"/>
      </g>
     </g>
    </g>
    <g id="ytick_11">
     <g id="line2d_20">
      <g>
       <use style="stroke:#000000;stroke-width:0.8;" x="723.981" xlink:href="#maaaad89f83" y="265.32"/>
      </g>
     </g>
     <g id="text_20">
      <!-- 0.002208 -->
      <g transform="translate(730.981 267.956658)scale(0.0694 -0.0694)">
       <use xlink:href="#DejaVuSerif-30"/>
       <use x="63.623047" xlink:href="#DejaVuSerif-2e"/>
       <use x="95.410156" xlink:href="#DejaVuSerif-30"/>
       <use x="159.033203" xlink:href="#DejaVuSerif-30"/>
       <use x="222.65625" xlink:href="#DejaVuSerif-32"/>
       <use x="286.279297" xlink:href="#DejaVuSerif-32"/>
       <use x="349.902344" xlink:href="#DejaVuSerif-30"/>
       <use x="413.525391" xlink:href="#DejaVuSerif-38"/>
      </g>
     </g>
    </g>
    <g id="ytick_12">
     <g id="line2d_21">
      <g>
       <use style="stroke:#000000;stroke-width:0.8;" x="723.981" xlink:href="#maaaad89f83" y="185.52"/>
      </g>
     </g>
     <g id="text_21">
      <!-- 0.002232 -->
      <g transform="translate(730.981 188.156658)scale(0.0694 -0.0694)">
       <use xlink:href="#DejaVuSerif-30"/>
       <use x="63.623047" xlink:href="#DejaVuSerif-2e"/>
       <use x="95.410156" xlink:href="#DejaVuSerif-30"/>
       <use x="159.033203" xlink:href="#DejaVuSerif-30"/>
       <use x="222.65625" xlink:href="#DejaVuSerif-32"/>
       <use x="286.279297" xlink:href="#DejaVuSerif-32"/>
       <use x="349.902344" xlink:href="#DejaVuSerif-33"/>
       <use x="413.525391" xlink:href="#DejaVuSerif-32"/>
      </g>
     </g>
    </g>
    <g id="ytick_13">
     <g id="line2d_22">
      <g>
       <use style="stroke:#000000;stroke-width:0.8;" x="723.981" xlink:href="#maaaad89f83" y="105.72"/>
      </g>
     </g>
     <g id="text_22">
      <!-- 0.002256 -->
      <g transform="translate(730.981 108.356658)scale(0.0694 -0.0694)">
       <use xlink:href="#DejaVuSerif-30"/>
       <use x="63.623047" xlink:href="#DejaVuSerif-2e"/>
       <use x="95.410156" xlink:href="#DejaVuSerif-30"/>
       <use x="159.033203" xlink:href="#DejaVuSerif-30"/>
       <use x="222.65625" xlink:href="#DejaVuSerif-32"/>
       <use x="286.279297" xlink:href="#DejaVuSerif-32"/>
       <use x="349.902344" xlink:href="#DejaVuSerif-35"/>
       <use x="413.525391" xlink:href="#DejaVuSerif-36"/>
      </g>
     </g>
    </g>
   </g>
   <g id="patch_8">
    <path d="M 697.381 584.52 
L 697.381 557.92 
L 697.381 79.12 
L 697.381 52.52 
L 723.981 52.52 
L 723.981 79.12 
L 723.981 557.92 
L 723.981 584.52 
z
" style="fill:none;stroke:#000000;stroke-linejoin:miter;stroke-width:0.8;"/>
   </g>
  </g>
 </g>
 <defs>
  <clipPath id="p72422e8466">
   <rect height="532" width="592.208" x="68.16" y="52.52"/>
  </clipPath>
  <clipPath id="pc7fc188612">
   <rect height="532" width="26.6" x="697.381" y="52.52"/>
  </clipPath>
 </defs>
</svg>
