<?xml version="1.0" encoding="utf-8" standalone="no"?>
<!DOCTYPE svg PUBLIC "-//W3C//DTD SVG 1.1//EN"
  "http://www.w3.org/Graphics/SVG/1.1/DTD/svg11.dtd">
<!-- Created with matplotlib (http://matplotlib.org/) -->
<svg height="648pt" version="1.1" viewBox="0 0 864 648" width="864pt" xmlns="http://www.w3.org/2000/svg" xmlns:xlink="http://www.w3.org/1999/xlink">
 <defs>
  <style type="text/css">
*{stroke-linecap:butt;stroke-linejoin:round;}
  </style>
 </defs>
 <g id="figure_1">
  <g id="patch_1">
   <path d="M 0 648 
L 864 648 
L 864 0 
L 0 0 
z
" style="fill:#ffffff;"/>
  </g>
  <g id="axes_1">
   <g id="patch_2">
    <path d="M 68.16 584.52 
L 660.368 584.52 
L 660.368 52.52 
L 68.16 52.52 
z
" style="fill:#ffffff;"/>
   </g>
   <g id="PathCollection_1">
    <path clip-path="url(#p8756e3c6fd)" d="M 364.264 411.464871 
L 377.133889 378.234286 
L 401.404099 269.662857 
L 364.264 183.780623 
L 351.552278 269.662857 
L 358.676116 378.234286 
z
" style="fill:#fcfcfc;"/>
   </g>
   <g id="PathCollection_2">
    <path clip-path="url(#p8756e3c6fd)" d="M 364.264 516.984206 
L 367.501313 508.52 
L 373.429434 486.805714 
L 415.371694 378.234286 
L 446.345115 269.662857 
L 418.091036 161.091429 
L 364.264 85.792239 
L 352.237969 161.091429 
L 336.170581 269.662857 
L 342.07392 378.234286 
L 359.670928 486.805714 
L 362.690989 508.52 
z
M 358.676116 378.234286 
L 351.552278 269.662857 
L 364.264 183.780623 
L 401.404099 269.662857 
L 377.133889 378.234286 
L 364.264 411.464871 
z
" style="fill:#f7f7f7;"/>
   </g>
   <g id="PathCollection_3">
    <path clip-path="url(#p8756e3c6fd)" d="M 364.264 584.52 
L 379.41669 584.52 
L 382.226103 573.662857 
L 395.535909 541.091429 
L 404.115173 519.377143 
L 407.369699 508.52 
L 412.116432 486.805714 
L 453.609498 378.234286 
L 491.286132 269.662857 
L 486.952731 161.091429 
L 448.56538 52.52 
L 364.264 52.52 
L 353.301031 52.52 
L 336.852896 161.091429 
L 320.788885 269.662857 
L 325.471725 378.234286 
L 340.283718 486.805714 
L 343.318928 508.52 
L 345.503419 519.377143 
L 350.636791 541.091429 
L 357.157903 573.662857 
L 358.400108 584.52 
z
M 362.690989 508.52 
L 359.670928 486.805714 
L 342.07392 378.234286 
L 336.170581 269.662857 
L 352.237969 161.091429 
L 364.264 85.792239 
L 418.091036 161.091429 
L 446.345115 269.662857 
L 415.371694 378.234286 
L 373.429434 486.805714 
L 367.501313 508.52 
L 364.264 516.984206 
z
" style="fill:#f1f1f1;"/>
   </g>
   <g id="PathCollection_4">
    <path clip-path="url(#p8756e3c6fd)" d="M 357.157903 573.662857 
L 350.636791 541.091429 
L 345.503419 519.377143 
L 343.318928 508.52 
L 340.283718 486.805714 
L 325.471725 378.234286 
L 320.788885 269.662857 
L 336.852896 161.091429 
L 353.301031 52.52 
L 336.553606 52.52 
L 321.467823 161.091429 
L 305.407189 269.662857 
L 308.869529 378.234286 
L 320.896509 486.805714 
L 323.946868 508.52 
L 326.302047 519.377143 
L 331.951305 541.091429 
L 339.355107 573.662857 
L 340.921062 584.52 
L 358.400108 584.52 
z
" style="fill:#e9e9e9;"/>
    <path clip-path="url(#p8756e3c6fd)" d="M 427.226284 573.662857 
L 438.415624 541.091429 
L 444.902674 519.377143 
L 447.238086 508.52 
L 450.803431 486.805714 
L 491.847303 378.234286 
L 536.227149 269.662857 
L 555.814427 161.091429 
L 577.347194 52.52 
L 448.56538 52.52 
L 486.952731 161.091429 
L 491.286132 269.662857 
L 453.609498 378.234286 
L 412.116432 486.805714 
L 407.369699 508.52 
L 404.115173 519.377143 
L 395.535909 541.091429 
L 382.226103 573.662857 
L 379.41669 584.52 
L 424.583714 584.52 
z
" style="fill:#e9e9e9;"/>
   </g>
   <g id="PathCollection_5">
    <path clip-path="url(#p8756e3c6fd)" d="M 339.355107 573.662857 
L 331.951305 541.091429 
L 326.302047 519.377143 
L 323.946868 508.52 
L 320.896509 486.805714 
L 308.869529 378.234286 
L 305.407189 269.662857 
L 321.467823 161.091429 
L 336.553606 52.52 
L 319.806181 52.52 
L 306.08275 161.091429 
L 290.025492 269.662857 
L 292.267333 378.234286 
L 301.509299 486.805714 
L 304.574808 508.52 
L 307.100675 519.377143 
L 313.265818 541.091429 
L 321.552311 573.662857 
L 323.442015 584.52 
L 340.921062 584.52 
z
" style="fill:#e0e0e0;"/>
    <path clip-path="url(#p8756e3c6fd)" d="M 472.226464 573.662857 
L 481.29534 541.091429 
L 485.690174 519.377143 
L 487.106472 508.52 
L 489.490429 486.805714 
L 530.085108 378.234286 
L 581.168165 269.662857 
L 624.676122 161.091429 
L 660.368 96.678988 
L 660.368 52.52 
L 577.347194 52.52 
L 555.814427 161.091429 
L 536.227149 269.662857 
L 491.847303 378.234286 
L 450.803431 486.805714 
L 447.238086 508.52 
L 444.902674 519.377143 
L 438.415624 541.091429 
L 427.226284 573.662857 
L 424.583714 584.52 
L 469.750738 584.52 
z
" style="fill:#e0e0e0;"/>
   </g>
   <g id="PathCollection_6">
    <path clip-path="url(#p8756e3c6fd)" d="M 321.552311 573.662857 
L 313.265818 541.091429 
L 307.100675 519.377143 
L 304.574808 508.52 
L 301.509299 486.805714 
L 292.267333 378.234286 
L 290.025492 269.662857 
L 306.08275 161.091429 
L 319.806181 52.52 
L 303.058756 52.52 
L 290.697677 161.091429 
L 274.643796 269.662857 
L 275.665137 378.234286 
L 282.12209 486.805714 
L 285.202747 508.52 
L 287.899303 519.377143 
L 294.580332 541.091429 
L 303.749515 573.662857 
L 305.962969 584.52 
L 323.442015 584.52 
z
" style="fill:#d6d6d6;"/>
    <path clip-path="url(#p8756e3c6fd)" d="M 517.226645 573.662857 
L 524.175055 541.091429 
L 526.477675 519.377143 
L 526.974858 508.52 
L 528.177428 486.805714 
L 568.322913 378.234286 
L 626.109182 269.662857 
L 660.368 203.131431 
L 660.368 161.091429 
L 660.368 96.678988 
L 624.676122 161.091429 
L 581.168165 269.662857 
L 530.085108 378.234286 
L 489.490429 486.805714 
L 487.106472 508.52 
L 485.690174 519.377143 
L 481.29534 541.091429 
L 472.226464 573.662857 
L 469.750738 584.52 
L 514.917762 584.52 
z
" style="fill:#d6d6d6;"/>
   </g>
   <g id="PathCollection_7">
    <path clip-path="url(#p8756e3c6fd)" d="M 303.749515 573.662857 
L 294.580332 541.091429 
L 287.899303 519.377143 
L 285.202747 508.52 
L 282.12209 486.805714 
L 275.665137 378.234286 
L 274.643796 269.662857 
L 290.697677 161.091429 
L 303.058756 52.52 
L 286.311331 52.52 
L 275.312604 161.091429 
L 259.2621 269.662857 
L 259.062942 378.234286 
L 262.734881 486.805714 
L 265.830687 508.52 
L 268.697931 519.377143 
L 275.894845 541.091429 
L 285.94672 573.662857 
L 288.483923 584.52 
L 305.962969 584.52 
z
" style="fill:#cccccc;"/>
    <path clip-path="url(#p8756e3c6fd)" d="M 562.226825 573.662857 
L 567.054771 541.091429 
L 567.265176 519.377143 
L 566.843244 508.52 
L 566.864426 486.805714 
L 606.560717 378.234286 
L 660.368 285.352103 
L 660.368 269.662857 
L 660.368 203.131431 
L 626.109182 269.662857 
L 568.322913 378.234286 
L 528.177428 486.805714 
L 526.974858 508.52 
L 526.477675 519.377143 
L 524.175055 541.091429 
L 517.226645 573.662857 
L 514.917762 584.52 
L 560.084786 584.52 
z
" style="fill:#cccccc;"/>
   </g>
   <g id="PathCollection_8">
    <path clip-path="url(#p8756e3c6fd)" d="M 285.94672 573.662857 
L 275.894845 541.091429 
L 268.697931 519.377143 
L 265.830687 508.52 
L 262.734881 486.805714 
L 259.062942 378.234286 
L 259.2621 269.662857 
L 275.312604 161.091429 
L 286.311331 52.52 
L 269.563906 52.52 
L 259.927531 161.091429 
L 243.880403 269.662857 
L 242.460746 378.234286 
L 243.347671 486.805714 
L 246.458627 508.52 
L 249.496559 519.377143 
L 257.209359 541.091429 
L 268.143924 573.662857 
L 271.004877 584.52 
L 288.483923 584.52 
z
" style="fill:#c1c1c1;"/>
    <path clip-path="url(#p8756e3c6fd)" d="M 607.227006 573.662857 
L 609.934487 541.091429 
L 608.052677 519.377143 
L 606.711631 508.52 
L 605.551425 486.805714 
L 644.798522 378.234286 
L 660.368 351.358238 
L 660.368 285.352103 
L 606.560717 378.234286 
L 566.864426 486.805714 
L 566.843244 508.52 
L 567.265176 519.377143 
L 567.054771 541.091429 
L 562.226825 573.662857 
L 560.084786 584.52 
L 605.25181 584.52 
z
" style="fill:#c1c1c1;"/>
   </g>
   <g id="PathCollection_9">
    <path clip-path="url(#p8756e3c6fd)" d="M 268.143924 573.662857 
L 257.209359 541.091429 
L 249.496559 519.377143 
L 246.458627 508.52 
L 243.347671 486.805714 
L 242.460746 378.234286 
L 243.880403 269.662857 
L 259.927531 161.091429 
L 269.563906 52.52 
L 252.816481 52.52 
L 244.542458 161.091429 
L 228.498707 269.662857 
L 225.85855 378.234286 
L 223.960462 486.805714 
L 227.086567 508.52 
L 230.295186 519.377143 
L 238.523872 541.091429 
L 250.341128 573.662857 
L 253.525831 584.52 
L 271.004877 584.52 
z
" style="fill:#b4b4b4;"/>
    <path clip-path="url(#p8756e3c6fd)" d="M 652.227186 573.662857 
L 652.814202 541.091429 
L 648.840178 519.377143 
L 646.580017 508.52 
L 644.238423 486.805714 
L 660.368 441.976655 
L 660.368 378.234286 
L 660.368 351.358238 
L 644.798522 378.234286 
L 605.551425 486.805714 
L 606.711631 508.52 
L 608.052677 519.377143 
L 609.934487 541.091429 
L 607.227006 573.662857 
L 605.25181 584.52 
L 650.418834 584.52 
z
" style="fill:#b4b4b4;"/>
   </g>
   <g id="PathCollection_10">
    <path clip-path="url(#p8756e3c6fd)" d="M 250.341128 573.662857 
L 238.523872 541.091429 
L 230.295186 519.377143 
L 227.086567 508.52 
L 223.960462 486.805714 
L 225.85855 378.234286 
L 228.498707 269.662857 
L 244.542458 161.091429 
L 252.816481 52.52 
L 236.069056 52.52 
L 229.157385 161.091429 
L 213.11701 269.662857 
L 209.256354 378.234286 
L 204.573252 486.805714 
L 207.714506 508.52 
L 211.093814 519.377143 
L 219.838386 541.091429 
L 232.538332 573.662857 
L 236.046785 584.52 
L 253.525831 584.52 
z
" style="fill:#a5a5a5;"/>
    <path clip-path="url(#p8756e3c6fd)" d="M 660.368 584.52 
L 660.368 573.662857 
L 660.368 541.091429 
L 660.368 519.377143 
L 660.368 508.52 
L 660.368 486.805714 
L 660.368 441.976655 
L 644.238423 486.805714 
L 646.580017 508.52 
L 648.840178 519.377143 
L 652.814202 541.091429 
L 652.227186 573.662857 
L 650.418834 584.52 
z
" style="fill:#a5a5a5;"/>
   </g>
   <g id="PathCollection_11">
    <path clip-path="url(#p8756e3c6fd)" d="M 232.538332 573.662857 
L 219.838386 541.091429 
L 211.093814 519.377143 
L 207.714506 508.52 
L 204.573252 486.805714 
L 209.256354 378.234286 
L 213.11701 269.662857 
L 229.157385 161.091429 
L 236.069056 52.52 
L 219.32163 52.52 
L 213.772312 161.091429 
L 197.735314 269.662857 
L 192.654159 378.234286 
L 185.186043 486.805714 
L 188.342446 508.52 
L 191.892442 519.377143 
L 201.152899 541.091429 
L 214.735536 573.662857 
L 218.567738 584.52 
L 236.046785 584.52 
z
" style="fill:#959595;"/>
   </g>
   <g id="PathCollection_12">
    <path clip-path="url(#p8756e3c6fd)" d="M 214.735536 573.662857 
L 201.152899 541.091429 
L 191.892442 519.377143 
L 188.342446 508.52 
L 185.186043 486.805714 
L 192.654159 378.234286 
L 197.735314 269.662857 
L 213.772312 161.091429 
L 219.32163 52.52 
L 202.574205 52.52 
L 198.387239 161.091429 
L 182.353618 269.662857 
L 176.051963 378.234286 
L 165.798833 486.805714 
L 168.970386 508.52 
L 172.69107 519.377143 
L 182.467413 541.091429 
L 196.93274 573.662857 
L 201.088692 584.52 
L 218.567738 584.52 
z
" style="fill:#888888;"/>
   </g>
   <g id="PathCollection_13">
    <path clip-path="url(#p8756e3c6fd)" d="M 196.93274 573.662857 
L 182.467413 541.091429 
L 172.69107 519.377143 
L 168.970386 508.52 
L 165.798833 486.805714 
L 176.051963 378.234286 
L 182.353618 269.662857 
L 198.387239 161.091429 
L 202.574205 52.52 
L 185.82678 52.52 
L 183.002166 161.091429 
L 166.971921 269.662857 
L 159.449767 378.234286 
L 146.411624 486.805714 
L 149.598325 508.52 
L 153.489698 519.377143 
L 163.781926 541.091429 
L 179.129945 573.662857 
L 183.609646 584.52 
L 201.088692 584.52 
z
" style="fill:#7b7b7b;"/>
   </g>
   <g id="PathCollection_14">
    <path clip-path="url(#p8756e3c6fd)" d="M 179.129945 573.662857 
L 163.781926 541.091429 
L 153.489698 519.377143 
L 149.598325 508.52 
L 146.411624 486.805714 
L 159.449767 378.234286 
L 166.971921 269.662857 
L 183.002166 161.091429 
L 185.82678 52.52 
L 169.079355 52.52 
L 167.617093 161.091429 
L 151.590225 269.662857 
L 142.847572 378.234286 
L 127.024415 486.805714 
L 130.226265 508.52 
L 134.288326 519.377143 
L 145.09644 541.091429 
L 161.327149 573.662857 
L 166.1306 584.52 
L 183.609646 584.52 
z
" style="fill:#6e6e6e;"/>
   </g>
   <g id="PathCollection_15">
    <path clip-path="url(#p8756e3c6fd)" d="M 161.327149 573.662857 
L 145.09644 541.091429 
L 134.288326 519.377143 
L 130.226265 508.52 
L 127.024415 486.805714 
L 142.847572 378.234286 
L 151.590225 269.662857 
L 167.617093 161.091429 
L 169.079355 52.52 
L 152.33193 52.52 
L 152.23202 161.091429 
L 136.208529 269.662857 
L 126.245376 378.234286 
L 107.637205 486.805714 
L 110.854205 508.52 
L 115.086953 519.377143 
L 126.410953 541.091429 
L 143.524353 573.662857 
L 148.651554 584.52 
L 166.1306 584.52 
z
" style="fill:#626262;"/>
   </g>
   <g id="PathCollection_16">
    <path clip-path="url(#p8756e3c6fd)" d="M 143.524353 573.662857 
L 126.410953 541.091429 
L 115.086953 519.377143 
L 110.854205 508.52 
L 107.637205 486.805714 
L 126.245376 378.234286 
L 136.208529 269.662857 
L 152.23202 161.091429 
L 152.33193 52.52 
L 135.584505 52.52 
L 136.846947 161.091429 
L 120.826832 269.662857 
L 109.64318 378.234286 
L 88.249996 486.805714 
L 91.482144 508.52 
L 95.885581 519.377143 
L 107.725467 541.091429 
L 125.721557 573.662857 
L 131.172508 584.52 
L 148.651554 584.52 
z
" style="fill:#555555;"/>
   </g>
   <g id="PathCollection_17">
    <path clip-path="url(#p8756e3c6fd)" d="M 125.721557 573.662857 
L 107.725467 541.091429 
L 95.885581 519.377143 
L 91.482144 508.52 
L 88.249996 486.805714 
L 109.64318 378.234286 
L 120.826832 269.662857 
L 136.846947 161.091429 
L 135.584505 52.52 
L 118.83708 52.52 
L 121.461874 161.091429 
L 105.445136 269.662857 
L 93.040984 378.234286 
L 68.862786 486.805714 
L 72.110084 508.52 
L 76.684209 519.377143 
L 89.03998 541.091429 
L 107.918761 573.662857 
L 113.693461 584.52 
L 131.172508 584.52 
z
" style="fill:#444444;"/>
   </g>
   <g id="PathCollection_18">
    <path clip-path="url(#p8756e3c6fd)" d="M 107.918761 573.662857 
L 89.03998 541.091429 
L 76.684209 519.377143 
L 72.110084 508.52 
L 68.862786 486.805714 
L 93.040984 378.234286 
L 105.445136 269.662857 
L 121.461874 161.091429 
L 118.83708 52.52 
L 102.089655 52.52 
L 106.076801 161.091429 
L 90.063439 269.662857 
L 76.438789 378.234286 
L 68.16 415.25534 
L 68.16 486.805714 
L 68.16 508.52 
L 68.16 519.377143 
L 68.16 537.304965 
L 70.354494 541.091429 
L 90.115966 573.662857 
L 96.214415 584.52 
L 113.693461 584.52 
z
" style="fill:#333333;"/>
   </g>
   <g id="PathCollection_19">
    <path clip-path="url(#p8756e3c6fd)" d="M 90.115966 573.662857 
L 70.354494 541.091429 
L 68.16 537.304965 
L 68.16 541.091429 
L 68.16 566.853206 
L 72.31317 573.662857 
L 78.735369 584.52 
L 96.214415 584.52 
z
" style="fill:#232323;"/>
    <path clip-path="url(#p8756e3c6fd)" d="M 76.438789 378.234286 
L 90.063439 269.662857 
L 106.076801 161.091429 
L 102.089655 52.52 
L 85.34223 52.52 
L 90.691728 161.091429 
L 74.681743 269.662857 
L 68.16 319.410768 
L 68.16 378.234286 
L 68.16 415.25534 
z
" style="fill:#232323;"/>
   </g>
   <g id="PathCollection_20">
    <path clip-path="url(#p8756e3c6fd)" d="M 72.31317 573.662857 
L 68.16 566.853206 
L 68.16 573.662857 
L 68.16 584.52 
L 78.735369 584.52 
z
" style="fill:#151515;"/>
    <path clip-path="url(#p8756e3c6fd)" d="M 74.681743 269.662857 
L 90.691728 161.091429 
L 85.34223 52.52 
L 68.594805 52.52 
L 75.306655 161.091429 
L 68.16 209.560677 
L 68.16 269.662857 
L 68.16 319.410768 
z
" style="fill:#151515;"/>
   </g>
   <g id="PathCollection_21">
    <path clip-path="url(#p8756e3c6fd)" d="M 75.306655 161.091429 
L 68.594805 52.52 
L 68.16 52.52 
L 68.16 161.091429 
L 68.16 209.560677 
z
" style="fill:#070707;"/>
   </g>
   <g id="matplotlib.axis_1">
    <g id="xtick_1">
     <g id="line2d_1">
      <defs>
       <path d="M 0 0 
L 0 3.5 
" id="m30b2151d61" style="stroke:#000000;stroke-width:0.8;"/>
      </defs>
      <g>
       <use style="stroke:#000000;stroke-width:0.8;" x="68.16" xlink:href="#m30b2151d61" y="584.52"/>
      </g>
     </g>
     <g id="text_1">
      <!-- 3.0 -->
      <defs>
       <path d="M 9.71875 69.828125 
Q 15.4375 71.96875 20.671875 73.09375 
Q 25.921875 74.21875 30.515625 74.21875 
Q 41.21875 74.21875 47.21875 69.59375 
Q 53.21875 64.984375 53.21875 56.78125 
Q 53.21875 50.203125 49.0625 45.78125 
Q 44.921875 41.359375 37.3125 39.796875 
Q 46.296875 38.53125 51.25 33.28125 
Q 56.203125 28.03125 56.203125 19.671875 
Q 56.203125 9.46875 49.34375 4.015625 
Q 42.484375 -1.421875 29.59375 -1.421875 
Q 23.875 -1.421875 18.421875 -0.1875 
Q 12.984375 1.03125 7.625 3.515625 
L 7.625 17.671875 
L 13.09375 17.671875 
Q 13.578125 10.640625 17.828125 7.03125 
Q 22.078125 3.421875 29.78125 3.421875 
Q 37.25 3.421875 41.578125 7.734375 
Q 45.90625 12.0625 45.90625 19.578125 
Q 45.90625 28.171875 41.453125 32.59375 
Q 37.015625 37.015625 28.421875 37.015625 
L 23.78125 37.015625 
L 23.78125 42 
L 26.21875 42 
Q 34.765625 42 39.03125 45.53125 
Q 43.3125 49.078125 43.3125 56.203125 
Q 43.3125 62.59375 39.796875 65.984375 
Q 36.28125 69.390625 29.6875 69.390625 
Q 23.09375 69.390625 19.453125 66.265625 
Q 15.828125 63.140625 15.1875 56.984375 
L 9.71875 56.984375 
z
" id="DejaVuSerif-33"/>
       <path d="M 9.421875 5.078125 
Q 9.421875 7.8125 11.28125 9.71875 
Q 13.140625 11.625 15.921875 11.625 
Q 18.609375 11.625 20.5 9.71875 
Q 22.40625 7.8125 22.40625 5.078125 
Q 22.40625 2.390625 20.5 0.484375 
Q 18.609375 -1.421875 15.921875 -1.421875 
Q 13.140625 -1.421875 11.28125 0.453125 
Q 9.421875 2.34375 9.421875 5.078125 
z
" id="DejaVuSerif-2e"/>
       <path d="M 31.78125 3.421875 
Q 39.265625 3.421875 42.96875 11.625 
Q 46.6875 19.828125 46.6875 36.375 
Q 46.6875 52.984375 42.96875 61.1875 
Q 39.265625 69.390625 31.78125 69.390625 
Q 24.3125 69.390625 20.59375 61.1875 
Q 16.890625 52.984375 16.890625 36.375 
Q 16.890625 19.828125 20.59375 11.625 
Q 24.3125 3.421875 31.78125 3.421875 
z
M 31.78125 -1.421875 
Q 19.921875 -1.421875 13.25 8.53125 
Q 6.59375 18.5 6.59375 36.375 
Q 6.59375 54.296875 13.25 64.25 
Q 19.921875 74.21875 31.78125 74.21875 
Q 43.703125 74.21875 50.34375 64.25 
Q 56.984375 54.296875 56.984375 36.375 
Q 56.984375 18.5 50.34375 8.53125 
Q 43.703125 -1.421875 31.78125 -1.421875 
z
" id="DejaVuSerif-30"/>
      </defs>
      <g transform="translate(62.641616 596.793316)scale(0.0694 -0.0694)">
       <use xlink:href="#DejaVuSerif-33"/>
       <use x="63.623047" xlink:href="#DejaVuSerif-2e"/>
       <use x="95.410156" xlink:href="#DejaVuSerif-30"/>
      </g>
     </g>
    </g>
    <g id="xtick_2">
     <g id="line2d_2">
      <g>
       <use style="stroke:#000000;stroke-width:0.8;" x="142.186" xlink:href="#m30b2151d61" y="584.52"/>
      </g>
     </g>
     <g id="text_2">
      <!-- 3.5 -->
      <defs>
       <path d="M 50.296875 72.90625 
L 50.296875 64.890625 
L 16.890625 64.890625 
L 16.890625 44 
Q 19.4375 45.75 22.828125 46.625 
Q 26.21875 47.515625 30.421875 47.515625 
Q 42.234375 47.515625 49.0625 40.96875 
Q 55.90625 34.421875 55.90625 23.09375 
Q 55.90625 11.53125 49 5.046875 
Q 42.09375 -1.421875 29.59375 -1.421875 
Q 24.5625 -1.421875 19.28125 -0.1875 
Q 14.015625 1.03125 8.5 3.515625 
L 8.5 17.671875 
L 14.015625 17.671875 
Q 14.453125 10.75 18.421875 7.078125 
Q 22.40625 3.421875 29.59375 3.421875 
Q 37.3125 3.421875 41.453125 8.5 
Q 45.609375 13.578125 45.609375 23.09375 
Q 45.609375 32.5625 41.484375 37.609375 
Q 37.359375 42.671875 29.59375 42.671875 
Q 25.203125 42.671875 21.84375 41.109375 
Q 18.5 39.546875 15.921875 36.28125 
L 11.71875 36.28125 
L 11.71875 72.90625 
z
" id="DejaVuSerif-35"/>
      </defs>
      <g transform="translate(136.667616 596.793316)scale(0.0694 -0.0694)">
       <use xlink:href="#DejaVuSerif-33"/>
       <use x="63.623047" xlink:href="#DejaVuSerif-2e"/>
       <use x="95.410156" xlink:href="#DejaVuSerif-35"/>
      </g>
     </g>
    </g>
    <g id="xtick_3">
     <g id="line2d_3">
      <g>
       <use style="stroke:#000000;stroke-width:0.8;" x="216.212" xlink:href="#m30b2151d61" y="584.52"/>
      </g>
     </g>
     <g id="text_3">
      <!-- 4.0 -->
      <defs>
       <path d="M 34.90625 24.703125 
L 34.90625 63.484375 
L 10.015625 24.703125 
z
M 56.390625 0 
L 23.1875 0 
L 23.1875 5.171875 
L 34.90625 5.171875 
L 34.90625 19.484375 
L 3.078125 19.484375 
L 3.078125 24.8125 
L 35.015625 74.21875 
L 44.671875 74.21875 
L 44.671875 24.703125 
L 58.59375 24.703125 
L 58.59375 19.484375 
L 44.671875 19.484375 
L 44.671875 5.171875 
L 56.390625 5.171875 
z
" id="DejaVuSerif-34"/>
      </defs>
      <g transform="translate(210.693616 596.793316)scale(0.0694 -0.0694)">
       <use xlink:href="#DejaVuSerif-34"/>
       <use x="63.623047" xlink:href="#DejaVuSerif-2e"/>
       <use x="95.410156" xlink:href="#DejaVuSerif-30"/>
      </g>
     </g>
    </g>
    <g id="xtick_4">
     <g id="line2d_4">
      <g>
       <use style="stroke:#000000;stroke-width:0.8;" x="290.238" xlink:href="#m30b2151d61" y="584.52"/>
      </g>
     </g>
     <g id="text_4">
      <!-- 4.5 -->
      <g transform="translate(284.719616 596.793316)scale(0.0694 -0.0694)">
       <use xlink:href="#DejaVuSerif-34"/>
       <use x="63.623047" xlink:href="#DejaVuSerif-2e"/>
       <use x="95.410156" xlink:href="#DejaVuSerif-35"/>
      </g>
     </g>
    </g>
    <g id="xtick_5">
     <g id="line2d_5">
      <g>
       <use style="stroke:#000000;stroke-width:0.8;" x="364.264" xlink:href="#m30b2151d61" y="584.52"/>
      </g>
     </g>
     <g id="text_5">
      <!-- 5.0 -->
      <g transform="translate(358.745616 596.793316)scale(0.0694 -0.0694)">
       <use xlink:href="#DejaVuSerif-35"/>
       <use x="63.623047" xlink:href="#DejaVuSerif-2e"/>
       <use x="95.410156" xlink:href="#DejaVuSerif-30"/>
      </g>
     </g>
    </g>
    <g id="xtick_6">
     <g id="line2d_6">
      <g>
       <use style="stroke:#000000;stroke-width:0.8;" x="438.29" xlink:href="#m30b2151d61" y="584.52"/>
      </g>
     </g>
     <g id="text_6">
      <!-- 5.5 -->
      <g transform="translate(432.771616 596.793316)scale(0.0694 -0.0694)">
       <use xlink:href="#DejaVuSerif-35"/>
       <use x="63.623047" xlink:href="#DejaVuSerif-2e"/>
       <use x="95.410156" xlink:href="#DejaVuSerif-35"/>
      </g>
     </g>
    </g>
    <g id="xtick_7">
     <g id="line2d_7">
      <g>
       <use style="stroke:#000000;stroke-width:0.8;" x="512.316" xlink:href="#m30b2151d61" y="584.52"/>
      </g>
     </g>
     <g id="text_7">
      <!-- 6.0 -->
      <defs>
       <path d="M 32.71875 3.421875 
Q 39.59375 3.421875 43.296875 8.46875 
Q 47.015625 13.53125 47.015625 23 
Q 47.015625 32.46875 43.296875 37.515625 
Q 39.59375 42.578125 32.71875 42.578125 
Q 25.734375 42.578125 22.0625 37.6875 
Q 18.40625 32.8125 18.40625 23.578125 
Q 18.40625 13.875 22.109375 8.640625 
Q 25.828125 3.421875 32.71875 3.421875 
z
M 16.796875 40.140625 
Q 20.125 43.796875 24.3125 45.59375 
Q 28.515625 47.40625 33.796875 47.40625 
Q 44.671875 47.40625 51 40.859375 
Q 57.328125 34.328125 57.328125 23 
Q 57.328125 11.921875 50.515625 5.25 
Q 43.703125 -1.421875 32.328125 -1.421875 
Q 19.96875 -1.421875 13.328125 7.78125 
Q 6.6875 17 6.6875 34.078125 
Q 6.6875 53.21875 14.546875 63.71875 
Q 22.40625 74.21875 36.71875 74.21875 
Q 40.578125 74.21875 44.828125 73.484375 
Q 49.078125 72.75 53.515625 71.296875 
L 53.515625 59.28125 
L 48 59.28125 
Q 47.40625 64.203125 44.234375 66.796875 
Q 41.0625 69.390625 35.6875 69.390625 
Q 26.21875 69.390625 21.578125 62.203125 
Q 16.9375 55.03125 16.796875 40.140625 
z
" id="DejaVuSerif-36"/>
      </defs>
      <g transform="translate(506.797616 596.793316)scale(0.0694 -0.0694)">
       <use xlink:href="#DejaVuSerif-36"/>
       <use x="63.623047" xlink:href="#DejaVuSerif-2e"/>
       <use x="95.410156" xlink:href="#DejaVuSerif-30"/>
      </g>
     </g>
    </g>
    <g id="xtick_8">
     <g id="line2d_8">
      <g>
       <use style="stroke:#000000;stroke-width:0.8;" x="586.342" xlink:href="#m30b2151d61" y="584.52"/>
      </g>
     </g>
     <g id="text_8">
      <!-- 6.5 -->
      <g transform="translate(580.823616 596.793316)scale(0.0694 -0.0694)">
       <use xlink:href="#DejaVuSerif-36"/>
       <use x="63.623047" xlink:href="#DejaVuSerif-2e"/>
       <use x="95.410156" xlink:href="#DejaVuSerif-35"/>
      </g>
     </g>
    </g>
    <g id="xtick_9">
     <g id="line2d_9">
      <g>
       <use style="stroke:#000000;stroke-width:0.8;" x="660.368" xlink:href="#m30b2151d61" y="584.52"/>
      </g>
     </g>
     <g id="text_9">
      <!-- 7.0 -->
      <defs>
       <path d="M 56.390625 67.921875 
L 27.875 0 
L 20.609375 0 
L 47.796875 64.890625 
L 14.109375 64.890625 
L 14.109375 55.90625 
L 8.40625 55.90625 
L 8.40625 72.90625 
L 56.390625 72.90625 
z
" id="DejaVuSerif-37"/>
      </defs>
      <g transform="translate(654.849616 596.793316)scale(0.0694 -0.0694)">
       <use xlink:href="#DejaVuSerif-37"/>
       <use x="63.623047" xlink:href="#DejaVuSerif-2e"/>
       <use x="95.410156" xlink:href="#DejaVuSerif-30"/>
      </g>
     </g>
    </g>
   </g>
   <g id="matplotlib.axis_2">
    <g id="ytick_1">
     <g id="line2d_10">
      <defs>
       <path d="M 0 0 
L -3.5 0 
" id="m89e32cd9cb" style="stroke:#000000;stroke-width:0.8;"/>
      </defs>
      <g>
       <use style="stroke:#000000;stroke-width:0.8;" x="68.16" xlink:href="#m89e32cd9cb" y="486.805714"/>
      </g>
     </g>
     <g id="text_10">
      <!-- 0.01 -->
      <defs>
       <path d="M 14.203125 0 
L 14.203125 5.171875 
L 26.90625 5.171875 
L 26.90625 65.828125 
L 12.203125 56.296875 
L 12.203125 62.703125 
L 29.984375 74.21875 
L 36.71875 74.21875 
L 36.71875 5.171875 
L 49.421875 5.171875 
L 49.421875 0 
z
" id="DejaVuSerif-31"/>
      </defs>
      <g transform="translate(45.707656 489.442372)scale(0.0694 -0.0694)">
       <use xlink:href="#DejaVuSerif-30"/>
       <use x="63.623047" xlink:href="#DejaVuSerif-2e"/>
       <use x="95.410156" xlink:href="#DejaVuSerif-30"/>
       <use x="159.033203" xlink:href="#DejaVuSerif-31"/>
      </g>
     </g>
    </g>
    <g id="ytick_2">
     <g id="line2d_11">
      <g>
       <use style="stroke:#000000;stroke-width:0.8;" x="68.16" xlink:href="#m89e32cd9cb" y="378.234286"/>
      </g>
     </g>
     <g id="text_11">
      <!-- 0.02 -->
      <defs>
       <path d="M 12.796875 55.515625 
L 7.328125 55.515625 
L 7.328125 68.5 
Q 12.546875 71.296875 17.84375 72.75 
Q 23.140625 74.21875 28.21875 74.21875 
Q 39.59375 74.21875 46.1875 68.703125 
Q 52.78125 63.1875 52.78125 53.71875 
Q 52.78125 43.015625 37.84375 28.125 
Q 36.671875 27 36.078125 26.421875 
L 17.671875 8.015625 
L 48.09375 8.015625 
L 48.09375 17 
L 53.8125 17 
L 53.8125 0 
L 6.78125 0 
L 6.78125 5.328125 
L 28.90625 27.390625 
Q 36.234375 34.71875 39.359375 40.84375 
Q 42.484375 46.96875 42.484375 53.71875 
Q 42.484375 61.078125 38.640625 65.234375 
Q 34.8125 69.390625 28.078125 69.390625 
Q 21.09375 69.390625 17.28125 65.921875 
Q 13.484375 62.453125 12.796875 55.515625 
z
" id="DejaVuSerif-32"/>
      </defs>
      <g transform="translate(45.707656 380.870944)scale(0.0694 -0.0694)">
       <use xlink:href="#DejaVuSerif-30"/>
       <use x="63.623047" xlink:href="#DejaVuSerif-2e"/>
       <use x="95.410156" xlink:href="#DejaVuSerif-30"/>
       <use x="159.033203" xlink:href="#DejaVuSerif-32"/>
      </g>
     </g>
    </g>
    <g id="ytick_3">
     <g id="line2d_12">
      <g>
       <use style="stroke:#000000;stroke-width:0.8;" x="68.16" xlink:href="#m89e32cd9cb" y="269.662857"/>
      </g>
     </g>
     <g id="text_12">
      <!-- 0.03 -->
      <g transform="translate(45.707656 272.299515)scale(0.0694 -0.0694)">
       <use xlink:href="#DejaVuSerif-30"/>
       <use x="63.623047" xlink:href="#DejaVuSerif-2e"/>
       <use x="95.410156" xlink:href="#DejaVuSerif-30"/>
       <use x="159.033203" xlink:href="#DejaVuSerif-33"/>
      </g>
     </g>
    </g>
    <g id="ytick_4">
     <g id="line2d_13">
      <g>
       <use style="stroke:#000000;stroke-width:0.8;" x="68.16" xlink:href="#m89e32cd9cb" y="161.091429"/>
      </g>
     </g>
     <g id="text_13">
      <!-- 0.04 -->
      <g transform="translate(45.707656 163.728086)scale(0.0694 -0.0694)">
       <use xlink:href="#DejaVuSerif-30"/>
       <use x="63.623047" xlink:href="#DejaVuSerif-2e"/>
       <use x="95.410156" xlink:href="#DejaVuSerif-30"/>
       <use x="159.033203" xlink:href="#DejaVuSerif-34"/>
      </g>
     </g>
    </g>
    <g id="ytick_5">
     <g id="line2d_14">
      <g>
       <use style="stroke:#000000;stroke-width:0.8;" x="68.16" xlink:href="#m89e32cd9cb" y="52.52"/>
      </g>
     </g>
     <g id="text_14">
      <!-- 0.05 -->
      <g transform="translate(45.707656 55.156658)scale(0.0694 -0.0694)">
       <use xlink:href="#DejaVuSerif-30"/>
       <use x="63.623047" xlink:href="#DejaVuSerif-2e"/>
       <use x="95.410156" xlink:href="#DejaVuSerif-30"/>
       <use x="159.033203" xlink:href="#DejaVuSerif-35"/>
      </g>
     </g>
    </g>
   </g>
   <g id="patch_3">
    <path d="M 68.16 584.52 
L 68.16 52.52 
" style="fill:none;stroke:#000000;stroke-linecap:square;stroke-linejoin:miter;stroke-width:0.8;"/>
   </g>
   <g id="patch_4">
    <path d="M 660.368 584.52 
L 660.368 52.52 
" style="fill:none;stroke:#000000;stroke-linecap:square;stroke-linejoin:miter;stroke-width:0.8;"/>
   </g>
   <g id="patch_5">
    <path d="M 68.16 584.52 
L 660.368 584.52 
" style="fill:none;stroke:#000000;stroke-linecap:square;stroke-linejoin:miter;stroke-width:0.8;"/>
   </g>
   <g id="patch_6">
    <path d="M 68.16 52.52 
L 660.368 52.52 
" style="fill:none;stroke:#000000;stroke-linecap:square;stroke-linejoin:miter;stroke-width:0.8;"/>
   </g>
  </g>
  <g id="axes_2">
   <g id="patch_7">
    <path clip-path="url(#pff15a136d1)" d="M 697.381 584.52 
L 697.381 559.186667 
L 697.381 77.853333 
L 697.381 52.52 
L 723.981 52.52 
L 723.981 77.853333 
L 723.981 559.186667 
L 723.981 584.52 
z
" style="fill:#ffffff;stroke:#ffffff;stroke-linejoin:miter;stroke-width:0.01;"/>
   </g>
   <g id="QuadMesh_1">
    <path clip-path="url(#pff15a136d1)" d="M 697.381 584.52 
L 723.981 584.52 
L 723.981 559.186667 
L 697.381 559.186667 
L 697.381 584.52 
" style="fill:#fcfcfc;"/>
    <path clip-path="url(#pff15a136d1)" d="M 697.381 559.186667 
L 723.981 559.186667 
L 723.981 533.853333 
L 697.381 533.853333 
L 697.381 559.186667 
" style="fill:#f7f7f7;"/>
    <path clip-path="url(#pff15a136d1)" d="M 697.381 533.853333 
L 723.981 533.853333 
L 723.981 508.52 
L 697.381 508.52 
L 697.381 533.853333 
" style="fill:#f1f1f1;"/>
    <path clip-path="url(#pff15a136d1)" d="M 697.381 508.52 
L 723.981 508.52 
L 723.981 483.186667 
L 697.381 483.186667 
L 697.381 508.52 
" style="fill:#e9e9e9;"/>
    <path clip-path="url(#pff15a136d1)" d="M 697.381 483.186667 
L 723.981 483.186667 
L 723.981 457.853333 
L 697.381 457.853333 
L 697.381 483.186667 
" style="fill:#e0e0e0;"/>
    <path clip-path="url(#pff15a136d1)" d="M 697.381 457.853333 
L 723.981 457.853333 
L 723.981 432.52 
L 697.381 432.52 
L 697.381 457.853333 
" style="fill:#d6d6d6;"/>
    <path clip-path="url(#pff15a136d1)" d="M 697.381 432.52 
L 723.981 432.52 
L 723.981 407.186667 
L 697.381 407.186667 
L 697.381 432.52 
" style="fill:#cccccc;"/>
    <path clip-path="url(#pff15a136d1)" d="M 697.381 407.186667 
L 723.981 407.186667 
L 723.981 381.853333 
L 697.381 381.853333 
L 697.381 407.186667 
" style="fill:#c1c1c1;"/>
    <path clip-path="url(#pff15a136d1)" d="M 697.381 381.853333 
L 723.981 381.853333 
L 723.981 356.52 
L 697.381 356.52 
L 697.381 381.853333 
" style="fill:#b4b4b4;"/>
    <path clip-path="url(#pff15a136d1)" d="M 697.381 356.52 
L 723.981 356.52 
L 723.981 331.186667 
L 697.381 331.186667 
L 697.381 356.52 
" style="fill:#a5a5a5;"/>
    <path clip-path="url(#pff15a136d1)" d="M 697.381 331.186667 
L 723.981 331.186667 
L 723.981 305.853333 
L 697.381 305.853333 
L 697.381 331.186667 
" style="fill:#959595;"/>
    <path clip-path="url(#pff15a136d1)" d="M 697.381 305.853333 
L 723.981 305.853333 
L 723.981 280.52 
L 697.381 280.52 
L 697.381 305.853333 
" style="fill:#888888;"/>
    <path clip-path="url(#pff15a136d1)" d="M 697.381 280.52 
L 723.981 280.52 
L 723.981 255.186667 
L 697.381 255.186667 
L 697.381 280.52 
" style="fill:#7b7b7b;"/>
    <path clip-path="url(#pff15a136d1)" d="M 697.381 255.186667 
L 723.981 255.186667 
L 723.981 229.853333 
L 697.381 229.853333 
L 697.381 255.186667 
" style="fill:#6e6e6e;"/>
    <path clip-path="url(#pff15a136d1)" d="M 697.381 229.853333 
L 723.981 229.853333 
L 723.981 204.52 
L 697.381 204.52 
L 697.381 229.853333 
" style="fill:#626262;"/>
    <path clip-path="url(#pff15a136d1)" d="M 697.381 204.52 
L 723.981 204.52 
L 723.981 179.186667 
L 697.381 179.186667 
L 697.381 204.52 
" style="fill:#555555;"/>
    <path clip-path="url(#pff15a136d1)" d="M 697.381 179.186667 
L 723.981 179.186667 
L 723.981 153.853333 
L 697.381 153.853333 
L 697.381 179.186667 
" style="fill:#444444;"/>
    <path clip-path="url(#pff15a136d1)" d="M 697.381 153.853333 
L 723.981 153.853333 
L 723.981 128.52 
L 697.381 128.52 
L 697.381 153.853333 
" style="fill:#333333;"/>
    <path clip-path="url(#pff15a136d1)" d="M 697.381 128.52 
L 723.981 128.52 
L 723.981 103.186667 
L 697.381 103.186667 
L 697.381 128.52 
" style="fill:#232323;"/>
    <path clip-path="url(#pff15a136d1)" d="M 697.381 103.186667 
L 723.981 103.186667 
L 723.981 77.853333 
L 697.381 77.853333 
L 697.381 103.186667 
" style="fill:#151515;"/>
    <path clip-path="url(#pff15a136d1)" d="M 697.381 77.853333 
L 723.981 77.853333 
L 723.981 52.52 
L 697.381 52.52 
L 697.381 77.853333 
" style="fill:#070707;"/>
   </g>
   <g id="matplotlib.axis_3"/>
   <g id="matplotlib.axis_4">
    <g id="ytick_6">
     <g id="line2d_15">
      <defs>
       <path d="M 0 0 
L 3.5 0 
" id="m4ab8aded67" style="stroke:#000000;stroke-width:0.8;"/>
      </defs>
      <g>
       <use style="stroke:#000000;stroke-width:0.8;" x="723.981" xlink:href="#m4ab8aded67" y="584.52"/>
      </g>
     </g>
     <g id="text_15">
      <!-- −0.00270 -->
      <defs>
       <path d="M 10.59375 35.296875 
L 73.1875 35.296875 
L 73.1875 27.390625 
L 10.59375 27.390625 
z
" id="DejaVuSerif-2212"/>
      </defs>
      <g transform="translate(730.981 587.156658)scale(0.0694 -0.0694)">
       <use xlink:href="#DejaVuSerif-2212"/>
       <use x="83.789062" xlink:href="#DejaVuSerif-30"/>
       <use x="147.412109" xlink:href="#DejaVuSerif-2e"/>
       <use x="179.199219" xlink:href="#DejaVuSerif-30"/>
       <use x="242.822266" xlink:href="#DejaVuSerif-30"/>
       <use x="306.445312" xlink:href="#DejaVuSerif-32"/>
       <use x="370.068359" xlink:href="#DejaVuSerif-37"/>
       <use x="433.691406" xlink:href="#DejaVuSerif-30"/>
      </g>
     </g>
    </g>
    <g id="ytick_7">
     <g id="line2d_16">
      <g>
       <use style="stroke:#000000;stroke-width:0.8;" x="723.981" xlink:href="#m4ab8aded67" y="508.52"/>
      </g>
     </g>
     <g id="text_16">
      <!-- −0.00255 -->
      <g transform="translate(730.981 511.156658)scale(0.0694 -0.0694)">
       <use xlink:href="#DejaVuSerif-2212"/>
       <use x="83.789062" xlink:href="#DejaVuSerif-30"/>
       <use x="147.412109" xlink:href="#DejaVuSerif-2e"/>
       <use x="179.199219" xlink:href="#DejaVuSerif-30"/>
       <use x="242.822266" xlink:href="#DejaVuSerif-30"/>
       <use x="306.445312" xlink:href="#DejaVuSerif-32"/>
       <use x="370.068359" xlink:href="#DejaVuSerif-35"/>
       <use x="433.691406" xlink:href="#DejaVuSerif-35"/>
      </g>
     </g>
    </g>
    <g id="ytick_8">
     <g id="line2d_17">
      <g>
       <use style="stroke:#000000;stroke-width:0.8;" x="723.981" xlink:href="#m4ab8aded67" y="432.52"/>
      </g>
     </g>
     <g id="text_17">
      <!-- −0.00240 -->
      <g transform="translate(730.981 435.156658)scale(0.0694 -0.0694)">
       <use xlink:href="#DejaVuSerif-2212"/>
       <use x="83.789062" xlink:href="#DejaVuSerif-30"/>
       <use x="147.412109" xlink:href="#DejaVuSerif-2e"/>
       <use x="179.199219" xlink:href="#DejaVuSerif-30"/>
       <use x="242.822266" xlink:href="#DejaVuSerif-30"/>
       <use x="306.445312" xlink:href="#DejaVuSerif-32"/>
       <use x="370.068359" xlink:href="#DejaVuSerif-34"/>
       <use x="433.691406" xlink:href="#DejaVuSerif-30"/>
      </g>
     </g>
    </g>
    <g id="ytick_9">
     <g id="line2d_18">
      <g>
       <use style="stroke:#000000;stroke-width:0.8;" x="723.981" xlink:href="#m4ab8aded67" y="356.52"/>
      </g>
     </g>
     <g id="text_18">
      <!-- −0.00225 -->
      <g transform="translate(730.981 359.156658)scale(0.0694 -0.0694)">
       <use xlink:href="#DejaVuSerif-2212"/>
       <use x="83.789062" xlink:href="#DejaVuSerif-30"/>
       <use x="147.412109" xlink:href="#DejaVuSerif-2e"/>
       <use x="179.199219" xlink:href="#DejaVuSerif-30"/>
       <use x="242.822266" xlink:href="#DejaVuSerif-30"/>
       <use x="306.445312" xlink:href="#DejaVuSerif-32"/>
       <use x="370.068359" xlink:href="#DejaVuSerif-32"/>
       <use x="433.691406" xlink:href="#DejaVuSerif-35"/>
      </g>
     </g>
    </g>
    <g id="ytick_10">
     <g id="line2d_19">
      <g>
       <use style="stroke:#000000;stroke-width:0.8;" x="723.981" xlink:href="#m4ab8aded67" y="280.52"/>
      </g>
     </g>
     <g id="text_19">
      <!-- −0.00210 -->
      <g transform="translate(730.981 283.156658)scale(0.0694 -0.0694)">
       <use xlink:href="#DejaVuSerif-2212"/>
       <use x="83.789062" xlink:href="#DejaVuSerif-30"/>
       <use x="147.412109" xlink:href="#DejaVuSerif-2e"/>
       <use x="179.199219" xlink:href="#DejaVuSerif-30"/>
       <use x="242.822266" xlink:href="#DejaVuSerif-30"/>
       <use x="306.445312" xlink:href="#DejaVuSerif-32"/>
       <use x="370.068359" xlink:href="#DejaVuSerif-31"/>
       <use x="433.691406" xlink:href="#DejaVuSerif-30"/>
      </g>
     </g>
    </g>
    <g id="ytick_11">
     <g id="line2d_20">
      <g>
       <use style="stroke:#000000;stroke-width:0.8;" x="723.981" xlink:href="#m4ab8aded67" y="204.52"/>
      </g>
     </g>
     <g id="text_20">
      <!-- −0.00195 -->
      <defs>
       <path d="M 46.78125 32.671875 
Q 43.5 29 39.25 27.1875 
Q 35.015625 25.390625 29.6875 25.390625 
Q 18.84375 25.390625 12.5625 31.9375 
Q 6.296875 38.484375 6.296875 49.8125 
Q 6.296875 60.890625 13.109375 67.546875 
Q 19.921875 74.21875 31.296875 74.21875 
Q 43.65625 74.21875 50.265625 65.015625 
Q 56.890625 55.8125 56.890625 38.71875 
Q 56.890625 19.578125 49.015625 9.078125 
Q 41.15625 -1.421875 26.90625 -1.421875 
Q 23.046875 -1.421875 18.796875 -0.6875 
Q 14.546875 0.046875 10.109375 1.515625 
L 10.109375 13.625 
L 15.578125 13.625 
Q 16.21875 8.6875 19.390625 6.046875 
Q 22.5625 3.421875 27.875 3.421875 
Q 37.359375 3.421875 41.984375 10.5625 
Q 46.625 17.71875 46.78125 32.671875 
z
M 30.90625 69.390625 
Q 23.96875 69.390625 20.28125 64.328125 
Q 16.609375 59.28125 16.609375 49.8125 
Q 16.609375 40.328125 20.28125 35.25 
Q 23.96875 30.171875 30.90625 30.171875 
Q 37.84375 30.171875 41.53125 35.078125 
Q 45.21875 39.984375 45.21875 49.21875 
Q 45.21875 58.9375 41.5 64.15625 
Q 37.796875 69.390625 30.90625 69.390625 
z
" id="DejaVuSerif-39"/>
      </defs>
      <g transform="translate(730.981 207.156658)scale(0.0694 -0.0694)">
       <use xlink:href="#DejaVuSerif-2212"/>
       <use x="83.789062" xlink:href="#DejaVuSerif-30"/>
       <use x="147.412109" xlink:href="#DejaVuSerif-2e"/>
       <use x="179.199219" xlink:href="#DejaVuSerif-30"/>
       <use x="242.822266" xlink:href="#DejaVuSerif-30"/>
       <use x="306.445312" xlink:href="#DejaVuSerif-31"/>
       <use x="370.068359" xlink:href="#DejaVuSerif-39"/>
       <use x="433.691406" xlink:href="#DejaVuSerif-35"/>
      </g>
     </g>
    </g>
    <g id="ytick_12">
     <g id="line2d_21">
      <g>
       <use style="stroke:#000000;stroke-width:0.8;" x="723.981" xlink:href="#m4ab8aded67" y="128.52"/>
      </g>
     </g>
     <g id="text_21">
      <!-- −0.00180 -->
      <defs>
       <path d="M 46.578125 19.921875 
Q 46.578125 27.734375 42.6875 32.046875 
Q 38.8125 36.375 31.78125 36.375 
Q 24.75 36.375 20.875 32.046875 
Q 17 27.734375 17 19.921875 
Q 17 12.0625 20.875 7.734375 
Q 24.75 3.421875 31.78125 3.421875 
Q 38.8125 3.421875 42.6875 7.734375 
Q 46.578125 12.0625 46.578125 19.921875 
z
M 44.578125 55.328125 
Q 44.578125 61.96875 41.203125 65.671875 
Q 37.84375 69.390625 31.78125 69.390625 
Q 25.78125 69.390625 22.390625 65.671875 
Q 19 61.96875 19 55.328125 
Q 19 48.640625 22.390625 44.921875 
Q 25.78125 41.21875 31.78125 41.21875 
Q 37.84375 41.21875 41.203125 44.921875 
Q 44.578125 48.640625 44.578125 55.328125 
z
M 39.3125 38.8125 
Q 47.609375 37.703125 52.25 32.6875 
Q 56.890625 27.6875 56.890625 19.921875 
Q 56.890625 9.671875 50.390625 4.125 
Q 43.890625 -1.421875 31.78125 -1.421875 
Q 19.734375 -1.421875 13.203125 4.125 
Q 6.6875 9.671875 6.6875 19.921875 
Q 6.6875 27.6875 11.328125 32.6875 
Q 15.96875 37.703125 24.3125 38.8125 
Q 16.9375 40.140625 13 44.40625 
Q 9.078125 48.6875 9.078125 55.328125 
Q 9.078125 64.109375 15.125 69.15625 
Q 21.1875 74.21875 31.78125 74.21875 
Q 42.390625 74.21875 48.4375 69.15625 
Q 54.5 64.109375 54.5 55.328125 
Q 54.5 48.6875 50.5625 44.40625 
Q 46.625 40.140625 39.3125 38.8125 
z
" id="DejaVuSerif-38"/>
      </defs>
      <g transform="translate(730.981 131.156658)scale(0.0694 -0.0694)">
       <use xlink:href="#DejaVuSerif-2212"/>
       <use x="83.789062" xlink:href="#DejaVuSerif-30"/>
       <use x="147.412109" xlink:href="#DejaVuSerif-2e"/>
       <use x="179.199219" xlink:href="#DejaVuSerif-30"/>
       <use x="242.822266" xlink:href="#DejaVuSerif-30"/>
       <use x="306.445312" xlink:href="#DejaVuSerif-31"/>
       <use x="370.068359" xlink:href="#DejaVuSerif-38"/>
       <use x="433.691406" xlink:href="#DejaVuSerif-30"/>
      </g>
     </g>
    </g>
    <g id="ytick_13">
     <g id="line2d_22">
      <g>
       <use style="stroke:#000000;stroke-width:0.8;" x="723.981" xlink:href="#m4ab8aded67" y="52.52"/>
      </g>
     </g>
     <g id="text_22">
      <!-- −0.00165 -->
      <g transform="translate(730.981 55.156658)scale(0.0694 -0.0694)">
       <use xlink:href="#DejaVuSerif-2212"/>
       <use x="83.789062" xlink:href="#DejaVuSerif-30"/>
       <use x="147.412109" xlink:href="#DejaVuSerif-2e"/>
       <use x="179.199219" xlink:href="#DejaVuSerif-30"/>
       <use x="242.822266" xlink:href="#DejaVuSerif-30"/>
       <use x="306.445312" xlink:href="#DejaVuSerif-31"/>
       <use x="370.068359" xlink:href="#DejaVuSerif-36"/>
       <use x="433.691406" xlink:href="#DejaVuSerif-35"/>
      </g>
     </g>
    </g>
    <g id="text_23">
     <!-- −3.95e1 -->
     <defs>
      <path d="M 54.203125 25 
L 15.484375 25 
L 15.484375 24.609375 
Q 15.484375 14.109375 19.4375 8.765625 
Q 23.390625 3.421875 31.109375 3.421875 
Q 37.015625 3.421875 40.796875 6.515625 
Q 44.578125 9.625 46.09375 15.71875 
L 53.328125 15.71875 
Q 51.171875 7.171875 45.375 2.875 
Q 39.59375 -1.421875 30.171875 -1.421875 
Q 18.796875 -1.421875 11.890625 6.078125 
Q 4.984375 13.578125 4.984375 25.984375 
Q 4.984375 38.28125 11.765625 45.796875 
Q 18.5625 53.328125 29.59375 53.328125 
Q 41.359375 53.328125 47.65625 46.0625 
Q 53.953125 38.8125 54.203125 25 
z
M 43.609375 30.171875 
Q 43.3125 39.265625 39.765625 43.875 
Q 36.234375 48.484375 29.59375 48.484375 
Q 23.390625 48.484375 19.828125 43.84375 
Q 16.265625 39.203125 15.484375 30.171875 
z
" id="DejaVuSerif-65"/>
     </defs>
     <g transform="translate(694.189966 49.52)scale(0.0694 -0.0694)">
      <use xlink:href="#DejaVuSerif-2212"/>
      <use x="83.789062" xlink:href="#DejaVuSerif-33"/>
      <use x="147.412109" xlink:href="#DejaVuSerif-2e"/>
      <use x="179.199219" xlink:href="#DejaVuSerif-39"/>
      <use x="242.822266" xlink:href="#DejaVuSerif-35"/>
      <use x="306.445312" xlink:href="#DejaVuSerif-65"/>
      <use x="365.625" xlink:href="#DejaVuSerif-31"/>
     </g>
    </g>
   </g>
   <g id="patch_8">
    <path d="M 697.381 584.52 
L 697.381 559.186667 
L 697.381 77.853333 
L 697.381 52.52 
L 723.981 52.52 
L 723.981 77.853333 
L 723.981 559.186667 
L 723.981 584.52 
z
" style="fill:none;stroke:#000000;stroke-linejoin:miter;stroke-width:0.8;"/>
   </g>
  </g>
 </g>
 <defs>
  <clipPath id="p8756e3c6fd">
   <rect height="532" width="592.208" x="68.16" y="52.52"/>
  </clipPath>
  <clipPath id="pff15a136d1">
   <rect height="532" width="26.6" x="697.381" y="52.52"/>
  </clipPath>
 </defs>
</svg>
