<?xml version="1.0" encoding="utf-8" standalone="no"?>
<!DOCTYPE svg PUBLIC "-//W3C//DTD SVG 1.1//EN"
  "http://www.w3.org/Graphics/SVG/1.1/DTD/svg11.dtd">
<!-- Created with matplotlib (http://matplotlib.org/) -->
<svg height="648pt" version="1.1" viewBox="0 0 864 648" width="864pt" xmlns="http://www.w3.org/2000/svg" xmlns:xlink="http://www.w3.org/1999/xlink">
 <defs>
  <style type="text/css">
*{stroke-linecap:butt;stroke-linejoin:round;}
  </style>
 </defs>
 <g id="figure_1">
  <g id="patch_1">
   <path d="M 0 648 
L 864 648 
L 864 0 
L 0 0 
z
" style="fill:#ffffff;"/>
  </g>
  <g id="axes_1">
   <g id="patch_2">
    <path d="M 68.16 584.52 
L 660.368 584.52 
L 660.368 52.52 
L 68.16 52.52 
z
" style="fill:#ffffff;"/>
   </g>
   <g id="PathCollection_1">
    <path clip-path="url(#pd249e02a88)" d="M 364.264 386.663569 
L 367.528579 378.234286 
L 390.11498 269.662857 
L 364.264 209.885489 
L 355.416138 269.662857 
L 362.846576 378.234286 
z
" style="fill:#fcfcfc;"/>
   </g>
   <g id="PathCollection_2">
    <path clip-path="url(#pd249e02a88)" d="M 364.264 509.14272 
L 364.502172 508.52 
L 370.519206 486.805714 
L 412.495231 378.234286 
L 442.964435 269.662857 
L 412.910853 161.091429 
L 364.264 93.038837 
L 353.395327 161.091429 
L 337.327668 269.662857 
L 343.322829 378.234286 
L 361.129329 486.805714 
L 364.148272 508.52 
z
M 362.846576 378.234286 
L 355.416138 269.662857 
L 364.264 209.885489 
L 390.11498 269.662857 
L 367.528579 378.234286 
L 364.264 386.663569 
z
" style="fill:#f5f5f5;"/>
   </g>
   <g id="PathCollection_3">
    <path clip-path="url(#pd249e02a88)" d="M 364.264 584.52 
L 383.967166 584.52 
L 386.759813 573.662857 
L 399.855964 541.091428 
L 408.224427 519.377143 
L 411.38635 508.52 
L 416.014096 486.805714 
L 457.461883 378.234286 
L 495.81389 269.662857 
L 493.890416 161.091429 
L 461.539929 52.52 
L 364.264 52.52 
L 351.613759 52.52 
L 335.302886 161.091429 
L 319.239198 269.662857 
L 323.799083 378.234286 
L 338.330481 486.805714 
L 341.367237 508.52 
L 343.568921 519.377143 
L 348.754262 541.091428 
L 355.364295 573.662857 
L 356.639134 584.52 
z
M 364.148272 508.52 
L 361.129329 486.805714 
L 343.322829 378.234286 
L 337.327668 269.662857 
L 353.395327 161.091429 
L 364.264 93.038837 
L 412.910853 161.091429 
L 442.964435 269.662857 
L 412.495231 378.234286 
L 370.519206 486.805714 
L 364.502172 508.52 
L 364.264 509.14272 
z
" style="fill:#eeeeee;"/>
   </g>
   <g id="PathCollection_4">
    <path clip-path="url(#pd249e02a88)" d="M 355.364295 573.662857 
L 348.754262 541.091428 
L 343.568921 519.377143 
L 341.367237 508.52 
L 338.330481 486.805714 
L 323.799083 378.234286 
L 319.239198 269.662857 
L 335.302886 161.091429 
L 351.613759 52.52 
L 331.919226 52.52 
L 317.210444 161.091429 
L 301.150729 269.662857 
L 304.275336 378.234286 
L 315.531633 486.805714 
L 318.586201 508.52 
L 320.988612 519.377143 
L 326.78062 541.091428 
L 334.428676 573.662857 
L 336.084234 584.52 
L 356.639134 584.52 
z
" style="fill:#e4e4e4;"/>
    <path clip-path="url(#pd249e02a88)" d="M 439.678843 573.662857 
L 450.281386 541.091428 
L 456.189454 519.377143 
L 458.270528 508.52 
L 461.508985 486.805714 
L 502.428536 378.234286 
L 548.663345 269.662857 
L 574.86998 161.091429 
L 612.983992 52.52 
L 461.539929 52.52 
L 493.890416 161.091429 
L 495.81389 269.662857 
L 457.461883 378.234286 
L 416.014096 486.805714 
L 411.38635 508.52 
L 408.224427 519.377143 
L 399.855964 541.091428 
L 386.759813 573.662857 
L 383.967166 584.52 
L 437.082408 584.52 
z
" style="fill:#e4e4e4;"/>
   </g>
   <g id="PathCollection_5">
    <path clip-path="url(#pd249e02a88)" d="M 334.428676 573.662857 
L 326.78062 541.091428 
L 320.988612 519.377143 
L 318.586201 508.52 
L 315.531633 486.805714 
L 304.275336 378.234286 
L 301.150729 269.662857 
L 317.210444 161.091429 
L 331.919226 52.52 
L 312.224693 52.52 
L 299.118002 161.091429 
L 283.062259 269.662857 
L 284.751589 378.234286 
L 292.732785 486.805714 
L 295.805165 508.52 
L 298.408304 519.377143 
L 304.806978 541.091428 
L 313.493057 573.662857 
L 315.529334 584.52 
L 336.084234 584.52 
z
" style="fill:#dadada;"/>
    <path clip-path="url(#pd249e02a88)" d="M 492.597873 573.662857 
L 500.706807 541.091428 
L 504.154481 519.377143 
L 505.154706 508.52 
L 507.003875 486.805714 
L 547.395188 378.234286 
L 601.512799 269.662857 
L 655.849543 161.091429 
L 660.368 152.937058 
L 660.368 52.52 
L 612.983992 52.52 
L 574.86998 161.091429 
L 548.663345 269.662857 
L 502.428536 378.234286 
L 461.508985 486.805714 
L 458.270528 508.52 
L 456.189454 519.377143 
L 450.281386 541.091428 
L 439.678843 573.662857 
L 437.082408 584.52 
L 490.197651 584.52 
z
" style="fill:#dadada;"/>
   </g>
   <g id="PathCollection_6">
    <path clip-path="url(#pd249e02a88)" d="M 313.493057 573.662857 
L 304.806978 541.091428 
L 298.408304 519.377143 
L 295.805165 508.52 
L 292.732785 486.805714 
L 284.751589 378.234286 
L 283.062259 269.662857 
L 299.118002 161.091429 
L 312.224693 52.52 
L 292.53016 52.52 
L 281.02556 161.091429 
L 264.973789 269.662857 
L 265.227843 378.234286 
L 269.933937 486.805714 
L 273.02413 508.52 
L 275.827995 519.377143 
L 282.833336 541.091428 
L 292.557438 573.662857 
L 294.974434 584.52 
L 315.529334 584.52 
z
" style="fill:#cccccc;"/>
    <path clip-path="url(#pd249e02a88)" d="M 545.516903 573.662857 
L 551.132229 541.091428 
L 552.119508 519.377143 
L 552.038884 508.52 
L 552.498764 486.805714 
L 592.36184 378.234286 
L 654.362254 269.662857 
L 660.368 257.999556 
L 660.368 161.091429 
L 660.368 152.937058 
L 655.849543 161.091429 
L 601.512799 269.662857 
L 547.395188 378.234286 
L 507.003875 486.805714 
L 505.154706 508.52 
L 504.154481 519.377143 
L 500.706807 541.091428 
L 492.597873 573.662857 
L 490.197651 584.52 
L 543.312894 584.52 
z
" style="fill:#cccccc;"/>
   </g>
   <g id="PathCollection_7">
    <path clip-path="url(#pd249e02a88)" d="M 292.557438 573.662857 
L 282.833336 541.091428 
L 275.827995 519.377143 
L 273.02413 508.52 
L 269.933937 486.805714 
L 265.227843 378.234286 
L 264.973789 269.662857 
L 281.02556 161.091429 
L 292.53016 52.52 
L 272.835628 52.52 
L 262.933119 161.091429 
L 246.885319 269.662857 
L 245.704096 378.234286 
L 247.135089 486.805714 
L 250.243094 508.52 
L 253.247686 519.377143 
L 260.859694 541.091428 
L 271.621819 573.662857 
L 274.419533 584.52 
L 294.974434 584.52 
z
" style="fill:#c0c0c0;"/>
    <path clip-path="url(#pd249e02a88)" d="M 598.435933 573.662857 
L 601.55765 541.091428 
L 600.084535 519.377143 
L 598.923061 508.52 
L 597.993653 486.805714 
L 637.328493 378.234286 
L 660.368 338.463489 
L 660.368 269.662857 
L 660.368 257.999556 
L 654.362254 269.662857 
L 592.36184 378.234286 
L 552.498764 486.805714 
L 552.038884 508.52 
L 552.119508 519.377143 
L 551.132229 541.091428 
L 545.516903 573.662857 
L 543.312894 584.52 
L 596.428136 584.52 
z
" style="fill:#c0c0c0;"/>
   </g>
   <g id="PathCollection_8">
    <path clip-path="url(#pd249e02a88)" d="M 271.621819 573.662857 
L 260.859694 541.091428 
L 253.247686 519.377143 
L 250.243094 508.52 
L 247.135089 486.805714 
L 245.704096 378.234286 
L 246.885319 269.662857 
L 262.933119 161.091429 
L 272.835628 52.52 
L 253.141095 52.52 
L 244.840677 161.091429 
L 228.796849 269.662857 
L 226.180349 378.234286 
L 224.336241 486.805714 
L 227.462058 508.52 
L 230.667377 519.377143 
L 238.886052 541.091428 
L 250.6862 573.662857 
L 253.864633 584.52 
L 274.419533 584.52 
z
" style="fill:#b0b0b0;"/>
    <path clip-path="url(#pd249e02a88)" d="M 651.354963 573.662857 
L 651.983072 541.091428 
L 648.049562 519.377143 
L 645.807239 508.52 
L 643.488543 486.805714 
L 660.368 439.892495 
L 660.368 378.234286 
L 660.368 338.463489 
L 637.328493 378.234286 
L 597.993653 486.805714 
L 598.923061 508.52 
L 600.084535 519.377143 
L 601.55765 541.091428 
L 598.435933 573.662857 
L 596.428136 584.52 
L 649.543379 584.52 
z
" style="fill:#b0b0b0;"/>
   </g>
   <g id="PathCollection_9">
    <path clip-path="url(#pd249e02a88)" d="M 250.6862 573.662857 
L 238.886052 541.091428 
L 230.667377 519.377143 
L 227.462058 508.52 
L 224.336241 486.805714 
L 226.180349 378.234286 
L 228.796849 269.662857 
L 244.840677 161.091429 
L 253.141095 52.52 
L 233.446562 52.52 
L 226.748235 161.091429 
L 210.70838 269.662857 
L 206.656602 378.234286 
L 201.537393 486.805714 
L 204.681023 508.52 
L 208.087069 519.377143 
L 216.91241 541.091428 
L 229.750581 573.662857 
L 233.309733 584.52 
L 253.864633 584.52 
z
" style="fill:#9f9f9f;"/>
    <path clip-path="url(#pd249e02a88)" d="M 660.368 584.52 
L 660.368 573.662857 
L 660.368 541.091428 
L 660.368 519.377143 
L 660.368 508.52 
L 660.368 486.805714 
L 660.368 439.892495 
L 643.488543 486.805714 
L 645.807239 508.52 
L 648.049562 519.377143 
L 651.983072 541.091428 
L 651.354963 573.662857 
L 649.543379 584.52 
z
" style="fill:#9f9f9f;"/>
   </g>
   <g id="PathCollection_10">
    <path clip-path="url(#pd249e02a88)" d="M 229.750581 573.662857 
L 216.91241 541.091428 
L 208.087069 519.377143 
L 204.681023 508.52 
L 201.537393 486.805714 
L 206.656602 378.234286 
L 210.70838 269.662857 
L 226.748235 161.091429 
L 233.446562 52.52 
L 213.75203 52.52 
L 208.655793 161.091429 
L 192.61991 269.662857 
L 187.132856 378.234286 
L 178.738545 486.805714 
L 181.899987 508.52 
L 185.50676 519.377143 
L 194.938768 541.091428 
L 208.814962 573.662857 
L 212.754833 584.52 
L 233.309733 584.52 
z
" style="fill:#8e8e8e;"/>
   </g>
   <g id="PathCollection_11">
    <path clip-path="url(#pd249e02a88)" d="M 208.814962 573.662857 
L 194.938768 541.091428 
L 185.50676 519.377143 
L 181.899987 508.52 
L 178.738545 486.805714 
L 187.132856 378.234286 
L 192.61991 269.662857 
L 208.655793 161.091429 
L 213.75203 52.52 
L 194.057497 52.52 
L 190.563352 161.091429 
L 174.53144 269.662857 
L 167.609109 378.234286 
L 155.939697 486.805714 
L 159.118952 508.52 
L 162.926451 519.377143 
L 172.965126 541.091428 
L 187.879343 573.662857 
L 192.199933 584.52 
L 212.754833 584.52 
z
" style="fill:#7e7e7e;"/>
   </g>
   <g id="PathCollection_12">
    <path clip-path="url(#pd249e02a88)" d="M 187.879343 573.662857 
L 172.965126 541.091428 
L 162.926451 519.377143 
L 159.118952 508.52 
L 155.939697 486.805714 
L 167.609109 378.234286 
L 174.53144 269.662857 
L 190.563352 161.091429 
L 194.057497 52.52 
L 174.362964 52.52 
L 172.47091 161.091429 
L 156.44297 269.662857 
L 148.085362 378.234286 
L 133.140849 486.805714 
L 136.337916 508.52 
L 140.346142 519.377143 
L 150.991484 541.091428 
L 166.943724 573.662857 
L 171.645032 584.52 
L 192.199933 584.52 
z
" style="fill:#6f6f6f;"/>
   </g>
   <g id="PathCollection_13">
    <path clip-path="url(#pd249e02a88)" d="M 166.943724 573.662857 
L 150.991484 541.091428 
L 140.346142 519.377143 
L 136.337916 508.52 
L 133.140849 486.805714 
L 148.085362 378.234286 
L 156.44297 269.662857 
L 172.47091 161.091429 
L 174.362964 52.52 
L 154.668432 52.52 
L 154.378468 161.091429 
L 138.3545 269.662857 
L 128.561616 378.234286 
L 110.342001 486.805714 
L 113.55688 508.52 
L 117.765834 519.377143 
L 129.017842 541.091428 
L 146.008105 573.662857 
L 151.090132 584.52 
L 171.645032 584.52 
z
" style="fill:#616161;"/>
   </g>
   <g id="PathCollection_14">
    <path clip-path="url(#pd249e02a88)" d="M 146.008105 573.662857 
L 129.017842 541.091428 
L 117.765834 519.377143 
L 113.55688 508.52 
L 110.342001 486.805714 
L 128.561616 378.234286 
L 138.3545 269.662857 
L 154.378468 161.091429 
L 154.668432 52.52 
L 134.973899 52.52 
L 136.286026 161.091429 
L 120.266031 269.662857 
L 109.037869 378.234286 
L 87.543153 486.805714 
L 90.775845 508.52 
L 95.185525 519.377143 
L 107.0442 541.091428 
L 125.072486 573.662857 
L 130.535232 584.52 
L 151.090132 584.52 
z
" style="fill:#525252;"/>
   </g>
   <g id="PathCollection_15">
    <path clip-path="url(#pd249e02a88)" d="M 125.072486 573.662857 
L 107.0442 541.091428 
L 95.185525 519.377143 
L 90.775845 508.52 
L 87.543153 486.805714 
L 109.037869 378.234286 
L 120.266031 269.662857 
L 136.286026 161.091429 
L 134.973899 52.52 
L 115.279366 52.52 
L 118.193585 161.091429 
L 102.177561 269.662857 
L 89.514122 378.234286 
L 68.16 473.725601 
L 68.16 486.805714 
L 68.16 508.52 
L 68.16 508.905706 
L 72.605216 519.377143 
L 85.070558 541.091428 
L 104.136867 573.662857 
L 109.980332 584.52 
L 130.535232 584.52 
z
" style="fill:#3d3d3d;"/>
   </g>
   <g id="PathCollection_16">
    <path clip-path="url(#pd249e02a88)" d="M 104.136867 573.662857 
L 85.070558 541.091428 
L 72.605216 519.377143 
L 68.16 508.905706 
L 68.16 519.377143 
L 68.16 541.091428 
L 68.16 549.000833 
L 83.201248 573.662857 
L 89.425432 584.52 
L 109.980332 584.52 
z
" style="fill:#292929;"/>
    <path clip-path="url(#pd249e02a88)" d="M 89.514122 378.234286 
L 102.177561 269.662857 
L 118.193585 161.091429 
L 115.279366 52.52 
L 95.584834 52.52 
L 100.101143 161.091429 
L 84.089091 269.662857 
L 69.990376 378.234286 
L 68.16 386.419356 
L 68.16 473.725601 
z
" style="fill:#292929;"/>
   </g>
   <g id="PathCollection_17">
    <path clip-path="url(#pd249e02a88)" d="M 83.201248 573.662857 
L 68.16 549.000833 
L 68.16 573.662857 
L 68.16 583.33276 
L 68.870532 584.52 
L 89.425432 584.52 
z
" style="fill:#181818;"/>
    <path clip-path="url(#pd249e02a88)" d="M 69.990376 378.234286 
L 84.089091 269.662857 
L 100.101143 161.091429 
L 95.584834 52.52 
L 75.890301 52.52 
L 82.008701 161.091429 
L 68.16 255.014543 
L 68.16 269.662857 
L 68.16 378.234286 
L 68.16 386.419356 
z
" style="fill:#181818;"/>
   </g>
   <g id="PathCollection_18">
    <path clip-path="url(#pd249e02a88)" d="M 68.16 583.33276 
L 68.16 584.52 
L 68.870532 584.52 
z
" style="fill:#080808;"/>
    <path clip-path="url(#pd249e02a88)" d="M 82.008701 161.091429 
L 75.890301 52.52 
L 68.16 52.52 
L 68.16 161.091429 
L 68.16 255.014543 
z
" style="fill:#080808;"/>
   </g>
   <g id="matplotlib.axis_1">
    <g id="xtick_1">
     <g id="line2d_1">
      <defs>
       <path d="M 0 0 
L 0 3.5 
" id="m5d39055ad9" style="stroke:#000000;stroke-width:0.8;"/>
      </defs>
      <g>
       <use style="stroke:#000000;stroke-width:0.8;" x="68.16" xlink:href="#m5d39055ad9" y="584.52"/>
      </g>
     </g>
     <g id="text_1">
      <!-- 3.0 -->
      <defs>
       <path d="M 9.71875 69.828125 
Q 15.4375 71.96875 20.671875 73.09375 
Q 25.921875 74.21875 30.515625 74.21875 
Q 41.21875 74.21875 47.21875 69.59375 
Q 53.21875 64.984375 53.21875 56.78125 
Q 53.21875 50.203125 49.0625 45.78125 
Q 44.921875 41.359375 37.3125 39.796875 
Q 46.296875 38.53125 51.25 33.28125 
Q 56.203125 28.03125 56.203125 19.671875 
Q 56.203125 9.46875 49.34375 4.015625 
Q 42.484375 -1.421875 29.59375 -1.421875 
Q 23.875 -1.421875 18.421875 -0.1875 
Q 12.984375 1.03125 7.625 3.515625 
L 7.625 17.671875 
L 13.09375 17.671875 
Q 13.578125 10.640625 17.828125 7.03125 
Q 22.078125 3.421875 29.78125 3.421875 
Q 37.25 3.421875 41.578125 7.734375 
Q 45.90625 12.0625 45.90625 19.578125 
Q 45.90625 28.171875 41.453125 32.59375 
Q 37.015625 37.015625 28.421875 37.015625 
L 23.78125 37.015625 
L 23.78125 42 
L 26.21875 42 
Q 34.765625 42 39.03125 45.53125 
Q 43.3125 49.078125 43.3125 56.203125 
Q 43.3125 62.59375 39.796875 65.984375 
Q 36.28125 69.390625 29.6875 69.390625 
Q 23.09375 69.390625 19.453125 66.265625 
Q 15.828125 63.140625 15.1875 56.984375 
L 9.71875 56.984375 
z
" id="DejaVuSerif-33"/>
       <path d="M 9.421875 5.078125 
Q 9.421875 7.8125 11.28125 9.71875 
Q 13.140625 11.625 15.921875 11.625 
Q 18.609375 11.625 20.5 9.71875 
Q 22.40625 7.8125 22.40625 5.078125 
Q 22.40625 2.390625 20.5 0.484375 
Q 18.609375 -1.421875 15.921875 -1.421875 
Q 13.140625 -1.421875 11.28125 0.453125 
Q 9.421875 2.34375 9.421875 5.078125 
z
" id="DejaVuSerif-2e"/>
       <path d="M 31.78125 3.421875 
Q 39.265625 3.421875 42.96875 11.625 
Q 46.6875 19.828125 46.6875 36.375 
Q 46.6875 52.984375 42.96875 61.1875 
Q 39.265625 69.390625 31.78125 69.390625 
Q 24.3125 69.390625 20.59375 61.1875 
Q 16.890625 52.984375 16.890625 36.375 
Q 16.890625 19.828125 20.59375 11.625 
Q 24.3125 3.421875 31.78125 3.421875 
z
M 31.78125 -1.421875 
Q 19.921875 -1.421875 13.25 8.53125 
Q 6.59375 18.5 6.59375 36.375 
Q 6.59375 54.296875 13.25 64.25 
Q 19.921875 74.21875 31.78125 74.21875 
Q 43.703125 74.21875 50.34375 64.25 
Q 56.984375 54.296875 56.984375 36.375 
Q 56.984375 18.5 50.34375 8.53125 
Q 43.703125 -1.421875 31.78125 -1.421875 
z
" id="DejaVuSerif-30"/>
      </defs>
      <g transform="translate(62.641616 596.793316)scale(0.0694 -0.0694)">
       <use xlink:href="#DejaVuSerif-33"/>
       <use x="63.623047" xlink:href="#DejaVuSerif-2e"/>
       <use x="95.410156" xlink:href="#DejaVuSerif-30"/>
      </g>
     </g>
    </g>
    <g id="xtick_2">
     <g id="line2d_2">
      <g>
       <use style="stroke:#000000;stroke-width:0.8;" x="142.186" xlink:href="#m5d39055ad9" y="584.52"/>
      </g>
     </g>
     <g id="text_2">
      <!-- 3.5 -->
      <defs>
       <path d="M 50.296875 72.90625 
L 50.296875 64.890625 
L 16.890625 64.890625 
L 16.890625 44 
Q 19.4375 45.75 22.828125 46.625 
Q 26.21875 47.515625 30.421875 47.515625 
Q 42.234375 47.515625 49.0625 40.96875 
Q 55.90625 34.421875 55.90625 23.09375 
Q 55.90625 11.53125 49 5.046875 
Q 42.09375 -1.421875 29.59375 -1.421875 
Q 24.5625 -1.421875 19.28125 -0.1875 
Q 14.015625 1.03125 8.5 3.515625 
L 8.5 17.671875 
L 14.015625 17.671875 
Q 14.453125 10.75 18.421875 7.078125 
Q 22.40625 3.421875 29.59375 3.421875 
Q 37.3125 3.421875 41.453125 8.5 
Q 45.609375 13.578125 45.609375 23.09375 
Q 45.609375 32.5625 41.484375 37.609375 
Q 37.359375 42.671875 29.59375 42.671875 
Q 25.203125 42.671875 21.84375 41.109375 
Q 18.5 39.546875 15.921875 36.28125 
L 11.71875 36.28125 
L 11.71875 72.90625 
z
" id="DejaVuSerif-35"/>
      </defs>
      <g transform="translate(136.667616 596.793316)scale(0.0694 -0.0694)">
       <use xlink:href="#DejaVuSerif-33"/>
       <use x="63.623047" xlink:href="#DejaVuSerif-2e"/>
       <use x="95.410156" xlink:href="#DejaVuSerif-35"/>
      </g>
     </g>
    </g>
    <g id="xtick_3">
     <g id="line2d_3">
      <g>
       <use style="stroke:#000000;stroke-width:0.8;" x="216.212" xlink:href="#m5d39055ad9" y="584.52"/>
      </g>
     </g>
     <g id="text_3">
      <!-- 4.0 -->
      <defs>
       <path d="M 34.90625 24.703125 
L 34.90625 63.484375 
L 10.015625 24.703125 
z
M 56.390625 0 
L 23.1875 0 
L 23.1875 5.171875 
L 34.90625 5.171875 
L 34.90625 19.484375 
L 3.078125 19.484375 
L 3.078125 24.8125 
L 35.015625 74.21875 
L 44.671875 74.21875 
L 44.671875 24.703125 
L 58.59375 24.703125 
L 58.59375 19.484375 
L 44.671875 19.484375 
L 44.671875 5.171875 
L 56.390625 5.171875 
z
" id="DejaVuSerif-34"/>
      </defs>
      <g transform="translate(210.693616 596.793316)scale(0.0694 -0.0694)">
       <use xlink:href="#DejaVuSerif-34"/>
       <use x="63.623047" xlink:href="#DejaVuSerif-2e"/>
       <use x="95.410156" xlink:href="#DejaVuSerif-30"/>
      </g>
     </g>
    </g>
    <g id="xtick_4">
     <g id="line2d_4">
      <g>
       <use style="stroke:#000000;stroke-width:0.8;" x="290.238" xlink:href="#m5d39055ad9" y="584.52"/>
      </g>
     </g>
     <g id="text_4">
      <!-- 4.5 -->
      <g transform="translate(284.719616 596.793316)scale(0.0694 -0.0694)">
       <use xlink:href="#DejaVuSerif-34"/>
       <use x="63.623047" xlink:href="#DejaVuSerif-2e"/>
       <use x="95.410156" xlink:href="#DejaVuSerif-35"/>
      </g>
     </g>
    </g>
    <g id="xtick_5">
     <g id="line2d_5">
      <g>
       <use style="stroke:#000000;stroke-width:0.8;" x="364.264" xlink:href="#m5d39055ad9" y="584.52"/>
      </g>
     </g>
     <g id="text_5">
      <!-- 5.0 -->
      <g transform="translate(358.745616 596.793316)scale(0.0694 -0.0694)">
       <use xlink:href="#DejaVuSerif-35"/>
       <use x="63.623047" xlink:href="#DejaVuSerif-2e"/>
       <use x="95.410156" xlink:href="#DejaVuSerif-30"/>
      </g>
     </g>
    </g>
    <g id="xtick_6">
     <g id="line2d_6">
      <g>
       <use style="stroke:#000000;stroke-width:0.8;" x="438.29" xlink:href="#m5d39055ad9" y="584.52"/>
      </g>
     </g>
     <g id="text_6">
      <!-- 5.5 -->
      <g transform="translate(432.771616 596.793316)scale(0.0694 -0.0694)">
       <use xlink:href="#DejaVuSerif-35"/>
       <use x="63.623047" xlink:href="#DejaVuSerif-2e"/>
       <use x="95.410156" xlink:href="#DejaVuSerif-35"/>
      </g>
     </g>
    </g>
    <g id="xtick_7">
     <g id="line2d_7">
      <g>
       <use style="stroke:#000000;stroke-width:0.8;" x="512.316" xlink:href="#m5d39055ad9" y="584.52"/>
      </g>
     </g>
     <g id="text_7">
      <!-- 6.0 -->
      <defs>
       <path d="M 32.71875 3.421875 
Q 39.59375 3.421875 43.296875 8.46875 
Q 47.015625 13.53125 47.015625 23 
Q 47.015625 32.46875 43.296875 37.515625 
Q 39.59375 42.578125 32.71875 42.578125 
Q 25.734375 42.578125 22.0625 37.6875 
Q 18.40625 32.8125 18.40625 23.578125 
Q 18.40625 13.875 22.109375 8.640625 
Q 25.828125 3.421875 32.71875 3.421875 
z
M 16.796875 40.140625 
Q 20.125 43.796875 24.3125 45.59375 
Q 28.515625 47.40625 33.796875 47.40625 
Q 44.671875 47.40625 51 40.859375 
Q 57.328125 34.328125 57.328125 23 
Q 57.328125 11.921875 50.515625 5.25 
Q 43.703125 -1.421875 32.328125 -1.421875 
Q 19.96875 -1.421875 13.328125 7.78125 
Q 6.6875 17 6.6875 34.078125 
Q 6.6875 53.21875 14.546875 63.71875 
Q 22.40625 74.21875 36.71875 74.21875 
Q 40.578125 74.21875 44.828125 73.484375 
Q 49.078125 72.75 53.515625 71.296875 
L 53.515625 59.28125 
L 48 59.28125 
Q 47.40625 64.203125 44.234375 66.796875 
Q 41.0625 69.390625 35.6875 69.390625 
Q 26.21875 69.390625 21.578125 62.203125 
Q 16.9375 55.03125 16.796875 40.140625 
z
" id="DejaVuSerif-36"/>
      </defs>
      <g transform="translate(506.797616 596.793316)scale(0.0694 -0.0694)">
       <use xlink:href="#DejaVuSerif-36"/>
       <use x="63.623047" xlink:href="#DejaVuSerif-2e"/>
       <use x="95.410156" xlink:href="#DejaVuSerif-30"/>
      </g>
     </g>
    </g>
    <g id="xtick_8">
     <g id="line2d_8">
      <g>
       <use style="stroke:#000000;stroke-width:0.8;" x="586.342" xlink:href="#m5d39055ad9" y="584.52"/>
      </g>
     </g>
     <g id="text_8">
      <!-- 6.5 -->
      <g transform="translate(580.823616 596.793316)scale(0.0694 -0.0694)">
       <use xlink:href="#DejaVuSerif-36"/>
       <use x="63.623047" xlink:href="#DejaVuSerif-2e"/>
       <use x="95.410156" xlink:href="#DejaVuSerif-35"/>
      </g>
     </g>
    </g>
    <g id="xtick_9">
     <g id="line2d_9">
      <g>
       <use style="stroke:#000000;stroke-width:0.8;" x="660.368" xlink:href="#m5d39055ad9" y="584.52"/>
      </g>
     </g>
     <g id="text_9">
      <!-- 7.0 -->
      <defs>
       <path d="M 56.390625 67.921875 
L 27.875 0 
L 20.609375 0 
L 47.796875 64.890625 
L 14.109375 64.890625 
L 14.109375 55.90625 
L 8.40625 55.90625 
L 8.40625 72.90625 
L 56.390625 72.90625 
z
" id="DejaVuSerif-37"/>
      </defs>
      <g transform="translate(654.849616 596.793316)scale(0.0694 -0.0694)">
       <use xlink:href="#DejaVuSerif-37"/>
       <use x="63.623047" xlink:href="#DejaVuSerif-2e"/>
       <use x="95.410156" xlink:href="#DejaVuSerif-30"/>
      </g>
     </g>
    </g>
   </g>
   <g id="matplotlib.axis_2">
    <g id="ytick_1">
     <g id="line2d_10">
      <defs>
       <path d="M 0 0 
L -3.5 0 
" id="mb388b99264" style="stroke:#000000;stroke-width:0.8;"/>
      </defs>
      <g>
       <use style="stroke:#000000;stroke-width:0.8;" x="68.16" xlink:href="#mb388b99264" y="515.578926"/>
      </g>
     </g>
     <g id="text_10">
      <!-- 0.1 -->
      <defs>
       <path d="M 14.203125 0 
L 14.203125 5.171875 
L 26.90625 5.171875 
L 26.90625 65.828125 
L 12.203125 56.296875 
L 12.203125 62.703125 
L 29.984375 74.21875 
L 36.71875 74.21875 
L 36.71875 5.171875 
L 49.421875 5.171875 
L 49.421875 0 
z
" id="DejaVuSerif-31"/>
      </defs>
      <g transform="translate(50.123231 518.215584)scale(0.0694 -0.0694)">
       <use xlink:href="#DejaVuSerif-30"/>
       <use x="63.623047" xlink:href="#DejaVuSerif-2e"/>
       <use x="95.410156" xlink:href="#DejaVuSerif-31"/>
      </g>
     </g>
    </g>
    <g id="ytick_2">
     <g id="line2d_11">
      <g>
       <use style="stroke:#000000;stroke-width:0.8;" x="68.16" xlink:href="#mb388b99264" y="435.780709"/>
      </g>
     </g>
     <g id="text_11">
      <!-- 0.2 -->
      <defs>
       <path d="M 12.796875 55.515625 
L 7.328125 55.515625 
L 7.328125 68.5 
Q 12.546875 71.296875 17.84375 72.75 
Q 23.140625 74.21875 28.21875 74.21875 
Q 39.59375 74.21875 46.1875 68.703125 
Q 52.78125 63.1875 52.78125 53.71875 
Q 52.78125 43.015625 37.84375 28.125 
Q 36.671875 27 36.078125 26.421875 
L 17.671875 8.015625 
L 48.09375 8.015625 
L 48.09375 17 
L 53.8125 17 
L 53.8125 0 
L 6.78125 0 
L 6.78125 5.328125 
L 28.90625 27.390625 
Q 36.234375 34.71875 39.359375 40.84375 
Q 42.484375 46.96875 42.484375 53.71875 
Q 42.484375 61.078125 38.640625 65.234375 
Q 34.8125 69.390625 28.078125 69.390625 
Q 21.09375 69.390625 17.28125 65.921875 
Q 13.484375 62.453125 12.796875 55.515625 
z
" id="DejaVuSerif-32"/>
      </defs>
      <g transform="translate(50.123231 438.417367)scale(0.0694 -0.0694)">
       <use xlink:href="#DejaVuSerif-30"/>
       <use x="63.623047" xlink:href="#DejaVuSerif-2e"/>
       <use x="95.410156" xlink:href="#DejaVuSerif-32"/>
      </g>
     </g>
    </g>
    <g id="ytick_3">
     <g id="line2d_12">
      <g>
       <use style="stroke:#000000;stroke-width:0.8;" x="68.16" xlink:href="#mb388b99264" y="355.982492"/>
      </g>
     </g>
     <g id="text_12">
      <!-- 0.3 -->
      <g transform="translate(50.123231 358.61915)scale(0.0694 -0.0694)">
       <use xlink:href="#DejaVuSerif-30"/>
       <use x="63.623047" xlink:href="#DejaVuSerif-2e"/>
       <use x="95.410156" xlink:href="#DejaVuSerif-33"/>
      </g>
     </g>
    </g>
    <g id="ytick_4">
     <g id="line2d_13">
      <g>
       <use style="stroke:#000000;stroke-width:0.8;" x="68.16" xlink:href="#mb388b99264" y="276.184275"/>
      </g>
     </g>
     <g id="text_13">
      <!-- 0.4 -->
      <g transform="translate(50.123231 278.820933)scale(0.0694 -0.0694)">
       <use xlink:href="#DejaVuSerif-30"/>
       <use x="63.623047" xlink:href="#DejaVuSerif-2e"/>
       <use x="95.410156" xlink:href="#DejaVuSerif-34"/>
      </g>
     </g>
    </g>
    <g id="ytick_5">
     <g id="line2d_14">
      <g>
       <use style="stroke:#000000;stroke-width:0.8;" x="68.16" xlink:href="#mb388b99264" y="196.386058"/>
      </g>
     </g>
     <g id="text_14">
      <!-- 0.5 -->
      <g transform="translate(50.123231 199.022716)scale(0.0694 -0.0694)">
       <use xlink:href="#DejaVuSerif-30"/>
       <use x="63.623047" xlink:href="#DejaVuSerif-2e"/>
       <use x="95.410156" xlink:href="#DejaVuSerif-35"/>
      </g>
     </g>
    </g>
    <g id="ytick_6">
     <g id="line2d_15">
      <g>
       <use style="stroke:#000000;stroke-width:0.8;" x="68.16" xlink:href="#mb388b99264" y="116.587841"/>
      </g>
     </g>
     <g id="text_15">
      <!-- 0.6 -->
      <g transform="translate(50.123231 119.224499)scale(0.0694 -0.0694)">
       <use xlink:href="#DejaVuSerif-30"/>
       <use x="63.623047" xlink:href="#DejaVuSerif-2e"/>
       <use x="95.410156" xlink:href="#DejaVuSerif-36"/>
      </g>
     </g>
    </g>
   </g>
   <g id="patch_3">
    <path d="M 68.16 584.52 
L 68.16 52.52 
" style="fill:none;stroke:#000000;stroke-linecap:square;stroke-linejoin:miter;stroke-width:0.8;"/>
   </g>
   <g id="patch_4">
    <path d="M 660.368 584.52 
L 660.368 52.52 
" style="fill:none;stroke:#000000;stroke-linecap:square;stroke-linejoin:miter;stroke-width:0.8;"/>
   </g>
   <g id="patch_5">
    <path d="M 68.16 584.52 
L 660.368 584.52 
" style="fill:none;stroke:#000000;stroke-linecap:square;stroke-linejoin:miter;stroke-width:0.8;"/>
   </g>
   <g id="patch_6">
    <path d="M 68.16 52.52 
L 660.368 52.52 
" style="fill:none;stroke:#000000;stroke-linecap:square;stroke-linejoin:miter;stroke-width:0.8;"/>
   </g>
  </g>
  <g id="axes_2">
   <g id="patch_7">
    <path clip-path="url(#p467910dfa1)" d="M 697.381 584.52 
L 697.381 554.964444 
L 697.381 82.075556 
L 697.381 52.52 
L 723.981 52.52 
L 723.981 82.075556 
L 723.981 554.964444 
L 723.981 584.52 
z
" style="fill:#ffffff;stroke:#ffffff;stroke-linejoin:miter;stroke-width:0.01;"/>
   </g>
   <g id="QuadMesh_1">
    <path clip-path="url(#p467910dfa1)" d="M 697.381 584.52 
L 723.981 584.52 
L 723.981 554.964444 
L 697.381 554.964444 
L 697.381 584.52 
" style="fill:#fcfcfc;"/>
    <path clip-path="url(#p467910dfa1)" d="M 697.381 554.964444 
L 723.981 554.964444 
L 723.981 525.408889 
L 697.381 525.408889 
L 697.381 554.964444 
" style="fill:#f5f5f5;"/>
    <path clip-path="url(#p467910dfa1)" d="M 697.381 525.408889 
L 723.981 525.408889 
L 723.981 495.853333 
L 697.381 495.853333 
L 697.381 525.408889 
" style="fill:#eeeeee;"/>
    <path clip-path="url(#p467910dfa1)" d="M 697.381 495.853333 
L 723.981 495.853333 
L 723.981 466.297778 
L 697.381 466.297778 
L 697.381 495.853333 
" style="fill:#e4e4e4;"/>
    <path clip-path="url(#p467910dfa1)" d="M 697.381 466.297778 
L 723.981 466.297778 
L 723.981 436.742222 
L 697.381 436.742222 
L 697.381 466.297778 
" style="fill:#dadada;"/>
    <path clip-path="url(#p467910dfa1)" d="M 697.381 436.742222 
L 723.981 436.742222 
L 723.981 407.186667 
L 697.381 407.186667 
L 697.381 436.742222 
" style="fill:#cccccc;"/>
    <path clip-path="url(#p467910dfa1)" d="M 697.381 407.186667 
L 723.981 407.186667 
L 723.981 377.631111 
L 697.381 377.631111 
L 697.381 407.186667 
" style="fill:#c0c0c0;"/>
    <path clip-path="url(#p467910dfa1)" d="M 697.381 377.631111 
L 723.981 377.631111 
L 723.981 348.075556 
L 697.381 348.075556 
L 697.381 377.631111 
" style="fill:#b0b0b0;"/>
    <path clip-path="url(#p467910dfa1)" d="M 697.381 348.075556 
L 723.981 348.075556 
L 723.981 318.52 
L 697.381 318.52 
L 697.381 348.075556 
" style="fill:#9f9f9f;"/>
    <path clip-path="url(#p467910dfa1)" d="M 697.381 318.52 
L 723.981 318.52 
L 723.981 288.964444 
L 697.381 288.964444 
L 697.381 318.52 
" style="fill:#8e8e8e;"/>
    <path clip-path="url(#p467910dfa1)" d="M 697.381 288.964444 
L 723.981 288.964444 
L 723.981 259.408889 
L 697.381 259.408889 
L 697.381 288.964444 
" style="fill:#7e7e7e;"/>
    <path clip-path="url(#p467910dfa1)" d="M 697.381 259.408889 
L 723.981 259.408889 
L 723.981 229.853333 
L 697.381 229.853333 
L 697.381 259.408889 
" style="fill:#6f6f6f;"/>
    <path clip-path="url(#p467910dfa1)" d="M 697.381 229.853333 
L 723.981 229.853333 
L 723.981 200.297778 
L 697.381 200.297778 
L 697.381 229.853333 
" style="fill:#616161;"/>
    <path clip-path="url(#p467910dfa1)" d="M 697.381 200.297778 
L 723.981 200.297778 
L 723.981 170.742222 
L 697.381 170.742222 
L 697.381 200.297778 
" style="fill:#525252;"/>
    <path clip-path="url(#p467910dfa1)" d="M 697.381 170.742222 
L 723.981 170.742222 
L 723.981 141.186667 
L 697.381 141.186667 
L 697.381 170.742222 
" style="fill:#3d3d3d;"/>
    <path clip-path="url(#p467910dfa1)" d="M 697.381 141.186667 
L 723.981 141.186667 
L 723.981 111.631111 
L 697.381 111.631111 
L 697.381 141.186667 
" style="fill:#292929;"/>
    <path clip-path="url(#p467910dfa1)" d="M 697.381 111.631111 
L 723.981 111.631111 
L 723.981 82.075556 
L 697.381 82.075556 
L 697.381 111.631111 
" style="fill:#181818;"/>
    <path clip-path="url(#p467910dfa1)" d="M 697.381 82.075556 
L 723.981 82.075556 
L 723.981 52.52 
L 697.381 52.52 
L 697.381 82.075556 
" style="fill:#080808;"/>
   </g>
   <g id="matplotlib.axis_3"/>
   <g id="matplotlib.axis_4">
    <g id="ytick_7">
     <g id="line2d_16">
      <defs>
       <path d="M 0 0 
L 3.5 0 
" id="mb727a3f72e" style="stroke:#000000;stroke-width:0.8;"/>
      </defs>
      <g>
       <use style="stroke:#000000;stroke-width:0.8;" x="723.981" xlink:href="#mb727a3f72e" y="584.52"/>
      </g>
     </g>
     <g id="text_16">
      <!-- −0.0640 -->
      <defs>
       <path d="M 10.59375 35.296875 
L 73.1875 35.296875 
L 73.1875 27.390625 
L 10.59375 27.390625 
z
" id="DejaVuSerif-2212"/>
      </defs>
      <g transform="translate(730.981 587.156658)scale(0.0694 -0.0694)">
       <use xlink:href="#DejaVuSerif-2212"/>
       <use x="83.789062" xlink:href="#DejaVuSerif-30"/>
       <use x="147.412109" xlink:href="#DejaVuSerif-2e"/>
       <use x="179.199219" xlink:href="#DejaVuSerif-30"/>
       <use x="242.822266" xlink:href="#DejaVuSerif-36"/>
       <use x="306.445312" xlink:href="#DejaVuSerif-34"/>
       <use x="370.068359" xlink:href="#DejaVuSerif-30"/>
      </g>
     </g>
    </g>
    <g id="ytick_8">
     <g id="line2d_17">
      <g>
       <use style="stroke:#000000;stroke-width:0.8;" x="723.981" xlink:href="#mb727a3f72e" y="525.408889"/>
      </g>
     </g>
     <g id="text_17">
      <!-- −0.0624 -->
      <g transform="translate(730.981 528.045547)scale(0.0694 -0.0694)">
       <use xlink:href="#DejaVuSerif-2212"/>
       <use x="83.789062" xlink:href="#DejaVuSerif-30"/>
       <use x="147.412109" xlink:href="#DejaVuSerif-2e"/>
       <use x="179.199219" xlink:href="#DejaVuSerif-30"/>
       <use x="242.822266" xlink:href="#DejaVuSerif-36"/>
       <use x="306.445312" xlink:href="#DejaVuSerif-32"/>
       <use x="370.068359" xlink:href="#DejaVuSerif-34"/>
      </g>
     </g>
    </g>
    <g id="ytick_9">
     <g id="line2d_18">
      <g>
       <use style="stroke:#000000;stroke-width:0.8;" x="723.981" xlink:href="#mb727a3f72e" y="466.297778"/>
      </g>
     </g>
     <g id="text_18">
      <!-- −0.0608 -->
      <defs>
       <path d="M 46.578125 19.921875 
Q 46.578125 27.734375 42.6875 32.046875 
Q 38.8125 36.375 31.78125 36.375 
Q 24.75 36.375 20.875 32.046875 
Q 17 27.734375 17 19.921875 
Q 17 12.0625 20.875 7.734375 
Q 24.75 3.421875 31.78125 3.421875 
Q 38.8125 3.421875 42.6875 7.734375 
Q 46.578125 12.0625 46.578125 19.921875 
z
M 44.578125 55.328125 
Q 44.578125 61.96875 41.203125 65.671875 
Q 37.84375 69.390625 31.78125 69.390625 
Q 25.78125 69.390625 22.390625 65.671875 
Q 19 61.96875 19 55.328125 
Q 19 48.640625 22.390625 44.921875 
Q 25.78125 41.21875 31.78125 41.21875 
Q 37.84375 41.21875 41.203125 44.921875 
Q 44.578125 48.640625 44.578125 55.328125 
z
M 39.3125 38.8125 
Q 47.609375 37.703125 52.25 32.6875 
Q 56.890625 27.6875 56.890625 19.921875 
Q 56.890625 9.671875 50.390625 4.125 
Q 43.890625 -1.421875 31.78125 -1.421875 
Q 19.734375 -1.421875 13.203125 4.125 
Q 6.6875 9.671875 6.6875 19.921875 
Q 6.6875 27.6875 11.328125 32.6875 
Q 15.96875 37.703125 24.3125 38.8125 
Q 16.9375 40.140625 13 44.40625 
Q 9.078125 48.6875 9.078125 55.328125 
Q 9.078125 64.109375 15.125 69.15625 
Q 21.1875 74.21875 31.78125 74.21875 
Q 42.390625 74.21875 48.4375 69.15625 
Q 54.5 64.109375 54.5 55.328125 
Q 54.5 48.6875 50.5625 44.40625 
Q 46.625 40.140625 39.3125 38.8125 
z
" id="DejaVuSerif-38"/>
      </defs>
      <g transform="translate(730.981 468.934436)scale(0.0694 -0.0694)">
       <use xlink:href="#DejaVuSerif-2212"/>
       <use x="83.789062" xlink:href="#DejaVuSerif-30"/>
       <use x="147.412109" xlink:href="#DejaVuSerif-2e"/>
       <use x="179.199219" xlink:href="#DejaVuSerif-30"/>
       <use x="242.822266" xlink:href="#DejaVuSerif-36"/>
       <use x="306.445312" xlink:href="#DejaVuSerif-30"/>
       <use x="370.068359" xlink:href="#DejaVuSerif-38"/>
      </g>
     </g>
    </g>
    <g id="ytick_10">
     <g id="line2d_19">
      <g>
       <use style="stroke:#000000;stroke-width:0.8;" x="723.981" xlink:href="#mb727a3f72e" y="407.186667"/>
      </g>
     </g>
     <g id="text_19">
      <!-- −0.0592 -->
      <defs>
       <path d="M 46.78125 32.671875 
Q 43.5 29 39.25 27.1875 
Q 35.015625 25.390625 29.6875 25.390625 
Q 18.84375 25.390625 12.5625 31.9375 
Q 6.296875 38.484375 6.296875 49.8125 
Q 6.296875 60.890625 13.109375 67.546875 
Q 19.921875 74.21875 31.296875 74.21875 
Q 43.65625 74.21875 50.265625 65.015625 
Q 56.890625 55.8125 56.890625 38.71875 
Q 56.890625 19.578125 49.015625 9.078125 
Q 41.15625 -1.421875 26.90625 -1.421875 
Q 23.046875 -1.421875 18.796875 -0.6875 
Q 14.546875 0.046875 10.109375 1.515625 
L 10.109375 13.625 
L 15.578125 13.625 
Q 16.21875 8.6875 19.390625 6.046875 
Q 22.5625 3.421875 27.875 3.421875 
Q 37.359375 3.421875 41.984375 10.5625 
Q 46.625 17.71875 46.78125 32.671875 
z
M 30.90625 69.390625 
Q 23.96875 69.390625 20.28125 64.328125 
Q 16.609375 59.28125 16.609375 49.8125 
Q 16.609375 40.328125 20.28125 35.25 
Q 23.96875 30.171875 30.90625 30.171875 
Q 37.84375 30.171875 41.53125 35.078125 
Q 45.21875 39.984375 45.21875 49.21875 
Q 45.21875 58.9375 41.5 64.15625 
Q 37.796875 69.390625 30.90625 69.390625 
z
" id="DejaVuSerif-39"/>
      </defs>
      <g transform="translate(730.981 409.823324)scale(0.0694 -0.0694)">
       <use xlink:href="#DejaVuSerif-2212"/>
       <use x="83.789062" xlink:href="#DejaVuSerif-30"/>
       <use x="147.412109" xlink:href="#DejaVuSerif-2e"/>
       <use x="179.199219" xlink:href="#DejaVuSerif-30"/>
       <use x="242.822266" xlink:href="#DejaVuSerif-35"/>
       <use x="306.445312" xlink:href="#DejaVuSerif-39"/>
       <use x="370.068359" xlink:href="#DejaVuSerif-32"/>
      </g>
     </g>
    </g>
    <g id="ytick_11">
     <g id="line2d_20">
      <g>
       <use style="stroke:#000000;stroke-width:0.8;" x="723.981" xlink:href="#mb727a3f72e" y="348.075556"/>
      </g>
     </g>
     <g id="text_20">
      <!-- −0.0576 -->
      <g transform="translate(730.981 350.712213)scale(0.0694 -0.0694)">
       <use xlink:href="#DejaVuSerif-2212"/>
       <use x="83.789062" xlink:href="#DejaVuSerif-30"/>
       <use x="147.412109" xlink:href="#DejaVuSerif-2e"/>
       <use x="179.199219" xlink:href="#DejaVuSerif-30"/>
       <use x="242.822266" xlink:href="#DejaVuSerif-35"/>
       <use x="306.445312" xlink:href="#DejaVuSerif-37"/>
       <use x="370.068359" xlink:href="#DejaVuSerif-36"/>
      </g>
     </g>
    </g>
    <g id="ytick_12">
     <g id="line2d_21">
      <g>
       <use style="stroke:#000000;stroke-width:0.8;" x="723.981" xlink:href="#mb727a3f72e" y="288.964444"/>
      </g>
     </g>
     <g id="text_21">
      <!-- −0.0560 -->
      <g transform="translate(730.981 291.601102)scale(0.0694 -0.0694)">
       <use xlink:href="#DejaVuSerif-2212"/>
       <use x="83.789062" xlink:href="#DejaVuSerif-30"/>
       <use x="147.412109" xlink:href="#DejaVuSerif-2e"/>
       <use x="179.199219" xlink:href="#DejaVuSerif-30"/>
       <use x="242.822266" xlink:href="#DejaVuSerif-35"/>
       <use x="306.445312" xlink:href="#DejaVuSerif-36"/>
       <use x="370.068359" xlink:href="#DejaVuSerif-30"/>
      </g>
     </g>
    </g>
    <g id="ytick_13">
     <g id="line2d_22">
      <g>
       <use style="stroke:#000000;stroke-width:0.8;" x="723.981" xlink:href="#mb727a3f72e" y="229.853333"/>
      </g>
     </g>
     <g id="text_22">
      <!-- −0.0544 -->
      <g transform="translate(730.981 232.489991)scale(0.0694 -0.0694)">
       <use xlink:href="#DejaVuSerif-2212"/>
       <use x="83.789062" xlink:href="#DejaVuSerif-30"/>
       <use x="147.412109" xlink:href="#DejaVuSerif-2e"/>
       <use x="179.199219" xlink:href="#DejaVuSerif-30"/>
       <use x="242.822266" xlink:href="#DejaVuSerif-35"/>
       <use x="306.445312" xlink:href="#DejaVuSerif-34"/>
       <use x="370.068359" xlink:href="#DejaVuSerif-34"/>
      </g>
     </g>
    </g>
    <g id="ytick_14">
     <g id="line2d_23">
      <g>
       <use style="stroke:#000000;stroke-width:0.8;" x="723.981" xlink:href="#mb727a3f72e" y="170.742222"/>
      </g>
     </g>
     <g id="text_23">
      <!-- −0.0528 -->
      <g transform="translate(730.981 173.37888)scale(0.0694 -0.0694)">
       <use xlink:href="#DejaVuSerif-2212"/>
       <use x="83.789062" xlink:href="#DejaVuSerif-30"/>
       <use x="147.412109" xlink:href="#DejaVuSerif-2e"/>
       <use x="179.199219" xlink:href="#DejaVuSerif-30"/>
       <use x="242.822266" xlink:href="#DejaVuSerif-35"/>
       <use x="306.445312" xlink:href="#DejaVuSerif-32"/>
       <use x="370.068359" xlink:href="#DejaVuSerif-38"/>
      </g>
     </g>
    </g>
    <g id="ytick_15">
     <g id="line2d_24">
      <g>
       <use style="stroke:#000000;stroke-width:0.8;" x="723.981" xlink:href="#mb727a3f72e" y="111.631111"/>
      </g>
     </g>
     <g id="text_24">
      <!-- −0.0512 -->
      <g transform="translate(730.981 114.267769)scale(0.0694 -0.0694)">
       <use xlink:href="#DejaVuSerif-2212"/>
       <use x="83.789062" xlink:href="#DejaVuSerif-30"/>
       <use x="147.412109" xlink:href="#DejaVuSerif-2e"/>
       <use x="179.199219" xlink:href="#DejaVuSerif-30"/>
       <use x="242.822266" xlink:href="#DejaVuSerif-35"/>
       <use x="306.445312" xlink:href="#DejaVuSerif-31"/>
       <use x="370.068359" xlink:href="#DejaVuSerif-32"/>
      </g>
     </g>
    </g>
    <g id="ytick_16">
     <g id="line2d_25">
      <g>
       <use style="stroke:#000000;stroke-width:0.8;" x="723.981" xlink:href="#mb727a3f72e" y="52.52"/>
      </g>
     </g>
     <g id="text_25">
      <!-- −0.0496 -->
      <g transform="translate(730.981 55.156658)scale(0.0694 -0.0694)">
       <use xlink:href="#DejaVuSerif-2212"/>
       <use x="83.789062" xlink:href="#DejaVuSerif-30"/>
       <use x="147.412109" xlink:href="#DejaVuSerif-2e"/>
       <use x="179.199219" xlink:href="#DejaVuSerif-30"/>
       <use x="242.822266" xlink:href="#DejaVuSerif-34"/>
       <use x="306.445312" xlink:href="#DejaVuSerif-39"/>
       <use x="370.068359" xlink:href="#DejaVuSerif-36"/>
      </g>
     </g>
    </g>
    <g id="text_26">
     <!-- −5.374e2 -->
     <defs>
      <path d="M 54.203125 25 
L 15.484375 25 
L 15.484375 24.609375 
Q 15.484375 14.109375 19.4375 8.765625 
Q 23.390625 3.421875 31.109375 3.421875 
Q 37.015625 3.421875 40.796875 6.515625 
Q 44.578125 9.625 46.09375 15.71875 
L 53.328125 15.71875 
Q 51.171875 7.171875 45.375 2.875 
Q 39.59375 -1.421875 30.171875 -1.421875 
Q 18.796875 -1.421875 11.890625 6.078125 
Q 4.984375 13.578125 4.984375 25.984375 
Q 4.984375 38.28125 11.765625 45.796875 
Q 18.5625 53.328125 29.59375 53.328125 
Q 41.359375 53.328125 47.65625 46.0625 
Q 53.953125 38.8125 54.203125 25 
z
M 43.609375 30.171875 
Q 43.3125 39.265625 39.765625 43.875 
Q 36.234375 48.484375 29.59375 48.484375 
Q 23.390625 48.484375 19.828125 43.84375 
Q 16.265625 39.203125 15.484375 30.171875 
z
" id="DejaVuSerif-65"/>
     </defs>
     <g transform="translate(689.774391 49.52)scale(0.0694 -0.0694)">
      <use xlink:href="#DejaVuSerif-2212"/>
      <use x="83.789062" xlink:href="#DejaVuSerif-35"/>
      <use x="147.412109" xlink:href="#DejaVuSerif-2e"/>
      <use x="179.199219" xlink:href="#DejaVuSerif-33"/>
      <use x="242.822266" xlink:href="#DejaVuSerif-37"/>
      <use x="306.445312" xlink:href="#DejaVuSerif-34"/>
      <use x="370.068359" xlink:href="#DejaVuSerif-65"/>
      <use x="429.248047" xlink:href="#DejaVuSerif-32"/>
     </g>
    </g>
   </g>
   <g id="patch_8">
    <path d="M 697.381 584.52 
L 697.381 554.964444 
L 697.381 82.075556 
L 697.381 52.52 
L 723.981 52.52 
L 723.981 82.075556 
L 723.981 554.964444 
L 723.981 584.52 
z
" style="fill:none;stroke:#000000;stroke-linejoin:miter;stroke-width:0.8;"/>
   </g>
  </g>
 </g>
 <defs>
  <clipPath id="pd249e02a88">
   <rect height="532" width="592.208" x="68.16" y="52.52"/>
  </clipPath>
  <clipPath id="p467910dfa1">
   <rect height="532" width="26.6" x="697.381" y="52.52"/>
  </clipPath>
 </defs>
</svg>
