<?xml version="1.0" encoding="utf-8" standalone="no"?>
<!DOCTYPE svg PUBLIC "-//W3C//DTD SVG 1.1//EN"
  "http://www.w3.org/Graphics/SVG/1.1/DTD/svg11.dtd">
<!-- Created with matplotlib (http://matplotlib.org/) -->
<svg height="648pt" version="1.1" viewBox="0 0 864 648" width="864pt" xmlns="http://www.w3.org/2000/svg" xmlns:xlink="http://www.w3.org/1999/xlink">
 <defs>
  <style type="text/css">
*{stroke-linecap:butt;stroke-linejoin:round;}
  </style>
 </defs>
 <g id="figure_1">
  <g id="patch_1">
   <path d="M 0 648 
L 864 648 
L 864 0 
L 0 0 
z
" style="fill:#ffffff;"/>
  </g>
  <g id="axes_1">
   <g id="patch_2">
    <path d="M 68.16 584.52 
L 660.368 584.52 
L 660.368 52.52 
L 68.16 52.52 
z
" style="fill:#ffffff;"/>
   </g>
   <g id="PathCollection_1">
    <path clip-path="url(#pb4e4a0ac6e)" d="M 660.368 584.52 
L 660.368 573.45599 
L 650.110923 584.52 
z
" style="fill:#fcfcfc;"/>
    <path clip-path="url(#pb4e4a0ac6e)" d="M 660.368 489.18401 
L 660.368 478.12 
L 660.368 467.05599 
L 650.110923 478.12 
z
" style="fill:#fcfcfc;"/>
    <path clip-path="url(#pb4e4a0ac6e)" d="M 660.368 329.58401 
L 660.368 318.52 
L 660.368 265.32 
L 660.368 212.12 
L 660.368 158.92 
L 660.368 105.72 
L 660.368 94.65599 
L 653.52853 105.72 
L 653.52853 158.92 
L 653.52853 212.12 
L 653.52853 265.32 
L 653.52853 318.52 
z
" style="fill:#fcfcfc;"/>
   </g>
   <g id="PathCollection_2">
    <path clip-path="url(#pb4e4a0ac6e)" d="M 660.368 573.45599 
L 660.368 560.205679 
L 637.826999 584.52 
L 650.110923 584.52 
z
" style="fill:#f5f5f5;"/>
    <path clip-path="url(#pb4e4a0ac6e)" d="M 660.368 502.434321 
L 660.368 489.18401 
L 650.110923 478.12 
L 660.368 467.05599 
L 660.368 453.805679 
L 637.826999 478.12 
z
" style="fill:#f5f5f5;"/>
    <path clip-path="url(#pb4e4a0ac6e)" d="M 660.368 342.834321 
L 660.368 329.58401 
L 653.52853 318.52 
L 653.52853 265.32 
L 653.52853 212.12 
L 653.52853 158.92 
L 653.52853 105.72 
L 660.368 94.65599 
L 660.368 81.405679 
L 645.337548 105.72 
L 645.337548 158.92 
L 645.337548 212.12 
L 645.337548 265.32 
L 645.337548 318.52 
z
" style="fill:#f5f5f5;"/>
   </g>
   <g id="PathCollection_3">
    <path clip-path="url(#pb4e4a0ac6e)" d="M 660.368 560.205679 
L 660.368 546.955367 
L 625.543074 584.52 
L 637.826999 584.52 
z
" style="fill:#ececec;"/>
    <path clip-path="url(#pb4e4a0ac6e)" d="M 660.368 515.684633 
L 660.368 502.434321 
L 637.826999 478.12 
L 660.368 453.805679 
L 660.368 440.555367 
L 625.543074 478.12 
z
" style="fill:#ececec;"/>
    <path clip-path="url(#pb4e4a0ac6e)" d="M 660.368 356.084633 
L 660.368 342.834321 
L 645.337548 318.52 
L 645.337548 265.32 
L 645.337548 212.12 
L 645.337548 158.92 
L 645.337548 105.72 
L 660.368 81.405679 
L 660.368 68.155367 
L 637.146566 105.72 
L 637.146566 158.92 
L 637.146566 212.12 
L 637.146566 265.32 
L 637.146566 318.52 
z
" style="fill:#ececec;"/>
   </g>
   <g id="PathCollection_4">
    <path clip-path="url(#pb4e4a0ac6e)" d="M 660.368 546.955367 
L 660.368 533.705056 
L 613.25915 584.52 
L 625.543074 584.52 
z
" style="fill:#e1e1e1;"/>
    <path clip-path="url(#pb4e4a0ac6e)" d="M 660.368 528.934944 
L 660.368 515.684633 
L 625.543074 478.12 
L 660.368 440.555367 
L 660.368 427.305056 
L 613.25915 478.12 
z
" style="fill:#e1e1e1;"/>
    <path clip-path="url(#pb4e4a0ac6e)" d="M 660.368 369.334944 
L 660.368 356.084633 
L 637.146566 318.52 
L 637.146566 265.32 
L 637.146566 212.12 
L 637.146566 158.92 
L 637.146566 105.72 
L 660.368 68.155367 
L 660.368 54.905056 
L 628.955584 105.72 
L 628.955584 158.92 
L 628.955584 212.12 
L 628.955584 265.32 
L 628.955584 318.52 
z
" style="fill:#e1e1e1;"/>
   </g>
   <g id="PathCollection_5">
    <path clip-path="url(#pb4e4a0ac6e)" d="M 68.16 573.668259 
L 68.16 584.52 
L 88.293108 584.52 
z
" style="fill:#d6d6d6;"/>
    <path clip-path="url(#pb4e4a0ac6e)" d="M 364.264 584.52 
L 374.336818 584.52 
L 364.264 573.668259 
L 344.130892 584.52 
z
" style="fill:#d6d6d6;"/>
    <path clip-path="url(#pb4e4a0ac6e)" d="M 660.368 533.705056 
L 660.368 531.32 
L 660.368 528.934944 
L 613.25915 478.12 
L 660.368 427.305056 
L 660.368 424.92 
L 660.368 371.72 
L 660.368 369.334944 
L 628.955584 318.52 
L 628.955584 265.32 
L 628.955584 212.12 
L 628.955584 158.92 
L 628.955584 105.72 
L 660.368 54.905056 
L 660.368 52.52 
L 650.295182 52.52 
L 620.764602 105.72 
L 620.764602 158.92 
L 620.764602 212.12 
L 620.764602 265.32 
L 620.764602 318.52 
L 650.295182 371.72 
L 653.654181 424.92 
L 600.975225 478.12 
L 650.295182 531.32 
L 600.975225 584.52 
L 613.25915 584.52 
z
" style="fill:#d6d6d6;"/>
    <path clip-path="url(#pb4e4a0ac6e)" d="M 166.861333 488.971741 
L 186.994441 478.12 
L 166.861333 467.268259 
L 68.16 467.268259 
L 68.16 478.12 
L 68.16 488.971741 
z
" style="fill:#d6d6d6;"/>
    <path clip-path="url(#pb4e4a0ac6e)" d="M 364.264 488.971741 
L 384.397108 478.12 
L 364.264 467.268259 
L 344.130892 478.12 
z
" style="fill:#d6d6d6;"/>
    <path clip-path="url(#pb4e4a0ac6e)" d="M 88.293108 318.52 
L 166.861333 276.171741 
L 186.994441 265.32 
L 186.994441 212.12 
L 186.994441 158.92 
L 186.994441 105.72 
L 166.861333 94.868259 
L 88.293108 52.52 
L 68.16 52.52 
L 68.16 105.72 
L 68.16 158.92 
L 68.16 212.12 
L 68.16 265.32 
L 68.16 318.52 
L 68.16 329.371741 
z
" style="fill:#d6d6d6;"/>
   </g>
   <g id="PathCollection_6">
    <path clip-path="url(#pb4e4a0ac6e)" d="M 68.16 560.434428 
L 68.16 573.668259 
L 88.293108 584.52 
L 112.845678 584.52 
z
" style="fill:#c9c9c9;"/>
    <path clip-path="url(#pb4e4a0ac6e)" d="M 364.264 573.668259 
L 374.336818 584.52 
L 386.620743 584.52 
L 364.264 560.434428 
L 319.578322 584.52 
L 344.130892 584.52 
z
" style="fill:#c9c9c9;"/>
    <path clip-path="url(#pb4e4a0ac6e)" d="M 650.295182 531.32 
L 600.975225 478.12 
L 653.654181 424.92 
L 650.295182 371.72 
L 620.764602 318.52 
L 620.764602 265.32 
L 620.764602 212.12 
L 620.764602 158.92 
L 620.764602 105.72 
L 650.295182 52.52 
L 638.011257 52.52 
L 612.57362 105.72 
L 612.57362 158.92 
L 612.57362 212.12 
L 612.57362 265.32 
L 612.57362 318.52 
L 638.011257 371.72 
L 645.466596 424.92 
L 588.691301 478.12 
L 638.011257 531.32 
L 588.691301 584.52 
L 600.975225 584.52 
z
" style="fill:#c9c9c9;"/>
    <path clip-path="url(#pb4e4a0ac6e)" d="M 166.861333 502.205572 
L 211.547012 478.12 
L 166.861333 454.034428 
L 68.16 454.034428 
L 68.16 467.268259 
L 166.861333 467.268259 
L 186.994441 478.12 
L 166.861333 488.971741 
L 68.16 488.971741 
L 68.16 502.205572 
z
" style="fill:#c9c9c9;"/>
    <path clip-path="url(#pb4e4a0ac6e)" d="M 364.264 502.205572 
L 408.949678 478.12 
L 364.264 454.034428 
L 319.578322 478.12 
z
M 344.130892 478.12 
L 364.264 467.268259 
L 384.397108 478.12 
L 364.264 488.971741 
z
" style="fill:#c9c9c9;"/>
    <path clip-path="url(#pb4e4a0ac6e)" d="M 112.845678 318.52 
L 166.861333 289.405572 
L 211.547012 265.32 
L 211.547012 212.12 
L 211.547012 158.92 
L 211.547012 105.72 
L 166.861333 81.634428 
L 112.845678 52.52 
L 88.293108 52.52 
L 166.861333 94.868259 
L 186.994441 105.72 
L 186.994441 158.92 
L 186.994441 212.12 
L 186.994441 265.32 
L 166.861333 276.171741 
L 88.293108 318.52 
L 68.16 329.371741 
L 68.16 342.605572 
z
" style="fill:#c9c9c9;"/>
   </g>
   <g id="PathCollection_7">
    <path clip-path="url(#pb4e4a0ac6e)" d="M 68.16 547.200597 
L 68.16 560.434428 
L 112.845678 584.52 
L 137.398249 584.52 
z
" style="fill:#bbbbbb;"/>
    <path clip-path="url(#pb4e4a0ac6e)" d="M 364.264 560.434428 
L 386.620743 584.52 
L 398.904667 584.52 
L 364.264 547.200597 
L 295.025751 584.52 
L 319.578322 584.52 
z
" style="fill:#bbbbbb;"/>
    <path clip-path="url(#pb4e4a0ac6e)" d="M 638.011257 531.32 
L 588.691301 478.12 
L 645.466596 424.92 
L 638.011257 371.72 
L 612.57362 318.52 
L 612.57362 265.32 
L 612.57362 212.12 
L 612.57362 158.92 
L 612.57362 105.72 
L 638.011257 52.52 
L 625.727333 52.52 
L 604.382638 105.72 
L 604.382638 158.92 
L 604.382638 212.12 
L 604.382638 265.32 
L 604.382638 318.52 
L 625.727333 371.72 
L 637.279011 424.92 
L 576.407376 478.12 
L 625.727333 531.32 
L 576.407376 584.52 
L 588.691301 584.52 
z
" style="fill:#bbbbbb;"/>
    <path clip-path="url(#pb4e4a0ac6e)" d="M 166.861333 515.439403 
L 236.099582 478.12 
L 166.861333 440.800597 
L 68.16 440.800597 
L 68.16 454.034428 
L 166.861333 454.034428 
L 211.547012 478.12 
L 166.861333 502.205572 
L 68.16 502.205572 
L 68.16 515.439403 
z
" style="fill:#bbbbbb;"/>
    <path clip-path="url(#pb4e4a0ac6e)" d="M 364.264 515.439403 
L 433.502249 478.12 
L 364.264 440.800597 
L 295.025751 478.12 
z
M 319.578322 478.12 
L 364.264 454.034428 
L 408.949678 478.12 
L 364.264 502.205572 
z
" style="fill:#bbbbbb;"/>
    <path clip-path="url(#pb4e4a0ac6e)" d="M 137.398249 318.52 
L 166.861333 302.639403 
L 236.099582 265.32 
L 236.099582 212.12 
L 236.099582 158.92 
L 236.099582 105.72 
L 166.861333 68.400597 
L 137.398249 52.52 
L 112.845678 52.52 
L 166.861333 81.634428 
L 211.547012 105.72 
L 211.547012 158.92 
L 211.547012 212.12 
L 211.547012 265.32 
L 166.861333 289.405572 
L 112.845678 318.52 
L 68.16 342.605572 
L 68.16 355.839403 
z
" style="fill:#bbbbbb;"/>
   </g>
   <g id="PathCollection_8">
    <path clip-path="url(#pb4e4a0ac6e)" d="M 68.16 533.966766 
L 68.16 547.200597 
L 137.398249 584.52 
L 161.950819 584.52 
z
" style="fill:#a9a9a9;"/>
    <path clip-path="url(#pb4e4a0ac6e)" d="M 364.264 547.200597 
L 398.904667 584.52 
L 411.188592 584.52 
L 364.264 533.966766 
L 270.473181 584.52 
L 295.025751 584.52 
z
" style="fill:#a9a9a9;"/>
    <path clip-path="url(#pb4e4a0ac6e)" d="M 625.727333 531.32 
L 576.407376 478.12 
L 637.279011 424.92 
L 625.727333 371.72 
L 604.382638 318.52 
L 604.382638 265.32 
L 604.382638 212.12 
L 604.382638 158.92 
L 604.382638 105.72 
L 625.727333 52.52 
L 613.443408 52.52 
L 596.191656 105.72 
L 596.191656 158.92 
L 596.191656 212.12 
L 596.191656 265.32 
L 596.191656 318.52 
L 613.443408 371.72 
L 629.091427 424.92 
L 564.123452 478.12 
L 613.443408 531.32 
L 564.123452 584.52 
L 576.407376 584.52 
z
" style="fill:#a9a9a9;"/>
    <path clip-path="url(#pb4e4a0ac6e)" d="M 166.861333 528.673234 
L 260.652153 478.12 
L 166.861333 427.566766 
L 68.16 427.566766 
L 68.16 440.800597 
L 166.861333 440.800597 
L 236.099582 478.12 
L 166.861333 515.439403 
L 68.16 515.439403 
L 68.16 528.673234 
z
" style="fill:#a9a9a9;"/>
    <path clip-path="url(#pb4e4a0ac6e)" d="M 364.264 528.673234 
L 458.054819 478.12 
L 364.264 427.566766 
L 270.473181 478.12 
z
M 295.025751 478.12 
L 364.264 440.800597 
L 433.502249 478.12 
L 364.264 515.439403 
z
" style="fill:#a9a9a9;"/>
    <path clip-path="url(#pb4e4a0ac6e)" d="M 161.950819 318.52 
L 166.861333 315.873234 
L 260.652153 265.32 
L 260.652153 212.12 
L 260.652153 158.92 
L 260.652153 105.72 
L 166.861333 55.166766 
L 161.950819 52.52 
L 137.398249 52.52 
L 166.861333 68.400597 
L 236.099582 105.72 
L 236.099582 158.92 
L 236.099582 212.12 
L 236.099582 265.32 
L 166.861333 302.639403 
L 137.398249 318.52 
L 68.16 355.839403 
L 68.16 369.073234 
z
" style="fill:#a9a9a9;"/>
   </g>
   <g id="PathCollection_9">
    <path clip-path="url(#pb4e4a0ac6e)" d="M 166.861333 584.52 
L 265.562667 584.52 
L 270.473181 584.52 
L 364.264 533.966766 
L 411.188592 584.52 
L 423.472516 584.52 
L 383.930517 531.32 
L 462.965333 488.720249 
L 561.666667 488.720249 
L 601.159484 531.32 
L 561.666667 573.919751 
L 542.000149 584.52 
L 561.666667 584.52 
L 564.123452 584.52 
L 613.443408 531.32 
L 564.123452 478.12 
L 629.091427 424.92 
L 613.443408 371.72 
L 596.191656 318.52 
L 596.191656 265.32 
L 596.191656 212.12 
L 596.191656 158.92 
L 596.191656 105.72 
L 613.443408 52.52 
L 601.159484 52.52 
L 588.000674 105.72 
L 588.000674 158.92 
L 588.000674 212.12 
L 588.000674 265.32 
L 588.000674 318.52 
L 601.159484 371.72 
L 620.903842 424.92 
L 561.666667 472.823174 
L 462.965333 467.519751 
L 383.930517 424.92 
L 383.930517 371.72 
L 383.930517 318.52 
L 383.930517 265.32 
L 462.965333 222.720249 
L 482.631851 212.12 
L 462.965333 201.519751 
L 383.930517 158.92 
L 383.930517 105.72 
L 383.930517 52.52 
L 364.264 52.52 
L 265.562667 52.52 
L 166.861333 52.52 
L 161.950819 52.52 
L 166.861333 55.166766 
L 260.652153 105.72 
L 260.652153 158.92 
L 260.652153 212.12 
L 260.652153 265.32 
L 166.861333 315.873234 
L 161.950819 318.52 
L 68.16 369.073234 
L 68.16 371.72 
L 68.16 424.92 
L 68.16 427.566766 
L 166.861333 427.566766 
L 260.652153 478.12 
L 166.861333 528.673234 
L 68.16 528.673234 
L 68.16 531.32 
L 68.16 533.966766 
L 161.950819 584.52 
z
M 186.527851 531.32 
L 265.562667 488.720249 
L 344.597483 531.32 
L 265.562667 573.919751 
z
M 270.473181 478.12 
L 364.264 427.566766 
L 458.054819 478.12 
L 364.264 528.673234 
z
M 186.527851 424.92 
L 265.562667 382.320249 
L 344.597483 424.92 
L 265.562667 467.519751 
z
" style="fill:#959595;"/>
   </g>
   <g id="PathCollection_10">
    <path clip-path="url(#pb4e4a0ac6e)" d="M 265.562667 573.919751 
L 344.597483 531.32 
L 265.562667 488.720249 
L 186.527851 531.32 
z
M 211.110997 531.32 
L 265.562667 501.97056 
L 320.014336 531.32 
L 265.562667 560.66944 
z
" style="fill:#858585;"/>
    <path clip-path="url(#pb4e4a0ac6e)" d="M 408.513664 531.32 
L 462.965333 501.97056 
L 561.666667 501.97056 
L 588.875559 531.32 
L 561.666667 560.66944 
L 517.417003 584.52 
L 542.000149 584.52 
L 561.666667 573.919751 
L 601.159484 531.32 
L 561.666667 488.720249 
L 462.965333 488.720249 
L 383.930517 531.32 
L 423.472516 584.52 
L 435.756441 584.52 
z
" style="fill:#858585;"/>
    <path clip-path="url(#pb4e4a0ac6e)" d="M 265.562667 467.519751 
L 344.597483 424.92 
L 265.562667 382.320249 
L 186.527851 424.92 
z
M 211.110997 424.92 
L 265.562667 395.57056 
L 320.014336 424.92 
L 265.562667 454.26944 
z
" style="fill:#858585;"/>
    <path clip-path="url(#pb4e4a0ac6e)" d="M 462.965333 467.519751 
L 561.666667 472.823174 
L 620.903842 424.92 
L 601.159484 371.72 
L 588.000674 318.52 
L 588.000674 265.32 
L 588.000674 212.12 
L 588.000674 158.92 
L 588.000674 105.72 
L 601.159484 52.52 
L 588.875559 52.52 
L 579.809692 105.72 
L 579.809692 158.92 
L 579.809692 212.12 
L 579.809692 265.32 
L 579.809692 318.52 
L 588.875559 371.72 
L 612.716257 424.92 
L 561.666667 466.202141 
L 462.965333 454.26944 
L 408.513664 424.92 
L 408.513664 371.72 
L 408.513664 318.52 
L 408.513664 265.32 
L 462.965333 235.97056 
L 507.214997 212.12 
L 462.965333 188.26944 
L 408.513664 158.92 
L 408.513664 105.72 
L 408.513664 52.52 
L 383.930517 52.52 
L 383.930517 105.72 
L 383.930517 158.92 
L 462.965333 201.519751 
L 482.631851 212.12 
L 462.965333 222.720249 
L 383.930517 265.32 
L 383.930517 318.52 
L 383.930517 371.72 
L 383.930517 424.92 
z
" style="fill:#858585;"/>
   </g>
   <g id="PathCollection_11">
    <path clip-path="url(#pb4e4a0ac6e)" d="M 265.562667 560.66944 
L 320.014336 531.32 
L 265.562667 501.97056 
L 211.110997 531.32 
z
M 235.694144 531.32 
L 265.562667 515.220872 
L 295.43119 531.32 
L 265.562667 547.419128 
z
" style="fill:#757575;"/>
    <path clip-path="url(#pb4e4a0ac6e)" d="M 433.09681 531.32 
L 462.965333 515.220872 
L 561.666667 515.220872 
L 576.591635 531.32 
L 561.666667 547.419128 
L 492.833856 584.52 
L 517.417003 584.52 
L 561.666667 560.66944 
L 588.875559 531.32 
L 561.666667 501.97056 
L 462.965333 501.97056 
L 408.513664 531.32 
L 435.756441 584.52 
L 448.040365 584.52 
z
" style="fill:#757575;"/>
    <path clip-path="url(#pb4e4a0ac6e)" d="M 265.562667 454.26944 
L 320.014336 424.92 
L 265.562667 395.57056 
L 211.110997 424.92 
z
M 235.694144 424.92 
L 265.562667 408.820872 
L 295.43119 424.92 
L 265.562667 441.019128 
z
" style="fill:#757575;"/>
    <path clip-path="url(#pb4e4a0ac6e)" d="M 462.965333 454.26944 
L 561.666667 466.202141 
L 612.716257 424.92 
L 588.875559 371.72 
L 579.809692 318.52 
L 579.809692 265.32 
L 579.809692 212.12 
L 579.809692 158.92 
L 579.809692 105.72 
L 588.875559 52.52 
L 576.591635 52.52 
L 571.61871 105.72 
L 571.61871 158.92 
L 571.61871 212.12 
L 571.61871 265.32 
L 571.61871 318.52 
L 576.591635 371.72 
L 604.528672 424.92 
L 561.666667 459.581108 
L 462.965333 441.019128 
L 433.09681 424.92 
L 433.09681 371.72 
L 433.09681 318.52 
L 433.09681 265.32 
L 462.965333 249.220872 
L 531.798144 212.12 
L 462.965333 175.019128 
L 433.09681 158.92 
L 433.09681 105.72 
L 433.09681 52.52 
L 408.513664 52.52 
L 408.513664 105.72 
L 408.513664 158.92 
L 462.965333 188.26944 
L 507.214997 212.12 
L 462.965333 235.97056 
L 408.513664 265.32 
L 408.513664 318.52 
L 408.513664 371.72 
L 408.513664 424.92 
z
" style="fill:#757575;"/>
   </g>
   <g id="PathCollection_12">
    <path clip-path="url(#pb4e4a0ac6e)" d="M 265.562667 547.419128 
L 295.43119 531.32 
L 265.562667 515.220872 
L 235.694144 531.32 
z
M 260.27729 531.32 
L 265.562667 528.471183 
L 270.848043 531.32 
L 265.562667 534.168817 
z
" style="fill:#656565;"/>
    <path clip-path="url(#pb4e4a0ac6e)" d="M 457.679957 531.32 
L 462.965333 528.471183 
L 561.666667 528.471183 
L 564.30771 531.32 
L 561.666667 534.168817 
L 468.25071 584.52 
L 492.833856 584.52 
L 561.666667 547.419128 
L 576.591635 531.32 
L 561.666667 515.220872 
L 462.965333 515.220872 
L 433.09681 531.32 
L 448.040365 584.52 
L 460.32429 584.52 
z
" style="fill:#656565;"/>
    <path clip-path="url(#pb4e4a0ac6e)" d="M 265.562667 441.019128 
L 295.43119 424.92 
L 265.562667 408.820872 
L 235.694144 424.92 
z
M 260.27729 424.92 
L 265.562667 422.071183 
L 270.848043 424.92 
L 265.562667 427.768817 
z
" style="fill:#656565;"/>
    <path clip-path="url(#pb4e4a0ac6e)" d="M 462.965333 441.019128 
L 561.666667 459.581108 
L 604.528672 424.92 
L 576.591635 371.72 
L 571.61871 318.52 
L 571.61871 265.32 
L 571.61871 212.12 
L 571.61871 158.92 
L 571.61871 105.72 
L 576.591635 52.52 
L 564.30771 52.52 
L 563.427728 105.72 
L 563.427728 158.92 
L 563.427728 212.12 
L 563.427728 265.32 
L 563.427728 318.52 
L 564.30771 371.72 
L 596.341088 424.92 
L 561.666667 452.960075 
L 462.965333 427.768817 
L 457.679957 424.92 
L 457.679957 371.72 
L 457.679957 318.52 
L 457.679957 265.32 
L 462.965333 262.471183 
L 556.38129 212.12 
L 462.965333 161.768817 
L 457.679957 158.92 
L 457.679957 105.72 
L 457.679957 52.52 
L 433.09681 52.52 
L 433.09681 105.72 
L 433.09681 158.92 
L 462.965333 175.019128 
L 531.798144 212.12 
L 462.965333 249.220872 
L 433.09681 265.32 
L 433.09681 318.52 
L 433.09681 371.72 
L 433.09681 424.92 
z
" style="fill:#656565;"/>
   </g>
   <g id="PathCollection_13">
    <path clip-path="url(#pb4e4a0ac6e)" d="M 265.562667 534.168817 
L 270.848043 531.32 
L 265.562667 528.471183 
L 260.27729 531.32 
z
" style="fill:#555555;"/>
    <path clip-path="url(#pb4e4a0ac6e)" d="M 462.965333 584.52 
L 468.25071 584.52 
L 561.666667 534.168817 
L 564.30771 531.32 
L 561.666667 528.471183 
L 462.965333 528.471183 
L 457.679957 531.32 
L 460.32429 584.52 
z
" style="fill:#555555;"/>
    <path clip-path="url(#pb4e4a0ac6e)" d="M 265.562667 427.768817 
L 270.848043 424.92 
L 265.562667 422.071183 
L 260.27729 424.92 
z
" style="fill:#555555;"/>
    <path clip-path="url(#pb4e4a0ac6e)" d="M 462.965333 427.768817 
L 561.666667 452.960075 
L 596.341088 424.92 
L 564.30771 371.72 
L 563.427728 318.52 
L 563.427728 265.32 
L 563.427728 212.12 
L 563.427728 158.92 
L 563.427728 105.72 
L 564.30771 52.52 
L 561.666667 52.52 
L 462.965333 52.52 
L 457.679957 52.52 
L 457.679957 105.72 
L 457.679957 158.92 
L 462.965333 161.768817 
L 556.38129 212.12 
L 462.965333 262.471183 
L 457.679957 265.32 
L 457.679957 318.52 
L 457.679957 371.72 
L 457.679957 424.92 
z
M 482.239101 424.92 
L 561.666667 382.108557 
L 588.153503 424.92 
L 561.666667 446.339042 
z
" style="fill:#555555;"/>
   </g>
   <g id="PathCollection_14">
    <path clip-path="url(#pb4e4a0ac6e)" d="M 561.666667 446.339042 
L 588.153503 424.92 
L 561.666667 382.108557 
L 482.239101 424.92 
z
M 506.791672 424.92 
L 561.666667 395.342388 
L 579.965918 424.92 
L 561.666667 439.718009 
z
" style="fill:#414141;"/>
   </g>
   <g id="PathCollection_15">
    <path clip-path="url(#pb4e4a0ac6e)" d="M 561.666667 439.718009 
L 579.965918 424.92 
L 561.666667 395.342388 
L 506.791672 424.92 
z
M 531.344242 424.92 
L 561.666667 408.576219 
L 571.778334 424.92 
L 561.666667 433.096976 
z
" style="fill:#2c2c2c;"/>
   </g>
   <g id="PathCollection_16">
    <path clip-path="url(#pb4e4a0ac6e)" d="M 561.666667 433.096976 
L 571.778334 424.92 
L 561.666667 408.576219 
L 531.344242 424.92 
z
M 555.896813 424.92 
L 561.666667 421.81005 
L 563.590749 424.92 
L 561.666667 426.475943 
z
" style="fill:#1a1a1a;"/>
   </g>
   <g id="PathCollection_17">
    <path clip-path="url(#pb4e4a0ac6e)" d="M 561.666667 426.475943 
L 563.590749 424.92 
L 561.666667 421.81005 
L 555.896813 424.92 
z
" style="fill:#080808;"/>
   </g>
   <g id="matplotlib.axis_1">
    <g id="xtick_1">
     <g id="line2d_1">
      <defs>
       <path d="M 0 0 
L 0 3.5 
" id="m074b84f667" style="stroke:#000000;stroke-width:0.8;"/>
      </defs>
      <g>
       <use style="stroke:#000000;stroke-width:0.8;" x="76.531783" xlink:href="#m074b84f667" y="584.52"/>
      </g>
     </g>
     <g id="text_1">
      <!-- 550 -->
      <defs>
       <path d="M 50.296875 72.90625 
L 50.296875 64.890625 
L 16.890625 64.890625 
L 16.890625 44 
Q 19.4375 45.75 22.828125 46.625 
Q 26.21875 47.515625 30.421875 47.515625 
Q 42.234375 47.515625 49.0625 40.96875 
Q 55.90625 34.421875 55.90625 23.09375 
Q 55.90625 11.53125 49 5.046875 
Q 42.09375 -1.421875 29.59375 -1.421875 
Q 24.5625 -1.421875 19.28125 -0.1875 
Q 14.015625 1.03125 8.5 3.515625 
L 8.5 17.671875 
L 14.015625 17.671875 
Q 14.453125 10.75 18.421875 7.078125 
Q 22.40625 3.421875 29.59375 3.421875 
Q 37.3125 3.421875 41.453125 8.5 
Q 45.609375 13.578125 45.609375 23.09375 
Q 45.609375 32.5625 41.484375 37.609375 
Q 37.359375 42.671875 29.59375 42.671875 
Q 25.203125 42.671875 21.84375 41.109375 
Q 18.5 39.546875 15.921875 36.28125 
L 11.71875 36.28125 
L 11.71875 72.90625 
z
" id="DejaVuSerif-35"/>
       <path d="M 31.78125 3.421875 
Q 39.265625 3.421875 42.96875 11.625 
Q 46.6875 19.828125 46.6875 36.375 
Q 46.6875 52.984375 42.96875 61.1875 
Q 39.265625 69.390625 31.78125 69.390625 
Q 24.3125 69.390625 20.59375 61.1875 
Q 16.890625 52.984375 16.890625 36.375 
Q 16.890625 19.828125 20.59375 11.625 
Q 24.3125 3.421875 31.78125 3.421875 
z
M 31.78125 -1.421875 
Q 19.921875 -1.421875 13.25 8.53125 
Q 6.59375 18.5 6.59375 36.375 
Q 6.59375 54.296875 13.25 64.25 
Q 19.921875 74.21875 31.78125 74.21875 
Q 43.703125 74.21875 50.34375 64.25 
Q 56.984375 54.296875 56.984375 36.375 
Q 56.984375 18.5 50.34375 8.53125 
Q 43.703125 -1.421875 31.78125 -1.421875 
z
" id="DejaVuSerif-30"/>
      </defs>
      <g transform="translate(69.908421 596.793316)scale(0.0694 -0.0694)">
       <use xlink:href="#DejaVuSerif-35"/>
       <use x="63.623047" xlink:href="#DejaVuSerif-35"/>
       <use x="127.246094" xlink:href="#DejaVuSerif-30"/>
      </g>
     </g>
    </g>
    <g id="xtick_2">
     <g id="line2d_2">
      <g>
       <use style="stroke:#000000;stroke-width:0.8;" x="149.075642" xlink:href="#m074b84f667" y="584.52"/>
      </g>
     </g>
     <g id="text_2">
      <!-- 600 -->
      <defs>
       <path d="M 32.71875 3.421875 
Q 39.59375 3.421875 43.296875 8.46875 
Q 47.015625 13.53125 47.015625 23 
Q 47.015625 32.46875 43.296875 37.515625 
Q 39.59375 42.578125 32.71875 42.578125 
Q 25.734375 42.578125 22.0625 37.6875 
Q 18.40625 32.8125 18.40625 23.578125 
Q 18.40625 13.875 22.109375 8.640625 
Q 25.828125 3.421875 32.71875 3.421875 
z
M 16.796875 40.140625 
Q 20.125 43.796875 24.3125 45.59375 
Q 28.515625 47.40625 33.796875 47.40625 
Q 44.671875 47.40625 51 40.859375 
Q 57.328125 34.328125 57.328125 23 
Q 57.328125 11.921875 50.515625 5.25 
Q 43.703125 -1.421875 32.328125 -1.421875 
Q 19.96875 -1.421875 13.328125 7.78125 
Q 6.6875 17 6.6875 34.078125 
Q 6.6875 53.21875 14.546875 63.71875 
Q 22.40625 74.21875 36.71875 74.21875 
Q 40.578125 74.21875 44.828125 73.484375 
Q 49.078125 72.75 53.515625 71.296875 
L 53.515625 59.28125 
L 48 59.28125 
Q 47.40625 64.203125 44.234375 66.796875 
Q 41.0625 69.390625 35.6875 69.390625 
Q 26.21875 69.390625 21.578125 62.203125 
Q 16.9375 55.03125 16.796875 40.140625 
z
" id="DejaVuSerif-36"/>
      </defs>
      <g transform="translate(142.45228 596.793316)scale(0.0694 -0.0694)">
       <use xlink:href="#DejaVuSerif-36"/>
       <use x="63.623047" xlink:href="#DejaVuSerif-30"/>
       <use x="127.246094" xlink:href="#DejaVuSerif-30"/>
      </g>
     </g>
    </g>
    <g id="xtick_3">
     <g id="line2d_3">
      <g>
       <use style="stroke:#000000;stroke-width:0.8;" x="221.619502" xlink:href="#m074b84f667" y="584.52"/>
      </g>
     </g>
     <g id="text_3">
      <!-- 650 -->
      <g transform="translate(214.996139 596.793316)scale(0.0694 -0.0694)">
       <use xlink:href="#DejaVuSerif-36"/>
       <use x="63.623047" xlink:href="#DejaVuSerif-35"/>
       <use x="127.246094" xlink:href="#DejaVuSerif-30"/>
      </g>
     </g>
    </g>
    <g id="xtick_4">
     <g id="line2d_4">
      <g>
       <use style="stroke:#000000;stroke-width:0.8;" x="294.163361" xlink:href="#m074b84f667" y="584.52"/>
      </g>
     </g>
     <g id="text_4">
      <!-- 700 -->
      <defs>
       <path d="M 56.390625 67.921875 
L 27.875 0 
L 20.609375 0 
L 47.796875 64.890625 
L 14.109375 64.890625 
L 14.109375 55.90625 
L 8.40625 55.90625 
L 8.40625 72.90625 
L 56.390625 72.90625 
z
" id="DejaVuSerif-37"/>
      </defs>
      <g transform="translate(287.539998 596.793316)scale(0.0694 -0.0694)">
       <use xlink:href="#DejaVuSerif-37"/>
       <use x="63.623047" xlink:href="#DejaVuSerif-30"/>
       <use x="127.246094" xlink:href="#DejaVuSerif-30"/>
      </g>
     </g>
    </g>
    <g id="xtick_5">
     <g id="line2d_5">
      <g>
       <use style="stroke:#000000;stroke-width:0.8;" x="366.70722" xlink:href="#m074b84f667" y="584.52"/>
      </g>
     </g>
     <g id="text_5">
      <!-- 750 -->
      <g transform="translate(360.083857 596.793316)scale(0.0694 -0.0694)">
       <use xlink:href="#DejaVuSerif-37"/>
       <use x="63.623047" xlink:href="#DejaVuSerif-35"/>
       <use x="127.246094" xlink:href="#DejaVuSerif-30"/>
      </g>
     </g>
    </g>
    <g id="xtick_6">
     <g id="line2d_6">
      <g>
       <use style="stroke:#000000;stroke-width:0.8;" x="439.251079" xlink:href="#m074b84f667" y="584.52"/>
      </g>
     </g>
     <g id="text_6">
      <!-- 800 -->
      <defs>
       <path d="M 46.578125 19.921875 
Q 46.578125 27.734375 42.6875 32.046875 
Q 38.8125 36.375 31.78125 36.375 
Q 24.75 36.375 20.875 32.046875 
Q 17 27.734375 17 19.921875 
Q 17 12.0625 20.875 7.734375 
Q 24.75 3.421875 31.78125 3.421875 
Q 38.8125 3.421875 42.6875 7.734375 
Q 46.578125 12.0625 46.578125 19.921875 
z
M 44.578125 55.328125 
Q 44.578125 61.96875 41.203125 65.671875 
Q 37.84375 69.390625 31.78125 69.390625 
Q 25.78125 69.390625 22.390625 65.671875 
Q 19 61.96875 19 55.328125 
Q 19 48.640625 22.390625 44.921875 
Q 25.78125 41.21875 31.78125 41.21875 
Q 37.84375 41.21875 41.203125 44.921875 
Q 44.578125 48.640625 44.578125 55.328125 
z
M 39.3125 38.8125 
Q 47.609375 37.703125 52.25 32.6875 
Q 56.890625 27.6875 56.890625 19.921875 
Q 56.890625 9.671875 50.390625 4.125 
Q 43.890625 -1.421875 31.78125 -1.421875 
Q 19.734375 -1.421875 13.203125 4.125 
Q 6.6875 9.671875 6.6875 19.921875 
Q 6.6875 27.6875 11.328125 32.6875 
Q 15.96875 37.703125 24.3125 38.8125 
Q 16.9375 40.140625 13 44.40625 
Q 9.078125 48.6875 9.078125 55.328125 
Q 9.078125 64.109375 15.125 69.15625 
Q 21.1875 74.21875 31.78125 74.21875 
Q 42.390625 74.21875 48.4375 69.15625 
Q 54.5 64.109375 54.5 55.328125 
Q 54.5 48.6875 50.5625 44.40625 
Q 46.625 40.140625 39.3125 38.8125 
z
" id="DejaVuSerif-38"/>
      </defs>
      <g transform="translate(432.627716 596.793316)scale(0.0694 -0.0694)">
       <use xlink:href="#DejaVuSerif-38"/>
       <use x="63.623047" xlink:href="#DejaVuSerif-30"/>
       <use x="127.246094" xlink:href="#DejaVuSerif-30"/>
      </g>
     </g>
    </g>
    <g id="xtick_7">
     <g id="line2d_7">
      <g>
       <use style="stroke:#000000;stroke-width:0.8;" x="511.794938" xlink:href="#m074b84f667" y="584.52"/>
      </g>
     </g>
     <g id="text_7">
      <!-- 850 -->
      <g transform="translate(505.171575 596.793316)scale(0.0694 -0.0694)">
       <use xlink:href="#DejaVuSerif-38"/>
       <use x="63.623047" xlink:href="#DejaVuSerif-35"/>
       <use x="127.246094" xlink:href="#DejaVuSerif-30"/>
      </g>
     </g>
    </g>
    <g id="xtick_8">
     <g id="line2d_8">
      <g>
       <use style="stroke:#000000;stroke-width:0.8;" x="584.338797" xlink:href="#m074b84f667" y="584.52"/>
      </g>
     </g>
     <g id="text_8">
      <!-- 900 -->
      <defs>
       <path d="M 46.78125 32.671875 
Q 43.5 29 39.25 27.1875 
Q 35.015625 25.390625 29.6875 25.390625 
Q 18.84375 25.390625 12.5625 31.9375 
Q 6.296875 38.484375 6.296875 49.8125 
Q 6.296875 60.890625 13.109375 67.546875 
Q 19.921875 74.21875 31.296875 74.21875 
Q 43.65625 74.21875 50.265625 65.015625 
Q 56.890625 55.8125 56.890625 38.71875 
Q 56.890625 19.578125 49.015625 9.078125 
Q 41.15625 -1.421875 26.90625 -1.421875 
Q 23.046875 -1.421875 18.796875 -0.6875 
Q 14.546875 0.046875 10.109375 1.515625 
L 10.109375 13.625 
L 15.578125 13.625 
Q 16.21875 8.6875 19.390625 6.046875 
Q 22.5625 3.421875 27.875 3.421875 
Q 37.359375 3.421875 41.984375 10.5625 
Q 46.625 17.71875 46.78125 32.671875 
z
M 30.90625 69.390625 
Q 23.96875 69.390625 20.28125 64.328125 
Q 16.609375 59.28125 16.609375 49.8125 
Q 16.609375 40.328125 20.28125 35.25 
Q 23.96875 30.171875 30.90625 30.171875 
Q 37.84375 30.171875 41.53125 35.078125 
Q 45.21875 39.984375 45.21875 49.21875 
Q 45.21875 58.9375 41.5 64.15625 
Q 37.796875 69.390625 30.90625 69.390625 
z
" id="DejaVuSerif-39"/>
      </defs>
      <g transform="translate(577.715435 596.793316)scale(0.0694 -0.0694)">
       <use xlink:href="#DejaVuSerif-39"/>
       <use x="63.623047" xlink:href="#DejaVuSerif-30"/>
       <use x="127.246094" xlink:href="#DejaVuSerif-30"/>
      </g>
     </g>
    </g>
    <g id="xtick_9">
     <g id="line2d_9">
      <g>
       <use style="stroke:#000000;stroke-width:0.8;" x="656.882656" xlink:href="#m074b84f667" y="584.52"/>
      </g>
     </g>
     <g id="text_9">
      <!-- 950 -->
      <g transform="translate(650.259294 596.793316)scale(0.0694 -0.0694)">
       <use xlink:href="#DejaVuSerif-39"/>
       <use x="63.623047" xlink:href="#DejaVuSerif-35"/>
       <use x="127.246094" xlink:href="#DejaVuSerif-30"/>
      </g>
     </g>
    </g>
   </g>
   <g id="matplotlib.axis_2">
    <g id="ytick_1">
     <g id="line2d_10">
      <defs>
       <path d="M 0 0 
L -3.5 0 
" id="m4f3d4d8a9b" style="stroke:#000000;stroke-width:0.8;"/>
      </defs>
      <g>
       <use style="stroke:#000000;stroke-width:0.8;" x="68.16" xlink:href="#m4f3d4d8a9b" y="535.32064"/>
      </g>
     </g>
     <g id="text_10">
      <!-- 800 -->
      <g transform="translate(47.913275 537.957298)scale(0.0694 -0.0694)">
       <use xlink:href="#DejaVuSerif-38"/>
       <use x="63.623047" xlink:href="#DejaVuSerif-30"/>
       <use x="127.246094" xlink:href="#DejaVuSerif-30"/>
      </g>
     </g>
    </g>
    <g id="ytick_2">
     <g id="line2d_11">
      <g>
       <use style="stroke:#000000;stroke-width:0.8;" x="68.16" xlink:href="#m4f3d4d8a9b" y="456.5208"/>
      </g>
     </g>
     <g id="text_11">
      <!-- 1000 -->
      <defs>
       <path d="M 14.203125 0 
L 14.203125 5.171875 
L 26.90625 5.171875 
L 26.90625 65.828125 
L 12.203125 56.296875 
L 12.203125 62.703125 
L 29.984375 74.21875 
L 36.71875 74.21875 
L 36.71875 5.171875 
L 49.421875 5.171875 
L 49.421875 0 
z
" id="DejaVuSerif-31"/>
      </defs>
      <g transform="translate(43.4977 459.157458)scale(0.0694 -0.0694)">
       <use xlink:href="#DejaVuSerif-31"/>
       <use x="63.623047" xlink:href="#DejaVuSerif-30"/>
       <use x="127.246094" xlink:href="#DejaVuSerif-30"/>
       <use x="190.869141" xlink:href="#DejaVuSerif-30"/>
      </g>
     </g>
    </g>
    <g id="ytick_3">
     <g id="line2d_12">
      <g>
       <use style="stroke:#000000;stroke-width:0.8;" x="68.16" xlink:href="#m4f3d4d8a9b" y="377.72096"/>
      </g>
     </g>
     <g id="text_12">
      <!-- 1200 -->
      <defs>
       <path d="M 12.796875 55.515625 
L 7.328125 55.515625 
L 7.328125 68.5 
Q 12.546875 71.296875 17.84375 72.75 
Q 23.140625 74.21875 28.21875 74.21875 
Q 39.59375 74.21875 46.1875 68.703125 
Q 52.78125 63.1875 52.78125 53.71875 
Q 52.78125 43.015625 37.84375 28.125 
Q 36.671875 27 36.078125 26.421875 
L 17.671875 8.015625 
L 48.09375 8.015625 
L 48.09375 17 
L 53.8125 17 
L 53.8125 0 
L 6.78125 0 
L 6.78125 5.328125 
L 28.90625 27.390625 
Q 36.234375 34.71875 39.359375 40.84375 
Q 42.484375 46.96875 42.484375 53.71875 
Q 42.484375 61.078125 38.640625 65.234375 
Q 34.8125 69.390625 28.078125 69.390625 
Q 21.09375 69.390625 17.28125 65.921875 
Q 13.484375 62.453125 12.796875 55.515625 
z
" id="DejaVuSerif-32"/>
      </defs>
      <g transform="translate(43.4977 380.357618)scale(0.0694 -0.0694)">
       <use xlink:href="#DejaVuSerif-31"/>
       <use x="63.623047" xlink:href="#DejaVuSerif-32"/>
       <use x="127.246094" xlink:href="#DejaVuSerif-30"/>
       <use x="190.869141" xlink:href="#DejaVuSerif-30"/>
      </g>
     </g>
    </g>
    <g id="ytick_4">
     <g id="line2d_13">
      <g>
       <use style="stroke:#000000;stroke-width:0.8;" x="68.16" xlink:href="#m4f3d4d8a9b" y="298.92112"/>
      </g>
     </g>
     <g id="text_13">
      <!-- 1400 -->
      <defs>
       <path d="M 34.90625 24.703125 
L 34.90625 63.484375 
L 10.015625 24.703125 
z
M 56.390625 0 
L 23.1875 0 
L 23.1875 5.171875 
L 34.90625 5.171875 
L 34.90625 19.484375 
L 3.078125 19.484375 
L 3.078125 24.8125 
L 35.015625 74.21875 
L 44.671875 74.21875 
L 44.671875 24.703125 
L 58.59375 24.703125 
L 58.59375 19.484375 
L 44.671875 19.484375 
L 44.671875 5.171875 
L 56.390625 5.171875 
z
" id="DejaVuSerif-34"/>
      </defs>
      <g transform="translate(43.4977 301.557778)scale(0.0694 -0.0694)">
       <use xlink:href="#DejaVuSerif-31"/>
       <use x="63.623047" xlink:href="#DejaVuSerif-34"/>
       <use x="127.246094" xlink:href="#DejaVuSerif-30"/>
       <use x="190.869141" xlink:href="#DejaVuSerif-30"/>
      </g>
     </g>
    </g>
    <g id="ytick_5">
     <g id="line2d_14">
      <g>
       <use style="stroke:#000000;stroke-width:0.8;" x="68.16" xlink:href="#m4f3d4d8a9b" y="220.12128"/>
      </g>
     </g>
     <g id="text_14">
      <!-- 1600 -->
      <g transform="translate(43.4977 222.757938)scale(0.0694 -0.0694)">
       <use xlink:href="#DejaVuSerif-31"/>
       <use x="63.623047" xlink:href="#DejaVuSerif-36"/>
       <use x="127.246094" xlink:href="#DejaVuSerif-30"/>
       <use x="190.869141" xlink:href="#DejaVuSerif-30"/>
      </g>
     </g>
    </g>
    <g id="ytick_6">
     <g id="line2d_15">
      <g>
       <use style="stroke:#000000;stroke-width:0.8;" x="68.16" xlink:href="#m4f3d4d8a9b" y="141.32144"/>
      </g>
     </g>
     <g id="text_15">
      <!-- 1800 -->
      <g transform="translate(43.4977 143.958098)scale(0.0694 -0.0694)">
       <use xlink:href="#DejaVuSerif-31"/>
       <use x="63.623047" xlink:href="#DejaVuSerif-38"/>
       <use x="127.246094" xlink:href="#DejaVuSerif-30"/>
       <use x="190.869141" xlink:href="#DejaVuSerif-30"/>
      </g>
     </g>
    </g>
    <g id="ytick_7">
     <g id="line2d_16">
      <g>
       <use style="stroke:#000000;stroke-width:0.8;" x="68.16" xlink:href="#m4f3d4d8a9b" y="62.5216"/>
      </g>
     </g>
     <g id="text_16">
      <!-- 2000 -->
      <g transform="translate(43.4977 65.158258)scale(0.0694 -0.0694)">
       <use xlink:href="#DejaVuSerif-32"/>
       <use x="63.623047" xlink:href="#DejaVuSerif-30"/>
       <use x="127.246094" xlink:href="#DejaVuSerif-30"/>
       <use x="190.869141" xlink:href="#DejaVuSerif-30"/>
      </g>
     </g>
    </g>
   </g>
   <g id="patch_3">
    <path d="M 68.16 584.52 
L 68.16 52.52 
" style="fill:none;stroke:#000000;stroke-linecap:square;stroke-linejoin:miter;stroke-width:0.8;"/>
   </g>
   <g id="patch_4">
    <path d="M 660.368 584.52 
L 660.368 52.52 
" style="fill:none;stroke:#000000;stroke-linecap:square;stroke-linejoin:miter;stroke-width:0.8;"/>
   </g>
   <g id="patch_5">
    <path d="M 68.16 584.52 
L 660.368 584.52 
" style="fill:none;stroke:#000000;stroke-linecap:square;stroke-linejoin:miter;stroke-width:0.8;"/>
   </g>
   <g id="patch_6">
    <path d="M 68.16 52.52 
L 660.368 52.52 
" style="fill:none;stroke:#000000;stroke-linecap:square;stroke-linejoin:miter;stroke-width:0.8;"/>
   </g>
  </g>
  <g id="axes_2">
   <g id="patch_7">
    <path clip-path="url(#pecc1eb5a96)" d="M 697.381 584.52 
L 697.381 553.225882 
L 697.381 83.814118 
L 697.381 52.52 
L 723.981 52.52 
L 723.981 83.814118 
L 723.981 553.225882 
L 723.981 584.52 
z
" style="fill:#ffffff;stroke:#ffffff;stroke-linejoin:miter;stroke-width:0.01;"/>
   </g>
   <g id="QuadMesh_1">
    <path clip-path="url(#pecc1eb5a96)" d="M 697.381 584.52 
L 723.981 584.52 
L 723.981 553.225882 
L 697.381 553.225882 
L 697.381 584.52 
" style="fill:#fcfcfc;"/>
    <path clip-path="url(#pecc1eb5a96)" d="M 697.381 553.225882 
L 723.981 553.225882 
L 723.981 521.931765 
L 697.381 521.931765 
L 697.381 553.225882 
" style="fill:#f5f5f5;"/>
    <path clip-path="url(#pecc1eb5a96)" d="M 697.381 521.931765 
L 723.981 521.931765 
L 723.981 490.637647 
L 697.381 490.637647 
L 697.381 521.931765 
" style="fill:#ececec;"/>
    <path clip-path="url(#pecc1eb5a96)" d="M 697.381 490.637647 
L 723.981 490.637647 
L 723.981 459.343529 
L 697.381 459.343529 
L 697.381 490.637647 
" style="fill:#e1e1e1;"/>
    <path clip-path="url(#pecc1eb5a96)" d="M 697.381 459.343529 
L 723.981 459.343529 
L 723.981 428.049412 
L 697.381 428.049412 
L 697.381 459.343529 
" style="fill:#d6d6d6;"/>
    <path clip-path="url(#pecc1eb5a96)" d="M 697.381 428.049412 
L 723.981 428.049412 
L 723.981 396.755294 
L 697.381 396.755294 
L 697.381 428.049412 
" style="fill:#c9c9c9;"/>
    <path clip-path="url(#pecc1eb5a96)" d="M 697.381 396.755294 
L 723.981 396.755294 
L 723.981 365.461176 
L 697.381 365.461176 
L 697.381 396.755294 
" style="fill:#bbbbbb;"/>
    <path clip-path="url(#pecc1eb5a96)" d="M 697.381 365.461176 
L 723.981 365.461176 
L 723.981 334.167059 
L 697.381 334.167059 
L 697.381 365.461176 
" style="fill:#a9a9a9;"/>
    <path clip-path="url(#pecc1eb5a96)" d="M 697.381 334.167059 
L 723.981 334.167059 
L 723.981 302.872941 
L 697.381 302.872941 
L 697.381 334.167059 
" style="fill:#959595;"/>
    <path clip-path="url(#pecc1eb5a96)" d="M 697.381 302.872941 
L 723.981 302.872941 
L 723.981 271.578824 
L 697.381 271.578824 
L 697.381 302.872941 
" style="fill:#858585;"/>
    <path clip-path="url(#pecc1eb5a96)" d="M 697.381 271.578824 
L 723.981 271.578824 
L 723.981 240.284706 
L 697.381 240.284706 
L 697.381 271.578824 
" style="fill:#757575;"/>
    <path clip-path="url(#pecc1eb5a96)" d="M 697.381 240.284706 
L 723.981 240.284706 
L 723.981 208.990588 
L 697.381 208.990588 
L 697.381 240.284706 
" style="fill:#656565;"/>
    <path clip-path="url(#pecc1eb5a96)" d="M 697.381 208.990588 
L 723.981 208.990588 
L 723.981 177.696471 
L 697.381 177.696471 
L 697.381 208.990588 
" style="fill:#555555;"/>
    <path clip-path="url(#pecc1eb5a96)" d="M 697.381 177.696471 
L 723.981 177.696471 
L 723.981 146.402353 
L 697.381 146.402353 
L 697.381 177.696471 
" style="fill:#414141;"/>
    <path clip-path="url(#pecc1eb5a96)" d="M 697.381 146.402353 
L 723.981 146.402353 
L 723.981 115.108235 
L 697.381 115.108235 
L 697.381 146.402353 
" style="fill:#2c2c2c;"/>
    <path clip-path="url(#pecc1eb5a96)" d="M 697.381 115.108235 
L 723.981 115.108235 
L 723.981 83.814118 
L 697.381 83.814118 
L 697.381 115.108235 
" style="fill:#1a1a1a;"/>
    <path clip-path="url(#pecc1eb5a96)" d="M 697.381 83.814118 
L 723.981 83.814118 
L 723.981 52.52 
L 697.381 52.52 
L 697.381 83.814118 
" style="fill:#080808;"/>
   </g>
   <g id="matplotlib.axis_3"/>
   <g id="matplotlib.axis_4">
    <g id="ytick_8">
     <g id="line2d_17">
      <defs>
       <path d="M 0 0 
L 3.5 0 
" id="m35e2ee5214" style="stroke:#000000;stroke-width:0.8;"/>
      </defs>
      <g>
       <use style="stroke:#000000;stroke-width:0.8;" x="723.981" xlink:href="#m35e2ee5214" y="584.52"/>
      </g>
     </g>
     <g id="text_17">
      <!-- 0.0022014 -->
      <defs>
       <path d="M 9.421875 5.078125 
Q 9.421875 7.8125 11.28125 9.71875 
Q 13.140625 11.625 15.921875 11.625 
Q 18.609375 11.625 20.5 9.71875 
Q 22.40625 7.8125 22.40625 5.078125 
Q 22.40625 2.390625 20.5 0.484375 
Q 18.609375 -1.421875 15.921875 -1.421875 
Q 13.140625 -1.421875 11.28125 0.453125 
Q 9.421875 2.34375 9.421875 5.078125 
z
" id="DejaVuSerif-2e"/>
      </defs>
      <g transform="translate(730.981 587.156658)scale(0.0694 -0.0694)">
       <use xlink:href="#DejaVuSerif-30"/>
       <use x="63.623047" xlink:href="#DejaVuSerif-2e"/>
       <use x="95.410156" xlink:href="#DejaVuSerif-30"/>
       <use x="159.033203" xlink:href="#DejaVuSerif-30"/>
       <use x="222.65625" xlink:href="#DejaVuSerif-32"/>
       <use x="286.279297" xlink:href="#DejaVuSerif-32"/>
       <use x="349.902344" xlink:href="#DejaVuSerif-30"/>
       <use x="413.525391" xlink:href="#DejaVuSerif-31"/>
       <use x="477.148438" xlink:href="#DejaVuSerif-34"/>
      </g>
     </g>
    </g>
    <g id="ytick_9">
     <g id="line2d_18">
      <g>
       <use style="stroke:#000000;stroke-width:0.8;" x="723.981" xlink:href="#m35e2ee5214" y="521.931765"/>
      </g>
     </g>
     <g id="text_18">
      <!-- 0.0022018 -->
      <g transform="translate(730.981 524.568423)scale(0.0694 -0.0694)">
       <use xlink:href="#DejaVuSerif-30"/>
       <use x="63.623047" xlink:href="#DejaVuSerif-2e"/>
       <use x="95.410156" xlink:href="#DejaVuSerif-30"/>
       <use x="159.033203" xlink:href="#DejaVuSerif-30"/>
       <use x="222.65625" xlink:href="#DejaVuSerif-32"/>
       <use x="286.279297" xlink:href="#DejaVuSerif-32"/>
       <use x="349.902344" xlink:href="#DejaVuSerif-30"/>
       <use x="413.525391" xlink:href="#DejaVuSerif-31"/>
       <use x="477.148438" xlink:href="#DejaVuSerif-38"/>
      </g>
     </g>
    </g>
    <g id="ytick_10">
     <g id="line2d_19">
      <g>
       <use style="stroke:#000000;stroke-width:0.8;" x="723.981" xlink:href="#m35e2ee5214" y="459.343529"/>
      </g>
     </g>
     <g id="text_19">
      <!-- 0.0022022 -->
      <g transform="translate(730.981 461.980187)scale(0.0694 -0.0694)">
       <use xlink:href="#DejaVuSerif-30"/>
       <use x="63.623047" xlink:href="#DejaVuSerif-2e"/>
       <use x="95.410156" xlink:href="#DejaVuSerif-30"/>
       <use x="159.033203" xlink:href="#DejaVuSerif-30"/>
       <use x="222.65625" xlink:href="#DejaVuSerif-32"/>
       <use x="286.279297" xlink:href="#DejaVuSerif-32"/>
       <use x="349.902344" xlink:href="#DejaVuSerif-30"/>
       <use x="413.525391" xlink:href="#DejaVuSerif-32"/>
       <use x="477.148438" xlink:href="#DejaVuSerif-32"/>
      </g>
     </g>
    </g>
    <g id="ytick_11">
     <g id="line2d_20">
      <g>
       <use style="stroke:#000000;stroke-width:0.8;" x="723.981" xlink:href="#m35e2ee5214" y="396.755294"/>
      </g>
     </g>
     <g id="text_20">
      <!-- 0.0022026 -->
      <g transform="translate(730.981 399.391952)scale(0.0694 -0.0694)">
       <use xlink:href="#DejaVuSerif-30"/>
       <use x="63.623047" xlink:href="#DejaVuSerif-2e"/>
       <use x="95.410156" xlink:href="#DejaVuSerif-30"/>
       <use x="159.033203" xlink:href="#DejaVuSerif-30"/>
       <use x="222.65625" xlink:href="#DejaVuSerif-32"/>
       <use x="286.279297" xlink:href="#DejaVuSerif-32"/>
       <use x="349.902344" xlink:href="#DejaVuSerif-30"/>
       <use x="413.525391" xlink:href="#DejaVuSerif-32"/>
       <use x="477.148438" xlink:href="#DejaVuSerif-36"/>
      </g>
     </g>
    </g>
    <g id="ytick_12">
     <g id="line2d_21">
      <g>
       <use style="stroke:#000000;stroke-width:0.8;" x="723.981" xlink:href="#m35e2ee5214" y="334.167059"/>
      </g>
     </g>
     <g id="text_21">
      <!-- 0.0022030 -->
      <defs>
       <path d="M 9.71875 69.828125 
Q 15.4375 71.96875 20.671875 73.09375 
Q 25.921875 74.21875 30.515625 74.21875 
Q 41.21875 74.21875 47.21875 69.59375 
Q 53.21875 64.984375 53.21875 56.78125 
Q 53.21875 50.203125 49.0625 45.78125 
Q 44.921875 41.359375 37.3125 39.796875 
Q 46.296875 38.53125 51.25 33.28125 
Q 56.203125 28.03125 56.203125 19.671875 
Q 56.203125 9.46875 49.34375 4.015625 
Q 42.484375 -1.421875 29.59375 -1.421875 
Q 23.875 -1.421875 18.421875 -0.1875 
Q 12.984375 1.03125 7.625 3.515625 
L 7.625 17.671875 
L 13.09375 17.671875 
Q 13.578125 10.640625 17.828125 7.03125 
Q 22.078125 3.421875 29.78125 3.421875 
Q 37.25 3.421875 41.578125 7.734375 
Q 45.90625 12.0625 45.90625 19.578125 
Q 45.90625 28.171875 41.453125 32.59375 
Q 37.015625 37.015625 28.421875 37.015625 
L 23.78125 37.015625 
L 23.78125 42 
L 26.21875 42 
Q 34.765625 42 39.03125 45.53125 
Q 43.3125 49.078125 43.3125 56.203125 
Q 43.3125 62.59375 39.796875 65.984375 
Q 36.28125 69.390625 29.6875 69.390625 
Q 23.09375 69.390625 19.453125 66.265625 
Q 15.828125 63.140625 15.1875 56.984375 
L 9.71875 56.984375 
z
" id="DejaVuSerif-33"/>
      </defs>
      <g transform="translate(730.981 336.803717)scale(0.0694 -0.0694)">
       <use xlink:href="#DejaVuSerif-30"/>
       <use x="63.623047" xlink:href="#DejaVuSerif-2e"/>
       <use x="95.410156" xlink:href="#DejaVuSerif-30"/>
       <use x="159.033203" xlink:href="#DejaVuSerif-30"/>
       <use x="222.65625" xlink:href="#DejaVuSerif-32"/>
       <use x="286.279297" xlink:href="#DejaVuSerif-32"/>
       <use x="349.902344" xlink:href="#DejaVuSerif-30"/>
       <use x="413.525391" xlink:href="#DejaVuSerif-33"/>
       <use x="477.148438" xlink:href="#DejaVuSerif-30"/>
      </g>
     </g>
    </g>
    <g id="ytick_13">
     <g id="line2d_22">
      <g>
       <use style="stroke:#000000;stroke-width:0.8;" x="723.981" xlink:href="#m35e2ee5214" y="271.578824"/>
      </g>
     </g>
     <g id="text_22">
      <!-- 0.0022034 -->
      <g transform="translate(730.981 274.215481)scale(0.0694 -0.0694)">
       <use xlink:href="#DejaVuSerif-30"/>
       <use x="63.623047" xlink:href="#DejaVuSerif-2e"/>
       <use x="95.410156" xlink:href="#DejaVuSerif-30"/>
       <use x="159.033203" xlink:href="#DejaVuSerif-30"/>
       <use x="222.65625" xlink:href="#DejaVuSerif-32"/>
       <use x="286.279297" xlink:href="#DejaVuSerif-32"/>
       <use x="349.902344" xlink:href="#DejaVuSerif-30"/>
       <use x="413.525391" xlink:href="#DejaVuSerif-33"/>
       <use x="477.148438" xlink:href="#DejaVuSerif-34"/>
      </g>
     </g>
    </g>
    <g id="ytick_14">
     <g id="line2d_23">
      <g>
       <use style="stroke:#000000;stroke-width:0.8;" x="723.981" xlink:href="#m35e2ee5214" y="208.990588"/>
      </g>
     </g>
     <g id="text_23">
      <!-- 0.0022038 -->
      <g transform="translate(730.981 211.627246)scale(0.0694 -0.0694)">
       <use xlink:href="#DejaVuSerif-30"/>
       <use x="63.623047" xlink:href="#DejaVuSerif-2e"/>
       <use x="95.410156" xlink:href="#DejaVuSerif-30"/>
       <use x="159.033203" xlink:href="#DejaVuSerif-30"/>
       <use x="222.65625" xlink:href="#DejaVuSerif-32"/>
       <use x="286.279297" xlink:href="#DejaVuSerif-32"/>
       <use x="349.902344" xlink:href="#DejaVuSerif-30"/>
       <use x="413.525391" xlink:href="#DejaVuSerif-33"/>
       <use x="477.148438" xlink:href="#DejaVuSerif-38"/>
      </g>
     </g>
    </g>
    <g id="ytick_15">
     <g id="line2d_24">
      <g>
       <use style="stroke:#000000;stroke-width:0.8;" x="723.981" xlink:href="#m35e2ee5214" y="146.402353"/>
      </g>
     </g>
     <g id="text_24">
      <!-- 0.0022042 -->
      <g transform="translate(730.981 149.039011)scale(0.0694 -0.0694)">
       <use xlink:href="#DejaVuSerif-30"/>
       <use x="63.623047" xlink:href="#DejaVuSerif-2e"/>
       <use x="95.410156" xlink:href="#DejaVuSerif-30"/>
       <use x="159.033203" xlink:href="#DejaVuSerif-30"/>
       <use x="222.65625" xlink:href="#DejaVuSerif-32"/>
       <use x="286.279297" xlink:href="#DejaVuSerif-32"/>
       <use x="349.902344" xlink:href="#DejaVuSerif-30"/>
       <use x="413.525391" xlink:href="#DejaVuSerif-34"/>
       <use x="477.148438" xlink:href="#DejaVuSerif-32"/>
      </g>
     </g>
    </g>
    <g id="ytick_16">
     <g id="line2d_25">
      <g>
       <use style="stroke:#000000;stroke-width:0.8;" x="723.981" xlink:href="#m35e2ee5214" y="83.814118"/>
      </g>
     </g>
     <g id="text_25">
      <!-- 0.0022046 -->
      <g transform="translate(730.981 86.450775)scale(0.0694 -0.0694)">
       <use xlink:href="#DejaVuSerif-30"/>
       <use x="63.623047" xlink:href="#DejaVuSerif-2e"/>
       <use x="95.410156" xlink:href="#DejaVuSerif-30"/>
       <use x="159.033203" xlink:href="#DejaVuSerif-30"/>
       <use x="222.65625" xlink:href="#DejaVuSerif-32"/>
       <use x="286.279297" xlink:href="#DejaVuSerif-32"/>
       <use x="349.902344" xlink:href="#DejaVuSerif-30"/>
       <use x="413.525391" xlink:href="#DejaVuSerif-34"/>
       <use x="477.148438" xlink:href="#DejaVuSerif-36"/>
      </g>
     </g>
    </g>
   </g>
   <g id="patch_8">
    <path d="M 697.381 584.52 
L 697.381 553.225882 
L 697.381 83.814118 
L 697.381 52.52 
L 723.981 52.52 
L 723.981 83.814118 
L 723.981 553.225882 
L 723.981 584.52 
z
" style="fill:none;stroke:#000000;stroke-linejoin:miter;stroke-width:0.8;"/>
   </g>
  </g>
 </g>
 <defs>
  <clipPath id="pb4e4a0ac6e">
   <rect height="532" width="592.208" x="68.16" y="52.52"/>
  </clipPath>
  <clipPath id="pecc1eb5a96">
   <rect height="532" width="26.6" x="697.381" y="52.52"/>
  </clipPath>
 </defs>
</svg>
