<?xml version="1.0" encoding="utf-8" standalone="no"?>
<!DOCTYPE svg PUBLIC "-//W3C//DTD SVG 1.1//EN"
  "http://www.w3.org/Graphics/SVG/1.1/DTD/svg11.dtd">
<!-- Created with matplotlib (http://matplotlib.org/) -->
<svg height="648pt" version="1.1" viewBox="0 0 864 648" width="864pt" xmlns="http://www.w3.org/2000/svg" xmlns:xlink="http://www.w3.org/1999/xlink">
 <defs>
  <style type="text/css">
*{stroke-linecap:butt;stroke-linejoin:round;}
  </style>
 </defs>
 <g id="figure_1">
  <g id="patch_1">
   <path d="M 0 648 
L 864 648 
L 864 0 
L 0 0 
z
" style="fill:#ffffff;"/>
  </g>
  <g id="axes_1">
   <g id="patch_2">
    <path d="M 68.16 584.52 
L 660.368 584.52 
L 660.368 52.52 
L 68.16 52.52 
z
" style="fill:#ffffff;"/>
   </g>
   <g id="PathCollection_1">
    <path clip-path="url(#p8dd11dcb06)" d="M 660.368 380.481358 
L 660.368 371.72 
L 660.368 318.52 
L 660.368 265.32 
L 660.368 212.12 
L 660.368 158.92 
L 660.368 105.72 
L 660.368 52.52 
L 593.623739 52.52 
L 598.660286 105.72 
L 600.084978 158.92 
L 607.47733 212.12 
L 620.902974 265.32 
L 627.776401 318.52 
L 652.732036 371.72 
z
" style="fill:#fcfcfc;"/>
   </g>
   <g id="PathCollection_2">
    <path clip-path="url(#p8dd11dcb06)" d="M 660.368 486.692783 
L 660.368 478.12 
L 660.368 424.92 
L 660.368 380.481358 
L 652.732036 371.72 
L 627.776401 318.52 
L 620.902974 265.32 
L 607.47733 212.12 
L 600.084978 158.92 
L 598.660286 105.72 
L 593.623739 52.52 
L 561.666667 52.52 
L 522.154537 52.52 
L 525.222227 105.72 
L 526.085236 158.92 
L 530.577126 212.12 
L 538.742486 265.32 
L 542.926266 318.52 
L 558.08619 371.72 
L 561.666667 378.474566 
L 602.146197 424.92 
L 631.400969 478.12 
z
" style="fill:#f6f6f6;"/>
   </g>
   <g id="PathCollection_3">
    <path clip-path="url(#p8dd11dcb06)" d="M 660.368 584.52 
L 660.368 558.973729 
L 609.590265 584.52 
z
" style="fill:#f0f0f0;"/>
    <path clip-path="url(#p8dd11dcb06)" d="M 561.666667 486.088615 
L 660.368 515.29924 
L 660.368 486.692783 
L 631.400969 478.12 
L 602.146197 424.92 
L 561.666667 378.474566 
L 558.08619 371.72 
L 542.926266 318.52 
L 538.742486 265.32 
L 530.577126 212.12 
L 526.085236 158.92 
L 525.222227 105.72 
L 522.154537 52.52 
L 463.205844 52.52 
L 466.273534 105.72 
L 467.136543 158.92 
L 471.628433 212.12 
L 479.781116 265.32 
L 483.971939 318.52 
L 499.119184 371.72 
L 527.30232 424.92 
L 545.269031 478.12 
z
" style="fill:#f0f0f0;"/>
   </g>
   <g id="PathCollection_4">
    <path clip-path="url(#p8dd11dcb06)" d="M 561.666667 584.52 
L 609.590265 584.52 
L 660.368 558.973729 
L 660.368 531.32 
L 660.368 515.29924 
L 561.666667 486.088615 
L 545.269031 478.12 
L 527.30232 424.92 
L 499.119184 371.72 
L 483.971939 318.52 
L 479.781116 265.32 
L 471.628433 212.12 
L 467.136543 158.92 
L 466.273534 105.72 
L 463.205844 52.52 
L 462.965333 52.52 
L 419.919111 52.52 
L 422.165555 105.72 
L 422.798377 158.92 
L 426.086354 212.12 
L 432.060637 265.32 
L 435.135542 318.52 
L 446.234593 371.72 
L 462.965333 414.832727 
L 468.305707 424.92 
L 486.403309 478.12 
L 561.666667 514.695071 
L 617.841521 531.32 
L 561.666667 559.610125 
L 531.266865 584.52 
z
" style="fill:#e7e7e7;"/>
   </g>
   <g id="PathCollection_5">
    <path clip-path="url(#p8dd11dcb06)" d="M 561.666667 559.610125 
L 617.841521 531.32 
L 561.666667 514.695071 
L 486.403309 478.12 
L 468.305707 424.92 
L 462.965333 414.832727 
L 446.234593 371.72 
L 435.135542 318.52 
L 432.060637 265.32 
L 426.086354 212.12 
L 422.798377 158.92 
L 422.165555 105.72 
L 419.919111 52.52 
L 376.69654 52.52 
L 378.939955 105.72 
L 379.572778 158.92 
L 382.853939 212.12 
L 388.825192 265.32 
L 391.900097 318.52 
L 402.989297 371.72 
L 423.611152 424.92 
L 436.965924 478.12 
L 462.965333 495.342437 
L 537.001933 531.32 
L 471.859764 584.52 
L 531.266865 584.52 
z
" style="fill:#dedede;"/>
   </g>
   <g id="PathCollection_6">
    <path clip-path="url(#p8dd11dcb06)" d="M 462.965333 584.52 
L 471.859764 584.52 
L 537.001933 531.32 
L 462.965333 495.342437 
L 436.965924 478.12 
L 423.611152 424.92 
L 402.989297 371.72 
L 391.900097 318.52 
L 388.825192 265.32 
L 382.853939 212.12 
L 379.572778 158.92 
L 378.939955 105.72 
L 376.69654 52.52 
L 364.264 52.52 
L 328.756323 52.52 
L 331.342288 105.72 
L 332.068769 158.92 
L 335.84711 212.12 
L 342.729236 265.32 
L 346.27479 318.52 
L 359.051449 371.72 
L 364.264 383.400665 
L 380.340072 424.92 
L 393.766055 478.12 
L 462.965333 523.958742 
L 478.113734 531.32 
L 462.965333 543.676588 
L 426.060191 584.52 
z
" style="fill:#d4d4d4;"/>
   </g>
   <g id="PathCollection_7">
    <path clip-path="url(#p8dd11dcb06)" d="M 462.965333 543.676588 
L 478.113734 531.32 
L 462.965333 523.958742 
L 393.766055 478.12 
L 380.340072 424.92 
L 364.264 383.400665 
L 359.051449 371.72 
L 346.27479 318.52 
L 342.729236 265.32 
L 335.84711 212.12 
L 332.068769 158.92 
L 331.342288 105.72 
L 328.756323 52.52 
L 278.911193 52.52 
L 281.497158 105.72 
L 282.218604 158.92 
L 285.992916 212.12 
L 292.871013 265.32 
L 296.415559 318.52 
L 309.180126 371.72 
L 332.904392 424.92 
L 348.464532 478.12 
L 364.264 487.198737 
L 430.863586 531.32 
L 382.656674 584.52 
L 426.060191 584.52 
z
" style="fill:#c8c8c8;"/>
   </g>
   <g id="PathCollection_8">
    <path clip-path="url(#p8dd11dcb06)" d="M 364.264 584.52 
L 382.656674 584.52 
L 430.863586 531.32 
L 364.264 487.198737 
L 348.464532 478.12 
L 332.904392 424.92 
L 309.180126 371.72 
L 296.415559 318.52 
L 292.871013 265.32 
L 285.992916 212.12 
L 282.218604 158.92 
L 281.497158 105.72 
L 278.911193 52.52 
L 265.562667 52.52 
L 235.060102 52.52 
L 237.220882 105.72 
L 237.824786 158.92 
L 240.97565 212.12 
L 246.719958 265.32 
L 249.682337 318.52 
L 260.338302 371.72 
L 265.562667 385.7648 
L 283.006848 424.92 
L 298.636513 478.12 
L 364.264 515.831059 
L 387.644044 531.32 
L 364.264 557.08 
L 335.498824 584.52 
z
" style="fill:#bebebe;"/>
   </g>
   <g id="PathCollection_9">
    <path clip-path="url(#p8dd11dcb06)" d="M 364.264 557.08 
L 387.644044 531.32 
L 364.264 515.831059 
L 298.636513 478.12 
L 283.006848 424.92 
L 265.562667 385.7648 
L 260.338302 371.72 
L 249.682337 318.52 
L 246.719958 265.32 
L 240.97565 212.12 
L 237.824786 158.92 
L 237.220882 105.72 
L 235.060102 52.52 
L 193.401314 52.52 
L 195.56139 105.72 
L 196.168811 158.92 
L 199.316862 212.12 
L 205.058356 265.32 
L 208.023549 318.52 
L 218.6767 371.72 
L 238.467791 424.92 
L 251.573265 478.12 
L 265.562667 487.758122 
L 341.366903 531.32 
L 285.580082 584.52 
L 335.498824 584.52 
z
" style="fill:#aeaeae;"/>
   </g>
   <g id="PathCollection_10">
    <path clip-path="url(#p8dd11dcb06)" d="M 265.562667 584.52 
L 285.580082 584.52 
L 341.366903 531.32 
L 265.562667 487.758122 
L 251.573265 478.12 
L 238.467791 424.92 
L 218.6767 371.72 
L 208.023549 318.52 
L 205.058356 265.32 
L 199.316862 212.12 
L 196.168811 158.92 
L 195.56139 105.72 
L 193.401314 52.52 
L 166.861333 52.52 
L 161.167774 52.52 
L 161.981081 105.72 
L 162.210755 158.92 
L 163.395409 212.12 
L 165.556745 265.32 
L 166.674352 318.52 
L 166.861333 321.000613 
L 177.015099 371.72 
L 196.809003 424.92 
L 209.967861 478.12 
L 265.562667 516.422532 
L 291.486506 531.32 
L 265.562667 556.034946 
L 240.721449 584.52 
z
" style="fill:#9e9e9e;"/>
   </g>
   <g id="PathCollection_11">
    <path clip-path="url(#p8dd11dcb06)" d="M 265.562667 556.034946 
L 291.486506 531.32 
L 265.562667 516.422532 
L 209.967861 478.12 
L 196.809003 424.92 
L 177.015099 371.72 
L 166.861333 321.000613 
L 166.674352 318.52 
L 165.556745 265.32 
L 163.395409 212.12 
L 162.210755 158.92 
L 161.981081 105.72 
L 161.167774 52.52 
L 145.47958 52.52 
L 146.292986 105.72 
L 146.52266 158.92 
L 147.706816 212.12 
L 149.869049 265.32 
L 150.987952 318.52 
L 154.997345 371.72 
L 162.452414 424.92 
L 166.861333 472.068751 
L 168.362457 478.12 
L 245.573345 531.32 
L 199.2503 584.52 
L 240.721449 584.52 
z
" style="fill:#8f8f8f;"/>
   </g>
   <g id="PathCollection_12">
    <path clip-path="url(#p8dd11dcb06)" d="M 166.861333 584.52 
L 199.2503 584.52 
L 245.573345 531.32 
L 168.362457 478.12 
L 166.861333 472.068751 
L 162.452414 424.92 
L 154.997345 371.72 
L 150.987952 318.52 
L 149.869049 265.32 
L 147.706816 212.12 
L 146.52266 158.92 
L 146.292986 105.72 
L 145.47958 52.52 
L 129.791385 52.52 
L 130.604892 105.72 
L 130.834565 158.92 
L 132.018223 212.12 
L 134.181353 265.32 
L 135.301553 318.52 
L 139.310048 371.72 
L 146.769006 424.92 
L 151.756359 478.12 
L 166.861333 505.76271 
L 203.953204 531.32 
L 166.861333 574.025675 
L 163.441902 584.52 
z
" style="fill:#818181;"/>
   </g>
   <g id="PathCollection_13">
    <path clip-path="url(#p8dd11dcb06)" d="M 166.861333 574.025675 
L 203.953204 531.32 
L 166.861333 505.76271 
L 151.756359 478.12 
L 146.769006 424.92 
L 139.310048 371.72 
L 135.301553 318.52 
L 134.181353 265.32 
L 132.018223 212.12 
L 130.834565 158.92 
L 130.604892 105.72 
L 129.791385 52.52 
L 114.103191 52.52 
L 114.916797 105.72 
L 115.146471 158.92 
L 116.329629 212.12 
L 118.493658 265.32 
L 119.615154 318.52 
L 123.622751 371.72 
L 131.085597 424.92 
L 136.085999 478.12 
L 165.156225 531.32 
L 147.828061 584.52 
L 163.441902 584.52 
z
" style="fill:#727272;"/>
   </g>
   <g id="PathCollection_14">
    <path clip-path="url(#p8dd11dcb06)" d="M 165.156225 531.32 
L 136.085999 478.12 
L 131.085597 424.92 
L 123.622751 371.72 
L 119.615154 318.52 
L 118.493658 265.32 
L 116.329629 212.12 
L 115.146471 158.92 
L 114.916797 105.72 
L 114.103191 52.52 
L 98.414996 52.52 
L 99.228702 105.72 
L 99.458376 158.92 
L 100.641036 212.12 
L 102.805962 265.32 
L 103.928755 318.52 
L 107.935454 371.72 
L 115.402189 424.92 
L 120.415638 478.12 
L 149.484272 531.32 
L 132.214221 584.52 
L 147.828061 584.52 
z
" style="fill:#666666;"/>
   </g>
   <g id="PathCollection_15">
    <path clip-path="url(#p8dd11dcb06)" d="M 149.484272 531.32 
L 120.415638 478.12 
L 115.402189 424.92 
L 107.935454 371.72 
L 103.928755 318.52 
L 102.805962 265.32 
L 100.641036 212.12 
L 99.458376 158.92 
L 99.228702 105.72 
L 98.414996 52.52 
L 82.726802 52.52 
L 83.540608 105.72 
L 83.770282 158.92 
L 84.952443 212.12 
L 87.118266 265.32 
L 88.242356 318.52 
L 92.248158 371.72 
L 99.718781 424.92 
L 104.745278 478.12 
L 133.812319 531.32 
L 116.60038 584.52 
L 132.214221 584.52 
z
" style="fill:#585858;"/>
   </g>
   <g id="PathCollection_16">
    <path clip-path="url(#p8dd11dcb06)" d="M 133.812319 531.32 
L 104.745278 478.12 
L 99.718781 424.92 
L 92.248158 371.72 
L 88.242356 318.52 
L 87.118266 265.32 
L 84.952443 212.12 
L 83.770282 158.92 
L 83.540608 105.72 
L 82.726802 52.52 
L 68.16 52.52 
L 68.16 105.72 
L 68.16 158.92 
L 68.16 162.423344 
L 69.263849 212.12 
L 71.430571 265.32 
L 72.555957 318.52 
L 76.560861 371.72 
L 84.035373 424.92 
L 89.074917 478.12 
L 118.140366 531.32 
L 100.986539 584.52 
L 116.60038 584.52 
z
" style="fill:#484848;"/>
   </g>
   <g id="PathCollection_17">
    <path clip-path="url(#p8dd11dcb06)" d="M 118.140366 531.32 
L 89.074917 478.12 
L 84.035373 424.92 
L 76.560861 371.72 
L 72.555957 318.52 
L 71.430571 265.32 
L 69.263849 212.12 
L 68.16 162.423344 
L 68.16 212.12 
L 68.16 265.32 
L 68.16 318.52 
L 68.16 371.72 
L 68.16 423.554066 
L 68.351965 424.92 
L 73.404556 478.12 
L 102.468413 531.32 
L 85.372698 584.52 
L 100.986539 584.52 
z
" style="fill:#363636;"/>
   </g>
   <g id="PathCollection_18">
    <path clip-path="url(#p8dd11dcb06)" d="M 102.468413 531.32 
L 73.404556 478.12 
L 68.351965 424.92 
L 68.16 423.554066 
L 68.16 424.92 
L 68.16 478.12 
L 68.16 497.206226 
L 86.79646 531.32 
L 69.758857 584.52 
L 85.372698 584.52 
z
" style="fill:#242424;"/>
   </g>
   <g id="PathCollection_19">
    <path clip-path="url(#p8dd11dcb06)" d="M 86.79646 531.32 
L 68.16 497.206226 
L 68.16 525.893513 
L 71.124507 531.32 
L 68.16 540.579921 
L 68.16 584.52 
L 69.758857 584.52 
z
" style="fill:#161616;"/>
   </g>
   <g id="PathCollection_20">
    <path clip-path="url(#p8dd11dcb06)" d="M 71.124507 531.32 
L 68.16 525.893513 
L 68.16 531.32 
L 68.16 540.579921 
z
" style="fill:#070707;"/>
   </g>
   <g id="matplotlib.axis_1">
    <g id="xtick_1">
     <g id="line2d_1">
      <defs>
       <path d="M 0 0 
L 0 3.5 
" id="mfe15ad489b" style="stroke:#000000;stroke-width:0.8;"/>
      </defs>
      <g>
       <use style="stroke:#000000;stroke-width:0.8;" x="76.531783" xlink:href="#mfe15ad489b" y="584.52"/>
      </g>
     </g>
     <g id="text_1">
      <!-- 550 -->
      <defs>
       <path d="M 50.296875 72.90625 
L 50.296875 64.890625 
L 16.890625 64.890625 
L 16.890625 44 
Q 19.4375 45.75 22.828125 46.625 
Q 26.21875 47.515625 30.421875 47.515625 
Q 42.234375 47.515625 49.0625 40.96875 
Q 55.90625 34.421875 55.90625 23.09375 
Q 55.90625 11.53125 49 5.046875 
Q 42.09375 -1.421875 29.59375 -1.421875 
Q 24.5625 -1.421875 19.28125 -0.1875 
Q 14.015625 1.03125 8.5 3.515625 
L 8.5 17.671875 
L 14.015625 17.671875 
Q 14.453125 10.75 18.421875 7.078125 
Q 22.40625 3.421875 29.59375 3.421875 
Q 37.3125 3.421875 41.453125 8.5 
Q 45.609375 13.578125 45.609375 23.09375 
Q 45.609375 32.5625 41.484375 37.609375 
Q 37.359375 42.671875 29.59375 42.671875 
Q 25.203125 42.671875 21.84375 41.109375 
Q 18.5 39.546875 15.921875 36.28125 
L 11.71875 36.28125 
L 11.71875 72.90625 
z
" id="DejaVuSerif-35"/>
       <path d="M 31.78125 3.421875 
Q 39.265625 3.421875 42.96875 11.625 
Q 46.6875 19.828125 46.6875 36.375 
Q 46.6875 52.984375 42.96875 61.1875 
Q 39.265625 69.390625 31.78125 69.390625 
Q 24.3125 69.390625 20.59375 61.1875 
Q 16.890625 52.984375 16.890625 36.375 
Q 16.890625 19.828125 20.59375 11.625 
Q 24.3125 3.421875 31.78125 3.421875 
z
M 31.78125 -1.421875 
Q 19.921875 -1.421875 13.25 8.53125 
Q 6.59375 18.5 6.59375 36.375 
Q 6.59375 54.296875 13.25 64.25 
Q 19.921875 74.21875 31.78125 74.21875 
Q 43.703125 74.21875 50.34375 64.25 
Q 56.984375 54.296875 56.984375 36.375 
Q 56.984375 18.5 50.34375 8.53125 
Q 43.703125 -1.421875 31.78125 -1.421875 
z
" id="DejaVuSerif-30"/>
      </defs>
      <g transform="translate(69.908421 596.793316)scale(0.0694 -0.0694)">
       <use xlink:href="#DejaVuSerif-35"/>
       <use x="63.623047" xlink:href="#DejaVuSerif-35"/>
       <use x="127.246094" xlink:href="#DejaVuSerif-30"/>
      </g>
     </g>
    </g>
    <g id="xtick_2">
     <g id="line2d_2">
      <g>
       <use style="stroke:#000000;stroke-width:0.8;" x="149.075642" xlink:href="#mfe15ad489b" y="584.52"/>
      </g>
     </g>
     <g id="text_2">
      <!-- 600 -->
      <defs>
       <path d="M 32.71875 3.421875 
Q 39.59375 3.421875 43.296875 8.46875 
Q 47.015625 13.53125 47.015625 23 
Q 47.015625 32.46875 43.296875 37.515625 
Q 39.59375 42.578125 32.71875 42.578125 
Q 25.734375 42.578125 22.0625 37.6875 
Q 18.40625 32.8125 18.40625 23.578125 
Q 18.40625 13.875 22.109375 8.640625 
Q 25.828125 3.421875 32.71875 3.421875 
z
M 16.796875 40.140625 
Q 20.125 43.796875 24.3125 45.59375 
Q 28.515625 47.40625 33.796875 47.40625 
Q 44.671875 47.40625 51 40.859375 
Q 57.328125 34.328125 57.328125 23 
Q 57.328125 11.921875 50.515625 5.25 
Q 43.703125 -1.421875 32.328125 -1.421875 
Q 19.96875 -1.421875 13.328125 7.78125 
Q 6.6875 17 6.6875 34.078125 
Q 6.6875 53.21875 14.546875 63.71875 
Q 22.40625 74.21875 36.71875 74.21875 
Q 40.578125 74.21875 44.828125 73.484375 
Q 49.078125 72.75 53.515625 71.296875 
L 53.515625 59.28125 
L 48 59.28125 
Q 47.40625 64.203125 44.234375 66.796875 
Q 41.0625 69.390625 35.6875 69.390625 
Q 26.21875 69.390625 21.578125 62.203125 
Q 16.9375 55.03125 16.796875 40.140625 
z
" id="DejaVuSerif-36"/>
      </defs>
      <g transform="translate(142.45228 596.793316)scale(0.0694 -0.0694)">
       <use xlink:href="#DejaVuSerif-36"/>
       <use x="63.623047" xlink:href="#DejaVuSerif-30"/>
       <use x="127.246094" xlink:href="#DejaVuSerif-30"/>
      </g>
     </g>
    </g>
    <g id="xtick_3">
     <g id="line2d_3">
      <g>
       <use style="stroke:#000000;stroke-width:0.8;" x="221.619502" xlink:href="#mfe15ad489b" y="584.52"/>
      </g>
     </g>
     <g id="text_3">
      <!-- 650 -->
      <g transform="translate(214.996139 596.793316)scale(0.0694 -0.0694)">
       <use xlink:href="#DejaVuSerif-36"/>
       <use x="63.623047" xlink:href="#DejaVuSerif-35"/>
       <use x="127.246094" xlink:href="#DejaVuSerif-30"/>
      </g>
     </g>
    </g>
    <g id="xtick_4">
     <g id="line2d_4">
      <g>
       <use style="stroke:#000000;stroke-width:0.8;" x="294.163361" xlink:href="#mfe15ad489b" y="584.52"/>
      </g>
     </g>
     <g id="text_4">
      <!-- 700 -->
      <defs>
       <path d="M 56.390625 67.921875 
L 27.875 0 
L 20.609375 0 
L 47.796875 64.890625 
L 14.109375 64.890625 
L 14.109375 55.90625 
L 8.40625 55.90625 
L 8.40625 72.90625 
L 56.390625 72.90625 
z
" id="DejaVuSerif-37"/>
      </defs>
      <g transform="translate(287.539998 596.793316)scale(0.0694 -0.0694)">
       <use xlink:href="#DejaVuSerif-37"/>
       <use x="63.623047" xlink:href="#DejaVuSerif-30"/>
       <use x="127.246094" xlink:href="#DejaVuSerif-30"/>
      </g>
     </g>
    </g>
    <g id="xtick_5">
     <g id="line2d_5">
      <g>
       <use style="stroke:#000000;stroke-width:0.8;" x="366.70722" xlink:href="#mfe15ad489b" y="584.52"/>
      </g>
     </g>
     <g id="text_5">
      <!-- 750 -->
      <g transform="translate(360.083857 596.793316)scale(0.0694 -0.0694)">
       <use xlink:href="#DejaVuSerif-37"/>
       <use x="63.623047" xlink:href="#DejaVuSerif-35"/>
       <use x="127.246094" xlink:href="#DejaVuSerif-30"/>
      </g>
     </g>
    </g>
    <g id="xtick_6">
     <g id="line2d_6">
      <g>
       <use style="stroke:#000000;stroke-width:0.8;" x="439.251079" xlink:href="#mfe15ad489b" y="584.52"/>
      </g>
     </g>
     <g id="text_6">
      <!-- 800 -->
      <defs>
       <path d="M 46.578125 19.921875 
Q 46.578125 27.734375 42.6875 32.046875 
Q 38.8125 36.375 31.78125 36.375 
Q 24.75 36.375 20.875 32.046875 
Q 17 27.734375 17 19.921875 
Q 17 12.0625 20.875 7.734375 
Q 24.75 3.421875 31.78125 3.421875 
Q 38.8125 3.421875 42.6875 7.734375 
Q 46.578125 12.0625 46.578125 19.921875 
z
M 44.578125 55.328125 
Q 44.578125 61.96875 41.203125 65.671875 
Q 37.84375 69.390625 31.78125 69.390625 
Q 25.78125 69.390625 22.390625 65.671875 
Q 19 61.96875 19 55.328125 
Q 19 48.640625 22.390625 44.921875 
Q 25.78125 41.21875 31.78125 41.21875 
Q 37.84375 41.21875 41.203125 44.921875 
Q 44.578125 48.640625 44.578125 55.328125 
z
M 39.3125 38.8125 
Q 47.609375 37.703125 52.25 32.6875 
Q 56.890625 27.6875 56.890625 19.921875 
Q 56.890625 9.671875 50.390625 4.125 
Q 43.890625 -1.421875 31.78125 -1.421875 
Q 19.734375 -1.421875 13.203125 4.125 
Q 6.6875 9.671875 6.6875 19.921875 
Q 6.6875 27.6875 11.328125 32.6875 
Q 15.96875 37.703125 24.3125 38.8125 
Q 16.9375 40.140625 13 44.40625 
Q 9.078125 48.6875 9.078125 55.328125 
Q 9.078125 64.109375 15.125 69.15625 
Q 21.1875 74.21875 31.78125 74.21875 
Q 42.390625 74.21875 48.4375 69.15625 
Q 54.5 64.109375 54.5 55.328125 
Q 54.5 48.6875 50.5625 44.40625 
Q 46.625 40.140625 39.3125 38.8125 
z
" id="DejaVuSerif-38"/>
      </defs>
      <g transform="translate(432.627716 596.793316)scale(0.0694 -0.0694)">
       <use xlink:href="#DejaVuSerif-38"/>
       <use x="63.623047" xlink:href="#DejaVuSerif-30"/>
       <use x="127.246094" xlink:href="#DejaVuSerif-30"/>
      </g>
     </g>
    </g>
    <g id="xtick_7">
     <g id="line2d_7">
      <g>
       <use style="stroke:#000000;stroke-width:0.8;" x="511.794938" xlink:href="#mfe15ad489b" y="584.52"/>
      </g>
     </g>
     <g id="text_7">
      <!-- 850 -->
      <g transform="translate(505.171575 596.793316)scale(0.0694 -0.0694)">
       <use xlink:href="#DejaVuSerif-38"/>
       <use x="63.623047" xlink:href="#DejaVuSerif-35"/>
       <use x="127.246094" xlink:href="#DejaVuSerif-30"/>
      </g>
     </g>
    </g>
    <g id="xtick_8">
     <g id="line2d_8">
      <g>
       <use style="stroke:#000000;stroke-width:0.8;" x="584.338797" xlink:href="#mfe15ad489b" y="584.52"/>
      </g>
     </g>
     <g id="text_8">
      <!-- 900 -->
      <defs>
       <path d="M 46.78125 32.671875 
Q 43.5 29 39.25 27.1875 
Q 35.015625 25.390625 29.6875 25.390625 
Q 18.84375 25.390625 12.5625 31.9375 
Q 6.296875 38.484375 6.296875 49.8125 
Q 6.296875 60.890625 13.109375 67.546875 
Q 19.921875 74.21875 31.296875 74.21875 
Q 43.65625 74.21875 50.265625 65.015625 
Q 56.890625 55.8125 56.890625 38.71875 
Q 56.890625 19.578125 49.015625 9.078125 
Q 41.15625 -1.421875 26.90625 -1.421875 
Q 23.046875 -1.421875 18.796875 -0.6875 
Q 14.546875 0.046875 10.109375 1.515625 
L 10.109375 13.625 
L 15.578125 13.625 
Q 16.21875 8.6875 19.390625 6.046875 
Q 22.5625 3.421875 27.875 3.421875 
Q 37.359375 3.421875 41.984375 10.5625 
Q 46.625 17.71875 46.78125 32.671875 
z
M 30.90625 69.390625 
Q 23.96875 69.390625 20.28125 64.328125 
Q 16.609375 59.28125 16.609375 49.8125 
Q 16.609375 40.328125 20.28125 35.25 
Q 23.96875 30.171875 30.90625 30.171875 
Q 37.84375 30.171875 41.53125 35.078125 
Q 45.21875 39.984375 45.21875 49.21875 
Q 45.21875 58.9375 41.5 64.15625 
Q 37.796875 69.390625 30.90625 69.390625 
z
" id="DejaVuSerif-39"/>
      </defs>
      <g transform="translate(577.715435 596.793316)scale(0.0694 -0.0694)">
       <use xlink:href="#DejaVuSerif-39"/>
       <use x="63.623047" xlink:href="#DejaVuSerif-30"/>
       <use x="127.246094" xlink:href="#DejaVuSerif-30"/>
      </g>
     </g>
    </g>
    <g id="xtick_9">
     <g id="line2d_9">
      <g>
       <use style="stroke:#000000;stroke-width:0.8;" x="656.882656" xlink:href="#mfe15ad489b" y="584.52"/>
      </g>
     </g>
     <g id="text_9">
      <!-- 950 -->
      <g transform="translate(650.259294 596.793316)scale(0.0694 -0.0694)">
       <use xlink:href="#DejaVuSerif-39"/>
       <use x="63.623047" xlink:href="#DejaVuSerif-35"/>
       <use x="127.246094" xlink:href="#DejaVuSerif-30"/>
      </g>
     </g>
    </g>
   </g>
   <g id="matplotlib.axis_2">
    <g id="ytick_1">
     <g id="line2d_10">
      <defs>
       <path d="M 0 0 
L -3.5 0 
" id="m19ee92e678" style="stroke:#000000;stroke-width:0.8;"/>
      </defs>
      <g>
       <use style="stroke:#000000;stroke-width:0.8;" x="68.16" xlink:href="#m19ee92e678" y="535.32064"/>
      </g>
     </g>
     <g id="text_10">
      <!-- 800 -->
      <g transform="translate(47.913275 537.957298)scale(0.0694 -0.0694)">
       <use xlink:href="#DejaVuSerif-38"/>
       <use x="63.623047" xlink:href="#DejaVuSerif-30"/>
       <use x="127.246094" xlink:href="#DejaVuSerif-30"/>
      </g>
     </g>
    </g>
    <g id="ytick_2">
     <g id="line2d_11">
      <g>
       <use style="stroke:#000000;stroke-width:0.8;" x="68.16" xlink:href="#m19ee92e678" y="456.5208"/>
      </g>
     </g>
     <g id="text_11">
      <!-- 1000 -->
      <defs>
       <path d="M 14.203125 0 
L 14.203125 5.171875 
L 26.90625 5.171875 
L 26.90625 65.828125 
L 12.203125 56.296875 
L 12.203125 62.703125 
L 29.984375 74.21875 
L 36.71875 74.21875 
L 36.71875 5.171875 
L 49.421875 5.171875 
L 49.421875 0 
z
" id="DejaVuSerif-31"/>
      </defs>
      <g transform="translate(43.4977 459.157458)scale(0.0694 -0.0694)">
       <use xlink:href="#DejaVuSerif-31"/>
       <use x="63.623047" xlink:href="#DejaVuSerif-30"/>
       <use x="127.246094" xlink:href="#DejaVuSerif-30"/>
       <use x="190.869141" xlink:href="#DejaVuSerif-30"/>
      </g>
     </g>
    </g>
    <g id="ytick_3">
     <g id="line2d_12">
      <g>
       <use style="stroke:#000000;stroke-width:0.8;" x="68.16" xlink:href="#m19ee92e678" y="377.72096"/>
      </g>
     </g>
     <g id="text_12">
      <!-- 1200 -->
      <defs>
       <path d="M 12.796875 55.515625 
L 7.328125 55.515625 
L 7.328125 68.5 
Q 12.546875 71.296875 17.84375 72.75 
Q 23.140625 74.21875 28.21875 74.21875 
Q 39.59375 74.21875 46.1875 68.703125 
Q 52.78125 63.1875 52.78125 53.71875 
Q 52.78125 43.015625 37.84375 28.125 
Q 36.671875 27 36.078125 26.421875 
L 17.671875 8.015625 
L 48.09375 8.015625 
L 48.09375 17 
L 53.8125 17 
L 53.8125 0 
L 6.78125 0 
L 6.78125 5.328125 
L 28.90625 27.390625 
Q 36.234375 34.71875 39.359375 40.84375 
Q 42.484375 46.96875 42.484375 53.71875 
Q 42.484375 61.078125 38.640625 65.234375 
Q 34.8125 69.390625 28.078125 69.390625 
Q 21.09375 69.390625 17.28125 65.921875 
Q 13.484375 62.453125 12.796875 55.515625 
z
" id="DejaVuSerif-32"/>
      </defs>
      <g transform="translate(43.4977 380.357618)scale(0.0694 -0.0694)">
       <use xlink:href="#DejaVuSerif-31"/>
       <use x="63.623047" xlink:href="#DejaVuSerif-32"/>
       <use x="127.246094" xlink:href="#DejaVuSerif-30"/>
       <use x="190.869141" xlink:href="#DejaVuSerif-30"/>
      </g>
     </g>
    </g>
    <g id="ytick_4">
     <g id="line2d_13">
      <g>
       <use style="stroke:#000000;stroke-width:0.8;" x="68.16" xlink:href="#m19ee92e678" y="298.92112"/>
      </g>
     </g>
     <g id="text_13">
      <!-- 1400 -->
      <defs>
       <path d="M 34.90625 24.703125 
L 34.90625 63.484375 
L 10.015625 24.703125 
z
M 56.390625 0 
L 23.1875 0 
L 23.1875 5.171875 
L 34.90625 5.171875 
L 34.90625 19.484375 
L 3.078125 19.484375 
L 3.078125 24.8125 
L 35.015625 74.21875 
L 44.671875 74.21875 
L 44.671875 24.703125 
L 58.59375 24.703125 
L 58.59375 19.484375 
L 44.671875 19.484375 
L 44.671875 5.171875 
L 56.390625 5.171875 
z
" id="DejaVuSerif-34"/>
      </defs>
      <g transform="translate(43.4977 301.557778)scale(0.0694 -0.0694)">
       <use xlink:href="#DejaVuSerif-31"/>
       <use x="63.623047" xlink:href="#DejaVuSerif-34"/>
       <use x="127.246094" xlink:href="#DejaVuSerif-30"/>
       <use x="190.869141" xlink:href="#DejaVuSerif-30"/>
      </g>
     </g>
    </g>
    <g id="ytick_5">
     <g id="line2d_14">
      <g>
       <use style="stroke:#000000;stroke-width:0.8;" x="68.16" xlink:href="#m19ee92e678" y="220.12128"/>
      </g>
     </g>
     <g id="text_14">
      <!-- 1600 -->
      <g transform="translate(43.4977 222.757938)scale(0.0694 -0.0694)">
       <use xlink:href="#DejaVuSerif-31"/>
       <use x="63.623047" xlink:href="#DejaVuSerif-36"/>
       <use x="127.246094" xlink:href="#DejaVuSerif-30"/>
       <use x="190.869141" xlink:href="#DejaVuSerif-30"/>
      </g>
     </g>
    </g>
    <g id="ytick_6">
     <g id="line2d_15">
      <g>
       <use style="stroke:#000000;stroke-width:0.8;" x="68.16" xlink:href="#m19ee92e678" y="141.32144"/>
      </g>
     </g>
     <g id="text_15">
      <!-- 1800 -->
      <g transform="translate(43.4977 143.958098)scale(0.0694 -0.0694)">
       <use xlink:href="#DejaVuSerif-31"/>
       <use x="63.623047" xlink:href="#DejaVuSerif-38"/>
       <use x="127.246094" xlink:href="#DejaVuSerif-30"/>
       <use x="190.869141" xlink:href="#DejaVuSerif-30"/>
      </g>
     </g>
    </g>
    <g id="ytick_7">
     <g id="line2d_16">
      <g>
       <use style="stroke:#000000;stroke-width:0.8;" x="68.16" xlink:href="#m19ee92e678" y="62.5216"/>
      </g>
     </g>
     <g id="text_16">
      <!-- 2000 -->
      <g transform="translate(43.4977 65.158258)scale(0.0694 -0.0694)">
       <use xlink:href="#DejaVuSerif-32"/>
       <use x="63.623047" xlink:href="#DejaVuSerif-30"/>
       <use x="127.246094" xlink:href="#DejaVuSerif-30"/>
       <use x="190.869141" xlink:href="#DejaVuSerif-30"/>
      </g>
     </g>
    </g>
   </g>
   <g id="patch_3">
    <path d="M 68.16 584.52 
L 68.16 52.52 
" style="fill:none;stroke:#000000;stroke-linecap:square;stroke-linejoin:miter;stroke-width:0.8;"/>
   </g>
   <g id="patch_4">
    <path d="M 660.368 584.52 
L 660.368 52.52 
" style="fill:none;stroke:#000000;stroke-linecap:square;stroke-linejoin:miter;stroke-width:0.8;"/>
   </g>
   <g id="patch_5">
    <path d="M 68.16 584.52 
L 660.368 584.52 
" style="fill:none;stroke:#000000;stroke-linecap:square;stroke-linejoin:miter;stroke-width:0.8;"/>
   </g>
   <g id="patch_6">
    <path d="M 68.16 52.52 
L 660.368 52.52 
" style="fill:none;stroke:#000000;stroke-linecap:square;stroke-linejoin:miter;stroke-width:0.8;"/>
   </g>
  </g>
  <g id="axes_2">
   <g id="patch_7">
    <path clip-path="url(#pb851a20bbb)" d="M 697.381 584.52 
L 697.381 557.92 
L 697.381 79.12 
L 697.381 52.52 
L 723.981 52.52 
L 723.981 79.12 
L 723.981 557.92 
L 723.981 584.52 
z
" style="fill:#ffffff;stroke:#ffffff;stroke-linejoin:miter;stroke-width:0.01;"/>
   </g>
   <g id="QuadMesh_1">
    <path clip-path="url(#pb851a20bbb)" d="M 697.381 584.52 
L 723.981 584.52 
L 723.981 557.92 
L 697.381 557.92 
L 697.381 584.52 
" style="fill:#fcfcfc;"/>
    <path clip-path="url(#pb851a20bbb)" d="M 697.381 557.92 
L 723.981 557.92 
L 723.981 531.32 
L 697.381 531.32 
L 697.381 557.92 
" style="fill:#f6f6f6;"/>
    <path clip-path="url(#pb851a20bbb)" d="M 697.381 531.32 
L 723.981 531.32 
L 723.981 504.72 
L 697.381 504.72 
L 697.381 531.32 
" style="fill:#f0f0f0;"/>
    <path clip-path="url(#pb851a20bbb)" d="M 697.381 504.72 
L 723.981 504.72 
L 723.981 478.12 
L 697.381 478.12 
L 697.381 504.72 
" style="fill:#e7e7e7;"/>
    <path clip-path="url(#pb851a20bbb)" d="M 697.381 478.12 
L 723.981 478.12 
L 723.981 451.52 
L 697.381 451.52 
L 697.381 478.12 
" style="fill:#dedede;"/>
    <path clip-path="url(#pb851a20bbb)" d="M 697.381 451.52 
L 723.981 451.52 
L 723.981 424.92 
L 697.381 424.92 
L 697.381 451.52 
" style="fill:#d4d4d4;"/>
    <path clip-path="url(#pb851a20bbb)" d="M 697.381 424.92 
L 723.981 424.92 
L 723.981 398.32 
L 697.381 398.32 
L 697.381 424.92 
" style="fill:#c8c8c8;"/>
    <path clip-path="url(#pb851a20bbb)" d="M 697.381 398.32 
L 723.981 398.32 
L 723.981 371.72 
L 697.381 371.72 
L 697.381 398.32 
" style="fill:#bebebe;"/>
    <path clip-path="url(#pb851a20bbb)" d="M 697.381 371.72 
L 723.981 371.72 
L 723.981 345.12 
L 697.381 345.12 
L 697.381 371.72 
" style="fill:#aeaeae;"/>
    <path clip-path="url(#pb851a20bbb)" d="M 697.381 345.12 
L 723.981 345.12 
L 723.981 318.52 
L 697.381 318.52 
L 697.381 345.12 
" style="fill:#9e9e9e;"/>
    <path clip-path="url(#pb851a20bbb)" d="M 697.381 318.52 
L 723.981 318.52 
L 723.981 291.92 
L 697.381 291.92 
L 697.381 318.52 
" style="fill:#8f8f8f;"/>
    <path clip-path="url(#pb851a20bbb)" d="M 697.381 291.92 
L 723.981 291.92 
L 723.981 265.32 
L 697.381 265.32 
L 697.381 291.92 
" style="fill:#818181;"/>
    <path clip-path="url(#pb851a20bbb)" d="M 697.381 265.32 
L 723.981 265.32 
L 723.981 238.72 
L 697.381 238.72 
L 697.381 265.32 
" style="fill:#727272;"/>
    <path clip-path="url(#pb851a20bbb)" d="M 697.381 238.72 
L 723.981 238.72 
L 723.981 212.12 
L 697.381 212.12 
L 697.381 238.72 
" style="fill:#666666;"/>
    <path clip-path="url(#pb851a20bbb)" d="M 697.381 212.12 
L 723.981 212.12 
L 723.981 185.52 
L 697.381 185.52 
L 697.381 212.12 
" style="fill:#585858;"/>
    <path clip-path="url(#pb851a20bbb)" d="M 697.381 185.52 
L 723.981 185.52 
L 723.981 158.92 
L 697.381 158.92 
L 697.381 185.52 
" style="fill:#484848;"/>
    <path clip-path="url(#pb851a20bbb)" d="M 697.381 158.92 
L 723.981 158.92 
L 723.981 132.32 
L 697.381 132.32 
L 697.381 158.92 
" style="fill:#363636;"/>
    <path clip-path="url(#pb851a20bbb)" d="M 697.381 132.32 
L 723.981 132.32 
L 723.981 105.72 
L 697.381 105.72 
L 697.381 132.32 
" style="fill:#242424;"/>
    <path clip-path="url(#pb851a20bbb)" d="M 697.381 105.72 
L 723.981 105.72 
L 723.981 79.12 
L 697.381 79.12 
L 697.381 105.72 
" style="fill:#161616;"/>
    <path clip-path="url(#pb851a20bbb)" d="M 697.381 79.12 
L 723.981 79.12 
L 723.981 52.52 
L 697.381 52.52 
L 697.381 79.12 
" style="fill:#070707;"/>
   </g>
   <g id="matplotlib.axis_3"/>
   <g id="matplotlib.axis_4">
    <g id="ytick_8">
     <g id="line2d_17">
      <defs>
       <path d="M 0 0 
L 3.5 0 
" id="m3f64c5fe02" style="stroke:#000000;stroke-width:0.8;"/>
      </defs>
      <g>
       <use style="stroke:#000000;stroke-width:0.8;" x="723.981" xlink:href="#m3f64c5fe02" y="531.32"/>
      </g>
     </g>
     <g id="text_17">
      <!-- −0.005200 -->
      <defs>
       <path d="M 10.59375 35.296875 
L 73.1875 35.296875 
L 73.1875 27.390625 
L 10.59375 27.390625 
z
" id="DejaVuSerif-2212"/>
       <path d="M 9.421875 5.078125 
Q 9.421875 7.8125 11.28125 9.71875 
Q 13.140625 11.625 15.921875 11.625 
Q 18.609375 11.625 20.5 9.71875 
Q 22.40625 7.8125 22.40625 5.078125 
Q 22.40625 2.390625 20.5 0.484375 
Q 18.609375 -1.421875 15.921875 -1.421875 
Q 13.140625 -1.421875 11.28125 0.453125 
Q 9.421875 2.34375 9.421875 5.078125 
z
" id="DejaVuSerif-2e"/>
      </defs>
      <g transform="translate(730.981 533.956658)scale(0.0694 -0.0694)">
       <use xlink:href="#DejaVuSerif-2212"/>
       <use x="83.789062" xlink:href="#DejaVuSerif-30"/>
       <use x="147.412109" xlink:href="#DejaVuSerif-2e"/>
       <use x="179.199219" xlink:href="#DejaVuSerif-30"/>
       <use x="242.822266" xlink:href="#DejaVuSerif-30"/>
       <use x="306.445312" xlink:href="#DejaVuSerif-35"/>
       <use x="370.068359" xlink:href="#DejaVuSerif-32"/>
       <use x="433.691406" xlink:href="#DejaVuSerif-30"/>
       <use x="497.314453" xlink:href="#DejaVuSerif-30"/>
      </g>
     </g>
    </g>
    <g id="ytick_9">
     <g id="line2d_18">
      <g>
       <use style="stroke:#000000;stroke-width:0.8;" x="723.981" xlink:href="#m3f64c5fe02" y="451.52"/>
      </g>
     </g>
     <g id="text_18">
      <!-- −0.005125 -->
      <g transform="translate(730.981 454.156658)scale(0.0694 -0.0694)">
       <use xlink:href="#DejaVuSerif-2212"/>
       <use x="83.789062" xlink:href="#DejaVuSerif-30"/>
       <use x="147.412109" xlink:href="#DejaVuSerif-2e"/>
       <use x="179.199219" xlink:href="#DejaVuSerif-30"/>
       <use x="242.822266" xlink:href="#DejaVuSerif-30"/>
       <use x="306.445312" xlink:href="#DejaVuSerif-35"/>
       <use x="370.068359" xlink:href="#DejaVuSerif-31"/>
       <use x="433.691406" xlink:href="#DejaVuSerif-32"/>
       <use x="497.314453" xlink:href="#DejaVuSerif-35"/>
      </g>
     </g>
    </g>
    <g id="ytick_10">
     <g id="line2d_19">
      <g>
       <use style="stroke:#000000;stroke-width:0.8;" x="723.981" xlink:href="#m3f64c5fe02" y="371.72"/>
      </g>
     </g>
     <g id="text_19">
      <!-- −0.005050 -->
      <g transform="translate(730.981 374.356658)scale(0.0694 -0.0694)">
       <use xlink:href="#DejaVuSerif-2212"/>
       <use x="83.789062" xlink:href="#DejaVuSerif-30"/>
       <use x="147.412109" xlink:href="#DejaVuSerif-2e"/>
       <use x="179.199219" xlink:href="#DejaVuSerif-30"/>
       <use x="242.822266" xlink:href="#DejaVuSerif-30"/>
       <use x="306.445312" xlink:href="#DejaVuSerif-35"/>
       <use x="370.068359" xlink:href="#DejaVuSerif-30"/>
       <use x="433.691406" xlink:href="#DejaVuSerif-35"/>
       <use x="497.314453" xlink:href="#DejaVuSerif-30"/>
      </g>
     </g>
    </g>
    <g id="ytick_11">
     <g id="line2d_20">
      <g>
       <use style="stroke:#000000;stroke-width:0.8;" x="723.981" xlink:href="#m3f64c5fe02" y="291.92"/>
      </g>
     </g>
     <g id="text_20">
      <!-- −0.004975 -->
      <g transform="translate(730.981 294.556658)scale(0.0694 -0.0694)">
       <use xlink:href="#DejaVuSerif-2212"/>
       <use x="83.789062" xlink:href="#DejaVuSerif-30"/>
       <use x="147.412109" xlink:href="#DejaVuSerif-2e"/>
       <use x="179.199219" xlink:href="#DejaVuSerif-30"/>
       <use x="242.822266" xlink:href="#DejaVuSerif-30"/>
       <use x="306.445312" xlink:href="#DejaVuSerif-34"/>
       <use x="370.068359" xlink:href="#DejaVuSerif-39"/>
       <use x="433.691406" xlink:href="#DejaVuSerif-37"/>
       <use x="497.314453" xlink:href="#DejaVuSerif-35"/>
      </g>
     </g>
    </g>
    <g id="ytick_12">
     <g id="line2d_21">
      <g>
       <use style="stroke:#000000;stroke-width:0.8;" x="723.981" xlink:href="#m3f64c5fe02" y="212.12"/>
      </g>
     </g>
     <g id="text_21">
      <!-- −0.004900 -->
      <g transform="translate(730.981 214.756658)scale(0.0694 -0.0694)">
       <use xlink:href="#DejaVuSerif-2212"/>
       <use x="83.789062" xlink:href="#DejaVuSerif-30"/>
       <use x="147.412109" xlink:href="#DejaVuSerif-2e"/>
       <use x="179.199219" xlink:href="#DejaVuSerif-30"/>
       <use x="242.822266" xlink:href="#DejaVuSerif-30"/>
       <use x="306.445312" xlink:href="#DejaVuSerif-34"/>
       <use x="370.068359" xlink:href="#DejaVuSerif-39"/>
       <use x="433.691406" xlink:href="#DejaVuSerif-30"/>
       <use x="497.314453" xlink:href="#DejaVuSerif-30"/>
      </g>
     </g>
    </g>
    <g id="ytick_13">
     <g id="line2d_22">
      <g>
       <use style="stroke:#000000;stroke-width:0.8;" x="723.981" xlink:href="#m3f64c5fe02" y="132.32"/>
      </g>
     </g>
     <g id="text_22">
      <!-- −0.004825 -->
      <g transform="translate(730.981 134.956658)scale(0.0694 -0.0694)">
       <use xlink:href="#DejaVuSerif-2212"/>
       <use x="83.789062" xlink:href="#DejaVuSerif-30"/>
       <use x="147.412109" xlink:href="#DejaVuSerif-2e"/>
       <use x="179.199219" xlink:href="#DejaVuSerif-30"/>
       <use x="242.822266" xlink:href="#DejaVuSerif-30"/>
       <use x="306.445312" xlink:href="#DejaVuSerif-34"/>
       <use x="370.068359" xlink:href="#DejaVuSerif-38"/>
       <use x="433.691406" xlink:href="#DejaVuSerif-32"/>
       <use x="497.314453" xlink:href="#DejaVuSerif-35"/>
      </g>
     </g>
    </g>
    <g id="ytick_14">
     <g id="line2d_23">
      <g>
       <use style="stroke:#000000;stroke-width:0.8;" x="723.981" xlink:href="#m3f64c5fe02" y="52.52"/>
      </g>
     </g>
     <g id="text_23">
      <!-- −0.004750 -->
      <g transform="translate(730.981 55.156658)scale(0.0694 -0.0694)">
       <use xlink:href="#DejaVuSerif-2212"/>
       <use x="83.789062" xlink:href="#DejaVuSerif-30"/>
       <use x="147.412109" xlink:href="#DejaVuSerif-2e"/>
       <use x="179.199219" xlink:href="#DejaVuSerif-30"/>
       <use x="242.822266" xlink:href="#DejaVuSerif-30"/>
       <use x="306.445312" xlink:href="#DejaVuSerif-34"/>
       <use x="370.068359" xlink:href="#DejaVuSerif-37"/>
       <use x="433.691406" xlink:href="#DejaVuSerif-35"/>
       <use x="497.314453" xlink:href="#DejaVuSerif-30"/>
      </g>
     </g>
    </g>
    <g id="text_24">
     <!-- −5.3745e2 -->
     <defs>
      <path d="M 9.71875 69.828125 
Q 15.4375 71.96875 20.671875 73.09375 
Q 25.921875 74.21875 30.515625 74.21875 
Q 41.21875 74.21875 47.21875 69.59375 
Q 53.21875 64.984375 53.21875 56.78125 
Q 53.21875 50.203125 49.0625 45.78125 
Q 44.921875 41.359375 37.3125 39.796875 
Q 46.296875 38.53125 51.25 33.28125 
Q 56.203125 28.03125 56.203125 19.671875 
Q 56.203125 9.46875 49.34375 4.015625 
Q 42.484375 -1.421875 29.59375 -1.421875 
Q 23.875 -1.421875 18.421875 -0.1875 
Q 12.984375 1.03125 7.625 3.515625 
L 7.625 17.671875 
L 13.09375 17.671875 
Q 13.578125 10.640625 17.828125 7.03125 
Q 22.078125 3.421875 29.78125 3.421875 
Q 37.25 3.421875 41.578125 7.734375 
Q 45.90625 12.0625 45.90625 19.578125 
Q 45.90625 28.171875 41.453125 32.59375 
Q 37.015625 37.015625 28.421875 37.015625 
L 23.78125 37.015625 
L 23.78125 42 
L 26.21875 42 
Q 34.765625 42 39.03125 45.53125 
Q 43.3125 49.078125 43.3125 56.203125 
Q 43.3125 62.59375 39.796875 65.984375 
Q 36.28125 69.390625 29.6875 69.390625 
Q 23.09375 69.390625 19.453125 66.265625 
Q 15.828125 63.140625 15.1875 56.984375 
L 9.71875 56.984375 
z
" id="DejaVuSerif-33"/>
      <path d="M 54.203125 25 
L 15.484375 25 
L 15.484375 24.609375 
Q 15.484375 14.109375 19.4375 8.765625 
Q 23.390625 3.421875 31.109375 3.421875 
Q 37.015625 3.421875 40.796875 6.515625 
Q 44.578125 9.625 46.09375 15.71875 
L 53.328125 15.71875 
Q 51.171875 7.171875 45.375 2.875 
Q 39.59375 -1.421875 30.171875 -1.421875 
Q 18.796875 -1.421875 11.890625 6.078125 
Q 4.984375 13.578125 4.984375 25.984375 
Q 4.984375 38.28125 11.765625 45.796875 
Q 18.5625 53.328125 29.59375 53.328125 
Q 41.359375 53.328125 47.65625 46.0625 
Q 53.953125 38.8125 54.203125 25 
z
M 43.609375 30.171875 
Q 43.3125 39.265625 39.765625 43.875 
Q 36.234375 48.484375 29.59375 48.484375 
Q 23.390625 48.484375 19.828125 43.84375 
Q 16.265625 39.203125 15.484375 30.171875 
z
" id="DejaVuSerif-65"/>
     </defs>
     <g transform="translate(685.358816 49.52)scale(0.0694 -0.0694)">
      <use xlink:href="#DejaVuSerif-2212"/>
      <use x="83.789062" xlink:href="#DejaVuSerif-35"/>
      <use x="147.412109" xlink:href="#DejaVuSerif-2e"/>
      <use x="179.199219" xlink:href="#DejaVuSerif-33"/>
      <use x="242.822266" xlink:href="#DejaVuSerif-37"/>
      <use x="306.445312" xlink:href="#DejaVuSerif-34"/>
      <use x="370.068359" xlink:href="#DejaVuSerif-35"/>
      <use x="433.691406" xlink:href="#DejaVuSerif-65"/>
      <use x="492.871094" xlink:href="#DejaVuSerif-32"/>
     </g>
    </g>
   </g>
   <g id="patch_8">
    <path d="M 697.381 584.52 
L 697.381 557.92 
L 697.381 79.12 
L 697.381 52.52 
L 723.981 52.52 
L 723.981 79.12 
L 723.981 557.92 
L 723.981 584.52 
z
" style="fill:none;stroke:#000000;stroke-linejoin:miter;stroke-width:0.8;"/>
   </g>
  </g>
 </g>
 <defs>
  <clipPath id="p8dd11dcb06">
   <rect height="532" width="592.208" x="68.16" y="52.52"/>
  </clipPath>
  <clipPath id="pb851a20bbb">
   <rect height="532" width="26.6" x="697.381" y="52.52"/>
  </clipPath>
 </defs>
</svg>
