<?xml version="1.0" encoding="utf-8" standalone="no"?>
<!DOCTYPE svg PUBLIC "-//W3C//DTD SVG 1.1//EN"
  "http://www.w3.org/Graphics/SVG/1.1/DTD/svg11.dtd">
<!-- Created with matplotlib (http://matplotlib.org/) -->
<svg height="648pt" version="1.1" viewBox="0 0 864 648" width="864pt" xmlns="http://www.w3.org/2000/svg" xmlns:xlink="http://www.w3.org/1999/xlink">
 <defs>
  <style type="text/css">
*{stroke-linecap:butt;stroke-linejoin:round;}
  </style>
 </defs>
 <g id="figure_1">
  <g id="patch_1">
   <path d="M 0 648 
L 864 648 
L 864 0 
L 0 0 
z
" style="fill:#ffffff;"/>
  </g>
  <g id="axes_1">
   <g id="patch_2">
    <path d="M 68.16 584.52 
L 660.368 584.52 
L 660.368 52.52 
L 68.16 52.52 
z
" style="fill:#ffffff;"/>
   </g>
   <g id="PathCollection_1">
    <path clip-path="url(#p6e90bd4d6f)" d="M 660.368 584.52 
L 660.368 576.008 
L 652.471893 584.52 
z
" style="fill:#fcfcfc;"/>
    <path clip-path="url(#p6e90bd4d6f)" d="M 660.368 486.632 
L 660.368 478.12 
L 660.368 469.608 
L 652.471893 478.12 
z
" style="fill:#fcfcfc;"/>
    <path clip-path="url(#p6e90bd4d6f)" d="M 660.368 327.032 
L 660.368 318.52 
L 660.368 265.32 
L 660.368 212.12 
L 660.368 158.92 
L 660.368 105.72 
L 660.368 97.208 
L 655.103929 105.72 
L 655.103929 158.92 
L 655.103929 212.12 
L 655.103929 265.32 
L 655.103929 318.52 
z
" style="fill:#fcfcfc;"/>
   </g>
   <g id="PathCollection_2">
    <path clip-path="url(#p6e90bd4d6f)" d="M 660.368 576.008 
L 660.368 565.7936 
L 642.996565 584.52 
L 652.471893 584.52 
z
" style="fill:#f7f7f7;"/>
    <path clip-path="url(#p6e90bd4d6f)" d="M 660.368 496.8464 
L 660.368 486.632 
L 652.471893 478.12 
L 660.368 469.608 
L 660.368 459.3936 
L 642.996565 478.12 
z
" style="fill:#f7f7f7;"/>
    <path clip-path="url(#p6e90bd4d6f)" d="M 660.368 337.2464 
L 660.368 327.032 
L 655.103929 318.52 
L 655.103929 265.32 
L 655.103929 212.12 
L 655.103929 158.92 
L 655.103929 105.72 
L 660.368 97.208 
L 660.368 86.9936 
L 648.787044 105.72 
L 648.787044 158.92 
L 648.787044 212.12 
L 648.787044 265.32 
L 648.787044 318.52 
z
" style="fill:#f7f7f7;"/>
   </g>
   <g id="PathCollection_3">
    <path clip-path="url(#p6e90bd4d6f)" d="M 660.368 565.7936 
L 660.368 555.5792 
L 633.521237 584.52 
L 642.996565 584.52 
z
" style="fill:#f1f1f1;"/>
    <path clip-path="url(#p6e90bd4d6f)" d="M 660.368 507.0608 
L 660.368 496.8464 
L 642.996565 478.12 
L 660.368 459.3936 
L 660.368 449.1792 
L 633.521237 478.12 
z
" style="fill:#f1f1f1;"/>
    <path clip-path="url(#p6e90bd4d6f)" d="M 660.368 347.4608 
L 660.368 337.2464 
L 648.787044 318.52 
L 648.787044 265.32 
L 648.787044 212.12 
L 648.787044 158.92 
L 648.787044 105.72 
L 660.368 86.9936 
L 660.368 76.7792 
L 642.470158 105.72 
L 642.470158 158.92 
L 642.470158 212.12 
L 642.470158 265.32 
L 642.470158 318.52 
z
" style="fill:#f1f1f1;"/>
   </g>
   <g id="PathCollection_4">
    <path clip-path="url(#p6e90bd4d6f)" d="M 660.368 555.5792 
L 660.368 545.3648 
L 624.045909 584.52 
L 633.521237 584.52 
z
" style="fill:#e9e9e9;"/>
    <path clip-path="url(#p6e90bd4d6f)" d="M 660.368 517.2752 
L 660.368 507.0608 
L 633.521237 478.12 
L 660.368 449.1792 
L 660.368 438.9648 
L 624.045909 478.12 
z
" style="fill:#e9e9e9;"/>
    <path clip-path="url(#p6e90bd4d6f)" d="M 660.368 357.6752 
L 660.368 347.4608 
L 642.470158 318.52 
L 642.470158 265.32 
L 642.470158 212.12 
L 642.470158 158.92 
L 642.470158 105.72 
L 660.368 76.7792 
L 660.368 66.5648 
L 636.153273 105.72 
L 636.153273 158.92 
L 636.153273 212.12 
L 636.153273 265.32 
L 636.153273 318.52 
z
" style="fill:#e9e9e9;"/>
   </g>
   <g id="PathCollection_5">
    <path clip-path="url(#p6e90bd4d6f)" d="M 660.368 545.3648 
L 660.368 535.1504 
L 614.570581 584.52 
L 624.045909 584.52 
z
" style="fill:#e0e0e0;"/>
    <path clip-path="url(#p6e90bd4d6f)" d="M 660.368 527.4896 
L 660.368 517.2752 
L 624.045909 478.12 
L 660.368 438.9648 
L 660.368 428.7504 
L 614.570581 478.12 
z
" style="fill:#e0e0e0;"/>
    <path clip-path="url(#p6e90bd4d6f)" d="M 660.368 367.8896 
L 660.368 357.6752 
L 636.153273 318.52 
L 636.153273 265.32 
L 636.153273 212.12 
L 636.153273 158.92 
L 636.153273 105.72 
L 660.368 66.5648 
L 660.368 56.3504 
L 629.836388 105.72 
L 629.836388 158.92 
L 629.836388 212.12 
L 629.836388 265.32 
L 629.836388 318.52 
z
" style="fill:#e0e0e0;"/>
   </g>
   <g id="PathCollection_6">
    <path clip-path="url(#p6e90bd4d6f)" d="M 68.16 578.136 
L 68.16 584.52 
L 80.00416 584.52 
z
" style="fill:#d6d6d6;"/>
    <path clip-path="url(#p6e90bd4d6f)" d="M 364.264 584.52 
L 370.18608 584.52 
L 364.264 578.136 
L 352.41984 584.52 
z
" style="fill:#d6d6d6;"/>
    <path clip-path="url(#p6e90bd4d6f)" d="M 660.368 535.1504 
L 660.368 531.32 
L 660.368 527.4896 
L 614.570581 478.12 
L 660.368 428.7504 
L 660.368 424.92 
L 660.368 371.72 
L 660.368 367.8896 
L 629.836388 318.52 
L 629.836388 265.32 
L 629.836388 212.12 
L 629.836388 158.92 
L 629.836388 105.72 
L 660.368 56.3504 
L 660.368 52.52 
L 654.44592 52.52 
L 623.519502 105.72 
L 623.519502 158.92 
L 623.519502 212.12 
L 623.519502 265.32 
L 623.519502 318.52 
L 654.44592 371.72 
L 656.419947 424.92 
L 605.095253 478.12 
L 654.44592 531.32 
L 605.095253 584.52 
L 614.570581 584.52 
z
" style="fill:#d6d6d6;"/>
    <path clip-path="url(#p6e90bd4d6f)" d="M 166.861333 484.504 
L 178.705493 478.12 
L 166.861333 471.736 
L 68.16 471.736 
L 68.16 478.12 
L 68.16 484.504 
z
" style="fill:#d6d6d6;"/>
    <path clip-path="url(#p6e90bd4d6f)" d="M 364.264 484.504 
L 376.10816 478.12 
L 364.264 471.736 
L 352.41984 478.12 
z
" style="fill:#d6d6d6;"/>
    <path clip-path="url(#p6e90bd4d6f)" d="M 80.00416 318.52 
L 166.861333 271.704 
L 178.705493 265.32 
L 178.705493 212.12 
L 178.705493 158.92 
L 178.705493 105.72 
L 166.861333 99.336 
L 80.00416 52.52 
L 68.16 52.52 
L 68.16 105.72 
L 68.16 158.92 
L 68.16 212.12 
L 68.16 265.32 
L 68.16 318.52 
L 68.16 324.904 
z
" style="fill:#d6d6d6;"/>
   </g>
   <g id="PathCollection_7">
    <path clip-path="url(#p6e90bd4d6f)" d="M 68.16 567.9216 
L 68.16 578.136 
L 80.00416 584.52 
L 98.954816 584.52 
z
" style="fill:#cccccc;"/>
    <path clip-path="url(#p6e90bd4d6f)" d="M 364.264 578.136 
L 370.18608 584.52 
L 379.661408 584.52 
L 364.264 567.9216 
L 333.469184 584.52 
L 352.41984 584.52 
z
" style="fill:#cccccc;"/>
    <path clip-path="url(#p6e90bd4d6f)" d="M 654.44592 531.32 
L 605.095253 478.12 
L 656.419947 424.92 
L 654.44592 371.72 
L 623.519502 318.52 
L 623.519502 265.32 
L 623.519502 212.12 
L 623.519502 158.92 
L 623.519502 105.72 
L 654.44592 52.52 
L 644.970592 52.52 
L 617.202617 105.72 
L 617.202617 158.92 
L 617.202617 212.12 
L 617.202617 265.32 
L 617.202617 318.52 
L 644.970592 371.72 
L 650.103061 424.92 
L 595.619925 478.12 
L 644.970592 531.32 
L 595.619925 584.52 
L 605.095253 584.52 
z
" style="fill:#cccccc;"/>
    <path clip-path="url(#p6e90bd4d6f)" d="M 166.861333 494.7184 
L 197.656149 478.12 
L 166.861333 461.5216 
L 68.16 461.5216 
L 68.16 471.736 
L 166.861333 471.736 
L 178.705493 478.12 
L 166.861333 484.504 
L 68.16 484.504 
L 68.16 494.7184 
z
" style="fill:#cccccc;"/>
    <path clip-path="url(#p6e90bd4d6f)" d="M 364.264 494.7184 
L 395.058816 478.12 
L 364.264 461.5216 
L 333.469184 478.12 
z
M 352.41984 478.12 
L 364.264 471.736 
L 376.10816 478.12 
L 364.264 484.504 
z
" style="fill:#cccccc;"/>
    <path clip-path="url(#p6e90bd4d6f)" d="M 98.954816 318.52 
L 166.861333 281.9184 
L 197.656149 265.32 
L 197.656149 212.12 
L 197.656149 158.92 
L 197.656149 105.72 
L 166.861333 89.1216 
L 98.954816 52.52 
L 80.00416 52.52 
L 166.861333 99.336 
L 178.705493 105.72 
L 178.705493 158.92 
L 178.705493 212.12 
L 178.705493 265.32 
L 166.861333 271.704 
L 80.00416 318.52 
L 68.16 324.904 
L 68.16 335.1184 
z
" style="fill:#cccccc;"/>
   </g>
   <g id="PathCollection_8">
    <path clip-path="url(#p6e90bd4d6f)" d="M 68.16 557.7072 
L 68.16 567.9216 
L 98.954816 584.52 
L 117.905472 584.52 
z
" style="fill:#c1c1c1;"/>
    <path clip-path="url(#p6e90bd4d6f)" d="M 364.264 567.9216 
L 379.661408 584.52 
L 389.136736 584.52 
L 364.264 557.7072 
L 314.518528 584.52 
L 333.469184 584.52 
z
" style="fill:#c1c1c1;"/>
    <path clip-path="url(#p6e90bd4d6f)" d="M 644.970592 531.32 
L 595.619925 478.12 
L 650.103061 424.92 
L 644.970592 371.72 
L 617.202617 318.52 
L 617.202617 265.32 
L 617.202617 212.12 
L 617.202617 158.92 
L 617.202617 105.72 
L 644.970592 52.52 
L 635.495264 52.52 
L 610.885732 105.72 
L 610.885732 158.92 
L 610.885732 212.12 
L 610.885732 265.32 
L 610.885732 318.52 
L 635.495264 371.72 
L 643.786176 424.92 
L 586.144597 478.12 
L 635.495264 531.32 
L 586.144597 584.52 
L 595.619925 584.52 
z
" style="fill:#c1c1c1;"/>
    <path clip-path="url(#p6e90bd4d6f)" d="M 166.861333 504.9328 
L 216.606805 478.12 
L 166.861333 451.3072 
L 68.16 451.3072 
L 68.16 461.5216 
L 166.861333 461.5216 
L 197.656149 478.12 
L 166.861333 494.7184 
L 68.16 494.7184 
L 68.16 504.9328 
z
" style="fill:#c1c1c1;"/>
    <path clip-path="url(#p6e90bd4d6f)" d="M 364.264 504.9328 
L 414.009472 478.12 
L 364.264 451.3072 
L 314.518528 478.12 
z
M 333.469184 478.12 
L 364.264 461.5216 
L 395.058816 478.12 
L 364.264 494.7184 
z
" style="fill:#c1c1c1;"/>
    <path clip-path="url(#p6e90bd4d6f)" d="M 117.905472 318.52 
L 166.861333 292.1328 
L 216.606805 265.32 
L 216.606805 212.12 
L 216.606805 158.92 
L 216.606805 105.72 
L 166.861333 78.9072 
L 117.905472 52.52 
L 98.954816 52.52 
L 166.861333 89.1216 
L 197.656149 105.72 
L 197.656149 158.92 
L 197.656149 212.12 
L 197.656149 265.32 
L 166.861333 281.9184 
L 98.954816 318.52 
L 68.16 335.1184 
L 68.16 345.3328 
z
" style="fill:#c1c1c1;"/>
   </g>
   <g id="PathCollection_9">
    <path clip-path="url(#p6e90bd4d6f)" d="M 68.16 547.4928 
L 68.16 557.7072 
L 117.905472 584.52 
L 136.856128 584.52 
z
" style="fill:#b4b4b4;"/>
    <path clip-path="url(#p6e90bd4d6f)" d="M 364.264 557.7072 
L 389.136736 584.52 
L 398.612064 584.52 
L 364.264 547.4928 
L 295.567872 584.52 
L 314.518528 584.52 
z
" style="fill:#b4b4b4;"/>
    <path clip-path="url(#p6e90bd4d6f)" d="M 635.495264 531.32 
L 586.144597 478.12 
L 643.786176 424.92 
L 635.495264 371.72 
L 610.885732 318.52 
L 610.885732 265.32 
L 610.885732 212.12 
L 610.885732 158.92 
L 610.885732 105.72 
L 635.495264 52.52 
L 626.019936 52.52 
L 604.568846 105.72 
L 604.568846 158.92 
L 604.568846 212.12 
L 604.568846 265.32 
L 604.568846 318.52 
L 626.019936 371.72 
L 637.469291 424.92 
L 576.669269 478.12 
L 626.019936 531.32 
L 576.669269 584.52 
L 586.144597 584.52 
z
" style="fill:#b4b4b4;"/>
    <path clip-path="url(#p6e90bd4d6f)" d="M 166.861333 515.1472 
L 235.557461 478.12 
L 166.861333 441.0928 
L 68.16 441.0928 
L 68.16 451.3072 
L 166.861333 451.3072 
L 216.606805 478.12 
L 166.861333 504.9328 
L 68.16 504.9328 
L 68.16 515.1472 
z
" style="fill:#b4b4b4;"/>
    <path clip-path="url(#p6e90bd4d6f)" d="M 364.264 515.1472 
L 432.960128 478.12 
L 364.264 441.0928 
L 295.567872 478.12 
z
M 314.518528 478.12 
L 364.264 451.3072 
L 414.009472 478.12 
L 364.264 504.9328 
z
" style="fill:#b4b4b4;"/>
    <path clip-path="url(#p6e90bd4d6f)" d="M 136.856128 318.52 
L 166.861333 302.3472 
L 235.557461 265.32 
L 235.557461 212.12 
L 235.557461 158.92 
L 235.557461 105.72 
L 166.861333 68.6928 
L 136.856128 52.52 
L 117.905472 52.52 
L 166.861333 78.9072 
L 216.606805 105.72 
L 216.606805 158.92 
L 216.606805 212.12 
L 216.606805 265.32 
L 166.861333 292.1328 
L 117.905472 318.52 
L 68.16 345.3328 
L 68.16 355.5472 
z
" style="fill:#b4b4b4;"/>
   </g>
   <g id="PathCollection_10">
    <path clip-path="url(#p6e90bd4d6f)" d="M 68.16 537.2784 
L 68.16 547.4928 
L 136.856128 584.52 
L 155.806784 584.52 
z
" style="fill:#a5a5a5;"/>
    <path clip-path="url(#p6e90bd4d6f)" d="M 364.264 547.4928 
L 398.612064 584.52 
L 408.087392 584.52 
L 364.264 537.2784 
L 276.617216 584.52 
L 295.567872 584.52 
z
" style="fill:#a5a5a5;"/>
    <path clip-path="url(#p6e90bd4d6f)" d="M 626.019936 531.32 
L 576.669269 478.12 
L 637.469291 424.92 
L 626.019936 371.72 
L 604.568846 318.52 
L 604.568846 265.32 
L 604.568846 212.12 
L 604.568846 158.92 
L 604.568846 105.72 
L 626.019936 52.52 
L 616.544608 52.52 
L 598.251961 105.72 
L 598.251961 158.92 
L 598.251961 212.12 
L 598.251961 265.32 
L 598.251961 318.52 
L 616.544608 371.72 
L 631.152405 424.92 
L 567.193941 478.12 
L 616.544608 531.32 
L 567.193941 584.52 
L 576.669269 584.52 
z
" style="fill:#a5a5a5;"/>
    <path clip-path="url(#p6e90bd4d6f)" d="M 166.861333 525.3616 
L 254.508117 478.12 
L 166.861333 430.8784 
L 68.16 430.8784 
L 68.16 441.0928 
L 166.861333 441.0928 
L 235.557461 478.12 
L 166.861333 515.1472 
L 68.16 515.1472 
L 68.16 525.3616 
z
" style="fill:#a5a5a5;"/>
    <path clip-path="url(#p6e90bd4d6f)" d="M 364.264 525.3616 
L 451.910784 478.12 
L 364.264 430.8784 
L 276.617216 478.12 
z
M 295.567872 478.12 
L 364.264 441.0928 
L 432.960128 478.12 
L 364.264 515.1472 
z
" style="fill:#a5a5a5;"/>
    <path clip-path="url(#p6e90bd4d6f)" d="M 155.806784 318.52 
L 166.861333 312.5616 
L 254.508117 265.32 
L 254.508117 212.12 
L 254.508117 158.92 
L 254.508117 105.72 
L 166.861333 58.4784 
L 155.806784 52.52 
L 136.856128 52.52 
L 166.861333 68.6928 
L 235.557461 105.72 
L 235.557461 158.92 
L 235.557461 212.12 
L 235.557461 265.32 
L 166.861333 302.3472 
L 136.856128 318.52 
L 68.16 355.5472 
L 68.16 365.7616 
z
" style="fill:#a5a5a5;"/>
   </g>
   <g id="PathCollection_11">
    <path clip-path="url(#p6e90bd4d6f)" d="M 166.861333 584.52 
L 265.562667 584.52 
L 276.617216 584.52 
L 364.264 537.2784 
L 408.087392 584.52 
L 417.56272 584.52 
L 372.160107 531.32 
L 462.965333 482.376 
L 561.666667 482.376 
L 607.06928 531.32 
L 561.666667 580.264 
L 553.77056 584.52 
L 561.666667 584.52 
L 567.193941 584.52 
L 616.544608 531.32 
L 567.193941 478.12 
L 631.152405 424.92 
L 616.544608 371.72 
L 598.251961 318.52 
L 598.251961 265.32 
L 598.251961 212.12 
L 598.251961 158.92 
L 598.251961 105.72 
L 616.544608 52.52 
L 607.06928 52.52 
L 591.935076 105.72 
L 591.935076 158.92 
L 591.935076 212.12 
L 591.935076 265.32 
L 591.935076 318.52 
L 607.06928 371.72 
L 624.83552 424.92 
L 561.666667 475.992 
L 462.965333 473.864 
L 372.160107 424.92 
L 372.160107 371.72 
L 372.160107 318.52 
L 372.160107 265.32 
L 462.965333 216.376 
L 470.86144 212.12 
L 462.965333 207.864 
L 372.160107 158.92 
L 372.160107 105.72 
L 372.160107 52.52 
L 364.264 52.52 
L 265.562667 52.52 
L 166.861333 52.52 
L 155.806784 52.52 
L 166.861333 58.4784 
L 254.508117 105.72 
L 254.508117 158.92 
L 254.508117 212.12 
L 254.508117 265.32 
L 166.861333 312.5616 
L 155.806784 318.52 
L 68.16 365.7616 
L 68.16 371.72 
L 68.16 424.92 
L 68.16 430.8784 
L 166.861333 430.8784 
L 254.508117 478.12 
L 166.861333 525.3616 
L 68.16 525.3616 
L 68.16 531.32 
L 68.16 537.2784 
L 155.806784 584.52 
z
M 174.75744 531.32 
L 265.562667 482.376 
L 356.367893 531.32 
L 265.562667 580.264 
z
M 276.617216 478.12 
L 364.264 430.8784 
L 451.910784 478.12 
L 364.264 525.3616 
z
M 174.75744 424.92 
L 265.562667 375.976 
L 356.367893 424.92 
L 265.562667 473.864 
z
" style="fill:#959595;"/>
   </g>
   <g id="PathCollection_12">
    <path clip-path="url(#p6e90bd4d6f)" d="M 265.562667 580.264 
L 356.367893 531.32 
L 265.562667 482.376 
L 174.75744 531.32 
z
M 193.708096 531.32 
L 265.562667 492.5904 
L 337.417237 531.32 
L 265.562667 570.0496 
z
" style="fill:#888888;"/>
    <path clip-path="url(#p6e90bd4d6f)" d="M 391.110763 531.32 
L 462.965333 492.5904 
L 561.666667 492.5904 
L 597.593952 531.32 
L 561.666667 570.0496 
L 534.819904 584.52 
L 553.77056 584.52 
L 561.666667 580.264 
L 607.06928 531.32 
L 561.666667 482.376 
L 462.965333 482.376 
L 372.160107 531.32 
L 417.56272 584.52 
L 427.038048 584.52 
z
" style="fill:#888888;"/>
    <path clip-path="url(#p6e90bd4d6f)" d="M 265.562667 473.864 
L 356.367893 424.92 
L 265.562667 375.976 
L 174.75744 424.92 
z
M 193.708096 424.92 
L 265.562667 386.1904 
L 337.417237 424.92 
L 265.562667 463.6496 
z
" style="fill:#888888;"/>
    <path clip-path="url(#p6e90bd4d6f)" d="M 462.965333 473.864 
L 561.666667 475.992 
L 624.83552 424.92 
L 607.06928 371.72 
L 591.935076 318.52 
L 591.935076 265.32 
L 591.935076 212.12 
L 591.935076 158.92 
L 591.935076 105.72 
L 607.06928 52.52 
L 597.593952 52.52 
L 585.61819 105.72 
L 585.61819 158.92 
L 585.61819 212.12 
L 585.61819 265.32 
L 585.61819 318.52 
L 597.593952 371.72 
L 618.518635 424.92 
L 561.666667 470.8848 
L 462.965333 463.6496 
L 391.110763 424.92 
L 391.110763 371.72 
L 391.110763 318.52 
L 391.110763 265.32 
L 462.965333 226.5904 
L 489.812096 212.12 
L 462.965333 197.6496 
L 391.110763 158.92 
L 391.110763 105.72 
L 391.110763 52.52 
L 372.160107 52.52 
L 372.160107 105.72 
L 372.160107 158.92 
L 462.965333 207.864 
L 470.86144 212.12 
L 462.965333 216.376 
L 372.160107 265.32 
L 372.160107 318.52 
L 372.160107 371.72 
L 372.160107 424.92 
z
" style="fill:#888888;"/>
   </g>
   <g id="PathCollection_13">
    <path clip-path="url(#p6e90bd4d6f)" d="M 265.562667 570.0496 
L 337.417237 531.32 
L 265.562667 492.5904 
L 193.708096 531.32 
z
M 212.658752 531.32 
L 265.562667 502.8048 
L 318.466581 531.32 
L 265.562667 559.8352 
z
" style="fill:#7b7b7b;"/>
    <path clip-path="url(#p6e90bd4d6f)" d="M 410.061419 531.32 
L 462.965333 502.8048 
L 561.666667 502.8048 
L 588.118624 531.32 
L 561.666667 559.8352 
L 515.869248 584.52 
L 534.819904 584.52 
L 561.666667 570.0496 
L 597.593952 531.32 
L 561.666667 492.5904 
L 462.965333 492.5904 
L 391.110763 531.32 
L 427.038048 584.52 
L 436.513376 584.52 
z
" style="fill:#7b7b7b;"/>
    <path clip-path="url(#p6e90bd4d6f)" d="M 265.562667 463.6496 
L 337.417237 424.92 
L 265.562667 386.1904 
L 193.708096 424.92 
z
M 212.658752 424.92 
L 265.562667 396.4048 
L 318.466581 424.92 
L 265.562667 453.4352 
z
" style="fill:#7b7b7b;"/>
    <path clip-path="url(#p6e90bd4d6f)" d="M 462.965333 463.6496 
L 561.666667 470.8848 
L 618.518635 424.92 
L 597.593952 371.72 
L 585.61819 318.52 
L 585.61819 265.32 
L 585.61819 212.12 
L 585.61819 158.92 
L 585.61819 105.72 
L 597.593952 52.52 
L 588.118624 52.52 
L 579.301305 105.72 
L 579.301305 158.92 
L 579.301305 212.12 
L 579.301305 265.32 
L 579.301305 318.52 
L 588.118624 371.72 
L 612.201749 424.92 
L 561.666667 465.7776 
L 462.965333 453.4352 
L 410.061419 424.92 
L 410.061419 371.72 
L 410.061419 318.52 
L 410.061419 265.32 
L 462.965333 236.8048 
L 508.762752 212.12 
L 462.965333 187.4352 
L 410.061419 158.92 
L 410.061419 105.72 
L 410.061419 52.52 
L 391.110763 52.52 
L 391.110763 105.72 
L 391.110763 158.92 
L 462.965333 197.6496 
L 489.812096 212.12 
L 462.965333 226.5904 
L 391.110763 265.32 
L 391.110763 318.52 
L 391.110763 371.72 
L 391.110763 424.92 
z
" style="fill:#7b7b7b;"/>
   </g>
   <g id="PathCollection_14">
    <path clip-path="url(#p6e90bd4d6f)" d="M 265.562667 559.8352 
L 318.466581 531.32 
L 265.562667 502.8048 
L 212.658752 531.32 
z
M 231.609408 531.32 
L 265.562667 513.0192 
L 299.515925 531.32 
L 265.562667 549.6208 
z
" style="fill:#6e6e6e;"/>
    <path clip-path="url(#p6e90bd4d6f)" d="M 429.012075 531.32 
L 462.965333 513.0192 
L 561.666667 513.0192 
L 578.643296 531.32 
L 561.666667 549.6208 
L 496.918592 584.52 
L 515.869248 584.52 
L 561.666667 559.8352 
L 588.118624 531.32 
L 561.666667 502.8048 
L 462.965333 502.8048 
L 410.061419 531.32 
L 436.513376 584.52 
L 445.988704 584.52 
z
" style="fill:#6e6e6e;"/>
    <path clip-path="url(#p6e90bd4d6f)" d="M 265.562667 453.4352 
L 318.466581 424.92 
L 265.562667 396.4048 
L 212.658752 424.92 
z
M 231.609408 424.92 
L 265.562667 406.6192 
L 299.515925 424.92 
L 265.562667 443.2208 
z
" style="fill:#6e6e6e;"/>
    <path clip-path="url(#p6e90bd4d6f)" d="M 462.965333 453.4352 
L 561.666667 465.7776 
L 612.201749 424.92 
L 588.118624 371.72 
L 579.301305 318.52 
L 579.301305 265.32 
L 579.301305 212.12 
L 579.301305 158.92 
L 579.301305 105.72 
L 588.118624 52.52 
L 578.643296 52.52 
L 572.98442 105.72 
L 572.98442 158.92 
L 572.98442 212.12 
L 572.98442 265.32 
L 572.98442 318.52 
L 578.643296 371.72 
L 605.884864 424.92 
L 561.666667 460.6704 
L 462.965333 443.2208 
L 429.012075 424.92 
L 429.012075 371.72 
L 429.012075 318.52 
L 429.012075 265.32 
L 462.965333 247.0192 
L 527.713408 212.12 
L 462.965333 177.2208 
L 429.012075 158.92 
L 429.012075 105.72 
L 429.012075 52.52 
L 410.061419 52.52 
L 410.061419 105.72 
L 410.061419 158.92 
L 462.965333 187.4352 
L 508.762752 212.12 
L 462.965333 236.8048 
L 410.061419 265.32 
L 410.061419 318.52 
L 410.061419 371.72 
L 410.061419 424.92 
z
" style="fill:#6e6e6e;"/>
   </g>
   <g id="PathCollection_15">
    <path clip-path="url(#p6e90bd4d6f)" d="M 265.562667 549.6208 
L 299.515925 531.32 
L 265.562667 513.0192 
L 231.609408 531.32 
z
M 250.560064 531.32 
L 265.562667 523.2336 
L 280.565269 531.32 
L 265.562667 539.4064 
z
" style="fill:#626262;"/>
    <path clip-path="url(#p6e90bd4d6f)" d="M 447.962731 531.32 
L 462.965333 523.2336 
L 561.666667 523.2336 
L 569.167968 531.32 
L 561.666667 539.4064 
L 477.967936 584.52 
L 496.918592 584.52 
L 561.666667 549.6208 
L 578.643296 531.32 
L 561.666667 513.0192 
L 462.965333 513.0192 
L 429.012075 531.32 
L 445.988704 584.52 
L 455.464032 584.52 
z
" style="fill:#626262;"/>
    <path clip-path="url(#p6e90bd4d6f)" d="M 265.562667 443.2208 
L 299.515925 424.92 
L 265.562667 406.6192 
L 231.609408 424.92 
z
M 250.560064 424.92 
L 265.562667 416.8336 
L 280.565269 424.92 
L 265.562667 433.0064 
z
" style="fill:#626262;"/>
    <path clip-path="url(#p6e90bd4d6f)" d="M 462.965333 443.2208 
L 561.666667 460.6704 
L 605.884864 424.92 
L 578.643296 371.72 
L 572.98442 318.52 
L 572.98442 265.32 
L 572.98442 212.12 
L 572.98442 158.92 
L 572.98442 105.72 
L 578.643296 52.52 
L 569.167968 52.52 
L 566.667534 105.72 
L 566.667534 158.92 
L 566.667534 212.12 
L 566.667534 265.32 
L 566.667534 318.52 
L 569.167968 371.72 
L 599.567979 424.92 
L 561.666667 455.5632 
L 462.965333 433.0064 
L 447.962731 424.92 
L 447.962731 371.72 
L 447.962731 318.52 
L 447.962731 265.32 
L 462.965333 257.2336 
L 546.664064 212.12 
L 462.965333 167.0064 
L 447.962731 158.92 
L 447.962731 105.72 
L 447.962731 52.52 
L 429.012075 52.52 
L 429.012075 105.72 
L 429.012075 158.92 
L 462.965333 177.2208 
L 527.713408 212.12 
L 462.965333 247.0192 
L 429.012075 265.32 
L 429.012075 318.52 
L 429.012075 371.72 
L 429.012075 424.92 
z
" style="fill:#626262;"/>
   </g>
   <g id="PathCollection_16">
    <path clip-path="url(#p6e90bd4d6f)" d="M 265.562667 539.4064 
L 280.565269 531.32 
L 265.562667 523.2336 
L 250.560064 531.32 
z
" style="fill:#555555;"/>
    <path clip-path="url(#p6e90bd4d6f)" d="M 462.965333 584.52 
L 477.967936 584.52 
L 561.666667 539.4064 
L 569.167968 531.32 
L 561.666667 523.2336 
L 462.965333 523.2336 
L 447.962731 531.32 
L 455.464032 584.52 
z
" style="fill:#555555;"/>
    <path clip-path="url(#p6e90bd4d6f)" d="M 265.562667 433.0064 
L 280.565269 424.92 
L 265.562667 416.8336 
L 250.560064 424.92 
z
" style="fill:#555555;"/>
    <path clip-path="url(#p6e90bd4d6f)" d="M 462.965333 433.0064 
L 561.666667 455.5632 
L 599.567979 424.92 
L 569.167968 371.72 
L 566.667534 318.52 
L 566.667534 265.32 
L 566.667534 212.12 
L 566.667534 158.92 
L 566.667534 105.72 
L 569.167968 52.52 
L 561.666667 52.52 
L 462.965333 52.52 
L 447.962731 52.52 
L 447.962731 105.72 
L 447.962731 158.92 
L 462.965333 167.0064 
L 546.664064 212.12 
L 462.965333 257.2336 
L 447.962731 265.32 
L 447.962731 318.52 
L 447.962731 371.72 
L 447.962731 424.92 
z
M 466.913387 424.92 
L 561.666667 373.848 
L 593.251093 424.92 
L 561.666667 450.456 
z
" style="fill:#555555;"/>
   </g>
   <g id="PathCollection_17">
    <path clip-path="url(#p6e90bd4d6f)" d="M 561.666667 450.456 
L 593.251093 424.92 
L 561.666667 373.848 
L 466.913387 424.92 
z
M 485.864043 424.92 
L 561.666667 384.0624 
L 586.934208 424.92 
L 561.666667 445.3488 
z
" style="fill:#444444;"/>
   </g>
   <g id="PathCollection_18">
    <path clip-path="url(#p6e90bd4d6f)" d="M 561.666667 445.3488 
L 586.934208 424.92 
L 561.666667 384.0624 
L 485.864043 424.92 
z
M 504.814699 424.92 
L 561.666667 394.2768 
L 580.617323 424.92 
L 561.666667 440.2416 
z
" style="fill:#333333;"/>
   </g>
   <g id="PathCollection_19">
    <path clip-path="url(#p6e90bd4d6f)" d="M 561.666667 440.2416 
L 580.617323 424.92 
L 561.666667 394.2768 
L 504.814699 424.92 
z
M 523.765355 424.92 
L 561.666667 404.4912 
L 574.300437 424.92 
L 561.666667 435.1344 
z
" style="fill:#232323;"/>
   </g>
   <g id="PathCollection_20">
    <path clip-path="url(#p6e90bd4d6f)" d="M 561.666667 435.1344 
L 574.300437 424.92 
L 561.666667 404.4912 
L 523.765355 424.92 
z
M 542.716011 424.92 
L 561.666667 414.7056 
L 567.983552 424.92 
L 561.666667 430.0272 
z
" style="fill:#151515;"/>
   </g>
   <g id="PathCollection_21">
    <path clip-path="url(#p6e90bd4d6f)" d="M 561.666667 430.0272 
L 567.983552 424.92 
L 561.666667 414.7056 
L 542.716011 424.92 
z
" style="fill:#070707;"/>
   </g>
   <g id="matplotlib.axis_1">
    <g id="xtick_1">
     <g id="line2d_1">
      <defs>
       <path d="M 0 0 
L 0 3.5 
" id="m389e397e85" style="stroke:#000000;stroke-width:0.8;"/>
      </defs>
      <g>
       <use style="stroke:#000000;stroke-width:0.8;" x="68.16" xlink:href="#m389e397e85" y="584.52"/>
      </g>
     </g>
     <g id="text_1">
      <!-- 40 -->
      <defs>
       <path d="M 34.90625 24.703125 
L 34.90625 63.484375 
L 10.015625 24.703125 
z
M 56.390625 0 
L 23.1875 0 
L 23.1875 5.171875 
L 34.90625 5.171875 
L 34.90625 19.484375 
L 3.078125 19.484375 
L 3.078125 24.8125 
L 35.015625 74.21875 
L 44.671875 74.21875 
L 44.671875 24.703125 
L 58.59375 24.703125 
L 58.59375 19.484375 
L 44.671875 19.484375 
L 44.671875 5.171875 
L 56.390625 5.171875 
z
" id="DejaVuSerif-34"/>
       <path d="M 31.78125 3.421875 
Q 39.265625 3.421875 42.96875 11.625 
Q 46.6875 19.828125 46.6875 36.375 
Q 46.6875 52.984375 42.96875 61.1875 
Q 39.265625 69.390625 31.78125 69.390625 
Q 24.3125 69.390625 20.59375 61.1875 
Q 16.890625 52.984375 16.890625 36.375 
Q 16.890625 19.828125 20.59375 11.625 
Q 24.3125 3.421875 31.78125 3.421875 
z
M 31.78125 -1.421875 
Q 19.921875 -1.421875 13.25 8.53125 
Q 6.59375 18.5 6.59375 36.375 
Q 6.59375 54.296875 13.25 64.25 
Q 19.921875 74.21875 31.78125 74.21875 
Q 43.703125 74.21875 50.34375 64.25 
Q 56.984375 54.296875 56.984375 36.375 
Q 56.984375 18.5 50.34375 8.53125 
Q 43.703125 -1.421875 31.78125 -1.421875 
z
" id="DejaVuSerif-30"/>
      </defs>
      <g transform="translate(63.744425 596.793316)scale(0.0694 -0.0694)">
       <use xlink:href="#DejaVuSerif-34"/>
       <use x="63.623047" xlink:href="#DejaVuSerif-30"/>
      </g>
     </g>
    </g>
    <g id="xtick_2">
     <g id="line2d_2">
      <g>
       <use style="stroke:#000000;stroke-width:0.8;" x="166.861333" xlink:href="#m389e397e85" y="584.52"/>
      </g>
     </g>
     <g id="text_2">
      <!-- 45 -->
      <defs>
       <path d="M 50.296875 72.90625 
L 50.296875 64.890625 
L 16.890625 64.890625 
L 16.890625 44 
Q 19.4375 45.75 22.828125 46.625 
Q 26.21875 47.515625 30.421875 47.515625 
Q 42.234375 47.515625 49.0625 40.96875 
Q 55.90625 34.421875 55.90625 23.09375 
Q 55.90625 11.53125 49 5.046875 
Q 42.09375 -1.421875 29.59375 -1.421875 
Q 24.5625 -1.421875 19.28125 -0.1875 
Q 14.015625 1.03125 8.5 3.515625 
L 8.5 17.671875 
L 14.015625 17.671875 
Q 14.453125 10.75 18.421875 7.078125 
Q 22.40625 3.421875 29.59375 3.421875 
Q 37.3125 3.421875 41.453125 8.5 
Q 45.609375 13.578125 45.609375 23.09375 
Q 45.609375 32.5625 41.484375 37.609375 
Q 37.359375 42.671875 29.59375 42.671875 
Q 25.203125 42.671875 21.84375 41.109375 
Q 18.5 39.546875 15.921875 36.28125 
L 11.71875 36.28125 
L 11.71875 72.90625 
z
" id="DejaVuSerif-35"/>
      </defs>
      <g transform="translate(162.445758 596.793316)scale(0.0694 -0.0694)">
       <use xlink:href="#DejaVuSerif-34"/>
       <use x="63.623047" xlink:href="#DejaVuSerif-35"/>
      </g>
     </g>
    </g>
    <g id="xtick_3">
     <g id="line2d_3">
      <g>
       <use style="stroke:#000000;stroke-width:0.8;" x="265.562667" xlink:href="#m389e397e85" y="584.52"/>
      </g>
     </g>
     <g id="text_3">
      <!-- 50 -->
      <g transform="translate(261.147092 596.793316)scale(0.0694 -0.0694)">
       <use xlink:href="#DejaVuSerif-35"/>
       <use x="63.623047" xlink:href="#DejaVuSerif-30"/>
      </g>
     </g>
    </g>
    <g id="xtick_4">
     <g id="line2d_4">
      <g>
       <use style="stroke:#000000;stroke-width:0.8;" x="364.264" xlink:href="#m389e397e85" y="584.52"/>
      </g>
     </g>
     <g id="text_4">
      <!-- 55 -->
      <g transform="translate(359.848425 596.793316)scale(0.0694 -0.0694)">
       <use xlink:href="#DejaVuSerif-35"/>
       <use x="63.623047" xlink:href="#DejaVuSerif-35"/>
      </g>
     </g>
    </g>
    <g id="xtick_5">
     <g id="line2d_5">
      <g>
       <use style="stroke:#000000;stroke-width:0.8;" x="462.965333" xlink:href="#m389e397e85" y="584.52"/>
      </g>
     </g>
     <g id="text_5">
      <!-- 60 -->
      <defs>
       <path d="M 32.71875 3.421875 
Q 39.59375 3.421875 43.296875 8.46875 
Q 47.015625 13.53125 47.015625 23 
Q 47.015625 32.46875 43.296875 37.515625 
Q 39.59375 42.578125 32.71875 42.578125 
Q 25.734375 42.578125 22.0625 37.6875 
Q 18.40625 32.8125 18.40625 23.578125 
Q 18.40625 13.875 22.109375 8.640625 
Q 25.828125 3.421875 32.71875 3.421875 
z
M 16.796875 40.140625 
Q 20.125 43.796875 24.3125 45.59375 
Q 28.515625 47.40625 33.796875 47.40625 
Q 44.671875 47.40625 51 40.859375 
Q 57.328125 34.328125 57.328125 23 
Q 57.328125 11.921875 50.515625 5.25 
Q 43.703125 -1.421875 32.328125 -1.421875 
Q 19.96875 -1.421875 13.328125 7.78125 
Q 6.6875 17 6.6875 34.078125 
Q 6.6875 53.21875 14.546875 63.71875 
Q 22.40625 74.21875 36.71875 74.21875 
Q 40.578125 74.21875 44.828125 73.484375 
Q 49.078125 72.75 53.515625 71.296875 
L 53.515625 59.28125 
L 48 59.28125 
Q 47.40625 64.203125 44.234375 66.796875 
Q 41.0625 69.390625 35.6875 69.390625 
Q 26.21875 69.390625 21.578125 62.203125 
Q 16.9375 55.03125 16.796875 40.140625 
z
" id="DejaVuSerif-36"/>
      </defs>
      <g transform="translate(458.549758 596.793316)scale(0.0694 -0.0694)">
       <use xlink:href="#DejaVuSerif-36"/>
       <use x="63.623047" xlink:href="#DejaVuSerif-30"/>
      </g>
     </g>
    </g>
    <g id="xtick_6">
     <g id="line2d_6">
      <g>
       <use style="stroke:#000000;stroke-width:0.8;" x="561.666667" xlink:href="#m389e397e85" y="584.52"/>
      </g>
     </g>
     <g id="text_6">
      <!-- 65 -->
      <g transform="translate(557.251092 596.793316)scale(0.0694 -0.0694)">
       <use xlink:href="#DejaVuSerif-36"/>
       <use x="63.623047" xlink:href="#DejaVuSerif-35"/>
      </g>
     </g>
    </g>
    <g id="xtick_7">
     <g id="line2d_7">
      <g>
       <use style="stroke:#000000;stroke-width:0.8;" x="660.368" xlink:href="#m389e397e85" y="584.52"/>
      </g>
     </g>
     <g id="text_7">
      <!-- 70 -->
      <defs>
       <path d="M 56.390625 67.921875 
L 27.875 0 
L 20.609375 0 
L 47.796875 64.890625 
L 14.109375 64.890625 
L 14.109375 55.90625 
L 8.40625 55.90625 
L 8.40625 72.90625 
L 56.390625 72.90625 
z
" id="DejaVuSerif-37"/>
      </defs>
      <g transform="translate(655.952425 596.793316)scale(0.0694 -0.0694)">
       <use xlink:href="#DejaVuSerif-37"/>
       <use x="63.623047" xlink:href="#DejaVuSerif-30"/>
      </g>
     </g>
    </g>
   </g>
   <g id="matplotlib.axis_2">
    <g id="ytick_1">
     <g id="line2d_8">
      <defs>
       <path d="M 0 0 
L -3.5 0 
" id="m0356d77ae6" style="stroke:#000000;stroke-width:0.8;"/>
      </defs>
      <g>
       <use style="stroke:#000000;stroke-width:0.8;" x="68.16" xlink:href="#m0356d77ae6" y="584.52"/>
      </g>
     </g>
     <g id="text_8">
      <!-- 100 -->
      <defs>
       <path d="M 14.203125 0 
L 14.203125 5.171875 
L 26.90625 5.171875 
L 26.90625 65.828125 
L 12.203125 56.296875 
L 12.203125 62.703125 
L 29.984375 74.21875 
L 36.71875 74.21875 
L 36.71875 5.171875 
L 49.421875 5.171875 
L 49.421875 0 
z
" id="DejaVuSerif-31"/>
      </defs>
      <g transform="translate(47.913275 587.156658)scale(0.0694 -0.0694)">
       <use xlink:href="#DejaVuSerif-31"/>
       <use x="63.623047" xlink:href="#DejaVuSerif-30"/>
       <use x="127.246094" xlink:href="#DejaVuSerif-30"/>
      </g>
     </g>
    </g>
    <g id="ytick_2">
     <g id="line2d_9">
      <g>
       <use style="stroke:#000000;stroke-width:0.8;" x="68.16" xlink:href="#m0356d77ae6" y="518.02"/>
      </g>
     </g>
     <g id="text_9">
      <!-- 125 -->
      <defs>
       <path d="M 12.796875 55.515625 
L 7.328125 55.515625 
L 7.328125 68.5 
Q 12.546875 71.296875 17.84375 72.75 
Q 23.140625 74.21875 28.21875 74.21875 
Q 39.59375 74.21875 46.1875 68.703125 
Q 52.78125 63.1875 52.78125 53.71875 
Q 52.78125 43.015625 37.84375 28.125 
Q 36.671875 27 36.078125 26.421875 
L 17.671875 8.015625 
L 48.09375 8.015625 
L 48.09375 17 
L 53.8125 17 
L 53.8125 0 
L 6.78125 0 
L 6.78125 5.328125 
L 28.90625 27.390625 
Q 36.234375 34.71875 39.359375 40.84375 
Q 42.484375 46.96875 42.484375 53.71875 
Q 42.484375 61.078125 38.640625 65.234375 
Q 34.8125 69.390625 28.078125 69.390625 
Q 21.09375 69.390625 17.28125 65.921875 
Q 13.484375 62.453125 12.796875 55.515625 
z
" id="DejaVuSerif-32"/>
      </defs>
      <g transform="translate(47.913275 520.656658)scale(0.0694 -0.0694)">
       <use xlink:href="#DejaVuSerif-31"/>
       <use x="63.623047" xlink:href="#DejaVuSerif-32"/>
       <use x="127.246094" xlink:href="#DejaVuSerif-35"/>
      </g>
     </g>
    </g>
    <g id="ytick_3">
     <g id="line2d_10">
      <g>
       <use style="stroke:#000000;stroke-width:0.8;" x="68.16" xlink:href="#m0356d77ae6" y="451.52"/>
      </g>
     </g>
     <g id="text_10">
      <!-- 150 -->
      <g transform="translate(47.913275 454.156658)scale(0.0694 -0.0694)">
       <use xlink:href="#DejaVuSerif-31"/>
       <use x="63.623047" xlink:href="#DejaVuSerif-35"/>
       <use x="127.246094" xlink:href="#DejaVuSerif-30"/>
      </g>
     </g>
    </g>
    <g id="ytick_4">
     <g id="line2d_11">
      <g>
       <use style="stroke:#000000;stroke-width:0.8;" x="68.16" xlink:href="#m0356d77ae6" y="385.02"/>
      </g>
     </g>
     <g id="text_11">
      <!-- 175 -->
      <g transform="translate(47.913275 387.656658)scale(0.0694 -0.0694)">
       <use xlink:href="#DejaVuSerif-31"/>
       <use x="63.623047" xlink:href="#DejaVuSerif-37"/>
       <use x="127.246094" xlink:href="#DejaVuSerif-35"/>
      </g>
     </g>
    </g>
    <g id="ytick_5">
     <g id="line2d_12">
      <g>
       <use style="stroke:#000000;stroke-width:0.8;" x="68.16" xlink:href="#m0356d77ae6" y="318.52"/>
      </g>
     </g>
     <g id="text_12">
      <!-- 200 -->
      <g transform="translate(47.913275 321.156658)scale(0.0694 -0.0694)">
       <use xlink:href="#DejaVuSerif-32"/>
       <use x="63.623047" xlink:href="#DejaVuSerif-30"/>
       <use x="127.246094" xlink:href="#DejaVuSerif-30"/>
      </g>
     </g>
    </g>
    <g id="ytick_6">
     <g id="line2d_13">
      <g>
       <use style="stroke:#000000;stroke-width:0.8;" x="68.16" xlink:href="#m0356d77ae6" y="252.02"/>
      </g>
     </g>
     <g id="text_13">
      <!-- 225 -->
      <g transform="translate(47.913275 254.656658)scale(0.0694 -0.0694)">
       <use xlink:href="#DejaVuSerif-32"/>
       <use x="63.623047" xlink:href="#DejaVuSerif-32"/>
       <use x="127.246094" xlink:href="#DejaVuSerif-35"/>
      </g>
     </g>
    </g>
    <g id="ytick_7">
     <g id="line2d_14">
      <g>
       <use style="stroke:#000000;stroke-width:0.8;" x="68.16" xlink:href="#m0356d77ae6" y="185.52"/>
      </g>
     </g>
     <g id="text_14">
      <!-- 250 -->
      <g transform="translate(47.913275 188.156658)scale(0.0694 -0.0694)">
       <use xlink:href="#DejaVuSerif-32"/>
       <use x="63.623047" xlink:href="#DejaVuSerif-35"/>
       <use x="127.246094" xlink:href="#DejaVuSerif-30"/>
      </g>
     </g>
    </g>
    <g id="ytick_8">
     <g id="line2d_15">
      <g>
       <use style="stroke:#000000;stroke-width:0.8;" x="68.16" xlink:href="#m0356d77ae6" y="119.02"/>
      </g>
     </g>
     <g id="text_15">
      <!-- 275 -->
      <g transform="translate(47.913275 121.656658)scale(0.0694 -0.0694)">
       <use xlink:href="#DejaVuSerif-32"/>
       <use x="63.623047" xlink:href="#DejaVuSerif-37"/>
       <use x="127.246094" xlink:href="#DejaVuSerif-35"/>
      </g>
     </g>
    </g>
    <g id="ytick_9">
     <g id="line2d_16">
      <g>
       <use style="stroke:#000000;stroke-width:0.8;" x="68.16" xlink:href="#m0356d77ae6" y="52.52"/>
      </g>
     </g>
     <g id="text_16">
      <!-- 300 -->
      <defs>
       <path d="M 9.71875 69.828125 
Q 15.4375 71.96875 20.671875 73.09375 
Q 25.921875 74.21875 30.515625 74.21875 
Q 41.21875 74.21875 47.21875 69.59375 
Q 53.21875 64.984375 53.21875 56.78125 
Q 53.21875 50.203125 49.0625 45.78125 
Q 44.921875 41.359375 37.3125 39.796875 
Q 46.296875 38.53125 51.25 33.28125 
Q 56.203125 28.03125 56.203125 19.671875 
Q 56.203125 9.46875 49.34375 4.015625 
Q 42.484375 -1.421875 29.59375 -1.421875 
Q 23.875 -1.421875 18.421875 -0.1875 
Q 12.984375 1.03125 7.625 3.515625 
L 7.625 17.671875 
L 13.09375 17.671875 
Q 13.578125 10.640625 17.828125 7.03125 
Q 22.078125 3.421875 29.78125 3.421875 
Q 37.25 3.421875 41.578125 7.734375 
Q 45.90625 12.0625 45.90625 19.578125 
Q 45.90625 28.171875 41.453125 32.59375 
Q 37.015625 37.015625 28.421875 37.015625 
L 23.78125 37.015625 
L 23.78125 42 
L 26.21875 42 
Q 34.765625 42 39.03125 45.53125 
Q 43.3125 49.078125 43.3125 56.203125 
Q 43.3125 62.59375 39.796875 65.984375 
Q 36.28125 69.390625 29.6875 69.390625 
Q 23.09375 69.390625 19.453125 66.265625 
Q 15.828125 63.140625 15.1875 56.984375 
L 9.71875 56.984375 
z
" id="DejaVuSerif-33"/>
      </defs>
      <g transform="translate(47.913275 55.156658)scale(0.0694 -0.0694)">
       <use xlink:href="#DejaVuSerif-33"/>
       <use x="63.623047" xlink:href="#DejaVuSerif-30"/>
       <use x="127.246094" xlink:href="#DejaVuSerif-30"/>
      </g>
     </g>
    </g>
   </g>
   <g id="patch_3">
    <path d="M 68.16 584.52 
L 68.16 52.52 
" style="fill:none;stroke:#000000;stroke-linecap:square;stroke-linejoin:miter;stroke-width:0.8;"/>
   </g>
   <g id="patch_4">
    <path d="M 660.368 584.52 
L 660.368 52.52 
" style="fill:none;stroke:#000000;stroke-linecap:square;stroke-linejoin:miter;stroke-width:0.8;"/>
   </g>
   <g id="patch_5">
    <path d="M 68.16 584.52 
L 660.368 584.52 
" style="fill:none;stroke:#000000;stroke-linecap:square;stroke-linejoin:miter;stroke-width:0.8;"/>
   </g>
   <g id="patch_6">
    <path d="M 68.16 52.52 
L 660.368 52.52 
" style="fill:none;stroke:#000000;stroke-linecap:square;stroke-linejoin:miter;stroke-width:0.8;"/>
   </g>
  </g>
  <g id="axes_2">
   <g id="patch_7">
    <path clip-path="url(#p27b8a98be1)" d="M 697.381 584.52 
L 697.381 559.186667 
L 697.381 77.853333 
L 697.381 52.52 
L 723.981 52.52 
L 723.981 77.853333 
L 723.981 559.186667 
L 723.981 584.52 
z
" style="fill:#ffffff;stroke:#ffffff;stroke-linejoin:miter;stroke-width:0.01;"/>
   </g>
   <g id="QuadMesh_1">
    <path clip-path="url(#p27b8a98be1)" d="M 697.381 584.52 
L 723.981 584.52 
L 723.981 559.186667 
L 697.381 559.186667 
L 697.381 584.52 
" style="fill:#fcfcfc;"/>
    <path clip-path="url(#p27b8a98be1)" d="M 697.381 559.186667 
L 723.981 559.186667 
L 723.981 533.853333 
L 697.381 533.853333 
L 697.381 559.186667 
" style="fill:#f7f7f7;"/>
    <path clip-path="url(#p27b8a98be1)" d="M 697.381 533.853333 
L 723.981 533.853333 
L 723.981 508.52 
L 697.381 508.52 
L 697.381 533.853333 
" style="fill:#f1f1f1;"/>
    <path clip-path="url(#p27b8a98be1)" d="M 697.381 508.52 
L 723.981 508.52 
L 723.981 483.186667 
L 697.381 483.186667 
L 697.381 508.52 
" style="fill:#e9e9e9;"/>
    <path clip-path="url(#p27b8a98be1)" d="M 697.381 483.186667 
L 723.981 483.186667 
L 723.981 457.853333 
L 697.381 457.853333 
L 697.381 483.186667 
" style="fill:#e0e0e0;"/>
    <path clip-path="url(#p27b8a98be1)" d="M 697.381 457.853333 
L 723.981 457.853333 
L 723.981 432.52 
L 697.381 432.52 
L 697.381 457.853333 
" style="fill:#d6d6d6;"/>
    <path clip-path="url(#p27b8a98be1)" d="M 697.381 432.52 
L 723.981 432.52 
L 723.981 407.186667 
L 697.381 407.186667 
L 697.381 432.52 
" style="fill:#cccccc;"/>
    <path clip-path="url(#p27b8a98be1)" d="M 697.381 407.186667 
L 723.981 407.186667 
L 723.981 381.853333 
L 697.381 381.853333 
L 697.381 407.186667 
" style="fill:#c1c1c1;"/>
    <path clip-path="url(#p27b8a98be1)" d="M 697.381 381.853333 
L 723.981 381.853333 
L 723.981 356.52 
L 697.381 356.52 
L 697.381 381.853333 
" style="fill:#b4b4b4;"/>
    <path clip-path="url(#p27b8a98be1)" d="M 697.381 356.52 
L 723.981 356.52 
L 723.981 331.186667 
L 697.381 331.186667 
L 697.381 356.52 
" style="fill:#a5a5a5;"/>
    <path clip-path="url(#p27b8a98be1)" d="M 697.381 331.186667 
L 723.981 331.186667 
L 723.981 305.853333 
L 697.381 305.853333 
L 697.381 331.186667 
" style="fill:#959595;"/>
    <path clip-path="url(#p27b8a98be1)" d="M 697.381 305.853333 
L 723.981 305.853333 
L 723.981 280.52 
L 697.381 280.52 
L 697.381 305.853333 
" style="fill:#888888;"/>
    <path clip-path="url(#p27b8a98be1)" d="M 697.381 280.52 
L 723.981 280.52 
L 723.981 255.186667 
L 697.381 255.186667 
L 697.381 280.52 
" style="fill:#7b7b7b;"/>
    <path clip-path="url(#p27b8a98be1)" d="M 697.381 255.186667 
L 723.981 255.186667 
L 723.981 229.853333 
L 697.381 229.853333 
L 697.381 255.186667 
" style="fill:#6e6e6e;"/>
    <path clip-path="url(#p27b8a98be1)" d="M 697.381 229.853333 
L 723.981 229.853333 
L 723.981 204.52 
L 697.381 204.52 
L 697.381 229.853333 
" style="fill:#626262;"/>
    <path clip-path="url(#p27b8a98be1)" d="M 697.381 204.52 
L 723.981 204.52 
L 723.981 179.186667 
L 697.381 179.186667 
L 697.381 204.52 
" style="fill:#555555;"/>
    <path clip-path="url(#p27b8a98be1)" d="M 697.381 179.186667 
L 723.981 179.186667 
L 723.981 153.853333 
L 697.381 153.853333 
L 697.381 179.186667 
" style="fill:#444444;"/>
    <path clip-path="url(#p27b8a98be1)" d="M 697.381 153.853333 
L 723.981 153.853333 
L 723.981 128.52 
L 697.381 128.52 
L 697.381 153.853333 
" style="fill:#333333;"/>
    <path clip-path="url(#p27b8a98be1)" d="M 697.381 128.52 
L 723.981 128.52 
L 723.981 103.186667 
L 697.381 103.186667 
L 697.381 128.52 
" style="fill:#232323;"/>
    <path clip-path="url(#p27b8a98be1)" d="M 697.381 103.186667 
L 723.981 103.186667 
L 723.981 77.853333 
L 697.381 77.853333 
L 697.381 103.186667 
" style="fill:#151515;"/>
    <path clip-path="url(#p27b8a98be1)" d="M 697.381 77.853333 
L 723.981 77.853333 
L 723.981 52.52 
L 697.381 52.52 
L 697.381 77.853333 
" style="fill:#070707;"/>
   </g>
   <g id="matplotlib.axis_3"/>
   <g id="matplotlib.axis_4">
    <g id="ytick_10">
     <g id="line2d_17">
      <defs>
       <path d="M 0 0 
L 3.5 0 
" id="ma08b0d0604" style="stroke:#000000;stroke-width:0.8;"/>
      </defs>
      <g>
       <use style="stroke:#000000;stroke-width:0.8;" x="723.981" xlink:href="#ma08b0d0604" y="584.52"/>
      </g>
     </g>
     <g id="text_17">
      <!-- 0.000085624 -->
      <defs>
       <path d="M 9.421875 5.078125 
Q 9.421875 7.8125 11.28125 9.71875 
Q 13.140625 11.625 15.921875 11.625 
Q 18.609375 11.625 20.5 9.71875 
Q 22.40625 7.8125 22.40625 5.078125 
Q 22.40625 2.390625 20.5 0.484375 
Q 18.609375 -1.421875 15.921875 -1.421875 
Q 13.140625 -1.421875 11.28125 0.453125 
Q 9.421875 2.34375 9.421875 5.078125 
z
" id="DejaVuSerif-2e"/>
       <path d="M 46.578125 19.921875 
Q 46.578125 27.734375 42.6875 32.046875 
Q 38.8125 36.375 31.78125 36.375 
Q 24.75 36.375 20.875 32.046875 
Q 17 27.734375 17 19.921875 
Q 17 12.0625 20.875 7.734375 
Q 24.75 3.421875 31.78125 3.421875 
Q 38.8125 3.421875 42.6875 7.734375 
Q 46.578125 12.0625 46.578125 19.921875 
z
M 44.578125 55.328125 
Q 44.578125 61.96875 41.203125 65.671875 
Q 37.84375 69.390625 31.78125 69.390625 
Q 25.78125 69.390625 22.390625 65.671875 
Q 19 61.96875 19 55.328125 
Q 19 48.640625 22.390625 44.921875 
Q 25.78125 41.21875 31.78125 41.21875 
Q 37.84375 41.21875 41.203125 44.921875 
Q 44.578125 48.640625 44.578125 55.328125 
z
M 39.3125 38.8125 
Q 47.609375 37.703125 52.25 32.6875 
Q 56.890625 27.6875 56.890625 19.921875 
Q 56.890625 9.671875 50.390625 4.125 
Q 43.890625 -1.421875 31.78125 -1.421875 
Q 19.734375 -1.421875 13.203125 4.125 
Q 6.6875 9.671875 6.6875 19.921875 
Q 6.6875 27.6875 11.328125 32.6875 
Q 15.96875 37.703125 24.3125 38.8125 
Q 16.9375 40.140625 13 44.40625 
Q 9.078125 48.6875 9.078125 55.328125 
Q 9.078125 64.109375 15.125 69.15625 
Q 21.1875 74.21875 31.78125 74.21875 
Q 42.390625 74.21875 48.4375 69.15625 
Q 54.5 64.109375 54.5 55.328125 
Q 54.5 48.6875 50.5625 44.40625 
Q 46.625 40.140625 39.3125 38.8125 
z
" id="DejaVuSerif-38"/>
      </defs>
      <g transform="translate(730.981 587.156658)scale(0.0694 -0.0694)">
       <use xlink:href="#DejaVuSerif-30"/>
       <use x="63.623047" xlink:href="#DejaVuSerif-2e"/>
       <use x="95.410156" xlink:href="#DejaVuSerif-30"/>
       <use x="159.033203" xlink:href="#DejaVuSerif-30"/>
       <use x="222.65625" xlink:href="#DejaVuSerif-30"/>
       <use x="286.279297" xlink:href="#DejaVuSerif-30"/>
       <use x="349.902344" xlink:href="#DejaVuSerif-38"/>
       <use x="413.525391" xlink:href="#DejaVuSerif-35"/>
       <use x="477.148438" xlink:href="#DejaVuSerif-36"/>
       <use x="540.771484" xlink:href="#DejaVuSerif-32"/>
       <use x="604.394531" xlink:href="#DejaVuSerif-34"/>
      </g>
     </g>
    </g>
    <g id="ytick_11">
     <g id="line2d_18">
      <g>
       <use style="stroke:#000000;stroke-width:0.8;" x="723.981" xlink:href="#ma08b0d0604" y="508.52"/>
      </g>
     </g>
     <g id="text_18">
      <!-- 0.000085642 -->
      <g transform="translate(730.981 511.156658)scale(0.0694 -0.0694)">
       <use xlink:href="#DejaVuSerif-30"/>
       <use x="63.623047" xlink:href="#DejaVuSerif-2e"/>
       <use x="95.410156" xlink:href="#DejaVuSerif-30"/>
       <use x="159.033203" xlink:href="#DejaVuSerif-30"/>
       <use x="222.65625" xlink:href="#DejaVuSerif-30"/>
       <use x="286.279297" xlink:href="#DejaVuSerif-30"/>
       <use x="349.902344" xlink:href="#DejaVuSerif-38"/>
       <use x="413.525391" xlink:href="#DejaVuSerif-35"/>
       <use x="477.148438" xlink:href="#DejaVuSerif-36"/>
       <use x="540.771484" xlink:href="#DejaVuSerif-34"/>
       <use x="604.394531" xlink:href="#DejaVuSerif-32"/>
      </g>
     </g>
    </g>
    <g id="ytick_12">
     <g id="line2d_19">
      <g>
       <use style="stroke:#000000;stroke-width:0.8;" x="723.981" xlink:href="#ma08b0d0604" y="432.52"/>
      </g>
     </g>
     <g id="text_19">
      <!-- 0.000085660 -->
      <g transform="translate(730.981 435.156658)scale(0.0694 -0.0694)">
       <use xlink:href="#DejaVuSerif-30"/>
       <use x="63.623047" xlink:href="#DejaVuSerif-2e"/>
       <use x="95.410156" xlink:href="#DejaVuSerif-30"/>
       <use x="159.033203" xlink:href="#DejaVuSerif-30"/>
       <use x="222.65625" xlink:href="#DejaVuSerif-30"/>
       <use x="286.279297" xlink:href="#DejaVuSerif-30"/>
       <use x="349.902344" xlink:href="#DejaVuSerif-38"/>
       <use x="413.525391" xlink:href="#DejaVuSerif-35"/>
       <use x="477.148438" xlink:href="#DejaVuSerif-36"/>
       <use x="540.771484" xlink:href="#DejaVuSerif-36"/>
       <use x="604.394531" xlink:href="#DejaVuSerif-30"/>
      </g>
     </g>
    </g>
    <g id="ytick_13">
     <g id="line2d_20">
      <g>
       <use style="stroke:#000000;stroke-width:0.8;" x="723.981" xlink:href="#ma08b0d0604" y="356.52"/>
      </g>
     </g>
     <g id="text_20">
      <!-- 0.000085678 -->
      <g transform="translate(730.981 359.156658)scale(0.0694 -0.0694)">
       <use xlink:href="#DejaVuSerif-30"/>
       <use x="63.623047" xlink:href="#DejaVuSerif-2e"/>
       <use x="95.410156" xlink:href="#DejaVuSerif-30"/>
       <use x="159.033203" xlink:href="#DejaVuSerif-30"/>
       <use x="222.65625" xlink:href="#DejaVuSerif-30"/>
       <use x="286.279297" xlink:href="#DejaVuSerif-30"/>
       <use x="349.902344" xlink:href="#DejaVuSerif-38"/>
       <use x="413.525391" xlink:href="#DejaVuSerif-35"/>
       <use x="477.148438" xlink:href="#DejaVuSerif-36"/>
       <use x="540.771484" xlink:href="#DejaVuSerif-37"/>
       <use x="604.394531" xlink:href="#DejaVuSerif-38"/>
      </g>
     </g>
    </g>
    <g id="ytick_14">
     <g id="line2d_21">
      <g>
       <use style="stroke:#000000;stroke-width:0.8;" x="723.981" xlink:href="#ma08b0d0604" y="280.52"/>
      </g>
     </g>
     <g id="text_21">
      <!-- 0.000085696 -->
      <defs>
       <path d="M 46.78125 32.671875 
Q 43.5 29 39.25 27.1875 
Q 35.015625 25.390625 29.6875 25.390625 
Q 18.84375 25.390625 12.5625 31.9375 
Q 6.296875 38.484375 6.296875 49.8125 
Q 6.296875 60.890625 13.109375 67.546875 
Q 19.921875 74.21875 31.296875 74.21875 
Q 43.65625 74.21875 50.265625 65.015625 
Q 56.890625 55.8125 56.890625 38.71875 
Q 56.890625 19.578125 49.015625 9.078125 
Q 41.15625 -1.421875 26.90625 -1.421875 
Q 23.046875 -1.421875 18.796875 -0.6875 
Q 14.546875 0.046875 10.109375 1.515625 
L 10.109375 13.625 
L 15.578125 13.625 
Q 16.21875 8.6875 19.390625 6.046875 
Q 22.5625 3.421875 27.875 3.421875 
Q 37.359375 3.421875 41.984375 10.5625 
Q 46.625 17.71875 46.78125 32.671875 
z
M 30.90625 69.390625 
Q 23.96875 69.390625 20.28125 64.328125 
Q 16.609375 59.28125 16.609375 49.8125 
Q 16.609375 40.328125 20.28125 35.25 
Q 23.96875 30.171875 30.90625 30.171875 
Q 37.84375 30.171875 41.53125 35.078125 
Q 45.21875 39.984375 45.21875 49.21875 
Q 45.21875 58.9375 41.5 64.15625 
Q 37.796875 69.390625 30.90625 69.390625 
z
" id="DejaVuSerif-39"/>
      </defs>
      <g transform="translate(730.981 283.156658)scale(0.0694 -0.0694)">
       <use xlink:href="#DejaVuSerif-30"/>
       <use x="63.623047" xlink:href="#DejaVuSerif-2e"/>
       <use x="95.410156" xlink:href="#DejaVuSerif-30"/>
       <use x="159.033203" xlink:href="#DejaVuSerif-30"/>
       <use x="222.65625" xlink:href="#DejaVuSerif-30"/>
       <use x="286.279297" xlink:href="#DejaVuSerif-30"/>
       <use x="349.902344" xlink:href="#DejaVuSerif-38"/>
       <use x="413.525391" xlink:href="#DejaVuSerif-35"/>
       <use x="477.148438" xlink:href="#DejaVuSerif-36"/>
       <use x="540.771484" xlink:href="#DejaVuSerif-39"/>
       <use x="604.394531" xlink:href="#DejaVuSerif-36"/>
      </g>
     </g>
    </g>
    <g id="ytick_15">
     <g id="line2d_22">
      <g>
       <use style="stroke:#000000;stroke-width:0.8;" x="723.981" xlink:href="#ma08b0d0604" y="204.52"/>
      </g>
     </g>
     <g id="text_22">
      <!-- 0.000085714 -->
      <g transform="translate(730.981 207.156658)scale(0.0694 -0.0694)">
       <use xlink:href="#DejaVuSerif-30"/>
       <use x="63.623047" xlink:href="#DejaVuSerif-2e"/>
       <use x="95.410156" xlink:href="#DejaVuSerif-30"/>
       <use x="159.033203" xlink:href="#DejaVuSerif-30"/>
       <use x="222.65625" xlink:href="#DejaVuSerif-30"/>
       <use x="286.279297" xlink:href="#DejaVuSerif-30"/>
       <use x="349.902344" xlink:href="#DejaVuSerif-38"/>
       <use x="413.525391" xlink:href="#DejaVuSerif-35"/>
       <use x="477.148438" xlink:href="#DejaVuSerif-37"/>
       <use x="540.771484" xlink:href="#DejaVuSerif-31"/>
       <use x="604.394531" xlink:href="#DejaVuSerif-34"/>
      </g>
     </g>
    </g>
    <g id="ytick_16">
     <g id="line2d_23">
      <g>
       <use style="stroke:#000000;stroke-width:0.8;" x="723.981" xlink:href="#ma08b0d0604" y="128.52"/>
      </g>
     </g>
     <g id="text_23">
      <!-- 0.000085732 -->
      <g transform="translate(730.981 131.156658)scale(0.0694 -0.0694)">
       <use xlink:href="#DejaVuSerif-30"/>
       <use x="63.623047" xlink:href="#DejaVuSerif-2e"/>
       <use x="95.410156" xlink:href="#DejaVuSerif-30"/>
       <use x="159.033203" xlink:href="#DejaVuSerif-30"/>
       <use x="222.65625" xlink:href="#DejaVuSerif-30"/>
       <use x="286.279297" xlink:href="#DejaVuSerif-30"/>
       <use x="349.902344" xlink:href="#DejaVuSerif-38"/>
       <use x="413.525391" xlink:href="#DejaVuSerif-35"/>
       <use x="477.148438" xlink:href="#DejaVuSerif-37"/>
       <use x="540.771484" xlink:href="#DejaVuSerif-33"/>
       <use x="604.394531" xlink:href="#DejaVuSerif-32"/>
      </g>
     </g>
    </g>
    <g id="ytick_17">
     <g id="line2d_24">
      <g>
       <use style="stroke:#000000;stroke-width:0.8;" x="723.981" xlink:href="#ma08b0d0604" y="52.52"/>
      </g>
     </g>
     <g id="text_24">
      <!-- 0.000085750 -->
      <g transform="translate(730.981 55.156658)scale(0.0694 -0.0694)">
       <use xlink:href="#DejaVuSerif-30"/>
       <use x="63.623047" xlink:href="#DejaVuSerif-2e"/>
       <use x="95.410156" xlink:href="#DejaVuSerif-30"/>
       <use x="159.033203" xlink:href="#DejaVuSerif-30"/>
       <use x="222.65625" xlink:href="#DejaVuSerif-30"/>
       <use x="286.279297" xlink:href="#DejaVuSerif-30"/>
       <use x="349.902344" xlink:href="#DejaVuSerif-38"/>
       <use x="413.525391" xlink:href="#DejaVuSerif-35"/>
       <use x="477.148438" xlink:href="#DejaVuSerif-37"/>
       <use x="540.771484" xlink:href="#DejaVuSerif-35"/>
       <use x="604.394531" xlink:href="#DejaVuSerif-30"/>
      </g>
     </g>
    </g>
   </g>
   <g id="patch_8">
    <path d="M 697.381 584.52 
L 697.381 559.186667 
L 697.381 77.853333 
L 697.381 52.52 
L 723.981 52.52 
L 723.981 77.853333 
L 723.981 559.186667 
L 723.981 584.52 
z
" style="fill:none;stroke:#000000;stroke-linejoin:miter;stroke-width:0.8;"/>
   </g>
  </g>
 </g>
 <defs>
  <clipPath id="p6e90bd4d6f">
   <rect height="532" width="592.208" x="68.16" y="52.52"/>
  </clipPath>
  <clipPath id="p27b8a98be1">
   <rect height="532" width="26.6" x="697.381" y="52.52"/>
  </clipPath>
 </defs>
</svg>
