<?xml version="1.0" encoding="utf-8" standalone="no"?>
<!DOCTYPE svg PUBLIC "-//W3C//DTD SVG 1.1//EN"
  "http://www.w3.org/Graphics/SVG/1.1/DTD/svg11.dtd">
<!-- Created with matplotlib (http://matplotlib.org/) -->
<svg height="648pt" version="1.1" viewBox="0 0 864 648" width="864pt" xmlns="http://www.w3.org/2000/svg" xmlns:xlink="http://www.w3.org/1999/xlink">
 <defs>
  <style type="text/css">
*{stroke-linecap:butt;stroke-linejoin:round;}
  </style>
 </defs>
 <g id="figure_1">
  <g id="patch_1">
   <path d="M 0 648 
L 864 648 
L 864 0 
L 0 0 
z
" style="fill:#ffffff;"/>
  </g>
  <g id="axes_1">
   <g id="patch_2">
    <path d="M 68.16 584.52 
L 660.368 584.52 
L 660.368 52.52 
L 68.16 52.52 
z
" style="fill:#ffffff;"/>
   </g>
   <g id="PathCollection_1">
    <path clip-path="url(#pcbf2c6b0c7)" d="M 73.63445 531.32 
L 73.63445 478.12 
L 73.63445 424.92 
L 73.63445 371.72 
L 73.63445 318.52 
L 73.63445 265.32 
L 73.63445 212.12 
L 73.63445 158.92 
L 73.63445 105.72 
L 73.63445 52.52 
L 68.16 52.52 
L 68.16 105.72 
L 68.16 158.92 
L 68.16 212.12 
L 68.16 265.32 
L 68.16 318.52 
L 68.16 371.72 
L 68.16 424.92 
L 68.16 478.12 
L 68.16 531.32 
L 68.16 537.221914 
z
" style="fill:#fcfcfc;"/>
    <path clip-path="url(#pcbf2c6b0c7)" d="M 660.368 537.221914 
L 660.368 531.32 
L 660.368 478.12 
L 660.368 472.218086 
L 654.89355 478.12 
L 654.89355 531.32 
z
" style="fill:#fcfcfc;"/>
   </g>
   <g id="PathCollection_2">
    <path clip-path="url(#pcbf2c6b0c7)" d="M 79.77689 531.32 
L 79.77689 478.12 
L 79.77689 424.92 
L 79.77689 371.72 
L 79.77689 318.52 
L 79.77689 265.32 
L 79.77689 212.12 
L 79.77689 158.92 
L 79.77689 105.72 
L 79.77689 52.52 
L 73.63445 52.52 
L 73.63445 105.72 
L 73.63445 158.92 
L 73.63445 212.12 
L 73.63445 265.32 
L 73.63445 318.52 
L 73.63445 371.72 
L 73.63445 424.92 
L 73.63445 478.12 
L 73.63445 531.32 
L 68.16 537.221914 
L 68.16 543.843977 
z
" style="fill:#f5f5f5;"/>
    <path clip-path="url(#pcbf2c6b0c7)" d="M 660.368 543.843977 
L 660.368 537.221914 
L 654.89355 531.32 
L 654.89355 478.12 
L 660.368 472.218086 
L 660.368 465.596023 
L 648.75111 478.12 
L 648.75111 531.32 
z
" style="fill:#f5f5f5;"/>
   </g>
   <g id="PathCollection_3">
    <path clip-path="url(#pcbf2c6b0c7)" d="M 85.91933 531.32 
L 85.91933 478.12 
L 85.91933 424.92 
L 85.91933 371.72 
L 85.91933 318.52 
L 85.91933 265.32 
L 85.91933 212.12 
L 85.91933 158.92 
L 85.91933 105.72 
L 85.91933 52.52 
L 79.77689 52.52 
L 79.77689 105.72 
L 79.77689 158.92 
L 79.77689 212.12 
L 79.77689 265.32 
L 79.77689 318.52 
L 79.77689 371.72 
L 79.77689 424.92 
L 79.77689 478.12 
L 79.77689 531.32 
L 68.16 543.843977 
L 68.16 550.46604 
z
" style="fill:#ececec;"/>
    <path clip-path="url(#pcbf2c6b0c7)" d="M 660.368 550.46604 
L 660.368 543.843977 
L 648.75111 531.32 
L 648.75111 478.12 
L 660.368 465.596023 
L 660.368 458.97396 
L 642.60867 478.12 
L 642.60867 531.32 
z
" style="fill:#ececec;"/>
   </g>
   <g id="PathCollection_4">
    <path clip-path="url(#pcbf2c6b0c7)" d="M 92.06177 531.32 
L 92.06177 478.12 
L 92.06177 424.92 
L 92.06177 371.72 
L 92.06177 318.52 
L 92.06177 265.32 
L 92.06177 212.12 
L 92.06177 158.92 
L 92.06177 105.72 
L 92.06177 52.52 
L 85.91933 52.52 
L 85.91933 105.72 
L 85.91933 158.92 
L 85.91933 212.12 
L 85.91933 265.32 
L 85.91933 318.52 
L 85.91933 371.72 
L 85.91933 424.92 
L 85.91933 478.12 
L 85.91933 531.32 
L 68.16 550.46604 
L 68.16 557.088103 
z
" style="fill:#e1e1e1;"/>
    <path clip-path="url(#pcbf2c6b0c7)" d="M 660.368 557.088103 
L 660.368 550.46604 
L 642.60867 531.32 
L 642.60867 478.12 
L 660.368 458.97396 
L 660.368 452.351897 
L 636.46623 478.12 
L 636.46623 531.32 
z
" style="fill:#e1e1e1;"/>
   </g>
   <g id="PathCollection_5">
    <path clip-path="url(#pcbf2c6b0c7)" d="M 98.20421 531.32 
L 98.20421 478.12 
L 98.20421 424.92 
L 98.20421 371.72 
L 98.20421 318.52 
L 98.20421 265.32 
L 98.20421 212.12 
L 98.20421 158.92 
L 98.20421 105.72 
L 98.20421 52.52 
L 92.06177 52.52 
L 92.06177 105.72 
L 92.06177 158.92 
L 92.06177 212.12 
L 92.06177 265.32 
L 92.06177 318.52 
L 92.06177 371.72 
L 92.06177 424.92 
L 92.06177 478.12 
L 92.06177 531.32 
L 68.16 557.088103 
L 68.16 563.710166 
z
" style="fill:#d6d6d6;"/>
    <path clip-path="url(#pcbf2c6b0c7)" d="M 660.368 563.710166 
L 660.368 557.088103 
L 636.46623 531.32 
L 636.46623 478.12 
L 660.368 452.351897 
L 660.368 445.729834 
L 630.32379 478.12 
L 630.32379 531.32 
z
" style="fill:#d6d6d6;"/>
   </g>
   <g id="PathCollection_6">
    <path clip-path="url(#pcbf2c6b0c7)" d="M 104.34665 531.32 
L 104.34665 478.12 
L 104.34665 424.92 
L 104.34665 371.72 
L 104.34665 318.52 
L 104.34665 265.32 
L 104.34665 212.12 
L 104.34665 158.92 
L 104.34665 105.72 
L 104.34665 52.52 
L 98.20421 52.52 
L 98.20421 105.72 
L 98.20421 158.92 
L 98.20421 212.12 
L 98.20421 265.32 
L 98.20421 318.52 
L 98.20421 371.72 
L 98.20421 424.92 
L 98.20421 478.12 
L 98.20421 531.32 
L 68.16 563.710166 
L 68.16 570.33223 
z
" style="fill:#c9c9c9;"/>
    <path clip-path="url(#pcbf2c6b0c7)" d="M 660.368 570.33223 
L 660.368 563.710166 
L 630.32379 531.32 
L 630.32379 478.12 
L 660.368 445.729834 
L 660.368 439.10777 
L 624.18135 478.12 
L 624.18135 531.32 
z
" style="fill:#c9c9c9;"/>
   </g>
   <g id="PathCollection_7">
    <path clip-path="url(#pcbf2c6b0c7)" d="M 110.48909 531.32 
L 110.48909 478.12 
L 110.48909 424.92 
L 110.48909 371.72 
L 110.48909 318.52 
L 110.48909 265.32 
L 110.48909 212.12 
L 110.48909 158.92 
L 110.48909 105.72 
L 110.48909 52.52 
L 104.34665 52.52 
L 104.34665 105.72 
L 104.34665 158.92 
L 104.34665 212.12 
L 104.34665 265.32 
L 104.34665 318.52 
L 104.34665 371.72 
L 104.34665 424.92 
L 104.34665 478.12 
L 104.34665 531.32 
L 68.16 570.33223 
L 68.16 576.954293 
z
" style="fill:#bbbbbb;"/>
    <path clip-path="url(#pcbf2c6b0c7)" d="M 660.368 576.954293 
L 660.368 570.33223 
L 624.18135 531.32 
L 624.18135 478.12 
L 660.368 439.10777 
L 660.368 432.485707 
L 618.03891 478.12 
L 618.03891 531.32 
z
" style="fill:#bbbbbb;"/>
   </g>
   <g id="PathCollection_8">
    <path clip-path="url(#pcbf2c6b0c7)" d="M 116.63153 531.32 
L 116.63153 478.12 
L 116.63153 424.92 
L 116.63153 371.72 
L 116.63153 318.52 
L 116.63153 265.32 
L 116.63153 212.12 
L 116.63153 158.92 
L 116.63153 105.72 
L 116.63153 52.52 
L 110.48909 52.52 
L 110.48909 105.72 
L 110.48909 158.92 
L 110.48909 212.12 
L 110.48909 265.32 
L 110.48909 318.52 
L 110.48909 371.72 
L 110.48909 424.92 
L 110.48909 478.12 
L 110.48909 531.32 
L 68.16 576.954293 
L 68.16 583.576356 
z
" style="fill:#a9a9a9;"/>
    <path clip-path="url(#pcbf2c6b0c7)" d="M 660.368 583.576356 
L 660.368 576.954293 
L 618.03891 531.32 
L 618.03891 478.12 
L 660.368 432.485707 
L 660.368 425.863644 
L 611.89647 478.12 
L 611.89647 531.32 
z
" style="fill:#a9a9a9;"/>
   </g>
   <g id="PathCollection_9">
    <path clip-path="url(#pcbf2c6b0c7)" d="M 122.77397 531.32 
L 122.77397 478.12 
L 122.77397 424.92 
L 122.77397 371.72 
L 122.77397 318.52 
L 122.77397 265.32 
L 122.77397 212.12 
L 122.77397 158.92 
L 122.77397 105.72 
L 122.77397 52.52 
L 116.63153 52.52 
L 116.63153 105.72 
L 116.63153 158.92 
L 116.63153 212.12 
L 116.63153 265.32 
L 116.63153 318.52 
L 116.63153 371.72 
L 116.63153 424.92 
L 116.63153 478.12 
L 116.63153 531.32 
L 68.16 583.576356 
L 68.16 584.52 
L 78.693465 584.52 
z
" style="fill:#959595;"/>
    <path clip-path="url(#pcbf2c6b0c7)" d="M 265.562667 536.997536 
L 364.264 536.997536 
L 452.431868 584.52 
L 462.965333 584.52 
L 473.498799 584.52 
L 473.498799 531.32 
L 473.498799 478.12 
L 473.498799 424.92 
L 473.498799 371.72 
L 473.498799 318.52 
L 473.498799 265.32 
L 473.498799 212.12 
L 473.498799 158.92 
L 473.498799 105.72 
L 473.498799 52.52 
L 462.965333 52.52 
L 364.264 52.52 
L 265.562667 52.52 
L 255.029201 52.52 
L 255.029201 105.72 
L 255.029201 158.92 
L 255.029201 212.12 
L 255.029201 265.32 
L 255.029201 318.52 
L 255.029201 371.72 
L 255.029201 424.92 
L 255.029201 478.12 
L 255.029201 531.32 
z
M 276.096132 424.92 
L 276.096132 371.72 
L 364.264 324.197536 
L 452.431868 371.72 
L 452.431868 424.92 
L 364.264 472.442464 
z
" style="fill:#959595;"/>
    <path clip-path="url(#pcbf2c6b0c7)" d="M 660.368 584.52 
L 660.368 583.576356 
L 611.89647 531.32 
L 611.89647 478.12 
L 660.368 425.863644 
L 660.368 424.92 
L 660.368 371.72 
L 660.368 318.52 
L 660.368 265.32 
L 660.368 212.12 
L 660.368 158.92 
L 660.368 105.72 
L 660.368 52.52 
L 649.834535 52.52 
L 649.834535 105.72 
L 649.834535 158.92 
L 649.834535 212.12 
L 649.834535 265.32 
L 649.834535 318.52 
L 649.834535 371.72 
L 649.834535 424.92 
L 605.75403 478.12 
L 605.75403 531.32 
L 649.834535 584.52 
z
" style="fill:#959595;"/>
   </g>
   <g id="PathCollection_10">
    <path clip-path="url(#pcbf2c6b0c7)" d="M 128.91641 531.32 
L 128.91641 478.12 
L 128.91641 424.92 
L 128.91641 371.72 
L 128.91641 318.52 
L 128.91641 265.32 
L 128.91641 212.12 
L 128.91641 158.92 
L 128.91641 105.72 
L 128.91641 52.52 
L 122.77397 52.52 
L 122.77397 105.72 
L 122.77397 158.92 
L 122.77397 212.12 
L 122.77397 265.32 
L 122.77397 318.52 
L 122.77397 371.72 
L 122.77397 424.92 
L 122.77397 478.12 
L 122.77397 531.32 
L 78.693465 584.52 
L 90.97739 584.52 
z
" style="fill:#858585;"/>
    <path clip-path="url(#pcbf2c6b0c7)" d="M 265.562667 543.618569 
L 364.264 543.618569 
L 440.147944 584.52 
L 452.431868 584.52 
L 364.264 536.997536 
L 265.562667 536.997536 
L 255.029201 531.32 
L 255.029201 478.12 
L 255.029201 424.92 
L 255.029201 371.72 
L 255.029201 318.52 
L 255.029201 265.32 
L 255.029201 212.12 
L 255.029201 158.92 
L 255.029201 105.72 
L 255.029201 52.52 
L 242.745277 52.52 
L 242.745277 105.72 
L 242.745277 158.92 
L 242.745277 212.12 
L 242.745277 265.32 
L 242.745277 318.52 
L 242.745277 371.72 
L 242.745277 424.92 
L 242.745277 478.12 
L 242.745277 531.32 
z
" style="fill:#858585;"/>
    <path clip-path="url(#pcbf2c6b0c7)" d="M 485.782723 531.32 
L 485.782723 478.12 
L 485.782723 424.92 
L 485.782723 371.72 
L 485.782723 318.52 
L 485.782723 265.32 
L 485.782723 212.12 
L 485.782723 158.92 
L 485.782723 105.72 
L 485.782723 52.52 
L 473.498799 52.52 
L 473.498799 105.72 
L 473.498799 158.92 
L 473.498799 212.12 
L 473.498799 265.32 
L 473.498799 318.52 
L 473.498799 371.72 
L 473.498799 424.92 
L 473.498799 478.12 
L 473.498799 531.32 
L 473.498799 584.52 
L 485.782723 584.52 
z
" style="fill:#858585;"/>
    <path clip-path="url(#pcbf2c6b0c7)" d="M 605.75403 531.32 
L 605.75403 478.12 
L 649.834535 424.92 
L 649.834535 371.72 
L 649.834535 318.52 
L 649.834535 265.32 
L 649.834535 212.12 
L 649.834535 158.92 
L 649.834535 105.72 
L 649.834535 52.52 
L 637.55061 52.52 
L 637.55061 105.72 
L 637.55061 158.92 
L 637.55061 212.12 
L 637.55061 265.32 
L 637.55061 318.52 
L 637.55061 371.72 
L 637.55061 424.92 
L 599.61159 478.12 
L 599.61159 531.32 
L 637.55061 584.52 
L 649.834535 584.52 
z
" style="fill:#858585;"/>
    <path clip-path="url(#pcbf2c6b0c7)" d="M 364.264 472.442464 
L 452.431868 424.92 
L 452.431868 371.72 
L 364.264 324.197536 
L 276.096132 371.72 
L 276.096132 424.92 
z
M 288.380056 424.92 
L 288.380056 371.72 
L 364.264 330.818569 
L 440.147944 371.72 
L 440.147944 424.92 
L 364.264 465.821431 
z
" style="fill:#858585;"/>
   </g>
   <g id="PathCollection_11">
    <path clip-path="url(#pcbf2c6b0c7)" d="M 135.05885 531.32 
L 135.05885 478.12 
L 135.05885 424.92 
L 135.05885 371.72 
L 135.05885 318.52 
L 135.05885 265.32 
L 135.05885 212.12 
L 135.05885 158.92 
L 135.05885 105.72 
L 135.05885 52.52 
L 128.91641 52.52 
L 128.91641 105.72 
L 128.91641 158.92 
L 128.91641 212.12 
L 128.91641 265.32 
L 128.91641 318.52 
L 128.91641 371.72 
L 128.91641 424.92 
L 128.91641 478.12 
L 128.91641 531.32 
L 90.97739 584.52 
L 103.261314 584.52 
z
" style="fill:#757575;"/>
    <path clip-path="url(#pcbf2c6b0c7)" d="M 265.562667 550.239602 
L 364.264 550.239602 
L 427.864019 584.52 
L 440.147944 584.52 
L 364.264 543.618569 
L 265.562667 543.618569 
L 242.745277 531.32 
L 242.745277 478.12 
L 242.745277 424.92 
L 242.745277 371.72 
L 242.745277 318.52 
L 242.745277 265.32 
L 242.745277 212.12 
L 242.745277 158.92 
L 242.745277 105.72 
L 242.745277 52.52 
L 230.461352 52.52 
L 230.461352 105.72 
L 230.461352 158.92 
L 230.461352 212.12 
L 230.461352 265.32 
L 230.461352 318.52 
L 230.461352 371.72 
L 230.461352 424.92 
L 230.461352 478.12 
L 230.461352 531.32 
z
" style="fill:#757575;"/>
    <path clip-path="url(#pcbf2c6b0c7)" d="M 498.066648 531.32 
L 498.066648 478.12 
L 498.066648 424.92 
L 498.066648 371.72 
L 498.066648 318.52 
L 498.066648 265.32 
L 498.066648 212.12 
L 498.066648 158.92 
L 498.066648 105.72 
L 498.066648 52.52 
L 485.782723 52.52 
L 485.782723 105.72 
L 485.782723 158.92 
L 485.782723 212.12 
L 485.782723 265.32 
L 485.782723 318.52 
L 485.782723 371.72 
L 485.782723 424.92 
L 485.782723 478.12 
L 485.782723 531.32 
L 485.782723 584.52 
L 498.066648 584.52 
z
" style="fill:#757575;"/>
    <path clip-path="url(#pcbf2c6b0c7)" d="M 599.61159 531.32 
L 599.61159 478.12 
L 637.55061 424.92 
L 637.55061 371.72 
L 637.55061 318.52 
L 637.55061 265.32 
L 637.55061 212.12 
L 637.55061 158.92 
L 637.55061 105.72 
L 637.55061 52.52 
L 625.266686 52.52 
L 625.266686 105.72 
L 625.266686 158.92 
L 625.266686 212.12 
L 625.266686 265.32 
L 625.266686 318.52 
L 625.266686 371.72 
L 625.266686 424.92 
L 593.46915 478.12 
L 593.46915 531.32 
L 625.266686 584.52 
L 637.55061 584.52 
z
" style="fill:#757575;"/>
    <path clip-path="url(#pcbf2c6b0c7)" d="M 364.264 465.821431 
L 440.147944 424.92 
L 440.147944 371.72 
L 364.264 330.818569 
L 288.380056 371.72 
L 288.380056 424.92 
z
M 300.663981 424.92 
L 300.663981 371.72 
L 364.264 337.439602 
L 427.864019 371.72 
L 427.864019 424.92 
L 364.264 459.200398 
z
" style="fill:#757575;"/>
   </g>
   <g id="PathCollection_12">
    <path clip-path="url(#pcbf2c6b0c7)" d="M 141.20129 531.32 
L 141.20129 478.12 
L 141.20129 424.92 
L 141.20129 371.72 
L 141.20129 318.52 
L 141.20129 265.32 
L 141.20129 212.12 
L 141.20129 158.92 
L 141.20129 105.72 
L 141.20129 52.52 
L 135.05885 52.52 
L 135.05885 105.72 
L 135.05885 158.92 
L 135.05885 212.12 
L 135.05885 265.32 
L 135.05885 318.52 
L 135.05885 371.72 
L 135.05885 424.92 
L 135.05885 478.12 
L 135.05885 531.32 
L 103.261314 584.52 
L 115.545239 584.52 
z
" style="fill:#656565;"/>
    <path clip-path="url(#pcbf2c6b0c7)" d="M 265.562667 556.860635 
L 364.264 556.860635 
L 415.580095 584.52 
L 427.864019 584.52 
L 364.264 550.239602 
L 265.562667 550.239602 
L 230.461352 531.32 
L 230.461352 478.12 
L 230.461352 424.92 
L 230.461352 371.72 
L 230.461352 318.52 
L 230.461352 265.32 
L 230.461352 212.12 
L 230.461352 158.92 
L 230.461352 105.72 
L 230.461352 52.52 
L 218.177428 52.52 
L 218.177428 105.72 
L 218.177428 158.92 
L 218.177428 212.12 
L 218.177428 265.32 
L 218.177428 318.52 
L 218.177428 371.72 
L 218.177428 424.92 
L 218.177428 478.12 
L 218.177428 531.32 
z
" style="fill:#656565;"/>
    <path clip-path="url(#pcbf2c6b0c7)" d="M 510.350572 531.32 
L 510.350572 478.12 
L 510.350572 424.92 
L 510.350572 371.72 
L 510.350572 318.52 
L 510.350572 265.32 
L 510.350572 212.12 
L 510.350572 158.92 
L 510.350572 105.72 
L 510.350572 52.52 
L 498.066648 52.52 
L 498.066648 105.72 
L 498.066648 158.92 
L 498.066648 212.12 
L 498.066648 265.32 
L 498.066648 318.52 
L 498.066648 371.72 
L 498.066648 424.92 
L 498.066648 478.12 
L 498.066648 531.32 
L 498.066648 584.52 
L 510.350572 584.52 
z
" style="fill:#656565;"/>
    <path clip-path="url(#pcbf2c6b0c7)" d="M 593.46915 531.32 
L 593.46915 478.12 
L 625.266686 424.92 
L 625.266686 371.72 
L 625.266686 318.52 
L 625.266686 265.32 
L 625.266686 212.12 
L 625.266686 158.92 
L 625.266686 105.72 
L 625.266686 52.52 
L 612.982761 52.52 
L 612.982761 105.72 
L 612.982761 158.92 
L 612.982761 212.12 
L 612.982761 265.32 
L 612.982761 318.52 
L 612.982761 371.72 
L 612.982761 424.92 
L 587.32671 478.12 
L 587.32671 531.32 
L 612.982761 584.52 
L 625.266686 584.52 
z
" style="fill:#656565;"/>
    <path clip-path="url(#pcbf2c6b0c7)" d="M 364.264 459.200398 
L 427.864019 424.92 
L 427.864019 371.72 
L 364.264 337.439602 
L 300.663981 371.72 
L 300.663981 424.92 
z
M 312.947905 424.92 
L 312.947905 371.72 
L 364.264 344.060635 
L 415.580095 371.72 
L 415.580095 424.92 
L 364.264 452.579365 
z
" style="fill:#656565;"/>
   </g>
   <g id="PathCollection_13">
    <path clip-path="url(#pcbf2c6b0c7)" d="M 147.34373 531.32 
L 147.34373 478.12 
L 147.34373 424.92 
L 147.34373 371.72 
L 147.34373 318.52 
L 147.34373 265.32 
L 147.34373 212.12 
L 147.34373 158.92 
L 147.34373 105.72 
L 147.34373 52.52 
L 141.20129 52.52 
L 141.20129 105.72 
L 141.20129 158.92 
L 141.20129 212.12 
L 141.20129 265.32 
L 141.20129 318.52 
L 141.20129 371.72 
L 141.20129 424.92 
L 141.20129 478.12 
L 141.20129 531.32 
L 115.545239 584.52 
L 127.829163 584.52 
z
" style="fill:#555555;"/>
    <path clip-path="url(#pcbf2c6b0c7)" d="M 265.562667 563.481668 
L 364.264 563.481668 
L 403.29617 584.52 
L 415.580095 584.52 
L 364.264 556.860635 
L 265.562667 556.860635 
L 218.177428 531.32 
L 218.177428 478.12 
L 218.177428 424.92 
L 218.177428 371.72 
L 218.177428 318.52 
L 218.177428 265.32 
L 218.177428 212.12 
L 218.177428 158.92 
L 218.177428 105.72 
L 218.177428 52.52 
L 205.893503 52.52 
L 205.893503 105.72 
L 205.893503 158.92 
L 205.893503 212.12 
L 205.893503 265.32 
L 205.893503 318.52 
L 205.893503 371.72 
L 205.893503 424.92 
L 205.893503 478.12 
L 205.893503 531.32 
z
" style="fill:#555555;"/>
    <path clip-path="url(#pcbf2c6b0c7)" d="M 522.634497 531.32 
L 522.634497 478.12 
L 522.634497 424.92 
L 522.634497 371.72 
L 522.634497 318.52 
L 522.634497 265.32 
L 522.634497 212.12 
L 522.634497 158.92 
L 522.634497 105.72 
L 522.634497 52.52 
L 510.350572 52.52 
L 510.350572 105.72 
L 510.350572 158.92 
L 510.350572 212.12 
L 510.350572 265.32 
L 510.350572 318.52 
L 510.350572 371.72 
L 510.350572 424.92 
L 510.350572 478.12 
L 510.350572 531.32 
L 510.350572 584.52 
L 522.634497 584.52 
z
" style="fill:#555555;"/>
    <path clip-path="url(#pcbf2c6b0c7)" d="M 587.32671 531.32 
L 587.32671 478.12 
L 612.982761 424.92 
L 612.982761 371.72 
L 612.982761 318.52 
L 612.982761 265.32 
L 612.982761 212.12 
L 612.982761 158.92 
L 612.982761 105.72 
L 612.982761 52.52 
L 600.698837 52.52 
L 600.698837 105.72 
L 600.698837 158.92 
L 600.698837 212.12 
L 600.698837 265.32 
L 600.698837 318.52 
L 600.698837 371.72 
L 600.698837 424.92 
L 581.18427 478.12 
L 581.18427 531.32 
L 600.698837 584.52 
L 612.982761 584.52 
z
" style="fill:#555555;"/>
    <path clip-path="url(#pcbf2c6b0c7)" d="M 364.264 452.579365 
L 415.580095 424.92 
L 415.580095 371.72 
L 364.264 344.060635 
L 312.947905 371.72 
L 312.947905 424.92 
z
M 325.23183 424.92 
L 325.23183 371.72 
L 364.264 350.681668 
L 403.29617 371.72 
L 403.29617 424.92 
L 364.264 445.958332 
z
" style="fill:#555555;"/>
   </g>
   <g id="PathCollection_14">
    <path clip-path="url(#pcbf2c6b0c7)" d="M 153.48617 531.32 
L 153.48617 478.12 
L 153.48617 424.92 
L 153.48617 371.72 
L 153.48617 318.52 
L 153.48617 265.32 
L 153.48617 212.12 
L 153.48617 158.92 
L 153.48617 105.72 
L 153.48617 52.52 
L 147.34373 52.52 
L 147.34373 105.72 
L 147.34373 158.92 
L 147.34373 212.12 
L 147.34373 265.32 
L 147.34373 318.52 
L 147.34373 371.72 
L 147.34373 424.92 
L 147.34373 478.12 
L 147.34373 531.32 
L 127.829163 584.52 
L 140.113088 584.52 
z
" style="fill:#414141;"/>
    <path clip-path="url(#pcbf2c6b0c7)" d="M 265.562667 570.102701 
L 364.264 570.102701 
L 391.012246 584.52 
L 403.29617 584.52 
L 364.264 563.481668 
L 265.562667 563.481668 
L 205.893503 531.32 
L 205.893503 478.12 
L 205.893503 424.92 
L 205.893503 371.72 
L 205.893503 318.52 
L 205.893503 265.32 
L 205.893503 212.12 
L 205.893503 158.92 
L 205.893503 105.72 
L 205.893503 52.52 
L 193.609579 52.52 
L 193.609579 105.72 
L 193.609579 158.92 
L 193.609579 212.12 
L 193.609579 265.32 
L 193.609579 318.52 
L 193.609579 371.72 
L 193.609579 424.92 
L 193.609579 478.12 
L 193.609579 531.32 
z
" style="fill:#414141;"/>
    <path clip-path="url(#pcbf2c6b0c7)" d="M 534.918421 531.32 
L 534.918421 478.12 
L 534.918421 424.92 
L 534.918421 371.72 
L 534.918421 318.52 
L 534.918421 265.32 
L 534.918421 212.12 
L 534.918421 158.92 
L 534.918421 105.72 
L 534.918421 52.52 
L 522.634497 52.52 
L 522.634497 105.72 
L 522.634497 158.92 
L 522.634497 212.12 
L 522.634497 265.32 
L 522.634497 318.52 
L 522.634497 371.72 
L 522.634497 424.92 
L 522.634497 478.12 
L 522.634497 531.32 
L 522.634497 584.52 
L 534.918421 584.52 
z
" style="fill:#414141;"/>
    <path clip-path="url(#pcbf2c6b0c7)" d="M 581.18427 531.32 
L 581.18427 478.12 
L 600.698837 424.92 
L 600.698837 371.72 
L 600.698837 318.52 
L 600.698837 265.32 
L 600.698837 212.12 
L 600.698837 158.92 
L 600.698837 105.72 
L 600.698837 52.52 
L 588.414912 52.52 
L 588.414912 105.72 
L 588.414912 158.92 
L 588.414912 212.12 
L 588.414912 265.32 
L 588.414912 318.52 
L 588.414912 371.72 
L 588.414912 424.92 
L 575.04183 478.12 
L 575.04183 531.32 
L 588.414912 584.52 
L 600.698837 584.52 
z
" style="fill:#414141;"/>
    <path clip-path="url(#pcbf2c6b0c7)" d="M 364.264 445.958332 
L 403.29617 424.92 
L 403.29617 371.72 
L 364.264 350.681668 
L 325.23183 371.72 
L 325.23183 424.92 
z
M 337.515754 424.92 
L 337.515754 371.72 
L 364.264 357.302701 
L 391.012246 371.72 
L 391.012246 424.92 
L 364.264 439.337299 
z
" style="fill:#414141;"/>
   </g>
   <g id="PathCollection_15">
    <path clip-path="url(#pcbf2c6b0c7)" d="M 159.62861 531.32 
L 159.62861 478.12 
L 159.62861 424.92 
L 159.62861 371.72 
L 159.62861 318.52 
L 159.62861 265.32 
L 159.62861 212.12 
L 159.62861 158.92 
L 159.62861 105.72 
L 159.62861 52.52 
L 153.48617 52.52 
L 153.48617 105.72 
L 153.48617 158.92 
L 153.48617 212.12 
L 153.48617 265.32 
L 153.48617 318.52 
L 153.48617 371.72 
L 153.48617 424.92 
L 153.48617 478.12 
L 153.48617 531.32 
L 140.113088 584.52 
L 152.397012 584.52 
z
" style="fill:#2c2c2c;"/>
    <path clip-path="url(#pcbf2c6b0c7)" d="M 265.562667 576.723734 
L 364.264 576.723734 
L 378.728321 584.52 
L 391.012246 584.52 
L 364.264 570.102701 
L 265.562667 570.102701 
L 193.609579 531.32 
L 193.609579 478.12 
L 193.609579 424.92 
L 193.609579 371.72 
L 193.609579 318.52 
L 193.609579 265.32 
L 193.609579 212.12 
L 193.609579 158.92 
L 193.609579 105.72 
L 193.609579 52.52 
L 181.325654 52.52 
L 181.325654 105.72 
L 181.325654 158.92 
L 181.325654 212.12 
L 181.325654 265.32 
L 181.325654 318.52 
L 181.325654 371.72 
L 181.325654 424.92 
L 181.325654 478.12 
L 181.325654 531.32 
z
" style="fill:#2c2c2c;"/>
    <path clip-path="url(#pcbf2c6b0c7)" d="M 547.202346 531.32 
L 547.202346 478.12 
L 547.202346 424.92 
L 547.202346 371.72 
L 547.202346 318.52 
L 547.202346 265.32 
L 547.202346 212.12 
L 547.202346 158.92 
L 547.202346 105.72 
L 547.202346 52.52 
L 534.918421 52.52 
L 534.918421 105.72 
L 534.918421 158.92 
L 534.918421 212.12 
L 534.918421 265.32 
L 534.918421 318.52 
L 534.918421 371.72 
L 534.918421 424.92 
L 534.918421 478.12 
L 534.918421 531.32 
L 534.918421 584.52 
L 547.202346 584.52 
z
" style="fill:#2c2c2c;"/>
    <path clip-path="url(#pcbf2c6b0c7)" d="M 575.04183 531.32 
L 575.04183 478.12 
L 588.414912 424.92 
L 588.414912 371.72 
L 588.414912 318.52 
L 588.414912 265.32 
L 588.414912 212.12 
L 588.414912 158.92 
L 588.414912 105.72 
L 588.414912 52.52 
L 576.130988 52.52 
L 576.130988 105.72 
L 576.130988 158.92 
L 576.130988 212.12 
L 576.130988 265.32 
L 576.130988 318.52 
L 576.130988 371.72 
L 576.130988 424.92 
L 568.89939 478.12 
L 568.89939 531.32 
L 576.130988 584.52 
L 588.414912 584.52 
z
" style="fill:#2c2c2c;"/>
    <path clip-path="url(#pcbf2c6b0c7)" d="M 364.264 439.337299 
L 391.012246 424.92 
L 391.012246 371.72 
L 364.264 357.302701 
L 337.515754 371.72 
L 337.515754 424.92 
z
M 349.799679 424.92 
L 349.799679 371.72 
L 364.264 363.923734 
L 378.728321 371.72 
L 378.728321 424.92 
L 364.264 432.716266 
z
" style="fill:#2c2c2c;"/>
   </g>
   <g id="PathCollection_16">
    <path clip-path="url(#pcbf2c6b0c7)" d="M 165.77105 531.32 
L 165.77105 478.12 
L 165.77105 424.92 
L 165.77105 371.72 
L 165.77105 318.52 
L 165.77105 265.32 
L 165.77105 212.12 
L 165.77105 158.92 
L 165.77105 105.72 
L 165.77105 52.52 
L 159.62861 52.52 
L 159.62861 105.72 
L 159.62861 158.92 
L 159.62861 212.12 
L 159.62861 265.32 
L 159.62861 318.52 
L 159.62861 371.72 
L 159.62861 424.92 
L 159.62861 478.12 
L 159.62861 531.32 
L 152.397012 584.52 
L 164.680937 584.52 
z
" style="fill:#1a1a1a;"/>
    <path clip-path="url(#pcbf2c6b0c7)" d="M 265.562667 583.344767 
L 364.264 583.344767 
L 366.444397 584.52 
L 378.728321 584.52 
L 364.264 576.723734 
L 265.562667 576.723734 
L 181.325654 531.32 
L 181.325654 478.12 
L 181.325654 424.92 
L 181.325654 371.72 
L 181.325654 318.52 
L 181.325654 265.32 
L 181.325654 212.12 
L 181.325654 158.92 
L 181.325654 105.72 
L 181.325654 52.52 
L 169.04173 52.52 
L 169.04173 105.72 
L 169.04173 158.92 
L 169.04173 212.12 
L 169.04173 265.32 
L 169.04173 318.52 
L 169.04173 371.72 
L 169.04173 424.92 
L 169.04173 478.12 
L 169.04173 531.32 
z
" style="fill:#1a1a1a;"/>
    <path clip-path="url(#pcbf2c6b0c7)" d="M 559.48627 531.32 
L 559.48627 478.12 
L 559.48627 424.92 
L 559.48627 371.72 
L 559.48627 318.52 
L 559.48627 265.32 
L 559.48627 212.12 
L 559.48627 158.92 
L 559.48627 105.72 
L 559.48627 52.52 
L 547.202346 52.52 
L 547.202346 105.72 
L 547.202346 158.92 
L 547.202346 212.12 
L 547.202346 265.32 
L 547.202346 318.52 
L 547.202346 371.72 
L 547.202346 424.92 
L 547.202346 478.12 
L 547.202346 531.32 
L 547.202346 584.52 
L 559.48627 584.52 
z
" style="fill:#1a1a1a;"/>
    <path clip-path="url(#pcbf2c6b0c7)" d="M 568.89939 531.32 
L 568.89939 478.12 
L 576.130988 424.92 
L 576.130988 371.72 
L 576.130988 318.52 
L 576.130988 265.32 
L 576.130988 212.12 
L 576.130988 158.92 
L 576.130988 105.72 
L 576.130988 52.52 
L 563.847063 52.52 
L 563.847063 105.72 
L 563.847063 158.92 
L 563.847063 212.12 
L 563.847063 265.32 
L 563.847063 318.52 
L 563.847063 371.72 
L 563.847063 424.92 
L 562.75695 478.12 
L 562.75695 531.32 
L 563.847063 584.52 
L 576.130988 584.52 
z
" style="fill:#1a1a1a;"/>
    <path clip-path="url(#pcbf2c6b0c7)" d="M 364.264 432.716266 
L 378.728321 424.92 
L 378.728321 371.72 
L 364.264 363.923734 
L 349.799679 371.72 
L 349.799679 424.92 
z
M 362.083603 424.92 
L 362.083603 371.72 
L 364.264 370.544767 
L 366.444397 371.72 
L 366.444397 424.92 
L 364.264 426.095233 
z
" style="fill:#1a1a1a;"/>
   </g>
   <g id="PathCollection_17">
    <path clip-path="url(#pcbf2c6b0c7)" d="M 166.861333 584.52 
L 265.562667 584.52 
L 364.264 584.52 
L 366.444397 584.52 
L 364.264 583.344767 
L 265.562667 583.344767 
L 169.04173 531.32 
L 169.04173 478.12 
L 169.04173 424.92 
L 169.04173 371.72 
L 169.04173 318.52 
L 169.04173 265.32 
L 169.04173 212.12 
L 169.04173 158.92 
L 169.04173 105.72 
L 169.04173 52.52 
L 166.861333 52.52 
L 165.77105 52.52 
L 165.77105 105.72 
L 165.77105 158.92 
L 165.77105 212.12 
L 165.77105 265.32 
L 165.77105 318.52 
L 165.77105 371.72 
L 165.77105 424.92 
L 165.77105 478.12 
L 165.77105 531.32 
L 164.680937 584.52 
z
" style="fill:#080808;"/>
    <path clip-path="url(#pcbf2c6b0c7)" d="M 561.666667 584.52 
L 563.847063 584.52 
L 562.75695 531.32 
L 562.75695 478.12 
L 563.847063 424.92 
L 563.847063 371.72 
L 563.847063 318.52 
L 563.847063 265.32 
L 563.847063 212.12 
L 563.847063 158.92 
L 563.847063 105.72 
L 563.847063 52.52 
L 561.666667 52.52 
L 559.48627 52.52 
L 559.48627 105.72 
L 559.48627 158.92 
L 559.48627 212.12 
L 559.48627 265.32 
L 559.48627 318.52 
L 559.48627 371.72 
L 559.48627 424.92 
L 559.48627 478.12 
L 559.48627 531.32 
L 559.48627 584.52 
z
" style="fill:#080808;"/>
    <path clip-path="url(#pcbf2c6b0c7)" d="M 364.264 426.095233 
L 366.444397 424.92 
L 366.444397 371.72 
L 364.264 370.544767 
L 362.083603 371.72 
L 362.083603 424.92 
z
" style="fill:#080808;"/>
   </g>
   <g id="matplotlib.axis_1">
    <g id="xtick_1">
     <g id="line2d_1">
      <defs>
       <path d="M 0 0 
L 0 3.5 
" id="mf30a39e321" style="stroke:#000000;stroke-width:0.8;"/>
      </defs>
      <g>
       <use style="stroke:#000000;stroke-width:0.8;" x="76.531783" xlink:href="#mf30a39e321" y="584.52"/>
      </g>
     </g>
     <g id="text_1">
      <!-- 550 -->
      <defs>
       <path d="M 50.296875 72.90625 
L 50.296875 64.890625 
L 16.890625 64.890625 
L 16.890625 44 
Q 19.4375 45.75 22.828125 46.625 
Q 26.21875 47.515625 30.421875 47.515625 
Q 42.234375 47.515625 49.0625 40.96875 
Q 55.90625 34.421875 55.90625 23.09375 
Q 55.90625 11.53125 49 5.046875 
Q 42.09375 -1.421875 29.59375 -1.421875 
Q 24.5625 -1.421875 19.28125 -0.1875 
Q 14.015625 1.03125 8.5 3.515625 
L 8.5 17.671875 
L 14.015625 17.671875 
Q 14.453125 10.75 18.421875 7.078125 
Q 22.40625 3.421875 29.59375 3.421875 
Q 37.3125 3.421875 41.453125 8.5 
Q 45.609375 13.578125 45.609375 23.09375 
Q 45.609375 32.5625 41.484375 37.609375 
Q 37.359375 42.671875 29.59375 42.671875 
Q 25.203125 42.671875 21.84375 41.109375 
Q 18.5 39.546875 15.921875 36.28125 
L 11.71875 36.28125 
L 11.71875 72.90625 
z
" id="DejaVuSerif-35"/>
       <path d="M 31.78125 3.421875 
Q 39.265625 3.421875 42.96875 11.625 
Q 46.6875 19.828125 46.6875 36.375 
Q 46.6875 52.984375 42.96875 61.1875 
Q 39.265625 69.390625 31.78125 69.390625 
Q 24.3125 69.390625 20.59375 61.1875 
Q 16.890625 52.984375 16.890625 36.375 
Q 16.890625 19.828125 20.59375 11.625 
Q 24.3125 3.421875 31.78125 3.421875 
z
M 31.78125 -1.421875 
Q 19.921875 -1.421875 13.25 8.53125 
Q 6.59375 18.5 6.59375 36.375 
Q 6.59375 54.296875 13.25 64.25 
Q 19.921875 74.21875 31.78125 74.21875 
Q 43.703125 74.21875 50.34375 64.25 
Q 56.984375 54.296875 56.984375 36.375 
Q 56.984375 18.5 50.34375 8.53125 
Q 43.703125 -1.421875 31.78125 -1.421875 
z
" id="DejaVuSerif-30"/>
      </defs>
      <g transform="translate(69.908421 596.793316)scale(0.0694 -0.0694)">
       <use xlink:href="#DejaVuSerif-35"/>
       <use x="63.623047" xlink:href="#DejaVuSerif-35"/>
       <use x="127.246094" xlink:href="#DejaVuSerif-30"/>
      </g>
     </g>
    </g>
    <g id="xtick_2">
     <g id="line2d_2">
      <g>
       <use style="stroke:#000000;stroke-width:0.8;" x="149.075642" xlink:href="#mf30a39e321" y="584.52"/>
      </g>
     </g>
     <g id="text_2">
      <!-- 600 -->
      <defs>
       <path d="M 32.71875 3.421875 
Q 39.59375 3.421875 43.296875 8.46875 
Q 47.015625 13.53125 47.015625 23 
Q 47.015625 32.46875 43.296875 37.515625 
Q 39.59375 42.578125 32.71875 42.578125 
Q 25.734375 42.578125 22.0625 37.6875 
Q 18.40625 32.8125 18.40625 23.578125 
Q 18.40625 13.875 22.109375 8.640625 
Q 25.828125 3.421875 32.71875 3.421875 
z
M 16.796875 40.140625 
Q 20.125 43.796875 24.3125 45.59375 
Q 28.515625 47.40625 33.796875 47.40625 
Q 44.671875 47.40625 51 40.859375 
Q 57.328125 34.328125 57.328125 23 
Q 57.328125 11.921875 50.515625 5.25 
Q 43.703125 -1.421875 32.328125 -1.421875 
Q 19.96875 -1.421875 13.328125 7.78125 
Q 6.6875 17 6.6875 34.078125 
Q 6.6875 53.21875 14.546875 63.71875 
Q 22.40625 74.21875 36.71875 74.21875 
Q 40.578125 74.21875 44.828125 73.484375 
Q 49.078125 72.75 53.515625 71.296875 
L 53.515625 59.28125 
L 48 59.28125 
Q 47.40625 64.203125 44.234375 66.796875 
Q 41.0625 69.390625 35.6875 69.390625 
Q 26.21875 69.390625 21.578125 62.203125 
Q 16.9375 55.03125 16.796875 40.140625 
z
" id="DejaVuSerif-36"/>
      </defs>
      <g transform="translate(142.45228 596.793316)scale(0.0694 -0.0694)">
       <use xlink:href="#DejaVuSerif-36"/>
       <use x="63.623047" xlink:href="#DejaVuSerif-30"/>
       <use x="127.246094" xlink:href="#DejaVuSerif-30"/>
      </g>
     </g>
    </g>
    <g id="xtick_3">
     <g id="line2d_3">
      <g>
       <use style="stroke:#000000;stroke-width:0.8;" x="221.619502" xlink:href="#mf30a39e321" y="584.52"/>
      </g>
     </g>
     <g id="text_3">
      <!-- 650 -->
      <g transform="translate(214.996139 596.793316)scale(0.0694 -0.0694)">
       <use xlink:href="#DejaVuSerif-36"/>
       <use x="63.623047" xlink:href="#DejaVuSerif-35"/>
       <use x="127.246094" xlink:href="#DejaVuSerif-30"/>
      </g>
     </g>
    </g>
    <g id="xtick_4">
     <g id="line2d_4">
      <g>
       <use style="stroke:#000000;stroke-width:0.8;" x="294.163361" xlink:href="#mf30a39e321" y="584.52"/>
      </g>
     </g>
     <g id="text_4">
      <!-- 700 -->
      <defs>
       <path d="M 56.390625 67.921875 
L 27.875 0 
L 20.609375 0 
L 47.796875 64.890625 
L 14.109375 64.890625 
L 14.109375 55.90625 
L 8.40625 55.90625 
L 8.40625 72.90625 
L 56.390625 72.90625 
z
" id="DejaVuSerif-37"/>
      </defs>
      <g transform="translate(287.539998 596.793316)scale(0.0694 -0.0694)">
       <use xlink:href="#DejaVuSerif-37"/>
       <use x="63.623047" xlink:href="#DejaVuSerif-30"/>
       <use x="127.246094" xlink:href="#DejaVuSerif-30"/>
      </g>
     </g>
    </g>
    <g id="xtick_5">
     <g id="line2d_5">
      <g>
       <use style="stroke:#000000;stroke-width:0.8;" x="366.70722" xlink:href="#mf30a39e321" y="584.52"/>
      </g>
     </g>
     <g id="text_5">
      <!-- 750 -->
      <g transform="translate(360.083857 596.793316)scale(0.0694 -0.0694)">
       <use xlink:href="#DejaVuSerif-37"/>
       <use x="63.623047" xlink:href="#DejaVuSerif-35"/>
       <use x="127.246094" xlink:href="#DejaVuSerif-30"/>
      </g>
     </g>
    </g>
    <g id="xtick_6">
     <g id="line2d_6">
      <g>
       <use style="stroke:#000000;stroke-width:0.8;" x="439.251079" xlink:href="#mf30a39e321" y="584.52"/>
      </g>
     </g>
     <g id="text_6">
      <!-- 800 -->
      <defs>
       <path d="M 46.578125 19.921875 
Q 46.578125 27.734375 42.6875 32.046875 
Q 38.8125 36.375 31.78125 36.375 
Q 24.75 36.375 20.875 32.046875 
Q 17 27.734375 17 19.921875 
Q 17 12.0625 20.875 7.734375 
Q 24.75 3.421875 31.78125 3.421875 
Q 38.8125 3.421875 42.6875 7.734375 
Q 46.578125 12.0625 46.578125 19.921875 
z
M 44.578125 55.328125 
Q 44.578125 61.96875 41.203125 65.671875 
Q 37.84375 69.390625 31.78125 69.390625 
Q 25.78125 69.390625 22.390625 65.671875 
Q 19 61.96875 19 55.328125 
Q 19 48.640625 22.390625 44.921875 
Q 25.78125 41.21875 31.78125 41.21875 
Q 37.84375 41.21875 41.203125 44.921875 
Q 44.578125 48.640625 44.578125 55.328125 
z
M 39.3125 38.8125 
Q 47.609375 37.703125 52.25 32.6875 
Q 56.890625 27.6875 56.890625 19.921875 
Q 56.890625 9.671875 50.390625 4.125 
Q 43.890625 -1.421875 31.78125 -1.421875 
Q 19.734375 -1.421875 13.203125 4.125 
Q 6.6875 9.671875 6.6875 19.921875 
Q 6.6875 27.6875 11.328125 32.6875 
Q 15.96875 37.703125 24.3125 38.8125 
Q 16.9375 40.140625 13 44.40625 
Q 9.078125 48.6875 9.078125 55.328125 
Q 9.078125 64.109375 15.125 69.15625 
Q 21.1875 74.21875 31.78125 74.21875 
Q 42.390625 74.21875 48.4375 69.15625 
Q 54.5 64.109375 54.5 55.328125 
Q 54.5 48.6875 50.5625 44.40625 
Q 46.625 40.140625 39.3125 38.8125 
z
" id="DejaVuSerif-38"/>
      </defs>
      <g transform="translate(432.627716 596.793316)scale(0.0694 -0.0694)">
       <use xlink:href="#DejaVuSerif-38"/>
       <use x="63.623047" xlink:href="#DejaVuSerif-30"/>
       <use x="127.246094" xlink:href="#DejaVuSerif-30"/>
      </g>
     </g>
    </g>
    <g id="xtick_7">
     <g id="line2d_7">
      <g>
       <use style="stroke:#000000;stroke-width:0.8;" x="511.794938" xlink:href="#mf30a39e321" y="584.52"/>
      </g>
     </g>
     <g id="text_7">
      <!-- 850 -->
      <g transform="translate(505.171575 596.793316)scale(0.0694 -0.0694)">
       <use xlink:href="#DejaVuSerif-38"/>
       <use x="63.623047" xlink:href="#DejaVuSerif-35"/>
       <use x="127.246094" xlink:href="#DejaVuSerif-30"/>
      </g>
     </g>
    </g>
    <g id="xtick_8">
     <g id="line2d_8">
      <g>
       <use style="stroke:#000000;stroke-width:0.8;" x="584.338797" xlink:href="#mf30a39e321" y="584.52"/>
      </g>
     </g>
     <g id="text_8">
      <!-- 900 -->
      <defs>
       <path d="M 46.78125 32.671875 
Q 43.5 29 39.25 27.1875 
Q 35.015625 25.390625 29.6875 25.390625 
Q 18.84375 25.390625 12.5625 31.9375 
Q 6.296875 38.484375 6.296875 49.8125 
Q 6.296875 60.890625 13.109375 67.546875 
Q 19.921875 74.21875 31.296875 74.21875 
Q 43.65625 74.21875 50.265625 65.015625 
Q 56.890625 55.8125 56.890625 38.71875 
Q 56.890625 19.578125 49.015625 9.078125 
Q 41.15625 -1.421875 26.90625 -1.421875 
Q 23.046875 -1.421875 18.796875 -0.6875 
Q 14.546875 0.046875 10.109375 1.515625 
L 10.109375 13.625 
L 15.578125 13.625 
Q 16.21875 8.6875 19.390625 6.046875 
Q 22.5625 3.421875 27.875 3.421875 
Q 37.359375 3.421875 41.984375 10.5625 
Q 46.625 17.71875 46.78125 32.671875 
z
M 30.90625 69.390625 
Q 23.96875 69.390625 20.28125 64.328125 
Q 16.609375 59.28125 16.609375 49.8125 
Q 16.609375 40.328125 20.28125 35.25 
Q 23.96875 30.171875 30.90625 30.171875 
Q 37.84375 30.171875 41.53125 35.078125 
Q 45.21875 39.984375 45.21875 49.21875 
Q 45.21875 58.9375 41.5 64.15625 
Q 37.796875 69.390625 30.90625 69.390625 
z
" id="DejaVuSerif-39"/>
      </defs>
      <g transform="translate(577.715435 596.793316)scale(0.0694 -0.0694)">
       <use xlink:href="#DejaVuSerif-39"/>
       <use x="63.623047" xlink:href="#DejaVuSerif-30"/>
       <use x="127.246094" xlink:href="#DejaVuSerif-30"/>
      </g>
     </g>
    </g>
    <g id="xtick_9">
     <g id="line2d_9">
      <g>
       <use style="stroke:#000000;stroke-width:0.8;" x="656.882656" xlink:href="#mf30a39e321" y="584.52"/>
      </g>
     </g>
     <g id="text_9">
      <!-- 950 -->
      <g transform="translate(650.259294 596.793316)scale(0.0694 -0.0694)">
       <use xlink:href="#DejaVuSerif-39"/>
       <use x="63.623047" xlink:href="#DejaVuSerif-35"/>
       <use x="127.246094" xlink:href="#DejaVuSerif-30"/>
      </g>
     </g>
    </g>
   </g>
   <g id="matplotlib.axis_2">
    <g id="ytick_1">
     <g id="line2d_10">
      <defs>
       <path d="M 0 0 
L -3.5 0 
" id="m7bbfd8cc8b" style="stroke:#000000;stroke-width:0.8;"/>
      </defs>
      <g>
       <use style="stroke:#000000;stroke-width:0.8;" x="68.16" xlink:href="#m7bbfd8cc8b" y="535.32064"/>
      </g>
     </g>
     <g id="text_10">
      <!-- 800 -->
      <g transform="translate(47.913275 537.957298)scale(0.0694 -0.0694)">
       <use xlink:href="#DejaVuSerif-38"/>
       <use x="63.623047" xlink:href="#DejaVuSerif-30"/>
       <use x="127.246094" xlink:href="#DejaVuSerif-30"/>
      </g>
     </g>
    </g>
    <g id="ytick_2">
     <g id="line2d_11">
      <g>
       <use style="stroke:#000000;stroke-width:0.8;" x="68.16" xlink:href="#m7bbfd8cc8b" y="456.5208"/>
      </g>
     </g>
     <g id="text_11">
      <!-- 1000 -->
      <defs>
       <path d="M 14.203125 0 
L 14.203125 5.171875 
L 26.90625 5.171875 
L 26.90625 65.828125 
L 12.203125 56.296875 
L 12.203125 62.703125 
L 29.984375 74.21875 
L 36.71875 74.21875 
L 36.71875 5.171875 
L 49.421875 5.171875 
L 49.421875 0 
z
" id="DejaVuSerif-31"/>
      </defs>
      <g transform="translate(43.4977 459.157458)scale(0.0694 -0.0694)">
       <use xlink:href="#DejaVuSerif-31"/>
       <use x="63.623047" xlink:href="#DejaVuSerif-30"/>
       <use x="127.246094" xlink:href="#DejaVuSerif-30"/>
       <use x="190.869141" xlink:href="#DejaVuSerif-30"/>
      </g>
     </g>
    </g>
    <g id="ytick_3">
     <g id="line2d_12">
      <g>
       <use style="stroke:#000000;stroke-width:0.8;" x="68.16" xlink:href="#m7bbfd8cc8b" y="377.72096"/>
      </g>
     </g>
     <g id="text_12">
      <!-- 1200 -->
      <defs>
       <path d="M 12.796875 55.515625 
L 7.328125 55.515625 
L 7.328125 68.5 
Q 12.546875 71.296875 17.84375 72.75 
Q 23.140625 74.21875 28.21875 74.21875 
Q 39.59375 74.21875 46.1875 68.703125 
Q 52.78125 63.1875 52.78125 53.71875 
Q 52.78125 43.015625 37.84375 28.125 
Q 36.671875 27 36.078125 26.421875 
L 17.671875 8.015625 
L 48.09375 8.015625 
L 48.09375 17 
L 53.8125 17 
L 53.8125 0 
L 6.78125 0 
L 6.78125 5.328125 
L 28.90625 27.390625 
Q 36.234375 34.71875 39.359375 40.84375 
Q 42.484375 46.96875 42.484375 53.71875 
Q 42.484375 61.078125 38.640625 65.234375 
Q 34.8125 69.390625 28.078125 69.390625 
Q 21.09375 69.390625 17.28125 65.921875 
Q 13.484375 62.453125 12.796875 55.515625 
z
" id="DejaVuSerif-32"/>
      </defs>
      <g transform="translate(43.4977 380.357618)scale(0.0694 -0.0694)">
       <use xlink:href="#DejaVuSerif-31"/>
       <use x="63.623047" xlink:href="#DejaVuSerif-32"/>
       <use x="127.246094" xlink:href="#DejaVuSerif-30"/>
       <use x="190.869141" xlink:href="#DejaVuSerif-30"/>
      </g>
     </g>
    </g>
    <g id="ytick_4">
     <g id="line2d_13">
      <g>
       <use style="stroke:#000000;stroke-width:0.8;" x="68.16" xlink:href="#m7bbfd8cc8b" y="298.92112"/>
      </g>
     </g>
     <g id="text_13">
      <!-- 1400 -->
      <defs>
       <path d="M 34.90625 24.703125 
L 34.90625 63.484375 
L 10.015625 24.703125 
z
M 56.390625 0 
L 23.1875 0 
L 23.1875 5.171875 
L 34.90625 5.171875 
L 34.90625 19.484375 
L 3.078125 19.484375 
L 3.078125 24.8125 
L 35.015625 74.21875 
L 44.671875 74.21875 
L 44.671875 24.703125 
L 58.59375 24.703125 
L 58.59375 19.484375 
L 44.671875 19.484375 
L 44.671875 5.171875 
L 56.390625 5.171875 
z
" id="DejaVuSerif-34"/>
      </defs>
      <g transform="translate(43.4977 301.557778)scale(0.0694 -0.0694)">
       <use xlink:href="#DejaVuSerif-31"/>
       <use x="63.623047" xlink:href="#DejaVuSerif-34"/>
       <use x="127.246094" xlink:href="#DejaVuSerif-30"/>
       <use x="190.869141" xlink:href="#DejaVuSerif-30"/>
      </g>
     </g>
    </g>
    <g id="ytick_5">
     <g id="line2d_14">
      <g>
       <use style="stroke:#000000;stroke-width:0.8;" x="68.16" xlink:href="#m7bbfd8cc8b" y="220.12128"/>
      </g>
     </g>
     <g id="text_14">
      <!-- 1600 -->
      <g transform="translate(43.4977 222.757938)scale(0.0694 -0.0694)">
       <use xlink:href="#DejaVuSerif-31"/>
       <use x="63.623047" xlink:href="#DejaVuSerif-36"/>
       <use x="127.246094" xlink:href="#DejaVuSerif-30"/>
       <use x="190.869141" xlink:href="#DejaVuSerif-30"/>
      </g>
     </g>
    </g>
    <g id="ytick_6">
     <g id="line2d_15">
      <g>
       <use style="stroke:#000000;stroke-width:0.8;" x="68.16" xlink:href="#m7bbfd8cc8b" y="141.32144"/>
      </g>
     </g>
     <g id="text_15">
      <!-- 1800 -->
      <g transform="translate(43.4977 143.958098)scale(0.0694 -0.0694)">
       <use xlink:href="#DejaVuSerif-31"/>
       <use x="63.623047" xlink:href="#DejaVuSerif-38"/>
       <use x="127.246094" xlink:href="#DejaVuSerif-30"/>
       <use x="190.869141" xlink:href="#DejaVuSerif-30"/>
      </g>
     </g>
    </g>
    <g id="ytick_7">
     <g id="line2d_16">
      <g>
       <use style="stroke:#000000;stroke-width:0.8;" x="68.16" xlink:href="#m7bbfd8cc8b" y="62.5216"/>
      </g>
     </g>
     <g id="text_16">
      <!-- 2000 -->
      <g transform="translate(43.4977 65.158258)scale(0.0694 -0.0694)">
       <use xlink:href="#DejaVuSerif-32"/>
       <use x="63.623047" xlink:href="#DejaVuSerif-30"/>
       <use x="127.246094" xlink:href="#DejaVuSerif-30"/>
       <use x="190.869141" xlink:href="#DejaVuSerif-30"/>
      </g>
     </g>
    </g>
   </g>
   <g id="patch_3">
    <path d="M 68.16 584.52 
L 68.16 52.52 
" style="fill:none;stroke:#000000;stroke-linecap:square;stroke-linejoin:miter;stroke-width:0.8;"/>
   </g>
   <g id="patch_4">
    <path d="M 660.368 584.52 
L 660.368 52.52 
" style="fill:none;stroke:#000000;stroke-linecap:square;stroke-linejoin:miter;stroke-width:0.8;"/>
   </g>
   <g id="patch_5">
    <path d="M 68.16 584.52 
L 660.368 584.52 
" style="fill:none;stroke:#000000;stroke-linecap:square;stroke-linejoin:miter;stroke-width:0.8;"/>
   </g>
   <g id="patch_6">
    <path d="M 68.16 52.52 
L 660.368 52.52 
" style="fill:none;stroke:#000000;stroke-linecap:square;stroke-linejoin:miter;stroke-width:0.8;"/>
   </g>
  </g>
  <g id="axes_2">
   <g id="patch_7">
    <path clip-path="url(#p3525e9c26f)" d="M 697.381 584.52 
L 697.381 553.225882 
L 697.381 83.814118 
L 697.381 52.52 
L 723.981 52.52 
L 723.981 83.814118 
L 723.981 553.225882 
L 723.981 584.52 
z
" style="fill:#ffffff;stroke:#ffffff;stroke-linejoin:miter;stroke-width:0.01;"/>
   </g>
   <g id="QuadMesh_1">
    <path clip-path="url(#p3525e9c26f)" d="M 697.381 584.52 
L 723.981 584.52 
L 723.981 553.225882 
L 697.381 553.225882 
L 697.381 584.52 
" style="fill:#fcfcfc;"/>
    <path clip-path="url(#p3525e9c26f)" d="M 697.381 553.225882 
L 723.981 553.225882 
L 723.981 521.931765 
L 697.381 521.931765 
L 697.381 553.225882 
" style="fill:#f5f5f5;"/>
    <path clip-path="url(#p3525e9c26f)" d="M 697.381 521.931765 
L 723.981 521.931765 
L 723.981 490.637647 
L 697.381 490.637647 
L 697.381 521.931765 
" style="fill:#ececec;"/>
    <path clip-path="url(#p3525e9c26f)" d="M 697.381 490.637647 
L 723.981 490.637647 
L 723.981 459.343529 
L 697.381 459.343529 
L 697.381 490.637647 
" style="fill:#e1e1e1;"/>
    <path clip-path="url(#p3525e9c26f)" d="M 697.381 459.343529 
L 723.981 459.343529 
L 723.981 428.049412 
L 697.381 428.049412 
L 697.381 459.343529 
" style="fill:#d6d6d6;"/>
    <path clip-path="url(#p3525e9c26f)" d="M 697.381 428.049412 
L 723.981 428.049412 
L 723.981 396.755294 
L 697.381 396.755294 
L 697.381 428.049412 
" style="fill:#c9c9c9;"/>
    <path clip-path="url(#p3525e9c26f)" d="M 697.381 396.755294 
L 723.981 396.755294 
L 723.981 365.461176 
L 697.381 365.461176 
L 697.381 396.755294 
" style="fill:#bbbbbb;"/>
    <path clip-path="url(#p3525e9c26f)" d="M 697.381 365.461176 
L 723.981 365.461176 
L 723.981 334.167059 
L 697.381 334.167059 
L 697.381 365.461176 
" style="fill:#a9a9a9;"/>
    <path clip-path="url(#p3525e9c26f)" d="M 697.381 334.167059 
L 723.981 334.167059 
L 723.981 302.872941 
L 697.381 302.872941 
L 697.381 334.167059 
" style="fill:#959595;"/>
    <path clip-path="url(#p3525e9c26f)" d="M 697.381 302.872941 
L 723.981 302.872941 
L 723.981 271.578824 
L 697.381 271.578824 
L 697.381 302.872941 
" style="fill:#858585;"/>
    <path clip-path="url(#p3525e9c26f)" d="M 697.381 271.578824 
L 723.981 271.578824 
L 723.981 240.284706 
L 697.381 240.284706 
L 697.381 271.578824 
" style="fill:#757575;"/>
    <path clip-path="url(#p3525e9c26f)" d="M 697.381 240.284706 
L 723.981 240.284706 
L 723.981 208.990588 
L 697.381 208.990588 
L 697.381 240.284706 
" style="fill:#656565;"/>
    <path clip-path="url(#p3525e9c26f)" d="M 697.381 208.990588 
L 723.981 208.990588 
L 723.981 177.696471 
L 697.381 177.696471 
L 697.381 208.990588 
" style="fill:#555555;"/>
    <path clip-path="url(#p3525e9c26f)" d="M 697.381 177.696471 
L 723.981 177.696471 
L 723.981 146.402353 
L 697.381 146.402353 
L 697.381 177.696471 
" style="fill:#414141;"/>
    <path clip-path="url(#p3525e9c26f)" d="M 697.381 146.402353 
L 723.981 146.402353 
L 723.981 115.108235 
L 697.381 115.108235 
L 697.381 146.402353 
" style="fill:#2c2c2c;"/>
    <path clip-path="url(#p3525e9c26f)" d="M 697.381 115.108235 
L 723.981 115.108235 
L 723.981 83.814118 
L 697.381 83.814118 
L 697.381 115.108235 
" style="fill:#1a1a1a;"/>
    <path clip-path="url(#p3525e9c26f)" d="M 697.381 83.814118 
L 723.981 83.814118 
L 723.981 52.52 
L 697.381 52.52 
L 697.381 83.814118 
" style="fill:#080808;"/>
   </g>
   <g id="matplotlib.axis_3"/>
   <g id="matplotlib.axis_4">
    <g id="ytick_8">
     <g id="line2d_17">
      <defs>
       <path d="M 0 0 
L 3.5 0 
" id="mc42b059d21" style="stroke:#000000;stroke-width:0.8;"/>
      </defs>
      <g>
       <use style="stroke:#000000;stroke-width:0.8;" x="723.981" xlink:href="#mc42b059d21" y="584.52"/>
      </g>
     </g>
     <g id="text_17">
      <!-- 0.0033808 -->
      <defs>
       <path d="M 9.421875 5.078125 
Q 9.421875 7.8125 11.28125 9.71875 
Q 13.140625 11.625 15.921875 11.625 
Q 18.609375 11.625 20.5 9.71875 
Q 22.40625 7.8125 22.40625 5.078125 
Q 22.40625 2.390625 20.5 0.484375 
Q 18.609375 -1.421875 15.921875 -1.421875 
Q 13.140625 -1.421875 11.28125 0.453125 
Q 9.421875 2.34375 9.421875 5.078125 
z
" id="DejaVuSerif-2e"/>
       <path d="M 9.71875 69.828125 
Q 15.4375 71.96875 20.671875 73.09375 
Q 25.921875 74.21875 30.515625 74.21875 
Q 41.21875 74.21875 47.21875 69.59375 
Q 53.21875 64.984375 53.21875 56.78125 
Q 53.21875 50.203125 49.0625 45.78125 
Q 44.921875 41.359375 37.3125 39.796875 
Q 46.296875 38.53125 51.25 33.28125 
Q 56.203125 28.03125 56.203125 19.671875 
Q 56.203125 9.46875 49.34375 4.015625 
Q 42.484375 -1.421875 29.59375 -1.421875 
Q 23.875 -1.421875 18.421875 -0.1875 
Q 12.984375 1.03125 7.625 3.515625 
L 7.625 17.671875 
L 13.09375 17.671875 
Q 13.578125 10.640625 17.828125 7.03125 
Q 22.078125 3.421875 29.78125 3.421875 
Q 37.25 3.421875 41.578125 7.734375 
Q 45.90625 12.0625 45.90625 19.578125 
Q 45.90625 28.171875 41.453125 32.59375 
Q 37.015625 37.015625 28.421875 37.015625 
L 23.78125 37.015625 
L 23.78125 42 
L 26.21875 42 
Q 34.765625 42 39.03125 45.53125 
Q 43.3125 49.078125 43.3125 56.203125 
Q 43.3125 62.59375 39.796875 65.984375 
Q 36.28125 69.390625 29.6875 69.390625 
Q 23.09375 69.390625 19.453125 66.265625 
Q 15.828125 63.140625 15.1875 56.984375 
L 9.71875 56.984375 
z
" id="DejaVuSerif-33"/>
      </defs>
      <g transform="translate(730.981 587.156658)scale(0.0694 -0.0694)">
       <use xlink:href="#DejaVuSerif-30"/>
       <use x="63.623047" xlink:href="#DejaVuSerif-2e"/>
       <use x="95.410156" xlink:href="#DejaVuSerif-30"/>
       <use x="159.033203" xlink:href="#DejaVuSerif-30"/>
       <use x="222.65625" xlink:href="#DejaVuSerif-33"/>
       <use x="286.279297" xlink:href="#DejaVuSerif-33"/>
       <use x="349.902344" xlink:href="#DejaVuSerif-38"/>
       <use x="413.525391" xlink:href="#DejaVuSerif-30"/>
       <use x="477.148438" xlink:href="#DejaVuSerif-38"/>
      </g>
     </g>
    </g>
    <g id="ytick_9">
     <g id="line2d_18">
      <g>
       <use style="stroke:#000000;stroke-width:0.8;" x="723.981" xlink:href="#mc42b059d21" y="521.931765"/>
      </g>
     </g>
     <g id="text_18">
      <!-- 0.0033824 -->
      <g transform="translate(730.981 524.568423)scale(0.0694 -0.0694)">
       <use xlink:href="#DejaVuSerif-30"/>
       <use x="63.623047" xlink:href="#DejaVuSerif-2e"/>
       <use x="95.410156" xlink:href="#DejaVuSerif-30"/>
       <use x="159.033203" xlink:href="#DejaVuSerif-30"/>
       <use x="222.65625" xlink:href="#DejaVuSerif-33"/>
       <use x="286.279297" xlink:href="#DejaVuSerif-33"/>
       <use x="349.902344" xlink:href="#DejaVuSerif-38"/>
       <use x="413.525391" xlink:href="#DejaVuSerif-32"/>
       <use x="477.148438" xlink:href="#DejaVuSerif-34"/>
      </g>
     </g>
    </g>
    <g id="ytick_10">
     <g id="line2d_19">
      <g>
       <use style="stroke:#000000;stroke-width:0.8;" x="723.981" xlink:href="#mc42b059d21" y="459.343529"/>
      </g>
     </g>
     <g id="text_19">
      <!-- 0.0033840 -->
      <g transform="translate(730.981 461.980187)scale(0.0694 -0.0694)">
       <use xlink:href="#DejaVuSerif-30"/>
       <use x="63.623047" xlink:href="#DejaVuSerif-2e"/>
       <use x="95.410156" xlink:href="#DejaVuSerif-30"/>
       <use x="159.033203" xlink:href="#DejaVuSerif-30"/>
       <use x="222.65625" xlink:href="#DejaVuSerif-33"/>
       <use x="286.279297" xlink:href="#DejaVuSerif-33"/>
       <use x="349.902344" xlink:href="#DejaVuSerif-38"/>
       <use x="413.525391" xlink:href="#DejaVuSerif-34"/>
       <use x="477.148438" xlink:href="#DejaVuSerif-30"/>
      </g>
     </g>
    </g>
    <g id="ytick_11">
     <g id="line2d_20">
      <g>
       <use style="stroke:#000000;stroke-width:0.8;" x="723.981" xlink:href="#mc42b059d21" y="396.755294"/>
      </g>
     </g>
     <g id="text_20">
      <!-- 0.0033856 -->
      <g transform="translate(730.981 399.391952)scale(0.0694 -0.0694)">
       <use xlink:href="#DejaVuSerif-30"/>
       <use x="63.623047" xlink:href="#DejaVuSerif-2e"/>
       <use x="95.410156" xlink:href="#DejaVuSerif-30"/>
       <use x="159.033203" xlink:href="#DejaVuSerif-30"/>
       <use x="222.65625" xlink:href="#DejaVuSerif-33"/>
       <use x="286.279297" xlink:href="#DejaVuSerif-33"/>
       <use x="349.902344" xlink:href="#DejaVuSerif-38"/>
       <use x="413.525391" xlink:href="#DejaVuSerif-35"/>
       <use x="477.148438" xlink:href="#DejaVuSerif-36"/>
      </g>
     </g>
    </g>
    <g id="ytick_12">
     <g id="line2d_21">
      <g>
       <use style="stroke:#000000;stroke-width:0.8;" x="723.981" xlink:href="#mc42b059d21" y="334.167059"/>
      </g>
     </g>
     <g id="text_21">
      <!-- 0.0033872 -->
      <g transform="translate(730.981 336.803717)scale(0.0694 -0.0694)">
       <use xlink:href="#DejaVuSerif-30"/>
       <use x="63.623047" xlink:href="#DejaVuSerif-2e"/>
       <use x="95.410156" xlink:href="#DejaVuSerif-30"/>
       <use x="159.033203" xlink:href="#DejaVuSerif-30"/>
       <use x="222.65625" xlink:href="#DejaVuSerif-33"/>
       <use x="286.279297" xlink:href="#DejaVuSerif-33"/>
       <use x="349.902344" xlink:href="#DejaVuSerif-38"/>
       <use x="413.525391" xlink:href="#DejaVuSerif-37"/>
       <use x="477.148438" xlink:href="#DejaVuSerif-32"/>
      </g>
     </g>
    </g>
    <g id="ytick_13">
     <g id="line2d_22">
      <g>
       <use style="stroke:#000000;stroke-width:0.8;" x="723.981" xlink:href="#mc42b059d21" y="271.578824"/>
      </g>
     </g>
     <g id="text_22">
      <!-- 0.0033888 -->
      <g transform="translate(730.981 274.215481)scale(0.0694 -0.0694)">
       <use xlink:href="#DejaVuSerif-30"/>
       <use x="63.623047" xlink:href="#DejaVuSerif-2e"/>
       <use x="95.410156" xlink:href="#DejaVuSerif-30"/>
       <use x="159.033203" xlink:href="#DejaVuSerif-30"/>
       <use x="222.65625" xlink:href="#DejaVuSerif-33"/>
       <use x="286.279297" xlink:href="#DejaVuSerif-33"/>
       <use x="349.902344" xlink:href="#DejaVuSerif-38"/>
       <use x="413.525391" xlink:href="#DejaVuSerif-38"/>
       <use x="477.148438" xlink:href="#DejaVuSerif-38"/>
      </g>
     </g>
    </g>
    <g id="ytick_14">
     <g id="line2d_23">
      <g>
       <use style="stroke:#000000;stroke-width:0.8;" x="723.981" xlink:href="#mc42b059d21" y="208.990588"/>
      </g>
     </g>
     <g id="text_23">
      <!-- 0.0033904 -->
      <g transform="translate(730.981 211.627246)scale(0.0694 -0.0694)">
       <use xlink:href="#DejaVuSerif-30"/>
       <use x="63.623047" xlink:href="#DejaVuSerif-2e"/>
       <use x="95.410156" xlink:href="#DejaVuSerif-30"/>
       <use x="159.033203" xlink:href="#DejaVuSerif-30"/>
       <use x="222.65625" xlink:href="#DejaVuSerif-33"/>
       <use x="286.279297" xlink:href="#DejaVuSerif-33"/>
       <use x="349.902344" xlink:href="#DejaVuSerif-39"/>
       <use x="413.525391" xlink:href="#DejaVuSerif-30"/>
       <use x="477.148438" xlink:href="#DejaVuSerif-34"/>
      </g>
     </g>
    </g>
    <g id="ytick_15">
     <g id="line2d_24">
      <g>
       <use style="stroke:#000000;stroke-width:0.8;" x="723.981" xlink:href="#mc42b059d21" y="146.402353"/>
      </g>
     </g>
     <g id="text_24">
      <!-- 0.0033920 -->
      <g transform="translate(730.981 149.039011)scale(0.0694 -0.0694)">
       <use xlink:href="#DejaVuSerif-30"/>
       <use x="63.623047" xlink:href="#DejaVuSerif-2e"/>
       <use x="95.410156" xlink:href="#DejaVuSerif-30"/>
       <use x="159.033203" xlink:href="#DejaVuSerif-30"/>
       <use x="222.65625" xlink:href="#DejaVuSerif-33"/>
       <use x="286.279297" xlink:href="#DejaVuSerif-33"/>
       <use x="349.902344" xlink:href="#DejaVuSerif-39"/>
       <use x="413.525391" xlink:href="#DejaVuSerif-32"/>
       <use x="477.148438" xlink:href="#DejaVuSerif-30"/>
      </g>
     </g>
    </g>
    <g id="ytick_16">
     <g id="line2d_25">
      <g>
       <use style="stroke:#000000;stroke-width:0.8;" x="723.981" xlink:href="#mc42b059d21" y="83.814118"/>
      </g>
     </g>
     <g id="text_25">
      <!-- 0.0033936 -->
      <g transform="translate(730.981 86.450775)scale(0.0694 -0.0694)">
       <use xlink:href="#DejaVuSerif-30"/>
       <use x="63.623047" xlink:href="#DejaVuSerif-2e"/>
       <use x="95.410156" xlink:href="#DejaVuSerif-30"/>
       <use x="159.033203" xlink:href="#DejaVuSerif-30"/>
       <use x="222.65625" xlink:href="#DejaVuSerif-33"/>
       <use x="286.279297" xlink:href="#DejaVuSerif-33"/>
       <use x="349.902344" xlink:href="#DejaVuSerif-39"/>
       <use x="413.525391" xlink:href="#DejaVuSerif-33"/>
       <use x="477.148438" xlink:href="#DejaVuSerif-36"/>
      </g>
     </g>
    </g>
   </g>
   <g id="patch_8">
    <path d="M 697.381 584.52 
L 697.381 553.225882 
L 697.381 83.814118 
L 697.381 52.52 
L 723.981 52.52 
L 723.981 83.814118 
L 723.981 553.225882 
L 723.981 584.52 
z
" style="fill:none;stroke:#000000;stroke-linejoin:miter;stroke-width:0.8;"/>
   </g>
  </g>
 </g>
 <defs>
  <clipPath id="pcbf2c6b0c7">
   <rect height="532" width="592.208" x="68.16" y="52.52"/>
  </clipPath>
  <clipPath id="p3525e9c26f">
   <rect height="532" width="26.6" x="697.381" y="52.52"/>
  </clipPath>
 </defs>
</svg>
