<?xml version="1.0" encoding="utf-8" standalone="no"?>
<!DOCTYPE svg PUBLIC "-//W3C//DTD SVG 1.1//EN"
  "http://www.w3.org/Graphics/SVG/1.1/DTD/svg11.dtd">
<!-- Created with matplotlib (http://matplotlib.org/) -->
<svg height="648pt" version="1.1" viewBox="0 0 864 648" width="864pt" xmlns="http://www.w3.org/2000/svg" xmlns:xlink="http://www.w3.org/1999/xlink">
 <defs>
  <style type="text/css">
*{stroke-linecap:butt;stroke-linejoin:round;}
  </style>
 </defs>
 <g id="figure_1">
  <g id="patch_1">
   <path d="M 0 648 
L 864 648 
L 864 0 
L 0 0 
z
" style="fill:#ffffff;"/>
  </g>
  <g id="axes_1">
   <g id="patch_2">
    <path d="M 68.16 584.52 
L 660.368 584.52 
L 660.368 52.52 
L 68.16 52.52 
z
" style="fill:#ffffff;"/>
   </g>
   <g id="PathCollection_1">
    <path clip-path="url(#p67fed08858)" d="M 660.368 405.338919 
L 660.368 371.72 
L 660.368 318.52 
L 660.368 265.32 
L 660.368 212.12 
L 660.368 158.92 
L 660.368 105.72 
L 660.368 52.52 
L 571.96866 52.52 
L 577.009953 105.72 
L 578.430069 158.92 
L 585.818572 212.12 
L 599.248337 265.32 
L 606.121827 318.52 
L 631.067588 371.72 
z
" style="fill:#fcfcfc;"/>
   </g>
   <g id="PathCollection_2">
    <path clip-path="url(#p67fed08858)" d="M 660.368 495.614943 
L 660.368 478.12 
L 660.368 424.92 
L 660.368 405.338919 
L 631.067588 371.72 
L 606.121827 318.52 
L 599.248337 265.32 
L 585.818572 212.12 
L 578.430069 158.92 
L 577.009953 105.72 
L 571.96866 52.52 
L 561.666667 52.52 
L 503.769236 52.52 
L 506.837048 105.72 
L 507.699244 158.92 
L 512.190681 212.12 
L 520.353094 265.32 
L 524.538361 318.52 
L 539.694037 371.72 
L 561.666667 413.171352 
L 571.906146 424.92 
L 601.252411 478.12 
z
" style="fill:#f5f5f5;"/>
   </g>
   <g id="PathCollection_3">
    <path clip-path="url(#p67fed08858)" d="M 660.368 584.52 
L 660.368 539.205525 
L 570.296565 584.52 
z
" style="fill:#eeeeee;"/>
    <path clip-path="url(#p67fed08858)" d="M 561.666667 497.541527 
L 660.368 526.75166 
L 660.368 495.614943 
L 601.252411 478.12 
L 571.906146 424.92 
L 561.666667 413.171352 
L 539.694037 371.72 
L 524.538361 318.52 
L 520.353094 265.32 
L 512.190681 212.12 
L 507.699244 158.92 
L 506.837048 105.72 
L 503.769236 52.52 
L 462.965333 52.52 
L 445.837598 52.52 
L 448.085883 105.72 
L 448.718113 158.92 
L 452.009956 212.12 
L 457.987251 265.32 
L 461.060867 318.52 
L 462.965333 327.645033 
L 475.511093 371.72 
L 503.682016 424.92 
L 521.701587 478.12 
z
" style="fill:#eeeeee;"/>
   </g>
   <g id="PathCollection_4">
    <path clip-path="url(#p67fed08858)" d="M 561.666667 584.52 
L 570.296565 584.52 
L 660.368 539.205525 
L 660.368 531.32 
L 660.368 526.75166 
L 561.666667 497.541527 
L 521.701587 478.12 
L 503.682016 424.92 
L 475.511093 371.72 
L 462.965333 327.645033 
L 461.060867 318.52 
L 457.987251 265.32 
L 452.009956 212.12 
L 448.718113 158.92 
L 448.085883 105.72 
L 445.837598 52.52 
L 398.791457 52.52 
L 401.036238 105.72 
L 401.668468 158.92 
L 404.953301 212.12 
L 410.92709 265.32 
L 414.000707 318.52 
L 425.0955 371.72 
L 445.730132 424.92 
L 459.049313 478.12 
L 462.965333 480.714054 
L 561.666667 528.678244 
L 570.593186 531.32 
L 561.666667 535.815425 
L 502.22763 584.52 
z
" style="fill:#e4e4e4;"/>
   </g>
   <g id="PathCollection_5">
    <path clip-path="url(#p67fed08858)" d="M 462.965333 584.52 
L 502.22763 584.52 
L 561.666667 535.815425 
L 570.593186 531.32 
L 561.666667 528.678244 
L 462.965333 480.714054 
L 459.049313 478.12 
L 445.730132 424.92 
L 425.0955 371.72 
L 414.000707 318.52 
L 410.92709 265.32 
L 404.953301 212.12 
L 401.668468 158.92 
L 401.036238 105.72 
L 398.791457 52.52 
L 364.264 52.52 
L 349.827139 52.52 
L 352.412719 105.72 
L 353.140812 158.92 
L 356.921387 212.12 
L 363.806107 265.32 
L 364.264 272.19273 
L 366.940546 318.52 
L 378.024819 371.72 
L 398.631374 424.92 
L 412.027687 478.12 
L 462.965333 511.862165 
L 503.006726 531.32 
L 462.965333 563.981793 
L 444.407622 584.52 
z
" style="fill:#d9d9d9;"/>
   </g>
   <g id="PathCollection_6">
    <path clip-path="url(#p67fed08858)" d="M 462.965333 563.981793 
L 503.006726 531.32 
L 462.965333 511.862165 
L 412.027687 478.12 
L 398.631374 424.92 
L 378.024819 371.72 
L 366.940546 318.52 
L 364.264 272.19273 
L 363.806107 265.32 
L 356.921387 212.12 
L 353.140812 158.92 
L 352.412719 105.72 
L 349.827139 52.52 
L 295.572348 52.52 
L 298.157928 105.72 
L 298.881361 158.92 
L 302.657275 212.12 
L 309.537333 265.32 
L 313.081762 318.52 
L 325.850462 371.72 
L 349.583121 424.92 
L 364.264 475.185429 
L 365.00606 478.12 
L 445.309644 531.32 
L 397.164444 584.52 
L 444.407622 584.52 
z
" style="fill:#cccccc;"/>
   </g>
   <g id="PathCollection_7">
    <path clip-path="url(#p67fed08858)" d="M 364.264 584.52 
L 397.164444 584.52 
L 445.309644 531.32 
L 365.00606 478.12 
L 364.264 475.185429 
L 349.583121 424.92 
L 325.850462 371.72 
L 313.081762 318.52 
L 309.537333 265.32 
L 302.657275 212.12 
L 298.881361 158.92 
L 298.157928 105.72 
L 295.572348 52.52 
L 265.562667 52.52 
L 245.299526 52.52 
L 247.460455 105.72 
L 248.063938 158.92 
L 251.215513 212.12 
L 256.960842 265.32 
L 259.922995 318.52 
L 265.562667 346.676383 
L 271.567697 371.72 
L 295.272353 424.92 
L 310.883756 478.12 
L 364.264 508.793391 
L 398.267006 531.32 
L 364.264 568.784332 
L 347.768499 584.52 
z
" style="fill:#c0c0c0;"/>
   </g>
   <g id="PathCollection_8">
    <path clip-path="url(#p67fed08858)" d="M 364.264 568.784332 
L 398.267006 531.32 
L 364.264 508.793391 
L 310.883756 478.12 
L 295.272353 424.92 
L 271.567697 371.72 
L 265.562667 346.676383 
L 259.922995 318.52 
L 256.960842 265.32 
L 251.215513 212.12 
L 248.063938 158.92 
L 247.460455 105.72 
L 245.299526 52.52 
L 199.955435 52.52 
L 202.116364 105.72 
L 202.723101 158.92 
L 205.871422 212.12 
L 211.613496 265.32 
L 214.578904 318.52 
L 225.23187 371.72 
L 245.02321 424.92 
L 258.11885 478.12 
L 265.562667 483.248416 
L 349.21491 531.32 
L 293.434375 584.52 
L 347.768499 584.52 
z
" style="fill:#b0b0b0;"/>
   </g>
   <g id="PathCollection_9">
    <path clip-path="url(#p67fed08858)" d="M 265.562667 584.52 
L 293.434375 584.52 
L 349.21491 531.32 
L 265.562667 483.248416 
L 258.11885 478.12 
L 245.02321 424.92 
L 225.23187 371.72 
L 214.578904 318.52 
L 211.613496 265.32 
L 205.871422 212.12 
L 202.723101 158.92 
L 202.116364 105.72 
L 199.955435 52.52 
L 166.861333 52.52 
L 162.248174 52.52 
L 163.061947 105.72 
L 163.291404 158.92 
L 164.47598 212.12 
L 166.637218 265.32 
L 166.861333 275.985394 
L 169.234813 318.52 
L 179.884524 371.72 
L 199.679119 424.92 
L 212.833271 478.12 
L 265.562667 514.447902 
L 294.922814 531.32 
L 265.562667 559.311061 
L 243.578098 584.52 
z
" style="fill:#9f9f9f;"/>
   </g>
   <g id="PathCollection_10">
    <path clip-path="url(#p67fed08858)" d="M 265.562667 559.311061 
L 294.922814 531.32 
L 265.562667 514.447902 
L 212.833271 478.12 
L 199.679119 424.92 
L 179.884524 371.72 
L 169.234813 318.52 
L 166.861333 275.985394 
L 166.637218 265.32 
L 164.47598 212.12 
L 163.291404 158.92 
L 163.061947 105.72 
L 162.248174 52.52 
L 145.17228 52.52 
L 145.986053 105.72 
L 146.215511 158.92 
L 147.399625 212.12 
L 149.561786 265.32 
L 150.681006 318.52 
L 154.690081 371.72 
L 162.14552 424.92 
L 166.861333 475.35303 
L 167.547693 478.12 
L 244.759223 531.32 
L 198.438143 584.52 
L 243.578098 584.52 
z
" style="fill:#8e8e8e;"/>
   </g>
   <g id="PathCollection_11">
    <path clip-path="url(#p67fed08858)" d="M 166.861333 584.52 
L 198.438143 584.52 
L 244.759223 531.32 
L 167.547693 478.12 
L 166.861333 475.35303 
L 162.14552 424.92 
L 154.690081 371.72 
L 150.681006 318.52 
L 149.561786 265.32 
L 147.399625 212.12 
L 146.215511 158.92 
L 145.986053 105.72 
L 145.17228 52.52 
L 128.096387 52.52 
L 128.91016 105.72 
L 129.139617 158.92 
L 130.323269 212.12 
L 132.486354 265.32 
L 133.606958 318.52 
L 137.61511 371.72 
L 145.074702 424.92 
L 150.063318 478.12 
L 166.861333 508.860704 
L 199.457406 531.32 
L 166.861333 568.848493 
L 161.754856 584.52 
z
" style="fill:#7e7e7e;"/>
   </g>
   <g id="PathCollection_12">
    <path clip-path="url(#p67fed08858)" d="M 166.861333 568.848493 
L 199.457406 531.32 
L 166.861333 508.860704 
L 150.063318 478.12 
L 145.074702 424.92 
L 137.61511 371.72 
L 133.606958 318.52 
L 132.486354 265.32 
L 130.323269 212.12 
L 129.139617 158.92 
L 128.91016 105.72 
L 128.096387 52.52 
L 111.020493 52.52 
L 111.834266 105.72 
L 112.063723 158.92 
L 113.246914 212.12 
L 115.410922 265.32 
L 116.532911 318.52 
L 120.54014 371.72 
L 128.003885 424.92 
L 133.006789 478.12 
L 162.076993 531.32 
L 144.759819 584.52 
L 161.754856 584.52 
z
" style="fill:#6f6f6f;"/>
   </g>
   <g id="PathCollection_13">
    <path clip-path="url(#p67fed08858)" d="M 162.076993 531.32 
L 133.006789 478.12 
L 128.003885 424.92 
L 120.54014 371.72 
L 116.532911 318.52 
L 115.410922 265.32 
L 113.246914 212.12 
L 112.063723 158.92 
L 111.834266 105.72 
L 111.020493 52.52 
L 93.944599 52.52 
L 94.758372 105.72 
L 94.98783 158.92 
L 96.170559 212.12 
L 98.33549 265.32 
L 99.458863 318.52 
L 103.465169 371.72 
L 110.933067 424.92 
L 115.950261 478.12 
L 145.018622 531.32 
L 127.764782 584.52 
L 144.759819 584.52 
z
" style="fill:#616161;"/>
   </g>
   <g id="PathCollection_14">
    <path clip-path="url(#p67fed08858)" d="M 145.018622 531.32 
L 115.950261 478.12 
L 110.933067 424.92 
L 103.465169 371.72 
L 99.458863 318.52 
L 98.33549 265.32 
L 96.170559 212.12 
L 94.98783 158.92 
L 94.758372 105.72 
L 93.944599 52.52 
L 76.868706 52.52 
L 77.682479 105.72 
L 77.911936 158.92 
L 79.094204 212.12 
L 81.260058 265.32 
L 82.384816 318.52 
L 86.390199 371.72 
L 93.86225 424.92 
L 98.893732 478.12 
L 127.960252 531.32 
L 110.769745 584.52 
L 127.764782 584.52 
z
" style="fill:#515151;"/>
   </g>
   <g id="PathCollection_15">
    <path clip-path="url(#p67fed08858)" d="M 127.960252 531.32 
L 98.893732 478.12 
L 93.86225 424.92 
L 86.390199 371.72 
L 82.384816 318.52 
L 81.260058 265.32 
L 79.094204 212.12 
L 77.911936 158.92 
L 77.682479 105.72 
L 76.868706 52.52 
L 68.16 52.52 
L 68.16 105.72 
L 68.16 158.92 
L 68.16 212.12 
L 68.16 265.32 
L 68.16 318.52 
L 68.16 356.373164 
L 69.315229 371.72 
L 76.791432 424.92 
L 81.837204 478.12 
L 110.901881 531.32 
L 93.774707 584.52 
L 110.769745 584.52 
z
" style="fill:#3d3d3d;"/>
   </g>
   <g id="PathCollection_16">
    <path clip-path="url(#p67fed08858)" d="M 110.901881 531.32 
L 81.837204 478.12 
L 76.791432 424.92 
L 69.315229 371.72 
L 68.16 356.373164 
L 68.16 371.72 
L 68.16 424.92 
L 68.16 478.12 
L 68.16 484.3065 
L 93.84351 531.32 
L 76.77967 584.52 
L 93.774707 584.52 
z
" style="fill:#292929;"/>
   </g>
   <g id="PathCollection_17">
    <path clip-path="url(#p67fed08858)" d="M 93.84351 531.32 
L 68.16 484.3065 
L 68.16 515.531739 
L 76.785139 531.32 
L 68.16 558.261346 
L 68.16 584.52 
L 76.77967 584.52 
z
" style="fill:#181818;"/>
   </g>
   <g id="PathCollection_18">
    <path clip-path="url(#p67fed08858)" d="M 76.785139 531.32 
L 68.16 515.531739 
L 68.16 531.32 
L 68.16 558.261346 
z
" style="fill:#080808;"/>
   </g>
   <g id="matplotlib.axis_1">
    <g id="xtick_1">
     <g id="line2d_1">
      <defs>
       <path d="M 0 0 
L 0 3.5 
" id="mb47cd4bf06" style="stroke:#000000;stroke-width:0.8;"/>
      </defs>
      <g>
       <use style="stroke:#000000;stroke-width:0.8;" x="68.16" xlink:href="#mb47cd4bf06" y="584.52"/>
      </g>
     </g>
     <g id="text_1">
      <!-- 40 -->
      <defs>
       <path d="M 34.90625 24.703125 
L 34.90625 63.484375 
L 10.015625 24.703125 
z
M 56.390625 0 
L 23.1875 0 
L 23.1875 5.171875 
L 34.90625 5.171875 
L 34.90625 19.484375 
L 3.078125 19.484375 
L 3.078125 24.8125 
L 35.015625 74.21875 
L 44.671875 74.21875 
L 44.671875 24.703125 
L 58.59375 24.703125 
L 58.59375 19.484375 
L 44.671875 19.484375 
L 44.671875 5.171875 
L 56.390625 5.171875 
z
" id="DejaVuSerif-34"/>
       <path d="M 31.78125 3.421875 
Q 39.265625 3.421875 42.96875 11.625 
Q 46.6875 19.828125 46.6875 36.375 
Q 46.6875 52.984375 42.96875 61.1875 
Q 39.265625 69.390625 31.78125 69.390625 
Q 24.3125 69.390625 20.59375 61.1875 
Q 16.890625 52.984375 16.890625 36.375 
Q 16.890625 19.828125 20.59375 11.625 
Q 24.3125 3.421875 31.78125 3.421875 
z
M 31.78125 -1.421875 
Q 19.921875 -1.421875 13.25 8.53125 
Q 6.59375 18.5 6.59375 36.375 
Q 6.59375 54.296875 13.25 64.25 
Q 19.921875 74.21875 31.78125 74.21875 
Q 43.703125 74.21875 50.34375 64.25 
Q 56.984375 54.296875 56.984375 36.375 
Q 56.984375 18.5 50.34375 8.53125 
Q 43.703125 -1.421875 31.78125 -1.421875 
z
" id="DejaVuSerif-30"/>
      </defs>
      <g transform="translate(63.744425 596.793316)scale(0.0694 -0.0694)">
       <use xlink:href="#DejaVuSerif-34"/>
       <use x="63.623047" xlink:href="#DejaVuSerif-30"/>
      </g>
     </g>
    </g>
    <g id="xtick_2">
     <g id="line2d_2">
      <g>
       <use style="stroke:#000000;stroke-width:0.8;" x="166.861333" xlink:href="#mb47cd4bf06" y="584.52"/>
      </g>
     </g>
     <g id="text_2">
      <!-- 45 -->
      <defs>
       <path d="M 50.296875 72.90625 
L 50.296875 64.890625 
L 16.890625 64.890625 
L 16.890625 44 
Q 19.4375 45.75 22.828125 46.625 
Q 26.21875 47.515625 30.421875 47.515625 
Q 42.234375 47.515625 49.0625 40.96875 
Q 55.90625 34.421875 55.90625 23.09375 
Q 55.90625 11.53125 49 5.046875 
Q 42.09375 -1.421875 29.59375 -1.421875 
Q 24.5625 -1.421875 19.28125 -0.1875 
Q 14.015625 1.03125 8.5 3.515625 
L 8.5 17.671875 
L 14.015625 17.671875 
Q 14.453125 10.75 18.421875 7.078125 
Q 22.40625 3.421875 29.59375 3.421875 
Q 37.3125 3.421875 41.453125 8.5 
Q 45.609375 13.578125 45.609375 23.09375 
Q 45.609375 32.5625 41.484375 37.609375 
Q 37.359375 42.671875 29.59375 42.671875 
Q 25.203125 42.671875 21.84375 41.109375 
Q 18.5 39.546875 15.921875 36.28125 
L 11.71875 36.28125 
L 11.71875 72.90625 
z
" id="DejaVuSerif-35"/>
      </defs>
      <g transform="translate(162.445758 596.793316)scale(0.0694 -0.0694)">
       <use xlink:href="#DejaVuSerif-34"/>
       <use x="63.623047" xlink:href="#DejaVuSerif-35"/>
      </g>
     </g>
    </g>
    <g id="xtick_3">
     <g id="line2d_3">
      <g>
       <use style="stroke:#000000;stroke-width:0.8;" x="265.562667" xlink:href="#mb47cd4bf06" y="584.52"/>
      </g>
     </g>
     <g id="text_3">
      <!-- 50 -->
      <g transform="translate(261.147092 596.793316)scale(0.0694 -0.0694)">
       <use xlink:href="#DejaVuSerif-35"/>
       <use x="63.623047" xlink:href="#DejaVuSerif-30"/>
      </g>
     </g>
    </g>
    <g id="xtick_4">
     <g id="line2d_4">
      <g>
       <use style="stroke:#000000;stroke-width:0.8;" x="364.264" xlink:href="#mb47cd4bf06" y="584.52"/>
      </g>
     </g>
     <g id="text_4">
      <!-- 55 -->
      <g transform="translate(359.848425 596.793316)scale(0.0694 -0.0694)">
       <use xlink:href="#DejaVuSerif-35"/>
       <use x="63.623047" xlink:href="#DejaVuSerif-35"/>
      </g>
     </g>
    </g>
    <g id="xtick_5">
     <g id="line2d_5">
      <g>
       <use style="stroke:#000000;stroke-width:0.8;" x="462.965333" xlink:href="#mb47cd4bf06" y="584.52"/>
      </g>
     </g>
     <g id="text_5">
      <!-- 60 -->
      <defs>
       <path d="M 32.71875 3.421875 
Q 39.59375 3.421875 43.296875 8.46875 
Q 47.015625 13.53125 47.015625 23 
Q 47.015625 32.46875 43.296875 37.515625 
Q 39.59375 42.578125 32.71875 42.578125 
Q 25.734375 42.578125 22.0625 37.6875 
Q 18.40625 32.8125 18.40625 23.578125 
Q 18.40625 13.875 22.109375 8.640625 
Q 25.828125 3.421875 32.71875 3.421875 
z
M 16.796875 40.140625 
Q 20.125 43.796875 24.3125 45.59375 
Q 28.515625 47.40625 33.796875 47.40625 
Q 44.671875 47.40625 51 40.859375 
Q 57.328125 34.328125 57.328125 23 
Q 57.328125 11.921875 50.515625 5.25 
Q 43.703125 -1.421875 32.328125 -1.421875 
Q 19.96875 -1.421875 13.328125 7.78125 
Q 6.6875 17 6.6875 34.078125 
Q 6.6875 53.21875 14.546875 63.71875 
Q 22.40625 74.21875 36.71875 74.21875 
Q 40.578125 74.21875 44.828125 73.484375 
Q 49.078125 72.75 53.515625 71.296875 
L 53.515625 59.28125 
L 48 59.28125 
Q 47.40625 64.203125 44.234375 66.796875 
Q 41.0625 69.390625 35.6875 69.390625 
Q 26.21875 69.390625 21.578125 62.203125 
Q 16.9375 55.03125 16.796875 40.140625 
z
" id="DejaVuSerif-36"/>
      </defs>
      <g transform="translate(458.549758 596.793316)scale(0.0694 -0.0694)">
       <use xlink:href="#DejaVuSerif-36"/>
       <use x="63.623047" xlink:href="#DejaVuSerif-30"/>
      </g>
     </g>
    </g>
    <g id="xtick_6">
     <g id="line2d_6">
      <g>
       <use style="stroke:#000000;stroke-width:0.8;" x="561.666667" xlink:href="#mb47cd4bf06" y="584.52"/>
      </g>
     </g>
     <g id="text_6">
      <!-- 65 -->
      <g transform="translate(557.251092 596.793316)scale(0.0694 -0.0694)">
       <use xlink:href="#DejaVuSerif-36"/>
       <use x="63.623047" xlink:href="#DejaVuSerif-35"/>
      </g>
     </g>
    </g>
    <g id="xtick_7">
     <g id="line2d_7">
      <g>
       <use style="stroke:#000000;stroke-width:0.8;" x="660.368" xlink:href="#mb47cd4bf06" y="584.52"/>
      </g>
     </g>
     <g id="text_7">
      <!-- 70 -->
      <defs>
       <path d="M 56.390625 67.921875 
L 27.875 0 
L 20.609375 0 
L 47.796875 64.890625 
L 14.109375 64.890625 
L 14.109375 55.90625 
L 8.40625 55.90625 
L 8.40625 72.90625 
L 56.390625 72.90625 
z
" id="DejaVuSerif-37"/>
      </defs>
      <g transform="translate(655.952425 596.793316)scale(0.0694 -0.0694)">
       <use xlink:href="#DejaVuSerif-37"/>
       <use x="63.623047" xlink:href="#DejaVuSerif-30"/>
      </g>
     </g>
    </g>
   </g>
   <g id="matplotlib.axis_2">
    <g id="ytick_1">
     <g id="line2d_8">
      <defs>
       <path d="M 0 0 
L -3.5 0 
" id="mdf35f13dfb" style="stroke:#000000;stroke-width:0.8;"/>
      </defs>
      <g>
       <use style="stroke:#000000;stroke-width:0.8;" x="68.16" xlink:href="#mdf35f13dfb" y="584.52"/>
      </g>
     </g>
     <g id="text_8">
      <!-- 100 -->
      <defs>
       <path d="M 14.203125 0 
L 14.203125 5.171875 
L 26.90625 5.171875 
L 26.90625 65.828125 
L 12.203125 56.296875 
L 12.203125 62.703125 
L 29.984375 74.21875 
L 36.71875 74.21875 
L 36.71875 5.171875 
L 49.421875 5.171875 
L 49.421875 0 
z
" id="DejaVuSerif-31"/>
      </defs>
      <g transform="translate(47.913275 587.156658)scale(0.0694 -0.0694)">
       <use xlink:href="#DejaVuSerif-31"/>
       <use x="63.623047" xlink:href="#DejaVuSerif-30"/>
       <use x="127.246094" xlink:href="#DejaVuSerif-30"/>
      </g>
     </g>
    </g>
    <g id="ytick_2">
     <g id="line2d_9">
      <g>
       <use style="stroke:#000000;stroke-width:0.8;" x="68.16" xlink:href="#mdf35f13dfb" y="518.02"/>
      </g>
     </g>
     <g id="text_9">
      <!-- 125 -->
      <defs>
       <path d="M 12.796875 55.515625 
L 7.328125 55.515625 
L 7.328125 68.5 
Q 12.546875 71.296875 17.84375 72.75 
Q 23.140625 74.21875 28.21875 74.21875 
Q 39.59375 74.21875 46.1875 68.703125 
Q 52.78125 63.1875 52.78125 53.71875 
Q 52.78125 43.015625 37.84375 28.125 
Q 36.671875 27 36.078125 26.421875 
L 17.671875 8.015625 
L 48.09375 8.015625 
L 48.09375 17 
L 53.8125 17 
L 53.8125 0 
L 6.78125 0 
L 6.78125 5.328125 
L 28.90625 27.390625 
Q 36.234375 34.71875 39.359375 40.84375 
Q 42.484375 46.96875 42.484375 53.71875 
Q 42.484375 61.078125 38.640625 65.234375 
Q 34.8125 69.390625 28.078125 69.390625 
Q 21.09375 69.390625 17.28125 65.921875 
Q 13.484375 62.453125 12.796875 55.515625 
z
" id="DejaVuSerif-32"/>
      </defs>
      <g transform="translate(47.913275 520.656658)scale(0.0694 -0.0694)">
       <use xlink:href="#DejaVuSerif-31"/>
       <use x="63.623047" xlink:href="#DejaVuSerif-32"/>
       <use x="127.246094" xlink:href="#DejaVuSerif-35"/>
      </g>
     </g>
    </g>
    <g id="ytick_3">
     <g id="line2d_10">
      <g>
       <use style="stroke:#000000;stroke-width:0.8;" x="68.16" xlink:href="#mdf35f13dfb" y="451.52"/>
      </g>
     </g>
     <g id="text_10">
      <!-- 150 -->
      <g transform="translate(47.913275 454.156658)scale(0.0694 -0.0694)">
       <use xlink:href="#DejaVuSerif-31"/>
       <use x="63.623047" xlink:href="#DejaVuSerif-35"/>
       <use x="127.246094" xlink:href="#DejaVuSerif-30"/>
      </g>
     </g>
    </g>
    <g id="ytick_4">
     <g id="line2d_11">
      <g>
       <use style="stroke:#000000;stroke-width:0.8;" x="68.16" xlink:href="#mdf35f13dfb" y="385.02"/>
      </g>
     </g>
     <g id="text_11">
      <!-- 175 -->
      <g transform="translate(47.913275 387.656658)scale(0.0694 -0.0694)">
       <use xlink:href="#DejaVuSerif-31"/>
       <use x="63.623047" xlink:href="#DejaVuSerif-37"/>
       <use x="127.246094" xlink:href="#DejaVuSerif-35"/>
      </g>
     </g>
    </g>
    <g id="ytick_5">
     <g id="line2d_12">
      <g>
       <use style="stroke:#000000;stroke-width:0.8;" x="68.16" xlink:href="#mdf35f13dfb" y="318.52"/>
      </g>
     </g>
     <g id="text_12">
      <!-- 200 -->
      <g transform="translate(47.913275 321.156658)scale(0.0694 -0.0694)">
       <use xlink:href="#DejaVuSerif-32"/>
       <use x="63.623047" xlink:href="#DejaVuSerif-30"/>
       <use x="127.246094" xlink:href="#DejaVuSerif-30"/>
      </g>
     </g>
    </g>
    <g id="ytick_6">
     <g id="line2d_13">
      <g>
       <use style="stroke:#000000;stroke-width:0.8;" x="68.16" xlink:href="#mdf35f13dfb" y="252.02"/>
      </g>
     </g>
     <g id="text_13">
      <!-- 225 -->
      <g transform="translate(47.913275 254.656658)scale(0.0694 -0.0694)">
       <use xlink:href="#DejaVuSerif-32"/>
       <use x="63.623047" xlink:href="#DejaVuSerif-32"/>
       <use x="127.246094" xlink:href="#DejaVuSerif-35"/>
      </g>
     </g>
    </g>
    <g id="ytick_7">
     <g id="line2d_14">
      <g>
       <use style="stroke:#000000;stroke-width:0.8;" x="68.16" xlink:href="#mdf35f13dfb" y="185.52"/>
      </g>
     </g>
     <g id="text_14">
      <!-- 250 -->
      <g transform="translate(47.913275 188.156658)scale(0.0694 -0.0694)">
       <use xlink:href="#DejaVuSerif-32"/>
       <use x="63.623047" xlink:href="#DejaVuSerif-35"/>
       <use x="127.246094" xlink:href="#DejaVuSerif-30"/>
      </g>
     </g>
    </g>
    <g id="ytick_8">
     <g id="line2d_15">
      <g>
       <use style="stroke:#000000;stroke-width:0.8;" x="68.16" xlink:href="#mdf35f13dfb" y="119.02"/>
      </g>
     </g>
     <g id="text_15">
      <!-- 275 -->
      <g transform="translate(47.913275 121.656658)scale(0.0694 -0.0694)">
       <use xlink:href="#DejaVuSerif-32"/>
       <use x="63.623047" xlink:href="#DejaVuSerif-37"/>
       <use x="127.246094" xlink:href="#DejaVuSerif-35"/>
      </g>
     </g>
    </g>
    <g id="ytick_9">
     <g id="line2d_16">
      <g>
       <use style="stroke:#000000;stroke-width:0.8;" x="68.16" xlink:href="#mdf35f13dfb" y="52.52"/>
      </g>
     </g>
     <g id="text_16">
      <!-- 300 -->
      <defs>
       <path d="M 9.71875 69.828125 
Q 15.4375 71.96875 20.671875 73.09375 
Q 25.921875 74.21875 30.515625 74.21875 
Q 41.21875 74.21875 47.21875 69.59375 
Q 53.21875 64.984375 53.21875 56.78125 
Q 53.21875 50.203125 49.0625 45.78125 
Q 44.921875 41.359375 37.3125 39.796875 
Q 46.296875 38.53125 51.25 33.28125 
Q 56.203125 28.03125 56.203125 19.671875 
Q 56.203125 9.46875 49.34375 4.015625 
Q 42.484375 -1.421875 29.59375 -1.421875 
Q 23.875 -1.421875 18.421875 -0.1875 
Q 12.984375 1.03125 7.625 3.515625 
L 7.625 17.671875 
L 13.09375 17.671875 
Q 13.578125 10.640625 17.828125 7.03125 
Q 22.078125 3.421875 29.78125 3.421875 
Q 37.25 3.421875 41.578125 7.734375 
Q 45.90625 12.0625 45.90625 19.578125 
Q 45.90625 28.171875 41.453125 32.59375 
Q 37.015625 37.015625 28.421875 37.015625 
L 23.78125 37.015625 
L 23.78125 42 
L 26.21875 42 
Q 34.765625 42 39.03125 45.53125 
Q 43.3125 49.078125 43.3125 56.203125 
Q 43.3125 62.59375 39.796875 65.984375 
Q 36.28125 69.390625 29.6875 69.390625 
Q 23.09375 69.390625 19.453125 66.265625 
Q 15.828125 63.140625 15.1875 56.984375 
L 9.71875 56.984375 
z
" id="DejaVuSerif-33"/>
      </defs>
      <g transform="translate(47.913275 55.156658)scale(0.0694 -0.0694)">
       <use xlink:href="#DejaVuSerif-33"/>
       <use x="63.623047" xlink:href="#DejaVuSerif-30"/>
       <use x="127.246094" xlink:href="#DejaVuSerif-30"/>
      </g>
     </g>
    </g>
   </g>
   <g id="patch_3">
    <path d="M 68.16 584.52 
L 68.16 52.52 
" style="fill:none;stroke:#000000;stroke-linecap:square;stroke-linejoin:miter;stroke-width:0.8;"/>
   </g>
   <g id="patch_4">
    <path d="M 660.368 584.52 
L 660.368 52.52 
" style="fill:none;stroke:#000000;stroke-linecap:square;stroke-linejoin:miter;stroke-width:0.8;"/>
   </g>
   <g id="patch_5">
    <path d="M 68.16 584.52 
L 660.368 584.52 
" style="fill:none;stroke:#000000;stroke-linecap:square;stroke-linejoin:miter;stroke-width:0.8;"/>
   </g>
   <g id="patch_6">
    <path d="M 68.16 52.52 
L 660.368 52.52 
" style="fill:none;stroke:#000000;stroke-linecap:square;stroke-linejoin:miter;stroke-width:0.8;"/>
   </g>
  </g>
  <g id="axes_2">
   <g id="patch_7">
    <path clip-path="url(#p62d7e4f884)" d="M 697.381 584.52 
L 697.381 554.964444 
L 697.381 82.075556 
L 697.381 52.52 
L 723.981 52.52 
L 723.981 82.075556 
L 723.981 554.964444 
L 723.981 584.52 
z
" style="fill:#ffffff;stroke:#ffffff;stroke-linejoin:miter;stroke-width:0.01;"/>
   </g>
   <g id="QuadMesh_1">
    <path clip-path="url(#p62d7e4f884)" d="M 697.381 584.52 
L 723.981 584.52 
L 723.981 554.964444 
L 697.381 554.964444 
L 697.381 584.52 
" style="fill:#fcfcfc;"/>
    <path clip-path="url(#p62d7e4f884)" d="M 697.381 554.964444 
L 723.981 554.964444 
L 723.981 525.408889 
L 697.381 525.408889 
L 697.381 554.964444 
" style="fill:#f5f5f5;"/>
    <path clip-path="url(#p62d7e4f884)" d="M 697.381 525.408889 
L 723.981 525.408889 
L 723.981 495.853333 
L 697.381 495.853333 
L 697.381 525.408889 
" style="fill:#eeeeee;"/>
    <path clip-path="url(#p62d7e4f884)" d="M 697.381 495.853333 
L 723.981 495.853333 
L 723.981 466.297778 
L 697.381 466.297778 
L 697.381 495.853333 
" style="fill:#e4e4e4;"/>
    <path clip-path="url(#p62d7e4f884)" d="M 697.381 466.297778 
L 723.981 466.297778 
L 723.981 436.742222 
L 697.381 436.742222 
L 697.381 466.297778 
" style="fill:#d9d9d9;"/>
    <path clip-path="url(#p62d7e4f884)" d="M 697.381 436.742222 
L 723.981 436.742222 
L 723.981 407.186667 
L 697.381 407.186667 
L 697.381 436.742222 
" style="fill:#cccccc;"/>
    <path clip-path="url(#p62d7e4f884)" d="M 697.381 407.186667 
L 723.981 407.186667 
L 723.981 377.631111 
L 697.381 377.631111 
L 697.381 407.186667 
" style="fill:#c0c0c0;"/>
    <path clip-path="url(#p62d7e4f884)" d="M 697.381 377.631111 
L 723.981 377.631111 
L 723.981 348.075556 
L 697.381 348.075556 
L 697.381 377.631111 
" style="fill:#b0b0b0;"/>
    <path clip-path="url(#p62d7e4f884)" d="M 697.381 348.075556 
L 723.981 348.075556 
L 723.981 318.52 
L 697.381 318.52 
L 697.381 348.075556 
" style="fill:#9f9f9f;"/>
    <path clip-path="url(#p62d7e4f884)" d="M 697.381 318.52 
L 723.981 318.52 
L 723.981 288.964444 
L 697.381 288.964444 
L 697.381 318.52 
" style="fill:#8e8e8e;"/>
    <path clip-path="url(#p62d7e4f884)" d="M 697.381 288.964444 
L 723.981 288.964444 
L 723.981 259.408889 
L 697.381 259.408889 
L 697.381 288.964444 
" style="fill:#7e7e7e;"/>
    <path clip-path="url(#p62d7e4f884)" d="M 697.381 259.408889 
L 723.981 259.408889 
L 723.981 229.853333 
L 697.381 229.853333 
L 697.381 259.408889 
" style="fill:#6f6f6f;"/>
    <path clip-path="url(#p62d7e4f884)" d="M 697.381 229.853333 
L 723.981 229.853333 
L 723.981 200.297778 
L 697.381 200.297778 
L 697.381 229.853333 
" style="fill:#616161;"/>
    <path clip-path="url(#p62d7e4f884)" d="M 697.381 200.297778 
L 723.981 200.297778 
L 723.981 170.742222 
L 697.381 170.742222 
L 697.381 200.297778 
" style="fill:#515151;"/>
    <path clip-path="url(#p62d7e4f884)" d="M 697.381 170.742222 
L 723.981 170.742222 
L 723.981 141.186667 
L 697.381 141.186667 
L 697.381 170.742222 
" style="fill:#3d3d3d;"/>
    <path clip-path="url(#p62d7e4f884)" d="M 697.381 141.186667 
L 723.981 141.186667 
L 723.981 111.631111 
L 697.381 111.631111 
L 697.381 141.186667 
" style="fill:#292929;"/>
    <path clip-path="url(#p62d7e4f884)" d="M 697.381 111.631111 
L 723.981 111.631111 
L 723.981 82.075556 
L 697.381 82.075556 
L 697.381 111.631111 
" style="fill:#181818;"/>
    <path clip-path="url(#p62d7e4f884)" d="M 697.381 82.075556 
L 723.981 82.075556 
L 723.981 52.52 
L 697.381 52.52 
L 697.381 82.075556 
" style="fill:#080808;"/>
   </g>
   <g id="matplotlib.axis_3"/>
   <g id="matplotlib.axis_4">
    <g id="ytick_10">
     <g id="line2d_17">
      <defs>
       <path d="M 0 0 
L 3.5 0 
" id="mec07bf12cc" style="stroke:#000000;stroke-width:0.8;"/>
      </defs>
      <g>
       <use style="stroke:#000000;stroke-width:0.8;" x="723.981" xlink:href="#mec07bf12cc" y="584.52"/>
      </g>
     </g>
     <g id="text_17">
      <!-- −0.000078 -->
      <defs>
       <path d="M 10.59375 35.296875 
L 73.1875 35.296875 
L 73.1875 27.390625 
L 10.59375 27.390625 
z
" id="DejaVuSerif-2212"/>
       <path d="M 9.421875 5.078125 
Q 9.421875 7.8125 11.28125 9.71875 
Q 13.140625 11.625 15.921875 11.625 
Q 18.609375 11.625 20.5 9.71875 
Q 22.40625 7.8125 22.40625 5.078125 
Q 22.40625 2.390625 20.5 0.484375 
Q 18.609375 -1.421875 15.921875 -1.421875 
Q 13.140625 -1.421875 11.28125 0.453125 
Q 9.421875 2.34375 9.421875 5.078125 
z
" id="DejaVuSerif-2e"/>
       <path d="M 46.578125 19.921875 
Q 46.578125 27.734375 42.6875 32.046875 
Q 38.8125 36.375 31.78125 36.375 
Q 24.75 36.375 20.875 32.046875 
Q 17 27.734375 17 19.921875 
Q 17 12.0625 20.875 7.734375 
Q 24.75 3.421875 31.78125 3.421875 
Q 38.8125 3.421875 42.6875 7.734375 
Q 46.578125 12.0625 46.578125 19.921875 
z
M 44.578125 55.328125 
Q 44.578125 61.96875 41.203125 65.671875 
Q 37.84375 69.390625 31.78125 69.390625 
Q 25.78125 69.390625 22.390625 65.671875 
Q 19 61.96875 19 55.328125 
Q 19 48.640625 22.390625 44.921875 
Q 25.78125 41.21875 31.78125 41.21875 
Q 37.84375 41.21875 41.203125 44.921875 
Q 44.578125 48.640625 44.578125 55.328125 
z
M 39.3125 38.8125 
Q 47.609375 37.703125 52.25 32.6875 
Q 56.890625 27.6875 56.890625 19.921875 
Q 56.890625 9.671875 50.390625 4.125 
Q 43.890625 -1.421875 31.78125 -1.421875 
Q 19.734375 -1.421875 13.203125 4.125 
Q 6.6875 9.671875 6.6875 19.921875 
Q 6.6875 27.6875 11.328125 32.6875 
Q 15.96875 37.703125 24.3125 38.8125 
Q 16.9375 40.140625 13 44.40625 
Q 9.078125 48.6875 9.078125 55.328125 
Q 9.078125 64.109375 15.125 69.15625 
Q 21.1875 74.21875 31.78125 74.21875 
Q 42.390625 74.21875 48.4375 69.15625 
Q 54.5 64.109375 54.5 55.328125 
Q 54.5 48.6875 50.5625 44.40625 
Q 46.625 40.140625 39.3125 38.8125 
z
" id="DejaVuSerif-38"/>
      </defs>
      <g transform="translate(730.981 587.156658)scale(0.0694 -0.0694)">
       <use xlink:href="#DejaVuSerif-2212"/>
       <use x="83.789062" xlink:href="#DejaVuSerif-30"/>
       <use x="147.412109" xlink:href="#DejaVuSerif-2e"/>
       <use x="179.199219" xlink:href="#DejaVuSerif-30"/>
       <use x="242.822266" xlink:href="#DejaVuSerif-30"/>
       <use x="306.445312" xlink:href="#DejaVuSerif-30"/>
       <use x="370.068359" xlink:href="#DejaVuSerif-30"/>
       <use x="433.691406" xlink:href="#DejaVuSerif-37"/>
       <use x="497.314453" xlink:href="#DejaVuSerif-38"/>
      </g>
     </g>
    </g>
    <g id="ytick_11">
     <g id="line2d_18">
      <g>
       <use style="stroke:#000000;stroke-width:0.8;" x="723.981" xlink:href="#mec07bf12cc" y="525.408889"/>
      </g>
     </g>
     <g id="text_18">
      <!-- −0.000074 -->
      <g transform="translate(730.981 528.045547)scale(0.0694 -0.0694)">
       <use xlink:href="#DejaVuSerif-2212"/>
       <use x="83.789062" xlink:href="#DejaVuSerif-30"/>
       <use x="147.412109" xlink:href="#DejaVuSerif-2e"/>
       <use x="179.199219" xlink:href="#DejaVuSerif-30"/>
       <use x="242.822266" xlink:href="#DejaVuSerif-30"/>
       <use x="306.445312" xlink:href="#DejaVuSerif-30"/>
       <use x="370.068359" xlink:href="#DejaVuSerif-30"/>
       <use x="433.691406" xlink:href="#DejaVuSerif-37"/>
       <use x="497.314453" xlink:href="#DejaVuSerif-34"/>
      </g>
     </g>
    </g>
    <g id="ytick_12">
     <g id="line2d_19">
      <g>
       <use style="stroke:#000000;stroke-width:0.8;" x="723.981" xlink:href="#mec07bf12cc" y="466.297778"/>
      </g>
     </g>
     <g id="text_19">
      <!-- −0.000070 -->
      <g transform="translate(730.981 468.934436)scale(0.0694 -0.0694)">
       <use xlink:href="#DejaVuSerif-2212"/>
       <use x="83.789062" xlink:href="#DejaVuSerif-30"/>
       <use x="147.412109" xlink:href="#DejaVuSerif-2e"/>
       <use x="179.199219" xlink:href="#DejaVuSerif-30"/>
       <use x="242.822266" xlink:href="#DejaVuSerif-30"/>
       <use x="306.445312" xlink:href="#DejaVuSerif-30"/>
       <use x="370.068359" xlink:href="#DejaVuSerif-30"/>
       <use x="433.691406" xlink:href="#DejaVuSerif-37"/>
       <use x="497.314453" xlink:href="#DejaVuSerif-30"/>
      </g>
     </g>
    </g>
    <g id="ytick_13">
     <g id="line2d_20">
      <g>
       <use style="stroke:#000000;stroke-width:0.8;" x="723.981" xlink:href="#mec07bf12cc" y="407.186667"/>
      </g>
     </g>
     <g id="text_20">
      <!-- −0.000066 -->
      <g transform="translate(730.981 409.823324)scale(0.0694 -0.0694)">
       <use xlink:href="#DejaVuSerif-2212"/>
       <use x="83.789062" xlink:href="#DejaVuSerif-30"/>
       <use x="147.412109" xlink:href="#DejaVuSerif-2e"/>
       <use x="179.199219" xlink:href="#DejaVuSerif-30"/>
       <use x="242.822266" xlink:href="#DejaVuSerif-30"/>
       <use x="306.445312" xlink:href="#DejaVuSerif-30"/>
       <use x="370.068359" xlink:href="#DejaVuSerif-30"/>
       <use x="433.691406" xlink:href="#DejaVuSerif-36"/>
       <use x="497.314453" xlink:href="#DejaVuSerif-36"/>
      </g>
     </g>
    </g>
    <g id="ytick_14">
     <g id="line2d_21">
      <g>
       <use style="stroke:#000000;stroke-width:0.8;" x="723.981" xlink:href="#mec07bf12cc" y="348.075556"/>
      </g>
     </g>
     <g id="text_21">
      <!-- −0.000062 -->
      <g transform="translate(730.981 350.712213)scale(0.0694 -0.0694)">
       <use xlink:href="#DejaVuSerif-2212"/>
       <use x="83.789062" xlink:href="#DejaVuSerif-30"/>
       <use x="147.412109" xlink:href="#DejaVuSerif-2e"/>
       <use x="179.199219" xlink:href="#DejaVuSerif-30"/>
       <use x="242.822266" xlink:href="#DejaVuSerif-30"/>
       <use x="306.445312" xlink:href="#DejaVuSerif-30"/>
       <use x="370.068359" xlink:href="#DejaVuSerif-30"/>
       <use x="433.691406" xlink:href="#DejaVuSerif-36"/>
       <use x="497.314453" xlink:href="#DejaVuSerif-32"/>
      </g>
     </g>
    </g>
    <g id="ytick_15">
     <g id="line2d_22">
      <g>
       <use style="stroke:#000000;stroke-width:0.8;" x="723.981" xlink:href="#mec07bf12cc" y="288.964444"/>
      </g>
     </g>
     <g id="text_22">
      <!-- −0.000058 -->
      <g transform="translate(730.981 291.601102)scale(0.0694 -0.0694)">
       <use xlink:href="#DejaVuSerif-2212"/>
       <use x="83.789062" xlink:href="#DejaVuSerif-30"/>
       <use x="147.412109" xlink:href="#DejaVuSerif-2e"/>
       <use x="179.199219" xlink:href="#DejaVuSerif-30"/>
       <use x="242.822266" xlink:href="#DejaVuSerif-30"/>
       <use x="306.445312" xlink:href="#DejaVuSerif-30"/>
       <use x="370.068359" xlink:href="#DejaVuSerif-30"/>
       <use x="433.691406" xlink:href="#DejaVuSerif-35"/>
       <use x="497.314453" xlink:href="#DejaVuSerif-38"/>
      </g>
     </g>
    </g>
    <g id="ytick_16">
     <g id="line2d_23">
      <g>
       <use style="stroke:#000000;stroke-width:0.8;" x="723.981" xlink:href="#mec07bf12cc" y="229.853333"/>
      </g>
     </g>
     <g id="text_23">
      <!-- −0.000054 -->
      <g transform="translate(730.981 232.489991)scale(0.0694 -0.0694)">
       <use xlink:href="#DejaVuSerif-2212"/>
       <use x="83.789062" xlink:href="#DejaVuSerif-30"/>
       <use x="147.412109" xlink:href="#DejaVuSerif-2e"/>
       <use x="179.199219" xlink:href="#DejaVuSerif-30"/>
       <use x="242.822266" xlink:href="#DejaVuSerif-30"/>
       <use x="306.445312" xlink:href="#DejaVuSerif-30"/>
       <use x="370.068359" xlink:href="#DejaVuSerif-30"/>
       <use x="433.691406" xlink:href="#DejaVuSerif-35"/>
       <use x="497.314453" xlink:href="#DejaVuSerif-34"/>
      </g>
     </g>
    </g>
    <g id="ytick_17">
     <g id="line2d_24">
      <g>
       <use style="stroke:#000000;stroke-width:0.8;" x="723.981" xlink:href="#mec07bf12cc" y="170.742222"/>
      </g>
     </g>
     <g id="text_24">
      <!-- −0.000050 -->
      <g transform="translate(730.981 173.37888)scale(0.0694 -0.0694)">
       <use xlink:href="#DejaVuSerif-2212"/>
       <use x="83.789062" xlink:href="#DejaVuSerif-30"/>
       <use x="147.412109" xlink:href="#DejaVuSerif-2e"/>
       <use x="179.199219" xlink:href="#DejaVuSerif-30"/>
       <use x="242.822266" xlink:href="#DejaVuSerif-30"/>
       <use x="306.445312" xlink:href="#DejaVuSerif-30"/>
       <use x="370.068359" xlink:href="#DejaVuSerif-30"/>
       <use x="433.691406" xlink:href="#DejaVuSerif-35"/>
       <use x="497.314453" xlink:href="#DejaVuSerif-30"/>
      </g>
     </g>
    </g>
    <g id="ytick_18">
     <g id="line2d_25">
      <g>
       <use style="stroke:#000000;stroke-width:0.8;" x="723.981" xlink:href="#mec07bf12cc" y="111.631111"/>
      </g>
     </g>
     <g id="text_25">
      <!-- −0.000046 -->
      <g transform="translate(730.981 114.267769)scale(0.0694 -0.0694)">
       <use xlink:href="#DejaVuSerif-2212"/>
       <use x="83.789062" xlink:href="#DejaVuSerif-30"/>
       <use x="147.412109" xlink:href="#DejaVuSerif-2e"/>
       <use x="179.199219" xlink:href="#DejaVuSerif-30"/>
       <use x="242.822266" xlink:href="#DejaVuSerif-30"/>
       <use x="306.445312" xlink:href="#DejaVuSerif-30"/>
       <use x="370.068359" xlink:href="#DejaVuSerif-30"/>
       <use x="433.691406" xlink:href="#DejaVuSerif-34"/>
       <use x="497.314453" xlink:href="#DejaVuSerif-36"/>
      </g>
     </g>
    </g>
    <g id="ytick_19">
     <g id="line2d_26">
      <g>
       <use style="stroke:#000000;stroke-width:0.8;" x="723.981" xlink:href="#mec07bf12cc" y="52.52"/>
      </g>
     </g>
     <g id="text_26">
      <!-- −0.000042 -->
      <g transform="translate(730.981 55.156658)scale(0.0694 -0.0694)">
       <use xlink:href="#DejaVuSerif-2212"/>
       <use x="83.789062" xlink:href="#DejaVuSerif-30"/>
       <use x="147.412109" xlink:href="#DejaVuSerif-2e"/>
       <use x="179.199219" xlink:href="#DejaVuSerif-30"/>
       <use x="242.822266" xlink:href="#DejaVuSerif-30"/>
       <use x="306.445312" xlink:href="#DejaVuSerif-30"/>
       <use x="370.068359" xlink:href="#DejaVuSerif-30"/>
       <use x="433.691406" xlink:href="#DejaVuSerif-34"/>
       <use x="497.314453" xlink:href="#DejaVuSerif-32"/>
      </g>
     </g>
    </g>
    <g id="text_27">
     <!-- −3.9502e1 -->
     <defs>
      <path d="M 46.78125 32.671875 
Q 43.5 29 39.25 27.1875 
Q 35.015625 25.390625 29.6875 25.390625 
Q 18.84375 25.390625 12.5625 31.9375 
Q 6.296875 38.484375 6.296875 49.8125 
Q 6.296875 60.890625 13.109375 67.546875 
Q 19.921875 74.21875 31.296875 74.21875 
Q 43.65625 74.21875 50.265625 65.015625 
Q 56.890625 55.8125 56.890625 38.71875 
Q 56.890625 19.578125 49.015625 9.078125 
Q 41.15625 -1.421875 26.90625 -1.421875 
Q 23.046875 -1.421875 18.796875 -0.6875 
Q 14.546875 0.046875 10.109375 1.515625 
L 10.109375 13.625 
L 15.578125 13.625 
Q 16.21875 8.6875 19.390625 6.046875 
Q 22.5625 3.421875 27.875 3.421875 
Q 37.359375 3.421875 41.984375 10.5625 
Q 46.625 17.71875 46.78125 32.671875 
z
M 30.90625 69.390625 
Q 23.96875 69.390625 20.28125 64.328125 
Q 16.609375 59.28125 16.609375 49.8125 
Q 16.609375 40.328125 20.28125 35.25 
Q 23.96875 30.171875 30.90625 30.171875 
Q 37.84375 30.171875 41.53125 35.078125 
Q 45.21875 39.984375 45.21875 49.21875 
Q 45.21875 58.9375 41.5 64.15625 
Q 37.796875 69.390625 30.90625 69.390625 
z
" id="DejaVuSerif-39"/>
      <path d="M 54.203125 25 
L 15.484375 25 
L 15.484375 24.609375 
Q 15.484375 14.109375 19.4375 8.765625 
Q 23.390625 3.421875 31.109375 3.421875 
Q 37.015625 3.421875 40.796875 6.515625 
Q 44.578125 9.625 46.09375 15.71875 
L 53.328125 15.71875 
Q 51.171875 7.171875 45.375 2.875 
Q 39.59375 -1.421875 30.171875 -1.421875 
Q 18.796875 -1.421875 11.890625 6.078125 
Q 4.984375 13.578125 4.984375 25.984375 
Q 4.984375 38.28125 11.765625 45.796875 
Q 18.5625 53.328125 29.59375 53.328125 
Q 41.359375 53.328125 47.65625 46.0625 
Q 53.953125 38.8125 54.203125 25 
z
M 43.609375 30.171875 
Q 43.3125 39.265625 39.765625 43.875 
Q 36.234375 48.484375 29.59375 48.484375 
Q 23.390625 48.484375 19.828125 43.84375 
Q 16.265625 39.203125 15.484375 30.171875 
z
" id="DejaVuSerif-65"/>
     </defs>
     <g transform="translate(685.358816 49.52)scale(0.0694 -0.0694)">
      <use xlink:href="#DejaVuSerif-2212"/>
      <use x="83.789062" xlink:href="#DejaVuSerif-33"/>
      <use x="147.412109" xlink:href="#DejaVuSerif-2e"/>
      <use x="179.199219" xlink:href="#DejaVuSerif-39"/>
      <use x="242.822266" xlink:href="#DejaVuSerif-35"/>
      <use x="306.445312" xlink:href="#DejaVuSerif-30"/>
      <use x="370.068359" xlink:href="#DejaVuSerif-32"/>
      <use x="433.691406" xlink:href="#DejaVuSerif-65"/>
      <use x="492.871094" xlink:href="#DejaVuSerif-31"/>
     </g>
    </g>
   </g>
   <g id="patch_8">
    <path d="M 697.381 584.52 
L 697.381 554.964444 
L 697.381 82.075556 
L 697.381 52.52 
L 723.981 52.52 
L 723.981 82.075556 
L 723.981 554.964444 
L 723.981 584.52 
z
" style="fill:none;stroke:#000000;stroke-linejoin:miter;stroke-width:0.8;"/>
   </g>
  </g>
 </g>
 <defs>
  <clipPath id="p67fed08858">
   <rect height="532" width="592.208" x="68.16" y="52.52"/>
  </clipPath>
  <clipPath id="p62d7e4f884">
   <rect height="532" width="26.6" x="697.381" y="52.52"/>
  </clipPath>
 </defs>
</svg>
