<?xml version="1.0" encoding="utf-8" standalone="no"?>
<!DOCTYPE svg PUBLIC "-//W3C//DTD SVG 1.1//EN"
  "http://www.w3.org/Graphics/SVG/1.1/DTD/svg11.dtd">
<!-- Created with matplotlib (http://matplotlib.org/) -->
<svg height="648pt" version="1.1" viewBox="0 0 864 648" width="864pt" xmlns="http://www.w3.org/2000/svg" xmlns:xlink="http://www.w3.org/1999/xlink">
 <defs>
  <style type="text/css">
*{stroke-linecap:butt;stroke-linejoin:round;}
  </style>
 </defs>
 <g id="figure_1">
  <g id="patch_1">
   <path d="M 0 648 
L 864 648 
L 864 0 
L 0 0 
z
" style="fill:#ffffff;"/>
  </g>
  <g id="axes_1">
   <g id="patch_2">
    <path d="M 68.16 584.52 
L 660.368 584.52 
L 660.368 52.52 
L 68.16 52.52 
z
" style="fill:#ffffff;"/>
   </g>
   <g id="PathCollection_1">
    <path clip-path="url(#pf34614b9fe)" d="M 660.368 584.52 
L 660.368 582.930204 
L 645.286927 584.52 
z
" style="fill:#fcfcfc;"/>
   </g>
   <g id="PathCollection_2">
    <path clip-path="url(#pf34614b9fe)" d="M 660.368 582.930204 
L 660.368 581.06898 
L 627.631036 584.52 
L 645.286927 584.52 
z
" style="fill:#f7f7f7;"/>
   </g>
   <g id="PathCollection_3">
    <path clip-path="url(#pf34614b9fe)" d="M 660.368 581.06898 
L 660.368 579.207755 
L 609.975145 584.52 
L 627.631036 584.52 
z
" style="fill:#f1f1f1;"/>
   </g>
   <g id="PathCollection_4">
    <path clip-path="url(#pf34614b9fe)" d="M 68.16 580.448571 
L 68.16 584.52 
L 75.154583 584.52 
z
" style="fill:#e9e9e9;"/>
    <path clip-path="url(#pf34614b9fe)" d="M 660.368 579.207755 
L 660.368 577.346531 
L 592.319255 584.52 
L 609.975145 584.52 
z
" style="fill:#e9e9e9;"/>
   </g>
   <g id="PathCollection_5">
    <path clip-path="url(#pf34614b9fe)" d="M 100.590438 573.662857 
L 68.16 570.008502 
L 68.16 573.662857 
L 68.16 580.448571 
L 75.154583 584.52 
L 97.537247 584.52 
z
" style="fill:#e0e0e0;"/>
    <path clip-path="url(#pf34614b9fe)" d="M 660.368 577.346531 
L 660.368 575.485306 
L 574.663364 584.52 
L 592.319255 584.52 
z
" style="fill:#e0e0e0;"/>
   </g>
   <g id="PathCollection_6">
    <path clip-path="url(#pf34614b9fe)" d="M 168.271352 573.662857 
L 68.16 562.382021 
L 68.16 570.008502 
L 100.590438 573.662857 
L 97.537247 584.52 
L 119.919912 584.52 
z
" style="fill:#d6d6d6;"/>
    <path clip-path="url(#pf34614b9fe)" d="M 660.368 575.485306 
L 660.368 573.662857 
L 660.368 573.552446 
L 658.252971 573.662857 
L 557.007473 584.52 
L 574.663364 584.52 
z
" style="fill:#d6d6d6;"/>
   </g>
   <g id="PathCollection_7">
    <path clip-path="url(#pf34614b9fe)" d="M 235.952267 573.662857 
L 68.16 554.75554 
L 68.16 562.382021 
L 168.271352 573.662857 
L 119.919912 584.52 
L 142.302576 584.52 
z
" style="fill:#cccccc;"/>
    <path clip-path="url(#pf34614b9fe)" d="M 658.252971 573.662857 
L 660.368 573.552446 
L 660.368 568.252688 
L 556.7316 573.662857 
L 539.351583 584.52 
L 557.007473 584.52 
z
" style="fill:#cccccc;"/>
   </g>
   <g id="PathCollection_8">
    <path clip-path="url(#pf34614b9fe)" d="M 303.633181 573.662857 
L 68.16 547.129059 
L 68.16 554.75554 
L 235.952267 573.662857 
L 142.302576 584.52 
L 164.685241 584.52 
z
" style="fill:#c1c1c1;"/>
    <path clip-path="url(#pf34614b9fe)" d="M 556.7316 573.662857 
L 660.368 568.252688 
L 660.368 562.95293 
L 455.210229 573.662857 
L 521.695692 584.52 
L 539.351583 584.52 
z
" style="fill:#c1c1c1;"/>
   </g>
   <g id="PathCollection_9">
    <path clip-path="url(#pf34614b9fe)" d="M 364.264 573.803859 
L 504.039801 584.52 
L 521.695692 584.52 
L 455.210229 573.662857 
L 660.368 562.95293 
L 660.368 557.653172 
L 364.264 573.12 
L 77.868328 541.091429 
L 68.16 539.023401 
L 68.16 541.091429 
L 68.16 547.129059 
L 303.633181 573.662857 
L 164.685241 584.52 
L 187.067906 584.52 
z
" style="fill:#b4b4b4;"/>
   </g>
   <g id="PathCollection_10">
    <path clip-path="url(#pf34614b9fe)" d="M 364.264 575.157477 
L 486.383911 584.52 
L 504.039801 584.52 
L 364.264 573.803859 
L 187.067906 584.52 
L 209.45057 584.52 
z
" style="fill:#a5a5a5;"/>
    <path clip-path="url(#pf34614b9fe)" d="M 364.264 573.12 
L 660.368 557.653172 
L 660.368 552.353414 
L 364.264 567.908571 
L 124.468302 541.091429 
L 68.16 529.096871 
L 68.16 539.023401 
L 77.868328 541.091429 
z
" style="fill:#a5a5a5;"/>
   </g>
   <g id="PathCollection_11">
    <path clip-path="url(#pf34614b9fe)" d="M 364.264 576.511095 
L 468.72802 584.52 
L 486.383911 584.52 
L 364.264 575.157477 
L 209.45057 584.52 
L 231.833235 584.52 
z
" style="fill:#979797;"/>
    <path clip-path="url(#pf34614b9fe)" d="M 364.264 567.908571 
L 660.368 552.353414 
L 660.368 547.053656 
L 364.264 562.697143 
L 171.068275 541.091429 
L 69.100013 519.377143 
L 68.16 519.105714 
L 68.16 519.377143 
L 68.16 529.096871 
L 124.468302 541.091429 
z
" style="fill:#979797;"/>
   </g>
   <g id="PathCollection_12">
    <path clip-path="url(#pf34614b9fe)" d="M 364.264 577.864712 
L 451.072129 584.52 
L 468.72802 584.52 
L 364.264 576.511095 
L 231.833235 584.52 
L 254.215899 584.52 
z
" style="fill:#888888;"/>
    <path clip-path="url(#pf34614b9fe)" d="M 364.264 562.697143 
L 660.368 547.053656 
L 660.368 541.753898 
L 364.264 557.485714 
L 217.668249 541.091429 
L 114.220622 519.377143 
L 77.04312 508.52 
L 68.16 504.966753 
L 68.16 508.52 
L 68.16 519.105714 
L 69.100013 519.377143 
L 171.068275 541.091429 
z
" style="fill:#888888;"/>
    <path clip-path="url(#pf34614b9fe)" d="M 660.368 507.434286 
L 660.368 486.805714 
L 660.368 465.091429 
L 642.786825 486.805714 
z
" style="fill:#888888;"/>
    <path clip-path="url(#pf34614b9fe)" d="M 120.800711 52.52 
L 68.16 52.52 
L 68.16 63.155569 
z
" style="fill:#888888;"/>
   </g>
   <g id="PathCollection_13">
    <path clip-path="url(#pf34614b9fe)" d="M 364.264 579.21833 
L 433.416239 584.52 
L 451.072129 584.52 
L 364.264 577.864712 
L 254.215899 584.52 
L 276.598564 584.52 
z
" style="fill:#7b7b7b;"/>
    <path clip-path="url(#pf34614b9fe)" d="M 364.264 557.485714 
L 660.368 541.753898 
L 660.368 541.091429 
L 660.368 519.377143 
L 660.368 508.52 
L 660.368 507.434286 
L 642.786825 486.805714 
L 660.368 465.091429 
L 660.368 410.234286 
L 598.371225 486.805714 
L 612.378731 508.52 
L 617.40389 519.377143 
L 574.599945 541.091429 
L 364.264 552.274286 
L 264.268223 541.091429 
L 159.341232 519.377143 
L 124.41976 508.52 
L 70.482384 486.805714 
L 68.16 484.091429 
L 68.16 486.805714 
L 68.16 504.966753 
L 77.04312 508.52 
L 114.220622 519.377143 
L 217.668249 541.091429 
z
" style="fill:#7b7b7b;"/>
    <path clip-path="url(#pf34614b9fe)" d="M 226.082133 52.52 
L 120.800711 52.52 
L 68.16 63.155569 
L 68.16 84.426706 
z
" style="fill:#7b7b7b;"/>
   </g>
   <g id="PathCollection_14">
    <path clip-path="url(#pf34614b9fe)" d="M 364.264 580.571948 
L 415.760348 584.52 
L 433.416239 584.52 
L 364.264 579.21833 
L 276.598564 584.52 
L 298.981228 584.52 
z
" style="fill:#6e6e6e;"/>
    <path clip-path="url(#pf34614b9fe)" d="M 364.264 552.274286 
L 574.599945 541.091429 
L 617.40389 519.377143 
L 612.378731 508.52 
L 598.371225 486.805714 
L 660.368 410.234286 
L 660.368 378.234286 
L 660.368 329.980317 
L 639.217714 378.234286 
L 553.955625 486.805714 
L 563.368414 508.52 
L 561.666667 519.377143 
L 476.57931 541.091429 
L 364.264 547.062857 
L 310.868197 541.091429 
L 204.461841 519.377143 
L 171.7964 508.52 
L 126.219608 486.805714 
L 68.16 418.948571 
L 68.16 484.091429 
L 70.482384 486.805714 
L 124.41976 508.52 
L 159.341232 519.377143 
L 264.268223 541.091429 
z
" style="fill:#6e6e6e;"/>
    <path clip-path="url(#pf34614b9fe)" d="M 331.363556 52.52 
L 226.082133 52.52 
L 68.16 84.426706 
L 68.16 105.697843 
z
" style="fill:#6e6e6e;"/>
   </g>
   <g id="PathCollection_15">
    <path clip-path="url(#pf34614b9fe)" d="M 364.264 581.925566 
L 398.104457 584.52 
L 415.760348 584.52 
L 364.264 580.571948 
L 298.981228 584.52 
L 321.363893 584.52 
z
" style="fill:#626262;"/>
    <path clip-path="url(#pf34614b9fe)" d="M 364.264 547.062857 
L 476.57931 541.091429 
L 561.666667 519.377143 
L 563.368414 508.52 
L 553.955625 486.805714 
L 639.217714 378.234286 
L 660.368 329.980317 
L 660.368 269.662857 
L 660.368 161.091429 
L 660.368 52.52 
L 364.264 52.52 
L 331.363556 52.52 
L 68.16 105.697843 
L 68.16 126.96898 
L 364.264 85.091429 
L 617.597422 161.091429 
L 630.099591 269.662857 
L 588.457029 378.234286 
L 509.540025 486.805714 
L 514.358097 508.52 
L 505.929443 519.377143 
L 378.558676 541.091429 
L 364.264 541.851429 
L 357.46817 541.091429 
L 249.582451 519.377143 
L 219.17304 508.52 
L 181.956831 486.805714 
L 91.333357 378.234286 
L 68.16 371.826792 
L 68.16 378.234286 
L 68.16 418.948571 
L 126.219608 486.805714 
L 171.7964 508.52 
L 204.461841 519.377143 
L 310.868197 541.091429 
z
" style="fill:#626262;"/>
   </g>
   <g id="PathCollection_16">
    <path clip-path="url(#pf34614b9fe)" d="M 364.264 583.279184 
L 380.448566 584.52 
L 398.104457 584.52 
L 364.264 581.925566 
L 321.363893 584.52 
L 343.746557 584.52 
z
" style="fill:#555555;"/>
    <path clip-path="url(#pf34614b9fe)" d="M 364.264 541.851429 
L 378.558676 541.091429 
L 505.929443 519.377143 
L 514.358097 508.52 
L 509.540025 486.805714 
L 588.457029 378.234286 
L 630.099591 269.662857 
L 617.597422 161.091429 
L 364.264 85.091429 
L 68.16 126.96898 
L 68.16 148.240117 
L 364.264 132.468052 
L 459.675289 161.091429 
L 566.930738 269.662857 
L 537.696343 378.234286 
L 465.124425 486.805714 
L 465.347779 508.52 
L 450.19222 519.377143 
L 364.264 533.349814 
L 294.70306 519.377143 
L 266.54968 508.52 
L 237.694055 486.805714 
L 153.128974 378.234286 
L 68.16 354.740141 
L 68.16 371.826792 
L 91.333357 378.234286 
L 181.956831 486.805714 
L 219.17304 508.52 
L 249.582451 519.377143 
L 357.46817 541.091429 
z
" style="fill:#555555;"/>
   </g>
   <g id="PathCollection_17">
    <path clip-path="url(#pf34614b9fe)" d="M 364.264 584.52 
L 380.448566 584.52 
L 364.264 583.279184 
L 343.746557 584.52 
z
" style="fill:#444444;"/>
    <path clip-path="url(#pf34614b9fe)" d="M 364.264 533.349814 
L 450.19222 519.377143 
L 465.347779 508.52 
L 465.124425 486.805714 
L 537.696343 378.234286 
L 566.930738 269.662857 
L 459.675289 161.091429 
L 364.264 132.468052 
L 68.16 148.240117 
L 68.16 161.091429 
L 68.16 170.914558 
L 364.264 177.594286 
L 503.761884 269.662857 
L 486.935657 378.234286 
L 420.708825 486.805714 
L 416.337462 508.52 
L 394.454996 519.377143 
L 364.264 524.28646 
L 339.82367 519.377143 
L 313.92632 508.52 
L 293.431278 486.805714 
L 214.924591 378.234286 
L 68.16 337.653489 
L 68.16 354.740141 
L 153.128974 378.234286 
L 237.694055 486.805714 
L 266.54968 508.52 
L 294.70306 519.377143 
z
" style="fill:#444444;"/>
   </g>
   <g id="PathCollection_18">
    <path clip-path="url(#pf34614b9fe)" d="M 364.264 524.28646 
L 394.454996 519.377143 
L 416.337462 508.52 
L 420.708825 486.805714 
L 486.935657 378.234286 
L 503.761884 269.662857 
L 364.264 177.594286 
L 68.16 170.914558 
L 68.16 195.730884 
L 364.264 219.285714 
L 440.593031 269.662857 
L 436.174971 378.234286 
L 376.293225 486.805714 
L 367.327145 508.52 
L 364.264 509.822857 
L 361.30296 508.52 
L 349.168502 486.805714 
L 276.720209 378.234286 
L 68.16 320.566838 
L 68.16 337.653489 
L 214.924591 378.234286 
L 293.431278 486.805714 
L 313.92632 508.52 
L 339.82367 519.377143 
z
" style="fill:#333333;"/>
   </g>
   <g id="PathCollection_19">
    <path clip-path="url(#pf34614b9fe)" d="M 364.264 509.822857 
L 367.327145 508.52 
L 376.293225 486.805714 
L 436.174971 378.234286 
L 440.593031 269.662857 
L 364.264 219.285714 
L 68.16 195.730884 
L 68.16 220.547211 
L 364.264 260.977143 
L 377.424178 269.662857 
L 385.414286 378.234286 
L 364.264 417.714805 
L 338.515826 378.234286 
L 68.16 303.480187 
L 68.16 320.566838 
L 276.720209 378.234286 
L 349.168502 486.805714 
L 361.30296 508.52 
z
" style="fill:#232323;"/>
   </g>
   <g id="PathCollection_20">
    <path clip-path="url(#pf34614b9fe)" d="M 364.264 417.714805 
L 385.414286 378.234286 
L 377.424178 269.662857 
L 364.264 260.977143 
L 68.16 220.547211 
L 68.16 245.363537 
L 231.888094 269.662857 
L 68.16 286.393536 
L 68.16 303.480187 
L 338.515826 378.234286 
z
" style="fill:#151515;"/>
   </g>
   <g id="PathCollection_21">
    <path clip-path="url(#pf34614b9fe)" d="M 231.888094 269.662857 
L 68.16 245.363537 
L 68.16 269.662857 
L 68.16 286.393536 
z
" style="fill:#070707;"/>
   </g>
   <g id="matplotlib.axis_1">
    <g id="xtick_1">
     <g id="line2d_1">
      <defs>
       <path d="M 0 0 
L 0 3.5 
" id="m47736ae2ca" style="stroke:#000000;stroke-width:0.8;"/>
      </defs>
      <g>
       <use style="stroke:#000000;stroke-width:0.8;" x="68.16" xlink:href="#m47736ae2ca" y="584.52"/>
      </g>
     </g>
     <g id="text_1">
      <!-- 3.0 -->
      <defs>
       <path d="M 9.71875 69.828125 
Q 15.4375 71.96875 20.671875 73.09375 
Q 25.921875 74.21875 30.515625 74.21875 
Q 41.21875 74.21875 47.21875 69.59375 
Q 53.21875 64.984375 53.21875 56.78125 
Q 53.21875 50.203125 49.0625 45.78125 
Q 44.921875 41.359375 37.3125 39.796875 
Q 46.296875 38.53125 51.25 33.28125 
Q 56.203125 28.03125 56.203125 19.671875 
Q 56.203125 9.46875 49.34375 4.015625 
Q 42.484375 -1.421875 29.59375 -1.421875 
Q 23.875 -1.421875 18.421875 -0.1875 
Q 12.984375 1.03125 7.625 3.515625 
L 7.625 17.671875 
L 13.09375 17.671875 
Q 13.578125 10.640625 17.828125 7.03125 
Q 22.078125 3.421875 29.78125 3.421875 
Q 37.25 3.421875 41.578125 7.734375 
Q 45.90625 12.0625 45.90625 19.578125 
Q 45.90625 28.171875 41.453125 32.59375 
Q 37.015625 37.015625 28.421875 37.015625 
L 23.78125 37.015625 
L 23.78125 42 
L 26.21875 42 
Q 34.765625 42 39.03125 45.53125 
Q 43.3125 49.078125 43.3125 56.203125 
Q 43.3125 62.59375 39.796875 65.984375 
Q 36.28125 69.390625 29.6875 69.390625 
Q 23.09375 69.390625 19.453125 66.265625 
Q 15.828125 63.140625 15.1875 56.984375 
L 9.71875 56.984375 
z
" id="DejaVuSerif-33"/>
       <path d="M 9.421875 5.078125 
Q 9.421875 7.8125 11.28125 9.71875 
Q 13.140625 11.625 15.921875 11.625 
Q 18.609375 11.625 20.5 9.71875 
Q 22.40625 7.8125 22.40625 5.078125 
Q 22.40625 2.390625 20.5 0.484375 
Q 18.609375 -1.421875 15.921875 -1.421875 
Q 13.140625 -1.421875 11.28125 0.453125 
Q 9.421875 2.34375 9.421875 5.078125 
z
" id="DejaVuSerif-2e"/>
       <path d="M 31.78125 3.421875 
Q 39.265625 3.421875 42.96875 11.625 
Q 46.6875 19.828125 46.6875 36.375 
Q 46.6875 52.984375 42.96875 61.1875 
Q 39.265625 69.390625 31.78125 69.390625 
Q 24.3125 69.390625 20.59375 61.1875 
Q 16.890625 52.984375 16.890625 36.375 
Q 16.890625 19.828125 20.59375 11.625 
Q 24.3125 3.421875 31.78125 3.421875 
z
M 31.78125 -1.421875 
Q 19.921875 -1.421875 13.25 8.53125 
Q 6.59375 18.5 6.59375 36.375 
Q 6.59375 54.296875 13.25 64.25 
Q 19.921875 74.21875 31.78125 74.21875 
Q 43.703125 74.21875 50.34375 64.25 
Q 56.984375 54.296875 56.984375 36.375 
Q 56.984375 18.5 50.34375 8.53125 
Q 43.703125 -1.421875 31.78125 -1.421875 
z
" id="DejaVuSerif-30"/>
      </defs>
      <g transform="translate(62.641616 596.793316)scale(0.0694 -0.0694)">
       <use xlink:href="#DejaVuSerif-33"/>
       <use x="63.623047" xlink:href="#DejaVuSerif-2e"/>
       <use x="95.410156" xlink:href="#DejaVuSerif-30"/>
      </g>
     </g>
    </g>
    <g id="xtick_2">
     <g id="line2d_2">
      <g>
       <use style="stroke:#000000;stroke-width:0.8;" x="142.186" xlink:href="#m47736ae2ca" y="584.52"/>
      </g>
     </g>
     <g id="text_2">
      <!-- 3.5 -->
      <defs>
       <path d="M 50.296875 72.90625 
L 50.296875 64.890625 
L 16.890625 64.890625 
L 16.890625 44 
Q 19.4375 45.75 22.828125 46.625 
Q 26.21875 47.515625 30.421875 47.515625 
Q 42.234375 47.515625 49.0625 40.96875 
Q 55.90625 34.421875 55.90625 23.09375 
Q 55.90625 11.53125 49 5.046875 
Q 42.09375 -1.421875 29.59375 -1.421875 
Q 24.5625 -1.421875 19.28125 -0.1875 
Q 14.015625 1.03125 8.5 3.515625 
L 8.5 17.671875 
L 14.015625 17.671875 
Q 14.453125 10.75 18.421875 7.078125 
Q 22.40625 3.421875 29.59375 3.421875 
Q 37.3125 3.421875 41.453125 8.5 
Q 45.609375 13.578125 45.609375 23.09375 
Q 45.609375 32.5625 41.484375 37.609375 
Q 37.359375 42.671875 29.59375 42.671875 
Q 25.203125 42.671875 21.84375 41.109375 
Q 18.5 39.546875 15.921875 36.28125 
L 11.71875 36.28125 
L 11.71875 72.90625 
z
" id="DejaVuSerif-35"/>
      </defs>
      <g transform="translate(136.667616 596.793316)scale(0.0694 -0.0694)">
       <use xlink:href="#DejaVuSerif-33"/>
       <use x="63.623047" xlink:href="#DejaVuSerif-2e"/>
       <use x="95.410156" xlink:href="#DejaVuSerif-35"/>
      </g>
     </g>
    </g>
    <g id="xtick_3">
     <g id="line2d_3">
      <g>
       <use style="stroke:#000000;stroke-width:0.8;" x="216.212" xlink:href="#m47736ae2ca" y="584.52"/>
      </g>
     </g>
     <g id="text_3">
      <!-- 4.0 -->
      <defs>
       <path d="M 34.90625 24.703125 
L 34.90625 63.484375 
L 10.015625 24.703125 
z
M 56.390625 0 
L 23.1875 0 
L 23.1875 5.171875 
L 34.90625 5.171875 
L 34.90625 19.484375 
L 3.078125 19.484375 
L 3.078125 24.8125 
L 35.015625 74.21875 
L 44.671875 74.21875 
L 44.671875 24.703125 
L 58.59375 24.703125 
L 58.59375 19.484375 
L 44.671875 19.484375 
L 44.671875 5.171875 
L 56.390625 5.171875 
z
" id="DejaVuSerif-34"/>
      </defs>
      <g transform="translate(210.693616 596.793316)scale(0.0694 -0.0694)">
       <use xlink:href="#DejaVuSerif-34"/>
       <use x="63.623047" xlink:href="#DejaVuSerif-2e"/>
       <use x="95.410156" xlink:href="#DejaVuSerif-30"/>
      </g>
     </g>
    </g>
    <g id="xtick_4">
     <g id="line2d_4">
      <g>
       <use style="stroke:#000000;stroke-width:0.8;" x="290.238" xlink:href="#m47736ae2ca" y="584.52"/>
      </g>
     </g>
     <g id="text_4">
      <!-- 4.5 -->
      <g transform="translate(284.719616 596.793316)scale(0.0694 -0.0694)">
       <use xlink:href="#DejaVuSerif-34"/>
       <use x="63.623047" xlink:href="#DejaVuSerif-2e"/>
       <use x="95.410156" xlink:href="#DejaVuSerif-35"/>
      </g>
     </g>
    </g>
    <g id="xtick_5">
     <g id="line2d_5">
      <g>
       <use style="stroke:#000000;stroke-width:0.8;" x="364.264" xlink:href="#m47736ae2ca" y="584.52"/>
      </g>
     </g>
     <g id="text_5">
      <!-- 5.0 -->
      <g transform="translate(358.745616 596.793316)scale(0.0694 -0.0694)">
       <use xlink:href="#DejaVuSerif-35"/>
       <use x="63.623047" xlink:href="#DejaVuSerif-2e"/>
       <use x="95.410156" xlink:href="#DejaVuSerif-30"/>
      </g>
     </g>
    </g>
    <g id="xtick_6">
     <g id="line2d_6">
      <g>
       <use style="stroke:#000000;stroke-width:0.8;" x="438.29" xlink:href="#m47736ae2ca" y="584.52"/>
      </g>
     </g>
     <g id="text_6">
      <!-- 5.5 -->
      <g transform="translate(432.771616 596.793316)scale(0.0694 -0.0694)">
       <use xlink:href="#DejaVuSerif-35"/>
       <use x="63.623047" xlink:href="#DejaVuSerif-2e"/>
       <use x="95.410156" xlink:href="#DejaVuSerif-35"/>
      </g>
     </g>
    </g>
    <g id="xtick_7">
     <g id="line2d_7">
      <g>
       <use style="stroke:#000000;stroke-width:0.8;" x="512.316" xlink:href="#m47736ae2ca" y="584.52"/>
      </g>
     </g>
     <g id="text_7">
      <!-- 6.0 -->
      <defs>
       <path d="M 32.71875 3.421875 
Q 39.59375 3.421875 43.296875 8.46875 
Q 47.015625 13.53125 47.015625 23 
Q 47.015625 32.46875 43.296875 37.515625 
Q 39.59375 42.578125 32.71875 42.578125 
Q 25.734375 42.578125 22.0625 37.6875 
Q 18.40625 32.8125 18.40625 23.578125 
Q 18.40625 13.875 22.109375 8.640625 
Q 25.828125 3.421875 32.71875 3.421875 
z
M 16.796875 40.140625 
Q 20.125 43.796875 24.3125 45.59375 
Q 28.515625 47.40625 33.796875 47.40625 
Q 44.671875 47.40625 51 40.859375 
Q 57.328125 34.328125 57.328125 23 
Q 57.328125 11.921875 50.515625 5.25 
Q 43.703125 -1.421875 32.328125 -1.421875 
Q 19.96875 -1.421875 13.328125 7.78125 
Q 6.6875 17 6.6875 34.078125 
Q 6.6875 53.21875 14.546875 63.71875 
Q 22.40625 74.21875 36.71875 74.21875 
Q 40.578125 74.21875 44.828125 73.484375 
Q 49.078125 72.75 53.515625 71.296875 
L 53.515625 59.28125 
L 48 59.28125 
Q 47.40625 64.203125 44.234375 66.796875 
Q 41.0625 69.390625 35.6875 69.390625 
Q 26.21875 69.390625 21.578125 62.203125 
Q 16.9375 55.03125 16.796875 40.140625 
z
" id="DejaVuSerif-36"/>
      </defs>
      <g transform="translate(506.797616 596.793316)scale(0.0694 -0.0694)">
       <use xlink:href="#DejaVuSerif-36"/>
       <use x="63.623047" xlink:href="#DejaVuSerif-2e"/>
       <use x="95.410156" xlink:href="#DejaVuSerif-30"/>
      </g>
     </g>
    </g>
    <g id="xtick_8">
     <g id="line2d_8">
      <g>
       <use style="stroke:#000000;stroke-width:0.8;" x="586.342" xlink:href="#m47736ae2ca" y="584.52"/>
      </g>
     </g>
     <g id="text_8">
      <!-- 6.5 -->
      <g transform="translate(580.823616 596.793316)scale(0.0694 -0.0694)">
       <use xlink:href="#DejaVuSerif-36"/>
       <use x="63.623047" xlink:href="#DejaVuSerif-2e"/>
       <use x="95.410156" xlink:href="#DejaVuSerif-35"/>
      </g>
     </g>
    </g>
    <g id="xtick_9">
     <g id="line2d_9">
      <g>
       <use style="stroke:#000000;stroke-width:0.8;" x="660.368" xlink:href="#m47736ae2ca" y="584.52"/>
      </g>
     </g>
     <g id="text_9">
      <!-- 7.0 -->
      <defs>
       <path d="M 56.390625 67.921875 
L 27.875 0 
L 20.609375 0 
L 47.796875 64.890625 
L 14.109375 64.890625 
L 14.109375 55.90625 
L 8.40625 55.90625 
L 8.40625 72.90625 
L 56.390625 72.90625 
z
" id="DejaVuSerif-37"/>
      </defs>
      <g transform="translate(654.849616 596.793316)scale(0.0694 -0.0694)">
       <use xlink:href="#DejaVuSerif-37"/>
       <use x="63.623047" xlink:href="#DejaVuSerif-2e"/>
       <use x="95.410156" xlink:href="#DejaVuSerif-30"/>
      </g>
     </g>
    </g>
   </g>
   <g id="matplotlib.axis_2">
    <g id="ytick_1">
     <g id="line2d_10">
      <defs>
       <path d="M 0 0 
L -3.5 0 
" id="m0be57bbafa" style="stroke:#000000;stroke-width:0.8;"/>
      </defs>
      <g>
       <use style="stroke:#000000;stroke-width:0.8;" x="68.16" xlink:href="#m0be57bbafa" y="486.805714"/>
      </g>
     </g>
     <g id="text_10">
      <!-- 0.01 -->
      <defs>
       <path d="M 14.203125 0 
L 14.203125 5.171875 
L 26.90625 5.171875 
L 26.90625 65.828125 
L 12.203125 56.296875 
L 12.203125 62.703125 
L 29.984375 74.21875 
L 36.71875 74.21875 
L 36.71875 5.171875 
L 49.421875 5.171875 
L 49.421875 0 
z
" id="DejaVuSerif-31"/>
      </defs>
      <g transform="translate(45.707656 489.442372)scale(0.0694 -0.0694)">
       <use xlink:href="#DejaVuSerif-30"/>
       <use x="63.623047" xlink:href="#DejaVuSerif-2e"/>
       <use x="95.410156" xlink:href="#DejaVuSerif-30"/>
       <use x="159.033203" xlink:href="#DejaVuSerif-31"/>
      </g>
     </g>
    </g>
    <g id="ytick_2">
     <g id="line2d_11">
      <g>
       <use style="stroke:#000000;stroke-width:0.8;" x="68.16" xlink:href="#m0be57bbafa" y="378.234286"/>
      </g>
     </g>
     <g id="text_11">
      <!-- 0.02 -->
      <defs>
       <path d="M 12.796875 55.515625 
L 7.328125 55.515625 
L 7.328125 68.5 
Q 12.546875 71.296875 17.84375 72.75 
Q 23.140625 74.21875 28.21875 74.21875 
Q 39.59375 74.21875 46.1875 68.703125 
Q 52.78125 63.1875 52.78125 53.71875 
Q 52.78125 43.015625 37.84375 28.125 
Q 36.671875 27 36.078125 26.421875 
L 17.671875 8.015625 
L 48.09375 8.015625 
L 48.09375 17 
L 53.8125 17 
L 53.8125 0 
L 6.78125 0 
L 6.78125 5.328125 
L 28.90625 27.390625 
Q 36.234375 34.71875 39.359375 40.84375 
Q 42.484375 46.96875 42.484375 53.71875 
Q 42.484375 61.078125 38.640625 65.234375 
Q 34.8125 69.390625 28.078125 69.390625 
Q 21.09375 69.390625 17.28125 65.921875 
Q 13.484375 62.453125 12.796875 55.515625 
z
" id="DejaVuSerif-32"/>
      </defs>
      <g transform="translate(45.707656 380.870944)scale(0.0694 -0.0694)">
       <use xlink:href="#DejaVuSerif-30"/>
       <use x="63.623047" xlink:href="#DejaVuSerif-2e"/>
       <use x="95.410156" xlink:href="#DejaVuSerif-30"/>
       <use x="159.033203" xlink:href="#DejaVuSerif-32"/>
      </g>
     </g>
    </g>
    <g id="ytick_3">
     <g id="line2d_12">
      <g>
       <use style="stroke:#000000;stroke-width:0.8;" x="68.16" xlink:href="#m0be57bbafa" y="269.662857"/>
      </g>
     </g>
     <g id="text_12">
      <!-- 0.03 -->
      <g transform="translate(45.707656 272.299515)scale(0.0694 -0.0694)">
       <use xlink:href="#DejaVuSerif-30"/>
       <use x="63.623047" xlink:href="#DejaVuSerif-2e"/>
       <use x="95.410156" xlink:href="#DejaVuSerif-30"/>
       <use x="159.033203" xlink:href="#DejaVuSerif-33"/>
      </g>
     </g>
    </g>
    <g id="ytick_4">
     <g id="line2d_13">
      <g>
       <use style="stroke:#000000;stroke-width:0.8;" x="68.16" xlink:href="#m0be57bbafa" y="161.091429"/>
      </g>
     </g>
     <g id="text_13">
      <!-- 0.04 -->
      <g transform="translate(45.707656 163.728086)scale(0.0694 -0.0694)">
       <use xlink:href="#DejaVuSerif-30"/>
       <use x="63.623047" xlink:href="#DejaVuSerif-2e"/>
       <use x="95.410156" xlink:href="#DejaVuSerif-30"/>
       <use x="159.033203" xlink:href="#DejaVuSerif-34"/>
      </g>
     </g>
    </g>
    <g id="ytick_5">
     <g id="line2d_14">
      <g>
       <use style="stroke:#000000;stroke-width:0.8;" x="68.16" xlink:href="#m0be57bbafa" y="52.52"/>
      </g>
     </g>
     <g id="text_14">
      <!-- 0.05 -->
      <g transform="translate(45.707656 55.156658)scale(0.0694 -0.0694)">
       <use xlink:href="#DejaVuSerif-30"/>
       <use x="63.623047" xlink:href="#DejaVuSerif-2e"/>
       <use x="95.410156" xlink:href="#DejaVuSerif-30"/>
       <use x="159.033203" xlink:href="#DejaVuSerif-35"/>
      </g>
     </g>
    </g>
   </g>
   <g id="patch_3">
    <path d="M 68.16 584.52 
L 68.16 52.52 
" style="fill:none;stroke:#000000;stroke-linecap:square;stroke-linejoin:miter;stroke-width:0.8;"/>
   </g>
   <g id="patch_4">
    <path d="M 660.368 584.52 
L 660.368 52.52 
" style="fill:none;stroke:#000000;stroke-linecap:square;stroke-linejoin:miter;stroke-width:0.8;"/>
   </g>
   <g id="patch_5">
    <path d="M 68.16 584.52 
L 660.368 584.52 
" style="fill:none;stroke:#000000;stroke-linecap:square;stroke-linejoin:miter;stroke-width:0.8;"/>
   </g>
   <g id="patch_6">
    <path d="M 68.16 52.52 
L 660.368 52.52 
" style="fill:none;stroke:#000000;stroke-linecap:square;stroke-linejoin:miter;stroke-width:0.8;"/>
   </g>
  </g>
  <g id="axes_2">
   <g id="patch_7">
    <path clip-path="url(#p650d9109aa)" d="M 697.381 584.52 
L 697.381 559.186667 
L 697.381 77.853333 
L 697.381 52.52 
L 723.981 52.52 
L 723.981 77.853333 
L 723.981 559.186667 
L 723.981 584.52 
z
" style="fill:#ffffff;stroke:#ffffff;stroke-linejoin:miter;stroke-width:0.01;"/>
   </g>
   <g id="QuadMesh_1">
    <path clip-path="url(#p650d9109aa)" d="M 697.381 584.52 
L 723.981 584.52 
L 723.981 559.186667 
L 697.381 559.186667 
L 697.381 584.52 
" style="fill:#fcfcfc;"/>
    <path clip-path="url(#p650d9109aa)" d="M 697.381 559.186667 
L 723.981 559.186667 
L 723.981 533.853333 
L 697.381 533.853333 
L 697.381 559.186667 
" style="fill:#f7f7f7;"/>
    <path clip-path="url(#p650d9109aa)" d="M 697.381 533.853333 
L 723.981 533.853333 
L 723.981 508.52 
L 697.381 508.52 
L 697.381 533.853333 
" style="fill:#f1f1f1;"/>
    <path clip-path="url(#p650d9109aa)" d="M 697.381 508.52 
L 723.981 508.52 
L 723.981 483.186667 
L 697.381 483.186667 
L 697.381 508.52 
" style="fill:#e9e9e9;"/>
    <path clip-path="url(#p650d9109aa)" d="M 697.381 483.186667 
L 723.981 483.186667 
L 723.981 457.853333 
L 697.381 457.853333 
L 697.381 483.186667 
" style="fill:#e0e0e0;"/>
    <path clip-path="url(#p650d9109aa)" d="M 697.381 457.853333 
L 723.981 457.853333 
L 723.981 432.52 
L 697.381 432.52 
L 697.381 457.853333 
" style="fill:#d6d6d6;"/>
    <path clip-path="url(#p650d9109aa)" d="M 697.381 432.52 
L 723.981 432.52 
L 723.981 407.186667 
L 697.381 407.186667 
L 697.381 432.52 
" style="fill:#cccccc;"/>
    <path clip-path="url(#p650d9109aa)" d="M 697.381 407.186667 
L 723.981 407.186667 
L 723.981 381.853333 
L 697.381 381.853333 
L 697.381 407.186667 
" style="fill:#c1c1c1;"/>
    <path clip-path="url(#p650d9109aa)" d="M 697.381 381.853333 
L 723.981 381.853333 
L 723.981 356.52 
L 697.381 356.52 
L 697.381 381.853333 
" style="fill:#b4b4b4;"/>
    <path clip-path="url(#p650d9109aa)" d="M 697.381 356.52 
L 723.981 356.52 
L 723.981 331.186667 
L 697.381 331.186667 
L 697.381 356.52 
" style="fill:#a5a5a5;"/>
    <path clip-path="url(#p650d9109aa)" d="M 697.381 331.186667 
L 723.981 331.186667 
L 723.981 305.853333 
L 697.381 305.853333 
L 697.381 331.186667 
" style="fill:#979797;"/>
    <path clip-path="url(#p650d9109aa)" d="M 697.381 305.853333 
L 723.981 305.853333 
L 723.981 280.52 
L 697.381 280.52 
L 697.381 305.853333 
" style="fill:#888888;"/>
    <path clip-path="url(#p650d9109aa)" d="M 697.381 280.52 
L 723.981 280.52 
L 723.981 255.186667 
L 697.381 255.186667 
L 697.381 280.52 
" style="fill:#7b7b7b;"/>
    <path clip-path="url(#p650d9109aa)" d="M 697.381 255.186667 
L 723.981 255.186667 
L 723.981 229.853333 
L 697.381 229.853333 
L 697.381 255.186667 
" style="fill:#6e6e6e;"/>
    <path clip-path="url(#p650d9109aa)" d="M 697.381 229.853333 
L 723.981 229.853333 
L 723.981 204.52 
L 697.381 204.52 
L 697.381 229.853333 
" style="fill:#626262;"/>
    <path clip-path="url(#p650d9109aa)" d="M 697.381 204.52 
L 723.981 204.52 
L 723.981 179.186667 
L 697.381 179.186667 
L 697.381 204.52 
" style="fill:#555555;"/>
    <path clip-path="url(#p650d9109aa)" d="M 697.381 179.186667 
L 723.981 179.186667 
L 723.981 153.853333 
L 697.381 153.853333 
L 697.381 179.186667 
" style="fill:#444444;"/>
    <path clip-path="url(#p650d9109aa)" d="M 697.381 153.853333 
L 723.981 153.853333 
L 723.981 128.52 
L 697.381 128.52 
L 697.381 153.853333 
" style="fill:#333333;"/>
    <path clip-path="url(#p650d9109aa)" d="M 697.381 128.52 
L 723.981 128.52 
L 723.981 103.186667 
L 697.381 103.186667 
L 697.381 128.52 
" style="fill:#232323;"/>
    <path clip-path="url(#p650d9109aa)" d="M 697.381 103.186667 
L 723.981 103.186667 
L 723.981 77.853333 
L 697.381 77.853333 
L 697.381 103.186667 
" style="fill:#151515;"/>
    <path clip-path="url(#p650d9109aa)" d="M 697.381 77.853333 
L 723.981 77.853333 
L 723.981 52.52 
L 697.381 52.52 
L 697.381 77.853333 
" style="fill:#070707;"/>
   </g>
   <g id="matplotlib.axis_3"/>
   <g id="matplotlib.axis_4">
    <g id="ytick_6">
     <g id="line2d_15">
      <defs>
       <path d="M 0 0 
L 3.5 0 
" id="m369bda96d6" style="stroke:#000000;stroke-width:0.8;"/>
      </defs>
      <g>
       <use style="stroke:#000000;stroke-width:0.8;" x="723.981" xlink:href="#m369bda96d6" y="584.52"/>
      </g>
     </g>
     <g id="text_15">
      <!-- 0.0000813 -->
      <defs>
       <path d="M 46.578125 19.921875 
Q 46.578125 27.734375 42.6875 32.046875 
Q 38.8125 36.375 31.78125 36.375 
Q 24.75 36.375 20.875 32.046875 
Q 17 27.734375 17 19.921875 
Q 17 12.0625 20.875 7.734375 
Q 24.75 3.421875 31.78125 3.421875 
Q 38.8125 3.421875 42.6875 7.734375 
Q 46.578125 12.0625 46.578125 19.921875 
z
M 44.578125 55.328125 
Q 44.578125 61.96875 41.203125 65.671875 
Q 37.84375 69.390625 31.78125 69.390625 
Q 25.78125 69.390625 22.390625 65.671875 
Q 19 61.96875 19 55.328125 
Q 19 48.640625 22.390625 44.921875 
Q 25.78125 41.21875 31.78125 41.21875 
Q 37.84375 41.21875 41.203125 44.921875 
Q 44.578125 48.640625 44.578125 55.328125 
z
M 39.3125 38.8125 
Q 47.609375 37.703125 52.25 32.6875 
Q 56.890625 27.6875 56.890625 19.921875 
Q 56.890625 9.671875 50.390625 4.125 
Q 43.890625 -1.421875 31.78125 -1.421875 
Q 19.734375 -1.421875 13.203125 4.125 
Q 6.6875 9.671875 6.6875 19.921875 
Q 6.6875 27.6875 11.328125 32.6875 
Q 15.96875 37.703125 24.3125 38.8125 
Q 16.9375 40.140625 13 44.40625 
Q 9.078125 48.6875 9.078125 55.328125 
Q 9.078125 64.109375 15.125 69.15625 
Q 21.1875 74.21875 31.78125 74.21875 
Q 42.390625 74.21875 48.4375 69.15625 
Q 54.5 64.109375 54.5 55.328125 
Q 54.5 48.6875 50.5625 44.40625 
Q 46.625 40.140625 39.3125 38.8125 
z
" id="DejaVuSerif-38"/>
      </defs>
      <g transform="translate(730.981 587.156658)scale(0.0694 -0.0694)">
       <use xlink:href="#DejaVuSerif-30"/>
       <use x="63.623047" xlink:href="#DejaVuSerif-2e"/>
       <use x="95.410156" xlink:href="#DejaVuSerif-30"/>
       <use x="159.033203" xlink:href="#DejaVuSerif-30"/>
       <use x="222.65625" xlink:href="#DejaVuSerif-30"/>
       <use x="286.279297" xlink:href="#DejaVuSerif-30"/>
       <use x="349.902344" xlink:href="#DejaVuSerif-38"/>
       <use x="413.525391" xlink:href="#DejaVuSerif-31"/>
       <use x="477.148438" xlink:href="#DejaVuSerif-33"/>
      </g>
     </g>
    </g>
    <g id="ytick_7">
     <g id="line2d_16">
      <g>
       <use style="stroke:#000000;stroke-width:0.8;" x="723.981" xlink:href="#m369bda96d6" y="508.52"/>
      </g>
     </g>
     <g id="text_16">
      <!-- 0.0000822 -->
      <g transform="translate(730.981 511.156658)scale(0.0694 -0.0694)">
       <use xlink:href="#DejaVuSerif-30"/>
       <use x="63.623047" xlink:href="#DejaVuSerif-2e"/>
       <use x="95.410156" xlink:href="#DejaVuSerif-30"/>
       <use x="159.033203" xlink:href="#DejaVuSerif-30"/>
       <use x="222.65625" xlink:href="#DejaVuSerif-30"/>
       <use x="286.279297" xlink:href="#DejaVuSerif-30"/>
       <use x="349.902344" xlink:href="#DejaVuSerif-38"/>
       <use x="413.525391" xlink:href="#DejaVuSerif-32"/>
       <use x="477.148438" xlink:href="#DejaVuSerif-32"/>
      </g>
     </g>
    </g>
    <g id="ytick_8">
     <g id="line2d_17">
      <g>
       <use style="stroke:#000000;stroke-width:0.8;" x="723.981" xlink:href="#m369bda96d6" y="432.52"/>
      </g>
     </g>
     <g id="text_17">
      <!-- 0.0000831 -->
      <g transform="translate(730.981 435.156658)scale(0.0694 -0.0694)">
       <use xlink:href="#DejaVuSerif-30"/>
       <use x="63.623047" xlink:href="#DejaVuSerif-2e"/>
       <use x="95.410156" xlink:href="#DejaVuSerif-30"/>
       <use x="159.033203" xlink:href="#DejaVuSerif-30"/>
       <use x="222.65625" xlink:href="#DejaVuSerif-30"/>
       <use x="286.279297" xlink:href="#DejaVuSerif-30"/>
       <use x="349.902344" xlink:href="#DejaVuSerif-38"/>
       <use x="413.525391" xlink:href="#DejaVuSerif-33"/>
       <use x="477.148438" xlink:href="#DejaVuSerif-31"/>
      </g>
     </g>
    </g>
    <g id="ytick_9">
     <g id="line2d_18">
      <g>
       <use style="stroke:#000000;stroke-width:0.8;" x="723.981" xlink:href="#m369bda96d6" y="356.52"/>
      </g>
     </g>
     <g id="text_18">
      <!-- 0.0000840 -->
      <g transform="translate(730.981 359.156658)scale(0.0694 -0.0694)">
       <use xlink:href="#DejaVuSerif-30"/>
       <use x="63.623047" xlink:href="#DejaVuSerif-2e"/>
       <use x="95.410156" xlink:href="#DejaVuSerif-30"/>
       <use x="159.033203" xlink:href="#DejaVuSerif-30"/>
       <use x="222.65625" xlink:href="#DejaVuSerif-30"/>
       <use x="286.279297" xlink:href="#DejaVuSerif-30"/>
       <use x="349.902344" xlink:href="#DejaVuSerif-38"/>
       <use x="413.525391" xlink:href="#DejaVuSerif-34"/>
       <use x="477.148438" xlink:href="#DejaVuSerif-30"/>
      </g>
     </g>
    </g>
    <g id="ytick_10">
     <g id="line2d_19">
      <g>
       <use style="stroke:#000000;stroke-width:0.8;" x="723.981" xlink:href="#m369bda96d6" y="280.52"/>
      </g>
     </g>
     <g id="text_19">
      <!-- 0.0000849 -->
      <defs>
       <path d="M 46.78125 32.671875 
Q 43.5 29 39.25 27.1875 
Q 35.015625 25.390625 29.6875 25.390625 
Q 18.84375 25.390625 12.5625 31.9375 
Q 6.296875 38.484375 6.296875 49.8125 
Q 6.296875 60.890625 13.109375 67.546875 
Q 19.921875 74.21875 31.296875 74.21875 
Q 43.65625 74.21875 50.265625 65.015625 
Q 56.890625 55.8125 56.890625 38.71875 
Q 56.890625 19.578125 49.015625 9.078125 
Q 41.15625 -1.421875 26.90625 -1.421875 
Q 23.046875 -1.421875 18.796875 -0.6875 
Q 14.546875 0.046875 10.109375 1.515625 
L 10.109375 13.625 
L 15.578125 13.625 
Q 16.21875 8.6875 19.390625 6.046875 
Q 22.5625 3.421875 27.875 3.421875 
Q 37.359375 3.421875 41.984375 10.5625 
Q 46.625 17.71875 46.78125 32.671875 
z
M 30.90625 69.390625 
Q 23.96875 69.390625 20.28125 64.328125 
Q 16.609375 59.28125 16.609375 49.8125 
Q 16.609375 40.328125 20.28125 35.25 
Q 23.96875 30.171875 30.90625 30.171875 
Q 37.84375 30.171875 41.53125 35.078125 
Q 45.21875 39.984375 45.21875 49.21875 
Q 45.21875 58.9375 41.5 64.15625 
Q 37.796875 69.390625 30.90625 69.390625 
z
" id="DejaVuSerif-39"/>
      </defs>
      <g transform="translate(730.981 283.156658)scale(0.0694 -0.0694)">
       <use xlink:href="#DejaVuSerif-30"/>
       <use x="63.623047" xlink:href="#DejaVuSerif-2e"/>
       <use x="95.410156" xlink:href="#DejaVuSerif-30"/>
       <use x="159.033203" xlink:href="#DejaVuSerif-30"/>
       <use x="222.65625" xlink:href="#DejaVuSerif-30"/>
       <use x="286.279297" xlink:href="#DejaVuSerif-30"/>
       <use x="349.902344" xlink:href="#DejaVuSerif-38"/>
       <use x="413.525391" xlink:href="#DejaVuSerif-34"/>
       <use x="477.148438" xlink:href="#DejaVuSerif-39"/>
      </g>
     </g>
    </g>
    <g id="ytick_11">
     <g id="line2d_20">
      <g>
       <use style="stroke:#000000;stroke-width:0.8;" x="723.981" xlink:href="#m369bda96d6" y="204.52"/>
      </g>
     </g>
     <g id="text_20">
      <!-- 0.0000858 -->
      <g transform="translate(730.981 207.156658)scale(0.0694 -0.0694)">
       <use xlink:href="#DejaVuSerif-30"/>
       <use x="63.623047" xlink:href="#DejaVuSerif-2e"/>
       <use x="95.410156" xlink:href="#DejaVuSerif-30"/>
       <use x="159.033203" xlink:href="#DejaVuSerif-30"/>
       <use x="222.65625" xlink:href="#DejaVuSerif-30"/>
       <use x="286.279297" xlink:href="#DejaVuSerif-30"/>
       <use x="349.902344" xlink:href="#DejaVuSerif-38"/>
       <use x="413.525391" xlink:href="#DejaVuSerif-35"/>
       <use x="477.148438" xlink:href="#DejaVuSerif-38"/>
      </g>
     </g>
    </g>
    <g id="ytick_12">
     <g id="line2d_21">
      <g>
       <use style="stroke:#000000;stroke-width:0.8;" x="723.981" xlink:href="#m369bda96d6" y="128.52"/>
      </g>
     </g>
     <g id="text_21">
      <!-- 0.0000867 -->
      <g transform="translate(730.981 131.156658)scale(0.0694 -0.0694)">
       <use xlink:href="#DejaVuSerif-30"/>
       <use x="63.623047" xlink:href="#DejaVuSerif-2e"/>
       <use x="95.410156" xlink:href="#DejaVuSerif-30"/>
       <use x="159.033203" xlink:href="#DejaVuSerif-30"/>
       <use x="222.65625" xlink:href="#DejaVuSerif-30"/>
       <use x="286.279297" xlink:href="#DejaVuSerif-30"/>
       <use x="349.902344" xlink:href="#DejaVuSerif-38"/>
       <use x="413.525391" xlink:href="#DejaVuSerif-36"/>
       <use x="477.148438" xlink:href="#DejaVuSerif-37"/>
      </g>
     </g>
    </g>
    <g id="ytick_13">
     <g id="line2d_22">
      <g>
       <use style="stroke:#000000;stroke-width:0.8;" x="723.981" xlink:href="#m369bda96d6" y="52.52"/>
      </g>
     </g>
     <g id="text_22">
      <!-- 0.0000876 -->
      <g transform="translate(730.981 55.156658)scale(0.0694 -0.0694)">
       <use xlink:href="#DejaVuSerif-30"/>
       <use x="63.623047" xlink:href="#DejaVuSerif-2e"/>
       <use x="95.410156" xlink:href="#DejaVuSerif-30"/>
       <use x="159.033203" xlink:href="#DejaVuSerif-30"/>
       <use x="222.65625" xlink:href="#DejaVuSerif-30"/>
       <use x="286.279297" xlink:href="#DejaVuSerif-30"/>
       <use x="349.902344" xlink:href="#DejaVuSerif-38"/>
       <use x="413.525391" xlink:href="#DejaVuSerif-37"/>
       <use x="477.148438" xlink:href="#DejaVuSerif-36"/>
      </g>
     </g>
    </g>
   </g>
   <g id="patch_8">
    <path d="M 697.381 584.52 
L 697.381 559.186667 
L 697.381 77.853333 
L 697.381 52.52 
L 723.981 52.52 
L 723.981 77.853333 
L 723.981 559.186667 
L 723.981 584.52 
z
" style="fill:none;stroke:#000000;stroke-linejoin:miter;stroke-width:0.8;"/>
   </g>
  </g>
 </g>
 <defs>
  <clipPath id="pf34614b9fe">
   <rect height="532" width="592.208" x="68.16" y="52.52"/>
  </clipPath>
  <clipPath id="p650d9109aa">
   <rect height="532" width="26.6" x="697.381" y="52.52"/>
  </clipPath>
 </defs>
</svg>
