<?xml version="1.0" encoding="utf-8" standalone="no"?>
<!DOCTYPE svg PUBLIC "-//W3C//DTD SVG 1.1//EN"
  "http://www.w3.org/Graphics/SVG/1.1/DTD/svg11.dtd">
<!-- Created with matplotlib (http://matplotlib.org/) -->
<svg height="648pt" version="1.1" viewBox="0 0 864 648" width="864pt" xmlns="http://www.w3.org/2000/svg" xmlns:xlink="http://www.w3.org/1999/xlink">
 <defs>
  <style type="text/css">
*{stroke-linecap:butt;stroke-linejoin:round;}
  </style>
 </defs>
 <g id="figure_1">
  <g id="patch_1">
   <path d="M 0 648 
L 864 648 
L 864 0 
L 0 0 
z
" style="fill:#ffffff;"/>
  </g>
  <g id="axes_1">
   <g id="patch_2">
    <path d="M 68.16 584.52 
L 660.368 584.52 
L 660.368 52.52 
L 68.16 52.52 
z
" style="fill:#ffffff;"/>
   </g>
   <g id="PathCollection_1">
    <path clip-path="url(#p309cd9c2dc)" d="M 364.264 327.667632 
L 375.854872 269.662857 
L 364.264 242.807784 
L 360.269842 269.662857 
z
" style="fill:#fdfdfd;"/>
   </g>
   <g id="PathCollection_2">
    <path clip-path="url(#p309cd9c2dc)" d="M 364.264 454.951642 
L 393.669062 378.234286 
L 420.514594 269.662857 
L 378.620997 161.091429 
L 364.264 140.897035 
L 361.02687 161.091429 
L 344.880321 269.662857 
L 351.417245 378.234286 
z
M 360.269842 269.662857 
L 364.264 242.807784 
L 375.854872 269.662857 
L 364.264 327.667632 
z
" style="fill:#f7f7f7;"/>
   </g>
   <g id="PathCollection_3">
    <path clip-path="url(#p309cd9c2dc)" d="M 364.264 558.188773 
L 371.620331 541.091429 
L 381.259587 519.377143 
L 384.985525 508.52 
L 390.335916 486.805714 
L 431.672679 378.234286 
L 465.174315 269.662857 
L 446.902299 161.091429 
L 374.395811 52.52 
L 364.264 52.52 
L 362.925625 52.52 
L 345.631207 161.091429 
L 329.4908 269.662857 
L 334.813874 378.234286 
L 351.123685 486.805714 
L 354.128684 508.52 
L 356.206129 519.377143 
L 361.033013 541.091429 
z
M 351.417245 378.234286 
L 344.880321 269.662857 
L 361.02687 161.091429 
L 364.264 140.897035 
L 378.620997 161.091429 
L 420.514594 269.662857 
L 393.669062 378.234286 
L 364.264 454.951642 
z
" style="fill:#f1f1f1;"/>
   </g>
   <g id="PathCollection_4">
    <path clip-path="url(#p309cd9c2dc)" d="M 364.264 584.52 
L 399.201345 584.52 
L 401.879321 573.662857 
L 414.142473 541.091429 
L 421.731894 519.377143 
L 424.556379 508.52 
L 428.74864 486.805714 
L 469.676297 378.234286 
L 509.834036 269.662857 
L 515.183601 161.091429 
L 501.321097 52.52 
L 374.395811 52.52 
L 446.902299 161.091429 
L 465.174315 269.662857 
L 431.672679 378.234286 
L 390.335916 486.805714 
L 384.985525 508.52 
L 381.259587 519.377143 
L 371.620331 541.091429 
L 364.264 558.188773 
L 361.033013 541.091429 
L 356.206129 519.377143 
L 354.128684 508.52 
L 351.123685 486.805714 
L 334.813874 378.234286 
L 329.4908 269.662857 
L 345.631207 161.091429 
L 362.925625 52.52 
L 346.159258 52.52 
L 330.235545 161.091429 
L 314.10128 269.662857 
L 318.210503 378.234286 
L 331.76357 486.805714 
L 334.773782 508.52 
L 337.017581 519.377143 
L 342.356785 541.091429 
L 349.256628 573.662857 
L 350.625779 584.52 
z
" style="fill:#eaeaea;"/>
   </g>
   <g id="PathCollection_5">
    <path clip-path="url(#p309cd9c2dc)" d="M 349.256628 573.662857 
L 342.356785 541.091429 
L 337.017581 519.377143 
L 334.773782 508.52 
L 331.76357 486.805714 
L 318.210503 378.234286 
L 314.10128 269.662857 
L 330.235545 161.091429 
L 346.159258 52.52 
L 329.39289 52.52 
L 314.839883 161.091429 
L 298.711759 269.662857 
L 301.607132 378.234286 
L 312.403456 486.805714 
L 315.418879 508.52 
L 317.829033 519.377143 
L 323.680558 541.091429 
L 331.46326 573.662857 
L 333.156278 584.52 
L 350.625779 584.52 
z
" style="fill:#e1e1e1;"/>
    <path clip-path="url(#p309cd9c2dc)" d="M 446.477621 573.662857 
L 456.664615 541.091429 
L 462.204201 519.377143 
L 464.127233 508.52 
L 467.161363 486.805714 
L 507.679915 378.234286 
L 554.493757 269.662857 
L 583.464903 161.091429 
L 628.246383 52.52 
L 501.321097 52.52 
L 515.183601 161.091429 
L 509.834036 269.662857 
L 469.676297 378.234286 
L 428.74864 486.805714 
L 424.556379 508.52 
L 421.731894 519.377143 
L 414.142473 541.091429 
L 401.879321 573.662857 
L 399.201345 584.52 
L 443.953369 584.52 
z
" style="fill:#e1e1e1;"/>
   </g>
   <g id="PathCollection_6">
    <path clip-path="url(#p309cd9c2dc)" d="M 331.46326 573.662857 
L 323.680558 541.091429 
L 317.829033 519.377143 
L 315.418879 508.52 
L 312.403456 486.805714 
L 301.607132 378.234286 
L 298.711759 269.662857 
L 314.839883 161.091429 
L 329.39289 52.52 
L 312.626523 52.52 
L 299.444221 161.091429 
L 283.322238 269.662857 
L 285.003761 378.234286 
L 293.043341 486.805714 
L 296.063977 508.52 
L 298.640485 519.377143 
L 305.00433 541.091429 
L 313.669892 573.662857 
L 315.686777 584.52 
L 333.156278 584.52 
z
" style="fill:#d9d9d9;"/>
    <path clip-path="url(#p309cd9c2dc)" d="M 491.07592 573.662857 
L 499.186757 541.091429 
L 502.676508 519.377143 
L 503.698086 508.52 
L 505.574087 486.805714 
L 545.683533 378.234286 
L 599.153478 269.662857 
L 651.746205 161.091429 
L 660.368 145.391387 
L 660.368 52.52 
L 628.246383 52.52 
L 583.464903 161.091429 
L 554.493757 269.662857 
L 507.679915 378.234286 
L 467.161363 486.805714 
L 464.127233 508.52 
L 462.204201 519.377143 
L 456.664615 541.091429 
L 446.477621 573.662857 
L 443.953369 584.52 
L 488.705392 584.52 
z
" style="fill:#d9d9d9;"/>
   </g>
   <g id="PathCollection_7">
    <path clip-path="url(#p309cd9c2dc)" d="M 313.669892 573.662857 
L 305.00433 541.091429 
L 298.640485 519.377143 
L 296.063977 508.52 
L 293.043341 486.805714 
L 285.003761 378.234286 
L 283.322238 269.662857 
L 299.444221 161.091429 
L 312.626523 52.52 
L 295.860156 52.52 
L 284.048559 161.091429 
L 267.932717 269.662857 
L 268.40039 378.234286 
L 273.683226 486.805714 
L 276.709074 508.52 
L 279.451937 519.377143 
L 286.328103 541.091429 
L 295.876524 573.662857 
L 298.217276 584.52 
L 315.686777 584.52 
z
" style="fill:#cfcfcf;"/>
    <path clip-path="url(#p309cd9c2dc)" d="M 535.67422 573.662857 
L 541.708899 541.091429 
L 543.148815 519.377143 
L 543.26894 508.52 
L 543.98681 486.805714 
L 583.68715 378.234286 
L 643.8132 269.662857 
L 660.368 237.321596 
L 660.368 161.091429 
L 660.368 145.391387 
L 651.746205 161.091429 
L 599.153478 269.662857 
L 545.683533 378.234286 
L 505.574087 486.805714 
L 503.698086 508.52 
L 502.676508 519.377143 
L 499.186757 541.091429 
L 491.07592 573.662857 
L 488.705392 584.52 
L 533.457415 584.52 
z
" style="fill:#cfcfcf;"/>
   </g>
   <g id="PathCollection_8">
    <path clip-path="url(#p309cd9c2dc)" d="M 295.876524 573.662857 
L 286.328103 541.091429 
L 279.451937 519.377143 
L 276.709074 508.52 
L 273.683226 486.805714 
L 268.40039 378.234286 
L 267.932717 269.662857 
L 284.048559 161.091429 
L 295.860156 52.52 
L 279.093789 52.52 
L 268.652897 161.091429 
L 252.543196 269.662857 
L 251.797019 378.234286 
L 254.323112 486.805714 
L 257.354172 508.52 
L 260.263389 519.377143 
L 267.651875 541.091429 
L 278.083156 573.662857 
L 280.747776 584.52 
L 298.217276 584.52 
z
" style="fill:#c5c5c5;"/>
    <path clip-path="url(#p309cd9c2dc)" d="M 580.27252 573.662857 
L 584.231041 541.091429 
L 583.621123 519.377143 
L 582.839794 508.52 
L 582.399534 486.805714 
L 621.690768 378.234286 
L 660.368 311.146647 
L 660.368 269.662857 
L 660.368 237.321596 
L 643.8132 269.662857 
L 583.68715 378.234286 
L 543.98681 486.805714 
L 543.26894 508.52 
L 543.148815 519.377143 
L 541.708899 541.091429 
L 535.67422 573.662857 
L 533.457415 584.52 
L 578.209439 584.52 
z
" style="fill:#c5c5c5;"/>
   </g>
   <g id="PathCollection_9">
    <path clip-path="url(#p309cd9c2dc)" d="M 278.083156 573.662857 
L 267.651875 541.091429 
L 260.263389 519.377143 
L 257.354172 508.52 
L 254.323112 486.805714 
L 251.797019 378.234286 
L 252.543196 269.662857 
L 268.652897 161.091429 
L 279.093789 52.52 
L 262.327421 52.52 
L 253.257235 161.091429 
L 237.153675 269.662857 
L 235.193648 378.234286 
L 234.962997 486.805714 
L 237.999269 508.52 
L 241.074841 519.377143 
L 248.975648 541.091429 
L 260.289787 573.662857 
L 263.278275 584.52 
L 280.747776 584.52 
z
" style="fill:#bababa;"/>
    <path clip-path="url(#p309cd9c2dc)" d="M 624.87082 573.662857 
L 626.753184 541.091429 
L 624.09343 519.377143 
L 622.410648 508.52 
L 620.812258 486.805714 
L 659.694386 378.234286 
L 660.368 377.065868 
L 660.368 311.146647 
L 621.690768 378.234286 
L 582.399534 486.805714 
L 582.839794 508.52 
L 583.621123 519.377143 
L 584.231041 541.091429 
L 580.27252 573.662857 
L 578.209439 584.52 
L 622.961462 584.52 
z
" style="fill:#bababa;"/>
   </g>
   <g id="PathCollection_10">
    <path clip-path="url(#p309cd9c2dc)" d="M 260.289787 573.662857 
L 248.975648 541.091429 
L 241.074841 519.377143 
L 237.999269 508.52 
L 234.962997 486.805714 
L 235.193648 378.234286 
L 237.153675 269.662857 
L 253.257235 161.091429 
L 262.327421 52.52 
L 245.561054 52.52 
L 237.861573 161.091429 
L 221.764154 269.662857 
L 218.590277 378.234286 
L 215.602882 486.805714 
L 218.644367 508.52 
L 221.886293 519.377143 
L 230.29942 541.091429 
L 242.496419 573.662857 
L 245.808774 584.52 
L 263.278275 584.52 
z
" style="fill:#ababab;"/>
    <path clip-path="url(#p309cd9c2dc)" d="M 660.368 584.52 
L 660.368 573.662857 
L 660.368 541.091429 
L 660.368 519.377143 
L 660.368 508.52 
L 660.368 495.966699 
L 659.224981 486.805714 
L 660.368 483.613443 
L 660.368 378.234286 
L 660.368 377.065868 
L 659.694386 378.234286 
L 620.812258 486.805714 
L 622.410648 508.52 
L 624.09343 519.377143 
L 626.753184 541.091429 
L 624.87082 573.662857 
L 622.961462 584.52 
z
" style="fill:#ababab;"/>
   </g>
   <g id="PathCollection_11">
    <path clip-path="url(#p309cd9c2dc)" d="M 242.496419 573.662857 
L 230.29942 541.091429 
L 221.886293 519.377143 
L 218.644367 508.52 
L 215.602882 486.805714 
L 218.590277 378.234286 
L 221.764154 269.662857 
L 237.861573 161.091429 
L 245.561054 52.52 
L 228.794687 52.52 
L 222.46591 161.091429 
L 206.374634 269.662857 
L 201.986906 378.234286 
L 196.242768 486.805714 
L 199.289464 508.52 
L 202.697746 519.377143 
L 211.623193 541.091429 
L 224.703051 573.662857 
L 228.339273 584.52 
L 245.808774 584.52 
z
" style="fill:#9d9d9d;"/>
    <path clip-path="url(#p309cd9c2dc)" d="M 660.368 495.966699 
L 660.368 486.805714 
L 660.368 483.613443 
L 659.224981 486.805714 
z
" style="fill:#9d9d9d;"/>
   </g>
   <g id="PathCollection_12">
    <path clip-path="url(#p309cd9c2dc)" d="M 224.703051 573.662857 
L 211.623193 541.091429 
L 202.697746 519.377143 
L 199.289464 508.52 
L 196.242768 486.805714 
L 201.986906 378.234286 
L 206.374634 269.662857 
L 222.46591 161.091429 
L 228.794687 52.52 
L 212.02832 52.52 
L 207.070248 161.091429 
L 190.985113 269.662857 
L 185.383535 378.234286 
L 176.882653 486.805714 
L 179.934562 508.52 
L 183.509198 519.377143 
L 192.946965 541.091429 
L 206.909683 573.662857 
L 210.869772 584.52 
L 228.339273 584.52 
z
" style="fill:#909090;"/>
   </g>
   <g id="PathCollection_13">
    <path clip-path="url(#p309cd9c2dc)" d="M 206.909683 573.662857 
L 192.946965 541.091429 
L 183.509198 519.377143 
L 179.934562 508.52 
L 176.882653 486.805714 
L 185.383535 378.234286 
L 190.985113 269.662857 
L 207.070248 161.091429 
L 212.02832 52.52 
L 195.261953 52.52 
L 191.674586 161.091429 
L 175.595592 269.662857 
L 168.780164 378.234286 
L 157.522538 486.805714 
L 160.579659 508.52 
L 164.32065 519.377143 
L 174.270738 541.091429 
L 189.116314 573.662857 
L 193.400271 584.52 
L 210.869772 584.52 
z
" style="fill:#838383;"/>
   </g>
   <g id="PathCollection_14">
    <path clip-path="url(#p309cd9c2dc)" d="M 189.116314 573.662857 
L 174.270738 541.091429 
L 164.32065 519.377143 
L 160.579659 508.52 
L 157.522538 486.805714 
L 168.780164 378.234286 
L 175.595592 269.662857 
L 191.674586 161.091429 
L 195.261953 52.52 
L 178.495585 52.52 
L 176.278924 161.091429 
L 160.206071 269.662857 
L 152.176793 378.234286 
L 138.162424 486.805714 
L 141.224757 508.52 
L 145.132102 519.377143 
L 155.59451 541.091429 
L 171.322946 573.662857 
L 175.93077 584.52 
L 193.400271 584.52 
z
" style="fill:#767676;"/>
   </g>
   <g id="PathCollection_15">
    <path clip-path="url(#p309cd9c2dc)" d="M 171.322946 573.662857 
L 155.59451 541.091429 
L 145.132102 519.377143 
L 141.224757 508.52 
L 138.162424 486.805714 
L 152.176793 378.234286 
L 160.206071 269.662857 
L 176.278924 161.091429 
L 178.495585 52.52 
L 161.729218 52.52 
L 160.883262 161.091429 
L 144.81655 269.662857 
L 135.573422 378.234286 
L 118.802309 486.805714 
L 121.869854 508.52 
L 125.943554 519.377143 
L 136.918282 541.091429 
L 153.529578 573.662857 
L 158.461269 584.52 
L 175.93077 584.52 
z
" style="fill:#6a6a6a;"/>
   </g>
   <g id="PathCollection_16">
    <path clip-path="url(#p309cd9c2dc)" d="M 153.529578 573.662857 
L 136.918282 541.091429 
L 125.943554 519.377143 
L 121.869854 508.52 
L 118.802309 486.805714 
L 135.573422 378.234286 
L 144.81655 269.662857 
L 160.883262 161.091429 
L 161.729218 52.52 
L 144.962851 52.52 
L 145.4876 161.091429 
L 129.427029 269.662857 
L 118.970051 378.234286 
L 99.442194 486.805714 
L 102.514952 508.52 
L 106.755006 519.377143 
L 118.242055 541.091429 
L 135.73621 573.662857 
L 140.991769 584.52 
L 158.461269 584.52 
z
" style="fill:#5e5e5e;"/>
   </g>
   <g id="PathCollection_17">
    <path clip-path="url(#p309cd9c2dc)" d="M 135.73621 573.662857 
L 118.242055 541.091429 
L 106.755006 519.377143 
L 102.514952 508.52 
L 99.442194 486.805714 
L 118.970051 378.234286 
L 129.427029 269.662857 
L 145.4876 161.091429 
L 144.962851 52.52 
L 128.196484 52.52 
L 130.091938 161.091429 
L 114.037508 269.662857 
L 102.36668 378.234286 
L 80.08208 486.805714 
L 83.160049 508.52 
L 87.566458 519.377143 
L 99.565827 541.091429 
L 117.942842 573.662857 
L 123.522268 584.52 
L 140.991769 584.52 
z
" style="fill:#525252;"/>
   </g>
   <g id="PathCollection_18">
    <path clip-path="url(#p309cd9c2dc)" d="M 117.942842 573.662857 
L 99.565827 541.091429 
L 87.566458 519.377143 
L 83.160049 508.52 
L 80.08208 486.805714 
L 102.36668 378.234286 
L 114.037508 269.662857 
L 130.091938 161.091429 
L 128.196484 52.52 
L 111.430117 52.52 
L 114.696275 161.091429 
L 98.647987 269.662857 
L 85.763309 378.234286 
L 68.16 457.927341 
L 68.16 486.805714 
L 68.16 508.52 
L 68.16 518.855488 
L 68.37791 519.377143 
L 80.8896 541.091429 
L 100.149473 573.662857 
L 106.052767 584.52 
L 123.522268 584.52 
z
" style="fill:#414141;"/>
   </g>
   <g id="PathCollection_19">
    <path clip-path="url(#p309cd9c2dc)" d="M 100.149473 573.662857 
L 80.8896 541.091429 
L 68.37791 519.377143 
L 68.16 518.855488 
L 68.16 519.377143 
L 68.16 541.091429 
L 68.16 550.382414 
L 82.356105 573.662857 
L 88.583266 584.52 
L 106.052767 584.52 
z
" style="fill:#303030;"/>
    <path clip-path="url(#p309cd9c2dc)" d="M 85.763309 378.234286 
L 98.647987 269.662857 
L 114.696275 161.091429 
L 111.430117 52.52 
L 94.663749 52.52 
L 99.300613 161.091429 
L 83.258467 269.662857 
L 69.159938 378.234286 
L 68.16 382.761168 
L 68.16 457.927341 
z
" style="fill:#303030;"/>
   </g>
   <g id="PathCollection_20">
    <path clip-path="url(#p309cd9c2dc)" d="M 82.356105 573.662857 
L 68.16 550.382414 
L 68.16 573.662857 
L 68.16 579.575248 
L 71.113765 584.52 
L 88.583266 584.52 
z
" style="fill:#222222;"/>
    <path clip-path="url(#p309cd9c2dc)" d="M 69.159938 378.234286 
L 83.258467 269.662857 
L 99.300613 161.091429 
L 94.663749 52.52 
L 77.897382 52.52 
L 83.904951 161.091429 
L 68.16 267.691508 
L 68.16 269.662857 
L 68.16 378.234286 
L 68.16 382.761168 
z
" style="fill:#222222;"/>
   </g>
   <g id="PathCollection_21">
    <path clip-path="url(#p309cd9c2dc)" d="M 68.16 579.575248 
L 68.16 584.52 
L 71.113765 584.52 
z
" style="fill:#141414;"/>
    <path clip-path="url(#p309cd9c2dc)" d="M 83.904951 161.091429 
L 77.897382 52.52 
L 68.16 52.52 
L 68.16 155.517521 
L 68.509289 161.091429 
L 68.16 163.456266 
L 68.16 267.691508 
z
" style="fill:#141414;"/>
   </g>
   <g id="PathCollection_22">
    <path clip-path="url(#p309cd9c2dc)" d="M 68.509289 161.091429 
L 68.16 155.517521 
L 68.16 161.091429 
L 68.16 163.456266 
z
" style="fill:#060606;"/>
   </g>
   <g id="matplotlib.axis_1">
    <g id="xtick_1">
     <g id="line2d_1">
      <defs>
       <path d="M 0 0 
L 0 3.5 
" id="md3c38abc04" style="stroke:#000000;stroke-width:0.8;"/>
      </defs>
      <g>
       <use style="stroke:#000000;stroke-width:0.8;" x="68.16" xlink:href="#md3c38abc04" y="584.52"/>
      </g>
     </g>
     <g id="text_1">
      <!-- 3.0 -->
      <defs>
       <path d="M 9.71875 69.828125 
Q 15.4375 71.96875 20.671875 73.09375 
Q 25.921875 74.21875 30.515625 74.21875 
Q 41.21875 74.21875 47.21875 69.59375 
Q 53.21875 64.984375 53.21875 56.78125 
Q 53.21875 50.203125 49.0625 45.78125 
Q 44.921875 41.359375 37.3125 39.796875 
Q 46.296875 38.53125 51.25 33.28125 
Q 56.203125 28.03125 56.203125 19.671875 
Q 56.203125 9.46875 49.34375 4.015625 
Q 42.484375 -1.421875 29.59375 -1.421875 
Q 23.875 -1.421875 18.421875 -0.1875 
Q 12.984375 1.03125 7.625 3.515625 
L 7.625 17.671875 
L 13.09375 17.671875 
Q 13.578125 10.640625 17.828125 7.03125 
Q 22.078125 3.421875 29.78125 3.421875 
Q 37.25 3.421875 41.578125 7.734375 
Q 45.90625 12.0625 45.90625 19.578125 
Q 45.90625 28.171875 41.453125 32.59375 
Q 37.015625 37.015625 28.421875 37.015625 
L 23.78125 37.015625 
L 23.78125 42 
L 26.21875 42 
Q 34.765625 42 39.03125 45.53125 
Q 43.3125 49.078125 43.3125 56.203125 
Q 43.3125 62.59375 39.796875 65.984375 
Q 36.28125 69.390625 29.6875 69.390625 
Q 23.09375 69.390625 19.453125 66.265625 
Q 15.828125 63.140625 15.1875 56.984375 
L 9.71875 56.984375 
z
" id="DejaVuSerif-33"/>
       <path d="M 9.421875 5.078125 
Q 9.421875 7.8125 11.28125 9.71875 
Q 13.140625 11.625 15.921875 11.625 
Q 18.609375 11.625 20.5 9.71875 
Q 22.40625 7.8125 22.40625 5.078125 
Q 22.40625 2.390625 20.5 0.484375 
Q 18.609375 -1.421875 15.921875 -1.421875 
Q 13.140625 -1.421875 11.28125 0.453125 
Q 9.421875 2.34375 9.421875 5.078125 
z
" id="DejaVuSerif-2e"/>
       <path d="M 31.78125 3.421875 
Q 39.265625 3.421875 42.96875 11.625 
Q 46.6875 19.828125 46.6875 36.375 
Q 46.6875 52.984375 42.96875 61.1875 
Q 39.265625 69.390625 31.78125 69.390625 
Q 24.3125 69.390625 20.59375 61.1875 
Q 16.890625 52.984375 16.890625 36.375 
Q 16.890625 19.828125 20.59375 11.625 
Q 24.3125 3.421875 31.78125 3.421875 
z
M 31.78125 -1.421875 
Q 19.921875 -1.421875 13.25 8.53125 
Q 6.59375 18.5 6.59375 36.375 
Q 6.59375 54.296875 13.25 64.25 
Q 19.921875 74.21875 31.78125 74.21875 
Q 43.703125 74.21875 50.34375 64.25 
Q 56.984375 54.296875 56.984375 36.375 
Q 56.984375 18.5 50.34375 8.53125 
Q 43.703125 -1.421875 31.78125 -1.421875 
z
" id="DejaVuSerif-30"/>
      </defs>
      <g transform="translate(62.641616 596.793316)scale(0.0694 -0.0694)">
       <use xlink:href="#DejaVuSerif-33"/>
       <use x="63.623047" xlink:href="#DejaVuSerif-2e"/>
       <use x="95.410156" xlink:href="#DejaVuSerif-30"/>
      </g>
     </g>
    </g>
    <g id="xtick_2">
     <g id="line2d_2">
      <g>
       <use style="stroke:#000000;stroke-width:0.8;" x="142.186" xlink:href="#md3c38abc04" y="584.52"/>
      </g>
     </g>
     <g id="text_2">
      <!-- 3.5 -->
      <defs>
       <path d="M 50.296875 72.90625 
L 50.296875 64.890625 
L 16.890625 64.890625 
L 16.890625 44 
Q 19.4375 45.75 22.828125 46.625 
Q 26.21875 47.515625 30.421875 47.515625 
Q 42.234375 47.515625 49.0625 40.96875 
Q 55.90625 34.421875 55.90625 23.09375 
Q 55.90625 11.53125 49 5.046875 
Q 42.09375 -1.421875 29.59375 -1.421875 
Q 24.5625 -1.421875 19.28125 -0.1875 
Q 14.015625 1.03125 8.5 3.515625 
L 8.5 17.671875 
L 14.015625 17.671875 
Q 14.453125 10.75 18.421875 7.078125 
Q 22.40625 3.421875 29.59375 3.421875 
Q 37.3125 3.421875 41.453125 8.5 
Q 45.609375 13.578125 45.609375 23.09375 
Q 45.609375 32.5625 41.484375 37.609375 
Q 37.359375 42.671875 29.59375 42.671875 
Q 25.203125 42.671875 21.84375 41.109375 
Q 18.5 39.546875 15.921875 36.28125 
L 11.71875 36.28125 
L 11.71875 72.90625 
z
" id="DejaVuSerif-35"/>
      </defs>
      <g transform="translate(136.667616 596.793316)scale(0.0694 -0.0694)">
       <use xlink:href="#DejaVuSerif-33"/>
       <use x="63.623047" xlink:href="#DejaVuSerif-2e"/>
       <use x="95.410156" xlink:href="#DejaVuSerif-35"/>
      </g>
     </g>
    </g>
    <g id="xtick_3">
     <g id="line2d_3">
      <g>
       <use style="stroke:#000000;stroke-width:0.8;" x="216.212" xlink:href="#md3c38abc04" y="584.52"/>
      </g>
     </g>
     <g id="text_3">
      <!-- 4.0 -->
      <defs>
       <path d="M 34.90625 24.703125 
L 34.90625 63.484375 
L 10.015625 24.703125 
z
M 56.390625 0 
L 23.1875 0 
L 23.1875 5.171875 
L 34.90625 5.171875 
L 34.90625 19.484375 
L 3.078125 19.484375 
L 3.078125 24.8125 
L 35.015625 74.21875 
L 44.671875 74.21875 
L 44.671875 24.703125 
L 58.59375 24.703125 
L 58.59375 19.484375 
L 44.671875 19.484375 
L 44.671875 5.171875 
L 56.390625 5.171875 
z
" id="DejaVuSerif-34"/>
      </defs>
      <g transform="translate(210.693616 596.793316)scale(0.0694 -0.0694)">
       <use xlink:href="#DejaVuSerif-34"/>
       <use x="63.623047" xlink:href="#DejaVuSerif-2e"/>
       <use x="95.410156" xlink:href="#DejaVuSerif-30"/>
      </g>
     </g>
    </g>
    <g id="xtick_4">
     <g id="line2d_4">
      <g>
       <use style="stroke:#000000;stroke-width:0.8;" x="290.238" xlink:href="#md3c38abc04" y="584.52"/>
      </g>
     </g>
     <g id="text_4">
      <!-- 4.5 -->
      <g transform="translate(284.719616 596.793316)scale(0.0694 -0.0694)">
       <use xlink:href="#DejaVuSerif-34"/>
       <use x="63.623047" xlink:href="#DejaVuSerif-2e"/>
       <use x="95.410156" xlink:href="#DejaVuSerif-35"/>
      </g>
     </g>
    </g>
    <g id="xtick_5">
     <g id="line2d_5">
      <g>
       <use style="stroke:#000000;stroke-width:0.8;" x="364.264" xlink:href="#md3c38abc04" y="584.52"/>
      </g>
     </g>
     <g id="text_5">
      <!-- 5.0 -->
      <g transform="translate(358.745616 596.793316)scale(0.0694 -0.0694)">
       <use xlink:href="#DejaVuSerif-35"/>
       <use x="63.623047" xlink:href="#DejaVuSerif-2e"/>
       <use x="95.410156" xlink:href="#DejaVuSerif-30"/>
      </g>
     </g>
    </g>
    <g id="xtick_6">
     <g id="line2d_6">
      <g>
       <use style="stroke:#000000;stroke-width:0.8;" x="438.29" xlink:href="#md3c38abc04" y="584.52"/>
      </g>
     </g>
     <g id="text_6">
      <!-- 5.5 -->
      <g transform="translate(432.771616 596.793316)scale(0.0694 -0.0694)">
       <use xlink:href="#DejaVuSerif-35"/>
       <use x="63.623047" xlink:href="#DejaVuSerif-2e"/>
       <use x="95.410156" xlink:href="#DejaVuSerif-35"/>
      </g>
     </g>
    </g>
    <g id="xtick_7">
     <g id="line2d_7">
      <g>
       <use style="stroke:#000000;stroke-width:0.8;" x="512.316" xlink:href="#md3c38abc04" y="584.52"/>
      </g>
     </g>
     <g id="text_7">
      <!-- 6.0 -->
      <defs>
       <path d="M 32.71875 3.421875 
Q 39.59375 3.421875 43.296875 8.46875 
Q 47.015625 13.53125 47.015625 23 
Q 47.015625 32.46875 43.296875 37.515625 
Q 39.59375 42.578125 32.71875 42.578125 
Q 25.734375 42.578125 22.0625 37.6875 
Q 18.40625 32.8125 18.40625 23.578125 
Q 18.40625 13.875 22.109375 8.640625 
Q 25.828125 3.421875 32.71875 3.421875 
z
M 16.796875 40.140625 
Q 20.125 43.796875 24.3125 45.59375 
Q 28.515625 47.40625 33.796875 47.40625 
Q 44.671875 47.40625 51 40.859375 
Q 57.328125 34.328125 57.328125 23 
Q 57.328125 11.921875 50.515625 5.25 
Q 43.703125 -1.421875 32.328125 -1.421875 
Q 19.96875 -1.421875 13.328125 7.78125 
Q 6.6875 17 6.6875 34.078125 
Q 6.6875 53.21875 14.546875 63.71875 
Q 22.40625 74.21875 36.71875 74.21875 
Q 40.578125 74.21875 44.828125 73.484375 
Q 49.078125 72.75 53.515625 71.296875 
L 53.515625 59.28125 
L 48 59.28125 
Q 47.40625 64.203125 44.234375 66.796875 
Q 41.0625 69.390625 35.6875 69.390625 
Q 26.21875 69.390625 21.578125 62.203125 
Q 16.9375 55.03125 16.796875 40.140625 
z
" id="DejaVuSerif-36"/>
      </defs>
      <g transform="translate(506.797616 596.793316)scale(0.0694 -0.0694)">
       <use xlink:href="#DejaVuSerif-36"/>
       <use x="63.623047" xlink:href="#DejaVuSerif-2e"/>
       <use x="95.410156" xlink:href="#DejaVuSerif-30"/>
      </g>
     </g>
    </g>
    <g id="xtick_8">
     <g id="line2d_8">
      <g>
       <use style="stroke:#000000;stroke-width:0.8;" x="586.342" xlink:href="#md3c38abc04" y="584.52"/>
      </g>
     </g>
     <g id="text_8">
      <!-- 6.5 -->
      <g transform="translate(580.823616 596.793316)scale(0.0694 -0.0694)">
       <use xlink:href="#DejaVuSerif-36"/>
       <use x="63.623047" xlink:href="#DejaVuSerif-2e"/>
       <use x="95.410156" xlink:href="#DejaVuSerif-35"/>
      </g>
     </g>
    </g>
    <g id="xtick_9">
     <g id="line2d_9">
      <g>
       <use style="stroke:#000000;stroke-width:0.8;" x="660.368" xlink:href="#md3c38abc04" y="584.52"/>
      </g>
     </g>
     <g id="text_9">
      <!-- 7.0 -->
      <defs>
       <path d="M 56.390625 67.921875 
L 27.875 0 
L 20.609375 0 
L 47.796875 64.890625 
L 14.109375 64.890625 
L 14.109375 55.90625 
L 8.40625 55.90625 
L 8.40625 72.90625 
L 56.390625 72.90625 
z
" id="DejaVuSerif-37"/>
      </defs>
      <g transform="translate(654.849616 596.793316)scale(0.0694 -0.0694)">
       <use xlink:href="#DejaVuSerif-37"/>
       <use x="63.623047" xlink:href="#DejaVuSerif-2e"/>
       <use x="95.410156" xlink:href="#DejaVuSerif-30"/>
      </g>
     </g>
    </g>
   </g>
   <g id="matplotlib.axis_2">
    <g id="ytick_1">
     <g id="line2d_10">
      <defs>
       <path d="M 0 0 
L -3.5 0 
" id="mee0c0d07c8" style="stroke:#000000;stroke-width:0.8;"/>
      </defs>
      <g>
       <use style="stroke:#000000;stroke-width:0.8;" x="68.16" xlink:href="#mee0c0d07c8" y="486.805714"/>
      </g>
     </g>
     <g id="text_10">
      <!-- 0.01 -->
      <defs>
       <path d="M 14.203125 0 
L 14.203125 5.171875 
L 26.90625 5.171875 
L 26.90625 65.828125 
L 12.203125 56.296875 
L 12.203125 62.703125 
L 29.984375 74.21875 
L 36.71875 74.21875 
L 36.71875 5.171875 
L 49.421875 5.171875 
L 49.421875 0 
z
" id="DejaVuSerif-31"/>
      </defs>
      <g transform="translate(45.707656 489.442372)scale(0.0694 -0.0694)">
       <use xlink:href="#DejaVuSerif-30"/>
       <use x="63.623047" xlink:href="#DejaVuSerif-2e"/>
       <use x="95.410156" xlink:href="#DejaVuSerif-30"/>
       <use x="159.033203" xlink:href="#DejaVuSerif-31"/>
      </g>
     </g>
    </g>
    <g id="ytick_2">
     <g id="line2d_11">
      <g>
       <use style="stroke:#000000;stroke-width:0.8;" x="68.16" xlink:href="#mee0c0d07c8" y="378.234286"/>
      </g>
     </g>
     <g id="text_11">
      <!-- 0.02 -->
      <defs>
       <path d="M 12.796875 55.515625 
L 7.328125 55.515625 
L 7.328125 68.5 
Q 12.546875 71.296875 17.84375 72.75 
Q 23.140625 74.21875 28.21875 74.21875 
Q 39.59375 74.21875 46.1875 68.703125 
Q 52.78125 63.1875 52.78125 53.71875 
Q 52.78125 43.015625 37.84375 28.125 
Q 36.671875 27 36.078125 26.421875 
L 17.671875 8.015625 
L 48.09375 8.015625 
L 48.09375 17 
L 53.8125 17 
L 53.8125 0 
L 6.78125 0 
L 6.78125 5.328125 
L 28.90625 27.390625 
Q 36.234375 34.71875 39.359375 40.84375 
Q 42.484375 46.96875 42.484375 53.71875 
Q 42.484375 61.078125 38.640625 65.234375 
Q 34.8125 69.390625 28.078125 69.390625 
Q 21.09375 69.390625 17.28125 65.921875 
Q 13.484375 62.453125 12.796875 55.515625 
z
" id="DejaVuSerif-32"/>
      </defs>
      <g transform="translate(45.707656 380.870944)scale(0.0694 -0.0694)">
       <use xlink:href="#DejaVuSerif-30"/>
       <use x="63.623047" xlink:href="#DejaVuSerif-2e"/>
       <use x="95.410156" xlink:href="#DejaVuSerif-30"/>
       <use x="159.033203" xlink:href="#DejaVuSerif-32"/>
      </g>
     </g>
    </g>
    <g id="ytick_3">
     <g id="line2d_12">
      <g>
       <use style="stroke:#000000;stroke-width:0.8;" x="68.16" xlink:href="#mee0c0d07c8" y="269.662857"/>
      </g>
     </g>
     <g id="text_12">
      <!-- 0.03 -->
      <g transform="translate(45.707656 272.299515)scale(0.0694 -0.0694)">
       <use xlink:href="#DejaVuSerif-30"/>
       <use x="63.623047" xlink:href="#DejaVuSerif-2e"/>
       <use x="95.410156" xlink:href="#DejaVuSerif-30"/>
       <use x="159.033203" xlink:href="#DejaVuSerif-33"/>
      </g>
     </g>
    </g>
    <g id="ytick_4">
     <g id="line2d_13">
      <g>
       <use style="stroke:#000000;stroke-width:0.8;" x="68.16" xlink:href="#mee0c0d07c8" y="161.091429"/>
      </g>
     </g>
     <g id="text_13">
      <!-- 0.04 -->
      <g transform="translate(45.707656 163.728086)scale(0.0694 -0.0694)">
       <use xlink:href="#DejaVuSerif-30"/>
       <use x="63.623047" xlink:href="#DejaVuSerif-2e"/>
       <use x="95.410156" xlink:href="#DejaVuSerif-30"/>
       <use x="159.033203" xlink:href="#DejaVuSerif-34"/>
      </g>
     </g>
    </g>
    <g id="ytick_5">
     <g id="line2d_14">
      <g>
       <use style="stroke:#000000;stroke-width:0.8;" x="68.16" xlink:href="#mee0c0d07c8" y="52.52"/>
      </g>
     </g>
     <g id="text_14">
      <!-- 0.05 -->
      <g transform="translate(45.707656 55.156658)scale(0.0694 -0.0694)">
       <use xlink:href="#DejaVuSerif-30"/>
       <use x="63.623047" xlink:href="#DejaVuSerif-2e"/>
       <use x="95.410156" xlink:href="#DejaVuSerif-30"/>
       <use x="159.033203" xlink:href="#DejaVuSerif-35"/>
      </g>
     </g>
    </g>
   </g>
   <g id="patch_3">
    <path d="M 68.16 584.52 
L 68.16 52.52 
" style="fill:none;stroke:#000000;stroke-linecap:square;stroke-linejoin:miter;stroke-width:0.8;"/>
   </g>
   <g id="patch_4">
    <path d="M 660.368 584.52 
L 660.368 52.52 
" style="fill:none;stroke:#000000;stroke-linecap:square;stroke-linejoin:miter;stroke-width:0.8;"/>
   </g>
   <g id="patch_5">
    <path d="M 68.16 584.52 
L 660.368 584.52 
" style="fill:none;stroke:#000000;stroke-linecap:square;stroke-linejoin:miter;stroke-width:0.8;"/>
   </g>
   <g id="patch_6">
    <path d="M 68.16 52.52 
L 660.368 52.52 
" style="fill:none;stroke:#000000;stroke-linecap:square;stroke-linejoin:miter;stroke-width:0.8;"/>
   </g>
  </g>
  <g id="axes_2">
   <g id="patch_7">
    <path clip-path="url(#p46e135c3f1)" d="M 697.381 584.52 
L 697.381 560.338182 
L 697.381 76.701818 
L 697.381 52.52 
L 723.981 52.52 
L 723.981 76.701818 
L 723.981 560.338182 
L 723.981 584.52 
z
" style="fill:#ffffff;stroke:#ffffff;stroke-linejoin:miter;stroke-width:0.01;"/>
   </g>
   <g id="QuadMesh_1">
    <path clip-path="url(#p46e135c3f1)" d="M 697.381 584.52 
L 723.981 584.52 
L 723.981 560.338182 
L 697.381 560.338182 
L 697.381 584.52 
" style="fill:#fdfdfd;"/>
    <path clip-path="url(#p46e135c3f1)" d="M 697.381 560.338182 
L 723.981 560.338182 
L 723.981 536.156364 
L 697.381 536.156364 
L 697.381 560.338182 
" style="fill:#f7f7f7;"/>
    <path clip-path="url(#p46e135c3f1)" d="M 697.381 536.156364 
L 723.981 536.156364 
L 723.981 511.974545 
L 697.381 511.974545 
L 697.381 536.156364 
" style="fill:#f1f1f1;"/>
    <path clip-path="url(#p46e135c3f1)" d="M 697.381 511.974545 
L 723.981 511.974545 
L 723.981 487.792727 
L 697.381 487.792727 
L 697.381 511.974545 
" style="fill:#eaeaea;"/>
    <path clip-path="url(#p46e135c3f1)" d="M 697.381 487.792727 
L 723.981 487.792727 
L 723.981 463.610909 
L 697.381 463.610909 
L 697.381 487.792727 
" style="fill:#e1e1e1;"/>
    <path clip-path="url(#p46e135c3f1)" d="M 697.381 463.610909 
L 723.981 463.610909 
L 723.981 439.429091 
L 697.381 439.429091 
L 697.381 463.610909 
" style="fill:#d9d9d9;"/>
    <path clip-path="url(#p46e135c3f1)" d="M 697.381 439.429091 
L 723.981 439.429091 
L 723.981 415.247273 
L 697.381 415.247273 
L 697.381 439.429091 
" style="fill:#cfcfcf;"/>
    <path clip-path="url(#p46e135c3f1)" d="M 697.381 415.247273 
L 723.981 415.247273 
L 723.981 391.065455 
L 697.381 391.065455 
L 697.381 415.247273 
" style="fill:#c5c5c5;"/>
    <path clip-path="url(#p46e135c3f1)" d="M 697.381 391.065455 
L 723.981 391.065455 
L 723.981 366.883636 
L 697.381 366.883636 
L 697.381 391.065455 
" style="fill:#bababa;"/>
    <path clip-path="url(#p46e135c3f1)" d="M 697.381 366.883636 
L 723.981 366.883636 
L 723.981 342.701818 
L 697.381 342.701818 
L 697.381 366.883636 
" style="fill:#ababab;"/>
    <path clip-path="url(#p46e135c3f1)" d="M 697.381 342.701818 
L 723.981 342.701818 
L 723.981 318.52 
L 697.381 318.52 
L 697.381 342.701818 
" style="fill:#9d9d9d;"/>
    <path clip-path="url(#p46e135c3f1)" d="M 697.381 318.52 
L 723.981 318.52 
L 723.981 294.338182 
L 697.381 294.338182 
L 697.381 318.52 
" style="fill:#909090;"/>
    <path clip-path="url(#p46e135c3f1)" d="M 697.381 294.338182 
L 723.981 294.338182 
L 723.981 270.156364 
L 697.381 270.156364 
L 697.381 294.338182 
" style="fill:#838383;"/>
    <path clip-path="url(#p46e135c3f1)" d="M 697.381 270.156364 
L 723.981 270.156364 
L 723.981 245.974545 
L 697.381 245.974545 
L 697.381 270.156364 
" style="fill:#767676;"/>
    <path clip-path="url(#p46e135c3f1)" d="M 697.381 245.974545 
L 723.981 245.974545 
L 723.981 221.792727 
L 697.381 221.792727 
L 697.381 245.974545 
" style="fill:#6a6a6a;"/>
    <path clip-path="url(#p46e135c3f1)" d="M 697.381 221.792727 
L 723.981 221.792727 
L 723.981 197.610909 
L 697.381 197.610909 
L 697.381 221.792727 
" style="fill:#5e5e5e;"/>
    <path clip-path="url(#p46e135c3f1)" d="M 697.381 197.610909 
L 723.981 197.610909 
L 723.981 173.429091 
L 697.381 173.429091 
L 697.381 197.610909 
" style="fill:#525252;"/>
    <path clip-path="url(#p46e135c3f1)" d="M 697.381 173.429091 
L 723.981 173.429091 
L 723.981 149.247273 
L 697.381 149.247273 
L 697.381 173.429091 
" style="fill:#414141;"/>
    <path clip-path="url(#p46e135c3f1)" d="M 697.381 149.247273 
L 723.981 149.247273 
L 723.981 125.065455 
L 697.381 125.065455 
L 697.381 149.247273 
" style="fill:#303030;"/>
    <path clip-path="url(#p46e135c3f1)" d="M 697.381 125.065455 
L 723.981 125.065455 
L 723.981 100.883636 
L 697.381 100.883636 
L 697.381 125.065455 
" style="fill:#222222;"/>
    <path clip-path="url(#p46e135c3f1)" d="M 697.381 100.883636 
L 723.981 100.883636 
L 723.981 76.701818 
L 697.381 76.701818 
L 697.381 100.883636 
" style="fill:#141414;"/>
    <path clip-path="url(#p46e135c3f1)" d="M 697.381 76.701818 
L 723.981 76.701818 
L 723.981 52.52 
L 697.381 52.52 
L 697.381 76.701818 
" style="fill:#060606;"/>
   </g>
   <g id="matplotlib.axis_3"/>
   <g id="matplotlib.axis_4">
    <g id="ytick_6">
     <g id="line2d_15">
      <defs>
       <path d="M 0 0 
L 3.5 0 
" id="mef93c37c6a" style="stroke:#000000;stroke-width:0.8;"/>
      </defs>
      <g>
       <use style="stroke:#000000;stroke-width:0.8;" x="723.981" xlink:href="#mef93c37c6a" y="560.338182"/>
      </g>
     </g>
     <g id="text_15">
      <!-- −0.00295 -->
      <defs>
       <path d="M 10.59375 35.296875 
L 73.1875 35.296875 
L 73.1875 27.390625 
L 10.59375 27.390625 
z
" id="DejaVuSerif-2212"/>
       <path d="M 46.78125 32.671875 
Q 43.5 29 39.25 27.1875 
Q 35.015625 25.390625 29.6875 25.390625 
Q 18.84375 25.390625 12.5625 31.9375 
Q 6.296875 38.484375 6.296875 49.8125 
Q 6.296875 60.890625 13.109375 67.546875 
Q 19.921875 74.21875 31.296875 74.21875 
Q 43.65625 74.21875 50.265625 65.015625 
Q 56.890625 55.8125 56.890625 38.71875 
Q 56.890625 19.578125 49.015625 9.078125 
Q 41.15625 -1.421875 26.90625 -1.421875 
Q 23.046875 -1.421875 18.796875 -0.6875 
Q 14.546875 0.046875 10.109375 1.515625 
L 10.109375 13.625 
L 15.578125 13.625 
Q 16.21875 8.6875 19.390625 6.046875 
Q 22.5625 3.421875 27.875 3.421875 
Q 37.359375 3.421875 41.984375 10.5625 
Q 46.625 17.71875 46.78125 32.671875 
z
M 30.90625 69.390625 
Q 23.96875 69.390625 20.28125 64.328125 
Q 16.609375 59.28125 16.609375 49.8125 
Q 16.609375 40.328125 20.28125 35.25 
Q 23.96875 30.171875 30.90625 30.171875 
Q 37.84375 30.171875 41.53125 35.078125 
Q 45.21875 39.984375 45.21875 49.21875 
Q 45.21875 58.9375 41.5 64.15625 
Q 37.796875 69.390625 30.90625 69.390625 
z
" id="DejaVuSerif-39"/>
      </defs>
      <g transform="translate(730.981 562.97484)scale(0.0694 -0.0694)">
       <use xlink:href="#DejaVuSerif-2212"/>
       <use x="83.789062" xlink:href="#DejaVuSerif-30"/>
       <use x="147.412109" xlink:href="#DejaVuSerif-2e"/>
       <use x="179.199219" xlink:href="#DejaVuSerif-30"/>
       <use x="242.822266" xlink:href="#DejaVuSerif-30"/>
       <use x="306.445312" xlink:href="#DejaVuSerif-32"/>
       <use x="370.068359" xlink:href="#DejaVuSerif-39"/>
       <use x="433.691406" xlink:href="#DejaVuSerif-35"/>
      </g>
     </g>
    </g>
    <g id="ytick_7">
     <g id="line2d_16">
      <g>
       <use style="stroke:#000000;stroke-width:0.8;" x="723.981" xlink:href="#mef93c37c6a" y="487.792727"/>
      </g>
     </g>
     <g id="text_16">
      <!-- −0.00280 -->
      <defs>
       <path d="M 46.578125 19.921875 
Q 46.578125 27.734375 42.6875 32.046875 
Q 38.8125 36.375 31.78125 36.375 
Q 24.75 36.375 20.875 32.046875 
Q 17 27.734375 17 19.921875 
Q 17 12.0625 20.875 7.734375 
Q 24.75 3.421875 31.78125 3.421875 
Q 38.8125 3.421875 42.6875 7.734375 
Q 46.578125 12.0625 46.578125 19.921875 
z
M 44.578125 55.328125 
Q 44.578125 61.96875 41.203125 65.671875 
Q 37.84375 69.390625 31.78125 69.390625 
Q 25.78125 69.390625 22.390625 65.671875 
Q 19 61.96875 19 55.328125 
Q 19 48.640625 22.390625 44.921875 
Q 25.78125 41.21875 31.78125 41.21875 
Q 37.84375 41.21875 41.203125 44.921875 
Q 44.578125 48.640625 44.578125 55.328125 
z
M 39.3125 38.8125 
Q 47.609375 37.703125 52.25 32.6875 
Q 56.890625 27.6875 56.890625 19.921875 
Q 56.890625 9.671875 50.390625 4.125 
Q 43.890625 -1.421875 31.78125 -1.421875 
Q 19.734375 -1.421875 13.203125 4.125 
Q 6.6875 9.671875 6.6875 19.921875 
Q 6.6875 27.6875 11.328125 32.6875 
Q 15.96875 37.703125 24.3125 38.8125 
Q 16.9375 40.140625 13 44.40625 
Q 9.078125 48.6875 9.078125 55.328125 
Q 9.078125 64.109375 15.125 69.15625 
Q 21.1875 74.21875 31.78125 74.21875 
Q 42.390625 74.21875 48.4375 69.15625 
Q 54.5 64.109375 54.5 55.328125 
Q 54.5 48.6875 50.5625 44.40625 
Q 46.625 40.140625 39.3125 38.8125 
z
" id="DejaVuSerif-38"/>
      </defs>
      <g transform="translate(730.981 490.429385)scale(0.0694 -0.0694)">
       <use xlink:href="#DejaVuSerif-2212"/>
       <use x="83.789062" xlink:href="#DejaVuSerif-30"/>
       <use x="147.412109" xlink:href="#DejaVuSerif-2e"/>
       <use x="179.199219" xlink:href="#DejaVuSerif-30"/>
       <use x="242.822266" xlink:href="#DejaVuSerif-30"/>
       <use x="306.445312" xlink:href="#DejaVuSerif-32"/>
       <use x="370.068359" xlink:href="#DejaVuSerif-38"/>
       <use x="433.691406" xlink:href="#DejaVuSerif-30"/>
      </g>
     </g>
    </g>
    <g id="ytick_8">
     <g id="line2d_17">
      <g>
       <use style="stroke:#000000;stroke-width:0.8;" x="723.981" xlink:href="#mef93c37c6a" y="415.247273"/>
      </g>
     </g>
     <g id="text_17">
      <!-- −0.00265 -->
      <g transform="translate(730.981 417.883931)scale(0.0694 -0.0694)">
       <use xlink:href="#DejaVuSerif-2212"/>
       <use x="83.789062" xlink:href="#DejaVuSerif-30"/>
       <use x="147.412109" xlink:href="#DejaVuSerif-2e"/>
       <use x="179.199219" xlink:href="#DejaVuSerif-30"/>
       <use x="242.822266" xlink:href="#DejaVuSerif-30"/>
       <use x="306.445312" xlink:href="#DejaVuSerif-32"/>
       <use x="370.068359" xlink:href="#DejaVuSerif-36"/>
       <use x="433.691406" xlink:href="#DejaVuSerif-35"/>
      </g>
     </g>
    </g>
    <g id="ytick_9">
     <g id="line2d_18">
      <g>
       <use style="stroke:#000000;stroke-width:0.8;" x="723.981" xlink:href="#mef93c37c6a" y="342.701818"/>
      </g>
     </g>
     <g id="text_18">
      <!-- −0.00250 -->
      <g transform="translate(730.981 345.338476)scale(0.0694 -0.0694)">
       <use xlink:href="#DejaVuSerif-2212"/>
       <use x="83.789062" xlink:href="#DejaVuSerif-30"/>
       <use x="147.412109" xlink:href="#DejaVuSerif-2e"/>
       <use x="179.199219" xlink:href="#DejaVuSerif-30"/>
       <use x="242.822266" xlink:href="#DejaVuSerif-30"/>
       <use x="306.445312" xlink:href="#DejaVuSerif-32"/>
       <use x="370.068359" xlink:href="#DejaVuSerif-35"/>
       <use x="433.691406" xlink:href="#DejaVuSerif-30"/>
      </g>
     </g>
    </g>
    <g id="ytick_10">
     <g id="line2d_19">
      <g>
       <use style="stroke:#000000;stroke-width:0.8;" x="723.981" xlink:href="#mef93c37c6a" y="270.156364"/>
      </g>
     </g>
     <g id="text_19">
      <!-- −0.00235 -->
      <g transform="translate(730.981 272.793021)scale(0.0694 -0.0694)">
       <use xlink:href="#DejaVuSerif-2212"/>
       <use x="83.789062" xlink:href="#DejaVuSerif-30"/>
       <use x="147.412109" xlink:href="#DejaVuSerif-2e"/>
       <use x="179.199219" xlink:href="#DejaVuSerif-30"/>
       <use x="242.822266" xlink:href="#DejaVuSerif-30"/>
       <use x="306.445312" xlink:href="#DejaVuSerif-32"/>
       <use x="370.068359" xlink:href="#DejaVuSerif-33"/>
       <use x="433.691406" xlink:href="#DejaVuSerif-35"/>
      </g>
     </g>
    </g>
    <g id="ytick_11">
     <g id="line2d_20">
      <g>
       <use style="stroke:#000000;stroke-width:0.8;" x="723.981" xlink:href="#mef93c37c6a" y="197.610909"/>
      </g>
     </g>
     <g id="text_20">
      <!-- −0.00220 -->
      <g transform="translate(730.981 200.247567)scale(0.0694 -0.0694)">
       <use xlink:href="#DejaVuSerif-2212"/>
       <use x="83.789062" xlink:href="#DejaVuSerif-30"/>
       <use x="147.412109" xlink:href="#DejaVuSerif-2e"/>
       <use x="179.199219" xlink:href="#DejaVuSerif-30"/>
       <use x="242.822266" xlink:href="#DejaVuSerif-30"/>
       <use x="306.445312" xlink:href="#DejaVuSerif-32"/>
       <use x="370.068359" xlink:href="#DejaVuSerif-32"/>
       <use x="433.691406" xlink:href="#DejaVuSerif-30"/>
      </g>
     </g>
    </g>
    <g id="ytick_12">
     <g id="line2d_21">
      <g>
       <use style="stroke:#000000;stroke-width:0.8;" x="723.981" xlink:href="#mef93c37c6a" y="125.065455"/>
      </g>
     </g>
     <g id="text_21">
      <!-- −0.00205 -->
      <g transform="translate(730.981 127.702112)scale(0.0694 -0.0694)">
       <use xlink:href="#DejaVuSerif-2212"/>
       <use x="83.789062" xlink:href="#DejaVuSerif-30"/>
       <use x="147.412109" xlink:href="#DejaVuSerif-2e"/>
       <use x="179.199219" xlink:href="#DejaVuSerif-30"/>
       <use x="242.822266" xlink:href="#DejaVuSerif-30"/>
       <use x="306.445312" xlink:href="#DejaVuSerif-32"/>
       <use x="370.068359" xlink:href="#DejaVuSerif-30"/>
       <use x="433.691406" xlink:href="#DejaVuSerif-35"/>
      </g>
     </g>
    </g>
    <g id="ytick_13">
     <g id="line2d_22">
      <g>
       <use style="stroke:#000000;stroke-width:0.8;" x="723.981" xlink:href="#mef93c37c6a" y="52.52"/>
      </g>
     </g>
     <g id="text_22">
      <!-- −0.00190 -->
      <g transform="translate(730.981 55.156658)scale(0.0694 -0.0694)">
       <use xlink:href="#DejaVuSerif-2212"/>
       <use x="83.789062" xlink:href="#DejaVuSerif-30"/>
       <use x="147.412109" xlink:href="#DejaVuSerif-2e"/>
       <use x="179.199219" xlink:href="#DejaVuSerif-30"/>
       <use x="242.822266" xlink:href="#DejaVuSerif-30"/>
       <use x="306.445312" xlink:href="#DejaVuSerif-31"/>
       <use x="370.068359" xlink:href="#DejaVuSerif-39"/>
       <use x="433.691406" xlink:href="#DejaVuSerif-30"/>
      </g>
     </g>
    </g>
    <g id="text_23">
     <!-- −3.95e1 -->
     <defs>
      <path d="M 54.203125 25 
L 15.484375 25 
L 15.484375 24.609375 
Q 15.484375 14.109375 19.4375 8.765625 
Q 23.390625 3.421875 31.109375 3.421875 
Q 37.015625 3.421875 40.796875 6.515625 
Q 44.578125 9.625 46.09375 15.71875 
L 53.328125 15.71875 
Q 51.171875 7.171875 45.375 2.875 
Q 39.59375 -1.421875 30.171875 -1.421875 
Q 18.796875 -1.421875 11.890625 6.078125 
Q 4.984375 13.578125 4.984375 25.984375 
Q 4.984375 38.28125 11.765625 45.796875 
Q 18.5625 53.328125 29.59375 53.328125 
Q 41.359375 53.328125 47.65625 46.0625 
Q 53.953125 38.8125 54.203125 25 
z
M 43.609375 30.171875 
Q 43.3125 39.265625 39.765625 43.875 
Q 36.234375 48.484375 29.59375 48.484375 
Q 23.390625 48.484375 19.828125 43.84375 
Q 16.265625 39.203125 15.484375 30.171875 
z
" id="DejaVuSerif-65"/>
     </defs>
     <g transform="translate(694.189966 49.52)scale(0.0694 -0.0694)">
      <use xlink:href="#DejaVuSerif-2212"/>
      <use x="83.789062" xlink:href="#DejaVuSerif-33"/>
      <use x="147.412109" xlink:href="#DejaVuSerif-2e"/>
      <use x="179.199219" xlink:href="#DejaVuSerif-39"/>
      <use x="242.822266" xlink:href="#DejaVuSerif-35"/>
      <use x="306.445312" xlink:href="#DejaVuSerif-65"/>
      <use x="365.625" xlink:href="#DejaVuSerif-31"/>
     </g>
    </g>
   </g>
   <g id="patch_8">
    <path d="M 697.381 584.52 
L 697.381 560.338182 
L 697.381 76.701818 
L 697.381 52.52 
L 723.981 52.52 
L 723.981 76.701818 
L 723.981 560.338182 
L 723.981 584.52 
z
" style="fill:none;stroke:#000000;stroke-linejoin:miter;stroke-width:0.8;"/>
   </g>
  </g>
 </g>
 <defs>
  <clipPath id="p309cd9c2dc">
   <rect height="532" width="592.208" x="68.16" y="52.52"/>
  </clipPath>
  <clipPath id="p46e135c3f1">
   <rect height="532" width="26.6" x="697.381" y="52.52"/>
  </clipPath>
 </defs>
</svg>
