<?xml version="1.0" encoding="utf-8" standalone="no"?>
<!DOCTYPE svg PUBLIC "-//W3C//DTD SVG 1.1//EN"
  "http://www.w3.org/Graphics/SVG/1.1/DTD/svg11.dtd">
<!-- Created with matplotlib (http://matplotlib.org/) -->
<svg height="648pt" version="1.1" viewBox="0 0 864 648" width="864pt" xmlns="http://www.w3.org/2000/svg" xmlns:xlink="http://www.w3.org/1999/xlink">
 <defs>
  <style type="text/css">
*{stroke-linecap:butt;stroke-linejoin:round;}
  </style>
 </defs>
 <g id="figure_1">
  <g id="patch_1">
   <path d="M 0 648 
L 864 648 
L 864 0 
L 0 0 
z
" style="fill:#ffffff;"/>
  </g>
  <g id="axes_1">
   <g id="patch_2">
    <path d="M 68.16 584.52 
L 660.368 584.52 
L 660.368 52.52 
L 68.16 52.52 
z
" style="fill:#ffffff;"/>
   </g>
   <g id="PathCollection_1">
    <path clip-path="url(#peb1b2603c8)" d="M 75.714206 161.091429 
L 68.16 84.80264 
L 68.16 161.091429 
L 68.16 263.596835 
z
" style="fill:#fcfcfc;"/>
   </g>
   <g id="PathCollection_2">
    <path clip-path="url(#peb1b2603c8)" d="M 77.220229 378.234286 
L 86.25477 269.662857 
L 94.404875 161.091429 
L 84.982442 52.52 
L 68.16 52.52 
L 68.16 84.80264 
L 75.714206 161.091429 
L 68.16 263.596835 
L 68.16 269.662857 
L 68.16 378.234286 
L 68.16 485.809847 
z
" style="fill:#f6f6f6;"/>
   </g>
   <g id="PathCollection_3">
    <path clip-path="url(#peb1b2603c8)" d="M 79.584176 573.662857 
L 82.311677 541.091428 
L 84.139299 519.377143 
L 85.058223 508.52 
L 86.899968 486.805714 
L 95.911219 378.234286 
L 104.792931 269.662857 
L 113.095543 161.091429 
L 105.275627 52.52 
L 84.982442 52.52 
L 94.404875 161.091429 
L 86.25477 269.662857 
L 77.220229 378.234286 
L 68.16 485.809847 
L 68.16 486.805714 
L 68.16 508.52 
L 68.16 519.377143 
L 68.16 541.091428 
L 68.16 573.662857 
L 68.16 584.52 
L 78.679169 584.52 
z
" style="fill:#efefef;"/>
   </g>
   <g id="PathCollection_4">
    <path clip-path="url(#peb1b2603c8)" d="M 98.46858 573.662857 
L 101.151265 541.091428 
L 102.96433 519.377143 
L 103.881757 508.52 
L 105.72441 486.805714 
L 114.602209 378.234286 
L 123.331093 269.662857 
L 131.786212 161.091429 
L 125.568813 52.52 
L 105.275627 52.52 
L 113.095543 161.091429 
L 104.792931 269.662857 
L 95.911219 378.234286 
L 86.899968 486.805714 
L 85.058223 508.52 
L 84.139299 519.377143 
L 82.311677 541.091428 
L 79.584176 573.662857 
L 78.679169 584.52 
L 97.579597 584.52 
z
" style="fill:#e5e5e5;"/>
   </g>
   <g id="PathCollection_5">
    <path clip-path="url(#peb1b2603c8)" d="M 117.352985 573.662857 
L 119.990853 541.091428 
L 121.789362 519.377143 
L 122.70529 508.52 
L 124.548851 486.805714 
L 133.293199 378.234286 
L 141.869255 269.662857 
L 150.476881 161.091429 
L 145.861998 52.52 
L 125.568813 52.52 
L 131.786212 161.091429 
L 123.331093 269.662857 
L 114.602209 378.234286 
L 105.72441 486.805714 
L 103.881757 508.52 
L 102.96433 519.377143 
L 101.151265 541.091428 
L 98.46858 573.662857 
L 97.579597 584.52 
L 116.480025 584.52 
z
" style="fill:#dcdcdc;"/>
   </g>
   <g id="PathCollection_6">
    <path clip-path="url(#peb1b2603c8)" d="M 136.23739 573.662857 
L 138.830441 541.091428 
L 140.614393 519.377143 
L 141.528824 508.52 
L 143.373292 486.805714 
L 151.984189 378.234286 
L 160.407416 269.662857 
L 169.16755 161.091429 
L 166.155183 52.52 
L 145.861998 52.52 
L 150.476881 161.091429 
L 141.869255 269.662857 
L 133.293199 378.234286 
L 124.548851 486.805714 
L 122.70529 508.52 
L 121.789362 519.377143 
L 119.990853 541.091428 
L 117.352985 573.662857 
L 116.480025 584.52 
L 135.380453 584.52 
z
" style="fill:#d0d0d0;"/>
   </g>
   <g id="PathCollection_7">
    <path clip-path="url(#peb1b2603c8)" d="M 155.121795 573.662857 
L 157.670029 541.091428 
L 159.439425 519.377143 
L 160.352357 508.52 
L 162.197734 486.805714 
L 170.675179 378.234286 
L 178.945578 269.662857 
L 187.858219 161.091429 
L 186.448369 52.52 
L 166.155183 52.52 
L 169.16755 161.091429 
L 160.407416 269.662857 
L 151.984189 378.234286 
L 143.373292 486.805714 
L 141.528824 508.52 
L 140.614393 519.377143 
L 138.830441 541.091428 
L 136.23739 573.662857 
L 135.380453 584.52 
L 154.280881 584.52 
z
" style="fill:#c5c5c5;"/>
   </g>
   <g id="PathCollection_8">
    <path clip-path="url(#peb1b2603c8)" d="M 174.0062 573.662857 
L 176.509617 541.091428 
L 178.264456 519.377143 
L 179.175891 508.52 
L 181.022175 486.805714 
L 189.366169 378.234286 
L 197.48374 269.662857 
L 206.548888 161.091429 
L 206.741554 52.52 
L 186.448369 52.52 
L 187.858219 161.091429 
L 178.945578 269.662857 
L 170.675179 378.234286 
L 162.197734 486.805714 
L 160.352357 508.52 
L 159.439425 519.377143 
L 157.670029 541.091428 
L 155.121795 573.662857 
L 154.280881 584.52 
L 173.181309 584.52 
z
" style="fill:#b6b6b6;"/>
   </g>
   <g id="PathCollection_9">
    <path clip-path="url(#peb1b2603c8)" d="M 192.890605 573.662857 
L 195.349205 541.091428 
L 197.089488 519.377143 
L 197.999425 508.52 
L 199.846616 486.805714 
L 208.057158 378.234286 
L 216.021901 269.662857 
L 225.239557 161.091429 
L 227.034739 52.52 
L 206.741554 52.52 
L 206.548888 161.091429 
L 197.48374 269.662857 
L 189.366169 378.234286 
L 181.022175 486.805714 
L 179.175891 508.52 
L 178.264456 519.377143 
L 176.509617 541.091428 
L 174.0062 573.662857 
L 173.181309 584.52 
L 192.081738 584.52 
z
" style="fill:#a7a7a7;"/>
   </g>
   <g id="PathCollection_10">
    <path clip-path="url(#peb1b2603c8)" d="M 211.77501 573.662857 
L 214.188793 541.091428 
L 215.914519 519.377143 
L 216.822958 508.52 
L 218.671057 486.805714 
L 226.748148 378.234286 
L 234.560063 269.662857 
L 243.930225 161.091429 
L 247.327925 52.52 
L 227.034739 52.52 
L 225.239557 161.091429 
L 216.021901 269.662857 
L 208.057158 378.234286 
L 199.846616 486.805714 
L 197.999425 508.52 
L 197.089488 519.377143 
L 195.349205 541.091428 
L 192.890605 573.662857 
L 192.081738 584.52 
L 210.982166 584.52 
z
" style="fill:#959595;"/>
   </g>
   <g id="PathCollection_11">
    <path clip-path="url(#peb1b2603c8)" d="M 230.659415 573.662857 
L 233.028381 541.091428 
L 234.739551 519.377143 
L 235.646492 508.52 
L 237.495499 486.805714 
L 245.439138 378.234286 
L 253.098225 269.662857 
L 262.620894 161.091429 
L 267.62111 52.52 
L 247.327925 52.52 
L 243.930225 161.091429 
L 234.560063 269.662857 
L 226.748148 378.234286 
L 218.671057 486.805714 
L 216.822958 508.52 
L 215.914519 519.377143 
L 214.188793 541.091428 
L 211.77501 573.662857 
L 210.982166 584.52 
L 229.882594 584.52 
z
" style="fill:#878787;"/>
   </g>
   <g id="PathCollection_12">
    <path clip-path="url(#peb1b2603c8)" d="M 249.54382 573.662857 
L 251.867969 541.091428 
L 253.564582 519.377143 
L 254.470025 508.52 
L 256.31994 486.805714 
L 264.130128 378.234286 
L 271.636386 269.662857 
L 281.311563 161.091429 
L 287.914295 52.52 
L 267.62111 52.52 
L 262.620894 161.091429 
L 253.098225 269.662857 
L 245.439138 378.234286 
L 237.495499 486.805714 
L 235.646492 508.52 
L 234.739551 519.377143 
L 233.028381 541.091428 
L 230.659415 573.662857 
L 229.882594 584.52 
L 248.783022 584.52 
z
" style="fill:#797979;"/>
   </g>
   <g id="PathCollection_13">
    <path clip-path="url(#peb1b2603c8)" d="M 268.428225 573.662857 
L 270.707557 541.091428 
L 272.389614 519.377143 
L 273.293559 508.52 
L 275.144381 486.805714 
L 282.821118 378.234286 
L 290.174548 269.662857 
L 300.002232 161.091429 
L 308.207481 52.52 
L 287.914295 52.52 
L 281.311563 161.091429 
L 271.636386 269.662857 
L 264.130128 378.234286 
L 256.31994 486.805714 
L 254.470025 508.52 
L 253.564582 519.377143 
L 251.867969 541.091428 
L 249.54382 573.662857 
L 248.783022 584.52 
L 267.68345 584.52 
z
" style="fill:#6a6a6a;"/>
   </g>
   <g id="PathCollection_14">
    <path clip-path="url(#peb1b2603c8)" d="M 287.31263 573.662857 
L 289.547145 541.091428 
L 291.214645 519.377143 
L 292.117093 508.52 
L 293.968823 486.805714 
L 301.512108 378.234286 
L 308.71271 269.662857 
L 318.692901 161.091429 
L 328.500666 52.52 
L 308.207481 52.52 
L 300.002232 161.091429 
L 290.174548 269.662857 
L 282.821118 378.234286 
L 275.144381 486.805714 
L 273.293559 508.52 
L 272.389614 519.377143 
L 270.707557 541.091428 
L 268.428225 573.662857 
L 267.68345 584.52 
L 286.583878 584.52 
z
" style="fill:#5d5d5d;"/>
   </g>
   <g id="PathCollection_15">
    <path clip-path="url(#peb1b2603c8)" d="M 306.197034 573.662857 
L 308.386733 541.091428 
L 310.039677 519.377143 
L 310.940626 508.52 
L 312.793264 486.805714 
L 320.203098 378.234286 
L 327.250871 269.662857 
L 337.38357 161.091429 
L 348.793851 52.52 
L 328.500666 52.52 
L 318.692901 161.091429 
L 308.71271 269.662857 
L 301.512108 378.234286 
L 293.968823 486.805714 
L 292.117093 508.52 
L 291.214645 519.377143 
L 289.547145 541.091428 
L 287.31263 573.662857 
L 286.583878 584.52 
L 305.484306 584.52 
z
" style="fill:#4d4d4d;"/>
    <path clip-path="url(#peb1b2603c8)" d="M 660.368 275.968051 
L 660.368 269.662857 
L 660.368 161.091429 
L 660.368 52.52 
L 534.00342 52.52 
L 614.915802 161.091429 
L 659.681358 269.662857 
z
" style="fill:#4d4d4d;"/>
   </g>
   <g id="PathCollection_16">
    <path clip-path="url(#peb1b2603c8)" d="M 325.081439 573.662857 
L 327.226321 541.091428 
L 328.864709 519.377143 
L 329.76416 508.52 
L 331.617705 486.805714 
L 338.894088 378.234286 
L 345.789033 269.662857 
L 356.074239 161.091429 
L 364.264 90.700444 
L 440.631024 161.091429 
L 511.720487 269.662857 
L 540.3817 378.234286 
L 560.54903 486.805714 
L 565.530221 508.52 
L 567.862947 519.377143 
L 573.033472 541.091428 
L 580.844797 573.662857 
L 582.486002 584.52 
L 660.368 584.52 
L 660.368 573.662857 
L 660.368 541.091428 
L 660.368 519.377143 
L 660.368 508.52 
L 660.368 486.805714 
L 660.368 378.234286 
L 660.368 275.968051 
L 659.681358 269.662857 
L 614.915802 161.091429 
L 534.00342 52.52 
L 364.264 52.52 
L 348.793851 52.52 
L 337.38357 161.091429 
L 327.250871 269.662857 
L 320.203098 378.234286 
L 312.793264 486.805714 
L 310.940626 508.52 
L 310.039677 519.377143 
L 308.386733 541.091428 
L 306.197034 573.662857 
L 305.484306 584.52 
L 324.384734 584.52 
z
" style="fill:#3a3a3a;"/>
   </g>
   <g id="PathCollection_17">
    <path clip-path="url(#peb1b2603c8)" d="M 343.965844 573.662857 
L 346.065909 541.091428 
L 347.68974 519.377143 
L 348.587693 508.52 
L 350.442146 486.805714 
L 357.585078 378.234286 
L 364.264 270.688822 
L 410.629019 378.234286 
L 447.367548 486.805714 
L 455.716916 508.52 
L 459.59082 519.377143 
L 466.840779 541.091428 
L 476.461637 573.662857 
L 479.0616 584.52 
L 582.486002 584.52 
L 580.844797 573.662857 
L 573.033472 541.091428 
L 567.862947 519.377143 
L 565.530221 508.52 
L 560.54903 486.805714 
L 540.3817 378.234286 
L 511.720487 269.662857 
L 440.631024 161.091429 
L 364.264 90.700444 
L 356.074239 161.091429 
L 345.789033 269.662857 
L 338.894088 378.234286 
L 331.617705 486.805714 
L 329.76416 508.52 
L 328.864709 519.377143 
L 327.226321 541.091428 
L 325.081439 573.662857 
L 324.384734 584.52 
L 343.285162 584.52 
z
" style="fill:#272727;"/>
   </g>
   <g id="PathCollection_18">
    <path clip-path="url(#peb1b2603c8)" d="M 362.850249 573.662857 
L 364.264 551.274458 
L 372.078478 573.662857 
L 375.637199 584.52 
L 479.0616 584.52 
L 476.461637 573.662857 
L 466.840779 541.091428 
L 459.59082 519.377143 
L 455.716916 508.52 
L 447.367548 486.805714 
L 410.629019 378.234286 
L 364.264 270.688822 
L 357.585078 378.234286 
L 350.442146 486.805714 
L 348.587693 508.52 
L 347.68974 519.377143 
L 346.065909 541.091428 
L 343.965844 573.662857 
L 343.285162 584.52 
L 362.18559 584.52 
z
" style="fill:#171717;"/>
   </g>
   <g id="PathCollection_19">
    <path clip-path="url(#peb1b2603c8)" d="M 364.264 584.52 
L 375.637199 584.52 
L 372.078478 573.662857 
L 364.264 551.274458 
L 362.850249 573.662857 
L 362.18559 584.52 
z
" style="fill:#070707;"/>
   </g>
   <g id="matplotlib.axis_1">
    <g id="xtick_1">
     <g id="line2d_1">
      <defs>
       <path d="M 0 0 
L 0 3.5 
" id="m5b4d1c3614" style="stroke:#000000;stroke-width:0.8;"/>
      </defs>
      <g>
       <use style="stroke:#000000;stroke-width:0.8;" x="68.16" xlink:href="#m5b4d1c3614" y="584.52"/>
      </g>
     </g>
     <g id="text_1">
      <!-- 3.0 -->
      <defs>
       <path d="M 9.71875 69.828125 
Q 15.4375 71.96875 20.671875 73.09375 
Q 25.921875 74.21875 30.515625 74.21875 
Q 41.21875 74.21875 47.21875 69.59375 
Q 53.21875 64.984375 53.21875 56.78125 
Q 53.21875 50.203125 49.0625 45.78125 
Q 44.921875 41.359375 37.3125 39.796875 
Q 46.296875 38.53125 51.25 33.28125 
Q 56.203125 28.03125 56.203125 19.671875 
Q 56.203125 9.46875 49.34375 4.015625 
Q 42.484375 -1.421875 29.59375 -1.421875 
Q 23.875 -1.421875 18.421875 -0.1875 
Q 12.984375 1.03125 7.625 3.515625 
L 7.625 17.671875 
L 13.09375 17.671875 
Q 13.578125 10.640625 17.828125 7.03125 
Q 22.078125 3.421875 29.78125 3.421875 
Q 37.25 3.421875 41.578125 7.734375 
Q 45.90625 12.0625 45.90625 19.578125 
Q 45.90625 28.171875 41.453125 32.59375 
Q 37.015625 37.015625 28.421875 37.015625 
L 23.78125 37.015625 
L 23.78125 42 
L 26.21875 42 
Q 34.765625 42 39.03125 45.53125 
Q 43.3125 49.078125 43.3125 56.203125 
Q 43.3125 62.59375 39.796875 65.984375 
Q 36.28125 69.390625 29.6875 69.390625 
Q 23.09375 69.390625 19.453125 66.265625 
Q 15.828125 63.140625 15.1875 56.984375 
L 9.71875 56.984375 
z
" id="DejaVuSerif-33"/>
       <path d="M 9.421875 5.078125 
Q 9.421875 7.8125 11.28125 9.71875 
Q 13.140625 11.625 15.921875 11.625 
Q 18.609375 11.625 20.5 9.71875 
Q 22.40625 7.8125 22.40625 5.078125 
Q 22.40625 2.390625 20.5 0.484375 
Q 18.609375 -1.421875 15.921875 -1.421875 
Q 13.140625 -1.421875 11.28125 0.453125 
Q 9.421875 2.34375 9.421875 5.078125 
z
" id="DejaVuSerif-2e"/>
       <path d="M 31.78125 3.421875 
Q 39.265625 3.421875 42.96875 11.625 
Q 46.6875 19.828125 46.6875 36.375 
Q 46.6875 52.984375 42.96875 61.1875 
Q 39.265625 69.390625 31.78125 69.390625 
Q 24.3125 69.390625 20.59375 61.1875 
Q 16.890625 52.984375 16.890625 36.375 
Q 16.890625 19.828125 20.59375 11.625 
Q 24.3125 3.421875 31.78125 3.421875 
z
M 31.78125 -1.421875 
Q 19.921875 -1.421875 13.25 8.53125 
Q 6.59375 18.5 6.59375 36.375 
Q 6.59375 54.296875 13.25 64.25 
Q 19.921875 74.21875 31.78125 74.21875 
Q 43.703125 74.21875 50.34375 64.25 
Q 56.984375 54.296875 56.984375 36.375 
Q 56.984375 18.5 50.34375 8.53125 
Q 43.703125 -1.421875 31.78125 -1.421875 
z
" id="DejaVuSerif-30"/>
      </defs>
      <g transform="translate(62.641616 596.793316)scale(0.0694 -0.0694)">
       <use xlink:href="#DejaVuSerif-33"/>
       <use x="63.623047" xlink:href="#DejaVuSerif-2e"/>
       <use x="95.410156" xlink:href="#DejaVuSerif-30"/>
      </g>
     </g>
    </g>
    <g id="xtick_2">
     <g id="line2d_2">
      <g>
       <use style="stroke:#000000;stroke-width:0.8;" x="142.186" xlink:href="#m5b4d1c3614" y="584.52"/>
      </g>
     </g>
     <g id="text_2">
      <!-- 3.5 -->
      <defs>
       <path d="M 50.296875 72.90625 
L 50.296875 64.890625 
L 16.890625 64.890625 
L 16.890625 44 
Q 19.4375 45.75 22.828125 46.625 
Q 26.21875 47.515625 30.421875 47.515625 
Q 42.234375 47.515625 49.0625 40.96875 
Q 55.90625 34.421875 55.90625 23.09375 
Q 55.90625 11.53125 49 5.046875 
Q 42.09375 -1.421875 29.59375 -1.421875 
Q 24.5625 -1.421875 19.28125 -0.1875 
Q 14.015625 1.03125 8.5 3.515625 
L 8.5 17.671875 
L 14.015625 17.671875 
Q 14.453125 10.75 18.421875 7.078125 
Q 22.40625 3.421875 29.59375 3.421875 
Q 37.3125 3.421875 41.453125 8.5 
Q 45.609375 13.578125 45.609375 23.09375 
Q 45.609375 32.5625 41.484375 37.609375 
Q 37.359375 42.671875 29.59375 42.671875 
Q 25.203125 42.671875 21.84375 41.109375 
Q 18.5 39.546875 15.921875 36.28125 
L 11.71875 36.28125 
L 11.71875 72.90625 
z
" id="DejaVuSerif-35"/>
      </defs>
      <g transform="translate(136.667616 596.793316)scale(0.0694 -0.0694)">
       <use xlink:href="#DejaVuSerif-33"/>
       <use x="63.623047" xlink:href="#DejaVuSerif-2e"/>
       <use x="95.410156" xlink:href="#DejaVuSerif-35"/>
      </g>
     </g>
    </g>
    <g id="xtick_3">
     <g id="line2d_3">
      <g>
       <use style="stroke:#000000;stroke-width:0.8;" x="216.212" xlink:href="#m5b4d1c3614" y="584.52"/>
      </g>
     </g>
     <g id="text_3">
      <!-- 4.0 -->
      <defs>
       <path d="M 34.90625 24.703125 
L 34.90625 63.484375 
L 10.015625 24.703125 
z
M 56.390625 0 
L 23.1875 0 
L 23.1875 5.171875 
L 34.90625 5.171875 
L 34.90625 19.484375 
L 3.078125 19.484375 
L 3.078125 24.8125 
L 35.015625 74.21875 
L 44.671875 74.21875 
L 44.671875 24.703125 
L 58.59375 24.703125 
L 58.59375 19.484375 
L 44.671875 19.484375 
L 44.671875 5.171875 
L 56.390625 5.171875 
z
" id="DejaVuSerif-34"/>
      </defs>
      <g transform="translate(210.693616 596.793316)scale(0.0694 -0.0694)">
       <use xlink:href="#DejaVuSerif-34"/>
       <use x="63.623047" xlink:href="#DejaVuSerif-2e"/>
       <use x="95.410156" xlink:href="#DejaVuSerif-30"/>
      </g>
     </g>
    </g>
    <g id="xtick_4">
     <g id="line2d_4">
      <g>
       <use style="stroke:#000000;stroke-width:0.8;" x="290.238" xlink:href="#m5b4d1c3614" y="584.52"/>
      </g>
     </g>
     <g id="text_4">
      <!-- 4.5 -->
      <g transform="translate(284.719616 596.793316)scale(0.0694 -0.0694)">
       <use xlink:href="#DejaVuSerif-34"/>
       <use x="63.623047" xlink:href="#DejaVuSerif-2e"/>
       <use x="95.410156" xlink:href="#DejaVuSerif-35"/>
      </g>
     </g>
    </g>
    <g id="xtick_5">
     <g id="line2d_5">
      <g>
       <use style="stroke:#000000;stroke-width:0.8;" x="364.264" xlink:href="#m5b4d1c3614" y="584.52"/>
      </g>
     </g>
     <g id="text_5">
      <!-- 5.0 -->
      <g transform="translate(358.745616 596.793316)scale(0.0694 -0.0694)">
       <use xlink:href="#DejaVuSerif-35"/>
       <use x="63.623047" xlink:href="#DejaVuSerif-2e"/>
       <use x="95.410156" xlink:href="#DejaVuSerif-30"/>
      </g>
     </g>
    </g>
    <g id="xtick_6">
     <g id="line2d_6">
      <g>
       <use style="stroke:#000000;stroke-width:0.8;" x="438.29" xlink:href="#m5b4d1c3614" y="584.52"/>
      </g>
     </g>
     <g id="text_6">
      <!-- 5.5 -->
      <g transform="translate(432.771616 596.793316)scale(0.0694 -0.0694)">
       <use xlink:href="#DejaVuSerif-35"/>
       <use x="63.623047" xlink:href="#DejaVuSerif-2e"/>
       <use x="95.410156" xlink:href="#DejaVuSerif-35"/>
      </g>
     </g>
    </g>
    <g id="xtick_7">
     <g id="line2d_7">
      <g>
       <use style="stroke:#000000;stroke-width:0.8;" x="512.316" xlink:href="#m5b4d1c3614" y="584.52"/>
      </g>
     </g>
     <g id="text_7">
      <!-- 6.0 -->
      <defs>
       <path d="M 32.71875 3.421875 
Q 39.59375 3.421875 43.296875 8.46875 
Q 47.015625 13.53125 47.015625 23 
Q 47.015625 32.46875 43.296875 37.515625 
Q 39.59375 42.578125 32.71875 42.578125 
Q 25.734375 42.578125 22.0625 37.6875 
Q 18.40625 32.8125 18.40625 23.578125 
Q 18.40625 13.875 22.109375 8.640625 
Q 25.828125 3.421875 32.71875 3.421875 
z
M 16.796875 40.140625 
Q 20.125 43.796875 24.3125 45.59375 
Q 28.515625 47.40625 33.796875 47.40625 
Q 44.671875 47.40625 51 40.859375 
Q 57.328125 34.328125 57.328125 23 
Q 57.328125 11.921875 50.515625 5.25 
Q 43.703125 -1.421875 32.328125 -1.421875 
Q 19.96875 -1.421875 13.328125 7.78125 
Q 6.6875 17 6.6875 34.078125 
Q 6.6875 53.21875 14.546875 63.71875 
Q 22.40625 74.21875 36.71875 74.21875 
Q 40.578125 74.21875 44.828125 73.484375 
Q 49.078125 72.75 53.515625 71.296875 
L 53.515625 59.28125 
L 48 59.28125 
Q 47.40625 64.203125 44.234375 66.796875 
Q 41.0625 69.390625 35.6875 69.390625 
Q 26.21875 69.390625 21.578125 62.203125 
Q 16.9375 55.03125 16.796875 40.140625 
z
" id="DejaVuSerif-36"/>
      </defs>
      <g transform="translate(506.797616 596.793316)scale(0.0694 -0.0694)">
       <use xlink:href="#DejaVuSerif-36"/>
       <use x="63.623047" xlink:href="#DejaVuSerif-2e"/>
       <use x="95.410156" xlink:href="#DejaVuSerif-30"/>
      </g>
     </g>
    </g>
    <g id="xtick_8">
     <g id="line2d_8">
      <g>
       <use style="stroke:#000000;stroke-width:0.8;" x="586.342" xlink:href="#m5b4d1c3614" y="584.52"/>
      </g>
     </g>
     <g id="text_8">
      <!-- 6.5 -->
      <g transform="translate(580.823616 596.793316)scale(0.0694 -0.0694)">
       <use xlink:href="#DejaVuSerif-36"/>
       <use x="63.623047" xlink:href="#DejaVuSerif-2e"/>
       <use x="95.410156" xlink:href="#DejaVuSerif-35"/>
      </g>
     </g>
    </g>
    <g id="xtick_9">
     <g id="line2d_9">
      <g>
       <use style="stroke:#000000;stroke-width:0.8;" x="660.368" xlink:href="#m5b4d1c3614" y="584.52"/>
      </g>
     </g>
     <g id="text_9">
      <!-- 7.0 -->
      <defs>
       <path d="M 56.390625 67.921875 
L 27.875 0 
L 20.609375 0 
L 47.796875 64.890625 
L 14.109375 64.890625 
L 14.109375 55.90625 
L 8.40625 55.90625 
L 8.40625 72.90625 
L 56.390625 72.90625 
z
" id="DejaVuSerif-37"/>
      </defs>
      <g transform="translate(654.849616 596.793316)scale(0.0694 -0.0694)">
       <use xlink:href="#DejaVuSerif-37"/>
       <use x="63.623047" xlink:href="#DejaVuSerif-2e"/>
       <use x="95.410156" xlink:href="#DejaVuSerif-30"/>
      </g>
     </g>
    </g>
   </g>
   <g id="matplotlib.axis_2">
    <g id="ytick_1">
     <g id="line2d_10">
      <defs>
       <path d="M 0 0 
L -3.5 0 
" id="m064838f994" style="stroke:#000000;stroke-width:0.8;"/>
      </defs>
      <g>
       <use style="stroke:#000000;stroke-width:0.8;" x="68.16" xlink:href="#m064838f994" y="515.578926"/>
      </g>
     </g>
     <g id="text_10">
      <!-- 0.1 -->
      <defs>
       <path d="M 14.203125 0 
L 14.203125 5.171875 
L 26.90625 5.171875 
L 26.90625 65.828125 
L 12.203125 56.296875 
L 12.203125 62.703125 
L 29.984375 74.21875 
L 36.71875 74.21875 
L 36.71875 5.171875 
L 49.421875 5.171875 
L 49.421875 0 
z
" id="DejaVuSerif-31"/>
      </defs>
      <g transform="translate(50.123231 518.215584)scale(0.0694 -0.0694)">
       <use xlink:href="#DejaVuSerif-30"/>
       <use x="63.623047" xlink:href="#DejaVuSerif-2e"/>
       <use x="95.410156" xlink:href="#DejaVuSerif-31"/>
      </g>
     </g>
    </g>
    <g id="ytick_2">
     <g id="line2d_11">
      <g>
       <use style="stroke:#000000;stroke-width:0.8;" x="68.16" xlink:href="#m064838f994" y="435.780709"/>
      </g>
     </g>
     <g id="text_11">
      <!-- 0.2 -->
      <defs>
       <path d="M 12.796875 55.515625 
L 7.328125 55.515625 
L 7.328125 68.5 
Q 12.546875 71.296875 17.84375 72.75 
Q 23.140625 74.21875 28.21875 74.21875 
Q 39.59375 74.21875 46.1875 68.703125 
Q 52.78125 63.1875 52.78125 53.71875 
Q 52.78125 43.015625 37.84375 28.125 
Q 36.671875 27 36.078125 26.421875 
L 17.671875 8.015625 
L 48.09375 8.015625 
L 48.09375 17 
L 53.8125 17 
L 53.8125 0 
L 6.78125 0 
L 6.78125 5.328125 
L 28.90625 27.390625 
Q 36.234375 34.71875 39.359375 40.84375 
Q 42.484375 46.96875 42.484375 53.71875 
Q 42.484375 61.078125 38.640625 65.234375 
Q 34.8125 69.390625 28.078125 69.390625 
Q 21.09375 69.390625 17.28125 65.921875 
Q 13.484375 62.453125 12.796875 55.515625 
z
" id="DejaVuSerif-32"/>
      </defs>
      <g transform="translate(50.123231 438.417367)scale(0.0694 -0.0694)">
       <use xlink:href="#DejaVuSerif-30"/>
       <use x="63.623047" xlink:href="#DejaVuSerif-2e"/>
       <use x="95.410156" xlink:href="#DejaVuSerif-32"/>
      </g>
     </g>
    </g>
    <g id="ytick_3">
     <g id="line2d_12">
      <g>
       <use style="stroke:#000000;stroke-width:0.8;" x="68.16" xlink:href="#m064838f994" y="355.982492"/>
      </g>
     </g>
     <g id="text_12">
      <!-- 0.3 -->
      <g transform="translate(50.123231 358.61915)scale(0.0694 -0.0694)">
       <use xlink:href="#DejaVuSerif-30"/>
       <use x="63.623047" xlink:href="#DejaVuSerif-2e"/>
       <use x="95.410156" xlink:href="#DejaVuSerif-33"/>
      </g>
     </g>
    </g>
    <g id="ytick_4">
     <g id="line2d_13">
      <g>
       <use style="stroke:#000000;stroke-width:0.8;" x="68.16" xlink:href="#m064838f994" y="276.184275"/>
      </g>
     </g>
     <g id="text_13">
      <!-- 0.4 -->
      <g transform="translate(50.123231 278.820933)scale(0.0694 -0.0694)">
       <use xlink:href="#DejaVuSerif-30"/>
       <use x="63.623047" xlink:href="#DejaVuSerif-2e"/>
       <use x="95.410156" xlink:href="#DejaVuSerif-34"/>
      </g>
     </g>
    </g>
    <g id="ytick_5">
     <g id="line2d_14">
      <g>
       <use style="stroke:#000000;stroke-width:0.8;" x="68.16" xlink:href="#m064838f994" y="196.386058"/>
      </g>
     </g>
     <g id="text_14">
      <!-- 0.5 -->
      <g transform="translate(50.123231 199.022716)scale(0.0694 -0.0694)">
       <use xlink:href="#DejaVuSerif-30"/>
       <use x="63.623047" xlink:href="#DejaVuSerif-2e"/>
       <use x="95.410156" xlink:href="#DejaVuSerif-35"/>
      </g>
     </g>
    </g>
    <g id="ytick_6">
     <g id="line2d_15">
      <g>
       <use style="stroke:#000000;stroke-width:0.8;" x="68.16" xlink:href="#m064838f994" y="116.587841"/>
      </g>
     </g>
     <g id="text_15">
      <!-- 0.6 -->
      <g transform="translate(50.123231 119.224499)scale(0.0694 -0.0694)">
       <use xlink:href="#DejaVuSerif-30"/>
       <use x="63.623047" xlink:href="#DejaVuSerif-2e"/>
       <use x="95.410156" xlink:href="#DejaVuSerif-36"/>
      </g>
     </g>
    </g>
   </g>
   <g id="patch_3">
    <path d="M 68.16 584.52 
L 68.16 52.52 
" style="fill:none;stroke:#000000;stroke-linecap:square;stroke-linejoin:miter;stroke-width:0.8;"/>
   </g>
   <g id="patch_4">
    <path d="M 660.368 584.52 
L 660.368 52.52 
" style="fill:none;stroke:#000000;stroke-linecap:square;stroke-linejoin:miter;stroke-width:0.8;"/>
   </g>
   <g id="patch_5">
    <path d="M 68.16 584.52 
L 660.368 584.52 
" style="fill:none;stroke:#000000;stroke-linecap:square;stroke-linejoin:miter;stroke-width:0.8;"/>
   </g>
   <g id="patch_6">
    <path d="M 68.16 52.52 
L 660.368 52.52 
" style="fill:none;stroke:#000000;stroke-linecap:square;stroke-linejoin:miter;stroke-width:0.8;"/>
   </g>
  </g>
  <g id="axes_2">
   <g id="patch_7">
    <path clip-path="url(#p81c01203a1)" d="M 697.381 584.52 
L 697.381 556.52 
L 697.381 80.52 
L 697.381 52.52 
L 723.981 52.52 
L 723.981 80.52 
L 723.981 556.52 
L 723.981 584.52 
z
" style="fill:#ffffff;stroke:#ffffff;stroke-linejoin:miter;stroke-width:0.01;"/>
   </g>
   <g id="QuadMesh_1">
    <path clip-path="url(#p81c01203a1)" d="M 697.381 584.52 
L 723.981 584.52 
L 723.981 556.52 
L 697.381 556.52 
L 697.381 584.52 
" style="fill:#fcfcfc;"/>
    <path clip-path="url(#p81c01203a1)" d="M 697.381 556.52 
L 723.981 556.52 
L 723.981 528.52 
L 697.381 528.52 
L 697.381 556.52 
" style="fill:#f6f6f6;"/>
    <path clip-path="url(#p81c01203a1)" d="M 697.381 528.52 
L 723.981 528.52 
L 723.981 500.52 
L 697.381 500.52 
L 697.381 528.52 
" style="fill:#efefef;"/>
    <path clip-path="url(#p81c01203a1)" d="M 697.381 500.52 
L 723.981 500.52 
L 723.981 472.52 
L 697.381 472.52 
L 697.381 500.52 
" style="fill:#e5e5e5;"/>
    <path clip-path="url(#p81c01203a1)" d="M 697.381 472.52 
L 723.981 472.52 
L 723.981 444.52 
L 697.381 444.52 
L 697.381 472.52 
" style="fill:#dcdcdc;"/>
    <path clip-path="url(#p81c01203a1)" d="M 697.381 444.52 
L 723.981 444.52 
L 723.981 416.52 
L 697.381 416.52 
L 697.381 444.52 
" style="fill:#d0d0d0;"/>
    <path clip-path="url(#p81c01203a1)" d="M 697.381 416.52 
L 723.981 416.52 
L 723.981 388.52 
L 697.381 388.52 
L 697.381 416.52 
" style="fill:#c5c5c5;"/>
    <path clip-path="url(#p81c01203a1)" d="M 697.381 388.52 
L 723.981 388.52 
L 723.981 360.52 
L 697.381 360.52 
L 697.381 388.52 
" style="fill:#b6b6b6;"/>
    <path clip-path="url(#p81c01203a1)" d="M 697.381 360.52 
L 723.981 360.52 
L 723.981 332.52 
L 697.381 332.52 
L 697.381 360.52 
" style="fill:#a7a7a7;"/>
    <path clip-path="url(#p81c01203a1)" d="M 697.381 332.52 
L 723.981 332.52 
L 723.981 304.52 
L 697.381 304.52 
L 697.381 332.52 
" style="fill:#959595;"/>
    <path clip-path="url(#p81c01203a1)" d="M 697.381 304.52 
L 723.981 304.52 
L 723.981 276.52 
L 697.381 276.52 
L 697.381 304.52 
" style="fill:#878787;"/>
    <path clip-path="url(#p81c01203a1)" d="M 697.381 276.52 
L 723.981 276.52 
L 723.981 248.52 
L 697.381 248.52 
L 697.381 276.52 
" style="fill:#797979;"/>
    <path clip-path="url(#p81c01203a1)" d="M 697.381 248.52 
L 723.981 248.52 
L 723.981 220.52 
L 697.381 220.52 
L 697.381 248.52 
" style="fill:#6a6a6a;"/>
    <path clip-path="url(#p81c01203a1)" d="M 697.381 220.52 
L 723.981 220.52 
L 723.981 192.52 
L 697.381 192.52 
L 697.381 220.52 
" style="fill:#5d5d5d;"/>
    <path clip-path="url(#p81c01203a1)" d="M 697.381 192.52 
L 723.981 192.52 
L 723.981 164.52 
L 697.381 164.52 
L 697.381 192.52 
" style="fill:#4d4d4d;"/>
    <path clip-path="url(#p81c01203a1)" d="M 697.381 164.52 
L 723.981 164.52 
L 723.981 136.52 
L 697.381 136.52 
L 697.381 164.52 
" style="fill:#3a3a3a;"/>
    <path clip-path="url(#p81c01203a1)" d="M 697.381 136.52 
L 723.981 136.52 
L 723.981 108.52 
L 697.381 108.52 
L 697.381 136.52 
" style="fill:#272727;"/>
    <path clip-path="url(#p81c01203a1)" d="M 697.381 108.52 
L 723.981 108.52 
L 723.981 80.52 
L 697.381 80.52 
L 697.381 108.52 
" style="fill:#171717;"/>
    <path clip-path="url(#p81c01203a1)" d="M 697.381 80.52 
L 723.981 80.52 
L 723.981 52.52 
L 697.381 52.52 
L 697.381 80.52 
" style="fill:#070707;"/>
   </g>
   <g id="matplotlib.axis_3"/>
   <g id="matplotlib.axis_4">
    <g id="ytick_7">
     <g id="line2d_16">
      <defs>
       <path d="M 0 0 
L 3.5 0 
" id="m795ceb460e" style="stroke:#000000;stroke-width:0.8;"/>
      </defs>
      <g>
       <use style="stroke:#000000;stroke-width:0.8;" x="723.981" xlink:href="#m795ceb460e" y="556.52"/>
      </g>
     </g>
     <g id="text_16">
      <!-- −537.59 -->
      <defs>
       <path d="M 10.59375 35.296875 
L 73.1875 35.296875 
L 73.1875 27.390625 
L 10.59375 27.390625 
z
" id="DejaVuSerif-2212"/>
       <path d="M 46.78125 32.671875 
Q 43.5 29 39.25 27.1875 
Q 35.015625 25.390625 29.6875 25.390625 
Q 18.84375 25.390625 12.5625 31.9375 
Q 6.296875 38.484375 6.296875 49.8125 
Q 6.296875 60.890625 13.109375 67.546875 
Q 19.921875 74.21875 31.296875 74.21875 
Q 43.65625 74.21875 50.265625 65.015625 
Q 56.890625 55.8125 56.890625 38.71875 
Q 56.890625 19.578125 49.015625 9.078125 
Q 41.15625 -1.421875 26.90625 -1.421875 
Q 23.046875 -1.421875 18.796875 -0.6875 
Q 14.546875 0.046875 10.109375 1.515625 
L 10.109375 13.625 
L 15.578125 13.625 
Q 16.21875 8.6875 19.390625 6.046875 
Q 22.5625 3.421875 27.875 3.421875 
Q 37.359375 3.421875 41.984375 10.5625 
Q 46.625 17.71875 46.78125 32.671875 
z
M 30.90625 69.390625 
Q 23.96875 69.390625 20.28125 64.328125 
Q 16.609375 59.28125 16.609375 49.8125 
Q 16.609375 40.328125 20.28125 35.25 
Q 23.96875 30.171875 30.90625 30.171875 
Q 37.84375 30.171875 41.53125 35.078125 
Q 45.21875 39.984375 45.21875 49.21875 
Q 45.21875 58.9375 41.5 64.15625 
Q 37.796875 69.390625 30.90625 69.390625 
z
" id="DejaVuSerif-39"/>
      </defs>
      <g transform="translate(730.981 559.156658)scale(0.0694 -0.0694)">
       <use xlink:href="#DejaVuSerif-2212"/>
       <use x="83.789062" xlink:href="#DejaVuSerif-35"/>
       <use x="147.412109" xlink:href="#DejaVuSerif-33"/>
       <use x="211.035156" xlink:href="#DejaVuSerif-37"/>
       <use x="274.658203" xlink:href="#DejaVuSerif-2e"/>
       <use x="306.445312" xlink:href="#DejaVuSerif-35"/>
       <use x="370.068359" xlink:href="#DejaVuSerif-39"/>
      </g>
     </g>
    </g>
    <g id="ytick_8">
     <g id="line2d_17">
      <g>
       <use style="stroke:#000000;stroke-width:0.8;" x="723.981" xlink:href="#m795ceb460e" y="500.52"/>
      </g>
     </g>
     <g id="text_17">
      <!-- −537.57 -->
      <g transform="translate(730.981 503.156658)scale(0.0694 -0.0694)">
       <use xlink:href="#DejaVuSerif-2212"/>
       <use x="83.789062" xlink:href="#DejaVuSerif-35"/>
       <use x="147.412109" xlink:href="#DejaVuSerif-33"/>
       <use x="211.035156" xlink:href="#DejaVuSerif-37"/>
       <use x="274.658203" xlink:href="#DejaVuSerif-2e"/>
       <use x="306.445312" xlink:href="#DejaVuSerif-35"/>
       <use x="370.068359" xlink:href="#DejaVuSerif-37"/>
      </g>
     </g>
    </g>
    <g id="ytick_9">
     <g id="line2d_18">
      <g>
       <use style="stroke:#000000;stroke-width:0.8;" x="723.981" xlink:href="#m795ceb460e" y="444.52"/>
      </g>
     </g>
     <g id="text_18">
      <!-- −537.55 -->
      <g transform="translate(730.981 447.156658)scale(0.0694 -0.0694)">
       <use xlink:href="#DejaVuSerif-2212"/>
       <use x="83.789062" xlink:href="#DejaVuSerif-35"/>
       <use x="147.412109" xlink:href="#DejaVuSerif-33"/>
       <use x="211.035156" xlink:href="#DejaVuSerif-37"/>
       <use x="274.658203" xlink:href="#DejaVuSerif-2e"/>
       <use x="306.445312" xlink:href="#DejaVuSerif-35"/>
       <use x="370.068359" xlink:href="#DejaVuSerif-35"/>
      </g>
     </g>
    </g>
    <g id="ytick_10">
     <g id="line2d_19">
      <g>
       <use style="stroke:#000000;stroke-width:0.8;" x="723.981" xlink:href="#m795ceb460e" y="388.52"/>
      </g>
     </g>
     <g id="text_19">
      <!-- −537.53 -->
      <g transform="translate(730.981 391.156658)scale(0.0694 -0.0694)">
       <use xlink:href="#DejaVuSerif-2212"/>
       <use x="83.789062" xlink:href="#DejaVuSerif-35"/>
       <use x="147.412109" xlink:href="#DejaVuSerif-33"/>
       <use x="211.035156" xlink:href="#DejaVuSerif-37"/>
       <use x="274.658203" xlink:href="#DejaVuSerif-2e"/>
       <use x="306.445312" xlink:href="#DejaVuSerif-35"/>
       <use x="370.068359" xlink:href="#DejaVuSerif-33"/>
      </g>
     </g>
    </g>
    <g id="ytick_11">
     <g id="line2d_20">
      <g>
       <use style="stroke:#000000;stroke-width:0.8;" x="723.981" xlink:href="#m795ceb460e" y="332.52"/>
      </g>
     </g>
     <g id="text_20">
      <!-- −537.51 -->
      <g transform="translate(730.981 335.156658)scale(0.0694 -0.0694)">
       <use xlink:href="#DejaVuSerif-2212"/>
       <use x="83.789062" xlink:href="#DejaVuSerif-35"/>
       <use x="147.412109" xlink:href="#DejaVuSerif-33"/>
       <use x="211.035156" xlink:href="#DejaVuSerif-37"/>
       <use x="274.658203" xlink:href="#DejaVuSerif-2e"/>
       <use x="306.445312" xlink:href="#DejaVuSerif-35"/>
       <use x="370.068359" xlink:href="#DejaVuSerif-31"/>
      </g>
     </g>
    </g>
    <g id="ytick_12">
     <g id="line2d_21">
      <g>
       <use style="stroke:#000000;stroke-width:0.8;" x="723.981" xlink:href="#m795ceb460e" y="276.52"/>
      </g>
     </g>
     <g id="text_21">
      <!-- −537.49 -->
      <g transform="translate(730.981 279.156658)scale(0.0694 -0.0694)">
       <use xlink:href="#DejaVuSerif-2212"/>
       <use x="83.789062" xlink:href="#DejaVuSerif-35"/>
       <use x="147.412109" xlink:href="#DejaVuSerif-33"/>
       <use x="211.035156" xlink:href="#DejaVuSerif-37"/>
       <use x="274.658203" xlink:href="#DejaVuSerif-2e"/>
       <use x="306.445312" xlink:href="#DejaVuSerif-34"/>
       <use x="370.068359" xlink:href="#DejaVuSerif-39"/>
      </g>
     </g>
    </g>
    <g id="ytick_13">
     <g id="line2d_22">
      <g>
       <use style="stroke:#000000;stroke-width:0.8;" x="723.981" xlink:href="#m795ceb460e" y="220.52"/>
      </g>
     </g>
     <g id="text_22">
      <!-- −537.47 -->
      <g transform="translate(730.981 223.156658)scale(0.0694 -0.0694)">
       <use xlink:href="#DejaVuSerif-2212"/>
       <use x="83.789062" xlink:href="#DejaVuSerif-35"/>
       <use x="147.412109" xlink:href="#DejaVuSerif-33"/>
       <use x="211.035156" xlink:href="#DejaVuSerif-37"/>
       <use x="274.658203" xlink:href="#DejaVuSerif-2e"/>
       <use x="306.445312" xlink:href="#DejaVuSerif-34"/>
       <use x="370.068359" xlink:href="#DejaVuSerif-37"/>
      </g>
     </g>
    </g>
    <g id="ytick_14">
     <g id="line2d_23">
      <g>
       <use style="stroke:#000000;stroke-width:0.8;" x="723.981" xlink:href="#m795ceb460e" y="164.52"/>
      </g>
     </g>
     <g id="text_23">
      <!-- −537.45 -->
      <g transform="translate(730.981 167.156658)scale(0.0694 -0.0694)">
       <use xlink:href="#DejaVuSerif-2212"/>
       <use x="83.789062" xlink:href="#DejaVuSerif-35"/>
       <use x="147.412109" xlink:href="#DejaVuSerif-33"/>
       <use x="211.035156" xlink:href="#DejaVuSerif-37"/>
       <use x="274.658203" xlink:href="#DejaVuSerif-2e"/>
       <use x="306.445312" xlink:href="#DejaVuSerif-34"/>
       <use x="370.068359" xlink:href="#DejaVuSerif-35"/>
      </g>
     </g>
    </g>
    <g id="ytick_15">
     <g id="line2d_24">
      <g>
       <use style="stroke:#000000;stroke-width:0.8;" x="723.981" xlink:href="#m795ceb460e" y="108.52"/>
      </g>
     </g>
     <g id="text_24">
      <!-- −537.43 -->
      <g transform="translate(730.981 111.156658)scale(0.0694 -0.0694)">
       <use xlink:href="#DejaVuSerif-2212"/>
       <use x="83.789062" xlink:href="#DejaVuSerif-35"/>
       <use x="147.412109" xlink:href="#DejaVuSerif-33"/>
       <use x="211.035156" xlink:href="#DejaVuSerif-37"/>
       <use x="274.658203" xlink:href="#DejaVuSerif-2e"/>
       <use x="306.445312" xlink:href="#DejaVuSerif-34"/>
       <use x="370.068359" xlink:href="#DejaVuSerif-33"/>
      </g>
     </g>
    </g>
    <g id="ytick_16">
     <g id="line2d_25">
      <g>
       <use style="stroke:#000000;stroke-width:0.8;" x="723.981" xlink:href="#m795ceb460e" y="52.52"/>
      </g>
     </g>
     <g id="text_25">
      <!-- −537.41 -->
      <g transform="translate(730.981 55.156658)scale(0.0694 -0.0694)">
       <use xlink:href="#DejaVuSerif-2212"/>
       <use x="83.789062" xlink:href="#DejaVuSerif-35"/>
       <use x="147.412109" xlink:href="#DejaVuSerif-33"/>
       <use x="211.035156" xlink:href="#DejaVuSerif-37"/>
       <use x="274.658203" xlink:href="#DejaVuSerif-2e"/>
       <use x="306.445312" xlink:href="#DejaVuSerif-34"/>
       <use x="370.068359" xlink:href="#DejaVuSerif-31"/>
      </g>
     </g>
    </g>
   </g>
   <g id="patch_8">
    <path d="M 697.381 584.52 
L 697.381 556.52 
L 697.381 80.52 
L 697.381 52.52 
L 723.981 52.52 
L 723.981 80.52 
L 723.981 556.52 
L 723.981 584.52 
z
" style="fill:none;stroke:#000000;stroke-linejoin:miter;stroke-width:0.8;"/>
   </g>
  </g>
 </g>
 <defs>
  <clipPath id="peb1b2603c8">
   <rect height="532" width="592.208" x="68.16" y="52.52"/>
  </clipPath>
  <clipPath id="p81c01203a1">
   <rect height="532" width="26.6" x="697.381" y="52.52"/>
  </clipPath>
 </defs>
</svg>
