<?xml version="1.0" encoding="utf-8" standalone="no"?>
<!DOCTYPE svg PUBLIC "-//W3C//DTD SVG 1.1//EN"
  "http://www.w3.org/Graphics/SVG/1.1/DTD/svg11.dtd">
<!-- Created with matplotlib (http://matplotlib.org/) -->
<svg height="648pt" version="1.1" viewBox="0 0 864 648" width="864pt" xmlns="http://www.w3.org/2000/svg" xmlns:xlink="http://www.w3.org/1999/xlink">
 <defs>
  <style type="text/css">
*{stroke-linecap:butt;stroke-linejoin:round;}
  </style>
 </defs>
 <g id="figure_1">
  <g id="patch_1">
   <path d="M 0 648 
L 864 648 
L 864 0 
L 0 0 
z
" style="fill:#ffffff;"/>
  </g>
  <g id="axes_1">
   <g id="patch_2">
    <path d="M 68.16 584.52 
L 660.368 584.52 
L 660.368 52.52 
L 68.16 52.52 
z
" style="fill:#ffffff;"/>
   </g>
   <g id="PathCollection_1">
    <path clip-path="url(#pa865e9de7c)" d="M 660.368 574.931348 
L 660.368 573.662857 
L 660.368 571.495853 
L 653.228386 573.662857 
z
" style="fill:#fcfcfc;"/>
   </g>
   <g id="PathCollection_2">
    <path clip-path="url(#pa865e9de7c)" d="M 660.368 581.797856 
L 660.368 574.931348 
L 653.228386 573.662857 
L 660.368 571.495853 
L 660.368 559.765579 
L 614.580725 573.662857 
z
" style="fill:#f7f7f7;"/>
   </g>
   <g id="PathCollection_3">
    <path clip-path="url(#pa865e9de7c)" d="M 660.368 584.52 
L 660.368 581.797856 
L 614.580725 573.662857 
L 660.368 559.765579 
L 660.368 548.035305 
L 575.933064 573.662857 
L 644.851877 584.52 
z
" style="fill:#f1f1f1;"/>
   </g>
   <g id="PathCollection_4">
    <path clip-path="url(#pa865e9de7c)" d="M 575.933064 573.662857 
L 660.368 548.035305 
L 660.368 541.091428 
L 660.368 532.886168 
L 538.306168 541.091428 
L 537.285403 573.662857 
L 619.14429 584.52 
L 644.851877 584.52 
z
" style="fill:#e9e9e9;"/>
    <path clip-path="url(#pa865e9de7c)" d="M 364.264 531.731846 
L 522.207659 519.377143 
L 517.875872 508.52 
L 495.797246 486.805714 
L 364.264 428.10861 
L 310.486086 486.805714 
L 306.162103 508.52 
L 316.838535 519.377143 
z
" style="fill:#e9e9e9;"/>
   </g>
   <g id="PathCollection_5">
    <path clip-path="url(#pa865e9de7c)" d="M 537.285403 573.662857 
L 538.306168 541.091428 
L 660.368 532.886168 
L 660.368 519.377143 
L 660.368 508.52 
L 660.368 498.899722 
L 642.510633 486.805714 
L 430.376017 378.234286 
L 364.264 331.443341 
L 345.973002 378.234286 
L 250.501709 486.805714 
L 246.488524 508.52 
L 255.085181 519.377143 
L 336.975689 541.091428 
L 364.264 544.588474 
L 498.637743 573.662857 
L 593.436703 584.52 
L 619.14429 584.52 
z
M 316.838535 519.377143 
L 306.162103 508.52 
L 310.486086 486.805714 
L 364.264 428.10861 
L 495.797246 486.805714 
L 517.875872 508.52 
L 522.207659 519.377143 
L 364.264 531.731846 
z
" style="fill:#e0e0e0;"/>
   </g>
   <g id="PathCollection_6">
    <path clip-path="url(#pa865e9de7c)" d="M 498.637743 573.662857 
L 364.264 544.588474 
L 336.975689 541.091428 
L 255.085181 519.377143 
L 246.488524 508.52 
L 250.501709 486.805714 
L 345.973002 378.234286 
L 364.264 331.443341 
L 430.376017 378.234286 
L 642.510633 486.805714 
L 660.368 498.899722 
L 660.368 486.805714 
L 660.368 378.234286 
L 660.368 269.662857 
L 660.368 186.049735 
L 624.064832 161.091429 
L 383.835965 52.52 
L 364.264 52.52 
L 362.605357 52.52 
L 340.573983 161.091429 
L 309.058268 269.662857 
L 269.19298 378.234286 
L 190.517332 486.805714 
L 186.814945 508.52 
L 193.331826 519.377143 
L 271.723556 541.091428 
L 364.264 552.95065 
L 459.990082 573.662857 
L 567.729116 584.52 
L 593.436703 584.52 
z
" style="fill:#d6d6d6;"/>
   </g>
   <g id="PathCollection_7">
    <path clip-path="url(#pa865e9de7c)" d="M 459.990082 573.662857 
L 364.264 552.95065 
L 271.723556 541.091428 
L 193.331826 519.377143 
L 186.814945 508.52 
L 190.517332 486.805714 
L 269.19298 378.234286 
L 309.058268 269.662857 
L 340.573983 161.091429 
L 362.605357 52.52 
L 265.003669 52.52 
L 270.561815 161.091429 
L 228.519807 269.662857 
L 192.412957 378.234286 
L 130.532955 486.805714 
L 127.141366 508.52 
L 131.578472 519.377143 
L 206.471423 541.091428 
L 364.264 561.312826 
L 421.342421 573.662857 
L 542.021528 584.52 
L 567.729116 584.52 
z
" style="fill:#cccccc;"/>
    <path clip-path="url(#pa865e9de7c)" d="M 660.368 186.049735 
L 660.368 161.091429 
L 660.368 52.52 
L 383.835965 52.52 
L 624.064832 161.091429 
z
" style="fill:#cccccc;"/>
   </g>
   <g id="PathCollection_8">
    <path clip-path="url(#pa865e9de7c)" d="M 421.342421 573.662857 
L 364.264 561.312826 
L 206.471423 541.091428 
L 131.578472 519.377143 
L 127.141366 508.52 
L 130.532955 486.805714 
L 192.412957 378.234286 
L 228.519807 269.662857 
L 270.561815 161.091429 
L 265.003669 52.52 
L 167.401982 52.52 
L 200.549648 161.091429 
L 147.981346 269.662857 
L 115.632934 378.234286 
L 70.548578 486.805714 
L 68.16 503.621406 
L 68.16 508.52 
L 68.16 511.785814 
L 69.825117 519.377143 
L 141.21929 541.091428 
L 364.264 569.675002 
L 382.69476 573.662857 
L 516.313941 584.52 
L 542.021528 584.52 
z
" style="fill:#c1c1c1;"/>
   </g>
   <g id="PathCollection_9">
    <path clip-path="url(#pa865e9de7c)" d="M 364.264 574.707317 
L 490.606354 584.52 
L 516.313941 584.52 
L 382.69476 573.662857 
L 364.264 569.675002 
L 141.21929 541.091428 
L 69.825117 519.377143 
L 68.16 511.785814 
L 68.16 519.377143 
L 68.16 538.713767 
L 75.967157 541.091428 
L 337.064745 573.662857 
z
" style="fill:#b4b4b4;"/>
    <path clip-path="url(#pa865e9de7c)" d="M 70.548578 486.805714 
L 115.632934 378.234286 
L 147.981346 269.662857 
L 200.549648 161.091429 
L 167.401982 52.52 
L 69.800294 52.52 
L 130.537481 161.091429 
L 68.16 268.588552 
L 68.16 269.662857 
L 68.16 378.234286 
L 68.16 486.805714 
L 68.16 503.621406 
z
" style="fill:#b4b4b4;"/>
   </g>
   <g id="PathCollection_10">
    <path clip-path="url(#pa865e9de7c)" d="M 364.264 576.703958 
L 464.898767 584.52 
L 490.606354 584.52 
L 364.264 574.707317 
L 337.064745 573.662857 
L 75.967157 541.091428 
L 68.16 538.713767 
L 68.16 541.091428 
L 68.16 546.767223 
L 285.069259 573.662857 
z
" style="fill:#a5a5a5;"/>
    <path clip-path="url(#pa865e9de7c)" d="M 130.537481 161.091429 
L 69.800294 52.52 
L 68.16 52.52 
L 68.16 161.091429 
L 68.16 268.588552 
z
" style="fill:#a5a5a5;"/>
   </g>
   <g id="PathCollection_11">
    <path clip-path="url(#pa865e9de7c)" d="M 364.264 578.7006 
L 439.191179 584.52 
L 464.898767 584.52 
L 364.264 576.703958 
L 285.069259 573.662857 
L 68.16 546.767223 
L 68.16 553.214396 
L 233.073772 573.662857 
z
" style="fill:#959595;"/>
   </g>
   <g id="PathCollection_12">
    <path clip-path="url(#pa865e9de7c)" d="M 364.264 580.697242 
L 413.483592 584.52 
L 439.191179 584.52 
L 364.264 578.7006 
L 233.073772 573.662857 
L 68.16 553.214396 
L 68.16 559.66157 
L 181.078286 573.662857 
z
" style="fill:#888888;"/>
   </g>
   <g id="PathCollection_13">
    <path clip-path="url(#pa865e9de7c)" d="M 364.264 582.693883 
L 387.776005 584.52 
L 413.483592 584.52 
L 364.264 580.697242 
L 181.078286 573.662857 
L 68.16 559.66157 
L 68.16 566.108743 
L 129.082799 573.662857 
z
" style="fill:#7b7b7b;"/>
   </g>
   <g id="PathCollection_14">
    <path clip-path="url(#pa865e9de7c)" d="M 364.264 584.52 
L 387.776005 584.52 
L 364.264 582.693883 
L 129.082799 573.662857 
L 68.16 566.108743 
L 68.16 572.555916 
L 77.087313 573.662857 
L 360.321631 584.52 
z
" style="fill:#6e6e6e;"/>
   </g>
   <g id="PathCollection_15">
    <path clip-path="url(#pa865e9de7c)" d="M 77.087313 573.662857 
L 68.16 572.555916 
L 68.16 573.662857 
L 68.16 575.123338 
L 314.161305 584.52 
L 360.321631 584.52 
z
" style="fill:#626262;"/>
   </g>
   <g id="PathCollection_16">
    <path clip-path="url(#pa865e9de7c)" d="M 68.16 575.123338 
L 68.16 576.886552 
L 268.000978 584.52 
L 314.161305 584.52 
z
" style="fill:#555555;"/>
   </g>
   <g id="PathCollection_17">
    <path clip-path="url(#pa865e9de7c)" d="M 68.16 576.886552 
L 68.16 578.649766 
L 221.840652 584.52 
L 268.000978 584.52 
z
" style="fill:#444444;"/>
   </g>
   <g id="PathCollection_18">
    <path clip-path="url(#pa865e9de7c)" d="M 68.16 578.649766 
L 68.16 580.412981 
L 175.680325 584.52 
L 221.840652 584.52 
z
" style="fill:#333333;"/>
   </g>
   <g id="PathCollection_19">
    <path clip-path="url(#pa865e9de7c)" d="M 68.16 580.412981 
L 68.16 582.176195 
L 129.519999 584.52 
L 175.680325 584.52 
z
" style="fill:#232323;"/>
   </g>
   <g id="PathCollection_20">
    <path clip-path="url(#pa865e9de7c)" d="M 68.16 582.176195 
L 68.16 583.939409 
L 83.359672 584.52 
L 129.519999 584.52 
z
" style="fill:#151515;"/>
   </g>
   <g id="PathCollection_21">
    <path clip-path="url(#pa865e9de7c)" d="M 68.16 583.939409 
L 68.16 584.52 
L 83.359672 584.52 
z
" style="fill:#070707;"/>
   </g>
   <g id="matplotlib.axis_1">
    <g id="xtick_1">
     <g id="line2d_1">
      <defs>
       <path d="M 0 0 
L 0 3.5 
" id="mb202eea6c5" style="stroke:#000000;stroke-width:0.8;"/>
      </defs>
      <g>
       <use style="stroke:#000000;stroke-width:0.8;" x="68.16" xlink:href="#mb202eea6c5" y="584.52"/>
      </g>
     </g>
     <g id="text_1">
      <!-- 3.0 -->
      <defs>
       <path d="M 9.71875 69.828125 
Q 15.4375 71.96875 20.671875 73.09375 
Q 25.921875 74.21875 30.515625 74.21875 
Q 41.21875 74.21875 47.21875 69.59375 
Q 53.21875 64.984375 53.21875 56.78125 
Q 53.21875 50.203125 49.0625 45.78125 
Q 44.921875 41.359375 37.3125 39.796875 
Q 46.296875 38.53125 51.25 33.28125 
Q 56.203125 28.03125 56.203125 19.671875 
Q 56.203125 9.46875 49.34375 4.015625 
Q 42.484375 -1.421875 29.59375 -1.421875 
Q 23.875 -1.421875 18.421875 -0.1875 
Q 12.984375 1.03125 7.625 3.515625 
L 7.625 17.671875 
L 13.09375 17.671875 
Q 13.578125 10.640625 17.828125 7.03125 
Q 22.078125 3.421875 29.78125 3.421875 
Q 37.25 3.421875 41.578125 7.734375 
Q 45.90625 12.0625 45.90625 19.578125 
Q 45.90625 28.171875 41.453125 32.59375 
Q 37.015625 37.015625 28.421875 37.015625 
L 23.78125 37.015625 
L 23.78125 42 
L 26.21875 42 
Q 34.765625 42 39.03125 45.53125 
Q 43.3125 49.078125 43.3125 56.203125 
Q 43.3125 62.59375 39.796875 65.984375 
Q 36.28125 69.390625 29.6875 69.390625 
Q 23.09375 69.390625 19.453125 66.265625 
Q 15.828125 63.140625 15.1875 56.984375 
L 9.71875 56.984375 
z
" id="DejaVuSerif-33"/>
       <path d="M 9.421875 5.078125 
Q 9.421875 7.8125 11.28125 9.71875 
Q 13.140625 11.625 15.921875 11.625 
Q 18.609375 11.625 20.5 9.71875 
Q 22.40625 7.8125 22.40625 5.078125 
Q 22.40625 2.390625 20.5 0.484375 
Q 18.609375 -1.421875 15.921875 -1.421875 
Q 13.140625 -1.421875 11.28125 0.453125 
Q 9.421875 2.34375 9.421875 5.078125 
z
" id="DejaVuSerif-2e"/>
       <path d="M 31.78125 3.421875 
Q 39.265625 3.421875 42.96875 11.625 
Q 46.6875 19.828125 46.6875 36.375 
Q 46.6875 52.984375 42.96875 61.1875 
Q 39.265625 69.390625 31.78125 69.390625 
Q 24.3125 69.390625 20.59375 61.1875 
Q 16.890625 52.984375 16.890625 36.375 
Q 16.890625 19.828125 20.59375 11.625 
Q 24.3125 3.421875 31.78125 3.421875 
z
M 31.78125 -1.421875 
Q 19.921875 -1.421875 13.25 8.53125 
Q 6.59375 18.5 6.59375 36.375 
Q 6.59375 54.296875 13.25 64.25 
Q 19.921875 74.21875 31.78125 74.21875 
Q 43.703125 74.21875 50.34375 64.25 
Q 56.984375 54.296875 56.984375 36.375 
Q 56.984375 18.5 50.34375 8.53125 
Q 43.703125 -1.421875 31.78125 -1.421875 
z
" id="DejaVuSerif-30"/>
      </defs>
      <g transform="translate(62.641616 596.793316)scale(0.0694 -0.0694)">
       <use xlink:href="#DejaVuSerif-33"/>
       <use x="63.623047" xlink:href="#DejaVuSerif-2e"/>
       <use x="95.410156" xlink:href="#DejaVuSerif-30"/>
      </g>
     </g>
    </g>
    <g id="xtick_2">
     <g id="line2d_2">
      <g>
       <use style="stroke:#000000;stroke-width:0.8;" x="142.186" xlink:href="#mb202eea6c5" y="584.52"/>
      </g>
     </g>
     <g id="text_2">
      <!-- 3.5 -->
      <defs>
       <path d="M 50.296875 72.90625 
L 50.296875 64.890625 
L 16.890625 64.890625 
L 16.890625 44 
Q 19.4375 45.75 22.828125 46.625 
Q 26.21875 47.515625 30.421875 47.515625 
Q 42.234375 47.515625 49.0625 40.96875 
Q 55.90625 34.421875 55.90625 23.09375 
Q 55.90625 11.53125 49 5.046875 
Q 42.09375 -1.421875 29.59375 -1.421875 
Q 24.5625 -1.421875 19.28125 -0.1875 
Q 14.015625 1.03125 8.5 3.515625 
L 8.5 17.671875 
L 14.015625 17.671875 
Q 14.453125 10.75 18.421875 7.078125 
Q 22.40625 3.421875 29.59375 3.421875 
Q 37.3125 3.421875 41.453125 8.5 
Q 45.609375 13.578125 45.609375 23.09375 
Q 45.609375 32.5625 41.484375 37.609375 
Q 37.359375 42.671875 29.59375 42.671875 
Q 25.203125 42.671875 21.84375 41.109375 
Q 18.5 39.546875 15.921875 36.28125 
L 11.71875 36.28125 
L 11.71875 72.90625 
z
" id="DejaVuSerif-35"/>
      </defs>
      <g transform="translate(136.667616 596.793316)scale(0.0694 -0.0694)">
       <use xlink:href="#DejaVuSerif-33"/>
       <use x="63.623047" xlink:href="#DejaVuSerif-2e"/>
       <use x="95.410156" xlink:href="#DejaVuSerif-35"/>
      </g>
     </g>
    </g>
    <g id="xtick_3">
     <g id="line2d_3">
      <g>
       <use style="stroke:#000000;stroke-width:0.8;" x="216.212" xlink:href="#mb202eea6c5" y="584.52"/>
      </g>
     </g>
     <g id="text_3">
      <!-- 4.0 -->
      <defs>
       <path d="M 34.90625 24.703125 
L 34.90625 63.484375 
L 10.015625 24.703125 
z
M 56.390625 0 
L 23.1875 0 
L 23.1875 5.171875 
L 34.90625 5.171875 
L 34.90625 19.484375 
L 3.078125 19.484375 
L 3.078125 24.8125 
L 35.015625 74.21875 
L 44.671875 74.21875 
L 44.671875 24.703125 
L 58.59375 24.703125 
L 58.59375 19.484375 
L 44.671875 19.484375 
L 44.671875 5.171875 
L 56.390625 5.171875 
z
" id="DejaVuSerif-34"/>
      </defs>
      <g transform="translate(210.693616 596.793316)scale(0.0694 -0.0694)">
       <use xlink:href="#DejaVuSerif-34"/>
       <use x="63.623047" xlink:href="#DejaVuSerif-2e"/>
       <use x="95.410156" xlink:href="#DejaVuSerif-30"/>
      </g>
     </g>
    </g>
    <g id="xtick_4">
     <g id="line2d_4">
      <g>
       <use style="stroke:#000000;stroke-width:0.8;" x="290.238" xlink:href="#mb202eea6c5" y="584.52"/>
      </g>
     </g>
     <g id="text_4">
      <!-- 4.5 -->
      <g transform="translate(284.719616 596.793316)scale(0.0694 -0.0694)">
       <use xlink:href="#DejaVuSerif-34"/>
       <use x="63.623047" xlink:href="#DejaVuSerif-2e"/>
       <use x="95.410156" xlink:href="#DejaVuSerif-35"/>
      </g>
     </g>
    </g>
    <g id="xtick_5">
     <g id="line2d_5">
      <g>
       <use style="stroke:#000000;stroke-width:0.8;" x="364.264" xlink:href="#mb202eea6c5" y="584.52"/>
      </g>
     </g>
     <g id="text_5">
      <!-- 5.0 -->
      <g transform="translate(358.745616 596.793316)scale(0.0694 -0.0694)">
       <use xlink:href="#DejaVuSerif-35"/>
       <use x="63.623047" xlink:href="#DejaVuSerif-2e"/>
       <use x="95.410156" xlink:href="#DejaVuSerif-30"/>
      </g>
     </g>
    </g>
    <g id="xtick_6">
     <g id="line2d_6">
      <g>
       <use style="stroke:#000000;stroke-width:0.8;" x="438.29" xlink:href="#mb202eea6c5" y="584.52"/>
      </g>
     </g>
     <g id="text_6">
      <!-- 5.5 -->
      <g transform="translate(432.771616 596.793316)scale(0.0694 -0.0694)">
       <use xlink:href="#DejaVuSerif-35"/>
       <use x="63.623047" xlink:href="#DejaVuSerif-2e"/>
       <use x="95.410156" xlink:href="#DejaVuSerif-35"/>
      </g>
     </g>
    </g>
    <g id="xtick_7">
     <g id="line2d_7">
      <g>
       <use style="stroke:#000000;stroke-width:0.8;" x="512.316" xlink:href="#mb202eea6c5" y="584.52"/>
      </g>
     </g>
     <g id="text_7">
      <!-- 6.0 -->
      <defs>
       <path d="M 32.71875 3.421875 
Q 39.59375 3.421875 43.296875 8.46875 
Q 47.015625 13.53125 47.015625 23 
Q 47.015625 32.46875 43.296875 37.515625 
Q 39.59375 42.578125 32.71875 42.578125 
Q 25.734375 42.578125 22.0625 37.6875 
Q 18.40625 32.8125 18.40625 23.578125 
Q 18.40625 13.875 22.109375 8.640625 
Q 25.828125 3.421875 32.71875 3.421875 
z
M 16.796875 40.140625 
Q 20.125 43.796875 24.3125 45.59375 
Q 28.515625 47.40625 33.796875 47.40625 
Q 44.671875 47.40625 51 40.859375 
Q 57.328125 34.328125 57.328125 23 
Q 57.328125 11.921875 50.515625 5.25 
Q 43.703125 -1.421875 32.328125 -1.421875 
Q 19.96875 -1.421875 13.328125 7.78125 
Q 6.6875 17 6.6875 34.078125 
Q 6.6875 53.21875 14.546875 63.71875 
Q 22.40625 74.21875 36.71875 74.21875 
Q 40.578125 74.21875 44.828125 73.484375 
Q 49.078125 72.75 53.515625 71.296875 
L 53.515625 59.28125 
L 48 59.28125 
Q 47.40625 64.203125 44.234375 66.796875 
Q 41.0625 69.390625 35.6875 69.390625 
Q 26.21875 69.390625 21.578125 62.203125 
Q 16.9375 55.03125 16.796875 40.140625 
z
" id="DejaVuSerif-36"/>
      </defs>
      <g transform="translate(506.797616 596.793316)scale(0.0694 -0.0694)">
       <use xlink:href="#DejaVuSerif-36"/>
       <use x="63.623047" xlink:href="#DejaVuSerif-2e"/>
       <use x="95.410156" xlink:href="#DejaVuSerif-30"/>
      </g>
     </g>
    </g>
    <g id="xtick_8">
     <g id="line2d_8">
      <g>
       <use style="stroke:#000000;stroke-width:0.8;" x="586.342" xlink:href="#mb202eea6c5" y="584.52"/>
      </g>
     </g>
     <g id="text_8">
      <!-- 6.5 -->
      <g transform="translate(580.823616 596.793316)scale(0.0694 -0.0694)">
       <use xlink:href="#DejaVuSerif-36"/>
       <use x="63.623047" xlink:href="#DejaVuSerif-2e"/>
       <use x="95.410156" xlink:href="#DejaVuSerif-35"/>
      </g>
     </g>
    </g>
    <g id="xtick_9">
     <g id="line2d_9">
      <g>
       <use style="stroke:#000000;stroke-width:0.8;" x="660.368" xlink:href="#mb202eea6c5" y="584.52"/>
      </g>
     </g>
     <g id="text_9">
      <!-- 7.0 -->
      <defs>
       <path d="M 56.390625 67.921875 
L 27.875 0 
L 20.609375 0 
L 47.796875 64.890625 
L 14.109375 64.890625 
L 14.109375 55.90625 
L 8.40625 55.90625 
L 8.40625 72.90625 
L 56.390625 72.90625 
z
" id="DejaVuSerif-37"/>
      </defs>
      <g transform="translate(654.849616 596.793316)scale(0.0694 -0.0694)">
       <use xlink:href="#DejaVuSerif-37"/>
       <use x="63.623047" xlink:href="#DejaVuSerif-2e"/>
       <use x="95.410156" xlink:href="#DejaVuSerif-30"/>
      </g>
     </g>
    </g>
   </g>
   <g id="matplotlib.axis_2">
    <g id="ytick_1">
     <g id="line2d_10">
      <defs>
       <path d="M 0 0 
L -3.5 0 
" id="me12118fc19" style="stroke:#000000;stroke-width:0.8;"/>
      </defs>
      <g>
       <use style="stroke:#000000;stroke-width:0.8;" x="68.16" xlink:href="#me12118fc19" y="515.578926"/>
      </g>
     </g>
     <g id="text_10">
      <!-- 0.1 -->
      <defs>
       <path d="M 14.203125 0 
L 14.203125 5.171875 
L 26.90625 5.171875 
L 26.90625 65.828125 
L 12.203125 56.296875 
L 12.203125 62.703125 
L 29.984375 74.21875 
L 36.71875 74.21875 
L 36.71875 5.171875 
L 49.421875 5.171875 
L 49.421875 0 
z
" id="DejaVuSerif-31"/>
      </defs>
      <g transform="translate(50.123231 518.215584)scale(0.0694 -0.0694)">
       <use xlink:href="#DejaVuSerif-30"/>
       <use x="63.623047" xlink:href="#DejaVuSerif-2e"/>
       <use x="95.410156" xlink:href="#DejaVuSerif-31"/>
      </g>
     </g>
    </g>
    <g id="ytick_2">
     <g id="line2d_11">
      <g>
       <use style="stroke:#000000;stroke-width:0.8;" x="68.16" xlink:href="#me12118fc19" y="435.780709"/>
      </g>
     </g>
     <g id="text_11">
      <!-- 0.2 -->
      <defs>
       <path d="M 12.796875 55.515625 
L 7.328125 55.515625 
L 7.328125 68.5 
Q 12.546875 71.296875 17.84375 72.75 
Q 23.140625 74.21875 28.21875 74.21875 
Q 39.59375 74.21875 46.1875 68.703125 
Q 52.78125 63.1875 52.78125 53.71875 
Q 52.78125 43.015625 37.84375 28.125 
Q 36.671875 27 36.078125 26.421875 
L 17.671875 8.015625 
L 48.09375 8.015625 
L 48.09375 17 
L 53.8125 17 
L 53.8125 0 
L 6.78125 0 
L 6.78125 5.328125 
L 28.90625 27.390625 
Q 36.234375 34.71875 39.359375 40.84375 
Q 42.484375 46.96875 42.484375 53.71875 
Q 42.484375 61.078125 38.640625 65.234375 
Q 34.8125 69.390625 28.078125 69.390625 
Q 21.09375 69.390625 17.28125 65.921875 
Q 13.484375 62.453125 12.796875 55.515625 
z
" id="DejaVuSerif-32"/>
      </defs>
      <g transform="translate(50.123231 438.417367)scale(0.0694 -0.0694)">
       <use xlink:href="#DejaVuSerif-30"/>
       <use x="63.623047" xlink:href="#DejaVuSerif-2e"/>
       <use x="95.410156" xlink:href="#DejaVuSerif-32"/>
      </g>
     </g>
    </g>
    <g id="ytick_3">
     <g id="line2d_12">
      <g>
       <use style="stroke:#000000;stroke-width:0.8;" x="68.16" xlink:href="#me12118fc19" y="355.982492"/>
      </g>
     </g>
     <g id="text_12">
      <!-- 0.3 -->
      <g transform="translate(50.123231 358.61915)scale(0.0694 -0.0694)">
       <use xlink:href="#DejaVuSerif-30"/>
       <use x="63.623047" xlink:href="#DejaVuSerif-2e"/>
       <use x="95.410156" xlink:href="#DejaVuSerif-33"/>
      </g>
     </g>
    </g>
    <g id="ytick_4">
     <g id="line2d_13">
      <g>
       <use style="stroke:#000000;stroke-width:0.8;" x="68.16" xlink:href="#me12118fc19" y="276.184275"/>
      </g>
     </g>
     <g id="text_13">
      <!-- 0.4 -->
      <g transform="translate(50.123231 278.820933)scale(0.0694 -0.0694)">
       <use xlink:href="#DejaVuSerif-30"/>
       <use x="63.623047" xlink:href="#DejaVuSerif-2e"/>
       <use x="95.410156" xlink:href="#DejaVuSerif-34"/>
      </g>
     </g>
    </g>
    <g id="ytick_5">
     <g id="line2d_14">
      <g>
       <use style="stroke:#000000;stroke-width:0.8;" x="68.16" xlink:href="#me12118fc19" y="196.386058"/>
      </g>
     </g>
     <g id="text_14">
      <!-- 0.5 -->
      <g transform="translate(50.123231 199.022716)scale(0.0694 -0.0694)">
       <use xlink:href="#DejaVuSerif-30"/>
       <use x="63.623047" xlink:href="#DejaVuSerif-2e"/>
       <use x="95.410156" xlink:href="#DejaVuSerif-35"/>
      </g>
     </g>
    </g>
    <g id="ytick_6">
     <g id="line2d_15">
      <g>
       <use style="stroke:#000000;stroke-width:0.8;" x="68.16" xlink:href="#me12118fc19" y="116.587841"/>
      </g>
     </g>
     <g id="text_15">
      <!-- 0.6 -->
      <g transform="translate(50.123231 119.224499)scale(0.0694 -0.0694)">
       <use xlink:href="#DejaVuSerif-30"/>
       <use x="63.623047" xlink:href="#DejaVuSerif-2e"/>
       <use x="95.410156" xlink:href="#DejaVuSerif-36"/>
      </g>
     </g>
    </g>
   </g>
   <g id="patch_3">
    <path d="M 68.16 584.52 
L 68.16 52.52 
" style="fill:none;stroke:#000000;stroke-linecap:square;stroke-linejoin:miter;stroke-width:0.8;"/>
   </g>
   <g id="patch_4">
    <path d="M 660.368 584.52 
L 660.368 52.52 
" style="fill:none;stroke:#000000;stroke-linecap:square;stroke-linejoin:miter;stroke-width:0.8;"/>
   </g>
   <g id="patch_5">
    <path d="M 68.16 584.52 
L 660.368 584.52 
" style="fill:none;stroke:#000000;stroke-linecap:square;stroke-linejoin:miter;stroke-width:0.8;"/>
   </g>
   <g id="patch_6">
    <path d="M 68.16 52.52 
L 660.368 52.52 
" style="fill:none;stroke:#000000;stroke-linecap:square;stroke-linejoin:miter;stroke-width:0.8;"/>
   </g>
  </g>
  <g id="axes_2">
   <g id="patch_7">
    <path clip-path="url(#p4a6049f153)" d="M 697.381 584.52 
L 697.381 559.186667 
L 697.381 77.853333 
L 697.381 52.52 
L 723.981 52.52 
L 723.981 77.853333 
L 723.981 559.186667 
L 723.981 584.52 
z
" style="fill:#ffffff;stroke:#ffffff;stroke-linejoin:miter;stroke-width:0.01;"/>
   </g>
   <g id="QuadMesh_1">
    <path clip-path="url(#p4a6049f153)" d="M 697.381 584.52 
L 723.981 584.52 
L 723.981 559.186667 
L 697.381 559.186667 
L 697.381 584.52 
" style="fill:#fcfcfc;"/>
    <path clip-path="url(#p4a6049f153)" d="M 697.381 559.186667 
L 723.981 559.186667 
L 723.981 533.853333 
L 697.381 533.853333 
L 697.381 559.186667 
" style="fill:#f7f7f7;"/>
    <path clip-path="url(#p4a6049f153)" d="M 697.381 533.853333 
L 723.981 533.853333 
L 723.981 508.52 
L 697.381 508.52 
L 697.381 533.853333 
" style="fill:#f1f1f1;"/>
    <path clip-path="url(#p4a6049f153)" d="M 697.381 508.52 
L 723.981 508.52 
L 723.981 483.186667 
L 697.381 483.186667 
L 697.381 508.52 
" style="fill:#e9e9e9;"/>
    <path clip-path="url(#p4a6049f153)" d="M 697.381 483.186667 
L 723.981 483.186667 
L 723.981 457.853333 
L 697.381 457.853333 
L 697.381 483.186667 
" style="fill:#e0e0e0;"/>
    <path clip-path="url(#p4a6049f153)" d="M 697.381 457.853333 
L 723.981 457.853333 
L 723.981 432.52 
L 697.381 432.52 
L 697.381 457.853333 
" style="fill:#d6d6d6;"/>
    <path clip-path="url(#p4a6049f153)" d="M 697.381 432.52 
L 723.981 432.52 
L 723.981 407.186667 
L 697.381 407.186667 
L 697.381 432.52 
" style="fill:#cccccc;"/>
    <path clip-path="url(#p4a6049f153)" d="M 697.381 407.186667 
L 723.981 407.186667 
L 723.981 381.853333 
L 697.381 381.853333 
L 697.381 407.186667 
" style="fill:#c1c1c1;"/>
    <path clip-path="url(#p4a6049f153)" d="M 697.381 381.853333 
L 723.981 381.853333 
L 723.981 356.52 
L 697.381 356.52 
L 697.381 381.853333 
" style="fill:#b4b4b4;"/>
    <path clip-path="url(#p4a6049f153)" d="M 697.381 356.52 
L 723.981 356.52 
L 723.981 331.186667 
L 697.381 331.186667 
L 697.381 356.52 
" style="fill:#a5a5a5;"/>
    <path clip-path="url(#p4a6049f153)" d="M 697.381 331.186667 
L 723.981 331.186667 
L 723.981 305.853333 
L 697.381 305.853333 
L 697.381 331.186667 
" style="fill:#959595;"/>
    <path clip-path="url(#p4a6049f153)" d="M 697.381 305.853333 
L 723.981 305.853333 
L 723.981 280.52 
L 697.381 280.52 
L 697.381 305.853333 
" style="fill:#888888;"/>
    <path clip-path="url(#p4a6049f153)" d="M 697.381 280.52 
L 723.981 280.52 
L 723.981 255.186667 
L 697.381 255.186667 
L 697.381 280.52 
" style="fill:#7b7b7b;"/>
    <path clip-path="url(#p4a6049f153)" d="M 697.381 255.186667 
L 723.981 255.186667 
L 723.981 229.853333 
L 697.381 229.853333 
L 697.381 255.186667 
" style="fill:#6e6e6e;"/>
    <path clip-path="url(#p4a6049f153)" d="M 697.381 229.853333 
L 723.981 229.853333 
L 723.981 204.52 
L 697.381 204.52 
L 697.381 229.853333 
" style="fill:#626262;"/>
    <path clip-path="url(#p4a6049f153)" d="M 697.381 204.52 
L 723.981 204.52 
L 723.981 179.186667 
L 697.381 179.186667 
L 697.381 204.52 
" style="fill:#555555;"/>
    <path clip-path="url(#p4a6049f153)" d="M 697.381 179.186667 
L 723.981 179.186667 
L 723.981 153.853333 
L 697.381 153.853333 
L 697.381 179.186667 
" style="fill:#444444;"/>
    <path clip-path="url(#p4a6049f153)" d="M 697.381 153.853333 
L 723.981 153.853333 
L 723.981 128.52 
L 697.381 128.52 
L 697.381 153.853333 
" style="fill:#333333;"/>
    <path clip-path="url(#p4a6049f153)" d="M 697.381 128.52 
L 723.981 128.52 
L 723.981 103.186667 
L 697.381 103.186667 
L 697.381 128.52 
" style="fill:#232323;"/>
    <path clip-path="url(#p4a6049f153)" d="M 697.381 103.186667 
L 723.981 103.186667 
L 723.981 77.853333 
L 697.381 77.853333 
L 697.381 103.186667 
" style="fill:#151515;"/>
    <path clip-path="url(#p4a6049f153)" d="M 697.381 77.853333 
L 723.981 77.853333 
L 723.981 52.52 
L 697.381 52.52 
L 697.381 77.853333 
" style="fill:#070707;"/>
   </g>
   <g id="matplotlib.axis_3"/>
   <g id="matplotlib.axis_4">
    <g id="ytick_7">
     <g id="line2d_16">
      <defs>
       <path d="M 0 0 
L 3.5 0 
" id="m326e45a7de" style="stroke:#000000;stroke-width:0.8;"/>
      </defs>
      <g>
       <use style="stroke:#000000;stroke-width:0.8;" x="723.981" xlink:href="#m326e45a7de" y="584.52"/>
      </g>
     </g>
     <g id="text_16">
      <!-- 0.0010 -->
      <g transform="translate(730.981 587.156658)scale(0.0694 -0.0694)">
       <use xlink:href="#DejaVuSerif-30"/>
       <use x="63.623047" xlink:href="#DejaVuSerif-2e"/>
       <use x="95.410156" xlink:href="#DejaVuSerif-30"/>
       <use x="159.033203" xlink:href="#DejaVuSerif-30"/>
       <use x="222.65625" xlink:href="#DejaVuSerif-31"/>
       <use x="286.279297" xlink:href="#DejaVuSerif-30"/>
      </g>
     </g>
    </g>
    <g id="ytick_8">
     <g id="line2d_17">
      <g>
       <use style="stroke:#000000;stroke-width:0.8;" x="723.981" xlink:href="#m326e45a7de" y="508.52"/>
      </g>
     </g>
     <g id="text_17">
      <!-- 0.0025 -->
      <g transform="translate(730.981 511.156658)scale(0.0694 -0.0694)">
       <use xlink:href="#DejaVuSerif-30"/>
       <use x="63.623047" xlink:href="#DejaVuSerif-2e"/>
       <use x="95.410156" xlink:href="#DejaVuSerif-30"/>
       <use x="159.033203" xlink:href="#DejaVuSerif-30"/>
       <use x="222.65625" xlink:href="#DejaVuSerif-32"/>
       <use x="286.279297" xlink:href="#DejaVuSerif-35"/>
      </g>
     </g>
    </g>
    <g id="ytick_9">
     <g id="line2d_18">
      <g>
       <use style="stroke:#000000;stroke-width:0.8;" x="723.981" xlink:href="#m326e45a7de" y="432.52"/>
      </g>
     </g>
     <g id="text_18">
      <!-- 0.0040 -->
      <g transform="translate(730.981 435.156658)scale(0.0694 -0.0694)">
       <use xlink:href="#DejaVuSerif-30"/>
       <use x="63.623047" xlink:href="#DejaVuSerif-2e"/>
       <use x="95.410156" xlink:href="#DejaVuSerif-30"/>
       <use x="159.033203" xlink:href="#DejaVuSerif-30"/>
       <use x="222.65625" xlink:href="#DejaVuSerif-34"/>
       <use x="286.279297" xlink:href="#DejaVuSerif-30"/>
      </g>
     </g>
    </g>
    <g id="ytick_10">
     <g id="line2d_19">
      <g>
       <use style="stroke:#000000;stroke-width:0.8;" x="723.981" xlink:href="#m326e45a7de" y="356.52"/>
      </g>
     </g>
     <g id="text_19">
      <!-- 0.0055 -->
      <g transform="translate(730.981 359.156658)scale(0.0694 -0.0694)">
       <use xlink:href="#DejaVuSerif-30"/>
       <use x="63.623047" xlink:href="#DejaVuSerif-2e"/>
       <use x="95.410156" xlink:href="#DejaVuSerif-30"/>
       <use x="159.033203" xlink:href="#DejaVuSerif-30"/>
       <use x="222.65625" xlink:href="#DejaVuSerif-35"/>
       <use x="286.279297" xlink:href="#DejaVuSerif-35"/>
      </g>
     </g>
    </g>
    <g id="ytick_11">
     <g id="line2d_20">
      <g>
       <use style="stroke:#000000;stroke-width:0.8;" x="723.981" xlink:href="#m326e45a7de" y="280.52"/>
      </g>
     </g>
     <g id="text_20">
      <!-- 0.0070 -->
      <g transform="translate(730.981 283.156658)scale(0.0694 -0.0694)">
       <use xlink:href="#DejaVuSerif-30"/>
       <use x="63.623047" xlink:href="#DejaVuSerif-2e"/>
       <use x="95.410156" xlink:href="#DejaVuSerif-30"/>
       <use x="159.033203" xlink:href="#DejaVuSerif-30"/>
       <use x="222.65625" xlink:href="#DejaVuSerif-37"/>
       <use x="286.279297" xlink:href="#DejaVuSerif-30"/>
      </g>
     </g>
    </g>
    <g id="ytick_12">
     <g id="line2d_21">
      <g>
       <use style="stroke:#000000;stroke-width:0.8;" x="723.981" xlink:href="#m326e45a7de" y="204.52"/>
      </g>
     </g>
     <g id="text_21">
      <!-- 0.0085 -->
      <defs>
       <path d="M 46.578125 19.921875 
Q 46.578125 27.734375 42.6875 32.046875 
Q 38.8125 36.375 31.78125 36.375 
Q 24.75 36.375 20.875 32.046875 
Q 17 27.734375 17 19.921875 
Q 17 12.0625 20.875 7.734375 
Q 24.75 3.421875 31.78125 3.421875 
Q 38.8125 3.421875 42.6875 7.734375 
Q 46.578125 12.0625 46.578125 19.921875 
z
M 44.578125 55.328125 
Q 44.578125 61.96875 41.203125 65.671875 
Q 37.84375 69.390625 31.78125 69.390625 
Q 25.78125 69.390625 22.390625 65.671875 
Q 19 61.96875 19 55.328125 
Q 19 48.640625 22.390625 44.921875 
Q 25.78125 41.21875 31.78125 41.21875 
Q 37.84375 41.21875 41.203125 44.921875 
Q 44.578125 48.640625 44.578125 55.328125 
z
M 39.3125 38.8125 
Q 47.609375 37.703125 52.25 32.6875 
Q 56.890625 27.6875 56.890625 19.921875 
Q 56.890625 9.671875 50.390625 4.125 
Q 43.890625 -1.421875 31.78125 -1.421875 
Q 19.734375 -1.421875 13.203125 4.125 
Q 6.6875 9.671875 6.6875 19.921875 
Q 6.6875 27.6875 11.328125 32.6875 
Q 15.96875 37.703125 24.3125 38.8125 
Q 16.9375 40.140625 13 44.40625 
Q 9.078125 48.6875 9.078125 55.328125 
Q 9.078125 64.109375 15.125 69.15625 
Q 21.1875 74.21875 31.78125 74.21875 
Q 42.390625 74.21875 48.4375 69.15625 
Q 54.5 64.109375 54.5 55.328125 
Q 54.5 48.6875 50.5625 44.40625 
Q 46.625 40.140625 39.3125 38.8125 
z
" id="DejaVuSerif-38"/>
      </defs>
      <g transform="translate(730.981 207.156658)scale(0.0694 -0.0694)">
       <use xlink:href="#DejaVuSerif-30"/>
       <use x="63.623047" xlink:href="#DejaVuSerif-2e"/>
       <use x="95.410156" xlink:href="#DejaVuSerif-30"/>
       <use x="159.033203" xlink:href="#DejaVuSerif-30"/>
       <use x="222.65625" xlink:href="#DejaVuSerif-38"/>
       <use x="286.279297" xlink:href="#DejaVuSerif-35"/>
      </g>
     </g>
    </g>
    <g id="ytick_13">
     <g id="line2d_22">
      <g>
       <use style="stroke:#000000;stroke-width:0.8;" x="723.981" xlink:href="#m326e45a7de" y="128.52"/>
      </g>
     </g>
     <g id="text_22">
      <!-- 0.0100 -->
      <g transform="translate(730.981 131.156658)scale(0.0694 -0.0694)">
       <use xlink:href="#DejaVuSerif-30"/>
       <use x="63.623047" xlink:href="#DejaVuSerif-2e"/>
       <use x="95.410156" xlink:href="#DejaVuSerif-30"/>
       <use x="159.033203" xlink:href="#DejaVuSerif-31"/>
       <use x="222.65625" xlink:href="#DejaVuSerif-30"/>
       <use x="286.279297" xlink:href="#DejaVuSerif-30"/>
      </g>
     </g>
    </g>
    <g id="ytick_14">
     <g id="line2d_23">
      <g>
       <use style="stroke:#000000;stroke-width:0.8;" x="723.981" xlink:href="#m326e45a7de" y="52.52"/>
      </g>
     </g>
     <g id="text_23">
      <!-- 0.0115 -->
      <g transform="translate(730.981 55.156658)scale(0.0694 -0.0694)">
       <use xlink:href="#DejaVuSerif-30"/>
       <use x="63.623047" xlink:href="#DejaVuSerif-2e"/>
       <use x="95.410156" xlink:href="#DejaVuSerif-30"/>
       <use x="159.033203" xlink:href="#DejaVuSerif-31"/>
       <use x="222.65625" xlink:href="#DejaVuSerif-31"/>
       <use x="286.279297" xlink:href="#DejaVuSerif-35"/>
      </g>
     </g>
    </g>
   </g>
   <g id="patch_8">
    <path d="M 697.381 584.52 
L 697.381 559.186667 
L 697.381 77.853333 
L 697.381 52.52 
L 723.981 52.52 
L 723.981 77.853333 
L 723.981 559.186667 
L 723.981 584.52 
z
" style="fill:none;stroke:#000000;stroke-linejoin:miter;stroke-width:0.8;"/>
   </g>
  </g>
 </g>
 <defs>
  <clipPath id="pa865e9de7c">
   <rect height="532" width="592.208" x="68.16" y="52.52"/>
  </clipPath>
  <clipPath id="p4a6049f153">
   <rect height="532" width="26.6" x="697.381" y="52.52"/>
  </clipPath>
 </defs>
</svg>
