<?xml version="1.0" encoding="utf-8" standalone="no"?>
<!DOCTYPE svg PUBLIC "-//W3C//DTD SVG 1.1//EN"
  "http://www.w3.org/Graphics/SVG/1.1/DTD/svg11.dtd">
<!-- Created with matplotlib (http://matplotlib.org/) -->
<svg height="648pt" version="1.1" viewBox="0 0 864 648" width="864pt" xmlns="http://www.w3.org/2000/svg" xmlns:xlink="http://www.w3.org/1999/xlink">
 <defs>
  <style type="text/css">
*{stroke-linecap:butt;stroke-linejoin:round;}
  </style>
 </defs>
 <g id="figure_1">
  <g id="patch_1">
   <path d="M 0 648 
L 864 648 
L 864 0 
L 0 0 
z
" style="fill:#ffffff;"/>
  </g>
  <g id="axes_1">
   <g id="patch_2">
    <path d="M 68.16 584.52 
L 660.368 584.52 
L 660.368 52.52 
L 68.16 52.52 
z
" style="fill:#ffffff;"/>
   </g>
   <g id="PathCollection_1">
    <path clip-path="url(#p26a8b6cc27)" d="M 364.264 298.374844 
L 370.001401 269.662857 
L 364.264 256.369775 
L 362.28692 269.662857 
z
" style="fill:#fcfcfc;"/>
   </g>
   <g id="PathCollection_2">
    <path clip-path="url(#p26a8b6cc27)" d="M 364.264 459.404117 
L 395.375652 378.234286 
L 422.520059 269.662857 
L 381.687249 161.091429 
L 364.264 136.584071 
L 360.33551 161.091429 
L 344.189248 269.662857 
L 350.671656 378.234286 
z
M 362.28692 269.662857 
L 364.264 256.369775 
L 370.001401 269.662857 
L 364.264 298.374844 
z
" style="fill:#f6f6f6;"/>
   </g>
   <g id="PathCollection_3">
    <path clip-path="url(#p26a8b6cc27)" d="M 364.264 584.52 
L 364.334126 584.52 
L 367.131902 573.662857 
L 381.012588 541.091428 
L 390.199067 519.377143 
L 393.725903 508.52 
L 398.820513 486.805714 
L 440.06691 378.234286 
L 475.038716 269.662857 
L 461.984271 161.091429 
L 402.431089 52.52 
L 364.264 52.52 
L 359.222265 52.52 
L 342.230616 161.091429 
L 326.091575 269.662857 
L 331.146528 378.234286 
L 346.847427 486.805714 
L 349.853589 508.52 
L 351.967784 519.377143 
L 356.907823 541.091428 
L 363.119794 573.662857 
L 364.236626 584.52 
z
M 350.671656 378.234286 
L 344.189248 269.662857 
L 360.33551 161.091429 
L 364.264 136.584071 
L 381.687249 161.091429 
L 422.520059 269.662857 
L 395.375652 378.234286 
L 364.264 459.404117 
z
" style="fill:#efefef;"/>
   </g>
   <g id="PathCollection_4">
    <path clip-path="url(#p26a8b6cc27)" d="M 363.119794 573.662857 
L 356.907823 541.091428 
L 351.967784 519.377143 
L 349.853589 508.52 
L 346.847427 486.805714 
L 331.146528 378.234286 
L 326.091575 269.662857 
L 342.230616 161.091429 
L 359.222265 52.52 
L 339.505458 52.52 
L 324.125722 161.091429 
L 307.993903 269.662857 
L 311.621401 378.234286 
L 324.080441 486.805714 
L 327.09273 508.52 
L 329.402556 519.377143 
L 334.94507 541.091428 
L 342.195262 573.662857 
L 343.692951 584.52 
L 364.236626 584.52 
z
" style="fill:#e5e5e5;"/>
    <path clip-path="url(#p26a8b6cc27)" d="M 419.578328 573.662857 
L 431.017518 541.091428 
L 437.793442 519.377143 
L 440.260189 508.52 
L 443.992869 486.805714 
L 484.758169 378.234286 
L 527.557374 269.662857 
L 542.281293 161.091429 
L 551.691821 52.52 
L 402.431089 52.52 
L 461.984271 161.091429 
L 475.038716 269.662857 
L 440.06691 378.234286 
L 398.820513 486.805714 
L 393.725903 508.52 
L 390.199067 519.377143 
L 381.012588 541.091428 
L 367.131902 573.662857 
L 364.334126 584.52 
L 416.961329 584.52 
z
" style="fill:#e5e5e5;"/>
   </g>
   <g id="PathCollection_5">
    <path clip-path="url(#p26a8b6cc27)" d="M 342.195262 573.662857 
L 334.94507 541.091428 
L 329.402556 519.377143 
L 327.09273 508.52 
L 324.080441 486.805714 
L 311.621401 378.234286 
L 307.993903 269.662857 
L 324.125722 161.091429 
L 339.505458 52.52 
L 319.788651 52.52 
L 306.020828 161.091429 
L 289.896231 269.662857 
L 292.096273 378.234286 
L 301.313455 486.805714 
L 304.331872 508.52 
L 306.837327 519.377143 
L 312.982318 541.091428 
L 321.270729 573.662857 
L 323.149276 584.52 
L 343.692951 584.52 
z
" style="fill:#dcdcdc;"/>
    <path clip-path="url(#p26a8b6cc27)" d="M 472.024754 573.662857 
L 481.022447 541.091428 
L 485.387817 519.377143 
L 486.794475 508.52 
L 489.165224 486.805714 
L 529.449427 378.234286 
L 580.076032 269.662857 
L 622.578315 161.091429 
L 660.368 92.277421 
L 660.368 52.52 
L 551.691821 52.52 
L 542.281293 161.091429 
L 527.557374 269.662857 
L 484.758169 378.234286 
L 443.992869 486.805714 
L 440.260189 508.52 
L 437.793442 519.377143 
L 431.017518 541.091428 
L 419.578328 573.662857 
L 416.961329 584.52 
L 469.588533 584.52 
z
" style="fill:#dcdcdc;"/>
   </g>
   <g id="PathCollection_6">
    <path clip-path="url(#p26a8b6cc27)" d="M 321.270729 573.662857 
L 312.982318 541.091428 
L 306.837327 519.377143 
L 304.331872 508.52 
L 301.313455 486.805714 
L 292.096273 378.234286 
L 289.896231 269.662857 
L 306.020828 161.091429 
L 319.788651 52.52 
L 300.071844 52.52 
L 287.915934 161.091429 
L 271.798559 269.662857 
L 272.571146 378.234286 
L 278.54647 486.805714 
L 281.571014 508.52 
L 284.272099 519.377143 
L 291.019565 541.091428 
L 300.346197 573.662857 
L 302.605601 584.52 
L 323.149276 584.52 
z
" style="fill:#d0d0d0;"/>
    <path clip-path="url(#p26a8b6cc27)" d="M 524.47118 573.662857 
L 531.027376 541.091428 
L 532.982191 519.377143 
L 533.32876 508.52 
L 534.33758 486.805714 
L 574.140686 378.234286 
L 632.59469 269.662857 
L 660.368 215.405294 
L 660.368 161.091429 
L 660.368 92.277421 
L 622.578315 161.091429 
L 580.076032 269.662857 
L 529.449427 378.234286 
L 489.165224 486.805714 
L 486.794475 508.52 
L 485.387817 519.377143 
L 481.022447 541.091428 
L 472.024754 573.662857 
L 469.588533 584.52 
L 522.215736 584.52 
z
" style="fill:#d0d0d0;"/>
   </g>
   <g id="PathCollection_7">
    <path clip-path="url(#p26a8b6cc27)" d="M 300.346197 573.662857 
L 291.019565 541.091428 
L 284.272099 519.377143 
L 281.571014 508.52 
L 278.54647 486.805714 
L 272.571146 378.234286 
L 271.798559 269.662857 
L 287.915934 161.091429 
L 300.071844 52.52 
L 280.355037 52.52 
L 269.81104 161.091429 
L 253.700887 269.662857 
L 253.046019 378.234286 
L 255.779484 486.805714 
L 258.810155 508.52 
L 261.706871 519.377143 
L 269.056812 541.091428 
L 279.421665 573.662857 
L 282.061926 584.52 
L 302.605601 584.52 
z
" style="fill:#c5c5c5;"/>
    <path clip-path="url(#p26a8b6cc27)" d="M 576.917607 573.662857 
L 581.032305 541.091428 
L 580.576566 519.377143 
L 579.863046 508.52 
L 579.509935 486.805714 
L 618.831944 378.234286 
L 660.368 306.18783 
L 660.368 269.662857 
L 660.368 215.405294 
L 632.59469 269.662857 
L 574.140686 378.234286 
L 534.33758 486.805714 
L 533.32876 508.52 
L 532.982191 519.377143 
L 531.027376 541.091428 
L 524.47118 573.662857 
L 522.215736 584.52 
L 574.84294 584.52 
z
" style="fill:#c5c5c5;"/>
   </g>
   <g id="PathCollection_8">
    <path clip-path="url(#p26a8b6cc27)" d="M 279.421665 573.662857 
L 269.056812 541.091428 
L 261.706871 519.377143 
L 258.810155 508.52 
L 255.779484 486.805714 
L 253.046019 378.234286 
L 253.700887 269.662857 
L 269.81104 161.091429 
L 280.355037 52.52 
L 260.63823 52.52 
L 251.706147 161.091429 
L 235.603215 269.662857 
L 233.520891 378.234286 
L 233.012499 486.805714 
L 236.049297 508.52 
L 239.141643 519.377143 
L 247.09406 541.091428 
L 258.497132 573.662857 
L 261.51825 584.52 
L 282.061926 584.52 
z
" style="fill:#b6b6b6;"/>
    <path clip-path="url(#p26a8b6cc27)" d="M 629.364033 573.662857 
L 631.037234 541.091428 
L 628.170941 519.377143 
L 626.397332 508.52 
L 624.682291 486.805714 
L 660.368 387.141132 
L 660.368 378.234286 
L 660.368 306.18783 
L 618.831944 378.234286 
L 579.509935 486.805714 
L 579.863046 508.52 
L 580.576566 519.377143 
L 581.032305 541.091428 
L 576.917607 573.662857 
L 574.84294 584.52 
L 627.470143 584.52 
z
" style="fill:#b6b6b6;"/>
   </g>
   <g id="PathCollection_9">
    <path clip-path="url(#p26a8b6cc27)" d="M 258.497132 573.662857 
L 247.09406 541.091428 
L 239.141643 519.377143 
L 236.049297 508.52 
L 233.012499 486.805714 
L 233.520891 378.234286 
L 235.603215 269.662857 
L 251.706147 161.091429 
L 260.63823 52.52 
L 240.921423 52.52 
L 233.601253 161.091429 
L 217.505542 269.662857 
L 213.995764 378.234286 
L 210.245513 486.805714 
L 213.288439 508.52 
L 216.576414 519.377143 
L 225.131307 541.091428 
L 237.5726 573.662857 
L 240.974575 584.52 
L 261.51825 584.52 
z
" style="fill:#a7a7a7;"/>
    <path clip-path="url(#p26a8b6cc27)" d="M 660.368 584.52 
L 660.368 573.662857 
L 660.368 541.091428 
L 660.368 519.377143 
L 660.368 508.52 
L 660.368 486.805714 
L 660.368 387.141132 
L 624.682291 486.805714 
L 626.397332 508.52 
L 628.170941 519.377143 
L 631.037234 541.091428 
L 629.364033 573.662857 
L 627.470143 584.52 
z
" style="fill:#a7a7a7;"/>
   </g>
   <g id="PathCollection_10">
    <path clip-path="url(#p26a8b6cc27)" d="M 237.5726 573.662857 
L 225.131307 541.091428 
L 216.576414 519.377143 
L 213.288439 508.52 
L 210.245513 486.805714 
L 213.995764 378.234286 
L 217.505542 269.662857 
L 233.601253 161.091429 
L 240.921423 52.52 
L 221.204616 52.52 
L 215.496359 161.091429 
L 199.40787 269.662857 
L 194.470636 378.234286 
L 187.478527 486.805714 
L 190.527581 508.52 
L 194.011186 519.377143 
L 203.168555 541.091428 
L 216.648067 573.662857 
L 220.4309 584.52 
L 240.974575 584.52 
z
" style="fill:#959595;"/>
   </g>
   <g id="PathCollection_11">
    <path clip-path="url(#p26a8b6cc27)" d="M 216.648067 573.662857 
L 203.168555 541.091428 
L 194.011186 519.377143 
L 190.527581 508.52 
L 187.478527 486.805714 
L 194.470636 378.234286 
L 199.40787 269.662857 
L 215.496359 161.091429 
L 221.204616 52.52 
L 201.487809 52.52 
L 197.391465 161.091429 
L 181.310198 269.662857 
L 174.945509 378.234286 
L 164.711542 486.805714 
L 167.766722 508.52 
L 171.445958 519.377143 
L 181.205802 541.091428 
L 195.723535 573.662857 
L 199.887225 584.52 
L 220.4309 584.52 
z
" style="fill:#878787;"/>
   </g>
   <g id="PathCollection_12">
    <path clip-path="url(#p26a8b6cc27)" d="M 195.723535 573.662857 
L 181.205802 541.091428 
L 171.445958 519.377143 
L 167.766722 508.52 
L 164.711542 486.805714 
L 174.945509 378.234286 
L 181.310198 269.662857 
L 197.391465 161.091429 
L 201.487809 52.52 
L 181.771002 52.52 
L 179.286571 161.091429 
L 163.212526 269.662857 
L 155.420382 378.234286 
L 141.944556 486.805714 
L 145.005864 508.52 
L 148.880729 519.377143 
L 159.243049 541.091428 
L 174.799002 573.662857 
L 179.34355 584.52 
L 199.887225 584.52 
z
" style="fill:#797979;"/>
   </g>
   <g id="PathCollection_13">
    <path clip-path="url(#p26a8b6cc27)" d="M 174.799002 573.662857 
L 159.243049 541.091428 
L 148.880729 519.377143 
L 145.005864 508.52 
L 141.944556 486.805714 
L 155.420382 378.234286 
L 163.212526 269.662857 
L 179.286571 161.091429 
L 181.771002 52.52 
L 162.054195 52.52 
L 161.181677 161.091429 
L 145.114854 269.662857 
L 135.895254 378.234286 
L 119.17757 486.805714 
L 122.245006 508.52 
L 126.315501 519.377143 
L 137.280297 541.091428 
L 153.87447 573.662857 
L 158.799875 584.52 
L 179.34355 584.52 
z
" style="fill:#6a6a6a;"/>
   </g>
   <g id="PathCollection_14">
    <path clip-path="url(#p26a8b6cc27)" d="M 153.87447 573.662857 
L 137.280297 541.091428 
L 126.315501 519.377143 
L 122.245006 508.52 
L 119.17757 486.805714 
L 135.895254 378.234286 
L 145.114854 269.662857 
L 161.181677 161.091429 
L 162.054195 52.52 
L 142.337388 52.52 
L 143.076783 161.091429 
L 127.017182 269.662857 
L 116.370127 378.234286 
L 96.410585 486.805714 
L 99.484148 508.52 
L 103.750273 519.377143 
L 115.317544 541.091428 
L 132.949938 573.662857 
L 138.2562 584.52 
L 158.799875 584.52 
z
" style="fill:#5d5d5d;"/>
   </g>
   <g id="PathCollection_15">
    <path clip-path="url(#p26a8b6cc27)" d="M 132.949938 573.662857 
L 115.317544 541.091428 
L 103.750273 519.377143 
L 99.484148 508.52 
L 96.410585 486.805714 
L 116.370127 378.234286 
L 127.017182 269.662857 
L 143.076783 161.091429 
L 142.337388 52.52 
L 122.620581 52.52 
L 124.97189 161.091429 
L 108.919509 269.662857 
L 96.844999 378.234286 
L 73.643599 486.805714 
L 76.723289 508.52 
L 81.185045 519.377143 
L 93.354791 541.091428 
L 112.025405 573.662857 
L 117.712525 584.52 
L 138.2562 584.52 
z
" style="fill:#4d4d4d;"/>
   </g>
   <g id="PathCollection_16">
    <path clip-path="url(#p26a8b6cc27)" d="M 112.025405 573.662857 
L 93.354791 541.091428 
L 81.185045 519.377143 
L 76.723289 508.52 
L 73.643599 486.805714 
L 96.844999 378.234286 
L 108.919509 269.662857 
L 124.97189 161.091429 
L 122.620581 52.52 
L 102.903774 52.52 
L 106.866996 161.091429 
L 90.821837 269.662857 
L 77.319872 378.234286 
L 68.16 419.702512 
L 68.16 486.805714 
L 68.16 508.52 
L 68.16 519.377143 
L 68.16 535.484768 
L 71.392039 541.091428 
L 91.100873 573.662857 
L 97.16885 584.52 
L 117.712525 584.52 
z
" style="fill:#3a3a3a;"/>
   </g>
   <g id="PathCollection_17">
    <path clip-path="url(#p26a8b6cc27)" d="M 91.100873 573.662857 
L 71.392039 541.091428 
L 68.16 535.484768 
L 68.16 541.091428 
L 68.16 570.356224 
L 70.17634 573.662857 
L 76.625175 584.52 
L 97.16885 584.52 
z
" style="fill:#272727;"/>
    <path clip-path="url(#p26a8b6cc27)" d="M 77.319872 378.234286 
L 90.821837 269.662857 
L 106.866996 161.091429 
L 102.903774 52.52 
L 83.186967 52.52 
L 88.762102 161.091429 
L 72.724165 269.662857 
L 68.16 304.629751 
L 68.16 378.234286 
L 68.16 419.702512 
z
" style="fill:#272727;"/>
   </g>
   <g id="PathCollection_18">
    <path clip-path="url(#p26a8b6cc27)" d="M 70.17634 573.662857 
L 68.16 570.356224 
L 68.16 573.662857 
L 68.16 584.52 
L 76.625175 584.52 
z
" style="fill:#171717;"/>
    <path clip-path="url(#p26a8b6cc27)" d="M 72.724165 269.662857 
L 88.762102 161.091429 
L 83.186967 52.52 
L 68.16 52.52 
L 68.16 121.24136 
L 70.657208 161.091429 
L 68.16 177.998606 
L 68.16 269.662857 
L 68.16 304.629751 
z
" style="fill:#171717;"/>
   </g>
   <g id="PathCollection_19">
    <path clip-path="url(#p26a8b6cc27)" d="M 70.657208 161.091429 
L 68.16 121.24136 
L 68.16 161.091429 
L 68.16 177.998606 
z
" style="fill:#070707;"/>
   </g>
   <g id="matplotlib.axis_1">
    <g id="xtick_1">
     <g id="line2d_1">
      <defs>
       <path d="M 0 0 
L 0 3.5 
" id="m39e6069bcb" style="stroke:#000000;stroke-width:0.8;"/>
      </defs>
      <g>
       <use style="stroke:#000000;stroke-width:0.8;" x="68.16" xlink:href="#m39e6069bcb" y="584.52"/>
      </g>
     </g>
     <g id="text_1">
      <!-- 3.0 -->
      <defs>
       <path d="M 9.71875 69.828125 
Q 15.4375 71.96875 20.671875 73.09375 
Q 25.921875 74.21875 30.515625 74.21875 
Q 41.21875 74.21875 47.21875 69.59375 
Q 53.21875 64.984375 53.21875 56.78125 
Q 53.21875 50.203125 49.0625 45.78125 
Q 44.921875 41.359375 37.3125 39.796875 
Q 46.296875 38.53125 51.25 33.28125 
Q 56.203125 28.03125 56.203125 19.671875 
Q 56.203125 9.46875 49.34375 4.015625 
Q 42.484375 -1.421875 29.59375 -1.421875 
Q 23.875 -1.421875 18.421875 -0.1875 
Q 12.984375 1.03125 7.625 3.515625 
L 7.625 17.671875 
L 13.09375 17.671875 
Q 13.578125 10.640625 17.828125 7.03125 
Q 22.078125 3.421875 29.78125 3.421875 
Q 37.25 3.421875 41.578125 7.734375 
Q 45.90625 12.0625 45.90625 19.578125 
Q 45.90625 28.171875 41.453125 32.59375 
Q 37.015625 37.015625 28.421875 37.015625 
L 23.78125 37.015625 
L 23.78125 42 
L 26.21875 42 
Q 34.765625 42 39.03125 45.53125 
Q 43.3125 49.078125 43.3125 56.203125 
Q 43.3125 62.59375 39.796875 65.984375 
Q 36.28125 69.390625 29.6875 69.390625 
Q 23.09375 69.390625 19.453125 66.265625 
Q 15.828125 63.140625 15.1875 56.984375 
L 9.71875 56.984375 
z
" id="DejaVuSerif-33"/>
       <path d="M 9.421875 5.078125 
Q 9.421875 7.8125 11.28125 9.71875 
Q 13.140625 11.625 15.921875 11.625 
Q 18.609375 11.625 20.5 9.71875 
Q 22.40625 7.8125 22.40625 5.078125 
Q 22.40625 2.390625 20.5 0.484375 
Q 18.609375 -1.421875 15.921875 -1.421875 
Q 13.140625 -1.421875 11.28125 0.453125 
Q 9.421875 2.34375 9.421875 5.078125 
z
" id="DejaVuSerif-2e"/>
       <path d="M 31.78125 3.421875 
Q 39.265625 3.421875 42.96875 11.625 
Q 46.6875 19.828125 46.6875 36.375 
Q 46.6875 52.984375 42.96875 61.1875 
Q 39.265625 69.390625 31.78125 69.390625 
Q 24.3125 69.390625 20.59375 61.1875 
Q 16.890625 52.984375 16.890625 36.375 
Q 16.890625 19.828125 20.59375 11.625 
Q 24.3125 3.421875 31.78125 3.421875 
z
M 31.78125 -1.421875 
Q 19.921875 -1.421875 13.25 8.53125 
Q 6.59375 18.5 6.59375 36.375 
Q 6.59375 54.296875 13.25 64.25 
Q 19.921875 74.21875 31.78125 74.21875 
Q 43.703125 74.21875 50.34375 64.25 
Q 56.984375 54.296875 56.984375 36.375 
Q 56.984375 18.5 50.34375 8.53125 
Q 43.703125 -1.421875 31.78125 -1.421875 
z
" id="DejaVuSerif-30"/>
      </defs>
      <g transform="translate(62.641616 596.793316)scale(0.0694 -0.0694)">
       <use xlink:href="#DejaVuSerif-33"/>
       <use x="63.623047" xlink:href="#DejaVuSerif-2e"/>
       <use x="95.410156" xlink:href="#DejaVuSerif-30"/>
      </g>
     </g>
    </g>
    <g id="xtick_2">
     <g id="line2d_2">
      <g>
       <use style="stroke:#000000;stroke-width:0.8;" x="142.186" xlink:href="#m39e6069bcb" y="584.52"/>
      </g>
     </g>
     <g id="text_2">
      <!-- 3.5 -->
      <defs>
       <path d="M 50.296875 72.90625 
L 50.296875 64.890625 
L 16.890625 64.890625 
L 16.890625 44 
Q 19.4375 45.75 22.828125 46.625 
Q 26.21875 47.515625 30.421875 47.515625 
Q 42.234375 47.515625 49.0625 40.96875 
Q 55.90625 34.421875 55.90625 23.09375 
Q 55.90625 11.53125 49 5.046875 
Q 42.09375 -1.421875 29.59375 -1.421875 
Q 24.5625 -1.421875 19.28125 -0.1875 
Q 14.015625 1.03125 8.5 3.515625 
L 8.5 17.671875 
L 14.015625 17.671875 
Q 14.453125 10.75 18.421875 7.078125 
Q 22.40625 3.421875 29.59375 3.421875 
Q 37.3125 3.421875 41.453125 8.5 
Q 45.609375 13.578125 45.609375 23.09375 
Q 45.609375 32.5625 41.484375 37.609375 
Q 37.359375 42.671875 29.59375 42.671875 
Q 25.203125 42.671875 21.84375 41.109375 
Q 18.5 39.546875 15.921875 36.28125 
L 11.71875 36.28125 
L 11.71875 72.90625 
z
" id="DejaVuSerif-35"/>
      </defs>
      <g transform="translate(136.667616 596.793316)scale(0.0694 -0.0694)">
       <use xlink:href="#DejaVuSerif-33"/>
       <use x="63.623047" xlink:href="#DejaVuSerif-2e"/>
       <use x="95.410156" xlink:href="#DejaVuSerif-35"/>
      </g>
     </g>
    </g>
    <g id="xtick_3">
     <g id="line2d_3">
      <g>
       <use style="stroke:#000000;stroke-width:0.8;" x="216.212" xlink:href="#m39e6069bcb" y="584.52"/>
      </g>
     </g>
     <g id="text_3">
      <!-- 4.0 -->
      <defs>
       <path d="M 34.90625 24.703125 
L 34.90625 63.484375 
L 10.015625 24.703125 
z
M 56.390625 0 
L 23.1875 0 
L 23.1875 5.171875 
L 34.90625 5.171875 
L 34.90625 19.484375 
L 3.078125 19.484375 
L 3.078125 24.8125 
L 35.015625 74.21875 
L 44.671875 74.21875 
L 44.671875 24.703125 
L 58.59375 24.703125 
L 58.59375 19.484375 
L 44.671875 19.484375 
L 44.671875 5.171875 
L 56.390625 5.171875 
z
" id="DejaVuSerif-34"/>
      </defs>
      <g transform="translate(210.693616 596.793316)scale(0.0694 -0.0694)">
       <use xlink:href="#DejaVuSerif-34"/>
       <use x="63.623047" xlink:href="#DejaVuSerif-2e"/>
       <use x="95.410156" xlink:href="#DejaVuSerif-30"/>
      </g>
     </g>
    </g>
    <g id="xtick_4">
     <g id="line2d_4">
      <g>
       <use style="stroke:#000000;stroke-width:0.8;" x="290.238" xlink:href="#m39e6069bcb" y="584.52"/>
      </g>
     </g>
     <g id="text_4">
      <!-- 4.5 -->
      <g transform="translate(284.719616 596.793316)scale(0.0694 -0.0694)">
       <use xlink:href="#DejaVuSerif-34"/>
       <use x="63.623047" xlink:href="#DejaVuSerif-2e"/>
       <use x="95.410156" xlink:href="#DejaVuSerif-35"/>
      </g>
     </g>
    </g>
    <g id="xtick_5">
     <g id="line2d_5">
      <g>
       <use style="stroke:#000000;stroke-width:0.8;" x="364.264" xlink:href="#m39e6069bcb" y="584.52"/>
      </g>
     </g>
     <g id="text_5">
      <!-- 5.0 -->
      <g transform="translate(358.745616 596.793316)scale(0.0694 -0.0694)">
       <use xlink:href="#DejaVuSerif-35"/>
       <use x="63.623047" xlink:href="#DejaVuSerif-2e"/>
       <use x="95.410156" xlink:href="#DejaVuSerif-30"/>
      </g>
     </g>
    </g>
    <g id="xtick_6">
     <g id="line2d_6">
      <g>
       <use style="stroke:#000000;stroke-width:0.8;" x="438.29" xlink:href="#m39e6069bcb" y="584.52"/>
      </g>
     </g>
     <g id="text_6">
      <!-- 5.5 -->
      <g transform="translate(432.771616 596.793316)scale(0.0694 -0.0694)">
       <use xlink:href="#DejaVuSerif-35"/>
       <use x="63.623047" xlink:href="#DejaVuSerif-2e"/>
       <use x="95.410156" xlink:href="#DejaVuSerif-35"/>
      </g>
     </g>
    </g>
    <g id="xtick_7">
     <g id="line2d_7">
      <g>
       <use style="stroke:#000000;stroke-width:0.8;" x="512.316" xlink:href="#m39e6069bcb" y="584.52"/>
      </g>
     </g>
     <g id="text_7">
      <!-- 6.0 -->
      <defs>
       <path d="M 32.71875 3.421875 
Q 39.59375 3.421875 43.296875 8.46875 
Q 47.015625 13.53125 47.015625 23 
Q 47.015625 32.46875 43.296875 37.515625 
Q 39.59375 42.578125 32.71875 42.578125 
Q 25.734375 42.578125 22.0625 37.6875 
Q 18.40625 32.8125 18.40625 23.578125 
Q 18.40625 13.875 22.109375 8.640625 
Q 25.828125 3.421875 32.71875 3.421875 
z
M 16.796875 40.140625 
Q 20.125 43.796875 24.3125 45.59375 
Q 28.515625 47.40625 33.796875 47.40625 
Q 44.671875 47.40625 51 40.859375 
Q 57.328125 34.328125 57.328125 23 
Q 57.328125 11.921875 50.515625 5.25 
Q 43.703125 -1.421875 32.328125 -1.421875 
Q 19.96875 -1.421875 13.328125 7.78125 
Q 6.6875 17 6.6875 34.078125 
Q 6.6875 53.21875 14.546875 63.71875 
Q 22.40625 74.21875 36.71875 74.21875 
Q 40.578125 74.21875 44.828125 73.484375 
Q 49.078125 72.75 53.515625 71.296875 
L 53.515625 59.28125 
L 48 59.28125 
Q 47.40625 64.203125 44.234375 66.796875 
Q 41.0625 69.390625 35.6875 69.390625 
Q 26.21875 69.390625 21.578125 62.203125 
Q 16.9375 55.03125 16.796875 40.140625 
z
" id="DejaVuSerif-36"/>
      </defs>
      <g transform="translate(506.797616 596.793316)scale(0.0694 -0.0694)">
       <use xlink:href="#DejaVuSerif-36"/>
       <use x="63.623047" xlink:href="#DejaVuSerif-2e"/>
       <use x="95.410156" xlink:href="#DejaVuSerif-30"/>
      </g>
     </g>
    </g>
    <g id="xtick_8">
     <g id="line2d_8">
      <g>
       <use style="stroke:#000000;stroke-width:0.8;" x="586.342" xlink:href="#m39e6069bcb" y="584.52"/>
      </g>
     </g>
     <g id="text_8">
      <!-- 6.5 -->
      <g transform="translate(580.823616 596.793316)scale(0.0694 -0.0694)">
       <use xlink:href="#DejaVuSerif-36"/>
       <use x="63.623047" xlink:href="#DejaVuSerif-2e"/>
       <use x="95.410156" xlink:href="#DejaVuSerif-35"/>
      </g>
     </g>
    </g>
    <g id="xtick_9">
     <g id="line2d_9">
      <g>
       <use style="stroke:#000000;stroke-width:0.8;" x="660.368" xlink:href="#m39e6069bcb" y="584.52"/>
      </g>
     </g>
     <g id="text_9">
      <!-- 7.0 -->
      <defs>
       <path d="M 56.390625 67.921875 
L 27.875 0 
L 20.609375 0 
L 47.796875 64.890625 
L 14.109375 64.890625 
L 14.109375 55.90625 
L 8.40625 55.90625 
L 8.40625 72.90625 
L 56.390625 72.90625 
z
" id="DejaVuSerif-37"/>
      </defs>
      <g transform="translate(654.849616 596.793316)scale(0.0694 -0.0694)">
       <use xlink:href="#DejaVuSerif-37"/>
       <use x="63.623047" xlink:href="#DejaVuSerif-2e"/>
       <use x="95.410156" xlink:href="#DejaVuSerif-30"/>
      </g>
     </g>
    </g>
   </g>
   <g id="matplotlib.axis_2">
    <g id="ytick_1">
     <g id="line2d_10">
      <defs>
       <path d="M 0 0 
L -3.5 0 
" id="mc3aa71e977" style="stroke:#000000;stroke-width:0.8;"/>
      </defs>
      <g>
       <use style="stroke:#000000;stroke-width:0.8;" x="68.16" xlink:href="#mc3aa71e977" y="515.578926"/>
      </g>
     </g>
     <g id="text_10">
      <!-- 0.1 -->
      <defs>
       <path d="M 14.203125 0 
L 14.203125 5.171875 
L 26.90625 5.171875 
L 26.90625 65.828125 
L 12.203125 56.296875 
L 12.203125 62.703125 
L 29.984375 74.21875 
L 36.71875 74.21875 
L 36.71875 5.171875 
L 49.421875 5.171875 
L 49.421875 0 
z
" id="DejaVuSerif-31"/>
      </defs>
      <g transform="translate(50.123231 518.215584)scale(0.0694 -0.0694)">
       <use xlink:href="#DejaVuSerif-30"/>
       <use x="63.623047" xlink:href="#DejaVuSerif-2e"/>
       <use x="95.410156" xlink:href="#DejaVuSerif-31"/>
      </g>
     </g>
    </g>
    <g id="ytick_2">
     <g id="line2d_11">
      <g>
       <use style="stroke:#000000;stroke-width:0.8;" x="68.16" xlink:href="#mc3aa71e977" y="435.780709"/>
      </g>
     </g>
     <g id="text_11">
      <!-- 0.2 -->
      <defs>
       <path d="M 12.796875 55.515625 
L 7.328125 55.515625 
L 7.328125 68.5 
Q 12.546875 71.296875 17.84375 72.75 
Q 23.140625 74.21875 28.21875 74.21875 
Q 39.59375 74.21875 46.1875 68.703125 
Q 52.78125 63.1875 52.78125 53.71875 
Q 52.78125 43.015625 37.84375 28.125 
Q 36.671875 27 36.078125 26.421875 
L 17.671875 8.015625 
L 48.09375 8.015625 
L 48.09375 17 
L 53.8125 17 
L 53.8125 0 
L 6.78125 0 
L 6.78125 5.328125 
L 28.90625 27.390625 
Q 36.234375 34.71875 39.359375 40.84375 
Q 42.484375 46.96875 42.484375 53.71875 
Q 42.484375 61.078125 38.640625 65.234375 
Q 34.8125 69.390625 28.078125 69.390625 
Q 21.09375 69.390625 17.28125 65.921875 
Q 13.484375 62.453125 12.796875 55.515625 
z
" id="DejaVuSerif-32"/>
      </defs>
      <g transform="translate(50.123231 438.417367)scale(0.0694 -0.0694)">
       <use xlink:href="#DejaVuSerif-30"/>
       <use x="63.623047" xlink:href="#DejaVuSerif-2e"/>
       <use x="95.410156" xlink:href="#DejaVuSerif-32"/>
      </g>
     </g>
    </g>
    <g id="ytick_3">
     <g id="line2d_12">
      <g>
       <use style="stroke:#000000;stroke-width:0.8;" x="68.16" xlink:href="#mc3aa71e977" y="355.982492"/>
      </g>
     </g>
     <g id="text_12">
      <!-- 0.3 -->
      <g transform="translate(50.123231 358.61915)scale(0.0694 -0.0694)">
       <use xlink:href="#DejaVuSerif-30"/>
       <use x="63.623047" xlink:href="#DejaVuSerif-2e"/>
       <use x="95.410156" xlink:href="#DejaVuSerif-33"/>
      </g>
     </g>
    </g>
    <g id="ytick_4">
     <g id="line2d_13">
      <g>
       <use style="stroke:#000000;stroke-width:0.8;" x="68.16" xlink:href="#mc3aa71e977" y="276.184275"/>
      </g>
     </g>
     <g id="text_13">
      <!-- 0.4 -->
      <g transform="translate(50.123231 278.820933)scale(0.0694 -0.0694)">
       <use xlink:href="#DejaVuSerif-30"/>
       <use x="63.623047" xlink:href="#DejaVuSerif-2e"/>
       <use x="95.410156" xlink:href="#DejaVuSerif-34"/>
      </g>
     </g>
    </g>
    <g id="ytick_5">
     <g id="line2d_14">
      <g>
       <use style="stroke:#000000;stroke-width:0.8;" x="68.16" xlink:href="#mc3aa71e977" y="196.386058"/>
      </g>
     </g>
     <g id="text_14">
      <!-- 0.5 -->
      <g transform="translate(50.123231 199.022716)scale(0.0694 -0.0694)">
       <use xlink:href="#DejaVuSerif-30"/>
       <use x="63.623047" xlink:href="#DejaVuSerif-2e"/>
       <use x="95.410156" xlink:href="#DejaVuSerif-35"/>
      </g>
     </g>
    </g>
    <g id="ytick_6">
     <g id="line2d_15">
      <g>
       <use style="stroke:#000000;stroke-width:0.8;" x="68.16" xlink:href="#mc3aa71e977" y="116.587841"/>
      </g>
     </g>
     <g id="text_15">
      <!-- 0.6 -->
      <g transform="translate(50.123231 119.224499)scale(0.0694 -0.0694)">
       <use xlink:href="#DejaVuSerif-30"/>
       <use x="63.623047" xlink:href="#DejaVuSerif-2e"/>
       <use x="95.410156" xlink:href="#DejaVuSerif-36"/>
      </g>
     </g>
    </g>
   </g>
   <g id="patch_3">
    <path d="M 68.16 584.52 
L 68.16 52.52 
" style="fill:none;stroke:#000000;stroke-linecap:square;stroke-linejoin:miter;stroke-width:0.8;"/>
   </g>
   <g id="patch_4">
    <path d="M 660.368 584.52 
L 660.368 52.52 
" style="fill:none;stroke:#000000;stroke-linecap:square;stroke-linejoin:miter;stroke-width:0.8;"/>
   </g>
   <g id="patch_5">
    <path d="M 68.16 584.52 
L 660.368 584.52 
" style="fill:none;stroke:#000000;stroke-linecap:square;stroke-linejoin:miter;stroke-width:0.8;"/>
   </g>
   <g id="patch_6">
    <path d="M 68.16 52.52 
L 660.368 52.52 
" style="fill:none;stroke:#000000;stroke-linecap:square;stroke-linejoin:miter;stroke-width:0.8;"/>
   </g>
  </g>
  <g id="axes_2">
   <g id="patch_7">
    <path clip-path="url(#p017059a6b4)" d="M 697.381 584.52 
L 697.381 556.52 
L 697.381 80.52 
L 697.381 52.52 
L 723.981 52.52 
L 723.981 80.52 
L 723.981 556.52 
L 723.981 584.52 
z
" style="fill:#ffffff;stroke:#ffffff;stroke-linejoin:miter;stroke-width:0.01;"/>
   </g>
   <g id="QuadMesh_1">
    <path clip-path="url(#p017059a6b4)" d="M 697.381 584.52 
L 723.981 584.52 
L 723.981 556.52 
L 697.381 556.52 
L 697.381 584.52 
" style="fill:#fcfcfc;"/>
    <path clip-path="url(#p017059a6b4)" d="M 697.381 556.52 
L 723.981 556.52 
L 723.981 528.52 
L 697.381 528.52 
L 697.381 556.52 
" style="fill:#f6f6f6;"/>
    <path clip-path="url(#p017059a6b4)" d="M 697.381 528.52 
L 723.981 528.52 
L 723.981 500.52 
L 697.381 500.52 
L 697.381 528.52 
" style="fill:#efefef;"/>
    <path clip-path="url(#p017059a6b4)" d="M 697.381 500.52 
L 723.981 500.52 
L 723.981 472.52 
L 697.381 472.52 
L 697.381 500.52 
" style="fill:#e5e5e5;"/>
    <path clip-path="url(#p017059a6b4)" d="M 697.381 472.52 
L 723.981 472.52 
L 723.981 444.52 
L 697.381 444.52 
L 697.381 472.52 
" style="fill:#dcdcdc;"/>
    <path clip-path="url(#p017059a6b4)" d="M 697.381 444.52 
L 723.981 444.52 
L 723.981 416.52 
L 697.381 416.52 
L 697.381 444.52 
" style="fill:#d0d0d0;"/>
    <path clip-path="url(#p017059a6b4)" d="M 697.381 416.52 
L 723.981 416.52 
L 723.981 388.52 
L 697.381 388.52 
L 697.381 416.52 
" style="fill:#c5c5c5;"/>
    <path clip-path="url(#p017059a6b4)" d="M 697.381 388.52 
L 723.981 388.52 
L 723.981 360.52 
L 697.381 360.52 
L 697.381 388.52 
" style="fill:#b6b6b6;"/>
    <path clip-path="url(#p017059a6b4)" d="M 697.381 360.52 
L 723.981 360.52 
L 723.981 332.52 
L 697.381 332.52 
L 697.381 360.52 
" style="fill:#a7a7a7;"/>
    <path clip-path="url(#p017059a6b4)" d="M 697.381 332.52 
L 723.981 332.52 
L 723.981 304.52 
L 697.381 304.52 
L 697.381 332.52 
" style="fill:#959595;"/>
    <path clip-path="url(#p017059a6b4)" d="M 697.381 304.52 
L 723.981 304.52 
L 723.981 276.52 
L 697.381 276.52 
L 697.381 304.52 
" style="fill:#878787;"/>
    <path clip-path="url(#p017059a6b4)" d="M 697.381 276.52 
L 723.981 276.52 
L 723.981 248.52 
L 697.381 248.52 
L 697.381 276.52 
" style="fill:#797979;"/>
    <path clip-path="url(#p017059a6b4)" d="M 697.381 248.52 
L 723.981 248.52 
L 723.981 220.52 
L 697.381 220.52 
L 697.381 248.52 
" style="fill:#6a6a6a;"/>
    <path clip-path="url(#p017059a6b4)" d="M 697.381 220.52 
L 723.981 220.52 
L 723.981 192.52 
L 697.381 192.52 
L 697.381 220.52 
" style="fill:#5d5d5d;"/>
    <path clip-path="url(#p017059a6b4)" d="M 697.381 192.52 
L 723.981 192.52 
L 723.981 164.52 
L 697.381 164.52 
L 697.381 192.52 
" style="fill:#4d4d4d;"/>
    <path clip-path="url(#p017059a6b4)" d="M 697.381 164.52 
L 723.981 164.52 
L 723.981 136.52 
L 697.381 136.52 
L 697.381 164.52 
" style="fill:#3a3a3a;"/>
    <path clip-path="url(#p017059a6b4)" d="M 697.381 136.52 
L 723.981 136.52 
L 723.981 108.52 
L 697.381 108.52 
L 697.381 136.52 
" style="fill:#272727;"/>
    <path clip-path="url(#p017059a6b4)" d="M 697.381 108.52 
L 723.981 108.52 
L 723.981 80.52 
L 697.381 80.52 
L 697.381 108.52 
" style="fill:#171717;"/>
    <path clip-path="url(#p017059a6b4)" d="M 697.381 80.52 
L 723.981 80.52 
L 723.981 52.52 
L 697.381 52.52 
L 697.381 80.52 
" style="fill:#070707;"/>
   </g>
   <g id="matplotlib.axis_3"/>
   <g id="matplotlib.axis_4">
    <g id="ytick_7">
     <g id="line2d_16">
      <defs>
       <path d="M 0 0 
L 3.5 0 
" id="m0b4d9cd495" style="stroke:#000000;stroke-width:0.8;"/>
      </defs>
      <g>
       <use style="stroke:#000000;stroke-width:0.8;" x="723.981" xlink:href="#m0b4d9cd495" y="556.52"/>
      </g>
     </g>
     <g id="text_16">
      <!-- −0.0672 -->
      <defs>
       <path d="M 10.59375 35.296875 
L 73.1875 35.296875 
L 73.1875 27.390625 
L 10.59375 27.390625 
z
" id="DejaVuSerif-2212"/>
      </defs>
      <g transform="translate(730.981 559.156658)scale(0.0694 -0.0694)">
       <use xlink:href="#DejaVuSerif-2212"/>
       <use x="83.789062" xlink:href="#DejaVuSerif-30"/>
       <use x="147.412109" xlink:href="#DejaVuSerif-2e"/>
       <use x="179.199219" xlink:href="#DejaVuSerif-30"/>
       <use x="242.822266" xlink:href="#DejaVuSerif-36"/>
       <use x="306.445312" xlink:href="#DejaVuSerif-37"/>
       <use x="370.068359" xlink:href="#DejaVuSerif-32"/>
      </g>
     </g>
    </g>
    <g id="ytick_8">
     <g id="line2d_17">
      <g>
       <use style="stroke:#000000;stroke-width:0.8;" x="723.981" xlink:href="#m0b4d9cd495" y="500.52"/>
      </g>
     </g>
     <g id="text_17">
      <!-- −0.0656 -->
      <g transform="translate(730.981 503.156658)scale(0.0694 -0.0694)">
       <use xlink:href="#DejaVuSerif-2212"/>
       <use x="83.789062" xlink:href="#DejaVuSerif-30"/>
       <use x="147.412109" xlink:href="#DejaVuSerif-2e"/>
       <use x="179.199219" xlink:href="#DejaVuSerif-30"/>
       <use x="242.822266" xlink:href="#DejaVuSerif-36"/>
       <use x="306.445312" xlink:href="#DejaVuSerif-35"/>
       <use x="370.068359" xlink:href="#DejaVuSerif-36"/>
      </g>
     </g>
    </g>
    <g id="ytick_9">
     <g id="line2d_18">
      <g>
       <use style="stroke:#000000;stroke-width:0.8;" x="723.981" xlink:href="#m0b4d9cd495" y="444.52"/>
      </g>
     </g>
     <g id="text_18">
      <!-- −0.0640 -->
      <g transform="translate(730.981 447.156658)scale(0.0694 -0.0694)">
       <use xlink:href="#DejaVuSerif-2212"/>
       <use x="83.789062" xlink:href="#DejaVuSerif-30"/>
       <use x="147.412109" xlink:href="#DejaVuSerif-2e"/>
       <use x="179.199219" xlink:href="#DejaVuSerif-30"/>
       <use x="242.822266" xlink:href="#DejaVuSerif-36"/>
       <use x="306.445312" xlink:href="#DejaVuSerif-34"/>
       <use x="370.068359" xlink:href="#DejaVuSerif-30"/>
      </g>
     </g>
    </g>
    <g id="ytick_10">
     <g id="line2d_19">
      <g>
       <use style="stroke:#000000;stroke-width:0.8;" x="723.981" xlink:href="#m0b4d9cd495" y="388.52"/>
      </g>
     </g>
     <g id="text_19">
      <!-- −0.0624 -->
      <g transform="translate(730.981 391.156658)scale(0.0694 -0.0694)">
       <use xlink:href="#DejaVuSerif-2212"/>
       <use x="83.789062" xlink:href="#DejaVuSerif-30"/>
       <use x="147.412109" xlink:href="#DejaVuSerif-2e"/>
       <use x="179.199219" xlink:href="#DejaVuSerif-30"/>
       <use x="242.822266" xlink:href="#DejaVuSerif-36"/>
       <use x="306.445312" xlink:href="#DejaVuSerif-32"/>
       <use x="370.068359" xlink:href="#DejaVuSerif-34"/>
      </g>
     </g>
    </g>
    <g id="ytick_11">
     <g id="line2d_20">
      <g>
       <use style="stroke:#000000;stroke-width:0.8;" x="723.981" xlink:href="#m0b4d9cd495" y="332.52"/>
      </g>
     </g>
     <g id="text_20">
      <!-- −0.0608 -->
      <defs>
       <path d="M 46.578125 19.921875 
Q 46.578125 27.734375 42.6875 32.046875 
Q 38.8125 36.375 31.78125 36.375 
Q 24.75 36.375 20.875 32.046875 
Q 17 27.734375 17 19.921875 
Q 17 12.0625 20.875 7.734375 
Q 24.75 3.421875 31.78125 3.421875 
Q 38.8125 3.421875 42.6875 7.734375 
Q 46.578125 12.0625 46.578125 19.921875 
z
M 44.578125 55.328125 
Q 44.578125 61.96875 41.203125 65.671875 
Q 37.84375 69.390625 31.78125 69.390625 
Q 25.78125 69.390625 22.390625 65.671875 
Q 19 61.96875 19 55.328125 
Q 19 48.640625 22.390625 44.921875 
Q 25.78125 41.21875 31.78125 41.21875 
Q 37.84375 41.21875 41.203125 44.921875 
Q 44.578125 48.640625 44.578125 55.328125 
z
M 39.3125 38.8125 
Q 47.609375 37.703125 52.25 32.6875 
Q 56.890625 27.6875 56.890625 19.921875 
Q 56.890625 9.671875 50.390625 4.125 
Q 43.890625 -1.421875 31.78125 -1.421875 
Q 19.734375 -1.421875 13.203125 4.125 
Q 6.6875 9.671875 6.6875 19.921875 
Q 6.6875 27.6875 11.328125 32.6875 
Q 15.96875 37.703125 24.3125 38.8125 
Q 16.9375 40.140625 13 44.40625 
Q 9.078125 48.6875 9.078125 55.328125 
Q 9.078125 64.109375 15.125 69.15625 
Q 21.1875 74.21875 31.78125 74.21875 
Q 42.390625 74.21875 48.4375 69.15625 
Q 54.5 64.109375 54.5 55.328125 
Q 54.5 48.6875 50.5625 44.40625 
Q 46.625 40.140625 39.3125 38.8125 
z
" id="DejaVuSerif-38"/>
      </defs>
      <g transform="translate(730.981 335.156658)scale(0.0694 -0.0694)">
       <use xlink:href="#DejaVuSerif-2212"/>
       <use x="83.789062" xlink:href="#DejaVuSerif-30"/>
       <use x="147.412109" xlink:href="#DejaVuSerif-2e"/>
       <use x="179.199219" xlink:href="#DejaVuSerif-30"/>
       <use x="242.822266" xlink:href="#DejaVuSerif-36"/>
       <use x="306.445312" xlink:href="#DejaVuSerif-30"/>
       <use x="370.068359" xlink:href="#DejaVuSerif-38"/>
      </g>
     </g>
    </g>
    <g id="ytick_12">
     <g id="line2d_21">
      <g>
       <use style="stroke:#000000;stroke-width:0.8;" x="723.981" xlink:href="#m0b4d9cd495" y="276.52"/>
      </g>
     </g>
     <g id="text_21">
      <!-- −0.0592 -->
      <defs>
       <path d="M 46.78125 32.671875 
Q 43.5 29 39.25 27.1875 
Q 35.015625 25.390625 29.6875 25.390625 
Q 18.84375 25.390625 12.5625 31.9375 
Q 6.296875 38.484375 6.296875 49.8125 
Q 6.296875 60.890625 13.109375 67.546875 
Q 19.921875 74.21875 31.296875 74.21875 
Q 43.65625 74.21875 50.265625 65.015625 
Q 56.890625 55.8125 56.890625 38.71875 
Q 56.890625 19.578125 49.015625 9.078125 
Q 41.15625 -1.421875 26.90625 -1.421875 
Q 23.046875 -1.421875 18.796875 -0.6875 
Q 14.546875 0.046875 10.109375 1.515625 
L 10.109375 13.625 
L 15.578125 13.625 
Q 16.21875 8.6875 19.390625 6.046875 
Q 22.5625 3.421875 27.875 3.421875 
Q 37.359375 3.421875 41.984375 10.5625 
Q 46.625 17.71875 46.78125 32.671875 
z
M 30.90625 69.390625 
Q 23.96875 69.390625 20.28125 64.328125 
Q 16.609375 59.28125 16.609375 49.8125 
Q 16.609375 40.328125 20.28125 35.25 
Q 23.96875 30.171875 30.90625 30.171875 
Q 37.84375 30.171875 41.53125 35.078125 
Q 45.21875 39.984375 45.21875 49.21875 
Q 45.21875 58.9375 41.5 64.15625 
Q 37.796875 69.390625 30.90625 69.390625 
z
" id="DejaVuSerif-39"/>
      </defs>
      <g transform="translate(730.981 279.156658)scale(0.0694 -0.0694)">
       <use xlink:href="#DejaVuSerif-2212"/>
       <use x="83.789062" xlink:href="#DejaVuSerif-30"/>
       <use x="147.412109" xlink:href="#DejaVuSerif-2e"/>
       <use x="179.199219" xlink:href="#DejaVuSerif-30"/>
       <use x="242.822266" xlink:href="#DejaVuSerif-35"/>
       <use x="306.445312" xlink:href="#DejaVuSerif-39"/>
       <use x="370.068359" xlink:href="#DejaVuSerif-32"/>
      </g>
     </g>
    </g>
    <g id="ytick_13">
     <g id="line2d_22">
      <g>
       <use style="stroke:#000000;stroke-width:0.8;" x="723.981" xlink:href="#m0b4d9cd495" y="220.52"/>
      </g>
     </g>
     <g id="text_22">
      <!-- −0.0576 -->
      <g transform="translate(730.981 223.156658)scale(0.0694 -0.0694)">
       <use xlink:href="#DejaVuSerif-2212"/>
       <use x="83.789062" xlink:href="#DejaVuSerif-30"/>
       <use x="147.412109" xlink:href="#DejaVuSerif-2e"/>
       <use x="179.199219" xlink:href="#DejaVuSerif-30"/>
       <use x="242.822266" xlink:href="#DejaVuSerif-35"/>
       <use x="306.445312" xlink:href="#DejaVuSerif-37"/>
       <use x="370.068359" xlink:href="#DejaVuSerif-36"/>
      </g>
     </g>
    </g>
    <g id="ytick_14">
     <g id="line2d_23">
      <g>
       <use style="stroke:#000000;stroke-width:0.8;" x="723.981" xlink:href="#m0b4d9cd495" y="164.52"/>
      </g>
     </g>
     <g id="text_23">
      <!-- −0.0560 -->
      <g transform="translate(730.981 167.156658)scale(0.0694 -0.0694)">
       <use xlink:href="#DejaVuSerif-2212"/>
       <use x="83.789062" xlink:href="#DejaVuSerif-30"/>
       <use x="147.412109" xlink:href="#DejaVuSerif-2e"/>
       <use x="179.199219" xlink:href="#DejaVuSerif-30"/>
       <use x="242.822266" xlink:href="#DejaVuSerif-35"/>
       <use x="306.445312" xlink:href="#DejaVuSerif-36"/>
       <use x="370.068359" xlink:href="#DejaVuSerif-30"/>
      </g>
     </g>
    </g>
    <g id="ytick_15">
     <g id="line2d_24">
      <g>
       <use style="stroke:#000000;stroke-width:0.8;" x="723.981" xlink:href="#m0b4d9cd495" y="108.52"/>
      </g>
     </g>
     <g id="text_24">
      <!-- −0.0544 -->
      <g transform="translate(730.981 111.156658)scale(0.0694 -0.0694)">
       <use xlink:href="#DejaVuSerif-2212"/>
       <use x="83.789062" xlink:href="#DejaVuSerif-30"/>
       <use x="147.412109" xlink:href="#DejaVuSerif-2e"/>
       <use x="179.199219" xlink:href="#DejaVuSerif-30"/>
       <use x="242.822266" xlink:href="#DejaVuSerif-35"/>
       <use x="306.445312" xlink:href="#DejaVuSerif-34"/>
       <use x="370.068359" xlink:href="#DejaVuSerif-34"/>
      </g>
     </g>
    </g>
    <g id="ytick_16">
     <g id="line2d_25">
      <g>
       <use style="stroke:#000000;stroke-width:0.8;" x="723.981" xlink:href="#m0b4d9cd495" y="52.52"/>
      </g>
     </g>
     <g id="text_25">
      <!-- −0.0528 -->
      <g transform="translate(730.981 55.156658)scale(0.0694 -0.0694)">
       <use xlink:href="#DejaVuSerif-2212"/>
       <use x="83.789062" xlink:href="#DejaVuSerif-30"/>
       <use x="147.412109" xlink:href="#DejaVuSerif-2e"/>
       <use x="179.199219" xlink:href="#DejaVuSerif-30"/>
       <use x="242.822266" xlink:href="#DejaVuSerif-35"/>
       <use x="306.445312" xlink:href="#DejaVuSerif-32"/>
       <use x="370.068359" xlink:href="#DejaVuSerif-38"/>
      </g>
     </g>
    </g>
    <g id="text_26">
     <!-- −5.374e2 -->
     <defs>
      <path d="M 54.203125 25 
L 15.484375 25 
L 15.484375 24.609375 
Q 15.484375 14.109375 19.4375 8.765625 
Q 23.390625 3.421875 31.109375 3.421875 
Q 37.015625 3.421875 40.796875 6.515625 
Q 44.578125 9.625 46.09375 15.71875 
L 53.328125 15.71875 
Q 51.171875 7.171875 45.375 2.875 
Q 39.59375 -1.421875 30.171875 -1.421875 
Q 18.796875 -1.421875 11.890625 6.078125 
Q 4.984375 13.578125 4.984375 25.984375 
Q 4.984375 38.28125 11.765625 45.796875 
Q 18.5625 53.328125 29.59375 53.328125 
Q 41.359375 53.328125 47.65625 46.0625 
Q 53.953125 38.8125 54.203125 25 
z
M 43.609375 30.171875 
Q 43.3125 39.265625 39.765625 43.875 
Q 36.234375 48.484375 29.59375 48.484375 
Q 23.390625 48.484375 19.828125 43.84375 
Q 16.265625 39.203125 15.484375 30.171875 
z
" id="DejaVuSerif-65"/>
     </defs>
     <g transform="translate(689.774391 49.52)scale(0.0694 -0.0694)">
      <use xlink:href="#DejaVuSerif-2212"/>
      <use x="83.789062" xlink:href="#DejaVuSerif-35"/>
      <use x="147.412109" xlink:href="#DejaVuSerif-2e"/>
      <use x="179.199219" xlink:href="#DejaVuSerif-33"/>
      <use x="242.822266" xlink:href="#DejaVuSerif-37"/>
      <use x="306.445312" xlink:href="#DejaVuSerif-34"/>
      <use x="370.068359" xlink:href="#DejaVuSerif-65"/>
      <use x="429.248047" xlink:href="#DejaVuSerif-32"/>
     </g>
    </g>
   </g>
   <g id="patch_8">
    <path d="M 697.381 584.52 
L 697.381 556.52 
L 697.381 80.52 
L 697.381 52.52 
L 723.981 52.52 
L 723.981 80.52 
L 723.981 556.52 
L 723.981 584.52 
z
" style="fill:none;stroke:#000000;stroke-linejoin:miter;stroke-width:0.8;"/>
   </g>
  </g>
 </g>
 <defs>
  <clipPath id="p26a8b6cc27">
   <rect height="532" width="592.208" x="68.16" y="52.52"/>
  </clipPath>
  <clipPath id="p017059a6b4">
   <rect height="532" width="26.6" x="697.381" y="52.52"/>
  </clipPath>
 </defs>
</svg>
