<?xml version="1.0" encoding="utf-8" standalone="no"?>
<!DOCTYPE svg PUBLIC "-//W3C//DTD SVG 1.1//EN"
  "http://www.w3.org/Graphics/SVG/1.1/DTD/svg11.dtd">
<!-- Created with matplotlib (http://matplotlib.org/) -->
<svg height="648pt" version="1.1" viewBox="0 0 864 648" width="864pt" xmlns="http://www.w3.org/2000/svg" xmlns:xlink="http://www.w3.org/1999/xlink">
 <defs>
  <style type="text/css">
*{stroke-linecap:butt;stroke-linejoin:round;}
  </style>
 </defs>
 <g id="figure_1">
  <g id="patch_1">
   <path d="M 0 648 
L 864 648 
L 864 0 
L 0 0 
z
" style="fill:#ffffff;"/>
  </g>
  <g id="axes_1">
   <g id="patch_2">
    <path d="M 68.16 584.52 
L 660.368 584.52 
L 660.368 52.52 
L 68.16 52.52 
z
" style="fill:#ffffff;"/>
   </g>
   <g id="PathCollection_1">
    <path clip-path="url(#p204a40632d)" d="M 660.368 575.516516 
L 660.368 573.662857 
L 660.368 570.49619 
L 649.934805 573.662857 
z
" style="fill:#fcfcfc;"/>
   </g>
   <g id="PathCollection_2">
    <path clip-path="url(#p204a40632d)" d="M 660.368 582.578072 
L 660.368 575.516516 
L 649.934805 573.662857 
L 660.368 570.49619 
L 660.368 558.432698 
L 610.189302 573.662857 
z
" style="fill:#f6f6f6;"/>
   </g>
   <g id="PathCollection_3">
    <path clip-path="url(#p204a40632d)" d="M 660.368 584.52 
L 660.368 582.578072 
L 610.189302 573.662857 
L 660.368 558.432698 
L 660.368 546.369206 
L 570.443799 573.662857 
L 641.200554 584.52 
z
" style="fill:#f0f0f0;"/>
    <path clip-path="url(#p204a40632d)" d="M 364.264 514.627143 
L 382.516986 508.52 
L 369.922038 486.805714 
L 364.264 484.280797 
L 361.950688 486.805714 
L 357.360021 508.52 
z
" style="fill:#f0f0f0;"/>
   </g>
   <g id="PathCollection_4">
    <path clip-path="url(#p204a40632d)" d="M 570.443799 573.662857 
L 660.368 546.369206 
L 660.368 541.091429 
L 660.368 529.458776 
L 557.260357 519.377143 
L 544.765753 508.52 
L 520.803057 486.805714 
L 364.264 416.949679 
L 300.262354 486.805714 
L 295.991316 508.52 
L 306.313351 519.377143 
L 364.264 534.473741 
L 487.320208 541.091429 
L 530.698295 573.662857 
L 614.762696 584.52 
L 641.200554 584.52 
z
M 357.360021 508.52 
L 361.950688 486.805714 
L 364.264 484.280797 
L 369.922038 486.805714 
L 382.516986 508.52 
L 364.264 514.627143 
z
" style="fill:#e7e7e7;"/>
   </g>
   <g id="PathCollection_5">
    <path clip-path="url(#p204a40632d)" d="M 530.698295 573.662857 
L 487.320208 541.091429 
L 364.264 534.473741 
L 306.313351 519.377143 
L 295.991316 508.52 
L 300.262354 486.805714 
L 364.264 416.949679 
L 520.803057 486.805714 
L 544.765753 508.52 
L 557.260357 519.377143 
L 660.368 529.458776 
L 660.368 519.377143 
L 660.368 508.52 
L 660.368 486.805714 
L 660.368 474.961558 
L 485.559614 378.234286 
L 364.264 292.38711 
L 330.705547 378.234286 
L 238.574021 486.805714 
L 234.622611 508.52 
L 242.805791 519.377143 
L 324.000567 541.091429 
L 364.264 546.251259 
L 490.952792 573.662857 
L 588.324839 584.52 
L 614.762696 584.52 
z
" style="fill:#dedede;"/>
   </g>
   <g id="PathCollection_6">
    <path clip-path="url(#p204a40632d)" d="M 490.952792 573.662857 
L 364.264 546.251259 
L 324.000567 541.091429 
L 242.805791 519.377143 
L 234.622611 508.52 
L 238.574021 486.805714 
L 330.705547 378.234286 
L 364.264 292.38711 
L 485.559614 378.234286 
L 660.368 474.961558 
L 660.368 378.234286 
L 660.368 269.662857 
L 660.368 161.091429 
L 660.368 59.758095 
L 645.5628 52.52 
L 364.264 52.52 
L 340.425119 52.52 
L 324.663465 161.091429 
L 290.755664 269.662857 
L 251.74448 378.234286 
L 176.885688 486.805714 
L 173.253907 508.52 
L 179.298231 519.377143 
L 256.894844 541.091429 
L 364.264 554.850976 
L 451.207289 573.662857 
L 561.886982 584.52 
L 588.324839 584.52 
z
" style="fill:#d4d4d4;"/>
   </g>
   <g id="PathCollection_7">
    <path clip-path="url(#p204a40632d)" d="M 451.207289 573.662857 
L 364.264 554.850976 
L 256.894844 541.091429 
L 179.298231 519.377143 
L 173.253907 508.52 
L 176.885688 486.805714 
L 251.74448 378.234286 
L 290.755664 269.662857 
L 324.663465 161.091429 
L 340.425119 52.52 
L 240.050881 52.52 
L 252.662492 161.091429 
L 207.929371 269.662857 
L 172.783413 378.234286 
L 115.197354 486.805714 
L 111.885202 508.52 
L 115.79067 519.377143 
L 189.789122 541.091429 
L 364.264 563.450693 
L 411.461785 573.662857 
L 535.449125 584.52 
L 561.886982 584.52 
z
" style="fill:#c8c8c8;"/>
    <path clip-path="url(#p204a40632d)" d="M 660.368 59.758095 
L 660.368 52.52 
L 645.5628 52.52 
z
" style="fill:#c8c8c8;"/>
   </g>
   <g id="PathCollection_8">
    <path clip-path="url(#p204a40632d)" d="M 411.461785 573.662857 
L 364.264 563.450693 
L 189.789122 541.091429 
L 115.79067 519.377143 
L 111.885202 508.52 
L 115.197354 486.805714 
L 172.783413 378.234286 
L 207.929371 269.662857 
L 252.662492 161.091429 
L 240.050881 52.52 
L 139.676644 52.52 
L 180.66152 161.091429 
L 125.103077 269.662857 
L 93.822347 378.234286 
L 68.16 440.964444 
L 68.16 486.805714 
L 68.16 508.52 
L 68.16 519.377143 
L 68.16 524.486387 
L 122.683399 541.091429 
L 364.264 572.05041 
L 371.716282 573.662857 
L 509.011268 584.52 
L 535.449125 584.52 
z
" style="fill:#bdbdbd;"/>
   </g>
   <g id="PathCollection_9">
    <path clip-path="url(#p204a40632d)" d="M 364.264 575.331212 
L 482.573411 584.52 
L 509.011268 584.52 
L 371.716282 573.662857 
L 364.264 572.05041 
L 122.683399 541.091429 
L 68.16 524.486387 
L 68.16 541.091429 
L 68.16 542.334613 
L 320.817589 573.662857 
z
" style="fill:#aeaeae;"/>
    <path clip-path="url(#p204a40632d)" d="M 93.822347 378.234286 
L 125.103077 269.662857 
L 180.66152 161.091429 
L 139.676644 52.52 
L 68.16 52.52 
L 68.16 89.242689 
L 108.660547 161.091429 
L 68.16 230.887347 
L 68.16 269.662857 
L 68.16 378.234286 
L 68.16 440.964444 
z
" style="fill:#aeaeae;"/>
   </g>
   <g id="PathCollection_10">
    <path clip-path="url(#p204a40632d)" d="M 364.264 577.384573 
L 456.135554 584.52 
L 482.573411 584.52 
L 364.264 575.331212 
L 320.817589 573.662857 
L 68.16 542.334613 
L 68.16 548.964929 
L 267.345084 573.662857 
z
" style="fill:#9e9e9e;"/>
    <path clip-path="url(#p204a40632d)" d="M 108.660547 161.091429 
L 68.16 89.242689 
L 68.16 161.091429 
L 68.16 230.887347 
z
" style="fill:#9e9e9e;"/>
   </g>
   <g id="PathCollection_11">
    <path clip-path="url(#p204a40632d)" d="M 364.264 579.437933 
L 429.697696 584.52 
L 456.135554 584.52 
L 364.264 577.384573 
L 267.345084 573.662857 
L 68.16 548.964929 
L 68.16 555.595245 
L 213.872578 573.662857 
z
" style="fill:#8f8f8f;"/>
   </g>
   <g id="PathCollection_12">
    <path clip-path="url(#p204a40632d)" d="M 364.264 581.491293 
L 403.259839 584.52 
L 429.697696 584.52 
L 364.264 579.437933 
L 213.872578 573.662857 
L 68.16 555.595245 
L 68.16 562.225562 
L 160.400072 573.662857 
z
" style="fill:#818181;"/>
   </g>
   <g id="PathCollection_13">
    <path clip-path="url(#p204a40632d)" d="M 364.264 583.544654 
L 376.821982 584.52 
L 403.259839 584.52 
L 364.264 581.491293 
L 160.400072 573.662857 
L 68.16 562.225562 
L 68.16 568.855878 
L 106.927567 573.662857 
z
" style="fill:#727272;"/>
   </g>
   <g id="PathCollection_14">
    <path clip-path="url(#p204a40632d)" d="M 364.264 584.52 
L 376.821982 584.52 
L 364.264 583.544654 
L 106.927567 573.662857 
L 68.16 568.855878 
L 68.16 573.662857 
L 68.16 574.161515 
L 339.341419 584.52 
z
" style="fill:#666666;"/>
   </g>
   <g id="PathCollection_15">
    <path clip-path="url(#p204a40632d)" d="M 68.16 574.161515 
L 68.16 575.974817 
L 291.869836 584.52 
L 339.341419 584.52 
z
" style="fill:#585858;"/>
   </g>
   <g id="PathCollection_16">
    <path clip-path="url(#p204a40632d)" d="M 68.16 575.974817 
L 68.16 577.788118 
L 244.398253 584.52 
L 291.869836 584.52 
z
" style="fill:#484848;"/>
   </g>
   <g id="PathCollection_17">
    <path clip-path="url(#p204a40632d)" d="M 68.16 577.788118 
L 68.16 579.60142 
L 196.926669 584.52 
L 244.398253 584.52 
z
" style="fill:#363636;"/>
   </g>
   <g id="PathCollection_18">
    <path clip-path="url(#p204a40632d)" d="M 68.16 579.60142 
L 68.16 581.414721 
L 149.455086 584.52 
L 196.926669 584.52 
z
" style="fill:#242424;"/>
   </g>
   <g id="PathCollection_19">
    <path clip-path="url(#p204a40632d)" d="M 68.16 581.414721 
L 68.16 583.228023 
L 101.983503 584.52 
L 149.455086 584.52 
z
" style="fill:#161616;"/>
   </g>
   <g id="PathCollection_20">
    <path clip-path="url(#p204a40632d)" d="M 68.16 583.228023 
L 68.16 584.52 
L 101.983503 584.52 
z
" style="fill:#070707;"/>
   </g>
   <g id="matplotlib.axis_1">
    <g id="xtick_1">
     <g id="line2d_1">
      <defs>
       <path d="M 0 0 
L 0 3.5 
" id="mbd6ac91b92" style="stroke:#000000;stroke-width:0.8;"/>
      </defs>
      <g>
       <use style="stroke:#000000;stroke-width:0.8;" x="68.16" xlink:href="#mbd6ac91b92" y="584.52"/>
      </g>
     </g>
     <g id="text_1">
      <!-- 3.0 -->
      <defs>
       <path d="M 9.71875 69.828125 
Q 15.4375 71.96875 20.671875 73.09375 
Q 25.921875 74.21875 30.515625 74.21875 
Q 41.21875 74.21875 47.21875 69.59375 
Q 53.21875 64.984375 53.21875 56.78125 
Q 53.21875 50.203125 49.0625 45.78125 
Q 44.921875 41.359375 37.3125 39.796875 
Q 46.296875 38.53125 51.25 33.28125 
Q 56.203125 28.03125 56.203125 19.671875 
Q 56.203125 9.46875 49.34375 4.015625 
Q 42.484375 -1.421875 29.59375 -1.421875 
Q 23.875 -1.421875 18.421875 -0.1875 
Q 12.984375 1.03125 7.625 3.515625 
L 7.625 17.671875 
L 13.09375 17.671875 
Q 13.578125 10.640625 17.828125 7.03125 
Q 22.078125 3.421875 29.78125 3.421875 
Q 37.25 3.421875 41.578125 7.734375 
Q 45.90625 12.0625 45.90625 19.578125 
Q 45.90625 28.171875 41.453125 32.59375 
Q 37.015625 37.015625 28.421875 37.015625 
L 23.78125 37.015625 
L 23.78125 42 
L 26.21875 42 
Q 34.765625 42 39.03125 45.53125 
Q 43.3125 49.078125 43.3125 56.203125 
Q 43.3125 62.59375 39.796875 65.984375 
Q 36.28125 69.390625 29.6875 69.390625 
Q 23.09375 69.390625 19.453125 66.265625 
Q 15.828125 63.140625 15.1875 56.984375 
L 9.71875 56.984375 
z
" id="DejaVuSerif-33"/>
       <path d="M 9.421875 5.078125 
Q 9.421875 7.8125 11.28125 9.71875 
Q 13.140625 11.625 15.921875 11.625 
Q 18.609375 11.625 20.5 9.71875 
Q 22.40625 7.8125 22.40625 5.078125 
Q 22.40625 2.390625 20.5 0.484375 
Q 18.609375 -1.421875 15.921875 -1.421875 
Q 13.140625 -1.421875 11.28125 0.453125 
Q 9.421875 2.34375 9.421875 5.078125 
z
" id="DejaVuSerif-2e"/>
       <path d="M 31.78125 3.421875 
Q 39.265625 3.421875 42.96875 11.625 
Q 46.6875 19.828125 46.6875 36.375 
Q 46.6875 52.984375 42.96875 61.1875 
Q 39.265625 69.390625 31.78125 69.390625 
Q 24.3125 69.390625 20.59375 61.1875 
Q 16.890625 52.984375 16.890625 36.375 
Q 16.890625 19.828125 20.59375 11.625 
Q 24.3125 3.421875 31.78125 3.421875 
z
M 31.78125 -1.421875 
Q 19.921875 -1.421875 13.25 8.53125 
Q 6.59375 18.5 6.59375 36.375 
Q 6.59375 54.296875 13.25 64.25 
Q 19.921875 74.21875 31.78125 74.21875 
Q 43.703125 74.21875 50.34375 64.25 
Q 56.984375 54.296875 56.984375 36.375 
Q 56.984375 18.5 50.34375 8.53125 
Q 43.703125 -1.421875 31.78125 -1.421875 
z
" id="DejaVuSerif-30"/>
      </defs>
      <g transform="translate(62.641616 596.793316)scale(0.0694 -0.0694)">
       <use xlink:href="#DejaVuSerif-33"/>
       <use x="63.623047" xlink:href="#DejaVuSerif-2e"/>
       <use x="95.410156" xlink:href="#DejaVuSerif-30"/>
      </g>
     </g>
    </g>
    <g id="xtick_2">
     <g id="line2d_2">
      <g>
       <use style="stroke:#000000;stroke-width:0.8;" x="142.186" xlink:href="#mbd6ac91b92" y="584.52"/>
      </g>
     </g>
     <g id="text_2">
      <!-- 3.5 -->
      <defs>
       <path d="M 50.296875 72.90625 
L 50.296875 64.890625 
L 16.890625 64.890625 
L 16.890625 44 
Q 19.4375 45.75 22.828125 46.625 
Q 26.21875 47.515625 30.421875 47.515625 
Q 42.234375 47.515625 49.0625 40.96875 
Q 55.90625 34.421875 55.90625 23.09375 
Q 55.90625 11.53125 49 5.046875 
Q 42.09375 -1.421875 29.59375 -1.421875 
Q 24.5625 -1.421875 19.28125 -0.1875 
Q 14.015625 1.03125 8.5 3.515625 
L 8.5 17.671875 
L 14.015625 17.671875 
Q 14.453125 10.75 18.421875 7.078125 
Q 22.40625 3.421875 29.59375 3.421875 
Q 37.3125 3.421875 41.453125 8.5 
Q 45.609375 13.578125 45.609375 23.09375 
Q 45.609375 32.5625 41.484375 37.609375 
Q 37.359375 42.671875 29.59375 42.671875 
Q 25.203125 42.671875 21.84375 41.109375 
Q 18.5 39.546875 15.921875 36.28125 
L 11.71875 36.28125 
L 11.71875 72.90625 
z
" id="DejaVuSerif-35"/>
      </defs>
      <g transform="translate(136.667616 596.793316)scale(0.0694 -0.0694)">
       <use xlink:href="#DejaVuSerif-33"/>
       <use x="63.623047" xlink:href="#DejaVuSerif-2e"/>
       <use x="95.410156" xlink:href="#DejaVuSerif-35"/>
      </g>
     </g>
    </g>
    <g id="xtick_3">
     <g id="line2d_3">
      <g>
       <use style="stroke:#000000;stroke-width:0.8;" x="216.212" xlink:href="#mbd6ac91b92" y="584.52"/>
      </g>
     </g>
     <g id="text_3">
      <!-- 4.0 -->
      <defs>
       <path d="M 34.90625 24.703125 
L 34.90625 63.484375 
L 10.015625 24.703125 
z
M 56.390625 0 
L 23.1875 0 
L 23.1875 5.171875 
L 34.90625 5.171875 
L 34.90625 19.484375 
L 3.078125 19.484375 
L 3.078125 24.8125 
L 35.015625 74.21875 
L 44.671875 74.21875 
L 44.671875 24.703125 
L 58.59375 24.703125 
L 58.59375 19.484375 
L 44.671875 19.484375 
L 44.671875 5.171875 
L 56.390625 5.171875 
z
" id="DejaVuSerif-34"/>
      </defs>
      <g transform="translate(210.693616 596.793316)scale(0.0694 -0.0694)">
       <use xlink:href="#DejaVuSerif-34"/>
       <use x="63.623047" xlink:href="#DejaVuSerif-2e"/>
       <use x="95.410156" xlink:href="#DejaVuSerif-30"/>
      </g>
     </g>
    </g>
    <g id="xtick_4">
     <g id="line2d_4">
      <g>
       <use style="stroke:#000000;stroke-width:0.8;" x="290.238" xlink:href="#mbd6ac91b92" y="584.52"/>
      </g>
     </g>
     <g id="text_4">
      <!-- 4.5 -->
      <g transform="translate(284.719616 596.793316)scale(0.0694 -0.0694)">
       <use xlink:href="#DejaVuSerif-34"/>
       <use x="63.623047" xlink:href="#DejaVuSerif-2e"/>
       <use x="95.410156" xlink:href="#DejaVuSerif-35"/>
      </g>
     </g>
    </g>
    <g id="xtick_5">
     <g id="line2d_5">
      <g>
       <use style="stroke:#000000;stroke-width:0.8;" x="364.264" xlink:href="#mbd6ac91b92" y="584.52"/>
      </g>
     </g>
     <g id="text_5">
      <!-- 5.0 -->
      <g transform="translate(358.745616 596.793316)scale(0.0694 -0.0694)">
       <use xlink:href="#DejaVuSerif-35"/>
       <use x="63.623047" xlink:href="#DejaVuSerif-2e"/>
       <use x="95.410156" xlink:href="#DejaVuSerif-30"/>
      </g>
     </g>
    </g>
    <g id="xtick_6">
     <g id="line2d_6">
      <g>
       <use style="stroke:#000000;stroke-width:0.8;" x="438.29" xlink:href="#mbd6ac91b92" y="584.52"/>
      </g>
     </g>
     <g id="text_6">
      <!-- 5.5 -->
      <g transform="translate(432.771616 596.793316)scale(0.0694 -0.0694)">
       <use xlink:href="#DejaVuSerif-35"/>
       <use x="63.623047" xlink:href="#DejaVuSerif-2e"/>
       <use x="95.410156" xlink:href="#DejaVuSerif-35"/>
      </g>
     </g>
    </g>
    <g id="xtick_7">
     <g id="line2d_7">
      <g>
       <use style="stroke:#000000;stroke-width:0.8;" x="512.316" xlink:href="#mbd6ac91b92" y="584.52"/>
      </g>
     </g>
     <g id="text_7">
      <!-- 6.0 -->
      <defs>
       <path d="M 32.71875 3.421875 
Q 39.59375 3.421875 43.296875 8.46875 
Q 47.015625 13.53125 47.015625 23 
Q 47.015625 32.46875 43.296875 37.515625 
Q 39.59375 42.578125 32.71875 42.578125 
Q 25.734375 42.578125 22.0625 37.6875 
Q 18.40625 32.8125 18.40625 23.578125 
Q 18.40625 13.875 22.109375 8.640625 
Q 25.828125 3.421875 32.71875 3.421875 
z
M 16.796875 40.140625 
Q 20.125 43.796875 24.3125 45.59375 
Q 28.515625 47.40625 33.796875 47.40625 
Q 44.671875 47.40625 51 40.859375 
Q 57.328125 34.328125 57.328125 23 
Q 57.328125 11.921875 50.515625 5.25 
Q 43.703125 -1.421875 32.328125 -1.421875 
Q 19.96875 -1.421875 13.328125 7.78125 
Q 6.6875 17 6.6875 34.078125 
Q 6.6875 53.21875 14.546875 63.71875 
Q 22.40625 74.21875 36.71875 74.21875 
Q 40.578125 74.21875 44.828125 73.484375 
Q 49.078125 72.75 53.515625 71.296875 
L 53.515625 59.28125 
L 48 59.28125 
Q 47.40625 64.203125 44.234375 66.796875 
Q 41.0625 69.390625 35.6875 69.390625 
Q 26.21875 69.390625 21.578125 62.203125 
Q 16.9375 55.03125 16.796875 40.140625 
z
" id="DejaVuSerif-36"/>
      </defs>
      <g transform="translate(506.797616 596.793316)scale(0.0694 -0.0694)">
       <use xlink:href="#DejaVuSerif-36"/>
       <use x="63.623047" xlink:href="#DejaVuSerif-2e"/>
       <use x="95.410156" xlink:href="#DejaVuSerif-30"/>
      </g>
     </g>
    </g>
    <g id="xtick_8">
     <g id="line2d_8">
      <g>
       <use style="stroke:#000000;stroke-width:0.8;" x="586.342" xlink:href="#mbd6ac91b92" y="584.52"/>
      </g>
     </g>
     <g id="text_8">
      <!-- 6.5 -->
      <g transform="translate(580.823616 596.793316)scale(0.0694 -0.0694)">
       <use xlink:href="#DejaVuSerif-36"/>
       <use x="63.623047" xlink:href="#DejaVuSerif-2e"/>
       <use x="95.410156" xlink:href="#DejaVuSerif-35"/>
      </g>
     </g>
    </g>
    <g id="xtick_9">
     <g id="line2d_9">
      <g>
       <use style="stroke:#000000;stroke-width:0.8;" x="660.368" xlink:href="#mbd6ac91b92" y="584.52"/>
      </g>
     </g>
     <g id="text_9">
      <!-- 7.0 -->
      <defs>
       <path d="M 56.390625 67.921875 
L 27.875 0 
L 20.609375 0 
L 47.796875 64.890625 
L 14.109375 64.890625 
L 14.109375 55.90625 
L 8.40625 55.90625 
L 8.40625 72.90625 
L 56.390625 72.90625 
z
" id="DejaVuSerif-37"/>
      </defs>
      <g transform="translate(654.849616 596.793316)scale(0.0694 -0.0694)">
       <use xlink:href="#DejaVuSerif-37"/>
       <use x="63.623047" xlink:href="#DejaVuSerif-2e"/>
       <use x="95.410156" xlink:href="#DejaVuSerif-30"/>
      </g>
     </g>
    </g>
   </g>
   <g id="matplotlib.axis_2">
    <g id="ytick_1">
     <g id="line2d_10">
      <defs>
       <path d="M 0 0 
L -3.5 0 
" id="m66df7491fb" style="stroke:#000000;stroke-width:0.8;"/>
      </defs>
      <g>
       <use style="stroke:#000000;stroke-width:0.8;" x="68.16" xlink:href="#m66df7491fb" y="486.805714"/>
      </g>
     </g>
     <g id="text_10">
      <!-- 0.01 -->
      <defs>
       <path d="M 14.203125 0 
L 14.203125 5.171875 
L 26.90625 5.171875 
L 26.90625 65.828125 
L 12.203125 56.296875 
L 12.203125 62.703125 
L 29.984375 74.21875 
L 36.71875 74.21875 
L 36.71875 5.171875 
L 49.421875 5.171875 
L 49.421875 0 
z
" id="DejaVuSerif-31"/>
      </defs>
      <g transform="translate(45.707656 489.442372)scale(0.0694 -0.0694)">
       <use xlink:href="#DejaVuSerif-30"/>
       <use x="63.623047" xlink:href="#DejaVuSerif-2e"/>
       <use x="95.410156" xlink:href="#DejaVuSerif-30"/>
       <use x="159.033203" xlink:href="#DejaVuSerif-31"/>
      </g>
     </g>
    </g>
    <g id="ytick_2">
     <g id="line2d_11">
      <g>
       <use style="stroke:#000000;stroke-width:0.8;" x="68.16" xlink:href="#m66df7491fb" y="378.234286"/>
      </g>
     </g>
     <g id="text_11">
      <!-- 0.02 -->
      <defs>
       <path d="M 12.796875 55.515625 
L 7.328125 55.515625 
L 7.328125 68.5 
Q 12.546875 71.296875 17.84375 72.75 
Q 23.140625 74.21875 28.21875 74.21875 
Q 39.59375 74.21875 46.1875 68.703125 
Q 52.78125 63.1875 52.78125 53.71875 
Q 52.78125 43.015625 37.84375 28.125 
Q 36.671875 27 36.078125 26.421875 
L 17.671875 8.015625 
L 48.09375 8.015625 
L 48.09375 17 
L 53.8125 17 
L 53.8125 0 
L 6.78125 0 
L 6.78125 5.328125 
L 28.90625 27.390625 
Q 36.234375 34.71875 39.359375 40.84375 
Q 42.484375 46.96875 42.484375 53.71875 
Q 42.484375 61.078125 38.640625 65.234375 
Q 34.8125 69.390625 28.078125 69.390625 
Q 21.09375 69.390625 17.28125 65.921875 
Q 13.484375 62.453125 12.796875 55.515625 
z
" id="DejaVuSerif-32"/>
      </defs>
      <g transform="translate(45.707656 380.870944)scale(0.0694 -0.0694)">
       <use xlink:href="#DejaVuSerif-30"/>
       <use x="63.623047" xlink:href="#DejaVuSerif-2e"/>
       <use x="95.410156" xlink:href="#DejaVuSerif-30"/>
       <use x="159.033203" xlink:href="#DejaVuSerif-32"/>
      </g>
     </g>
    </g>
    <g id="ytick_3">
     <g id="line2d_12">
      <g>
       <use style="stroke:#000000;stroke-width:0.8;" x="68.16" xlink:href="#m66df7491fb" y="269.662857"/>
      </g>
     </g>
     <g id="text_12">
      <!-- 0.03 -->
      <g transform="translate(45.707656 272.299515)scale(0.0694 -0.0694)">
       <use xlink:href="#DejaVuSerif-30"/>
       <use x="63.623047" xlink:href="#DejaVuSerif-2e"/>
       <use x="95.410156" xlink:href="#DejaVuSerif-30"/>
       <use x="159.033203" xlink:href="#DejaVuSerif-33"/>
      </g>
     </g>
    </g>
    <g id="ytick_4">
     <g id="line2d_13">
      <g>
       <use style="stroke:#000000;stroke-width:0.8;" x="68.16" xlink:href="#m66df7491fb" y="161.091429"/>
      </g>
     </g>
     <g id="text_13">
      <!-- 0.04 -->
      <g transform="translate(45.707656 163.728086)scale(0.0694 -0.0694)">
       <use xlink:href="#DejaVuSerif-30"/>
       <use x="63.623047" xlink:href="#DejaVuSerif-2e"/>
       <use x="95.410156" xlink:href="#DejaVuSerif-30"/>
       <use x="159.033203" xlink:href="#DejaVuSerif-34"/>
      </g>
     </g>
    </g>
    <g id="ytick_5">
     <g id="line2d_14">
      <g>
       <use style="stroke:#000000;stroke-width:0.8;" x="68.16" xlink:href="#m66df7491fb" y="52.52"/>
      </g>
     </g>
     <g id="text_14">
      <!-- 0.05 -->
      <g transform="translate(45.707656 55.156658)scale(0.0694 -0.0694)">
       <use xlink:href="#DejaVuSerif-30"/>
       <use x="63.623047" xlink:href="#DejaVuSerif-2e"/>
       <use x="95.410156" xlink:href="#DejaVuSerif-30"/>
       <use x="159.033203" xlink:href="#DejaVuSerif-35"/>
      </g>
     </g>
    </g>
   </g>
   <g id="patch_3">
    <path d="M 68.16 584.52 
L 68.16 52.52 
" style="fill:none;stroke:#000000;stroke-linecap:square;stroke-linejoin:miter;stroke-width:0.8;"/>
   </g>
   <g id="patch_4">
    <path d="M 660.368 584.52 
L 660.368 52.52 
" style="fill:none;stroke:#000000;stroke-linecap:square;stroke-linejoin:miter;stroke-width:0.8;"/>
   </g>
   <g id="patch_5">
    <path d="M 68.16 584.52 
L 660.368 584.52 
" style="fill:none;stroke:#000000;stroke-linecap:square;stroke-linejoin:miter;stroke-width:0.8;"/>
   </g>
   <g id="patch_6">
    <path d="M 68.16 52.52 
L 660.368 52.52 
" style="fill:none;stroke:#000000;stroke-linecap:square;stroke-linejoin:miter;stroke-width:0.8;"/>
   </g>
  </g>
  <g id="axes_2">
   <g id="patch_7">
    <path clip-path="url(#p4e0ace2132)" d="M 697.381 584.52 
L 697.381 557.92 
L 697.381 79.12 
L 697.381 52.52 
L 723.981 52.52 
L 723.981 79.12 
L 723.981 557.92 
L 723.981 584.52 
z
" style="fill:#ffffff;stroke:#ffffff;stroke-linejoin:miter;stroke-width:0.01;"/>
   </g>
   <g id="QuadMesh_1">
    <path clip-path="url(#p4e0ace2132)" d="M 697.381 584.52 
L 723.981 584.52 
L 723.981 557.92 
L 697.381 557.92 
L 697.381 584.52 
" style="fill:#fcfcfc;"/>
    <path clip-path="url(#p4e0ace2132)" d="M 697.381 557.92 
L 723.981 557.92 
L 723.981 531.32 
L 697.381 531.32 
L 697.381 557.92 
" style="fill:#f6f6f6;"/>
    <path clip-path="url(#p4e0ace2132)" d="M 697.381 531.32 
L 723.981 531.32 
L 723.981 504.72 
L 697.381 504.72 
L 697.381 531.32 
" style="fill:#f0f0f0;"/>
    <path clip-path="url(#p4e0ace2132)" d="M 697.381 504.72 
L 723.981 504.72 
L 723.981 478.12 
L 697.381 478.12 
L 697.381 504.72 
" style="fill:#e7e7e7;"/>
    <path clip-path="url(#p4e0ace2132)" d="M 697.381 478.12 
L 723.981 478.12 
L 723.981 451.52 
L 697.381 451.52 
L 697.381 478.12 
" style="fill:#dedede;"/>
    <path clip-path="url(#p4e0ace2132)" d="M 697.381 451.52 
L 723.981 451.52 
L 723.981 424.92 
L 697.381 424.92 
L 697.381 451.52 
" style="fill:#d4d4d4;"/>
    <path clip-path="url(#p4e0ace2132)" d="M 697.381 424.92 
L 723.981 424.92 
L 723.981 398.32 
L 697.381 398.32 
L 697.381 424.92 
" style="fill:#c8c8c8;"/>
    <path clip-path="url(#p4e0ace2132)" d="M 697.381 398.32 
L 723.981 398.32 
L 723.981 371.72 
L 697.381 371.72 
L 697.381 398.32 
" style="fill:#bdbdbd;"/>
    <path clip-path="url(#p4e0ace2132)" d="M 697.381 371.72 
L 723.981 371.72 
L 723.981 345.12 
L 697.381 345.12 
L 697.381 371.72 
" style="fill:#aeaeae;"/>
    <path clip-path="url(#p4e0ace2132)" d="M 697.381 345.12 
L 723.981 345.12 
L 723.981 318.52 
L 697.381 318.52 
L 697.381 345.12 
" style="fill:#9e9e9e;"/>
    <path clip-path="url(#p4e0ace2132)" d="M 697.381 318.52 
L 723.981 318.52 
L 723.981 291.92 
L 697.381 291.92 
L 697.381 318.52 
" style="fill:#8f8f8f;"/>
    <path clip-path="url(#p4e0ace2132)" d="M 697.381 291.92 
L 723.981 291.92 
L 723.981 265.32 
L 697.381 265.32 
L 697.381 291.92 
" style="fill:#818181;"/>
    <path clip-path="url(#p4e0ace2132)" d="M 697.381 265.32 
L 723.981 265.32 
L 723.981 238.72 
L 697.381 238.72 
L 697.381 265.32 
" style="fill:#727272;"/>
    <path clip-path="url(#p4e0ace2132)" d="M 697.381 238.72 
L 723.981 238.72 
L 723.981 212.12 
L 697.381 212.12 
L 697.381 238.72 
" style="fill:#666666;"/>
    <path clip-path="url(#p4e0ace2132)" d="M 697.381 212.12 
L 723.981 212.12 
L 723.981 185.52 
L 697.381 185.52 
L 697.381 212.12 
" style="fill:#585858;"/>
    <path clip-path="url(#p4e0ace2132)" d="M 697.381 185.52 
L 723.981 185.52 
L 723.981 158.92 
L 697.381 158.92 
L 697.381 185.52 
" style="fill:#484848;"/>
    <path clip-path="url(#p4e0ace2132)" d="M 697.381 158.92 
L 723.981 158.92 
L 723.981 132.32 
L 697.381 132.32 
L 697.381 158.92 
" style="fill:#363636;"/>
    <path clip-path="url(#p4e0ace2132)" d="M 697.381 132.32 
L 723.981 132.32 
L 723.981 105.72 
L 697.381 105.72 
L 697.381 132.32 
" style="fill:#242424;"/>
    <path clip-path="url(#p4e0ace2132)" d="M 697.381 105.72 
L 723.981 105.72 
L 723.981 79.12 
L 697.381 79.12 
L 697.381 105.72 
" style="fill:#161616;"/>
    <path clip-path="url(#p4e0ace2132)" d="M 697.381 79.12 
L 723.981 79.12 
L 723.981 52.52 
L 697.381 52.52 
L 697.381 79.12 
" style="fill:#070707;"/>
   </g>
   <g id="matplotlib.axis_3"/>
   <g id="matplotlib.axis_4">
    <g id="ytick_6">
     <g id="line2d_15">
      <defs>
       <path d="M 0 0 
L 3.5 0 
" id="m32f8131d4b" style="stroke:#000000;stroke-width:0.8;"/>
      </defs>
      <g>
       <use style="stroke:#000000;stroke-width:0.8;" x="723.981" xlink:href="#m32f8131d4b" y="584.52"/>
      </g>
     </g>
     <g id="text_15">
      <!-- 0.00004 -->
      <g transform="translate(730.981 587.156658)scale(0.0694 -0.0694)">
       <use xlink:href="#DejaVuSerif-30"/>
       <use x="63.623047" xlink:href="#DejaVuSerif-2e"/>
       <use x="95.410156" xlink:href="#DejaVuSerif-30"/>
       <use x="159.033203" xlink:href="#DejaVuSerif-30"/>
       <use x="222.65625" xlink:href="#DejaVuSerif-30"/>
       <use x="286.279297" xlink:href="#DejaVuSerif-30"/>
       <use x="349.902344" xlink:href="#DejaVuSerif-34"/>
      </g>
     </g>
    </g>
    <g id="ytick_7">
     <g id="line2d_16">
      <g>
       <use style="stroke:#000000;stroke-width:0.8;" x="723.981" xlink:href="#m32f8131d4b" y="504.72"/>
      </g>
     </g>
     <g id="text_16">
      <!-- 0.00010 -->
      <g transform="translate(730.981 507.356658)scale(0.0694 -0.0694)">
       <use xlink:href="#DejaVuSerif-30"/>
       <use x="63.623047" xlink:href="#DejaVuSerif-2e"/>
       <use x="95.410156" xlink:href="#DejaVuSerif-30"/>
       <use x="159.033203" xlink:href="#DejaVuSerif-30"/>
       <use x="222.65625" xlink:href="#DejaVuSerif-30"/>
       <use x="286.279297" xlink:href="#DejaVuSerif-31"/>
       <use x="349.902344" xlink:href="#DejaVuSerif-30"/>
      </g>
     </g>
    </g>
    <g id="ytick_8">
     <g id="line2d_17">
      <g>
       <use style="stroke:#000000;stroke-width:0.8;" x="723.981" xlink:href="#m32f8131d4b" y="424.92"/>
      </g>
     </g>
     <g id="text_17">
      <!-- 0.00016 -->
      <g transform="translate(730.981 427.556658)scale(0.0694 -0.0694)">
       <use xlink:href="#DejaVuSerif-30"/>
       <use x="63.623047" xlink:href="#DejaVuSerif-2e"/>
       <use x="95.410156" xlink:href="#DejaVuSerif-30"/>
       <use x="159.033203" xlink:href="#DejaVuSerif-30"/>
       <use x="222.65625" xlink:href="#DejaVuSerif-30"/>
       <use x="286.279297" xlink:href="#DejaVuSerif-31"/>
       <use x="349.902344" xlink:href="#DejaVuSerif-36"/>
      </g>
     </g>
    </g>
    <g id="ytick_9">
     <g id="line2d_18">
      <g>
       <use style="stroke:#000000;stroke-width:0.8;" x="723.981" xlink:href="#m32f8131d4b" y="345.12"/>
      </g>
     </g>
     <g id="text_18">
      <!-- 0.00022 -->
      <g transform="translate(730.981 347.756658)scale(0.0694 -0.0694)">
       <use xlink:href="#DejaVuSerif-30"/>
       <use x="63.623047" xlink:href="#DejaVuSerif-2e"/>
       <use x="95.410156" xlink:href="#DejaVuSerif-30"/>
       <use x="159.033203" xlink:href="#DejaVuSerif-30"/>
       <use x="222.65625" xlink:href="#DejaVuSerif-30"/>
       <use x="286.279297" xlink:href="#DejaVuSerif-32"/>
       <use x="349.902344" xlink:href="#DejaVuSerif-32"/>
      </g>
     </g>
    </g>
    <g id="ytick_10">
     <g id="line2d_19">
      <g>
       <use style="stroke:#000000;stroke-width:0.8;" x="723.981" xlink:href="#m32f8131d4b" y="265.32"/>
      </g>
     </g>
     <g id="text_19">
      <!-- 0.00028 -->
      <defs>
       <path d="M 46.578125 19.921875 
Q 46.578125 27.734375 42.6875 32.046875 
Q 38.8125 36.375 31.78125 36.375 
Q 24.75 36.375 20.875 32.046875 
Q 17 27.734375 17 19.921875 
Q 17 12.0625 20.875 7.734375 
Q 24.75 3.421875 31.78125 3.421875 
Q 38.8125 3.421875 42.6875 7.734375 
Q 46.578125 12.0625 46.578125 19.921875 
z
M 44.578125 55.328125 
Q 44.578125 61.96875 41.203125 65.671875 
Q 37.84375 69.390625 31.78125 69.390625 
Q 25.78125 69.390625 22.390625 65.671875 
Q 19 61.96875 19 55.328125 
Q 19 48.640625 22.390625 44.921875 
Q 25.78125 41.21875 31.78125 41.21875 
Q 37.84375 41.21875 41.203125 44.921875 
Q 44.578125 48.640625 44.578125 55.328125 
z
M 39.3125 38.8125 
Q 47.609375 37.703125 52.25 32.6875 
Q 56.890625 27.6875 56.890625 19.921875 
Q 56.890625 9.671875 50.390625 4.125 
Q 43.890625 -1.421875 31.78125 -1.421875 
Q 19.734375 -1.421875 13.203125 4.125 
Q 6.6875 9.671875 6.6875 19.921875 
Q 6.6875 27.6875 11.328125 32.6875 
Q 15.96875 37.703125 24.3125 38.8125 
Q 16.9375 40.140625 13 44.40625 
Q 9.078125 48.6875 9.078125 55.328125 
Q 9.078125 64.109375 15.125 69.15625 
Q 21.1875 74.21875 31.78125 74.21875 
Q 42.390625 74.21875 48.4375 69.15625 
Q 54.5 64.109375 54.5 55.328125 
Q 54.5 48.6875 50.5625 44.40625 
Q 46.625 40.140625 39.3125 38.8125 
z
" id="DejaVuSerif-38"/>
      </defs>
      <g transform="translate(730.981 267.956658)scale(0.0694 -0.0694)">
       <use xlink:href="#DejaVuSerif-30"/>
       <use x="63.623047" xlink:href="#DejaVuSerif-2e"/>
       <use x="95.410156" xlink:href="#DejaVuSerif-30"/>
       <use x="159.033203" xlink:href="#DejaVuSerif-30"/>
       <use x="222.65625" xlink:href="#DejaVuSerif-30"/>
       <use x="286.279297" xlink:href="#DejaVuSerif-32"/>
       <use x="349.902344" xlink:href="#DejaVuSerif-38"/>
      </g>
     </g>
    </g>
    <g id="ytick_11">
     <g id="line2d_20">
      <g>
       <use style="stroke:#000000;stroke-width:0.8;" x="723.981" xlink:href="#m32f8131d4b" y="185.52"/>
      </g>
     </g>
     <g id="text_20">
      <!-- 0.00034 -->
      <g transform="translate(730.981 188.156658)scale(0.0694 -0.0694)">
       <use xlink:href="#DejaVuSerif-30"/>
       <use x="63.623047" xlink:href="#DejaVuSerif-2e"/>
       <use x="95.410156" xlink:href="#DejaVuSerif-30"/>
       <use x="159.033203" xlink:href="#DejaVuSerif-30"/>
       <use x="222.65625" xlink:href="#DejaVuSerif-30"/>
       <use x="286.279297" xlink:href="#DejaVuSerif-33"/>
       <use x="349.902344" xlink:href="#DejaVuSerif-34"/>
      </g>
     </g>
    </g>
    <g id="ytick_12">
     <g id="line2d_21">
      <g>
       <use style="stroke:#000000;stroke-width:0.8;" x="723.981" xlink:href="#m32f8131d4b" y="105.72"/>
      </g>
     </g>
     <g id="text_21">
      <!-- 0.00040 -->
      <g transform="translate(730.981 108.356658)scale(0.0694 -0.0694)">
       <use xlink:href="#DejaVuSerif-30"/>
       <use x="63.623047" xlink:href="#DejaVuSerif-2e"/>
       <use x="95.410156" xlink:href="#DejaVuSerif-30"/>
       <use x="159.033203" xlink:href="#DejaVuSerif-30"/>
       <use x="222.65625" xlink:href="#DejaVuSerif-30"/>
       <use x="286.279297" xlink:href="#DejaVuSerif-34"/>
       <use x="349.902344" xlink:href="#DejaVuSerif-30"/>
      </g>
     </g>
    </g>
   </g>
   <g id="patch_8">
    <path d="M 697.381 584.52 
L 697.381 557.92 
L 697.381 79.12 
L 697.381 52.52 
L 723.981 52.52 
L 723.981 79.12 
L 723.981 557.92 
L 723.981 584.52 
z
" style="fill:none;stroke:#000000;stroke-linejoin:miter;stroke-width:0.8;"/>
   </g>
  </g>
 </g>
 <defs>
  <clipPath id="p204a40632d">
   <rect height="532" width="592.208" x="68.16" y="52.52"/>
  </clipPath>
  <clipPath id="p4e0ace2132">
   <rect height="532" width="26.6" x="697.381" y="52.52"/>
  </clipPath>
 </defs>
</svg>
