<?xml version="1.0" encoding="utf-8" standalone="no"?>
<!DOCTYPE svg PUBLIC "-//W3C//DTD SVG 1.1//EN"
  "http://www.w3.org/Graphics/SVG/1.1/DTD/svg11.dtd">
<!-- Created with matplotlib (http://matplotlib.org/) -->
<svg height="648pt" version="1.1" viewBox="0 0 864 648" width="864pt" xmlns="http://www.w3.org/2000/svg" xmlns:xlink="http://www.w3.org/1999/xlink">
 <defs>
  <style type="text/css">
*{stroke-linecap:butt;stroke-linejoin:round;}
  </style>
 </defs>
 <g id="figure_1">
  <g id="patch_1">
   <path d="M 0 648 
L 864 648 
L 864 0 
L 0 0 
z
" style="fill:#ffffff;"/>
  </g>
  <g id="axes_1">
   <g id="patch_2">
    <path d="M 68.16 584.52 
L 660.368 584.52 
L 660.368 52.52 
L 68.16 52.52 
z
" style="fill:#ffffff;"/>
   </g>
   <g id="PathCollection_1">
    <path clip-path="url(#p49b8dd0ac7)" d="M 265.562667 584.52 
L 271.530607 584.52 
L 271.530607 531.32 
L 271.530607 478.12 
L 271.530607 424.92 
L 271.530607 371.72 
L 271.530607 318.52 
L 271.530607 265.32 
L 271.530607 212.12 
L 271.530607 158.92 
L 271.530607 105.72 
L 271.530607 52.52 
L 265.562667 52.52 
L 263.324515 52.52 
L 263.324515 105.72 
L 263.324515 158.92 
L 263.324515 212.12 
L 263.324515 265.32 
L 263.324515 318.52 
L 263.324515 371.72 
L 263.324515 424.92 
L 263.573216 478.12 
L 263.324515 531.32 
L 263.004864 584.52 
z
" style="fill:#fcfcfc;"/>
   </g>
   <g id="PathCollection_2">
    <path clip-path="url(#p49b8dd0ac7)" d="M 263.324515 531.32 
L 263.573216 478.12 
L 263.324515 424.92 
L 263.324515 371.72 
L 263.324515 318.52 
L 263.324515 265.32 
L 263.324515 212.12 
L 263.324515 158.92 
L 263.324515 105.72 
L 263.324515 52.52 
L 255.646465 52.52 
L 255.646465 105.72 
L 255.646465 158.92 
L 255.646465 212.12 
L 255.646465 265.32 
L 255.646465 318.52 
L 255.646465 371.72 
L 255.646465 424.92 
L 256.748341 478.12 
L 255.646465 531.32 
L 254.230243 584.52 
L 263.004864 584.52 
z
" style="fill:#f6f6f6;"/>
    <path clip-path="url(#p49b8dd0ac7)" d="M 292.003814 531.32 
L 292.003814 478.12 
L 292.003814 424.92 
L 292.003814 371.72 
L 292.003814 318.52 
L 292.003814 265.32 
L 292.003814 212.12 
L 292.003814 158.92 
L 292.003814 105.72 
L 292.003814 52.52 
L 271.530607 52.52 
L 271.530607 105.72 
L 271.530607 158.92 
L 271.530607 212.12 
L 271.530607 265.32 
L 271.530607 318.52 
L 271.530607 371.72 
L 271.530607 424.92 
L 271.530607 478.12 
L 271.530607 531.32 
L 271.530607 584.52 
L 292.003814 584.52 
z
" style="fill:#f6f6f6;"/>
   </g>
   <g id="PathCollection_3">
    <path clip-path="url(#p49b8dd0ac7)" d="M 68.16 561.859515 
L 68.16 584.52 
L 75.167319 584.52 
z
" style="fill:#f0f0f0;"/>
    <path clip-path="url(#p49b8dd0ac7)" d="M 255.646465 531.32 
L 256.748341 478.12 
L 255.646465 424.92 
L 255.646465 371.72 
L 255.646465 318.52 
L 255.646465 265.32 
L 255.646465 212.12 
L 255.646465 158.92 
L 255.646465 105.72 
L 255.646465 52.52 
L 247.968415 52.52 
L 247.968415 105.72 
L 247.968415 158.92 
L 247.968415 212.12 
L 247.968415 265.32 
L 247.968415 318.52 
L 247.968415 371.72 
L 247.968415 424.92 
L 249.923467 478.12 
L 247.968415 531.32 
L 245.455621 584.52 
L 254.230243 584.52 
z
" style="fill:#f0f0f0;"/>
    <path clip-path="url(#p49b8dd0ac7)" d="M 312.477022 531.32 
L 312.477022 478.12 
L 312.477022 424.92 
L 312.477022 371.72 
L 312.477022 318.52 
L 312.477022 265.32 
L 312.477022 212.12 
L 312.477022 158.92 
L 312.477022 105.72 
L 312.477022 52.52 
L 292.003814 52.52 
L 292.003814 105.72 
L 292.003814 158.92 
L 292.003814 212.12 
L 292.003814 265.32 
L 292.003814 318.52 
L 292.003814 371.72 
L 292.003814 424.92 
L 292.003814 478.12 
L 292.003814 531.32 
L 292.003814 584.52 
L 312.477022 584.52 
z
" style="fill:#f0f0f0;"/>
    <path clip-path="url(#p49b8dd0ac7)" d="M 462.965333 584.52 
L 561.666667 584.52 
L 565.488967 584.52 
L 561.666667 561.859515 
L 462.965333 561.859515 
L 441.944468 584.52 
z
" style="fill:#f0f0f0;"/>
    <path clip-path="url(#p49b8dd0ac7)" d="M 74.166496 424.92 
L 74.166496 371.72 
L 74.166496 318.52 
L 74.166496 265.32 
L 74.166496 212.12 
L 74.166496 158.92 
L 74.166496 105.72 
L 74.166496 52.52 
L 68.16 52.52 
L 68.16 105.72 
L 68.16 158.92 
L 68.16 212.12 
L 68.16 265.32 
L 68.16 318.52 
L 68.16 371.72 
L 68.16 424.92 
L 68.16 447.580485 
z
" style="fill:#f0f0f0;"/>
   </g>
   <g id="PathCollection_4">
    <path clip-path="url(#p49b8dd0ac7)" d="M 68.953419 531.32 
L 68.840063 478.12 
L 82.941507 424.92 
L 82.941507 371.72 
L 82.941507 318.52 
L 82.941507 265.32 
L 82.941507 212.12 
L 82.941507 158.92 
L 82.941507 105.72 
L 82.941507 52.52 
L 74.166496 52.52 
L 74.166496 105.72 
L 74.166496 158.92 
L 74.166496 212.12 
L 74.166496 265.32 
L 74.166496 318.52 
L 74.166496 371.72 
L 74.166496 424.92 
L 68.16 447.580485 
L 68.16 478.12 
L 68.16 531.32 
L 68.16 561.859515 
L 75.167319 584.52 
L 85.404453 584.52 
z
" style="fill:#e7e7e7;"/>
    <path clip-path="url(#p49b8dd0ac7)" d="M 247.968415 531.32 
L 249.923467 478.12 
L 247.968415 424.92 
L 247.968415 371.72 
L 247.968415 318.52 
L 247.968415 265.32 
L 247.968415 212.12 
L 247.968415 158.92 
L 247.968415 105.72 
L 247.968415 52.52 
L 240.290365 52.52 
L 240.290365 105.72 
L 240.290365 158.92 
L 240.290365 212.12 
L 240.290365 265.32 
L 240.290365 318.52 
L 240.290365 371.72 
L 240.290365 424.92 
L 243.098593 478.12 
L 240.290365 531.32 
L 236.680999 584.52 
L 245.455621 584.52 
z
" style="fill:#e7e7e7;"/>
    <path clip-path="url(#p49b8dd0ac7)" d="M 332.950229 531.32 
L 332.950229 478.12 
L 332.950229 424.92 
L 332.950229 371.72 
L 332.950229 318.52 
L 332.950229 265.32 
L 332.950229 212.12 
L 332.950229 158.92 
L 332.950229 105.72 
L 332.950229 52.52 
L 312.477022 52.52 
L 312.477022 105.72 
L 312.477022 158.92 
L 312.477022 212.12 
L 312.477022 265.32 
L 312.477022 318.52 
L 312.477022 371.72 
L 312.477022 424.92 
L 312.477022 478.12 
L 312.477022 531.32 
L 312.477022 584.52 
L 332.950229 584.52 
z
" style="fill:#e7e7e7;"/>
    <path clip-path="url(#p49b8dd0ac7)" d="M 462.965333 561.859515 
L 561.666667 561.859515 
L 565.488967 584.52 
L 571.073042 584.52 
L 562.195594 531.32 
L 562.195594 478.12 
L 562.195594 424.92 
L 562.195594 371.72 
L 562.195594 318.52 
L 562.195594 265.32 
L 562.195594 212.12 
L 562.195594 158.92 
L 562.195594 105.72 
L 562.195594 52.52 
L 561.666667 52.52 
L 462.965333 52.52 
L 458.205313 52.52 
L 458.205313 105.72 
L 458.205313 158.92 
L 458.205313 212.12 
L 458.205313 265.32 
L 458.205313 318.52 
L 458.205313 371.72 
L 458.205313 424.92 
L 458.205313 478.12 
L 458.205313 531.32 
L 411.234656 584.52 
L 441.944468 584.52 
z
" style="fill:#e7e7e7;"/>
   </g>
   <g id="PathCollection_5">
    <path clip-path="url(#p49b8dd0ac7)" d="M 79.191085 531.32 
L 77.615075 478.12 
L 91.716519 424.92 
L 91.716519 371.72 
L 91.716519 318.52 
L 91.716519 265.32 
L 91.716519 212.12 
L 91.716519 158.92 
L 91.716519 105.72 
L 91.716519 52.52 
L 82.941507 52.52 
L 82.941507 105.72 
L 82.941507 158.92 
L 82.941507 212.12 
L 82.941507 265.32 
L 82.941507 318.52 
L 82.941507 371.72 
L 82.941507 424.92 
L 68.840063 478.12 
L 68.953419 531.32 
L 85.404453 584.52 
L 95.641588 584.52 
z
" style="fill:#dedede;"/>
    <path clip-path="url(#p49b8dd0ac7)" d="M 240.290365 531.32 
L 243.098593 478.12 
L 240.290365 424.92 
L 240.290365 371.72 
L 240.290365 318.52 
L 240.290365 265.32 
L 240.290365 212.12 
L 240.290365 158.92 
L 240.290365 105.72 
L 240.290365 52.52 
L 232.612315 52.52 
L 232.612315 105.72 
L 232.612315 158.92 
L 232.612315 212.12 
L 232.612315 265.32 
L 232.612315 318.52 
L 232.612315 371.72 
L 232.612315 424.92 
L 236.273718 478.12 
L 232.612315 531.32 
L 227.906377 584.52 
L 236.680999 584.52 
z
" style="fill:#dedede;"/>
    <path clip-path="url(#p49b8dd0ac7)" d="M 353.423437 531.32 
L 353.423437 478.12 
L 353.423437 424.92 
L 353.423437 371.72 
L 353.423437 318.52 
L 353.423437 265.32 
L 353.423437 212.12 
L 353.423437 158.92 
L 353.423437 105.72 
L 353.423437 52.52 
L 332.950229 52.52 
L 332.950229 105.72 
L 332.950229 158.92 
L 332.950229 212.12 
L 332.950229 265.32 
L 332.950229 318.52 
L 332.950229 371.72 
L 332.950229 424.92 
L 332.950229 478.12 
L 332.950229 531.32 
L 332.950229 584.52 
L 353.423437 584.52 
z
" style="fill:#dedede;"/>
    <path clip-path="url(#p49b8dd0ac7)" d="M 458.205313 531.32 
L 458.205313 478.12 
L 458.205313 424.92 
L 458.205313 371.72 
L 458.205313 318.52 
L 458.205313 265.32 
L 458.205313 212.12 
L 458.205313 158.92 
L 458.205313 105.72 
L 458.205313 52.52 
L 396.78569 52.52 
L 396.78569 105.72 
L 396.78569 158.92 
L 396.78569 212.12 
L 396.78569 265.32 
L 396.78569 318.52 
L 396.78569 371.72 
L 396.78569 424.92 
L 396.78569 478.12 
L 396.78569 531.32 
L 380.524845 584.52 
L 411.234656 584.52 
z
" style="fill:#dedede;"/>
    <path clip-path="url(#p49b8dd0ac7)" d="M 569.020469 531.32 
L 569.020469 478.12 
L 569.020469 424.92 
L 569.020469 371.72 
L 569.020469 318.52 
L 569.020469 265.32 
L 569.020469 212.12 
L 569.020469 158.92 
L 569.020469 105.72 
L 569.020469 52.52 
L 562.195594 52.52 
L 562.195594 105.72 
L 562.195594 158.92 
L 562.195594 212.12 
L 562.195594 265.32 
L 562.195594 318.52 
L 562.195594 371.72 
L 562.195594 424.92 
L 562.195594 478.12 
L 562.195594 531.32 
L 571.073042 584.52 
L 576.657118 584.52 
z
" style="fill:#dedede;"/>
   </g>
   <g id="PathCollection_6">
    <path clip-path="url(#p49b8dd0ac7)" d="M 89.42875 531.32 
L 86.390087 478.12 
L 100.491531 424.92 
L 100.491531 371.72 
L 100.491531 318.52 
L 100.491531 265.32 
L 100.491531 212.12 
L 100.491531 158.92 
L 100.491531 105.72 
L 100.491531 52.52 
L 91.716519 52.52 
L 91.716519 105.72 
L 91.716519 158.92 
L 91.716519 212.12 
L 91.716519 265.32 
L 91.716519 318.52 
L 91.716519 371.72 
L 91.716519 424.92 
L 77.615075 478.12 
L 79.191085 531.32 
L 95.641588 584.52 
L 105.878722 584.52 
z
" style="fill:#d4d4d4;"/>
    <path clip-path="url(#p49b8dd0ac7)" d="M 232.612315 531.32 
L 236.273718 478.12 
L 232.612315 424.92 
L 232.612315 371.72 
L 232.612315 318.52 
L 232.612315 265.32 
L 232.612315 212.12 
L 232.612315 158.92 
L 232.612315 105.72 
L 232.612315 52.52 
L 224.934265 52.52 
L 224.934265 105.72 
L 224.934265 158.92 
L 224.934265 212.12 
L 224.934265 265.32 
L 224.934265 318.52 
L 224.934265 371.72 
L 224.934265 424.92 
L 229.448844 478.12 
L 224.934265 531.32 
L 219.131755 584.52 
L 227.906377 584.52 
z
" style="fill:#d4d4d4;"/>
    <path clip-path="url(#p49b8dd0ac7)" d="M 364.264 584.52 
L 380.524845 584.52 
L 396.78569 531.32 
L 396.78569 478.12 
L 396.78569 424.92 
L 396.78569 371.72 
L 396.78569 318.52 
L 396.78569 265.32 
L 396.78569 212.12 
L 396.78569 158.92 
L 396.78569 105.72 
L 396.78569 52.52 
L 364.264 52.52 
L 353.423437 52.52 
L 353.423437 105.72 
L 353.423437 158.92 
L 353.423437 212.12 
L 353.423437 265.32 
L 353.423437 318.52 
L 353.423437 371.72 
L 353.423437 424.92 
L 353.423437 478.12 
L 353.423437 531.32 
L 353.423437 584.52 
z
" style="fill:#d4d4d4;"/>
    <path clip-path="url(#p49b8dd0ac7)" d="M 575.845343 531.32 
L 575.845343 478.12 
L 575.845343 424.92 
L 575.845343 371.72 
L 575.845343 318.52 
L 575.845343 265.32 
L 575.845343 212.12 
L 575.845343 158.92 
L 575.845343 105.72 
L 575.845343 52.52 
L 569.020469 52.52 
L 569.020469 105.72 
L 569.020469 158.92 
L 569.020469 212.12 
L 569.020469 265.32 
L 569.020469 318.52 
L 569.020469 371.72 
L 569.020469 424.92 
L 569.020469 478.12 
L 569.020469 531.32 
L 576.657118 584.52 
L 582.241194 584.52 
z
" style="fill:#d4d4d4;"/>
   </g>
   <g id="PathCollection_7">
    <path clip-path="url(#p49b8dd0ac7)" d="M 99.666416 531.32 
L 95.165099 478.12 
L 109.266543 424.92 
L 109.266543 371.72 
L 109.266543 318.52 
L 109.266543 265.32 
L 109.266543 212.12 
L 109.266543 158.92 
L 109.266543 105.72 
L 109.266543 52.52 
L 100.491531 52.52 
L 100.491531 105.72 
L 100.491531 158.92 
L 100.491531 212.12 
L 100.491531 265.32 
L 100.491531 318.52 
L 100.491531 371.72 
L 100.491531 424.92 
L 86.390087 478.12 
L 89.42875 531.32 
L 105.878722 584.52 
L 116.115857 584.52 
z
" style="fill:#c8c8c8;"/>
    <path clip-path="url(#p49b8dd0ac7)" d="M 224.934265 531.32 
L 229.448844 478.12 
L 224.934265 424.92 
L 224.934265 371.72 
L 224.934265 318.52 
L 224.934265 265.32 
L 224.934265 212.12 
L 224.934265 158.92 
L 224.934265 105.72 
L 224.934265 52.52 
L 217.256215 52.52 
L 217.256215 105.72 
L 217.256215 158.92 
L 217.256215 212.12 
L 217.256215 265.32 
L 217.256215 318.52 
L 217.256215 371.72 
L 217.256215 424.92 
L 222.623969 478.12 
L 217.256215 531.32 
L 210.357134 584.52 
L 219.131755 584.52 
z
" style="fill:#c8c8c8;"/>
    <path clip-path="url(#p49b8dd0ac7)" d="M 582.670218 531.32 
L 582.670218 478.12 
L 582.670218 424.92 
L 582.670218 371.72 
L 582.670218 318.52 
L 582.670218 265.32 
L 582.670218 212.12 
L 582.670218 158.92 
L 582.670218 105.72 
L 582.670218 52.52 
L 575.845343 52.52 
L 575.845343 105.72 
L 575.845343 158.92 
L 575.845343 212.12 
L 575.845343 265.32 
L 575.845343 318.52 
L 575.845343 371.72 
L 575.845343 424.92 
L 575.845343 478.12 
L 575.845343 531.32 
L 582.241194 584.52 
L 587.82527 584.52 
z
" style="fill:#c8c8c8;"/>
   </g>
   <g id="PathCollection_8">
    <path clip-path="url(#p49b8dd0ac7)" d="M 109.904081 531.32 
L 103.940111 478.12 
L 118.041555 424.92 
L 118.041555 371.72 
L 118.041555 318.52 
L 118.041555 265.32 
L 118.041555 212.12 
L 118.041555 158.92 
L 118.041555 105.72 
L 118.041555 52.52 
L 109.266543 52.52 
L 109.266543 105.72 
L 109.266543 158.92 
L 109.266543 212.12 
L 109.266543 265.32 
L 109.266543 318.52 
L 109.266543 371.72 
L 109.266543 424.92 
L 95.165099 478.12 
L 99.666416 531.32 
L 116.115857 584.52 
L 126.352992 584.52 
z
" style="fill:#bdbdbd;"/>
    <path clip-path="url(#p49b8dd0ac7)" d="M 217.256215 531.32 
L 222.623969 478.12 
L 217.256215 424.92 
L 217.256215 371.72 
L 217.256215 318.52 
L 217.256215 265.32 
L 217.256215 212.12 
L 217.256215 158.92 
L 217.256215 105.72 
L 217.256215 52.52 
L 209.578165 52.52 
L 209.578165 105.72 
L 209.578165 158.92 
L 209.578165 212.12 
L 209.578165 265.32 
L 209.578165 318.52 
L 209.578165 371.72 
L 209.578165 424.92 
L 215.799095 478.12 
L 209.578165 531.32 
L 201.582512 584.52 
L 210.357134 584.52 
z
" style="fill:#bdbdbd;"/>
    <path clip-path="url(#p49b8dd0ac7)" d="M 589.495092 531.32 
L 589.495092 478.12 
L 589.495092 424.92 
L 589.495092 371.72 
L 589.495092 318.52 
L 589.495092 265.32 
L 589.495092 212.12 
L 589.495092 158.92 
L 589.495092 105.72 
L 589.495092 52.52 
L 582.670218 52.52 
L 582.670218 105.72 
L 582.670218 158.92 
L 582.670218 212.12 
L 582.670218 265.32 
L 582.670218 318.52 
L 582.670218 371.72 
L 582.670218 424.92 
L 582.670218 478.12 
L 582.670218 531.32 
L 587.82527 584.52 
L 593.409346 584.52 
z
" style="fill:#bdbdbd;"/>
   </g>
   <g id="PathCollection_9">
    <path clip-path="url(#p49b8dd0ac7)" d="M 120.141747 531.32 
L 112.715123 478.12 
L 126.816567 424.92 
L 126.816567 371.72 
L 126.816567 318.52 
L 126.816567 265.32 
L 126.816567 212.12 
L 126.816567 158.92 
L 126.816567 105.72 
L 126.816567 52.52 
L 118.041555 52.52 
L 118.041555 105.72 
L 118.041555 158.92 
L 118.041555 212.12 
L 118.041555 265.32 
L 118.041555 318.52 
L 118.041555 371.72 
L 118.041555 424.92 
L 103.940111 478.12 
L 109.904081 531.32 
L 126.352992 584.52 
L 136.590126 584.52 
z
" style="fill:#aeaeae;"/>
    <path clip-path="url(#p49b8dd0ac7)" d="M 209.578165 531.32 
L 215.799095 478.12 
L 209.578165 424.92 
L 209.578165 371.72 
L 209.578165 318.52 
L 209.578165 265.32 
L 209.578165 212.12 
L 209.578165 158.92 
L 209.578165 105.72 
L 209.578165 52.52 
L 201.900115 52.52 
L 201.900115 105.72 
L 201.900115 158.92 
L 201.900115 212.12 
L 201.900115 265.32 
L 201.900115 318.52 
L 201.900115 371.72 
L 201.900115 424.92 
L 208.974221 478.12 
L 201.900115 531.32 
L 192.80789 584.52 
L 201.582512 584.52 
z
" style="fill:#aeaeae;"/>
    <path clip-path="url(#p49b8dd0ac7)" d="M 596.319966 531.32 
L 596.319966 478.12 
L 596.319966 424.92 
L 596.319966 371.72 
L 596.319966 318.52 
L 596.319966 265.32 
L 596.319966 212.12 
L 596.319966 158.92 
L 596.319966 105.72 
L 596.319966 52.52 
L 589.495092 52.52 
L 589.495092 105.72 
L 589.495092 158.92 
L 589.495092 212.12 
L 589.495092 265.32 
L 589.495092 318.52 
L 589.495092 371.72 
L 589.495092 424.92 
L 589.495092 478.12 
L 589.495092 531.32 
L 593.409346 584.52 
L 598.993422 584.52 
z
" style="fill:#aeaeae;"/>
   </g>
   <g id="PathCollection_10">
    <path clip-path="url(#p49b8dd0ac7)" d="M 130.379412 531.32 
L 121.490135 478.12 
L 135.591579 424.92 
L 135.591579 371.72 
L 135.591579 318.52 
L 135.591579 265.32 
L 135.591579 212.12 
L 135.591579 158.92 
L 135.591579 105.72 
L 135.591579 52.52 
L 126.816567 52.52 
L 126.816567 105.72 
L 126.816567 158.92 
L 126.816567 212.12 
L 126.816567 265.32 
L 126.816567 318.52 
L 126.816567 371.72 
L 126.816567 424.92 
L 112.715123 478.12 
L 120.141747 531.32 
L 136.590126 584.52 
L 146.827261 584.52 
z
" style="fill:#9e9e9e;"/>
    <path clip-path="url(#p49b8dd0ac7)" d="M 201.900115 531.32 
L 208.974221 478.12 
L 201.900115 424.92 
L 201.900115 371.72 
L 201.900115 318.52 
L 201.900115 265.32 
L 201.900115 212.12 
L 201.900115 158.92 
L 201.900115 105.72 
L 201.900115 52.52 
L 194.222065 52.52 
L 194.222065 105.72 
L 194.222065 158.92 
L 194.222065 212.12 
L 194.222065 265.32 
L 194.222065 318.52 
L 194.222065 371.72 
L 194.222065 424.92 
L 202.149346 478.12 
L 194.222065 531.32 
L 184.033268 584.52 
L 192.80789 584.52 
z
" style="fill:#9e9e9e;"/>
    <path clip-path="url(#p49b8dd0ac7)" d="M 603.144841 531.32 
L 603.144841 478.12 
L 603.144841 424.92 
L 603.144841 371.72 
L 603.144841 318.52 
L 603.144841 265.32 
L 603.144841 212.12 
L 603.144841 158.92 
L 603.144841 105.72 
L 603.144841 52.52 
L 596.319966 52.52 
L 596.319966 105.72 
L 596.319966 158.92 
L 596.319966 212.12 
L 596.319966 265.32 
L 596.319966 318.52 
L 596.319966 371.72 
L 596.319966 424.92 
L 596.319966 478.12 
L 596.319966 531.32 
L 598.993422 584.52 
L 604.577498 584.52 
z
" style="fill:#9e9e9e;"/>
   </g>
   <g id="PathCollection_11">
    <path clip-path="url(#p49b8dd0ac7)" d="M 140.617078 531.32 
L 130.265146 478.12 
L 144.36659 424.92 
L 144.36659 371.72 
L 144.36659 318.52 
L 144.36659 265.32 
L 144.36659 212.12 
L 144.36659 158.92 
L 144.36659 105.72 
L 144.36659 52.52 
L 135.591579 52.52 
L 135.591579 105.72 
L 135.591579 158.92 
L 135.591579 212.12 
L 135.591579 265.32 
L 135.591579 318.52 
L 135.591579 371.72 
L 135.591579 424.92 
L 121.490135 478.12 
L 130.379412 531.32 
L 146.827261 584.52 
L 157.064396 584.52 
z
" style="fill:#8f8f8f;"/>
    <path clip-path="url(#p49b8dd0ac7)" d="M 194.222065 531.32 
L 202.149346 478.12 
L 194.222065 424.92 
L 194.222065 371.72 
L 194.222065 318.52 
L 194.222065 265.32 
L 194.222065 212.12 
L 194.222065 158.92 
L 194.222065 105.72 
L 194.222065 52.52 
L 186.544015 52.52 
L 186.544015 105.72 
L 186.544015 158.92 
L 186.544015 212.12 
L 186.544015 265.32 
L 186.544015 318.52 
L 186.544015 371.72 
L 186.544015 424.92 
L 195.324472 478.12 
L 186.544015 531.32 
L 175.258646 584.52 
L 184.033268 584.52 
z
" style="fill:#8f8f8f;"/>
    <path clip-path="url(#p49b8dd0ac7)" d="M 609.969715 531.32 
L 609.969715 478.12 
L 609.969715 424.92 
L 609.969715 371.72 
L 609.969715 318.52 
L 609.969715 265.32 
L 609.969715 212.12 
L 609.969715 158.92 
L 609.969715 105.72 
L 609.969715 52.52 
L 603.144841 52.52 
L 603.144841 105.72 
L 603.144841 158.92 
L 603.144841 212.12 
L 603.144841 265.32 
L 603.144841 318.52 
L 603.144841 371.72 
L 603.144841 424.92 
L 603.144841 478.12 
L 603.144841 531.32 
L 604.577498 584.52 
L 610.161574 584.52 
z
" style="fill:#8f8f8f;"/>
   </g>
   <g id="PathCollection_12">
    <path clip-path="url(#p49b8dd0ac7)" d="M 166.861333 584.52 
L 175.258646 584.52 
L 186.544015 531.32 
L 195.324472 478.12 
L 186.544015 424.92 
L 186.544015 371.72 
L 186.544015 318.52 
L 186.544015 265.32 
L 186.544015 212.12 
L 186.544015 158.92 
L 186.544015 105.72 
L 186.544015 52.52 
L 178.865965 52.52 
L 178.865965 105.72 
L 178.865965 158.92 
L 178.865965 212.12 
L 178.865965 265.32 
L 178.865965 318.52 
L 178.865965 371.72 
L 178.865965 424.92 
L 188.499598 478.12 
L 178.865965 531.32 
L 166.861333 583.096035 
L 150.854743 531.32 
L 139.040158 478.12 
L 153.141602 424.92 
L 153.141602 371.72 
L 153.141602 318.52 
L 153.141602 265.32 
L 153.141602 212.12 
L 153.141602 158.92 
L 153.141602 105.72 
L 153.141602 52.52 
L 144.36659 52.52 
L 144.36659 105.72 
L 144.36659 158.92 
L 144.36659 212.12 
L 144.36659 265.32 
L 144.36659 318.52 
L 144.36659 371.72 
L 144.36659 424.92 
L 130.265146 478.12 
L 140.617078 531.32 
L 157.064396 584.52 
z
" style="fill:#818181;"/>
    <path clip-path="url(#p49b8dd0ac7)" d="M 616.794589 531.32 
L 616.794589 478.12 
L 616.794589 424.92 
L 616.794589 371.72 
L 616.794589 318.52 
L 616.794589 265.32 
L 616.794589 212.12 
L 616.794589 158.92 
L 616.794589 105.72 
L 616.794589 52.52 
L 609.969715 52.52 
L 609.969715 105.72 
L 609.969715 158.92 
L 609.969715 212.12 
L 609.969715 265.32 
L 609.969715 318.52 
L 609.969715 371.72 
L 609.969715 424.92 
L 609.969715 478.12 
L 609.969715 531.32 
L 610.161574 584.52 
L 615.74565 584.52 
z
" style="fill:#818181;"/>
   </g>
   <g id="PathCollection_13">
    <path clip-path="url(#p49b8dd0ac7)" d="M 166.861333 583.096035 
L 178.865965 531.32 
L 188.499598 478.12 
L 178.865965 424.92 
L 178.865965 371.72 
L 178.865965 318.52 
L 178.865965 265.32 
L 178.865965 212.12 
L 178.865965 158.92 
L 178.865965 105.72 
L 178.865965 52.52 
L 171.187915 52.52 
L 171.187915 105.72 
L 171.187915 158.92 
L 171.187915 212.12 
L 171.187915 265.32 
L 171.187915 318.52 
L 171.187915 371.72 
L 171.187915 424.92 
L 181.674723 478.12 
L 171.187915 531.32 
L 166.861333 549.980566 
L 161.092409 531.32 
L 147.81517 478.12 
L 161.916614 424.92 
L 161.916614 371.72 
L 161.916614 318.52 
L 161.916614 265.32 
L 161.916614 212.12 
L 161.916614 158.92 
L 161.916614 105.72 
L 161.916614 52.52 
L 153.141602 52.52 
L 153.141602 105.72 
L 153.141602 158.92 
L 153.141602 212.12 
L 153.141602 265.32 
L 153.141602 318.52 
L 153.141602 371.72 
L 153.141602 424.92 
L 139.040158 478.12 
L 150.854743 531.32 
z
" style="fill:#727272;"/>
    <path clip-path="url(#p49b8dd0ac7)" d="M 623.619464 531.32 
L 623.619464 478.12 
L 623.619464 424.92 
L 623.619464 371.72 
L 623.619464 318.52 
L 623.619464 265.32 
L 623.619464 212.12 
L 623.619464 158.92 
L 623.619464 105.72 
L 623.619464 52.52 
L 616.794589 52.52 
L 616.794589 105.72 
L 616.794589 158.92 
L 616.794589 212.12 
L 616.794589 265.32 
L 616.794589 318.52 
L 616.794589 371.72 
L 616.794589 424.92 
L 616.794589 478.12 
L 616.794589 531.32 
L 615.74565 584.52 
L 621.329725 584.52 
z
" style="fill:#727272;"/>
   </g>
   <g id="PathCollection_14">
    <path clip-path="url(#p49b8dd0ac7)" d="M 166.861333 549.980566 
L 171.187915 531.32 
L 181.674723 478.12 
L 171.187915 424.92 
L 171.187915 371.72 
L 171.187915 318.52 
L 171.187915 265.32 
L 171.187915 212.12 
L 171.187915 158.92 
L 171.187915 105.72 
L 171.187915 52.52 
L 166.861333 52.52 
L 161.916614 52.52 
L 161.916614 105.72 
L 161.916614 158.92 
L 161.916614 212.12 
L 161.916614 265.32 
L 161.916614 318.52 
L 161.916614 371.72 
L 161.916614 424.92 
L 147.81517 478.12 
L 161.092409 531.32 
z
M 156.590182 478.12 
L 166.861333 439.370404 
L 174.849849 478.12 
L 166.861333 516.869596 
z
" style="fill:#666666;"/>
    <path clip-path="url(#p49b8dd0ac7)" d="M 630.444338 531.32 
L 630.444338 478.12 
L 630.444338 424.92 
L 630.444338 371.72 
L 630.444338 318.52 
L 630.444338 265.32 
L 630.444338 212.12 
L 630.444338 158.92 
L 630.444338 105.72 
L 630.444338 52.52 
L 623.619464 52.52 
L 623.619464 105.72 
L 623.619464 158.92 
L 623.619464 212.12 
L 623.619464 265.32 
L 623.619464 318.52 
L 623.619464 371.72 
L 623.619464 424.92 
L 623.619464 478.12 
L 623.619464 531.32 
L 621.329725 584.52 
L 626.913801 584.52 
z
" style="fill:#666666;"/>
   </g>
   <g id="PathCollection_15">
    <path clip-path="url(#p49b8dd0ac7)" d="M 637.269213 531.32 
L 637.269213 478.12 
L 637.269213 424.92 
L 637.269213 371.72 
L 637.269213 318.52 
L 637.269213 265.32 
L 637.269213 212.12 
L 637.269213 158.92 
L 637.269213 105.72 
L 637.269213 52.52 
L 630.444338 52.52 
L 630.444338 105.72 
L 630.444338 158.92 
L 630.444338 212.12 
L 630.444338 265.32 
L 630.444338 318.52 
L 630.444338 371.72 
L 630.444338 424.92 
L 630.444338 478.12 
L 630.444338 531.32 
L 626.913801 584.52 
L 632.497877 584.52 
z
" style="fill:#585858;"/>
    <path clip-path="url(#p49b8dd0ac7)" d="M 166.861333 516.869596 
L 174.849849 478.12 
L 166.861333 439.370404 
L 156.590182 478.12 
z
M 165.365194 478.12 
L 166.861333 472.475569 
L 168.024974 478.12 
L 166.861333 483.764431 
z
" style="fill:#585858;"/>
   </g>
   <g id="PathCollection_16">
    <path clip-path="url(#p49b8dd0ac7)" d="M 644.094087 531.32 
L 644.094087 478.12 
L 644.094087 424.92 
L 644.094087 371.72 
L 644.094087 318.52 
L 644.094087 265.32 
L 644.094087 212.12 
L 644.094087 158.92 
L 644.094087 105.72 
L 644.094087 52.52 
L 637.269213 52.52 
L 637.269213 105.72 
L 637.269213 158.92 
L 637.269213 212.12 
L 637.269213 265.32 
L 637.269213 318.52 
L 637.269213 371.72 
L 637.269213 424.92 
L 637.269213 478.12 
L 637.269213 531.32 
L 632.497877 584.52 
L 638.081953 584.52 
z
" style="fill:#484848;"/>
    <path clip-path="url(#p49b8dd0ac7)" d="M 166.861333 483.764431 
L 168.024974 478.12 
L 166.861333 472.475569 
L 165.365194 478.12 
z
" style="fill:#484848;"/>
   </g>
   <g id="PathCollection_17">
    <path clip-path="url(#p49b8dd0ac7)" d="M 650.918961 531.32 
L 650.918961 478.12 
L 650.918961 424.92 
L 650.918961 371.72 
L 650.918961 318.52 
L 650.918961 265.32 
L 650.918961 212.12 
L 650.918961 158.92 
L 650.918961 105.72 
L 650.918961 52.52 
L 644.094087 52.52 
L 644.094087 105.72 
L 644.094087 158.92 
L 644.094087 212.12 
L 644.094087 265.32 
L 644.094087 318.52 
L 644.094087 371.72 
L 644.094087 424.92 
L 644.094087 478.12 
L 644.094087 531.32 
L 638.081953 584.52 
L 643.666029 584.52 
z
" style="fill:#363636;"/>
   </g>
   <g id="PathCollection_18">
    <path clip-path="url(#p49b8dd0ac7)" d="M 657.743836 531.32 
L 657.743836 478.12 
L 657.743836 424.92 
L 657.743836 371.72 
L 657.743836 318.52 
L 657.743836 265.32 
L 657.743836 212.12 
L 657.743836 158.92 
L 657.743836 105.72 
L 657.743836 52.52 
L 650.918961 52.52 
L 650.918961 105.72 
L 650.918961 158.92 
L 650.918961 212.12 
L 650.918961 265.32 
L 650.918961 318.52 
L 650.918961 371.72 
L 650.918961 424.92 
L 650.918961 478.12 
L 650.918961 531.32 
L 643.666029 584.52 
L 649.250105 584.52 
z
" style="fill:#252525;"/>
   </g>
   <g id="PathCollection_19">
    <path clip-path="url(#p49b8dd0ac7)" d="M 660.368 551.702571 
L 660.368 531.32 
L 660.368 478.12 
L 660.368 424.92 
L 660.368 371.72 
L 660.368 318.52 
L 660.368 265.32 
L 660.368 212.12 
L 660.368 158.92 
L 660.368 105.72 
L 660.368 52.52 
L 657.743836 52.52 
L 657.743836 105.72 
L 657.743836 158.92 
L 657.743836 212.12 
L 657.743836 265.32 
L 657.743836 318.52 
L 657.743836 371.72 
L 657.743836 424.92 
L 657.743836 478.12 
L 657.743836 531.32 
L 649.250105 584.52 
L 654.834181 584.52 
z
" style="fill:#161616;"/>
   </g>
   <g id="PathCollection_20">
    <path clip-path="url(#p49b8dd0ac7)" d="M 660.368 584.52 
L 660.368 551.702571 
L 654.834181 584.52 
z
" style="fill:#070707;"/>
   </g>
   <g id="matplotlib.axis_1">
    <g id="xtick_1">
     <g id="line2d_1">
      <defs>
       <path d="M 0 0 
L 0 3.5 
" id="m0f474bdaa1" style="stroke:#000000;stroke-width:0.8;"/>
      </defs>
      <g>
       <use style="stroke:#000000;stroke-width:0.8;" x="76.531783" xlink:href="#m0f474bdaa1" y="584.52"/>
      </g>
     </g>
     <g id="text_1">
      <!-- 550 -->
      <defs>
       <path d="M 50.296875 72.90625 
L 50.296875 64.890625 
L 16.890625 64.890625 
L 16.890625 44 
Q 19.4375 45.75 22.828125 46.625 
Q 26.21875 47.515625 30.421875 47.515625 
Q 42.234375 47.515625 49.0625 40.96875 
Q 55.90625 34.421875 55.90625 23.09375 
Q 55.90625 11.53125 49 5.046875 
Q 42.09375 -1.421875 29.59375 -1.421875 
Q 24.5625 -1.421875 19.28125 -0.1875 
Q 14.015625 1.03125 8.5 3.515625 
L 8.5 17.671875 
L 14.015625 17.671875 
Q 14.453125 10.75 18.421875 7.078125 
Q 22.40625 3.421875 29.59375 3.421875 
Q 37.3125 3.421875 41.453125 8.5 
Q 45.609375 13.578125 45.609375 23.09375 
Q 45.609375 32.5625 41.484375 37.609375 
Q 37.359375 42.671875 29.59375 42.671875 
Q 25.203125 42.671875 21.84375 41.109375 
Q 18.5 39.546875 15.921875 36.28125 
L 11.71875 36.28125 
L 11.71875 72.90625 
z
" id="DejaVuSerif-35"/>
       <path d="M 31.78125 3.421875 
Q 39.265625 3.421875 42.96875 11.625 
Q 46.6875 19.828125 46.6875 36.375 
Q 46.6875 52.984375 42.96875 61.1875 
Q 39.265625 69.390625 31.78125 69.390625 
Q 24.3125 69.390625 20.59375 61.1875 
Q 16.890625 52.984375 16.890625 36.375 
Q 16.890625 19.828125 20.59375 11.625 
Q 24.3125 3.421875 31.78125 3.421875 
z
M 31.78125 -1.421875 
Q 19.921875 -1.421875 13.25 8.53125 
Q 6.59375 18.5 6.59375 36.375 
Q 6.59375 54.296875 13.25 64.25 
Q 19.921875 74.21875 31.78125 74.21875 
Q 43.703125 74.21875 50.34375 64.25 
Q 56.984375 54.296875 56.984375 36.375 
Q 56.984375 18.5 50.34375 8.53125 
Q 43.703125 -1.421875 31.78125 -1.421875 
z
" id="DejaVuSerif-30"/>
      </defs>
      <g transform="translate(69.908421 596.793316)scale(0.0694 -0.0694)">
       <use xlink:href="#DejaVuSerif-35"/>
       <use x="63.623047" xlink:href="#DejaVuSerif-35"/>
       <use x="127.246094" xlink:href="#DejaVuSerif-30"/>
      </g>
     </g>
    </g>
    <g id="xtick_2">
     <g id="line2d_2">
      <g>
       <use style="stroke:#000000;stroke-width:0.8;" x="149.075642" xlink:href="#m0f474bdaa1" y="584.52"/>
      </g>
     </g>
     <g id="text_2">
      <!-- 600 -->
      <defs>
       <path d="M 32.71875 3.421875 
Q 39.59375 3.421875 43.296875 8.46875 
Q 47.015625 13.53125 47.015625 23 
Q 47.015625 32.46875 43.296875 37.515625 
Q 39.59375 42.578125 32.71875 42.578125 
Q 25.734375 42.578125 22.0625 37.6875 
Q 18.40625 32.8125 18.40625 23.578125 
Q 18.40625 13.875 22.109375 8.640625 
Q 25.828125 3.421875 32.71875 3.421875 
z
M 16.796875 40.140625 
Q 20.125 43.796875 24.3125 45.59375 
Q 28.515625 47.40625 33.796875 47.40625 
Q 44.671875 47.40625 51 40.859375 
Q 57.328125 34.328125 57.328125 23 
Q 57.328125 11.921875 50.515625 5.25 
Q 43.703125 -1.421875 32.328125 -1.421875 
Q 19.96875 -1.421875 13.328125 7.78125 
Q 6.6875 17 6.6875 34.078125 
Q 6.6875 53.21875 14.546875 63.71875 
Q 22.40625 74.21875 36.71875 74.21875 
Q 40.578125 74.21875 44.828125 73.484375 
Q 49.078125 72.75 53.515625 71.296875 
L 53.515625 59.28125 
L 48 59.28125 
Q 47.40625 64.203125 44.234375 66.796875 
Q 41.0625 69.390625 35.6875 69.390625 
Q 26.21875 69.390625 21.578125 62.203125 
Q 16.9375 55.03125 16.796875 40.140625 
z
" id="DejaVuSerif-36"/>
      </defs>
      <g transform="translate(142.45228 596.793316)scale(0.0694 -0.0694)">
       <use xlink:href="#DejaVuSerif-36"/>
       <use x="63.623047" xlink:href="#DejaVuSerif-30"/>
       <use x="127.246094" xlink:href="#DejaVuSerif-30"/>
      </g>
     </g>
    </g>
    <g id="xtick_3">
     <g id="line2d_3">
      <g>
       <use style="stroke:#000000;stroke-width:0.8;" x="221.619502" xlink:href="#m0f474bdaa1" y="584.52"/>
      </g>
     </g>
     <g id="text_3">
      <!-- 650 -->
      <g transform="translate(214.996139 596.793316)scale(0.0694 -0.0694)">
       <use xlink:href="#DejaVuSerif-36"/>
       <use x="63.623047" xlink:href="#DejaVuSerif-35"/>
       <use x="127.246094" xlink:href="#DejaVuSerif-30"/>
      </g>
     </g>
    </g>
    <g id="xtick_4">
     <g id="line2d_4">
      <g>
       <use style="stroke:#000000;stroke-width:0.8;" x="294.163361" xlink:href="#m0f474bdaa1" y="584.52"/>
      </g>
     </g>
     <g id="text_4">
      <!-- 700 -->
      <defs>
       <path d="M 56.390625 67.921875 
L 27.875 0 
L 20.609375 0 
L 47.796875 64.890625 
L 14.109375 64.890625 
L 14.109375 55.90625 
L 8.40625 55.90625 
L 8.40625 72.90625 
L 56.390625 72.90625 
z
" id="DejaVuSerif-37"/>
      </defs>
      <g transform="translate(287.539998 596.793316)scale(0.0694 -0.0694)">
       <use xlink:href="#DejaVuSerif-37"/>
       <use x="63.623047" xlink:href="#DejaVuSerif-30"/>
       <use x="127.246094" xlink:href="#DejaVuSerif-30"/>
      </g>
     </g>
    </g>
    <g id="xtick_5">
     <g id="line2d_5">
      <g>
       <use style="stroke:#000000;stroke-width:0.8;" x="366.70722" xlink:href="#m0f474bdaa1" y="584.52"/>
      </g>
     </g>
     <g id="text_5">
      <!-- 750 -->
      <g transform="translate(360.083857 596.793316)scale(0.0694 -0.0694)">
       <use xlink:href="#DejaVuSerif-37"/>
       <use x="63.623047" xlink:href="#DejaVuSerif-35"/>
       <use x="127.246094" xlink:href="#DejaVuSerif-30"/>
      </g>
     </g>
    </g>
    <g id="xtick_6">
     <g id="line2d_6">
      <g>
       <use style="stroke:#000000;stroke-width:0.8;" x="439.251079" xlink:href="#m0f474bdaa1" y="584.52"/>
      </g>
     </g>
     <g id="text_6">
      <!-- 800 -->
      <defs>
       <path d="M 46.578125 19.921875 
Q 46.578125 27.734375 42.6875 32.046875 
Q 38.8125 36.375 31.78125 36.375 
Q 24.75 36.375 20.875 32.046875 
Q 17 27.734375 17 19.921875 
Q 17 12.0625 20.875 7.734375 
Q 24.75 3.421875 31.78125 3.421875 
Q 38.8125 3.421875 42.6875 7.734375 
Q 46.578125 12.0625 46.578125 19.921875 
z
M 44.578125 55.328125 
Q 44.578125 61.96875 41.203125 65.671875 
Q 37.84375 69.390625 31.78125 69.390625 
Q 25.78125 69.390625 22.390625 65.671875 
Q 19 61.96875 19 55.328125 
Q 19 48.640625 22.390625 44.921875 
Q 25.78125 41.21875 31.78125 41.21875 
Q 37.84375 41.21875 41.203125 44.921875 
Q 44.578125 48.640625 44.578125 55.328125 
z
M 39.3125 38.8125 
Q 47.609375 37.703125 52.25 32.6875 
Q 56.890625 27.6875 56.890625 19.921875 
Q 56.890625 9.671875 50.390625 4.125 
Q 43.890625 -1.421875 31.78125 -1.421875 
Q 19.734375 -1.421875 13.203125 4.125 
Q 6.6875 9.671875 6.6875 19.921875 
Q 6.6875 27.6875 11.328125 32.6875 
Q 15.96875 37.703125 24.3125 38.8125 
Q 16.9375 40.140625 13 44.40625 
Q 9.078125 48.6875 9.078125 55.328125 
Q 9.078125 64.109375 15.125 69.15625 
Q 21.1875 74.21875 31.78125 74.21875 
Q 42.390625 74.21875 48.4375 69.15625 
Q 54.5 64.109375 54.5 55.328125 
Q 54.5 48.6875 50.5625 44.40625 
Q 46.625 40.140625 39.3125 38.8125 
z
" id="DejaVuSerif-38"/>
      </defs>
      <g transform="translate(432.627716 596.793316)scale(0.0694 -0.0694)">
       <use xlink:href="#DejaVuSerif-38"/>
       <use x="63.623047" xlink:href="#DejaVuSerif-30"/>
       <use x="127.246094" xlink:href="#DejaVuSerif-30"/>
      </g>
     </g>
    </g>
    <g id="xtick_7">
     <g id="line2d_7">
      <g>
       <use style="stroke:#000000;stroke-width:0.8;" x="511.794938" xlink:href="#m0f474bdaa1" y="584.52"/>
      </g>
     </g>
     <g id="text_7">
      <!-- 850 -->
      <g transform="translate(505.171575 596.793316)scale(0.0694 -0.0694)">
       <use xlink:href="#DejaVuSerif-38"/>
       <use x="63.623047" xlink:href="#DejaVuSerif-35"/>
       <use x="127.246094" xlink:href="#DejaVuSerif-30"/>
      </g>
     </g>
    </g>
    <g id="xtick_8">
     <g id="line2d_8">
      <g>
       <use style="stroke:#000000;stroke-width:0.8;" x="584.338797" xlink:href="#m0f474bdaa1" y="584.52"/>
      </g>
     </g>
     <g id="text_8">
      <!-- 900 -->
      <defs>
       <path d="M 46.78125 32.671875 
Q 43.5 29 39.25 27.1875 
Q 35.015625 25.390625 29.6875 25.390625 
Q 18.84375 25.390625 12.5625 31.9375 
Q 6.296875 38.484375 6.296875 49.8125 
Q 6.296875 60.890625 13.109375 67.546875 
Q 19.921875 74.21875 31.296875 74.21875 
Q 43.65625 74.21875 50.265625 65.015625 
Q 56.890625 55.8125 56.890625 38.71875 
Q 56.890625 19.578125 49.015625 9.078125 
Q 41.15625 -1.421875 26.90625 -1.421875 
Q 23.046875 -1.421875 18.796875 -0.6875 
Q 14.546875 0.046875 10.109375 1.515625 
L 10.109375 13.625 
L 15.578125 13.625 
Q 16.21875 8.6875 19.390625 6.046875 
Q 22.5625 3.421875 27.875 3.421875 
Q 37.359375 3.421875 41.984375 10.5625 
Q 46.625 17.71875 46.78125 32.671875 
z
M 30.90625 69.390625 
Q 23.96875 69.390625 20.28125 64.328125 
Q 16.609375 59.28125 16.609375 49.8125 
Q 16.609375 40.328125 20.28125 35.25 
Q 23.96875 30.171875 30.90625 30.171875 
Q 37.84375 30.171875 41.53125 35.078125 
Q 45.21875 39.984375 45.21875 49.21875 
Q 45.21875 58.9375 41.5 64.15625 
Q 37.796875 69.390625 30.90625 69.390625 
z
" id="DejaVuSerif-39"/>
      </defs>
      <g transform="translate(577.715435 596.793316)scale(0.0694 -0.0694)">
       <use xlink:href="#DejaVuSerif-39"/>
       <use x="63.623047" xlink:href="#DejaVuSerif-30"/>
       <use x="127.246094" xlink:href="#DejaVuSerif-30"/>
      </g>
     </g>
    </g>
    <g id="xtick_9">
     <g id="line2d_9">
      <g>
       <use style="stroke:#000000;stroke-width:0.8;" x="656.882656" xlink:href="#m0f474bdaa1" y="584.52"/>
      </g>
     </g>
     <g id="text_9">
      <!-- 950 -->
      <g transform="translate(650.259294 596.793316)scale(0.0694 -0.0694)">
       <use xlink:href="#DejaVuSerif-39"/>
       <use x="63.623047" xlink:href="#DejaVuSerif-35"/>
       <use x="127.246094" xlink:href="#DejaVuSerif-30"/>
      </g>
     </g>
    </g>
   </g>
   <g id="matplotlib.axis_2">
    <g id="ytick_1">
     <g id="line2d_10">
      <defs>
       <path d="M 0 0 
L -3.5 0 
" id="m3b7d9109dd" style="stroke:#000000;stroke-width:0.8;"/>
      </defs>
      <g>
       <use style="stroke:#000000;stroke-width:0.8;" x="68.16" xlink:href="#m3b7d9109dd" y="535.32064"/>
      </g>
     </g>
     <g id="text_10">
      <!-- 800 -->
      <g transform="translate(47.913275 537.957298)scale(0.0694 -0.0694)">
       <use xlink:href="#DejaVuSerif-38"/>
       <use x="63.623047" xlink:href="#DejaVuSerif-30"/>
       <use x="127.246094" xlink:href="#DejaVuSerif-30"/>
      </g>
     </g>
    </g>
    <g id="ytick_2">
     <g id="line2d_11">
      <g>
       <use style="stroke:#000000;stroke-width:0.8;" x="68.16" xlink:href="#m3b7d9109dd" y="456.5208"/>
      </g>
     </g>
     <g id="text_11">
      <!-- 1000 -->
      <defs>
       <path d="M 14.203125 0 
L 14.203125 5.171875 
L 26.90625 5.171875 
L 26.90625 65.828125 
L 12.203125 56.296875 
L 12.203125 62.703125 
L 29.984375 74.21875 
L 36.71875 74.21875 
L 36.71875 5.171875 
L 49.421875 5.171875 
L 49.421875 0 
z
" id="DejaVuSerif-31"/>
      </defs>
      <g transform="translate(43.4977 459.157458)scale(0.0694 -0.0694)">
       <use xlink:href="#DejaVuSerif-31"/>
       <use x="63.623047" xlink:href="#DejaVuSerif-30"/>
       <use x="127.246094" xlink:href="#DejaVuSerif-30"/>
       <use x="190.869141" xlink:href="#DejaVuSerif-30"/>
      </g>
     </g>
    </g>
    <g id="ytick_3">
     <g id="line2d_12">
      <g>
       <use style="stroke:#000000;stroke-width:0.8;" x="68.16" xlink:href="#m3b7d9109dd" y="377.72096"/>
      </g>
     </g>
     <g id="text_12">
      <!-- 1200 -->
      <defs>
       <path d="M 12.796875 55.515625 
L 7.328125 55.515625 
L 7.328125 68.5 
Q 12.546875 71.296875 17.84375 72.75 
Q 23.140625 74.21875 28.21875 74.21875 
Q 39.59375 74.21875 46.1875 68.703125 
Q 52.78125 63.1875 52.78125 53.71875 
Q 52.78125 43.015625 37.84375 28.125 
Q 36.671875 27 36.078125 26.421875 
L 17.671875 8.015625 
L 48.09375 8.015625 
L 48.09375 17 
L 53.8125 17 
L 53.8125 0 
L 6.78125 0 
L 6.78125 5.328125 
L 28.90625 27.390625 
Q 36.234375 34.71875 39.359375 40.84375 
Q 42.484375 46.96875 42.484375 53.71875 
Q 42.484375 61.078125 38.640625 65.234375 
Q 34.8125 69.390625 28.078125 69.390625 
Q 21.09375 69.390625 17.28125 65.921875 
Q 13.484375 62.453125 12.796875 55.515625 
z
" id="DejaVuSerif-32"/>
      </defs>
      <g transform="translate(43.4977 380.357618)scale(0.0694 -0.0694)">
       <use xlink:href="#DejaVuSerif-31"/>
       <use x="63.623047" xlink:href="#DejaVuSerif-32"/>
       <use x="127.246094" xlink:href="#DejaVuSerif-30"/>
       <use x="190.869141" xlink:href="#DejaVuSerif-30"/>
      </g>
     </g>
    </g>
    <g id="ytick_4">
     <g id="line2d_13">
      <g>
       <use style="stroke:#000000;stroke-width:0.8;" x="68.16" xlink:href="#m3b7d9109dd" y="298.92112"/>
      </g>
     </g>
     <g id="text_13">
      <!-- 1400 -->
      <defs>
       <path d="M 34.90625 24.703125 
L 34.90625 63.484375 
L 10.015625 24.703125 
z
M 56.390625 0 
L 23.1875 0 
L 23.1875 5.171875 
L 34.90625 5.171875 
L 34.90625 19.484375 
L 3.078125 19.484375 
L 3.078125 24.8125 
L 35.015625 74.21875 
L 44.671875 74.21875 
L 44.671875 24.703125 
L 58.59375 24.703125 
L 58.59375 19.484375 
L 44.671875 19.484375 
L 44.671875 5.171875 
L 56.390625 5.171875 
z
" id="DejaVuSerif-34"/>
      </defs>
      <g transform="translate(43.4977 301.557778)scale(0.0694 -0.0694)">
       <use xlink:href="#DejaVuSerif-31"/>
       <use x="63.623047" xlink:href="#DejaVuSerif-34"/>
       <use x="127.246094" xlink:href="#DejaVuSerif-30"/>
       <use x="190.869141" xlink:href="#DejaVuSerif-30"/>
      </g>
     </g>
    </g>
    <g id="ytick_5">
     <g id="line2d_14">
      <g>
       <use style="stroke:#000000;stroke-width:0.8;" x="68.16" xlink:href="#m3b7d9109dd" y="220.12128"/>
      </g>
     </g>
     <g id="text_14">
      <!-- 1600 -->
      <g transform="translate(43.4977 222.757938)scale(0.0694 -0.0694)">
       <use xlink:href="#DejaVuSerif-31"/>
       <use x="63.623047" xlink:href="#DejaVuSerif-36"/>
       <use x="127.246094" xlink:href="#DejaVuSerif-30"/>
       <use x="190.869141" xlink:href="#DejaVuSerif-30"/>
      </g>
     </g>
    </g>
    <g id="ytick_6">
     <g id="line2d_15">
      <g>
       <use style="stroke:#000000;stroke-width:0.8;" x="68.16" xlink:href="#m3b7d9109dd" y="141.32144"/>
      </g>
     </g>
     <g id="text_15">
      <!-- 1800 -->
      <g transform="translate(43.4977 143.958098)scale(0.0694 -0.0694)">
       <use xlink:href="#DejaVuSerif-31"/>
       <use x="63.623047" xlink:href="#DejaVuSerif-38"/>
       <use x="127.246094" xlink:href="#DejaVuSerif-30"/>
       <use x="190.869141" xlink:href="#DejaVuSerif-30"/>
      </g>
     </g>
    </g>
    <g id="ytick_7">
     <g id="line2d_16">
      <g>
       <use style="stroke:#000000;stroke-width:0.8;" x="68.16" xlink:href="#m3b7d9109dd" y="62.5216"/>
      </g>
     </g>
     <g id="text_16">
      <!-- 2000 -->
      <g transform="translate(43.4977 65.158258)scale(0.0694 -0.0694)">
       <use xlink:href="#DejaVuSerif-32"/>
       <use x="63.623047" xlink:href="#DejaVuSerif-30"/>
       <use x="127.246094" xlink:href="#DejaVuSerif-30"/>
       <use x="190.869141" xlink:href="#DejaVuSerif-30"/>
      </g>
     </g>
    </g>
   </g>
   <g id="patch_3">
    <path d="M 68.16 584.52 
L 68.16 52.52 
" style="fill:none;stroke:#000000;stroke-linecap:square;stroke-linejoin:miter;stroke-width:0.8;"/>
   </g>
   <g id="patch_4">
    <path d="M 660.368 584.52 
L 660.368 52.52 
" style="fill:none;stroke:#000000;stroke-linecap:square;stroke-linejoin:miter;stroke-width:0.8;"/>
   </g>
   <g id="patch_5">
    <path d="M 68.16 584.52 
L 660.368 584.52 
" style="fill:none;stroke:#000000;stroke-linecap:square;stroke-linejoin:miter;stroke-width:0.8;"/>
   </g>
   <g id="patch_6">
    <path d="M 68.16 52.52 
L 660.368 52.52 
" style="fill:none;stroke:#000000;stroke-linecap:square;stroke-linejoin:miter;stroke-width:0.8;"/>
   </g>
  </g>
  <g id="axes_2">
   <g id="patch_7">
    <path clip-path="url(#paecb22e24c)" d="M 697.381 584.52 
L 697.381 557.92 
L 697.381 79.12 
L 697.381 52.52 
L 723.981 52.52 
L 723.981 79.12 
L 723.981 557.92 
L 723.981 584.52 
z
" style="fill:#ffffff;stroke:#ffffff;stroke-linejoin:miter;stroke-width:0.01;"/>
   </g>
   <g id="QuadMesh_1">
    <path clip-path="url(#paecb22e24c)" d="M 697.381 584.52 
L 723.981 584.52 
L 723.981 557.92 
L 697.381 557.92 
L 697.381 584.52 
" style="fill:#fcfcfc;"/>
    <path clip-path="url(#paecb22e24c)" d="M 697.381 557.92 
L 723.981 557.92 
L 723.981 531.32 
L 697.381 531.32 
L 697.381 557.92 
" style="fill:#f6f6f6;"/>
    <path clip-path="url(#paecb22e24c)" d="M 697.381 531.32 
L 723.981 531.32 
L 723.981 504.72 
L 697.381 504.72 
L 697.381 531.32 
" style="fill:#f0f0f0;"/>
    <path clip-path="url(#paecb22e24c)" d="M 697.381 504.72 
L 723.981 504.72 
L 723.981 478.12 
L 697.381 478.12 
L 697.381 504.72 
" style="fill:#e7e7e7;"/>
    <path clip-path="url(#paecb22e24c)" d="M 697.381 478.12 
L 723.981 478.12 
L 723.981 451.52 
L 697.381 451.52 
L 697.381 478.12 
" style="fill:#dedede;"/>
    <path clip-path="url(#paecb22e24c)" d="M 697.381 451.52 
L 723.981 451.52 
L 723.981 424.92 
L 697.381 424.92 
L 697.381 451.52 
" style="fill:#d4d4d4;"/>
    <path clip-path="url(#paecb22e24c)" d="M 697.381 424.92 
L 723.981 424.92 
L 723.981 398.32 
L 697.381 398.32 
L 697.381 424.92 
" style="fill:#c8c8c8;"/>
    <path clip-path="url(#paecb22e24c)" d="M 697.381 398.32 
L 723.981 398.32 
L 723.981 371.72 
L 697.381 371.72 
L 697.381 398.32 
" style="fill:#bdbdbd;"/>
    <path clip-path="url(#paecb22e24c)" d="M 697.381 371.72 
L 723.981 371.72 
L 723.981 345.12 
L 697.381 345.12 
L 697.381 371.72 
" style="fill:#aeaeae;"/>
    <path clip-path="url(#paecb22e24c)" d="M 697.381 345.12 
L 723.981 345.12 
L 723.981 318.52 
L 697.381 318.52 
L 697.381 345.12 
" style="fill:#9e9e9e;"/>
    <path clip-path="url(#paecb22e24c)" d="M 697.381 318.52 
L 723.981 318.52 
L 723.981 291.92 
L 697.381 291.92 
L 697.381 318.52 
" style="fill:#8f8f8f;"/>
    <path clip-path="url(#paecb22e24c)" d="M 697.381 291.92 
L 723.981 291.92 
L 723.981 265.32 
L 697.381 265.32 
L 697.381 291.92 
" style="fill:#818181;"/>
    <path clip-path="url(#paecb22e24c)" d="M 697.381 265.32 
L 723.981 265.32 
L 723.981 238.72 
L 697.381 238.72 
L 697.381 265.32 
" style="fill:#727272;"/>
    <path clip-path="url(#paecb22e24c)" d="M 697.381 238.72 
L 723.981 238.72 
L 723.981 212.12 
L 697.381 212.12 
L 697.381 238.72 
" style="fill:#666666;"/>
    <path clip-path="url(#paecb22e24c)" d="M 697.381 212.12 
L 723.981 212.12 
L 723.981 185.52 
L 697.381 185.52 
L 697.381 212.12 
" style="fill:#585858;"/>
    <path clip-path="url(#paecb22e24c)" d="M 697.381 185.52 
L 723.981 185.52 
L 723.981 158.92 
L 697.381 158.92 
L 697.381 185.52 
" style="fill:#484848;"/>
    <path clip-path="url(#paecb22e24c)" d="M 697.381 158.92 
L 723.981 158.92 
L 723.981 132.32 
L 697.381 132.32 
L 697.381 158.92 
" style="fill:#363636;"/>
    <path clip-path="url(#paecb22e24c)" d="M 697.381 132.32 
L 723.981 132.32 
L 723.981 105.72 
L 697.381 105.72 
L 697.381 132.32 
" style="fill:#252525;"/>
    <path clip-path="url(#paecb22e24c)" d="M 697.381 105.72 
L 723.981 105.72 
L 723.981 79.12 
L 697.381 79.12 
L 697.381 105.72 
" style="fill:#161616;"/>
    <path clip-path="url(#paecb22e24c)" d="M 697.381 79.12 
L 723.981 79.12 
L 723.981 52.52 
L 697.381 52.52 
L 697.381 79.12 
" style="fill:#070707;"/>
   </g>
   <g id="matplotlib.axis_3"/>
   <g id="matplotlib.axis_4">
    <g id="ytick_8">
     <g id="line2d_17">
      <defs>
       <path d="M 0 0 
L 3.5 0 
" id="maf78937cf1" style="stroke:#000000;stroke-width:0.8;"/>
      </defs>
      <g>
       <use style="stroke:#000000;stroke-width:0.8;" x="723.981" xlink:href="#maf78937cf1" y="584.52"/>
      </g>
     </g>
     <g id="text_17">
      <!-- 0.022360 -->
      <defs>
       <path d="M 9.421875 5.078125 
Q 9.421875 7.8125 11.28125 9.71875 
Q 13.140625 11.625 15.921875 11.625 
Q 18.609375 11.625 20.5 9.71875 
Q 22.40625 7.8125 22.40625 5.078125 
Q 22.40625 2.390625 20.5 0.484375 
Q 18.609375 -1.421875 15.921875 -1.421875 
Q 13.140625 -1.421875 11.28125 0.453125 
Q 9.421875 2.34375 9.421875 5.078125 
z
" id="DejaVuSerif-2e"/>
       <path d="M 9.71875 69.828125 
Q 15.4375 71.96875 20.671875 73.09375 
Q 25.921875 74.21875 30.515625 74.21875 
Q 41.21875 74.21875 47.21875 69.59375 
Q 53.21875 64.984375 53.21875 56.78125 
Q 53.21875 50.203125 49.0625 45.78125 
Q 44.921875 41.359375 37.3125 39.796875 
Q 46.296875 38.53125 51.25 33.28125 
Q 56.203125 28.03125 56.203125 19.671875 
Q 56.203125 9.46875 49.34375 4.015625 
Q 42.484375 -1.421875 29.59375 -1.421875 
Q 23.875 -1.421875 18.421875 -0.1875 
Q 12.984375 1.03125 7.625 3.515625 
L 7.625 17.671875 
L 13.09375 17.671875 
Q 13.578125 10.640625 17.828125 7.03125 
Q 22.078125 3.421875 29.78125 3.421875 
Q 37.25 3.421875 41.578125 7.734375 
Q 45.90625 12.0625 45.90625 19.578125 
Q 45.90625 28.171875 41.453125 32.59375 
Q 37.015625 37.015625 28.421875 37.015625 
L 23.78125 37.015625 
L 23.78125 42 
L 26.21875 42 
Q 34.765625 42 39.03125 45.53125 
Q 43.3125 49.078125 43.3125 56.203125 
Q 43.3125 62.59375 39.796875 65.984375 
Q 36.28125 69.390625 29.6875 69.390625 
Q 23.09375 69.390625 19.453125 66.265625 
Q 15.828125 63.140625 15.1875 56.984375 
L 9.71875 56.984375 
z
" id="DejaVuSerif-33"/>
      </defs>
      <g transform="translate(730.981 587.156658)scale(0.0694 -0.0694)">
       <use xlink:href="#DejaVuSerif-30"/>
       <use x="63.623047" xlink:href="#DejaVuSerif-2e"/>
       <use x="95.410156" xlink:href="#DejaVuSerif-30"/>
       <use x="159.033203" xlink:href="#DejaVuSerif-32"/>
       <use x="222.65625" xlink:href="#DejaVuSerif-32"/>
       <use x="286.279297" xlink:href="#DejaVuSerif-33"/>
       <use x="349.902344" xlink:href="#DejaVuSerif-36"/>
       <use x="413.525391" xlink:href="#DejaVuSerif-30"/>
      </g>
     </g>
    </g>
    <g id="ytick_9">
     <g id="line2d_18">
      <g>
       <use style="stroke:#000000;stroke-width:0.8;" x="723.981" xlink:href="#maf78937cf1" y="504.72"/>
      </g>
     </g>
     <g id="text_18">
      <!-- 0.022366 -->
      <g transform="translate(730.981 507.356658)scale(0.0694 -0.0694)">
       <use xlink:href="#DejaVuSerif-30"/>
       <use x="63.623047" xlink:href="#DejaVuSerif-2e"/>
       <use x="95.410156" xlink:href="#DejaVuSerif-30"/>
       <use x="159.033203" xlink:href="#DejaVuSerif-32"/>
       <use x="222.65625" xlink:href="#DejaVuSerif-32"/>
       <use x="286.279297" xlink:href="#DejaVuSerif-33"/>
       <use x="349.902344" xlink:href="#DejaVuSerif-36"/>
       <use x="413.525391" xlink:href="#DejaVuSerif-36"/>
      </g>
     </g>
    </g>
    <g id="ytick_10">
     <g id="line2d_19">
      <g>
       <use style="stroke:#000000;stroke-width:0.8;" x="723.981" xlink:href="#maf78937cf1" y="424.92"/>
      </g>
     </g>
     <g id="text_19">
      <!-- 0.022372 -->
      <g transform="translate(730.981 427.556658)scale(0.0694 -0.0694)">
       <use xlink:href="#DejaVuSerif-30"/>
       <use x="63.623047" xlink:href="#DejaVuSerif-2e"/>
       <use x="95.410156" xlink:href="#DejaVuSerif-30"/>
       <use x="159.033203" xlink:href="#DejaVuSerif-32"/>
       <use x="222.65625" xlink:href="#DejaVuSerif-32"/>
       <use x="286.279297" xlink:href="#DejaVuSerif-33"/>
       <use x="349.902344" xlink:href="#DejaVuSerif-37"/>
       <use x="413.525391" xlink:href="#DejaVuSerif-32"/>
      </g>
     </g>
    </g>
    <g id="ytick_11">
     <g id="line2d_20">
      <g>
       <use style="stroke:#000000;stroke-width:0.8;" x="723.981" xlink:href="#maf78937cf1" y="345.12"/>
      </g>
     </g>
     <g id="text_20">
      <!-- 0.022378 -->
      <g transform="translate(730.981 347.756658)scale(0.0694 -0.0694)">
       <use xlink:href="#DejaVuSerif-30"/>
       <use x="63.623047" xlink:href="#DejaVuSerif-2e"/>
       <use x="95.410156" xlink:href="#DejaVuSerif-30"/>
       <use x="159.033203" xlink:href="#DejaVuSerif-32"/>
       <use x="222.65625" xlink:href="#DejaVuSerif-32"/>
       <use x="286.279297" xlink:href="#DejaVuSerif-33"/>
       <use x="349.902344" xlink:href="#DejaVuSerif-37"/>
       <use x="413.525391" xlink:href="#DejaVuSerif-38"/>
      </g>
     </g>
    </g>
    <g id="ytick_12">
     <g id="line2d_21">
      <g>
       <use style="stroke:#000000;stroke-width:0.8;" x="723.981" xlink:href="#maf78937cf1" y="265.32"/>
      </g>
     </g>
     <g id="text_21">
      <!-- 0.022384 -->
      <g transform="translate(730.981 267.956658)scale(0.0694 -0.0694)">
       <use xlink:href="#DejaVuSerif-30"/>
       <use x="63.623047" xlink:href="#DejaVuSerif-2e"/>
       <use x="95.410156" xlink:href="#DejaVuSerif-30"/>
       <use x="159.033203" xlink:href="#DejaVuSerif-32"/>
       <use x="222.65625" xlink:href="#DejaVuSerif-32"/>
       <use x="286.279297" xlink:href="#DejaVuSerif-33"/>
       <use x="349.902344" xlink:href="#DejaVuSerif-38"/>
       <use x="413.525391" xlink:href="#DejaVuSerif-34"/>
      </g>
     </g>
    </g>
    <g id="ytick_13">
     <g id="line2d_22">
      <g>
       <use style="stroke:#000000;stroke-width:0.8;" x="723.981" xlink:href="#maf78937cf1" y="185.52"/>
      </g>
     </g>
     <g id="text_22">
      <!-- 0.022390 -->
      <g transform="translate(730.981 188.156658)scale(0.0694 -0.0694)">
       <use xlink:href="#DejaVuSerif-30"/>
       <use x="63.623047" xlink:href="#DejaVuSerif-2e"/>
       <use x="95.410156" xlink:href="#DejaVuSerif-30"/>
       <use x="159.033203" xlink:href="#DejaVuSerif-32"/>
       <use x="222.65625" xlink:href="#DejaVuSerif-32"/>
       <use x="286.279297" xlink:href="#DejaVuSerif-33"/>
       <use x="349.902344" xlink:href="#DejaVuSerif-39"/>
       <use x="413.525391" xlink:href="#DejaVuSerif-30"/>
      </g>
     </g>
    </g>
    <g id="ytick_14">
     <g id="line2d_23">
      <g>
       <use style="stroke:#000000;stroke-width:0.8;" x="723.981" xlink:href="#maf78937cf1" y="105.72"/>
      </g>
     </g>
     <g id="text_23">
      <!-- 0.022396 -->
      <g transform="translate(730.981 108.356658)scale(0.0694 -0.0694)">
       <use xlink:href="#DejaVuSerif-30"/>
       <use x="63.623047" xlink:href="#DejaVuSerif-2e"/>
       <use x="95.410156" xlink:href="#DejaVuSerif-30"/>
       <use x="159.033203" xlink:href="#DejaVuSerif-32"/>
       <use x="222.65625" xlink:href="#DejaVuSerif-32"/>
       <use x="286.279297" xlink:href="#DejaVuSerif-33"/>
       <use x="349.902344" xlink:href="#DejaVuSerif-39"/>
       <use x="413.525391" xlink:href="#DejaVuSerif-36"/>
      </g>
     </g>
    </g>
   </g>
   <g id="patch_8">
    <path d="M 697.381 584.52 
L 697.381 557.92 
L 697.381 79.12 
L 697.381 52.52 
L 723.981 52.52 
L 723.981 79.12 
L 723.981 557.92 
L 723.981 584.52 
z
" style="fill:none;stroke:#000000;stroke-linejoin:miter;stroke-width:0.8;"/>
   </g>
  </g>
 </g>
 <defs>
  <clipPath id="p49b8dd0ac7">
   <rect height="532" width="592.208" x="68.16" y="52.52"/>
  </clipPath>
  <clipPath id="paecb22e24c">
   <rect height="532" width="26.6" x="697.381" y="52.52"/>
  </clipPath>
 </defs>
</svg>
