<?xml version="1.0" encoding="utf-8" standalone="no"?>
<!DOCTYPE svg PUBLIC "-//W3C//DTD SVG 1.1//EN"
  "http://www.w3.org/Graphics/SVG/1.1/DTD/svg11.dtd">
<!-- Created with matplotlib (http://matplotlib.org/) -->
<svg height="648pt" version="1.1" viewBox="0 0 864 648" width="864pt" xmlns="http://www.w3.org/2000/svg" xmlns:xlink="http://www.w3.org/1999/xlink">
 <defs>
  <style type="text/css">
*{stroke-linecap:butt;stroke-linejoin:round;}
  </style>
 </defs>
 <g id="figure_1">
  <g id="patch_1">
   <path d="M 0 648 
L 864 648 
L 864 0 
L 0 0 
z
" style="fill:#ffffff;"/>
  </g>
  <g id="axes_1">
   <g id="patch_2">
    <path d="M 68.16 584.52 
L 660.368 584.52 
L 660.368 52.52 
L 68.16 52.52 
z
" style="fill:#ffffff;"/>
   </g>
   <g id="PathCollection_1">
    <path clip-path="url(#p6fb6d96e9c)" d="M 73.095067 531.32 
L 73.095067 478.12 
L 73.095067 424.92 
L 73.095067 371.72 
L 73.095067 318.52 
L 73.095067 265.32 
L 73.095067 212.12 
L 73.095067 158.92 
L 73.095067 105.72 
L 73.095067 52.52 
L 68.16 52.52 
L 68.16 105.72 
L 68.16 158.92 
L 68.16 212.12 
L 68.16 265.32 
L 68.16 318.52 
L 68.16 371.72 
L 68.16 424.92 
L 68.16 478.12 
L 68.16 531.32 
L 68.16 536.64 
z
" style="fill:#fcfcfc;"/>
    <path clip-path="url(#p6fb6d96e9c)" d="M 660.368 536.64 
L 660.368 531.32 
L 660.368 478.12 
L 660.368 472.8 
L 655.432933 478.12 
L 655.432933 531.32 
z
" style="fill:#fcfcfc;"/>
   </g>
   <g id="PathCollection_2">
    <path clip-path="url(#p6fb6d96e9c)" d="M 78.030133 531.32 
L 78.030133 478.12 
L 78.030133 424.92 
L 78.030133 371.72 
L 78.030133 318.52 
L 78.030133 265.32 
L 78.030133 212.12 
L 78.030133 158.92 
L 78.030133 105.72 
L 78.030133 52.52 
L 73.095067 52.52 
L 73.095067 105.72 
L 73.095067 158.92 
L 73.095067 212.12 
L 73.095067 265.32 
L 73.095067 318.52 
L 73.095067 371.72 
L 73.095067 424.92 
L 73.095067 478.12 
L 73.095067 531.32 
L 68.16 536.64 
L 68.16 541.96 
z
" style="fill:#f6f6f6;"/>
    <path clip-path="url(#p6fb6d96e9c)" d="M 660.368 541.96 
L 660.368 536.64 
L 655.432933 531.32 
L 655.432933 478.12 
L 660.368 472.8 
L 660.368 467.48 
L 650.497867 478.12 
L 650.497867 531.32 
z
" style="fill:#f6f6f6;"/>
   </g>
   <g id="PathCollection_3">
    <path clip-path="url(#p6fb6d96e9c)" d="M 82.9652 531.32 
L 82.9652 478.12 
L 82.9652 424.92 
L 82.9652 371.72 
L 82.9652 318.52 
L 82.9652 265.32 
L 82.9652 212.12 
L 82.9652 158.92 
L 82.9652 105.72 
L 82.9652 52.52 
L 78.030133 52.52 
L 78.030133 105.72 
L 78.030133 158.92 
L 78.030133 212.12 
L 78.030133 265.32 
L 78.030133 318.52 
L 78.030133 371.72 
L 78.030133 424.92 
L 78.030133 478.12 
L 78.030133 531.32 
L 68.16 541.96 
L 68.16 547.28 
z
" style="fill:#f0f0f0;"/>
    <path clip-path="url(#p6fb6d96e9c)" d="M 660.368 547.28 
L 660.368 541.96 
L 650.497867 531.32 
L 650.497867 478.12 
L 660.368 467.48 
L 660.368 462.16 
L 645.5628 478.12 
L 645.5628 531.32 
z
" style="fill:#f0f0f0;"/>
   </g>
   <g id="PathCollection_4">
    <path clip-path="url(#p6fb6d96e9c)" d="M 87.900267 531.32 
L 87.900267 478.12 
L 87.900267 424.92 
L 87.900267 371.72 
L 87.900267 318.52 
L 87.900267 265.32 
L 87.900267 212.12 
L 87.900267 158.92 
L 87.900267 105.72 
L 87.900267 52.52 
L 82.9652 52.52 
L 82.9652 105.72 
L 82.9652 158.92 
L 82.9652 212.12 
L 82.9652 265.32 
L 82.9652 318.52 
L 82.9652 371.72 
L 82.9652 424.92 
L 82.9652 478.12 
L 82.9652 531.32 
L 68.16 547.28 
L 68.16 552.6 
z
" style="fill:#e7e7e7;"/>
    <path clip-path="url(#p6fb6d96e9c)" d="M 660.368 552.6 
L 660.368 547.28 
L 645.5628 531.32 
L 645.5628 478.12 
L 660.368 462.16 
L 660.368 456.84 
L 640.627733 478.12 
L 640.627733 531.32 
z
" style="fill:#e7e7e7;"/>
   </g>
   <g id="PathCollection_5">
    <path clip-path="url(#p6fb6d96e9c)" d="M 92.835333 531.32 
L 92.835333 478.12 
L 92.835333 424.92 
L 92.835333 371.72 
L 92.835333 318.52 
L 92.835333 265.32 
L 92.835333 212.12 
L 92.835333 158.92 
L 92.835333 105.72 
L 92.835333 52.52 
L 87.900267 52.52 
L 87.900267 105.72 
L 87.900267 158.92 
L 87.900267 212.12 
L 87.900267 265.32 
L 87.900267 318.52 
L 87.900267 371.72 
L 87.900267 424.92 
L 87.900267 478.12 
L 87.900267 531.32 
L 68.16 552.6 
L 68.16 557.92 
z
" style="fill:#dedede;"/>
    <path clip-path="url(#p6fb6d96e9c)" d="M 660.368 557.92 
L 660.368 552.6 
L 640.627733 531.32 
L 640.627733 478.12 
L 660.368 456.84 
L 660.368 451.52 
L 635.692667 478.12 
L 635.692667 531.32 
z
" style="fill:#dedede;"/>
   </g>
   <g id="PathCollection_6">
    <path clip-path="url(#p6fb6d96e9c)" d="M 97.7704 531.32 
L 97.7704 478.12 
L 97.7704 424.92 
L 97.7704 371.72 
L 97.7704 318.52 
L 97.7704 265.32 
L 97.7704 212.12 
L 97.7704 158.92 
L 97.7704 105.72 
L 97.7704 52.52 
L 92.835333 52.52 
L 92.835333 105.72 
L 92.835333 158.92 
L 92.835333 212.12 
L 92.835333 265.32 
L 92.835333 318.52 
L 92.835333 371.72 
L 92.835333 424.92 
L 92.835333 478.12 
L 92.835333 531.32 
L 68.16 557.92 
L 68.16 563.24 
z
" style="fill:#d4d4d4;"/>
    <path clip-path="url(#p6fb6d96e9c)" d="M 660.368 563.24 
L 660.368 557.92 
L 635.692667 531.32 
L 635.692667 478.12 
L 660.368 451.52 
L 660.368 446.2 
L 630.7576 478.12 
L 630.7576 531.32 
z
" style="fill:#d4d4d4;"/>
   </g>
   <g id="PathCollection_7">
    <path clip-path="url(#p6fb6d96e9c)" d="M 102.705467 531.32 
L 102.705467 478.12 
L 102.705467 424.92 
L 102.705467 371.72 
L 102.705467 318.52 
L 102.705467 265.32 
L 102.705467 212.12 
L 102.705467 158.92 
L 102.705467 105.72 
L 102.705467 52.52 
L 97.7704 52.52 
L 97.7704 105.72 
L 97.7704 158.92 
L 97.7704 212.12 
L 97.7704 265.32 
L 97.7704 318.52 
L 97.7704 371.72 
L 97.7704 424.92 
L 97.7704 478.12 
L 97.7704 531.32 
L 68.16 563.24 
L 68.16 568.56 
z
" style="fill:#c8c8c8;"/>
    <path clip-path="url(#p6fb6d96e9c)" d="M 660.368 568.56 
L 660.368 563.24 
L 630.7576 531.32 
L 630.7576 478.12 
L 660.368 446.2 
L 660.368 440.88 
L 625.822533 478.12 
L 625.822533 531.32 
z
" style="fill:#c8c8c8;"/>
   </g>
   <g id="PathCollection_8">
    <path clip-path="url(#p6fb6d96e9c)" d="M 107.640533 531.32 
L 107.640533 478.12 
L 107.640533 424.92 
L 107.640533 371.72 
L 107.640533 318.52 
L 107.640533 265.32 
L 107.640533 212.12 
L 107.640533 158.92 
L 107.640533 105.72 
L 107.640533 52.52 
L 102.705467 52.52 
L 102.705467 105.72 
L 102.705467 158.92 
L 102.705467 212.12 
L 102.705467 265.32 
L 102.705467 318.52 
L 102.705467 371.72 
L 102.705467 424.92 
L 102.705467 478.12 
L 102.705467 531.32 
L 68.16 568.56 
L 68.16 573.88 
z
" style="fill:#bebebe;"/>
    <path clip-path="url(#p6fb6d96e9c)" d="M 660.368 573.88 
L 660.368 568.56 
L 625.822533 531.32 
L 625.822533 478.12 
L 660.368 440.88 
L 660.368 435.56 
L 620.887467 478.12 
L 620.887467 531.32 
z
" style="fill:#bebebe;"/>
   </g>
   <g id="PathCollection_9">
    <path clip-path="url(#p6fb6d96e9c)" d="M 112.5756 531.32 
L 112.5756 478.12 
L 112.5756 424.92 
L 112.5756 371.72 
L 112.5756 318.52 
L 112.5756 265.32 
L 112.5756 212.12 
L 112.5756 158.92 
L 112.5756 105.72 
L 112.5756 52.52 
L 107.640533 52.52 
L 107.640533 105.72 
L 107.640533 158.92 
L 107.640533 212.12 
L 107.640533 265.32 
L 107.640533 318.52 
L 107.640533 371.72 
L 107.640533 424.92 
L 107.640533 478.12 
L 107.640533 531.32 
L 68.16 573.88 
L 68.16 579.2 
z
" style="fill:#aeaeae;"/>
    <path clip-path="url(#p6fb6d96e9c)" d="M 660.368 579.2 
L 660.368 573.88 
L 620.887467 531.32 
L 620.887467 478.12 
L 660.368 435.56 
L 660.368 430.24 
L 615.9524 478.12 
L 615.9524 531.32 
z
" style="fill:#aeaeae;"/>
   </g>
   <g id="PathCollection_10">
    <path clip-path="url(#p6fb6d96e9c)" d="M 117.510667 531.32 
L 117.510667 478.12 
L 117.510667 424.92 
L 117.510667 371.72 
L 117.510667 318.52 
L 117.510667 265.32 
L 117.510667 212.12 
L 117.510667 158.92 
L 117.510667 105.72 
L 117.510667 52.52 
L 112.5756 52.52 
L 112.5756 105.72 
L 112.5756 158.92 
L 112.5756 212.12 
L 112.5756 265.32 
L 112.5756 318.52 
L 112.5756 371.72 
L 112.5756 424.92 
L 112.5756 478.12 
L 112.5756 531.32 
L 68.16 579.2 
L 68.16 584.52 
z
" style="fill:#9e9e9e;"/>
    <path clip-path="url(#p6fb6d96e9c)" d="M 265.562667 531.32 
L 364.264 531.32 
L 462.965333 584.52 
L 462.965333 531.32 
L 462.965333 478.12 
L 462.965333 424.92 
L 462.965333 371.72 
L 462.965333 318.52 
L 462.965333 265.32 
L 462.965333 212.12 
L 462.965333 158.92 
L 462.965333 105.72 
L 462.965333 52.52 
L 364.264 52.52 
L 265.562667 52.52 
L 265.562667 105.72 
L 265.562667 158.92 
L 265.562667 212.12 
L 265.562667 265.32 
L 265.562667 318.52 
L 265.562667 371.72 
L 265.562667 424.92 
L 265.562667 478.12 
L 265.562667 531.32 
z
M 265.562667 424.92 
L 265.562667 371.72 
L 364.264 318.52 
L 462.965333 371.72 
L 462.965333 424.92 
L 364.264 478.12 
z
" style="fill:#9e9e9e;"/>
    <path clip-path="url(#p6fb6d96e9c)" d="M 660.368 584.52 
L 660.368 579.2 
L 615.9524 531.32 
L 615.9524 478.12 
L 660.368 430.24 
L 660.368 424.92 
L 660.368 371.72 
L 660.368 318.52 
L 660.368 265.32 
L 660.368 212.12 
L 660.368 158.92 
L 660.368 105.72 
L 660.368 52.52 
L 660.368 105.72 
L 660.368 158.92 
L 660.368 212.12 
L 660.368 265.32 
L 660.368 318.52 
L 660.368 371.72 
L 660.368 424.92 
L 611.017333 478.12 
L 611.017333 531.32 
L 660.368 584.52 
z
" style="fill:#9e9e9e;"/>
   </g>
   <g id="PathCollection_11">
    <path clip-path="url(#p6fb6d96e9c)" d="M 122.445733 531.32 
L 122.445733 478.12 
L 122.445733 424.92 
L 122.445733 371.72 
L 122.445733 318.52 
L 122.445733 265.32 
L 122.445733 212.12 
L 122.445733 158.92 
L 122.445733 105.72 
L 122.445733 52.52 
L 117.510667 52.52 
L 117.510667 105.72 
L 117.510667 158.92 
L 117.510667 212.12 
L 117.510667 265.32 
L 117.510667 318.52 
L 117.510667 371.72 
L 117.510667 424.92 
L 117.510667 478.12 
L 117.510667 531.32 
L 68.16 584.52 
L 78.030133 584.52 
z
" style="fill:#8f8f8f;"/>
    <path clip-path="url(#p6fb6d96e9c)" d="M 265.562667 536.64 
L 364.264 536.64 
L 453.0952 584.52 
L 462.965333 584.52 
L 364.264 531.32 
L 265.562667 531.32 
L 265.562667 478.12 
L 265.562667 424.92 
L 265.562667 371.72 
L 265.562667 318.52 
L 265.562667 265.32 
L 265.562667 212.12 
L 265.562667 158.92 
L 265.562667 105.72 
L 265.562667 52.52 
L 255.692533 52.52 
L 255.692533 105.72 
L 255.692533 158.92 
L 255.692533 212.12 
L 255.692533 265.32 
L 255.692533 318.52 
L 255.692533 371.72 
L 255.692533 424.92 
L 255.692533 478.12 
L 255.692533 531.32 
z
" style="fill:#8f8f8f;"/>
    <path clip-path="url(#p6fb6d96e9c)" d="M 472.835467 531.32 
L 472.835467 478.12 
L 472.835467 424.92 
L 472.835467 371.72 
L 472.835467 318.52 
L 472.835467 265.32 
L 472.835467 212.12 
L 472.835467 158.92 
L 472.835467 105.72 
L 472.835467 52.52 
L 462.965333 52.52 
L 462.965333 105.72 
L 462.965333 158.92 
L 462.965333 212.12 
L 462.965333 265.32 
L 462.965333 318.52 
L 462.965333 371.72 
L 462.965333 424.92 
L 462.965333 478.12 
L 462.965333 531.32 
L 462.965333 584.52 
L 472.835467 584.52 
z
" style="fill:#8f8f8f;"/>
    <path clip-path="url(#p6fb6d96e9c)" d="M 611.017333 531.32 
L 611.017333 478.12 
L 660.368 424.92 
L 660.368 371.72 
L 660.368 318.52 
L 660.368 265.32 
L 660.368 212.12 
L 660.368 158.92 
L 660.368 105.72 
L 660.368 52.52 
L 650.497867 52.52 
L 650.497867 105.72 
L 650.497867 158.92 
L 650.497867 212.12 
L 650.497867 265.32 
L 650.497867 318.52 
L 650.497867 371.72 
L 650.497867 424.92 
L 606.082267 478.12 
L 606.082267 531.32 
L 650.497867 584.52 
L 660.368 584.52 
z
" style="fill:#8f8f8f;"/>
    <path clip-path="url(#p6fb6d96e9c)" d="M 364.264 478.12 
L 462.965333 424.92 
L 462.965333 371.72 
L 364.264 318.52 
L 265.562667 371.72 
L 265.562667 424.92 
z
M 275.4328 424.92 
L 275.4328 371.72 
L 364.264 323.84 
L 453.0952 371.72 
L 453.0952 424.92 
L 364.264 472.8 
z
" style="fill:#8f8f8f;"/>
   </g>
   <g id="PathCollection_12">
    <path clip-path="url(#p6fb6d96e9c)" d="M 127.3808 531.32 
L 127.3808 478.12 
L 127.3808 424.92 
L 127.3808 371.72 
L 127.3808 318.52 
L 127.3808 265.32 
L 127.3808 212.12 
L 127.3808 158.92 
L 127.3808 105.72 
L 127.3808 52.52 
L 122.445733 52.52 
L 122.445733 105.72 
L 122.445733 158.92 
L 122.445733 212.12 
L 122.445733 265.32 
L 122.445733 318.52 
L 122.445733 371.72 
L 122.445733 424.92 
L 122.445733 478.12 
L 122.445733 531.32 
L 78.030133 584.52 
L 87.900267 584.52 
z
" style="fill:#818181;"/>
    <path clip-path="url(#p6fb6d96e9c)" d="M 265.562667 541.96 
L 364.264 541.96 
L 443.225067 584.52 
L 453.0952 584.52 
L 364.264 536.64 
L 265.562667 536.64 
L 255.692533 531.32 
L 255.692533 478.12 
L 255.692533 424.92 
L 255.692533 371.72 
L 255.692533 318.52 
L 255.692533 265.32 
L 255.692533 212.12 
L 255.692533 158.92 
L 255.692533 105.72 
L 255.692533 52.52 
L 245.8224 52.52 
L 245.8224 105.72 
L 245.8224 158.92 
L 245.8224 212.12 
L 245.8224 265.32 
L 245.8224 318.52 
L 245.8224 371.72 
L 245.8224 424.92 
L 245.8224 478.12 
L 245.8224 531.32 
z
" style="fill:#818181;"/>
    <path clip-path="url(#p6fb6d96e9c)" d="M 482.7056 531.32 
L 482.7056 478.12 
L 482.7056 424.92 
L 482.7056 371.72 
L 482.7056 318.52 
L 482.7056 265.32 
L 482.7056 212.12 
L 482.7056 158.92 
L 482.7056 105.72 
L 482.7056 52.52 
L 472.835467 52.52 
L 472.835467 105.72 
L 472.835467 158.92 
L 472.835467 212.12 
L 472.835467 265.32 
L 472.835467 318.52 
L 472.835467 371.72 
L 472.835467 424.92 
L 472.835467 478.12 
L 472.835467 531.32 
L 472.835467 584.52 
L 482.7056 584.52 
z
" style="fill:#818181;"/>
    <path clip-path="url(#p6fb6d96e9c)" d="M 606.082267 531.32 
L 606.082267 478.12 
L 650.497867 424.92 
L 650.497867 371.72 
L 650.497867 318.52 
L 650.497867 265.32 
L 650.497867 212.12 
L 650.497867 158.92 
L 650.497867 105.72 
L 650.497867 52.52 
L 640.627733 52.52 
L 640.627733 105.72 
L 640.627733 158.92 
L 640.627733 212.12 
L 640.627733 265.32 
L 640.627733 318.52 
L 640.627733 371.72 
L 640.627733 424.92 
L 601.1472 478.12 
L 601.1472 531.32 
L 640.627733 584.52 
L 650.497867 584.52 
z
" style="fill:#818181;"/>
    <path clip-path="url(#p6fb6d96e9c)" d="M 364.264 472.8 
L 453.0952 424.92 
L 453.0952 371.72 
L 364.264 323.84 
L 275.4328 371.72 
L 275.4328 424.92 
z
M 285.302933 424.92 
L 285.302933 371.72 
L 364.264 329.16 
L 443.225067 371.72 
L 443.225067 424.92 
L 364.264 467.48 
z
" style="fill:#818181;"/>
   </g>
   <g id="PathCollection_13">
    <path clip-path="url(#p6fb6d96e9c)" d="M 132.315867 531.32 
L 132.315867 478.12 
L 132.315867 424.92 
L 132.315867 371.72 
L 132.315867 318.52 
L 132.315867 265.32 
L 132.315867 212.12 
L 132.315867 158.92 
L 132.315867 105.72 
L 132.315867 52.52 
L 127.3808 52.52 
L 127.3808 105.72 
L 127.3808 158.92 
L 127.3808 212.12 
L 127.3808 265.32 
L 127.3808 318.52 
L 127.3808 371.72 
L 127.3808 424.92 
L 127.3808 478.12 
L 127.3808 531.32 
L 87.900267 584.52 
L 97.7704 584.52 
z
" style="fill:#727272;"/>
    <path clip-path="url(#p6fb6d96e9c)" d="M 265.562667 547.28 
L 364.264 547.28 
L 433.354933 584.52 
L 443.225067 584.52 
L 364.264 541.96 
L 265.562667 541.96 
L 245.8224 531.32 
L 245.8224 478.12 
L 245.8224 424.92 
L 245.8224 371.72 
L 245.8224 318.52 
L 245.8224 265.32 
L 245.8224 212.12 
L 245.8224 158.92 
L 245.8224 105.72 
L 245.8224 52.52 
L 235.952267 52.52 
L 235.952267 105.72 
L 235.952267 158.92 
L 235.952267 212.12 
L 235.952267 265.32 
L 235.952267 318.52 
L 235.952267 371.72 
L 235.952267 424.92 
L 235.952267 478.12 
L 235.952267 531.32 
z
" style="fill:#727272;"/>
    <path clip-path="url(#p6fb6d96e9c)" d="M 492.575733 531.32 
L 492.575733 478.12 
L 492.575733 424.92 
L 492.575733 371.72 
L 492.575733 318.52 
L 492.575733 265.32 
L 492.575733 212.12 
L 492.575733 158.92 
L 492.575733 105.72 
L 492.575733 52.52 
L 482.7056 52.52 
L 482.7056 105.72 
L 482.7056 158.92 
L 482.7056 212.12 
L 482.7056 265.32 
L 482.7056 318.52 
L 482.7056 371.72 
L 482.7056 424.92 
L 482.7056 478.12 
L 482.7056 531.32 
L 482.7056 584.52 
L 492.575733 584.52 
z
" style="fill:#727272;"/>
    <path clip-path="url(#p6fb6d96e9c)" d="M 601.1472 531.32 
L 601.1472 478.12 
L 640.627733 424.92 
L 640.627733 371.72 
L 640.627733 318.52 
L 640.627733 265.32 
L 640.627733 212.12 
L 640.627733 158.92 
L 640.627733 105.72 
L 640.627733 52.52 
L 630.7576 52.52 
L 630.7576 105.72 
L 630.7576 158.92 
L 630.7576 212.12 
L 630.7576 265.32 
L 630.7576 318.52 
L 630.7576 371.72 
L 630.7576 424.92 
L 596.212133 478.12 
L 596.212133 531.32 
L 630.7576 584.52 
L 640.627733 584.52 
z
" style="fill:#727272;"/>
    <path clip-path="url(#p6fb6d96e9c)" d="M 364.264 467.48 
L 443.225067 424.92 
L 443.225067 371.72 
L 364.264 329.16 
L 285.302933 371.72 
L 285.302933 424.92 
z
M 295.173067 424.92 
L 295.173067 371.72 
L 364.264 334.48 
L 433.354933 371.72 
L 433.354933 424.92 
L 364.264 462.16 
z
" style="fill:#727272;"/>
   </g>
   <g id="PathCollection_14">
    <path clip-path="url(#p6fb6d96e9c)" d="M 137.250933 531.32 
L 137.250933 478.12 
L 137.250933 424.92 
L 137.250933 371.72 
L 137.250933 318.52 
L 137.250933 265.32 
L 137.250933 212.12 
L 137.250933 158.92 
L 137.250933 105.72 
L 137.250933 52.52 
L 132.315867 52.52 
L 132.315867 105.72 
L 132.315867 158.92 
L 132.315867 212.12 
L 132.315867 265.32 
L 132.315867 318.52 
L 132.315867 371.72 
L 132.315867 424.92 
L 132.315867 478.12 
L 132.315867 531.32 
L 97.7704 584.52 
L 107.640533 584.52 
z
" style="fill:#666666;"/>
    <path clip-path="url(#p6fb6d96e9c)" d="M 265.562667 552.6 
L 364.264 552.6 
L 423.4848 584.52 
L 433.354933 584.52 
L 364.264 547.28 
L 265.562667 547.28 
L 235.952267 531.32 
L 235.952267 478.12 
L 235.952267 424.92 
L 235.952267 371.72 
L 235.952267 318.52 
L 235.952267 265.32 
L 235.952267 212.12 
L 235.952267 158.92 
L 235.952267 105.72 
L 235.952267 52.52 
L 226.082133 52.52 
L 226.082133 105.72 
L 226.082133 158.92 
L 226.082133 212.12 
L 226.082133 265.32 
L 226.082133 318.52 
L 226.082133 371.72 
L 226.082133 424.92 
L 226.082133 478.12 
L 226.082133 531.32 
z
" style="fill:#666666;"/>
    <path clip-path="url(#p6fb6d96e9c)" d="M 502.445867 531.32 
L 502.445867 478.12 
L 502.445867 424.92 
L 502.445867 371.72 
L 502.445867 318.52 
L 502.445867 265.32 
L 502.445867 212.12 
L 502.445867 158.92 
L 502.445867 105.72 
L 502.445867 52.52 
L 492.575733 52.52 
L 492.575733 105.72 
L 492.575733 158.92 
L 492.575733 212.12 
L 492.575733 265.32 
L 492.575733 318.52 
L 492.575733 371.72 
L 492.575733 424.92 
L 492.575733 478.12 
L 492.575733 531.32 
L 492.575733 584.52 
L 502.445867 584.52 
z
" style="fill:#666666;"/>
    <path clip-path="url(#p6fb6d96e9c)" d="M 596.212133 531.32 
L 596.212133 478.12 
L 630.7576 424.92 
L 630.7576 371.72 
L 630.7576 318.52 
L 630.7576 265.32 
L 630.7576 212.12 
L 630.7576 158.92 
L 630.7576 105.72 
L 630.7576 52.52 
L 620.887467 52.52 
L 620.887467 105.72 
L 620.887467 158.92 
L 620.887467 212.12 
L 620.887467 265.32 
L 620.887467 318.52 
L 620.887467 371.72 
L 620.887467 424.92 
L 591.277067 478.12 
L 591.277067 531.32 
L 620.887467 584.52 
L 630.7576 584.52 
z
" style="fill:#666666;"/>
    <path clip-path="url(#p6fb6d96e9c)" d="M 364.264 462.16 
L 433.354933 424.92 
L 433.354933 371.72 
L 364.264 334.48 
L 295.173067 371.72 
L 295.173067 424.92 
z
M 305.0432 424.92 
L 305.0432 371.72 
L 364.264 339.8 
L 423.4848 371.72 
L 423.4848 424.92 
L 364.264 456.84 
z
" style="fill:#666666;"/>
   </g>
   <g id="PathCollection_15">
    <path clip-path="url(#p6fb6d96e9c)" d="M 142.186 531.32 
L 142.186 478.12 
L 142.186 424.92 
L 142.186 371.72 
L 142.186 318.52 
L 142.186 265.32 
L 142.186 212.12 
L 142.186 158.92 
L 142.186 105.72 
L 142.186 52.52 
L 137.250933 52.52 
L 137.250933 105.72 
L 137.250933 158.92 
L 137.250933 212.12 
L 137.250933 265.32 
L 137.250933 318.52 
L 137.250933 371.72 
L 137.250933 424.92 
L 137.250933 478.12 
L 137.250933 531.32 
L 107.640533 584.52 
L 117.510667 584.52 
z
" style="fill:#585858;"/>
    <path clip-path="url(#p6fb6d96e9c)" d="M 265.562667 557.92 
L 364.264 557.92 
L 413.614667 584.52 
L 423.4848 584.52 
L 364.264 552.6 
L 265.562667 552.6 
L 226.082133 531.32 
L 226.082133 478.12 
L 226.082133 424.92 
L 226.082133 371.72 
L 226.082133 318.52 
L 226.082133 265.32 
L 226.082133 212.12 
L 226.082133 158.92 
L 226.082133 105.72 
L 226.082133 52.52 
L 216.212 52.52 
L 216.212 105.72 
L 216.212 158.92 
L 216.212 212.12 
L 216.212 265.32 
L 216.212 318.52 
L 216.212 371.72 
L 216.212 424.92 
L 216.212 478.12 
L 216.212 531.32 
z
" style="fill:#585858;"/>
    <path clip-path="url(#p6fb6d96e9c)" d="M 512.316 531.32 
L 512.316 478.12 
L 512.316 424.92 
L 512.316 371.72 
L 512.316 318.52 
L 512.316 265.32 
L 512.316 212.12 
L 512.316 158.92 
L 512.316 105.72 
L 512.316 52.52 
L 502.445867 52.52 
L 502.445867 105.72 
L 502.445867 158.92 
L 502.445867 212.12 
L 502.445867 265.32 
L 502.445867 318.52 
L 502.445867 371.72 
L 502.445867 424.92 
L 502.445867 478.12 
L 502.445867 531.32 
L 502.445867 584.52 
L 512.316 584.52 
z
" style="fill:#585858;"/>
    <path clip-path="url(#p6fb6d96e9c)" d="M 591.277067 531.32 
L 591.277067 478.12 
L 620.887467 424.92 
L 620.887467 371.72 
L 620.887467 318.52 
L 620.887467 265.32 
L 620.887467 212.12 
L 620.887467 158.92 
L 620.887467 105.72 
L 620.887467 52.52 
L 611.017333 52.52 
L 611.017333 105.72 
L 611.017333 158.92 
L 611.017333 212.12 
L 611.017333 265.32 
L 611.017333 318.52 
L 611.017333 371.72 
L 611.017333 424.92 
L 586.342 478.12 
L 586.342 531.32 
L 611.017333 584.52 
L 620.887467 584.52 
z
" style="fill:#585858;"/>
    <path clip-path="url(#p6fb6d96e9c)" d="M 364.264 456.84 
L 423.4848 424.92 
L 423.4848 371.72 
L 364.264 339.8 
L 305.0432 371.72 
L 305.0432 424.92 
z
M 314.913333 424.92 
L 314.913333 371.72 
L 364.264 345.12 
L 413.614667 371.72 
L 413.614667 424.92 
L 364.264 451.52 
z
" style="fill:#585858;"/>
   </g>
   <g id="PathCollection_16">
    <path clip-path="url(#p6fb6d96e9c)" d="M 147.121067 531.32 
L 147.121067 478.12 
L 147.121067 424.92 
L 147.121067 371.72 
L 147.121067 318.52 
L 147.121067 265.32 
L 147.121067 212.12 
L 147.121067 158.92 
L 147.121067 105.72 
L 147.121067 52.52 
L 142.186 52.52 
L 142.186 105.72 
L 142.186 158.92 
L 142.186 212.12 
L 142.186 265.32 
L 142.186 318.52 
L 142.186 371.72 
L 142.186 424.92 
L 142.186 478.12 
L 142.186 531.32 
L 117.510667 584.52 
L 127.3808 584.52 
z
" style="fill:#484848;"/>
    <path clip-path="url(#p6fb6d96e9c)" d="M 265.562667 563.24 
L 364.264 563.24 
L 403.744533 584.52 
L 413.614667 584.52 
L 364.264 557.92 
L 265.562667 557.92 
L 216.212 531.32 
L 216.212 478.12 
L 216.212 424.92 
L 216.212 371.72 
L 216.212 318.52 
L 216.212 265.32 
L 216.212 212.12 
L 216.212 158.92 
L 216.212 105.72 
L 216.212 52.52 
L 206.341867 52.52 
L 206.341867 105.72 
L 206.341867 158.92 
L 206.341867 212.12 
L 206.341867 265.32 
L 206.341867 318.52 
L 206.341867 371.72 
L 206.341867 424.92 
L 206.341867 478.12 
L 206.341867 531.32 
z
" style="fill:#484848;"/>
    <path clip-path="url(#p6fb6d96e9c)" d="M 522.186133 531.32 
L 522.186133 478.12 
L 522.186133 424.92 
L 522.186133 371.72 
L 522.186133 318.52 
L 522.186133 265.32 
L 522.186133 212.12 
L 522.186133 158.92 
L 522.186133 105.72 
L 522.186133 52.52 
L 512.316 52.52 
L 512.316 105.72 
L 512.316 158.92 
L 512.316 212.12 
L 512.316 265.32 
L 512.316 318.52 
L 512.316 371.72 
L 512.316 424.92 
L 512.316 478.12 
L 512.316 531.32 
L 512.316 584.52 
L 522.186133 584.52 
z
" style="fill:#484848;"/>
    <path clip-path="url(#p6fb6d96e9c)" d="M 586.342 531.32 
L 586.342 478.12 
L 611.017333 424.92 
L 611.017333 371.72 
L 611.017333 318.52 
L 611.017333 265.32 
L 611.017333 212.12 
L 611.017333 158.92 
L 611.017333 105.72 
L 611.017333 52.52 
L 601.1472 52.52 
L 601.1472 105.72 
L 601.1472 158.92 
L 601.1472 212.12 
L 601.1472 265.32 
L 601.1472 318.52 
L 601.1472 371.72 
L 601.1472 424.92 
L 581.406933 478.12 
L 581.406933 531.32 
L 601.1472 584.52 
L 611.017333 584.52 
z
" style="fill:#484848;"/>
    <path clip-path="url(#p6fb6d96e9c)" d="M 364.264 451.52 
L 413.614667 424.92 
L 413.614667 371.72 
L 364.264 345.12 
L 314.913333 371.72 
L 314.913333 424.92 
z
M 324.783467 424.92 
L 324.783467 371.72 
L 364.264 350.44 
L 403.744533 371.72 
L 403.744533 424.92 
L 364.264 446.2 
z
" style="fill:#484848;"/>
   </g>
   <g id="PathCollection_17">
    <path clip-path="url(#p6fb6d96e9c)" d="M 152.056133 531.32 
L 152.056133 478.12 
L 152.056133 424.92 
L 152.056133 371.72 
L 152.056133 318.52 
L 152.056133 265.32 
L 152.056133 212.12 
L 152.056133 158.92 
L 152.056133 105.72 
L 152.056133 52.52 
L 147.121067 52.52 
L 147.121067 105.72 
L 147.121067 158.92 
L 147.121067 212.12 
L 147.121067 265.32 
L 147.121067 318.52 
L 147.121067 371.72 
L 147.121067 424.92 
L 147.121067 478.12 
L 147.121067 531.32 
L 127.3808 584.52 
L 137.250933 584.52 
z
" style="fill:#363636;"/>
    <path clip-path="url(#p6fb6d96e9c)" d="M 265.562667 568.56 
L 364.264 568.56 
L 393.8744 584.52 
L 403.744533 584.52 
L 364.264 563.24 
L 265.562667 563.24 
L 206.341867 531.32 
L 206.341867 478.12 
L 206.341867 424.92 
L 206.341867 371.72 
L 206.341867 318.52 
L 206.341867 265.32 
L 206.341867 212.12 
L 206.341867 158.92 
L 206.341867 105.72 
L 206.341867 52.52 
L 196.471733 52.52 
L 196.471733 105.72 
L 196.471733 158.92 
L 196.471733 212.12 
L 196.471733 265.32 
L 196.471733 318.52 
L 196.471733 371.72 
L 196.471733 424.92 
L 196.471733 478.12 
L 196.471733 531.32 
z
" style="fill:#363636;"/>
    <path clip-path="url(#p6fb6d96e9c)" d="M 532.056267 531.32 
L 532.056267 478.12 
L 532.056267 424.92 
L 532.056267 371.72 
L 532.056267 318.52 
L 532.056267 265.32 
L 532.056267 212.12 
L 532.056267 158.92 
L 532.056267 105.72 
L 532.056267 52.52 
L 522.186133 52.52 
L 522.186133 105.72 
L 522.186133 158.92 
L 522.186133 212.12 
L 522.186133 265.32 
L 522.186133 318.52 
L 522.186133 371.72 
L 522.186133 424.92 
L 522.186133 478.12 
L 522.186133 531.32 
L 522.186133 584.52 
L 532.056267 584.52 
z
" style="fill:#363636;"/>
    <path clip-path="url(#p6fb6d96e9c)" d="M 581.406933 531.32 
L 581.406933 478.12 
L 601.1472 424.92 
L 601.1472 371.72 
L 601.1472 318.52 
L 601.1472 265.32 
L 601.1472 212.12 
L 601.1472 158.92 
L 601.1472 105.72 
L 601.1472 52.52 
L 591.277067 52.52 
L 591.277067 105.72 
L 591.277067 158.92 
L 591.277067 212.12 
L 591.277067 265.32 
L 591.277067 318.52 
L 591.277067 371.72 
L 591.277067 424.92 
L 576.471867 478.12 
L 576.471867 531.32 
L 591.277067 584.52 
L 601.1472 584.52 
z
" style="fill:#363636;"/>
    <path clip-path="url(#p6fb6d96e9c)" d="M 364.264 446.2 
L 403.744533 424.92 
L 403.744533 371.72 
L 364.264 350.44 
L 324.783467 371.72 
L 324.783467 424.92 
z
M 334.6536 424.92 
L 334.6536 371.72 
L 364.264 355.76 
L 393.8744 371.72 
L 393.8744 424.92 
L 364.264 440.88 
z
" style="fill:#363636;"/>
   </g>
   <g id="PathCollection_18">
    <path clip-path="url(#p6fb6d96e9c)" d="M 156.9912 531.32 
L 156.9912 478.12 
L 156.9912 424.92 
L 156.9912 371.72 
L 156.9912 318.52 
L 156.9912 265.32 
L 156.9912 212.12 
L 156.9912 158.92 
L 156.9912 105.72 
L 156.9912 52.52 
L 152.056133 52.52 
L 152.056133 105.72 
L 152.056133 158.92 
L 152.056133 212.12 
L 152.056133 265.32 
L 152.056133 318.52 
L 152.056133 371.72 
L 152.056133 424.92 
L 152.056133 478.12 
L 152.056133 531.32 
L 137.250933 584.52 
L 147.121067 584.52 
z
" style="fill:#252525;"/>
    <path clip-path="url(#p6fb6d96e9c)" d="M 265.562667 573.88 
L 364.264 573.88 
L 384.004267 584.52 
L 393.8744 584.52 
L 364.264 568.56 
L 265.562667 568.56 
L 196.471733 531.32 
L 196.471733 478.12 
L 196.471733 424.92 
L 196.471733 371.72 
L 196.471733 318.52 
L 196.471733 265.32 
L 196.471733 212.12 
L 196.471733 158.92 
L 196.471733 105.72 
L 196.471733 52.52 
L 186.6016 52.52 
L 186.6016 105.72 
L 186.6016 158.92 
L 186.6016 212.12 
L 186.6016 265.32 
L 186.6016 318.52 
L 186.6016 371.72 
L 186.6016 424.92 
L 186.6016 478.12 
L 186.6016 531.32 
z
" style="fill:#252525;"/>
    <path clip-path="url(#p6fb6d96e9c)" d="M 541.9264 531.32 
L 541.9264 478.12 
L 541.9264 424.92 
L 541.9264 371.72 
L 541.9264 318.52 
L 541.9264 265.32 
L 541.9264 212.12 
L 541.9264 158.92 
L 541.9264 105.72 
L 541.9264 52.52 
L 532.056267 52.52 
L 532.056267 105.72 
L 532.056267 158.92 
L 532.056267 212.12 
L 532.056267 265.32 
L 532.056267 318.52 
L 532.056267 371.72 
L 532.056267 424.92 
L 532.056267 478.12 
L 532.056267 531.32 
L 532.056267 584.52 
L 541.9264 584.52 
z
" style="fill:#252525;"/>
    <path clip-path="url(#p6fb6d96e9c)" d="M 576.471867 531.32 
L 576.471867 478.12 
L 591.277067 424.92 
L 591.277067 371.72 
L 591.277067 318.52 
L 591.277067 265.32 
L 591.277067 212.12 
L 591.277067 158.92 
L 591.277067 105.72 
L 591.277067 52.52 
L 581.406933 52.52 
L 581.406933 105.72 
L 581.406933 158.92 
L 581.406933 212.12 
L 581.406933 265.32 
L 581.406933 318.52 
L 581.406933 371.72 
L 581.406933 424.92 
L 571.5368 478.12 
L 571.5368 531.32 
L 581.406933 584.52 
L 591.277067 584.52 
z
" style="fill:#252525;"/>
    <path clip-path="url(#p6fb6d96e9c)" d="M 364.264 440.88 
L 393.8744 424.92 
L 393.8744 371.72 
L 364.264 355.76 
L 334.6536 371.72 
L 334.6536 424.92 
z
M 344.523733 424.92 
L 344.523733 371.72 
L 364.264 361.08 
L 384.004267 371.72 
L 384.004267 424.92 
L 364.264 435.56 
z
" style="fill:#252525;"/>
   </g>
   <g id="PathCollection_19">
    <path clip-path="url(#p6fb6d96e9c)" d="M 161.926267 531.32 
L 161.926267 478.12 
L 161.926267 424.92 
L 161.926267 371.72 
L 161.926267 318.52 
L 161.926267 265.32 
L 161.926267 212.12 
L 161.926267 158.92 
L 161.926267 105.72 
L 161.926267 52.52 
L 156.9912 52.52 
L 156.9912 105.72 
L 156.9912 158.92 
L 156.9912 212.12 
L 156.9912 265.32 
L 156.9912 318.52 
L 156.9912 371.72 
L 156.9912 424.92 
L 156.9912 478.12 
L 156.9912 531.32 
L 147.121067 584.52 
L 156.9912 584.52 
z
" style="fill:#161616;"/>
    <path clip-path="url(#p6fb6d96e9c)" d="M 265.562667 579.2 
L 364.264 579.2 
L 374.134133 584.52 
L 384.004267 584.52 
L 364.264 573.88 
L 265.562667 573.88 
L 186.6016 531.32 
L 186.6016 478.12 
L 186.6016 424.92 
L 186.6016 371.72 
L 186.6016 318.52 
L 186.6016 265.32 
L 186.6016 212.12 
L 186.6016 158.92 
L 186.6016 105.72 
L 186.6016 52.52 
L 176.731467 52.52 
L 176.731467 105.72 
L 176.731467 158.92 
L 176.731467 212.12 
L 176.731467 265.32 
L 176.731467 318.52 
L 176.731467 371.72 
L 176.731467 424.92 
L 176.731467 478.12 
L 176.731467 531.32 
z
" style="fill:#161616;"/>
    <path clip-path="url(#p6fb6d96e9c)" d="M 551.796533 531.32 
L 551.796533 478.12 
L 551.796533 424.92 
L 551.796533 371.72 
L 551.796533 318.52 
L 551.796533 265.32 
L 551.796533 212.12 
L 551.796533 158.92 
L 551.796533 105.72 
L 551.796533 52.52 
L 541.9264 52.52 
L 541.9264 105.72 
L 541.9264 158.92 
L 541.9264 212.12 
L 541.9264 265.32 
L 541.9264 318.52 
L 541.9264 371.72 
L 541.9264 424.92 
L 541.9264 478.12 
L 541.9264 531.32 
L 541.9264 584.52 
L 551.796533 584.52 
z
" style="fill:#161616;"/>
    <path clip-path="url(#p6fb6d96e9c)" d="M 571.5368 531.32 
L 571.5368 478.12 
L 581.406933 424.92 
L 581.406933 371.72 
L 581.406933 318.52 
L 581.406933 265.32 
L 581.406933 212.12 
L 581.406933 158.92 
L 581.406933 105.72 
L 581.406933 52.52 
L 571.5368 52.52 
L 571.5368 105.72 
L 571.5368 158.92 
L 571.5368 212.12 
L 571.5368 265.32 
L 571.5368 318.52 
L 571.5368 371.72 
L 571.5368 424.92 
L 566.601733 478.12 
L 566.601733 531.32 
L 571.5368 584.52 
L 581.406933 584.52 
z
" style="fill:#161616;"/>
    <path clip-path="url(#p6fb6d96e9c)" d="M 364.264 435.56 
L 384.004267 424.92 
L 384.004267 371.72 
L 364.264 361.08 
L 344.523733 371.72 
L 344.523733 424.92 
z
M 354.393867 424.92 
L 354.393867 371.72 
L 364.264 366.4 
L 374.134133 371.72 
L 374.134133 424.92 
L 364.264 430.24 
z
" style="fill:#161616;"/>
   </g>
   <g id="PathCollection_20">
    <path clip-path="url(#p6fb6d96e9c)" d="M 166.861333 584.52 
L 265.562667 584.52 
L 364.264 584.52 
L 374.134133 584.52 
L 364.264 579.2 
L 265.562667 579.2 
L 176.731467 531.32 
L 176.731467 478.12 
L 176.731467 424.92 
L 176.731467 371.72 
L 176.731467 318.52 
L 176.731467 265.32 
L 176.731467 212.12 
L 176.731467 158.92 
L 176.731467 105.72 
L 176.731467 52.52 
L 166.861333 52.52 
L 161.926267 52.52 
L 161.926267 105.72 
L 161.926267 158.92 
L 161.926267 212.12 
L 161.926267 265.32 
L 161.926267 318.52 
L 161.926267 371.72 
L 161.926267 424.92 
L 161.926267 478.12 
L 161.926267 531.32 
L 156.9912 584.52 
z
" style="fill:#070707;"/>
    <path clip-path="url(#p6fb6d96e9c)" d="M 561.666667 584.52 
L 571.5368 584.52 
L 566.601733 531.32 
L 566.601733 478.12 
L 571.5368 424.92 
L 571.5368 371.72 
L 571.5368 318.52 
L 571.5368 265.32 
L 571.5368 212.12 
L 571.5368 158.92 
L 571.5368 105.72 
L 571.5368 52.52 
L 561.666667 52.52 
L 551.796533 52.52 
L 551.796533 105.72 
L 551.796533 158.92 
L 551.796533 212.12 
L 551.796533 265.32 
L 551.796533 318.52 
L 551.796533 371.72 
L 551.796533 424.92 
L 551.796533 478.12 
L 551.796533 531.32 
L 551.796533 584.52 
z
" style="fill:#070707;"/>
    <path clip-path="url(#p6fb6d96e9c)" d="M 364.264 430.24 
L 374.134133 424.92 
L 374.134133 371.72 
L 364.264 366.4 
L 354.393867 371.72 
L 354.393867 424.92 
z
" style="fill:#070707;"/>
   </g>
   <g id="matplotlib.axis_1">
    <g id="xtick_1">
     <g id="line2d_1">
      <defs>
       <path d="M 0 0 
L 0 3.5 
" id="me3baac11f4" style="stroke:#000000;stroke-width:0.8;"/>
      </defs>
      <g>
       <use style="stroke:#000000;stroke-width:0.8;" x="68.16" xlink:href="#me3baac11f4" y="584.52"/>
      </g>
     </g>
     <g id="text_1">
      <!-- 40 -->
      <defs>
       <path d="M 34.90625 24.703125 
L 34.90625 63.484375 
L 10.015625 24.703125 
z
M 56.390625 0 
L 23.1875 0 
L 23.1875 5.171875 
L 34.90625 5.171875 
L 34.90625 19.484375 
L 3.078125 19.484375 
L 3.078125 24.8125 
L 35.015625 74.21875 
L 44.671875 74.21875 
L 44.671875 24.703125 
L 58.59375 24.703125 
L 58.59375 19.484375 
L 44.671875 19.484375 
L 44.671875 5.171875 
L 56.390625 5.171875 
z
" id="DejaVuSerif-34"/>
       <path d="M 31.78125 3.421875 
Q 39.265625 3.421875 42.96875 11.625 
Q 46.6875 19.828125 46.6875 36.375 
Q 46.6875 52.984375 42.96875 61.1875 
Q 39.265625 69.390625 31.78125 69.390625 
Q 24.3125 69.390625 20.59375 61.1875 
Q 16.890625 52.984375 16.890625 36.375 
Q 16.890625 19.828125 20.59375 11.625 
Q 24.3125 3.421875 31.78125 3.421875 
z
M 31.78125 -1.421875 
Q 19.921875 -1.421875 13.25 8.53125 
Q 6.59375 18.5 6.59375 36.375 
Q 6.59375 54.296875 13.25 64.25 
Q 19.921875 74.21875 31.78125 74.21875 
Q 43.703125 74.21875 50.34375 64.25 
Q 56.984375 54.296875 56.984375 36.375 
Q 56.984375 18.5 50.34375 8.53125 
Q 43.703125 -1.421875 31.78125 -1.421875 
z
" id="DejaVuSerif-30"/>
      </defs>
      <g transform="translate(63.744425 596.793316)scale(0.0694 -0.0694)">
       <use xlink:href="#DejaVuSerif-34"/>
       <use x="63.623047" xlink:href="#DejaVuSerif-30"/>
      </g>
     </g>
    </g>
    <g id="xtick_2">
     <g id="line2d_2">
      <g>
       <use style="stroke:#000000;stroke-width:0.8;" x="166.861333" xlink:href="#me3baac11f4" y="584.52"/>
      </g>
     </g>
     <g id="text_2">
      <!-- 45 -->
      <defs>
       <path d="M 50.296875 72.90625 
L 50.296875 64.890625 
L 16.890625 64.890625 
L 16.890625 44 
Q 19.4375 45.75 22.828125 46.625 
Q 26.21875 47.515625 30.421875 47.515625 
Q 42.234375 47.515625 49.0625 40.96875 
Q 55.90625 34.421875 55.90625 23.09375 
Q 55.90625 11.53125 49 5.046875 
Q 42.09375 -1.421875 29.59375 -1.421875 
Q 24.5625 -1.421875 19.28125 -0.1875 
Q 14.015625 1.03125 8.5 3.515625 
L 8.5 17.671875 
L 14.015625 17.671875 
Q 14.453125 10.75 18.421875 7.078125 
Q 22.40625 3.421875 29.59375 3.421875 
Q 37.3125 3.421875 41.453125 8.5 
Q 45.609375 13.578125 45.609375 23.09375 
Q 45.609375 32.5625 41.484375 37.609375 
Q 37.359375 42.671875 29.59375 42.671875 
Q 25.203125 42.671875 21.84375 41.109375 
Q 18.5 39.546875 15.921875 36.28125 
L 11.71875 36.28125 
L 11.71875 72.90625 
z
" id="DejaVuSerif-35"/>
      </defs>
      <g transform="translate(162.445758 596.793316)scale(0.0694 -0.0694)">
       <use xlink:href="#DejaVuSerif-34"/>
       <use x="63.623047" xlink:href="#DejaVuSerif-35"/>
      </g>
     </g>
    </g>
    <g id="xtick_3">
     <g id="line2d_3">
      <g>
       <use style="stroke:#000000;stroke-width:0.8;" x="265.562667" xlink:href="#me3baac11f4" y="584.52"/>
      </g>
     </g>
     <g id="text_3">
      <!-- 50 -->
      <g transform="translate(261.147092 596.793316)scale(0.0694 -0.0694)">
       <use xlink:href="#DejaVuSerif-35"/>
       <use x="63.623047" xlink:href="#DejaVuSerif-30"/>
      </g>
     </g>
    </g>
    <g id="xtick_4">
     <g id="line2d_4">
      <g>
       <use style="stroke:#000000;stroke-width:0.8;" x="364.264" xlink:href="#me3baac11f4" y="584.52"/>
      </g>
     </g>
     <g id="text_4">
      <!-- 55 -->
      <g transform="translate(359.848425 596.793316)scale(0.0694 -0.0694)">
       <use xlink:href="#DejaVuSerif-35"/>
       <use x="63.623047" xlink:href="#DejaVuSerif-35"/>
      </g>
     </g>
    </g>
    <g id="xtick_5">
     <g id="line2d_5">
      <g>
       <use style="stroke:#000000;stroke-width:0.8;" x="462.965333" xlink:href="#me3baac11f4" y="584.52"/>
      </g>
     </g>
     <g id="text_5">
      <!-- 60 -->
      <defs>
       <path d="M 32.71875 3.421875 
Q 39.59375 3.421875 43.296875 8.46875 
Q 47.015625 13.53125 47.015625 23 
Q 47.015625 32.46875 43.296875 37.515625 
Q 39.59375 42.578125 32.71875 42.578125 
Q 25.734375 42.578125 22.0625 37.6875 
Q 18.40625 32.8125 18.40625 23.578125 
Q 18.40625 13.875 22.109375 8.640625 
Q 25.828125 3.421875 32.71875 3.421875 
z
M 16.796875 40.140625 
Q 20.125 43.796875 24.3125 45.59375 
Q 28.515625 47.40625 33.796875 47.40625 
Q 44.671875 47.40625 51 40.859375 
Q 57.328125 34.328125 57.328125 23 
Q 57.328125 11.921875 50.515625 5.25 
Q 43.703125 -1.421875 32.328125 -1.421875 
Q 19.96875 -1.421875 13.328125 7.78125 
Q 6.6875 17 6.6875 34.078125 
Q 6.6875 53.21875 14.546875 63.71875 
Q 22.40625 74.21875 36.71875 74.21875 
Q 40.578125 74.21875 44.828125 73.484375 
Q 49.078125 72.75 53.515625 71.296875 
L 53.515625 59.28125 
L 48 59.28125 
Q 47.40625 64.203125 44.234375 66.796875 
Q 41.0625 69.390625 35.6875 69.390625 
Q 26.21875 69.390625 21.578125 62.203125 
Q 16.9375 55.03125 16.796875 40.140625 
z
" id="DejaVuSerif-36"/>
      </defs>
      <g transform="translate(458.549758 596.793316)scale(0.0694 -0.0694)">
       <use xlink:href="#DejaVuSerif-36"/>
       <use x="63.623047" xlink:href="#DejaVuSerif-30"/>
      </g>
     </g>
    </g>
    <g id="xtick_6">
     <g id="line2d_6">
      <g>
       <use style="stroke:#000000;stroke-width:0.8;" x="561.666667" xlink:href="#me3baac11f4" y="584.52"/>
      </g>
     </g>
     <g id="text_6">
      <!-- 65 -->
      <g transform="translate(557.251092 596.793316)scale(0.0694 -0.0694)">
       <use xlink:href="#DejaVuSerif-36"/>
       <use x="63.623047" xlink:href="#DejaVuSerif-35"/>
      </g>
     </g>
    </g>
    <g id="xtick_7">
     <g id="line2d_7">
      <g>
       <use style="stroke:#000000;stroke-width:0.8;" x="660.368" xlink:href="#me3baac11f4" y="584.52"/>
      </g>
     </g>
     <g id="text_7">
      <!-- 70 -->
      <defs>
       <path d="M 56.390625 67.921875 
L 27.875 0 
L 20.609375 0 
L 47.796875 64.890625 
L 14.109375 64.890625 
L 14.109375 55.90625 
L 8.40625 55.90625 
L 8.40625 72.90625 
L 56.390625 72.90625 
z
" id="DejaVuSerif-37"/>
      </defs>
      <g transform="translate(655.952425 596.793316)scale(0.0694 -0.0694)">
       <use xlink:href="#DejaVuSerif-37"/>
       <use x="63.623047" xlink:href="#DejaVuSerif-30"/>
      </g>
     </g>
    </g>
   </g>
   <g id="matplotlib.axis_2">
    <g id="ytick_1">
     <g id="line2d_8">
      <defs>
       <path d="M 0 0 
L -3.5 0 
" id="mc131c6e0ce" style="stroke:#000000;stroke-width:0.8;"/>
      </defs>
      <g>
       <use style="stroke:#000000;stroke-width:0.8;" x="68.16" xlink:href="#mc131c6e0ce" y="584.52"/>
      </g>
     </g>
     <g id="text_8">
      <!-- 100 -->
      <defs>
       <path d="M 14.203125 0 
L 14.203125 5.171875 
L 26.90625 5.171875 
L 26.90625 65.828125 
L 12.203125 56.296875 
L 12.203125 62.703125 
L 29.984375 74.21875 
L 36.71875 74.21875 
L 36.71875 5.171875 
L 49.421875 5.171875 
L 49.421875 0 
z
" id="DejaVuSerif-31"/>
      </defs>
      <g transform="translate(47.913275 587.156658)scale(0.0694 -0.0694)">
       <use xlink:href="#DejaVuSerif-31"/>
       <use x="63.623047" xlink:href="#DejaVuSerif-30"/>
       <use x="127.246094" xlink:href="#DejaVuSerif-30"/>
      </g>
     </g>
    </g>
    <g id="ytick_2">
     <g id="line2d_9">
      <g>
       <use style="stroke:#000000;stroke-width:0.8;" x="68.16" xlink:href="#mc131c6e0ce" y="518.02"/>
      </g>
     </g>
     <g id="text_9">
      <!-- 125 -->
      <defs>
       <path d="M 12.796875 55.515625 
L 7.328125 55.515625 
L 7.328125 68.5 
Q 12.546875 71.296875 17.84375 72.75 
Q 23.140625 74.21875 28.21875 74.21875 
Q 39.59375 74.21875 46.1875 68.703125 
Q 52.78125 63.1875 52.78125 53.71875 
Q 52.78125 43.015625 37.84375 28.125 
Q 36.671875 27 36.078125 26.421875 
L 17.671875 8.015625 
L 48.09375 8.015625 
L 48.09375 17 
L 53.8125 17 
L 53.8125 0 
L 6.78125 0 
L 6.78125 5.328125 
L 28.90625 27.390625 
Q 36.234375 34.71875 39.359375 40.84375 
Q 42.484375 46.96875 42.484375 53.71875 
Q 42.484375 61.078125 38.640625 65.234375 
Q 34.8125 69.390625 28.078125 69.390625 
Q 21.09375 69.390625 17.28125 65.921875 
Q 13.484375 62.453125 12.796875 55.515625 
z
" id="DejaVuSerif-32"/>
      </defs>
      <g transform="translate(47.913275 520.656658)scale(0.0694 -0.0694)">
       <use xlink:href="#DejaVuSerif-31"/>
       <use x="63.623047" xlink:href="#DejaVuSerif-32"/>
       <use x="127.246094" xlink:href="#DejaVuSerif-35"/>
      </g>
     </g>
    </g>
    <g id="ytick_3">
     <g id="line2d_10">
      <g>
       <use style="stroke:#000000;stroke-width:0.8;" x="68.16" xlink:href="#mc131c6e0ce" y="451.52"/>
      </g>
     </g>
     <g id="text_10">
      <!-- 150 -->
      <g transform="translate(47.913275 454.156658)scale(0.0694 -0.0694)">
       <use xlink:href="#DejaVuSerif-31"/>
       <use x="63.623047" xlink:href="#DejaVuSerif-35"/>
       <use x="127.246094" xlink:href="#DejaVuSerif-30"/>
      </g>
     </g>
    </g>
    <g id="ytick_4">
     <g id="line2d_11">
      <g>
       <use style="stroke:#000000;stroke-width:0.8;" x="68.16" xlink:href="#mc131c6e0ce" y="385.02"/>
      </g>
     </g>
     <g id="text_11">
      <!-- 175 -->
      <g transform="translate(47.913275 387.656658)scale(0.0694 -0.0694)">
       <use xlink:href="#DejaVuSerif-31"/>
       <use x="63.623047" xlink:href="#DejaVuSerif-37"/>
       <use x="127.246094" xlink:href="#DejaVuSerif-35"/>
      </g>
     </g>
    </g>
    <g id="ytick_5">
     <g id="line2d_12">
      <g>
       <use style="stroke:#000000;stroke-width:0.8;" x="68.16" xlink:href="#mc131c6e0ce" y="318.52"/>
      </g>
     </g>
     <g id="text_12">
      <!-- 200 -->
      <g transform="translate(47.913275 321.156658)scale(0.0694 -0.0694)">
       <use xlink:href="#DejaVuSerif-32"/>
       <use x="63.623047" xlink:href="#DejaVuSerif-30"/>
       <use x="127.246094" xlink:href="#DejaVuSerif-30"/>
      </g>
     </g>
    </g>
    <g id="ytick_6">
     <g id="line2d_13">
      <g>
       <use style="stroke:#000000;stroke-width:0.8;" x="68.16" xlink:href="#mc131c6e0ce" y="252.02"/>
      </g>
     </g>
     <g id="text_13">
      <!-- 225 -->
      <g transform="translate(47.913275 254.656658)scale(0.0694 -0.0694)">
       <use xlink:href="#DejaVuSerif-32"/>
       <use x="63.623047" xlink:href="#DejaVuSerif-32"/>
       <use x="127.246094" xlink:href="#DejaVuSerif-35"/>
      </g>
     </g>
    </g>
    <g id="ytick_7">
     <g id="line2d_14">
      <g>
       <use style="stroke:#000000;stroke-width:0.8;" x="68.16" xlink:href="#mc131c6e0ce" y="185.52"/>
      </g>
     </g>
     <g id="text_14">
      <!-- 250 -->
      <g transform="translate(47.913275 188.156658)scale(0.0694 -0.0694)">
       <use xlink:href="#DejaVuSerif-32"/>
       <use x="63.623047" xlink:href="#DejaVuSerif-35"/>
       <use x="127.246094" xlink:href="#DejaVuSerif-30"/>
      </g>
     </g>
    </g>
    <g id="ytick_8">
     <g id="line2d_15">
      <g>
       <use style="stroke:#000000;stroke-width:0.8;" x="68.16" xlink:href="#mc131c6e0ce" y="119.02"/>
      </g>
     </g>
     <g id="text_15">
      <!-- 275 -->
      <g transform="translate(47.913275 121.656658)scale(0.0694 -0.0694)">
       <use xlink:href="#DejaVuSerif-32"/>
       <use x="63.623047" xlink:href="#DejaVuSerif-37"/>
       <use x="127.246094" xlink:href="#DejaVuSerif-35"/>
      </g>
     </g>
    </g>
    <g id="ytick_9">
     <g id="line2d_16">
      <g>
       <use style="stroke:#000000;stroke-width:0.8;" x="68.16" xlink:href="#mc131c6e0ce" y="52.52"/>
      </g>
     </g>
     <g id="text_16">
      <!-- 300 -->
      <defs>
       <path d="M 9.71875 69.828125 
Q 15.4375 71.96875 20.671875 73.09375 
Q 25.921875 74.21875 30.515625 74.21875 
Q 41.21875 74.21875 47.21875 69.59375 
Q 53.21875 64.984375 53.21875 56.78125 
Q 53.21875 50.203125 49.0625 45.78125 
Q 44.921875 41.359375 37.3125 39.796875 
Q 46.296875 38.53125 51.25 33.28125 
Q 56.203125 28.03125 56.203125 19.671875 
Q 56.203125 9.46875 49.34375 4.015625 
Q 42.484375 -1.421875 29.59375 -1.421875 
Q 23.875 -1.421875 18.421875 -0.1875 
Q 12.984375 1.03125 7.625 3.515625 
L 7.625 17.671875 
L 13.09375 17.671875 
Q 13.578125 10.640625 17.828125 7.03125 
Q 22.078125 3.421875 29.78125 3.421875 
Q 37.25 3.421875 41.578125 7.734375 
Q 45.90625 12.0625 45.90625 19.578125 
Q 45.90625 28.171875 41.453125 32.59375 
Q 37.015625 37.015625 28.421875 37.015625 
L 23.78125 37.015625 
L 23.78125 42 
L 26.21875 42 
Q 34.765625 42 39.03125 45.53125 
Q 43.3125 49.078125 43.3125 56.203125 
Q 43.3125 62.59375 39.796875 65.984375 
Q 36.28125 69.390625 29.6875 69.390625 
Q 23.09375 69.390625 19.453125 66.265625 
Q 15.828125 63.140625 15.1875 56.984375 
L 9.71875 56.984375 
z
" id="DejaVuSerif-33"/>
      </defs>
      <g transform="translate(47.913275 55.156658)scale(0.0694 -0.0694)">
       <use xlink:href="#DejaVuSerif-33"/>
       <use x="63.623047" xlink:href="#DejaVuSerif-30"/>
       <use x="127.246094" xlink:href="#DejaVuSerif-30"/>
      </g>
     </g>
    </g>
   </g>
   <g id="patch_3">
    <path d="M 68.16 584.52 
L 68.16 52.52 
" style="fill:none;stroke:#000000;stroke-linecap:square;stroke-linejoin:miter;stroke-width:0.8;"/>
   </g>
   <g id="patch_4">
    <path d="M 660.368 584.52 
L 660.368 52.52 
" style="fill:none;stroke:#000000;stroke-linecap:square;stroke-linejoin:miter;stroke-width:0.8;"/>
   </g>
   <g id="patch_5">
    <path d="M 68.16 584.52 
L 660.368 584.52 
" style="fill:none;stroke:#000000;stroke-linecap:square;stroke-linejoin:miter;stroke-width:0.8;"/>
   </g>
   <g id="patch_6">
    <path d="M 68.16 52.52 
L 660.368 52.52 
" style="fill:none;stroke:#000000;stroke-linecap:square;stroke-linejoin:miter;stroke-width:0.8;"/>
   </g>
  </g>
  <g id="axes_2">
   <g id="patch_7">
    <path clip-path="url(#p0680fd9ca9)" d="M 697.381 584.52 
L 697.381 557.92 
L 697.381 79.12 
L 697.381 52.52 
L 723.981 52.52 
L 723.981 79.12 
L 723.981 557.92 
L 723.981 584.52 
z
" style="fill:#ffffff;stroke:#ffffff;stroke-linejoin:miter;stroke-width:0.01;"/>
   </g>
   <g id="QuadMesh_1">
    <path clip-path="url(#p0680fd9ca9)" d="M 697.381 584.52 
L 723.981 584.52 
L 723.981 557.92 
L 697.381 557.92 
L 697.381 584.52 
" style="fill:#fcfcfc;"/>
    <path clip-path="url(#p0680fd9ca9)" d="M 697.381 557.92 
L 723.981 557.92 
L 723.981 531.32 
L 697.381 531.32 
L 697.381 557.92 
" style="fill:#f6f6f6;"/>
    <path clip-path="url(#p0680fd9ca9)" d="M 697.381 531.32 
L 723.981 531.32 
L 723.981 504.72 
L 697.381 504.72 
L 697.381 531.32 
" style="fill:#f0f0f0;"/>
    <path clip-path="url(#p0680fd9ca9)" d="M 697.381 504.72 
L 723.981 504.72 
L 723.981 478.12 
L 697.381 478.12 
L 697.381 504.72 
" style="fill:#e7e7e7;"/>
    <path clip-path="url(#p0680fd9ca9)" d="M 697.381 478.12 
L 723.981 478.12 
L 723.981 451.52 
L 697.381 451.52 
L 697.381 478.12 
" style="fill:#dedede;"/>
    <path clip-path="url(#p0680fd9ca9)" d="M 697.381 451.52 
L 723.981 451.52 
L 723.981 424.92 
L 697.381 424.92 
L 697.381 451.52 
" style="fill:#d4d4d4;"/>
    <path clip-path="url(#p0680fd9ca9)" d="M 697.381 424.92 
L 723.981 424.92 
L 723.981 398.32 
L 697.381 398.32 
L 697.381 424.92 
" style="fill:#c8c8c8;"/>
    <path clip-path="url(#p0680fd9ca9)" d="M 697.381 398.32 
L 723.981 398.32 
L 723.981 371.72 
L 697.381 371.72 
L 697.381 398.32 
" style="fill:#bebebe;"/>
    <path clip-path="url(#p0680fd9ca9)" d="M 697.381 371.72 
L 723.981 371.72 
L 723.981 345.12 
L 697.381 345.12 
L 697.381 371.72 
" style="fill:#aeaeae;"/>
    <path clip-path="url(#p0680fd9ca9)" d="M 697.381 345.12 
L 723.981 345.12 
L 723.981 318.52 
L 697.381 318.52 
L 697.381 345.12 
" style="fill:#9e9e9e;"/>
    <path clip-path="url(#p0680fd9ca9)" d="M 697.381 318.52 
L 723.981 318.52 
L 723.981 291.92 
L 697.381 291.92 
L 697.381 318.52 
" style="fill:#8f8f8f;"/>
    <path clip-path="url(#p0680fd9ca9)" d="M 697.381 291.92 
L 723.981 291.92 
L 723.981 265.32 
L 697.381 265.32 
L 697.381 291.92 
" style="fill:#818181;"/>
    <path clip-path="url(#p0680fd9ca9)" d="M 697.381 265.32 
L 723.981 265.32 
L 723.981 238.72 
L 697.381 238.72 
L 697.381 265.32 
" style="fill:#727272;"/>
    <path clip-path="url(#p0680fd9ca9)" d="M 697.381 238.72 
L 723.981 238.72 
L 723.981 212.12 
L 697.381 212.12 
L 697.381 238.72 
" style="fill:#666666;"/>
    <path clip-path="url(#p0680fd9ca9)" d="M 697.381 212.12 
L 723.981 212.12 
L 723.981 185.52 
L 697.381 185.52 
L 697.381 212.12 
" style="fill:#585858;"/>
    <path clip-path="url(#p0680fd9ca9)" d="M 697.381 185.52 
L 723.981 185.52 
L 723.981 158.92 
L 697.381 158.92 
L 697.381 185.52 
" style="fill:#484848;"/>
    <path clip-path="url(#p0680fd9ca9)" d="M 697.381 158.92 
L 723.981 158.92 
L 723.981 132.32 
L 697.381 132.32 
L 697.381 158.92 
" style="fill:#363636;"/>
    <path clip-path="url(#p0680fd9ca9)" d="M 697.381 132.32 
L 723.981 132.32 
L 723.981 105.72 
L 697.381 105.72 
L 697.381 132.32 
" style="fill:#252525;"/>
    <path clip-path="url(#p0680fd9ca9)" d="M 697.381 105.72 
L 723.981 105.72 
L 723.981 79.12 
L 697.381 79.12 
L 697.381 105.72 
" style="fill:#161616;"/>
    <path clip-path="url(#p0680fd9ca9)" d="M 697.381 79.12 
L 723.981 79.12 
L 723.981 52.52 
L 697.381 52.52 
L 697.381 79.12 
" style="fill:#070707;"/>
   </g>
   <g id="matplotlib.axis_3"/>
   <g id="matplotlib.axis_4">
    <g id="ytick_10">
     <g id="line2d_17">
      <defs>
       <path d="M 0 0 
L 3.5 0 
" id="ma7d863f83c" style="stroke:#000000;stroke-width:0.8;"/>
      </defs>
      <g>
       <use style="stroke:#000000;stroke-width:0.8;" x="723.981" xlink:href="#ma7d863f83c" y="584.52"/>
      </g>
     </g>
     <g id="text_17">
      <!-- 0.000131500 -->
      <defs>
       <path d="M 9.421875 5.078125 
Q 9.421875 7.8125 11.28125 9.71875 
Q 13.140625 11.625 15.921875 11.625 
Q 18.609375 11.625 20.5 9.71875 
Q 22.40625 7.8125 22.40625 5.078125 
Q 22.40625 2.390625 20.5 0.484375 
Q 18.609375 -1.421875 15.921875 -1.421875 
Q 13.140625 -1.421875 11.28125 0.453125 
Q 9.421875 2.34375 9.421875 5.078125 
z
" id="DejaVuSerif-2e"/>
      </defs>
      <g transform="translate(730.981 587.156658)scale(0.0694 -0.0694)">
       <use xlink:href="#DejaVuSerif-30"/>
       <use x="63.623047" xlink:href="#DejaVuSerif-2e"/>
       <use x="95.410156" xlink:href="#DejaVuSerif-30"/>
       <use x="159.033203" xlink:href="#DejaVuSerif-30"/>
       <use x="222.65625" xlink:href="#DejaVuSerif-30"/>
       <use x="286.279297" xlink:href="#DejaVuSerif-31"/>
       <use x="349.902344" xlink:href="#DejaVuSerif-33"/>
       <use x="413.525391" xlink:href="#DejaVuSerif-31"/>
       <use x="477.148438" xlink:href="#DejaVuSerif-35"/>
       <use x="540.771484" xlink:href="#DejaVuSerif-30"/>
       <use x="604.394531" xlink:href="#DejaVuSerif-30"/>
      </g>
     </g>
    </g>
    <g id="ytick_11">
     <g id="line2d_18">
      <g>
       <use style="stroke:#000000;stroke-width:0.8;" x="723.981" xlink:href="#ma7d863f83c" y="504.72"/>
      </g>
     </g>
     <g id="text_18">
      <!-- 0.000131575 -->
      <g transform="translate(730.981 507.356658)scale(0.0694 -0.0694)">
       <use xlink:href="#DejaVuSerif-30"/>
       <use x="63.623047" xlink:href="#DejaVuSerif-2e"/>
       <use x="95.410156" xlink:href="#DejaVuSerif-30"/>
       <use x="159.033203" xlink:href="#DejaVuSerif-30"/>
       <use x="222.65625" xlink:href="#DejaVuSerif-30"/>
       <use x="286.279297" xlink:href="#DejaVuSerif-31"/>
       <use x="349.902344" xlink:href="#DejaVuSerif-33"/>
       <use x="413.525391" xlink:href="#DejaVuSerif-31"/>
       <use x="477.148438" xlink:href="#DejaVuSerif-35"/>
       <use x="540.771484" xlink:href="#DejaVuSerif-37"/>
       <use x="604.394531" xlink:href="#DejaVuSerif-35"/>
      </g>
     </g>
    </g>
    <g id="ytick_12">
     <g id="line2d_19">
      <g>
       <use style="stroke:#000000;stroke-width:0.8;" x="723.981" xlink:href="#ma7d863f83c" y="424.92"/>
      </g>
     </g>
     <g id="text_19">
      <!-- 0.000131650 -->
      <g transform="translate(730.981 427.556658)scale(0.0694 -0.0694)">
       <use xlink:href="#DejaVuSerif-30"/>
       <use x="63.623047" xlink:href="#DejaVuSerif-2e"/>
       <use x="95.410156" xlink:href="#DejaVuSerif-30"/>
       <use x="159.033203" xlink:href="#DejaVuSerif-30"/>
       <use x="222.65625" xlink:href="#DejaVuSerif-30"/>
       <use x="286.279297" xlink:href="#DejaVuSerif-31"/>
       <use x="349.902344" xlink:href="#DejaVuSerif-33"/>
       <use x="413.525391" xlink:href="#DejaVuSerif-31"/>
       <use x="477.148438" xlink:href="#DejaVuSerif-36"/>
       <use x="540.771484" xlink:href="#DejaVuSerif-35"/>
       <use x="604.394531" xlink:href="#DejaVuSerif-30"/>
      </g>
     </g>
    </g>
    <g id="ytick_13">
     <g id="line2d_20">
      <g>
       <use style="stroke:#000000;stroke-width:0.8;" x="723.981" xlink:href="#ma7d863f83c" y="345.12"/>
      </g>
     </g>
     <g id="text_20">
      <!-- 0.000131725 -->
      <g transform="translate(730.981 347.756658)scale(0.0694 -0.0694)">
       <use xlink:href="#DejaVuSerif-30"/>
       <use x="63.623047" xlink:href="#DejaVuSerif-2e"/>
       <use x="95.410156" xlink:href="#DejaVuSerif-30"/>
       <use x="159.033203" xlink:href="#DejaVuSerif-30"/>
       <use x="222.65625" xlink:href="#DejaVuSerif-30"/>
       <use x="286.279297" xlink:href="#DejaVuSerif-31"/>
       <use x="349.902344" xlink:href="#DejaVuSerif-33"/>
       <use x="413.525391" xlink:href="#DejaVuSerif-31"/>
       <use x="477.148438" xlink:href="#DejaVuSerif-37"/>
       <use x="540.771484" xlink:href="#DejaVuSerif-32"/>
       <use x="604.394531" xlink:href="#DejaVuSerif-35"/>
      </g>
     </g>
    </g>
    <g id="ytick_14">
     <g id="line2d_21">
      <g>
       <use style="stroke:#000000;stroke-width:0.8;" x="723.981" xlink:href="#ma7d863f83c" y="265.32"/>
      </g>
     </g>
     <g id="text_21">
      <!-- 0.000131800 -->
      <defs>
       <path d="M 46.578125 19.921875 
Q 46.578125 27.734375 42.6875 32.046875 
Q 38.8125 36.375 31.78125 36.375 
Q 24.75 36.375 20.875 32.046875 
Q 17 27.734375 17 19.921875 
Q 17 12.0625 20.875 7.734375 
Q 24.75 3.421875 31.78125 3.421875 
Q 38.8125 3.421875 42.6875 7.734375 
Q 46.578125 12.0625 46.578125 19.921875 
z
M 44.578125 55.328125 
Q 44.578125 61.96875 41.203125 65.671875 
Q 37.84375 69.390625 31.78125 69.390625 
Q 25.78125 69.390625 22.390625 65.671875 
Q 19 61.96875 19 55.328125 
Q 19 48.640625 22.390625 44.921875 
Q 25.78125 41.21875 31.78125 41.21875 
Q 37.84375 41.21875 41.203125 44.921875 
Q 44.578125 48.640625 44.578125 55.328125 
z
M 39.3125 38.8125 
Q 47.609375 37.703125 52.25 32.6875 
Q 56.890625 27.6875 56.890625 19.921875 
Q 56.890625 9.671875 50.390625 4.125 
Q 43.890625 -1.421875 31.78125 -1.421875 
Q 19.734375 -1.421875 13.203125 4.125 
Q 6.6875 9.671875 6.6875 19.921875 
Q 6.6875 27.6875 11.328125 32.6875 
Q 15.96875 37.703125 24.3125 38.8125 
Q 16.9375 40.140625 13 44.40625 
Q 9.078125 48.6875 9.078125 55.328125 
Q 9.078125 64.109375 15.125 69.15625 
Q 21.1875 74.21875 31.78125 74.21875 
Q 42.390625 74.21875 48.4375 69.15625 
Q 54.5 64.109375 54.5 55.328125 
Q 54.5 48.6875 50.5625 44.40625 
Q 46.625 40.140625 39.3125 38.8125 
z
" id="DejaVuSerif-38"/>
      </defs>
      <g transform="translate(730.981 267.956658)scale(0.0694 -0.0694)">
       <use xlink:href="#DejaVuSerif-30"/>
       <use x="63.623047" xlink:href="#DejaVuSerif-2e"/>
       <use x="95.410156" xlink:href="#DejaVuSerif-30"/>
       <use x="159.033203" xlink:href="#DejaVuSerif-30"/>
       <use x="222.65625" xlink:href="#DejaVuSerif-30"/>
       <use x="286.279297" xlink:href="#DejaVuSerif-31"/>
       <use x="349.902344" xlink:href="#DejaVuSerif-33"/>
       <use x="413.525391" xlink:href="#DejaVuSerif-31"/>
       <use x="477.148438" xlink:href="#DejaVuSerif-38"/>
       <use x="540.771484" xlink:href="#DejaVuSerif-30"/>
       <use x="604.394531" xlink:href="#DejaVuSerif-30"/>
      </g>
     </g>
    </g>
    <g id="ytick_15">
     <g id="line2d_22">
      <g>
       <use style="stroke:#000000;stroke-width:0.8;" x="723.981" xlink:href="#ma7d863f83c" y="185.52"/>
      </g>
     </g>
     <g id="text_22">
      <!-- 0.000131875 -->
      <g transform="translate(730.981 188.156658)scale(0.0694 -0.0694)">
       <use xlink:href="#DejaVuSerif-30"/>
       <use x="63.623047" xlink:href="#DejaVuSerif-2e"/>
       <use x="95.410156" xlink:href="#DejaVuSerif-30"/>
       <use x="159.033203" xlink:href="#DejaVuSerif-30"/>
       <use x="222.65625" xlink:href="#DejaVuSerif-30"/>
       <use x="286.279297" xlink:href="#DejaVuSerif-31"/>
       <use x="349.902344" xlink:href="#DejaVuSerif-33"/>
       <use x="413.525391" xlink:href="#DejaVuSerif-31"/>
       <use x="477.148438" xlink:href="#DejaVuSerif-38"/>
       <use x="540.771484" xlink:href="#DejaVuSerif-37"/>
       <use x="604.394531" xlink:href="#DejaVuSerif-35"/>
      </g>
     </g>
    </g>
    <g id="ytick_16">
     <g id="line2d_23">
      <g>
       <use style="stroke:#000000;stroke-width:0.8;" x="723.981" xlink:href="#ma7d863f83c" y="105.72"/>
      </g>
     </g>
     <g id="text_23">
      <!-- 0.000131950 -->
      <defs>
       <path d="M 46.78125 32.671875 
Q 43.5 29 39.25 27.1875 
Q 35.015625 25.390625 29.6875 25.390625 
Q 18.84375 25.390625 12.5625 31.9375 
Q 6.296875 38.484375 6.296875 49.8125 
Q 6.296875 60.890625 13.109375 67.546875 
Q 19.921875 74.21875 31.296875 74.21875 
Q 43.65625 74.21875 50.265625 65.015625 
Q 56.890625 55.8125 56.890625 38.71875 
Q 56.890625 19.578125 49.015625 9.078125 
Q 41.15625 -1.421875 26.90625 -1.421875 
Q 23.046875 -1.421875 18.796875 -0.6875 
Q 14.546875 0.046875 10.109375 1.515625 
L 10.109375 13.625 
L 15.578125 13.625 
Q 16.21875 8.6875 19.390625 6.046875 
Q 22.5625 3.421875 27.875 3.421875 
Q 37.359375 3.421875 41.984375 10.5625 
Q 46.625 17.71875 46.78125 32.671875 
z
M 30.90625 69.390625 
Q 23.96875 69.390625 20.28125 64.328125 
Q 16.609375 59.28125 16.609375 49.8125 
Q 16.609375 40.328125 20.28125 35.25 
Q 23.96875 30.171875 30.90625 30.171875 
Q 37.84375 30.171875 41.53125 35.078125 
Q 45.21875 39.984375 45.21875 49.21875 
Q 45.21875 58.9375 41.5 64.15625 
Q 37.796875 69.390625 30.90625 69.390625 
z
" id="DejaVuSerif-39"/>
      </defs>
      <g transform="translate(730.981 108.356658)scale(0.0694 -0.0694)">
       <use xlink:href="#DejaVuSerif-30"/>
       <use x="63.623047" xlink:href="#DejaVuSerif-2e"/>
       <use x="95.410156" xlink:href="#DejaVuSerif-30"/>
       <use x="159.033203" xlink:href="#DejaVuSerif-30"/>
       <use x="222.65625" xlink:href="#DejaVuSerif-30"/>
       <use x="286.279297" xlink:href="#DejaVuSerif-31"/>
       <use x="349.902344" xlink:href="#DejaVuSerif-33"/>
       <use x="413.525391" xlink:href="#DejaVuSerif-31"/>
       <use x="477.148438" xlink:href="#DejaVuSerif-39"/>
       <use x="540.771484" xlink:href="#DejaVuSerif-35"/>
       <use x="604.394531" xlink:href="#DejaVuSerif-30"/>
      </g>
     </g>
    </g>
   </g>
   <g id="patch_8">
    <path d="M 697.381 584.52 
L 697.381 557.92 
L 697.381 79.12 
L 697.381 52.52 
L 723.981 52.52 
L 723.981 79.12 
L 723.981 557.92 
L 723.981 584.52 
z
" style="fill:none;stroke:#000000;stroke-linejoin:miter;stroke-width:0.8;"/>
   </g>
  </g>
 </g>
 <defs>
  <clipPath id="p6fb6d96e9c">
   <rect height="532" width="592.208" x="68.16" y="52.52"/>
  </clipPath>
  <clipPath id="p0680fd9ca9">
   <rect height="532" width="26.6" x="697.381" y="52.52"/>
  </clipPath>
 </defs>
</svg>
