<?xml version="1.0" encoding="utf-8" standalone="no"?>
<!DOCTYPE svg PUBLIC "-//W3C//DTD SVG 1.1//EN"
  "http://www.w3.org/Graphics/SVG/1.1/DTD/svg11.dtd">
<!-- Created with matplotlib (http://matplotlib.org/) -->
<svg height="648pt" version="1.1" viewBox="0 0 864 648" width="864pt" xmlns="http://www.w3.org/2000/svg" xmlns:xlink="http://www.w3.org/1999/xlink">
 <defs>
  <style type="text/css">
*{stroke-linecap:butt;stroke-linejoin:round;}
  </style>
 </defs>
 <g id="figure_1">
  <g id="patch_1">
   <path d="M 0 648 
L 864 648 
L 864 0 
L 0 0 
z
" style="fill:#ffffff;"/>
  </g>
  <g id="axes_1">
   <g id="patch_2">
    <path d="M 68.16 584.52 
L 660.368 584.52 
L 660.368 52.52 
L 68.16 52.52 
z
" style="fill:#ffffff;"/>
   </g>
   <g id="PathCollection_1">
    <path clip-path="url(#p9d76b24c02)" d="M 660.368 388.46823 
L 660.368 371.72 
L 660.368 318.52 
L 660.368 265.32 
L 660.368 212.12 
L 660.368 158.92 
L 660.368 105.72 
L 660.368 52.52 
L 587.439772 52.52 
L 592.411976 105.72 
L 593.852553 158.92 
L 601.705996 212.12 
L 614.667593 265.32 
L 621.081436 318.52 
L 645.820839 371.72 
z
" style="fill:#fcfcfc;"/>
   </g>
   <g id="PathCollection_2">
    <path clip-path="url(#p9d76b24c02)" d="M 660.368 488.73258 
L 660.368 478.12 
L 660.368 424.92 
L 660.368 388.46823 
L 645.820839 371.72 
L 621.081436 318.52 
L 614.667593 265.32 
L 601.705996 212.12 
L 593.852553 158.92 
L 592.411976 105.72 
L 587.439772 52.52 
L 561.666667 52.52 
L 518.801003 52.52 
L 521.82687 105.72 
L 522.702779 158.92 
L 527.455205 212.12 
L 535.348811 265.32 
L 539.272443 318.52 
L 554.32325 371.72 
L 561.666667 385.601536 
L 595.817859 424.92 
L 624.759926 478.12 
z
" style="fill:#f6f6f6;"/>
   </g>
   <g id="PathCollection_3">
    <path clip-path="url(#p9d76b24c02)" d="M 660.368 584.52 
L 660.368 555.810314 
L 604.316112 584.52 
z
" style="fill:#f0f0f0;"/>
    <path clip-path="url(#p9d76b24c02)" d="M 561.666667 487.884919 
L 660.368 517.294805 
L 660.368 488.73258 
L 624.759926 478.12 
L 595.817859 424.92 
L 561.666667 385.601536 
L 554.32325 371.72 
L 539.272443 318.52 
L 535.348811 265.32 
L 527.455205 212.12 
L 522.702779 158.92 
L 521.82687 105.72 
L 518.801003 52.52 
L 462.965333 52.52 
L 460.978829 52.52 
L 462.965333 100.243527 
L 463.27682 105.72 
L 464.152728 158.92 
L 468.85788 212.12 
L 476.750095 265.32 
L 480.722393 318.52 
L 495.725925 371.72 
L 523.838506 424.92 
L 541.679752 478.12 
z
" style="fill:#f0f0f0;"/>
   </g>
   <g id="PathCollection_4">
    <path clip-path="url(#p9d76b24c02)" d="M 561.666667 584.52 
L 604.316112 584.52 
L 660.368 555.810314 
L 660.368 531.32 
L 660.368 517.294805 
L 561.666667 487.884919 
L 541.679752 478.12 
L 523.838506 424.92 
L 495.725925 371.72 
L 480.722393 318.52 
L 476.750095 265.32 
L 468.85788 212.12 
L 464.152728 158.92 
L 463.27682 105.72 
L 462.965333 100.243527 
L 460.978829 52.52 
L 418.129294 52.52 
L 420.343758 105.72 
L 420.985516 158.92 
L 424.424748 212.12 
L 430.196292 265.32 
L 433.111724 318.52 
L 444.060955 371.72 
L 462.965333 420.698835 
L 465.193831 424.92 
L 483.176899 478.12 
L 561.666667 516.4674 
L 611.529744 531.32 
L 561.666667 556.878271 
L 528.493121 584.52 
z
" style="fill:#e7e7e7;"/>
   </g>
   <g id="PathCollection_5">
    <path clip-path="url(#p9d76b24c02)" d="M 561.666667 556.878271 
L 611.529744 531.32 
L 561.666667 516.4674 
L 483.176899 478.12 
L 465.193831 424.92 
L 462.965333 420.698835 
L 444.060955 371.72 
L 433.111724 318.52 
L 430.196292 265.32 
L 424.424748 212.12 
L 420.985516 158.92 
L 420.343758 105.72 
L 418.129294 52.52 
L 375.279759 52.52 
L 377.494222 105.72 
L 378.136725 158.92 
L 381.575212 212.12 
L 387.347501 265.32 
L 390.262932 318.52 
L 401.186105 371.72 
L 421.719728 424.92 
L 434.936491 478.12 
L 462.965333 496.827805 
L 533.564236 531.32 
L 469.465459 584.52 
L 528.493121 584.52 
z
" style="fill:#dedede;"/>
   </g>
   <g id="PathCollection_6">
    <path clip-path="url(#p9d76b24c02)" d="M 462.965333 584.52 
L 469.465459 584.52 
L 533.564236 531.32 
L 462.965333 496.827805 
L 434.936491 478.12 
L 421.719728 424.92 
L 401.186105 371.72 
L 390.262932 318.52 
L 387.347501 265.32 
L 381.575212 212.12 
L 378.136725 158.92 
L 377.494222 105.72 
L 375.279759 52.52 
L 364.264 52.52 
L 327.044341 52.52 
L 329.633465 105.72 
L 330.36086 158.92 
L 334.404908 212.12 
L 341.138301 265.32 
L 344.549001 318.52 
L 357.303429 371.72 
L 364.264 387.142801 
L 378.844879 424.92 
L 392.112983 478.12 
L 462.965333 525.410286 
L 475.061383 531.32 
L 462.965333 541.350303 
L 424.676809 584.52 
z
" style="fill:#d4d4d4;"/>
   </g>
   <g id="PathCollection_7">
    <path clip-path="url(#p9d76b24c02)" d="M 462.965333 541.350303 
L 475.061383 531.32 
L 462.965333 525.410286 
L 392.112983 478.12 
L 378.844879 424.92 
L 364.264 387.142801 
L 357.303429 371.72 
L 344.549001 318.52 
L 341.138301 265.32 
L 334.404908 212.12 
L 330.36086 158.92 
L 329.633465 105.72 
L 327.044341 52.52 
L 276.945193 52.52 
L 279.534317 105.72 
L 280.226085 158.92 
L 284.30576 212.12 
L 291.004545 265.32 
L 294.414227 318.52 
L 307.169673 371.72 
L 331.156862 424.92 
L 346.744974 478.12 
L 364.264 488.114937 
L 428.995425 531.32 
L 381.650194 584.52 
L 424.676809 584.52 
z
" style="fill:#c8c8c8;"/>
   </g>
   <g id="PathCollection_8">
    <path clip-path="url(#p9d76b24c02)" d="M 364.264 584.52 
L 381.650194 584.52 
L 428.995425 531.32 
L 364.264 488.114937 
L 346.744974 478.12 
L 331.156862 424.92 
L 307.169673 371.72 
L 294.414227 318.52 
L 291.004545 265.32 
L 284.30576 212.12 
L 280.226085 158.92 
L 279.534317 105.72 
L 276.945193 52.52 
L 265.562667 52.52 
L 233.005988 52.52 
L 235.183693 105.72 
L 235.773918 158.92 
L 239.195915 212.12 
L 244.82572 265.32 
L 247.678706 318.52 
L 258.40178 371.72 
L 265.562667 390.666847 
L 280.98845 424.92 
L 296.644809 478.12 
L 364.264 516.698032 
L 386.171174 531.32 
L 364.264 555.8938 
L 334.346351 584.52 
z
" style="fill:#bdbdbd;"/>
   </g>
   <g id="PathCollection_9">
    <path clip-path="url(#p9d76b24c02)" d="M 364.264 555.8938 
L 386.171174 531.32 
L 364.264 516.698032 
L 296.644809 478.12 
L 280.98845 424.92 
L 265.562667 390.666847 
L 258.40178 371.72 
L 247.678706 318.52 
L 244.82572 265.32 
L 239.195915 212.12 
L 235.773918 158.92 
L 235.183693 105.72 
L 233.005988 52.52 
L 190.877782 52.52 
L 193.056205 105.72 
L 193.67087 158.92 
L 197.068427 212.12 
L 202.721953 265.32 
L 205.551218 318.52 
L 216.298732 371.72 
L 236.388539 424.92 
L 249.598872 478.12 
L 265.562667 488.985788 
L 339.759741 531.32 
L 284.142214 584.52 
L 334.346351 584.52 
z
" style="fill:#aeaeae;"/>
   </g>
   <g id="PathCollection_10">
    <path clip-path="url(#p9d76b24c02)" d="M 265.562667 584.52 
L 284.142214 584.52 
L 339.759741 531.32 
L 265.562667 488.985788 
L 249.598872 478.12 
L 236.388539 424.92 
L 216.298732 371.72 
L 205.551218 318.52 
L 202.721953 265.32 
L 197.068427 212.12 
L 193.67087 158.92 
L 193.056205 105.72 
L 190.877782 52.52 
L 166.861333 52.52 
L 160.106315 52.52 
L 160.918915 105.72 
L 161.153972 158.92 
L 162.414399 212.12 
L 164.531014 265.32 
L 165.579204 318.52 
L 166.861333 335.490759 
L 174.195684 371.72 
L 194.261051 424.92 
L 207.544618 478.12 
L 265.562667 517.6101 
L 289.591329 531.32 
L 265.562667 554.298746 
L 239.148382 584.52 
z
" style="fill:#9e9e9e;"/>
   </g>
   <g id="PathCollection_11">
    <path clip-path="url(#p9d76b24c02)" d="M 265.562667 554.298746 
L 289.591329 531.32 
L 265.562667 517.6101 
L 207.544618 478.12 
L 194.261051 424.92 
L 174.195684 371.72 
L 166.861333 335.490759 
L 165.579204 318.52 
L 164.531014 265.32 
L 162.414399 212.12 
L 161.153972 158.92 
L 160.918915 105.72 
L 160.106315 52.52 
L 144.394045 52.52 
L 145.206546 105.72 
L 145.441603 158.92 
L 146.698627 212.12 
L 148.815342 265.32 
L 149.866835 318.52 
L 153.883249 371.72 
L 161.369478 424.92 
L 166.349667 478.12 
L 166.861333 479.053836 
L 243.638014 531.32 
L 197.21562 584.52 
L 239.148382 584.52 
z
" style="fill:#8f8f8f;"/>
   </g>
   <g id="PathCollection_12">
    <path clip-path="url(#p9d76b24c02)" d="M 166.861333 584.52 
L 197.21562 584.52 
L 243.638014 531.32 
L 166.861333 479.053836 
L 166.349667 478.12 
L 161.369478 424.92 
L 153.883249 371.72 
L 149.866835 318.52 
L 148.815342 265.32 
L 146.698627 212.12 
L 145.441603 158.92 
L 145.206546 105.72 
L 144.394045 52.52 
L 128.681776 52.52 
L 129.494177 105.72 
L 129.729234 158.92 
L 130.982855 212.12 
L 133.09967 265.32 
L 134.154465 318.52 
L 138.167477 371.72 
L 145.66051 424.92 
L 150.654388 478.12 
L 166.861333 507.699108 
L 201.559377 531.32 
L 166.861333 571.174568 
L 162.543428 584.52 
z
" style="fill:#818181;"/>
   </g>
   <g id="PathCollection_13">
    <path clip-path="url(#p9d76b24c02)" d="M 166.861333 571.174568 
L 201.559377 531.32 
L 166.861333 507.699108 
L 150.654388 478.12 
L 145.66051 424.92 
L 138.167477 371.72 
L 134.154465 318.52 
L 133.09967 265.32 
L 130.982855 212.12 
L 129.729234 158.92 
L 129.494177 105.72 
L 128.681776 52.52 
L 112.969507 52.52 
L 113.781807 105.72 
L 114.016864 158.92 
L 115.267083 212.12 
L 117.383998 265.32 
L 118.442096 318.52 
L 122.451705 371.72 
L 129.951541 424.92 
L 134.959109 478.12 
L 164.107768 531.32 
L 146.905641 584.52 
L 162.543428 584.52 
z
" style="fill:#727272;"/>
   </g>
   <g id="PathCollection_14">
    <path clip-path="url(#p9d76b24c02)" d="M 164.107768 531.32 
L 134.959109 478.12 
L 129.951541 424.92 
L 122.451705 371.72 
L 118.442096 318.52 
L 117.383998 265.32 
L 115.267083 212.12 
L 114.016864 158.92 
L 113.781807 105.72 
L 112.969507 52.52 
L 97.257237 52.52 
L 98.069438 105.72 
L 98.304495 158.92 
L 99.551311 212.12 
L 101.668327 265.32 
L 102.729727 318.52 
L 106.735934 371.72 
L 114.242573 424.92 
L 119.263829 478.12 
L 148.408994 531.32 
L 131.267853 584.52 
L 146.905641 584.52 
z
" style="fill:#666666;"/>
   </g>
   <g id="PathCollection_15">
    <path clip-path="url(#p9d76b24c02)" d="M 148.408994 531.32 
L 119.263829 478.12 
L 114.242573 424.92 
L 106.735934 371.72 
L 102.729727 318.52 
L 101.668327 265.32 
L 99.551311 212.12 
L 98.304495 158.92 
L 98.069438 105.72 
L 97.257237 52.52 
L 81.544968 52.52 
L 82.357068 105.72 
L 82.592125 158.92 
L 83.835539 212.12 
L 85.952655 265.32 
L 87.017357 318.52 
L 91.020162 371.72 
L 98.533604 424.92 
L 103.56855 478.12 
L 132.71022 531.32 
L 115.630066 584.52 
L 131.267853 584.52 
z
" style="fill:#585858;"/>
   </g>
   <g id="PathCollection_16">
    <path clip-path="url(#p9d76b24c02)" d="M 132.71022 531.32 
L 103.56855 478.12 
L 98.533604 424.92 
L 91.020162 371.72 
L 87.017357 318.52 
L 85.952655 265.32 
L 83.835539 212.12 
L 82.592125 158.92 
L 82.357068 105.72 
L 81.544968 52.52 
L 68.16 52.52 
L 68.16 105.72 
L 68.16 158.92 
L 68.16 212.12 
L 68.16 213.130928 
L 70.236983 265.32 
L 71.304988 318.52 
L 75.30439 371.72 
L 82.824636 424.92 
L 87.873271 478.12 
L 117.011446 531.32 
L 99.992279 584.52 
L 115.630066 584.52 
z
" style="fill:#484848;"/>
   </g>
   <g id="PathCollection_17">
    <path clip-path="url(#p9d76b24c02)" d="M 117.011446 531.32 
L 87.873271 478.12 
L 82.824636 424.92 
L 75.30439 371.72 
L 71.304988 318.52 
L 70.236983 265.32 
L 68.16 213.130928 
L 68.16 265.32 
L 68.16 318.52 
L 68.16 371.72 
L 68.16 424.92 
L 68.16 435.887304 
L 72.177991 478.12 
L 101.312671 531.32 
L 84.354492 584.52 
L 99.992279 584.52 
z
" style="fill:#363636;"/>
   </g>
   <g id="PathCollection_18">
    <path clip-path="url(#p9d76b24c02)" d="M 101.312671 531.32 
L 72.177991 478.12 
L 68.16 435.887304 
L 68.16 478.12 
L 68.16 499.44816 
L 85.613897 531.32 
L 68.716705 584.52 
L 84.354492 584.52 
z
" style="fill:#242424;"/>
   </g>
   <g id="PathCollection_19">
    <path clip-path="url(#p9d76b24c02)" d="M 85.613897 531.32 
L 68.16 499.44816 
L 68.16 528.115043 
L 69.915123 531.32 
L 68.16 536.846631 
L 68.16 584.52 
L 68.716705 584.52 
z
" style="fill:#161616;"/>
   </g>
   <g id="PathCollection_20">
    <path clip-path="url(#p9d76b24c02)" d="M 69.915123 531.32 
L 68.16 528.115043 
L 68.16 531.32 
L 68.16 536.846631 
z
" style="fill:#070707;"/>
   </g>
   <g id="matplotlib.axis_1">
    <g id="xtick_1">
     <g id="line2d_1">
      <defs>
       <path d="M 0 0 
L 0 3.5 
" id="m0c96e55fa8" style="stroke:#000000;stroke-width:0.8;"/>
      </defs>
      <g>
       <use style="stroke:#000000;stroke-width:0.8;" x="76.531783" xlink:href="#m0c96e55fa8" y="584.52"/>
      </g>
     </g>
     <g id="text_1">
      <!-- 550 -->
      <defs>
       <path d="M 50.296875 72.90625 
L 50.296875 64.890625 
L 16.890625 64.890625 
L 16.890625 44 
Q 19.4375 45.75 22.828125 46.625 
Q 26.21875 47.515625 30.421875 47.515625 
Q 42.234375 47.515625 49.0625 40.96875 
Q 55.90625 34.421875 55.90625 23.09375 
Q 55.90625 11.53125 49 5.046875 
Q 42.09375 -1.421875 29.59375 -1.421875 
Q 24.5625 -1.421875 19.28125 -0.1875 
Q 14.015625 1.03125 8.5 3.515625 
L 8.5 17.671875 
L 14.015625 17.671875 
Q 14.453125 10.75 18.421875 7.078125 
Q 22.40625 3.421875 29.59375 3.421875 
Q 37.3125 3.421875 41.453125 8.5 
Q 45.609375 13.578125 45.609375 23.09375 
Q 45.609375 32.5625 41.484375 37.609375 
Q 37.359375 42.671875 29.59375 42.671875 
Q 25.203125 42.671875 21.84375 41.109375 
Q 18.5 39.546875 15.921875 36.28125 
L 11.71875 36.28125 
L 11.71875 72.90625 
z
" id="DejaVuSerif-35"/>
       <path d="M 31.78125 3.421875 
Q 39.265625 3.421875 42.96875 11.625 
Q 46.6875 19.828125 46.6875 36.375 
Q 46.6875 52.984375 42.96875 61.1875 
Q 39.265625 69.390625 31.78125 69.390625 
Q 24.3125 69.390625 20.59375 61.1875 
Q 16.890625 52.984375 16.890625 36.375 
Q 16.890625 19.828125 20.59375 11.625 
Q 24.3125 3.421875 31.78125 3.421875 
z
M 31.78125 -1.421875 
Q 19.921875 -1.421875 13.25 8.53125 
Q 6.59375 18.5 6.59375 36.375 
Q 6.59375 54.296875 13.25 64.25 
Q 19.921875 74.21875 31.78125 74.21875 
Q 43.703125 74.21875 50.34375 64.25 
Q 56.984375 54.296875 56.984375 36.375 
Q 56.984375 18.5 50.34375 8.53125 
Q 43.703125 -1.421875 31.78125 -1.421875 
z
" id="DejaVuSerif-30"/>
      </defs>
      <g transform="translate(69.908421 596.793316)scale(0.0694 -0.0694)">
       <use xlink:href="#DejaVuSerif-35"/>
       <use x="63.623047" xlink:href="#DejaVuSerif-35"/>
       <use x="127.246094" xlink:href="#DejaVuSerif-30"/>
      </g>
     </g>
    </g>
    <g id="xtick_2">
     <g id="line2d_2">
      <g>
       <use style="stroke:#000000;stroke-width:0.8;" x="149.075642" xlink:href="#m0c96e55fa8" y="584.52"/>
      </g>
     </g>
     <g id="text_2">
      <!-- 600 -->
      <defs>
       <path d="M 32.71875 3.421875 
Q 39.59375 3.421875 43.296875 8.46875 
Q 47.015625 13.53125 47.015625 23 
Q 47.015625 32.46875 43.296875 37.515625 
Q 39.59375 42.578125 32.71875 42.578125 
Q 25.734375 42.578125 22.0625 37.6875 
Q 18.40625 32.8125 18.40625 23.578125 
Q 18.40625 13.875 22.109375 8.640625 
Q 25.828125 3.421875 32.71875 3.421875 
z
M 16.796875 40.140625 
Q 20.125 43.796875 24.3125 45.59375 
Q 28.515625 47.40625 33.796875 47.40625 
Q 44.671875 47.40625 51 40.859375 
Q 57.328125 34.328125 57.328125 23 
Q 57.328125 11.921875 50.515625 5.25 
Q 43.703125 -1.421875 32.328125 -1.421875 
Q 19.96875 -1.421875 13.328125 7.78125 
Q 6.6875 17 6.6875 34.078125 
Q 6.6875 53.21875 14.546875 63.71875 
Q 22.40625 74.21875 36.71875 74.21875 
Q 40.578125 74.21875 44.828125 73.484375 
Q 49.078125 72.75 53.515625 71.296875 
L 53.515625 59.28125 
L 48 59.28125 
Q 47.40625 64.203125 44.234375 66.796875 
Q 41.0625 69.390625 35.6875 69.390625 
Q 26.21875 69.390625 21.578125 62.203125 
Q 16.9375 55.03125 16.796875 40.140625 
z
" id="DejaVuSerif-36"/>
      </defs>
      <g transform="translate(142.45228 596.793316)scale(0.0694 -0.0694)">
       <use xlink:href="#DejaVuSerif-36"/>
       <use x="63.623047" xlink:href="#DejaVuSerif-30"/>
       <use x="127.246094" xlink:href="#DejaVuSerif-30"/>
      </g>
     </g>
    </g>
    <g id="xtick_3">
     <g id="line2d_3">
      <g>
       <use style="stroke:#000000;stroke-width:0.8;" x="221.619502" xlink:href="#m0c96e55fa8" y="584.52"/>
      </g>
     </g>
     <g id="text_3">
      <!-- 650 -->
      <g transform="translate(214.996139 596.793316)scale(0.0694 -0.0694)">
       <use xlink:href="#DejaVuSerif-36"/>
       <use x="63.623047" xlink:href="#DejaVuSerif-35"/>
       <use x="127.246094" xlink:href="#DejaVuSerif-30"/>
      </g>
     </g>
    </g>
    <g id="xtick_4">
     <g id="line2d_4">
      <g>
       <use style="stroke:#000000;stroke-width:0.8;" x="294.163361" xlink:href="#m0c96e55fa8" y="584.52"/>
      </g>
     </g>
     <g id="text_4">
      <!-- 700 -->
      <defs>
       <path d="M 56.390625 67.921875 
L 27.875 0 
L 20.609375 0 
L 47.796875 64.890625 
L 14.109375 64.890625 
L 14.109375 55.90625 
L 8.40625 55.90625 
L 8.40625 72.90625 
L 56.390625 72.90625 
z
" id="DejaVuSerif-37"/>
      </defs>
      <g transform="translate(287.539998 596.793316)scale(0.0694 -0.0694)">
       <use xlink:href="#DejaVuSerif-37"/>
       <use x="63.623047" xlink:href="#DejaVuSerif-30"/>
       <use x="127.246094" xlink:href="#DejaVuSerif-30"/>
      </g>
     </g>
    </g>
    <g id="xtick_5">
     <g id="line2d_5">
      <g>
       <use style="stroke:#000000;stroke-width:0.8;" x="366.70722" xlink:href="#m0c96e55fa8" y="584.52"/>
      </g>
     </g>
     <g id="text_5">
      <!-- 750 -->
      <g transform="translate(360.083857 596.793316)scale(0.0694 -0.0694)">
       <use xlink:href="#DejaVuSerif-37"/>
       <use x="63.623047" xlink:href="#DejaVuSerif-35"/>
       <use x="127.246094" xlink:href="#DejaVuSerif-30"/>
      </g>
     </g>
    </g>
    <g id="xtick_6">
     <g id="line2d_6">
      <g>
       <use style="stroke:#000000;stroke-width:0.8;" x="439.251079" xlink:href="#m0c96e55fa8" y="584.52"/>
      </g>
     </g>
     <g id="text_6">
      <!-- 800 -->
      <defs>
       <path d="M 46.578125 19.921875 
Q 46.578125 27.734375 42.6875 32.046875 
Q 38.8125 36.375 31.78125 36.375 
Q 24.75 36.375 20.875 32.046875 
Q 17 27.734375 17 19.921875 
Q 17 12.0625 20.875 7.734375 
Q 24.75 3.421875 31.78125 3.421875 
Q 38.8125 3.421875 42.6875 7.734375 
Q 46.578125 12.0625 46.578125 19.921875 
z
M 44.578125 55.328125 
Q 44.578125 61.96875 41.203125 65.671875 
Q 37.84375 69.390625 31.78125 69.390625 
Q 25.78125 69.390625 22.390625 65.671875 
Q 19 61.96875 19 55.328125 
Q 19 48.640625 22.390625 44.921875 
Q 25.78125 41.21875 31.78125 41.21875 
Q 37.84375 41.21875 41.203125 44.921875 
Q 44.578125 48.640625 44.578125 55.328125 
z
M 39.3125 38.8125 
Q 47.609375 37.703125 52.25 32.6875 
Q 56.890625 27.6875 56.890625 19.921875 
Q 56.890625 9.671875 50.390625 4.125 
Q 43.890625 -1.421875 31.78125 -1.421875 
Q 19.734375 -1.421875 13.203125 4.125 
Q 6.6875 9.671875 6.6875 19.921875 
Q 6.6875 27.6875 11.328125 32.6875 
Q 15.96875 37.703125 24.3125 38.8125 
Q 16.9375 40.140625 13 44.40625 
Q 9.078125 48.6875 9.078125 55.328125 
Q 9.078125 64.109375 15.125 69.15625 
Q 21.1875 74.21875 31.78125 74.21875 
Q 42.390625 74.21875 48.4375 69.15625 
Q 54.5 64.109375 54.5 55.328125 
Q 54.5 48.6875 50.5625 44.40625 
Q 46.625 40.140625 39.3125 38.8125 
z
" id="DejaVuSerif-38"/>
      </defs>
      <g transform="translate(432.627716 596.793316)scale(0.0694 -0.0694)">
       <use xlink:href="#DejaVuSerif-38"/>
       <use x="63.623047" xlink:href="#DejaVuSerif-30"/>
       <use x="127.246094" xlink:href="#DejaVuSerif-30"/>
      </g>
     </g>
    </g>
    <g id="xtick_7">
     <g id="line2d_7">
      <g>
       <use style="stroke:#000000;stroke-width:0.8;" x="511.794938" xlink:href="#m0c96e55fa8" y="584.52"/>
      </g>
     </g>
     <g id="text_7">
      <!-- 850 -->
      <g transform="translate(505.171575 596.793316)scale(0.0694 -0.0694)">
       <use xlink:href="#DejaVuSerif-38"/>
       <use x="63.623047" xlink:href="#DejaVuSerif-35"/>
       <use x="127.246094" xlink:href="#DejaVuSerif-30"/>
      </g>
     </g>
    </g>
    <g id="xtick_8">
     <g id="line2d_8">
      <g>
       <use style="stroke:#000000;stroke-width:0.8;" x="584.338797" xlink:href="#m0c96e55fa8" y="584.52"/>
      </g>
     </g>
     <g id="text_8">
      <!-- 900 -->
      <defs>
       <path d="M 46.78125 32.671875 
Q 43.5 29 39.25 27.1875 
Q 35.015625 25.390625 29.6875 25.390625 
Q 18.84375 25.390625 12.5625 31.9375 
Q 6.296875 38.484375 6.296875 49.8125 
Q 6.296875 60.890625 13.109375 67.546875 
Q 19.921875 74.21875 31.296875 74.21875 
Q 43.65625 74.21875 50.265625 65.015625 
Q 56.890625 55.8125 56.890625 38.71875 
Q 56.890625 19.578125 49.015625 9.078125 
Q 41.15625 -1.421875 26.90625 -1.421875 
Q 23.046875 -1.421875 18.796875 -0.6875 
Q 14.546875 0.046875 10.109375 1.515625 
L 10.109375 13.625 
L 15.578125 13.625 
Q 16.21875 8.6875 19.390625 6.046875 
Q 22.5625 3.421875 27.875 3.421875 
Q 37.359375 3.421875 41.984375 10.5625 
Q 46.625 17.71875 46.78125 32.671875 
z
M 30.90625 69.390625 
Q 23.96875 69.390625 20.28125 64.328125 
Q 16.609375 59.28125 16.609375 49.8125 
Q 16.609375 40.328125 20.28125 35.25 
Q 23.96875 30.171875 30.90625 30.171875 
Q 37.84375 30.171875 41.53125 35.078125 
Q 45.21875 39.984375 45.21875 49.21875 
Q 45.21875 58.9375 41.5 64.15625 
Q 37.796875 69.390625 30.90625 69.390625 
z
" id="DejaVuSerif-39"/>
      </defs>
      <g transform="translate(577.715435 596.793316)scale(0.0694 -0.0694)">
       <use xlink:href="#DejaVuSerif-39"/>
       <use x="63.623047" xlink:href="#DejaVuSerif-30"/>
       <use x="127.246094" xlink:href="#DejaVuSerif-30"/>
      </g>
     </g>
    </g>
    <g id="xtick_9">
     <g id="line2d_9">
      <g>
       <use style="stroke:#000000;stroke-width:0.8;" x="656.882656" xlink:href="#m0c96e55fa8" y="584.52"/>
      </g>
     </g>
     <g id="text_9">
      <!-- 950 -->
      <g transform="translate(650.259294 596.793316)scale(0.0694 -0.0694)">
       <use xlink:href="#DejaVuSerif-39"/>
       <use x="63.623047" xlink:href="#DejaVuSerif-35"/>
       <use x="127.246094" xlink:href="#DejaVuSerif-30"/>
      </g>
     </g>
    </g>
   </g>
   <g id="matplotlib.axis_2">
    <g id="ytick_1">
     <g id="line2d_10">
      <defs>
       <path d="M 0 0 
L -3.5 0 
" id="m530f27da5a" style="stroke:#000000;stroke-width:0.8;"/>
      </defs>
      <g>
       <use style="stroke:#000000;stroke-width:0.8;" x="68.16" xlink:href="#m530f27da5a" y="535.32064"/>
      </g>
     </g>
     <g id="text_10">
      <!-- 800 -->
      <g transform="translate(47.913275 537.957298)scale(0.0694 -0.0694)">
       <use xlink:href="#DejaVuSerif-38"/>
       <use x="63.623047" xlink:href="#DejaVuSerif-30"/>
       <use x="127.246094" xlink:href="#DejaVuSerif-30"/>
      </g>
     </g>
    </g>
    <g id="ytick_2">
     <g id="line2d_11">
      <g>
       <use style="stroke:#000000;stroke-width:0.8;" x="68.16" xlink:href="#m530f27da5a" y="456.5208"/>
      </g>
     </g>
     <g id="text_11">
      <!-- 1000 -->
      <defs>
       <path d="M 14.203125 0 
L 14.203125 5.171875 
L 26.90625 5.171875 
L 26.90625 65.828125 
L 12.203125 56.296875 
L 12.203125 62.703125 
L 29.984375 74.21875 
L 36.71875 74.21875 
L 36.71875 5.171875 
L 49.421875 5.171875 
L 49.421875 0 
z
" id="DejaVuSerif-31"/>
      </defs>
      <g transform="translate(43.4977 459.157458)scale(0.0694 -0.0694)">
       <use xlink:href="#DejaVuSerif-31"/>
       <use x="63.623047" xlink:href="#DejaVuSerif-30"/>
       <use x="127.246094" xlink:href="#DejaVuSerif-30"/>
       <use x="190.869141" xlink:href="#DejaVuSerif-30"/>
      </g>
     </g>
    </g>
    <g id="ytick_3">
     <g id="line2d_12">
      <g>
       <use style="stroke:#000000;stroke-width:0.8;" x="68.16" xlink:href="#m530f27da5a" y="377.72096"/>
      </g>
     </g>
     <g id="text_12">
      <!-- 1200 -->
      <defs>
       <path d="M 12.796875 55.515625 
L 7.328125 55.515625 
L 7.328125 68.5 
Q 12.546875 71.296875 17.84375 72.75 
Q 23.140625 74.21875 28.21875 74.21875 
Q 39.59375 74.21875 46.1875 68.703125 
Q 52.78125 63.1875 52.78125 53.71875 
Q 52.78125 43.015625 37.84375 28.125 
Q 36.671875 27 36.078125 26.421875 
L 17.671875 8.015625 
L 48.09375 8.015625 
L 48.09375 17 
L 53.8125 17 
L 53.8125 0 
L 6.78125 0 
L 6.78125 5.328125 
L 28.90625 27.390625 
Q 36.234375 34.71875 39.359375 40.84375 
Q 42.484375 46.96875 42.484375 53.71875 
Q 42.484375 61.078125 38.640625 65.234375 
Q 34.8125 69.390625 28.078125 69.390625 
Q 21.09375 69.390625 17.28125 65.921875 
Q 13.484375 62.453125 12.796875 55.515625 
z
" id="DejaVuSerif-32"/>
      </defs>
      <g transform="translate(43.4977 380.357618)scale(0.0694 -0.0694)">
       <use xlink:href="#DejaVuSerif-31"/>
       <use x="63.623047" xlink:href="#DejaVuSerif-32"/>
       <use x="127.246094" xlink:href="#DejaVuSerif-30"/>
       <use x="190.869141" xlink:href="#DejaVuSerif-30"/>
      </g>
     </g>
    </g>
    <g id="ytick_4">
     <g id="line2d_13">
      <g>
       <use style="stroke:#000000;stroke-width:0.8;" x="68.16" xlink:href="#m530f27da5a" y="298.92112"/>
      </g>
     </g>
     <g id="text_13">
      <!-- 1400 -->
      <defs>
       <path d="M 34.90625 24.703125 
L 34.90625 63.484375 
L 10.015625 24.703125 
z
M 56.390625 0 
L 23.1875 0 
L 23.1875 5.171875 
L 34.90625 5.171875 
L 34.90625 19.484375 
L 3.078125 19.484375 
L 3.078125 24.8125 
L 35.015625 74.21875 
L 44.671875 74.21875 
L 44.671875 24.703125 
L 58.59375 24.703125 
L 58.59375 19.484375 
L 44.671875 19.484375 
L 44.671875 5.171875 
L 56.390625 5.171875 
z
" id="DejaVuSerif-34"/>
      </defs>
      <g transform="translate(43.4977 301.557778)scale(0.0694 -0.0694)">
       <use xlink:href="#DejaVuSerif-31"/>
       <use x="63.623047" xlink:href="#DejaVuSerif-34"/>
       <use x="127.246094" xlink:href="#DejaVuSerif-30"/>
       <use x="190.869141" xlink:href="#DejaVuSerif-30"/>
      </g>
     </g>
    </g>
    <g id="ytick_5">
     <g id="line2d_14">
      <g>
       <use style="stroke:#000000;stroke-width:0.8;" x="68.16" xlink:href="#m530f27da5a" y="220.12128"/>
      </g>
     </g>
     <g id="text_14">
      <!-- 1600 -->
      <g transform="translate(43.4977 222.757938)scale(0.0694 -0.0694)">
       <use xlink:href="#DejaVuSerif-31"/>
       <use x="63.623047" xlink:href="#DejaVuSerif-36"/>
       <use x="127.246094" xlink:href="#DejaVuSerif-30"/>
       <use x="190.869141" xlink:href="#DejaVuSerif-30"/>
      </g>
     </g>
    </g>
    <g id="ytick_6">
     <g id="line2d_15">
      <g>
       <use style="stroke:#000000;stroke-width:0.8;" x="68.16" xlink:href="#m530f27da5a" y="141.32144"/>
      </g>
     </g>
     <g id="text_15">
      <!-- 1800 -->
      <g transform="translate(43.4977 143.958098)scale(0.0694 -0.0694)">
       <use xlink:href="#DejaVuSerif-31"/>
       <use x="63.623047" xlink:href="#DejaVuSerif-38"/>
       <use x="127.246094" xlink:href="#DejaVuSerif-30"/>
       <use x="190.869141" xlink:href="#DejaVuSerif-30"/>
      </g>
     </g>
    </g>
    <g id="ytick_7">
     <g id="line2d_16">
      <g>
       <use style="stroke:#000000;stroke-width:0.8;" x="68.16" xlink:href="#m530f27da5a" y="62.5216"/>
      </g>
     </g>
     <g id="text_16">
      <!-- 2000 -->
      <g transform="translate(43.4977 65.158258)scale(0.0694 -0.0694)">
       <use xlink:href="#DejaVuSerif-32"/>
       <use x="63.623047" xlink:href="#DejaVuSerif-30"/>
       <use x="127.246094" xlink:href="#DejaVuSerif-30"/>
       <use x="190.869141" xlink:href="#DejaVuSerif-30"/>
      </g>
     </g>
    </g>
   </g>
   <g id="patch_3">
    <path d="M 68.16 584.52 
L 68.16 52.52 
" style="fill:none;stroke:#000000;stroke-linecap:square;stroke-linejoin:miter;stroke-width:0.8;"/>
   </g>
   <g id="patch_4">
    <path d="M 660.368 584.52 
L 660.368 52.52 
" style="fill:none;stroke:#000000;stroke-linecap:square;stroke-linejoin:miter;stroke-width:0.8;"/>
   </g>
   <g id="patch_5">
    <path d="M 68.16 584.52 
L 660.368 584.52 
" style="fill:none;stroke:#000000;stroke-linecap:square;stroke-linejoin:miter;stroke-width:0.8;"/>
   </g>
   <g id="patch_6">
    <path d="M 68.16 52.52 
L 660.368 52.52 
" style="fill:none;stroke:#000000;stroke-linecap:square;stroke-linejoin:miter;stroke-width:0.8;"/>
   </g>
  </g>
  <g id="axes_2">
   <g id="patch_7">
    <path clip-path="url(#p50cc80aa3e)" d="M 697.381 584.52 
L 697.381 557.92 
L 697.381 79.12 
L 697.381 52.52 
L 723.981 52.52 
L 723.981 79.12 
L 723.981 557.92 
L 723.981 584.52 
z
" style="fill:#ffffff;stroke:#ffffff;stroke-linejoin:miter;stroke-width:0.01;"/>
   </g>
   <g id="QuadMesh_1">
    <path clip-path="url(#p50cc80aa3e)" d="M 697.381 584.52 
L 723.981 584.52 
L 723.981 557.92 
L 697.381 557.92 
L 697.381 584.52 
" style="fill:#fcfcfc;"/>
    <path clip-path="url(#p50cc80aa3e)" d="M 697.381 557.92 
L 723.981 557.92 
L 723.981 531.32 
L 697.381 531.32 
L 697.381 557.92 
" style="fill:#f6f6f6;"/>
    <path clip-path="url(#p50cc80aa3e)" d="M 697.381 531.32 
L 723.981 531.32 
L 723.981 504.72 
L 697.381 504.72 
L 697.381 531.32 
" style="fill:#f0f0f0;"/>
    <path clip-path="url(#p50cc80aa3e)" d="M 697.381 504.72 
L 723.981 504.72 
L 723.981 478.12 
L 697.381 478.12 
L 697.381 504.72 
" style="fill:#e7e7e7;"/>
    <path clip-path="url(#p50cc80aa3e)" d="M 697.381 478.12 
L 723.981 478.12 
L 723.981 451.52 
L 697.381 451.52 
L 697.381 478.12 
" style="fill:#dedede;"/>
    <path clip-path="url(#p50cc80aa3e)" d="M 697.381 451.52 
L 723.981 451.52 
L 723.981 424.92 
L 697.381 424.92 
L 697.381 451.52 
" style="fill:#d4d4d4;"/>
    <path clip-path="url(#p50cc80aa3e)" d="M 697.381 424.92 
L 723.981 424.92 
L 723.981 398.32 
L 697.381 398.32 
L 697.381 424.92 
" style="fill:#c8c8c8;"/>
    <path clip-path="url(#p50cc80aa3e)" d="M 697.381 398.32 
L 723.981 398.32 
L 723.981 371.72 
L 697.381 371.72 
L 697.381 398.32 
" style="fill:#bdbdbd;"/>
    <path clip-path="url(#p50cc80aa3e)" d="M 697.381 371.72 
L 723.981 371.72 
L 723.981 345.12 
L 697.381 345.12 
L 697.381 371.72 
" style="fill:#aeaeae;"/>
    <path clip-path="url(#p50cc80aa3e)" d="M 697.381 345.12 
L 723.981 345.12 
L 723.981 318.52 
L 697.381 318.52 
L 697.381 345.12 
" style="fill:#9e9e9e;"/>
    <path clip-path="url(#p50cc80aa3e)" d="M 697.381 318.52 
L 723.981 318.52 
L 723.981 291.92 
L 697.381 291.92 
L 697.381 318.52 
" style="fill:#8f8f8f;"/>
    <path clip-path="url(#p50cc80aa3e)" d="M 697.381 291.92 
L 723.981 291.92 
L 723.981 265.32 
L 697.381 265.32 
L 697.381 291.92 
" style="fill:#818181;"/>
    <path clip-path="url(#p50cc80aa3e)" d="M 697.381 265.32 
L 723.981 265.32 
L 723.981 238.72 
L 697.381 238.72 
L 697.381 265.32 
" style="fill:#727272;"/>
    <path clip-path="url(#p50cc80aa3e)" d="M 697.381 238.72 
L 723.981 238.72 
L 723.981 212.12 
L 697.381 212.12 
L 697.381 238.72 
" style="fill:#666666;"/>
    <path clip-path="url(#p50cc80aa3e)" d="M 697.381 212.12 
L 723.981 212.12 
L 723.981 185.52 
L 697.381 185.52 
L 697.381 212.12 
" style="fill:#585858;"/>
    <path clip-path="url(#p50cc80aa3e)" d="M 697.381 185.52 
L 723.981 185.52 
L 723.981 158.92 
L 697.381 158.92 
L 697.381 185.52 
" style="fill:#484848;"/>
    <path clip-path="url(#p50cc80aa3e)" d="M 697.381 158.92 
L 723.981 158.92 
L 723.981 132.32 
L 697.381 132.32 
L 697.381 158.92 
" style="fill:#363636;"/>
    <path clip-path="url(#p50cc80aa3e)" d="M 697.381 132.32 
L 723.981 132.32 
L 723.981 105.72 
L 697.381 105.72 
L 697.381 132.32 
" style="fill:#242424;"/>
    <path clip-path="url(#p50cc80aa3e)" d="M 697.381 105.72 
L 723.981 105.72 
L 723.981 79.12 
L 697.381 79.12 
L 697.381 105.72 
" style="fill:#161616;"/>
    <path clip-path="url(#p50cc80aa3e)" d="M 697.381 79.12 
L 723.981 79.12 
L 723.981 52.52 
L 697.381 52.52 
L 697.381 79.12 
" style="fill:#070707;"/>
   </g>
   <g id="matplotlib.axis_3"/>
   <g id="matplotlib.axis_4">
    <g id="ytick_8">
     <g id="line2d_17">
      <defs>
       <path d="M 0 0 
L 3.5 0 
" id="m2dda097150" style="stroke:#000000;stroke-width:0.8;"/>
      </defs>
      <g>
       <use style="stroke:#000000;stroke-width:0.8;" x="723.981" xlink:href="#m2dda097150" y="531.32"/>
      </g>
     </g>
     <g id="text_17">
      <!-- −0.000800 -->
      <defs>
       <path d="M 10.59375 35.296875 
L 73.1875 35.296875 
L 73.1875 27.390625 
L 10.59375 27.390625 
z
" id="DejaVuSerif-2212"/>
       <path d="M 9.421875 5.078125 
Q 9.421875 7.8125 11.28125 9.71875 
Q 13.140625 11.625 15.921875 11.625 
Q 18.609375 11.625 20.5 9.71875 
Q 22.40625 7.8125 22.40625 5.078125 
Q 22.40625 2.390625 20.5 0.484375 
Q 18.609375 -1.421875 15.921875 -1.421875 
Q 13.140625 -1.421875 11.28125 0.453125 
Q 9.421875 2.34375 9.421875 5.078125 
z
" id="DejaVuSerif-2e"/>
      </defs>
      <g transform="translate(730.981 533.956658)scale(0.0694 -0.0694)">
       <use xlink:href="#DejaVuSerif-2212"/>
       <use x="83.789062" xlink:href="#DejaVuSerif-30"/>
       <use x="147.412109" xlink:href="#DejaVuSerif-2e"/>
       <use x="179.199219" xlink:href="#DejaVuSerif-30"/>
       <use x="242.822266" xlink:href="#DejaVuSerif-30"/>
       <use x="306.445312" xlink:href="#DejaVuSerif-30"/>
       <use x="370.068359" xlink:href="#DejaVuSerif-38"/>
       <use x="433.691406" xlink:href="#DejaVuSerif-30"/>
       <use x="497.314453" xlink:href="#DejaVuSerif-30"/>
      </g>
     </g>
    </g>
    <g id="ytick_9">
     <g id="line2d_18">
      <g>
       <use style="stroke:#000000;stroke-width:0.8;" x="723.981" xlink:href="#m2dda097150" y="451.52"/>
      </g>
     </g>
     <g id="text_18">
      <!-- −0.000725 -->
      <g transform="translate(730.981 454.156658)scale(0.0694 -0.0694)">
       <use xlink:href="#DejaVuSerif-2212"/>
       <use x="83.789062" xlink:href="#DejaVuSerif-30"/>
       <use x="147.412109" xlink:href="#DejaVuSerif-2e"/>
       <use x="179.199219" xlink:href="#DejaVuSerif-30"/>
       <use x="242.822266" xlink:href="#DejaVuSerif-30"/>
       <use x="306.445312" xlink:href="#DejaVuSerif-30"/>
       <use x="370.068359" xlink:href="#DejaVuSerif-37"/>
       <use x="433.691406" xlink:href="#DejaVuSerif-32"/>
       <use x="497.314453" xlink:href="#DejaVuSerif-35"/>
      </g>
     </g>
    </g>
    <g id="ytick_10">
     <g id="line2d_19">
      <g>
       <use style="stroke:#000000;stroke-width:0.8;" x="723.981" xlink:href="#m2dda097150" y="371.72"/>
      </g>
     </g>
     <g id="text_19">
      <!-- −0.000650 -->
      <g transform="translate(730.981 374.356658)scale(0.0694 -0.0694)">
       <use xlink:href="#DejaVuSerif-2212"/>
       <use x="83.789062" xlink:href="#DejaVuSerif-30"/>
       <use x="147.412109" xlink:href="#DejaVuSerif-2e"/>
       <use x="179.199219" xlink:href="#DejaVuSerif-30"/>
       <use x="242.822266" xlink:href="#DejaVuSerif-30"/>
       <use x="306.445312" xlink:href="#DejaVuSerif-30"/>
       <use x="370.068359" xlink:href="#DejaVuSerif-36"/>
       <use x="433.691406" xlink:href="#DejaVuSerif-35"/>
       <use x="497.314453" xlink:href="#DejaVuSerif-30"/>
      </g>
     </g>
    </g>
    <g id="ytick_11">
     <g id="line2d_20">
      <g>
       <use style="stroke:#000000;stroke-width:0.8;" x="723.981" xlink:href="#m2dda097150" y="291.92"/>
      </g>
     </g>
     <g id="text_20">
      <!-- −0.000575 -->
      <g transform="translate(730.981 294.556658)scale(0.0694 -0.0694)">
       <use xlink:href="#DejaVuSerif-2212"/>
       <use x="83.789062" xlink:href="#DejaVuSerif-30"/>
       <use x="147.412109" xlink:href="#DejaVuSerif-2e"/>
       <use x="179.199219" xlink:href="#DejaVuSerif-30"/>
       <use x="242.822266" xlink:href="#DejaVuSerif-30"/>
       <use x="306.445312" xlink:href="#DejaVuSerif-30"/>
       <use x="370.068359" xlink:href="#DejaVuSerif-35"/>
       <use x="433.691406" xlink:href="#DejaVuSerif-37"/>
       <use x="497.314453" xlink:href="#DejaVuSerif-35"/>
      </g>
     </g>
    </g>
    <g id="ytick_12">
     <g id="line2d_21">
      <g>
       <use style="stroke:#000000;stroke-width:0.8;" x="723.981" xlink:href="#m2dda097150" y="212.12"/>
      </g>
     </g>
     <g id="text_21">
      <!-- −0.000500 -->
      <g transform="translate(730.981 214.756658)scale(0.0694 -0.0694)">
       <use xlink:href="#DejaVuSerif-2212"/>
       <use x="83.789062" xlink:href="#DejaVuSerif-30"/>
       <use x="147.412109" xlink:href="#DejaVuSerif-2e"/>
       <use x="179.199219" xlink:href="#DejaVuSerif-30"/>
       <use x="242.822266" xlink:href="#DejaVuSerif-30"/>
       <use x="306.445312" xlink:href="#DejaVuSerif-30"/>
       <use x="370.068359" xlink:href="#DejaVuSerif-35"/>
       <use x="433.691406" xlink:href="#DejaVuSerif-30"/>
       <use x="497.314453" xlink:href="#DejaVuSerif-30"/>
      </g>
     </g>
    </g>
    <g id="ytick_13">
     <g id="line2d_22">
      <g>
       <use style="stroke:#000000;stroke-width:0.8;" x="723.981" xlink:href="#m2dda097150" y="132.32"/>
      </g>
     </g>
     <g id="text_22">
      <!-- −0.000425 -->
      <g transform="translate(730.981 134.956658)scale(0.0694 -0.0694)">
       <use xlink:href="#DejaVuSerif-2212"/>
       <use x="83.789062" xlink:href="#DejaVuSerif-30"/>
       <use x="147.412109" xlink:href="#DejaVuSerif-2e"/>
       <use x="179.199219" xlink:href="#DejaVuSerif-30"/>
       <use x="242.822266" xlink:href="#DejaVuSerif-30"/>
       <use x="306.445312" xlink:href="#DejaVuSerif-30"/>
       <use x="370.068359" xlink:href="#DejaVuSerif-34"/>
       <use x="433.691406" xlink:href="#DejaVuSerif-32"/>
       <use x="497.314453" xlink:href="#DejaVuSerif-35"/>
      </g>
     </g>
    </g>
    <g id="ytick_14">
     <g id="line2d_23">
      <g>
       <use style="stroke:#000000;stroke-width:0.8;" x="723.981" xlink:href="#m2dda097150" y="52.52"/>
      </g>
     </g>
     <g id="text_23">
      <!-- −0.000350 -->
      <defs>
       <path d="M 9.71875 69.828125 
Q 15.4375 71.96875 20.671875 73.09375 
Q 25.921875 74.21875 30.515625 74.21875 
Q 41.21875 74.21875 47.21875 69.59375 
Q 53.21875 64.984375 53.21875 56.78125 
Q 53.21875 50.203125 49.0625 45.78125 
Q 44.921875 41.359375 37.3125 39.796875 
Q 46.296875 38.53125 51.25 33.28125 
Q 56.203125 28.03125 56.203125 19.671875 
Q 56.203125 9.46875 49.34375 4.015625 
Q 42.484375 -1.421875 29.59375 -1.421875 
Q 23.875 -1.421875 18.421875 -0.1875 
Q 12.984375 1.03125 7.625 3.515625 
L 7.625 17.671875 
L 13.09375 17.671875 
Q 13.578125 10.640625 17.828125 7.03125 
Q 22.078125 3.421875 29.78125 3.421875 
Q 37.25 3.421875 41.578125 7.734375 
Q 45.90625 12.0625 45.90625 19.578125 
Q 45.90625 28.171875 41.453125 32.59375 
Q 37.015625 37.015625 28.421875 37.015625 
L 23.78125 37.015625 
L 23.78125 42 
L 26.21875 42 
Q 34.765625 42 39.03125 45.53125 
Q 43.3125 49.078125 43.3125 56.203125 
Q 43.3125 62.59375 39.796875 65.984375 
Q 36.28125 69.390625 29.6875 69.390625 
Q 23.09375 69.390625 19.453125 66.265625 
Q 15.828125 63.140625 15.1875 56.984375 
L 9.71875 56.984375 
z
" id="DejaVuSerif-33"/>
      </defs>
      <g transform="translate(730.981 55.156658)scale(0.0694 -0.0694)">
       <use xlink:href="#DejaVuSerif-2212"/>
       <use x="83.789062" xlink:href="#DejaVuSerif-30"/>
       <use x="147.412109" xlink:href="#DejaVuSerif-2e"/>
       <use x="179.199219" xlink:href="#DejaVuSerif-30"/>
       <use x="242.822266" xlink:href="#DejaVuSerif-30"/>
       <use x="306.445312" xlink:href="#DejaVuSerif-30"/>
       <use x="370.068359" xlink:href="#DejaVuSerif-33"/>
       <use x="433.691406" xlink:href="#DejaVuSerif-35"/>
       <use x="497.314453" xlink:href="#DejaVuSerif-30"/>
      </g>
     </g>
    </g>
    <g id="text_24">
     <!-- −5.37426e2 -->
     <defs>
      <path d="M 54.203125 25 
L 15.484375 25 
L 15.484375 24.609375 
Q 15.484375 14.109375 19.4375 8.765625 
Q 23.390625 3.421875 31.109375 3.421875 
Q 37.015625 3.421875 40.796875 6.515625 
Q 44.578125 9.625 46.09375 15.71875 
L 53.328125 15.71875 
Q 51.171875 7.171875 45.375 2.875 
Q 39.59375 -1.421875 30.171875 -1.421875 
Q 18.796875 -1.421875 11.890625 6.078125 
Q 4.984375 13.578125 4.984375 25.984375 
Q 4.984375 38.28125 11.765625 45.796875 
Q 18.5625 53.328125 29.59375 53.328125 
Q 41.359375 53.328125 47.65625 46.0625 
Q 53.953125 38.8125 54.203125 25 
z
M 43.609375 30.171875 
Q 43.3125 39.265625 39.765625 43.875 
Q 36.234375 48.484375 29.59375 48.484375 
Q 23.390625 48.484375 19.828125 43.84375 
Q 16.265625 39.203125 15.484375 30.171875 
z
" id="DejaVuSerif-65"/>
     </defs>
     <g transform="translate(680.943241 49.52)scale(0.0694 -0.0694)">
      <use xlink:href="#DejaVuSerif-2212"/>
      <use x="83.789062" xlink:href="#DejaVuSerif-35"/>
      <use x="147.412109" xlink:href="#DejaVuSerif-2e"/>
      <use x="179.199219" xlink:href="#DejaVuSerif-33"/>
      <use x="242.822266" xlink:href="#DejaVuSerif-37"/>
      <use x="306.445312" xlink:href="#DejaVuSerif-34"/>
      <use x="370.068359" xlink:href="#DejaVuSerif-32"/>
      <use x="433.691406" xlink:href="#DejaVuSerif-36"/>
      <use x="497.314453" xlink:href="#DejaVuSerif-65"/>
      <use x="556.494141" xlink:href="#DejaVuSerif-32"/>
     </g>
    </g>
   </g>
   <g id="patch_8">
    <path d="M 697.381 584.52 
L 697.381 557.92 
L 697.381 79.12 
L 697.381 52.52 
L 723.981 52.52 
L 723.981 79.12 
L 723.981 557.92 
L 723.981 584.52 
z
" style="fill:none;stroke:#000000;stroke-linejoin:miter;stroke-width:0.8;"/>
   </g>
  </g>
 </g>
 <defs>
  <clipPath id="p9d76b24c02">
   <rect height="532" width="592.208" x="68.16" y="52.52"/>
  </clipPath>
  <clipPath id="p50cc80aa3e">
   <rect height="532" width="26.6" x="697.381" y="52.52"/>
  </clipPath>
 </defs>
</svg>
