<?xml version="1.0" encoding="utf-8" standalone="no"?>
<!DOCTYPE svg PUBLIC "-//W3C//DTD SVG 1.1//EN"
  "http://www.w3.org/Graphics/SVG/1.1/DTD/svg11.dtd">
<!-- Created with matplotlib (http://matplotlib.org/) -->
<svg height="648pt" version="1.1" viewBox="0 0 864 648" width="864pt" xmlns="http://www.w3.org/2000/svg" xmlns:xlink="http://www.w3.org/1999/xlink">
 <defs>
  <style type="text/css">
*{stroke-linecap:butt;stroke-linejoin:round;}
  </style>
 </defs>
 <g id="figure_1">
  <g id="patch_1">
   <path d="M 0 648 
L 864 648 
L 864 0 
L 0 0 
z
" style="fill:#ffffff;"/>
  </g>
  <g id="axes_1">
   <g id="patch_2">
    <path d="M 68.16 584.52 
L 660.368 584.52 
L 660.368 52.52 
L 68.16 52.52 
z
" style="fill:#ffffff;"/>
   </g>
   <g id="PathCollection_1">
    <path clip-path="url(#p88cd90a5e7)" d="M 75.260324 161.091429 
L 68.16 89.386326 
L 68.16 161.091429 
L 68.16 257.43795 
z
" style="fill:#fcfcfc;"/>
   </g>
   <g id="PathCollection_2">
    <path clip-path="url(#p88cd90a5e7)" d="M 69.283601 486.805714 
L 78.419739 378.234286 
L 87.44447 269.662857 
L 95.604364 161.091429 
L 86.284773 52.52 
L 68.16 52.52 
L 68.16 89.386326 
L 75.260324 161.091429 
L 68.16 257.43795 
L 68.16 269.662857 
L 68.16 378.234286 
L 68.16 486.805714 
L 68.16 500.058898 
z
" style="fill:#f5f5f5;"/>
   </g>
   <g id="PathCollection_3">
    <path clip-path="url(#p88cd90a5e7)" d="M 82.466605 573.662857 
L 85.187267 541.091429 
L 87.012666 519.377143 
L 87.931362 508.52 
L 89.773247 486.805714 
L 98.764128 378.234286 
L 107.622512 269.662857 
L 115.948403 161.091429 
L 108.373088 52.52 
L 86.284773 52.52 
L 95.604364 161.091429 
L 87.44447 269.662857 
L 78.419739 378.234286 
L 69.283601 486.805714 
L 68.16 500.058898 
L 68.16 508.52 
L 68.16 519.377143 
L 68.16 541.091429 
L 68.16 573.662857 
L 68.16 584.52 
L 81.564046 584.52 
z
" style="fill:#ececec;"/>
   </g>
   <g id="PathCollection_4">
    <path clip-path="url(#p88cd90a5e7)" d="M 103.021519 573.662857 
L 105.693399 541.091429 
L 107.502954 519.377143 
L 108.42002 508.52 
L 110.262892 486.805714 
L 119.108517 378.234286 
L 127.800554 269.662857 
L 136.292443 161.091429 
L 130.461402 52.52 
L 108.373088 52.52 
L 115.948403 161.091429 
L 107.622512 269.662857 
L 98.764128 378.234286 
L 89.773247 486.805714 
L 87.931362 508.52 
L 87.012666 519.377143 
L 85.187267 541.091429 
L 82.466605 573.662857 
L 81.564046 584.52 
L 102.1364 584.52 
z
" style="fill:#e1e1e1;"/>
   </g>
   <g id="PathCollection_5">
    <path clip-path="url(#p88cd90a5e7)" d="M 123.576432 573.662857 
L 126.199531 541.091429 
L 127.993242 519.377143 
L 128.908678 508.52 
L 130.752538 486.805714 
L 139.452906 378.234286 
L 147.978596 269.662857 
L 156.636483 161.091429 
L 152.549716 52.52 
L 130.461402 52.52 
L 136.292443 161.091429 
L 127.800554 269.662857 
L 119.108517 378.234286 
L 110.262892 486.805714 
L 108.42002 508.52 
L 107.502954 519.377143 
L 105.693399 541.091429 
L 103.021519 573.662857 
L 102.1364 584.52 
L 122.708754 584.52 
z
" style="fill:#d6d6d6;"/>
   </g>
   <g id="PathCollection_6">
    <path clip-path="url(#p88cd90a5e7)" d="M 144.131346 573.662857 
L 146.705664 541.091429 
L 148.48353 519.377143 
L 149.397335 508.52 
L 151.242183 486.805714 
L 159.797295 378.234286 
L 168.156638 269.662857 
L 176.980522 161.091429 
L 174.638031 52.52 
L 152.549716 52.52 
L 156.636483 161.091429 
L 147.978596 269.662857 
L 139.452906 378.234286 
L 130.752538 486.805714 
L 128.908678 508.52 
L 127.993242 519.377143 
L 126.199531 541.091429 
L 123.576432 573.662857 
L 122.708754 584.52 
L 143.281108 584.52 
z
" style="fill:#c9c9c9;"/>
   </g>
   <g id="PathCollection_7">
    <path clip-path="url(#p88cd90a5e7)" d="M 164.686259 573.662857 
L 167.211796 541.091429 
L 168.973818 519.377143 
L 169.885993 508.52 
L 171.731829 486.805714 
L 180.141684 378.234286 
L 188.334679 269.662857 
L 197.324562 161.091429 
L 196.726345 52.52 
L 174.638031 52.52 
L 176.980522 161.091429 
L 168.156638 269.662857 
L 159.797295 378.234286 
L 151.242183 486.805714 
L 149.397335 508.52 
L 148.48353 519.377143 
L 146.705664 541.091429 
L 144.131346 573.662857 
L 143.281108 584.52 
L 163.853462 584.52 
z
" style="fill:#bbbbbb;"/>
   </g>
   <g id="PathCollection_8">
    <path clip-path="url(#p88cd90a5e7)" d="M 185.241173 573.662857 
L 187.717928 541.091429 
L 189.464106 519.377143 
L 190.37465 508.52 
L 192.221474 486.805714 
L 200.486073 378.234286 
L 208.512721 269.662857 
L 217.668601 161.091429 
L 218.814659 52.52 
L 196.726345 52.52 
L 197.324562 161.091429 
L 188.334679 269.662857 
L 180.141684 378.234286 
L 171.731829 486.805714 
L 169.885993 508.52 
L 168.973818 519.377143 
L 167.211796 541.091429 
L 164.686259 573.662857 
L 163.853462 584.52 
L 184.425816 584.52 
z
" style="fill:#a9a9a9;"/>
   </g>
   <g id="PathCollection_9">
    <path clip-path="url(#p88cd90a5e7)" d="M 205.796087 573.662857 
L 208.22406 541.091429 
L 209.954394 519.377143 
L 210.863308 508.52 
L 212.71112 486.805714 
L 220.830462 378.234286 
L 228.690763 269.662857 
L 238.012641 161.091429 
L 240.902973 52.52 
L 218.814659 52.52 
L 217.668601 161.091429 
L 208.512721 269.662857 
L 200.486073 378.234286 
L 192.221474 486.805714 
L 190.37465 508.52 
L 189.464106 519.377143 
L 187.717928 541.091429 
L 185.241173 573.662857 
L 184.425816 584.52 
L 204.998171 584.52 
z
" style="fill:#959595;"/>
   </g>
   <g id="PathCollection_10">
    <path clip-path="url(#p88cd90a5e7)" d="M 226.351 573.662857 
L 228.730193 541.091429 
L 230.444682 519.377143 
L 231.351965 508.52 
L 233.200766 486.805714 
L 241.174851 378.234286 
L 248.868805 269.662857 
L 258.356681 161.091429 
L 262.991288 52.52 
L 240.902973 52.52 
L 238.012641 161.091429 
L 228.690763 269.662857 
L 220.830462 378.234286 
L 212.71112 486.805714 
L 210.863308 508.52 
L 209.954394 519.377143 
L 208.22406 541.091429 
L 205.796087 573.662857 
L 204.998171 584.52 
L 225.570525 584.52 
z
" style="fill:#858585;"/>
   </g>
   <g id="PathCollection_11">
    <path clip-path="url(#p88cd90a5e7)" d="M 246.905914 573.662857 
L 249.236325 541.091429 
L 250.93497 519.377143 
L 251.840623 508.52 
L 253.690411 486.805714 
L 261.519241 378.234286 
L 269.046847 269.662857 
L 278.70072 161.091429 
L 285.079602 52.52 
L 262.991288 52.52 
L 258.356681 161.091429 
L 248.868805 269.662857 
L 241.174851 378.234286 
L 233.200766 486.805714 
L 231.351965 508.52 
L 230.444682 519.377143 
L 228.730193 541.091429 
L 226.351 573.662857 
L 225.570525 584.52 
L 246.142879 584.52 
z
" style="fill:#757575;"/>
   </g>
   <g id="PathCollection_12">
    <path clip-path="url(#p88cd90a5e7)" d="M 267.460827 573.662857 
L 269.742457 541.091429 
L 271.425258 519.377143 
L 272.329281 508.52 
L 274.180057 486.805714 
L 281.86363 378.234286 
L 289.224889 269.662857 
L 299.04476 161.091429 
L 307.167916 52.52 
L 285.079602 52.52 
L 278.70072 161.091429 
L 269.046847 269.662857 
L 261.519241 378.234286 
L 253.690411 486.805714 
L 251.840623 508.52 
L 250.93497 519.377143 
L 249.236325 541.091429 
L 246.905914 573.662857 
L 246.142879 584.52 
L 266.715233 584.52 
z
" style="fill:#656565;"/>
   </g>
   <g id="PathCollection_13">
    <path clip-path="url(#p88cd90a5e7)" d="M 288.015741 573.662857 
L 290.248589 541.091429 
L 291.915546 519.377143 
L 292.817938 508.52 
L 294.669702 486.805714 
L 302.208019 378.234286 
L 309.402931 269.662857 
L 319.3888 161.091429 
L 329.256231 52.52 
L 307.167916 52.52 
L 299.04476 161.091429 
L 289.224889 269.662857 
L 281.86363 378.234286 
L 274.180057 486.805714 
L 272.329281 508.52 
L 271.425258 519.377143 
L 269.742457 541.091429 
L 267.460827 573.662857 
L 266.715233 584.52 
L 287.287587 584.52 
z
" style="fill:#555555;"/>
   </g>
   <g id="PathCollection_14">
    <path clip-path="url(#p88cd90a5e7)" d="M 308.570654 573.662857 
L 310.754722 541.091429 
L 312.405834 519.377143 
L 313.306596 508.52 
L 315.159348 486.805714 
L 322.552408 378.234286 
L 329.580973 269.662857 
L 339.732839 161.091429 
L 351.344545 52.52 
L 329.256231 52.52 
L 319.3888 161.091429 
L 309.402931 269.662857 
L 302.208019 378.234286 
L 294.669702 486.805714 
L 292.817938 508.52 
L 291.915546 519.377143 
L 290.248589 541.091429 
L 288.015741 573.662857 
L 287.287587 584.52 
L 307.859941 584.52 
z
" style="fill:#414141;"/>
    <path clip-path="url(#p88cd90a5e7)" d="M 660.368 495.853669 
L 660.368 486.805714 
L 660.368 378.234286 
L 660.368 269.662857 
L 660.368 161.091429 
L 660.368 52.52 
L 506.017059 52.52 
L 593.009579 161.091429 
L 641.083839 269.662857 
L 653.825494 378.234286 
L 659.504491 486.805714 
z
" style="fill:#414141;"/>
   </g>
   <g id="PathCollection_15">
    <path clip-path="url(#p88cd90a5e7)" d="M 329.125568 573.662857 
L 331.260854 541.091429 
L 332.896122 519.377143 
L 333.795253 508.52 
L 335.648993 486.805714 
L 342.896797 378.234286 
L 349.759015 269.662857 
L 360.076879 161.091429 
L 364.264 125.103131 
L 403.307626 161.091429 
L 480.034394 269.662857 
L 512.59493 378.234286 
L 536.31101 486.805714 
L 542.013506 508.52 
L 544.676279 519.377143 
L 550.292115 541.091429 
L 558.490957 573.662857 
L 560.337481 584.52 
L 660.368 584.52 
L 660.368 573.662857 
L 660.368 541.091429 
L 660.368 519.377143 
L 660.368 508.52 
L 660.368 495.853669 
L 659.504491 486.805714 
L 653.825494 378.234286 
L 641.083839 269.662857 
L 593.009579 161.091429 
L 506.017059 52.52 
L 364.264 52.52 
L 351.344545 52.52 
L 339.732839 161.091429 
L 329.580973 269.662857 
L 322.552408 378.234286 
L 315.159348 486.805714 
L 313.306596 508.52 
L 312.405834 519.377143 
L 310.754722 541.091429 
L 308.570654 573.662857 
L 307.859941 584.52 
L 328.432295 584.52 
z
" style="fill:#2c2c2c;"/>
   </g>
   <g id="PathCollection_16">
    <path clip-path="url(#p88cd90a5e7)" d="M 349.680482 573.662857 
L 351.766986 541.091429 
L 353.38641 519.377143 
L 354.283911 508.52 
L 356.138639 486.805714 
L 363.241186 378.234286 
L 364.264 361.764712 
L 371.364367 378.234286 
L 413.11753 486.805714 
L 422.486149 508.52 
L 426.826432 519.377143 
L 434.705646 541.091429 
L 444.874097 573.662857 
L 447.764186 584.52 
L 560.337481 584.52 
L 558.490957 573.662857 
L 550.292115 541.091429 
L 544.676279 519.377143 
L 542.013506 508.52 
L 536.31101 486.805714 
L 512.59493 378.234286 
L 480.034394 269.662857 
L 403.307626 161.091429 
L 364.264 125.103131 
L 360.076879 161.091429 
L 349.759015 269.662857 
L 342.896797 378.234286 
L 335.648993 486.805714 
L 333.795253 508.52 
L 332.896122 519.377143 
L 331.260854 541.091429 
L 329.125568 573.662857 
L 328.432295 584.52 
L 349.004649 584.52 
z
" style="fill:#1a1a1a;"/>
   </g>
   <g id="PathCollection_17">
    <path clip-path="url(#p88cd90a5e7)" d="M 364.264 584.52 
L 447.764186 584.52 
L 444.874097 573.662857 
L 434.705646 541.091429 
L 426.826432 519.377143 
L 422.486149 508.52 
L 413.11753 486.805714 
L 371.364367 378.234286 
L 364.264 361.764712 
L 363.241186 378.234286 
L 356.138639 486.805714 
L 354.283911 508.52 
L 353.38641 519.377143 
L 351.766986 541.091429 
L 349.680482 573.662857 
L 349.004649 584.52 
z
" style="fill:#080808;"/>
   </g>
   <g id="matplotlib.axis_1">
    <g id="xtick_1">
     <g id="line2d_1">
      <defs>
       <path d="M 0 0 
L 0 3.5 
" id="mbfe4f5f446" style="stroke:#000000;stroke-width:0.8;"/>
      </defs>
      <g>
       <use style="stroke:#000000;stroke-width:0.8;" x="68.16" xlink:href="#mbfe4f5f446" y="584.52"/>
      </g>
     </g>
     <g id="text_1">
      <!-- 3.0 -->
      <defs>
       <path d="M 9.71875 69.828125 
Q 15.4375 71.96875 20.671875 73.09375 
Q 25.921875 74.21875 30.515625 74.21875 
Q 41.21875 74.21875 47.21875 69.59375 
Q 53.21875 64.984375 53.21875 56.78125 
Q 53.21875 50.203125 49.0625 45.78125 
Q 44.921875 41.359375 37.3125 39.796875 
Q 46.296875 38.53125 51.25 33.28125 
Q 56.203125 28.03125 56.203125 19.671875 
Q 56.203125 9.46875 49.34375 4.015625 
Q 42.484375 -1.421875 29.59375 -1.421875 
Q 23.875 -1.421875 18.421875 -0.1875 
Q 12.984375 1.03125 7.625 3.515625 
L 7.625 17.671875 
L 13.09375 17.671875 
Q 13.578125 10.640625 17.828125 7.03125 
Q 22.078125 3.421875 29.78125 3.421875 
Q 37.25 3.421875 41.578125 7.734375 
Q 45.90625 12.0625 45.90625 19.578125 
Q 45.90625 28.171875 41.453125 32.59375 
Q 37.015625 37.015625 28.421875 37.015625 
L 23.78125 37.015625 
L 23.78125 42 
L 26.21875 42 
Q 34.765625 42 39.03125 45.53125 
Q 43.3125 49.078125 43.3125 56.203125 
Q 43.3125 62.59375 39.796875 65.984375 
Q 36.28125 69.390625 29.6875 69.390625 
Q 23.09375 69.390625 19.453125 66.265625 
Q 15.828125 63.140625 15.1875 56.984375 
L 9.71875 56.984375 
z
" id="DejaVuSerif-33"/>
       <path d="M 9.421875 5.078125 
Q 9.421875 7.8125 11.28125 9.71875 
Q 13.140625 11.625 15.921875 11.625 
Q 18.609375 11.625 20.5 9.71875 
Q 22.40625 7.8125 22.40625 5.078125 
Q 22.40625 2.390625 20.5 0.484375 
Q 18.609375 -1.421875 15.921875 -1.421875 
Q 13.140625 -1.421875 11.28125 0.453125 
Q 9.421875 2.34375 9.421875 5.078125 
z
" id="DejaVuSerif-2e"/>
       <path d="M 31.78125 3.421875 
Q 39.265625 3.421875 42.96875 11.625 
Q 46.6875 19.828125 46.6875 36.375 
Q 46.6875 52.984375 42.96875 61.1875 
Q 39.265625 69.390625 31.78125 69.390625 
Q 24.3125 69.390625 20.59375 61.1875 
Q 16.890625 52.984375 16.890625 36.375 
Q 16.890625 19.828125 20.59375 11.625 
Q 24.3125 3.421875 31.78125 3.421875 
z
M 31.78125 -1.421875 
Q 19.921875 -1.421875 13.25 8.53125 
Q 6.59375 18.5 6.59375 36.375 
Q 6.59375 54.296875 13.25 64.25 
Q 19.921875 74.21875 31.78125 74.21875 
Q 43.703125 74.21875 50.34375 64.25 
Q 56.984375 54.296875 56.984375 36.375 
Q 56.984375 18.5 50.34375 8.53125 
Q 43.703125 -1.421875 31.78125 -1.421875 
z
" id="DejaVuSerif-30"/>
      </defs>
      <g transform="translate(62.641616 596.793316)scale(0.0694 -0.0694)">
       <use xlink:href="#DejaVuSerif-33"/>
       <use x="63.623047" xlink:href="#DejaVuSerif-2e"/>
       <use x="95.410156" xlink:href="#DejaVuSerif-30"/>
      </g>
     </g>
    </g>
    <g id="xtick_2">
     <g id="line2d_2">
      <g>
       <use style="stroke:#000000;stroke-width:0.8;" x="142.186" xlink:href="#mbfe4f5f446" y="584.52"/>
      </g>
     </g>
     <g id="text_2">
      <!-- 3.5 -->
      <defs>
       <path d="M 50.296875 72.90625 
L 50.296875 64.890625 
L 16.890625 64.890625 
L 16.890625 44 
Q 19.4375 45.75 22.828125 46.625 
Q 26.21875 47.515625 30.421875 47.515625 
Q 42.234375 47.515625 49.0625 40.96875 
Q 55.90625 34.421875 55.90625 23.09375 
Q 55.90625 11.53125 49 5.046875 
Q 42.09375 -1.421875 29.59375 -1.421875 
Q 24.5625 -1.421875 19.28125 -0.1875 
Q 14.015625 1.03125 8.5 3.515625 
L 8.5 17.671875 
L 14.015625 17.671875 
Q 14.453125 10.75 18.421875 7.078125 
Q 22.40625 3.421875 29.59375 3.421875 
Q 37.3125 3.421875 41.453125 8.5 
Q 45.609375 13.578125 45.609375 23.09375 
Q 45.609375 32.5625 41.484375 37.609375 
Q 37.359375 42.671875 29.59375 42.671875 
Q 25.203125 42.671875 21.84375 41.109375 
Q 18.5 39.546875 15.921875 36.28125 
L 11.71875 36.28125 
L 11.71875 72.90625 
z
" id="DejaVuSerif-35"/>
      </defs>
      <g transform="translate(136.667616 596.793316)scale(0.0694 -0.0694)">
       <use xlink:href="#DejaVuSerif-33"/>
       <use x="63.623047" xlink:href="#DejaVuSerif-2e"/>
       <use x="95.410156" xlink:href="#DejaVuSerif-35"/>
      </g>
     </g>
    </g>
    <g id="xtick_3">
     <g id="line2d_3">
      <g>
       <use style="stroke:#000000;stroke-width:0.8;" x="216.212" xlink:href="#mbfe4f5f446" y="584.52"/>
      </g>
     </g>
     <g id="text_3">
      <!-- 4.0 -->
      <defs>
       <path d="M 34.90625 24.703125 
L 34.90625 63.484375 
L 10.015625 24.703125 
z
M 56.390625 0 
L 23.1875 0 
L 23.1875 5.171875 
L 34.90625 5.171875 
L 34.90625 19.484375 
L 3.078125 19.484375 
L 3.078125 24.8125 
L 35.015625 74.21875 
L 44.671875 74.21875 
L 44.671875 24.703125 
L 58.59375 24.703125 
L 58.59375 19.484375 
L 44.671875 19.484375 
L 44.671875 5.171875 
L 56.390625 5.171875 
z
" id="DejaVuSerif-34"/>
      </defs>
      <g transform="translate(210.693616 596.793316)scale(0.0694 -0.0694)">
       <use xlink:href="#DejaVuSerif-34"/>
       <use x="63.623047" xlink:href="#DejaVuSerif-2e"/>
       <use x="95.410156" xlink:href="#DejaVuSerif-30"/>
      </g>
     </g>
    </g>
    <g id="xtick_4">
     <g id="line2d_4">
      <g>
       <use style="stroke:#000000;stroke-width:0.8;" x="290.238" xlink:href="#mbfe4f5f446" y="584.52"/>
      </g>
     </g>
     <g id="text_4">
      <!-- 4.5 -->
      <g transform="translate(284.719616 596.793316)scale(0.0694 -0.0694)">
       <use xlink:href="#DejaVuSerif-34"/>
       <use x="63.623047" xlink:href="#DejaVuSerif-2e"/>
       <use x="95.410156" xlink:href="#DejaVuSerif-35"/>
      </g>
     </g>
    </g>
    <g id="xtick_5">
     <g id="line2d_5">
      <g>
       <use style="stroke:#000000;stroke-width:0.8;" x="364.264" xlink:href="#mbfe4f5f446" y="584.52"/>
      </g>
     </g>
     <g id="text_5">
      <!-- 5.0 -->
      <g transform="translate(358.745616 596.793316)scale(0.0694 -0.0694)">
       <use xlink:href="#DejaVuSerif-35"/>
       <use x="63.623047" xlink:href="#DejaVuSerif-2e"/>
       <use x="95.410156" xlink:href="#DejaVuSerif-30"/>
      </g>
     </g>
    </g>
    <g id="xtick_6">
     <g id="line2d_6">
      <g>
       <use style="stroke:#000000;stroke-width:0.8;" x="438.29" xlink:href="#mbfe4f5f446" y="584.52"/>
      </g>
     </g>
     <g id="text_6">
      <!-- 5.5 -->
      <g transform="translate(432.771616 596.793316)scale(0.0694 -0.0694)">
       <use xlink:href="#DejaVuSerif-35"/>
       <use x="63.623047" xlink:href="#DejaVuSerif-2e"/>
       <use x="95.410156" xlink:href="#DejaVuSerif-35"/>
      </g>
     </g>
    </g>
    <g id="xtick_7">
     <g id="line2d_7">
      <g>
       <use style="stroke:#000000;stroke-width:0.8;" x="512.316" xlink:href="#mbfe4f5f446" y="584.52"/>
      </g>
     </g>
     <g id="text_7">
      <!-- 6.0 -->
      <defs>
       <path d="M 32.71875 3.421875 
Q 39.59375 3.421875 43.296875 8.46875 
Q 47.015625 13.53125 47.015625 23 
Q 47.015625 32.46875 43.296875 37.515625 
Q 39.59375 42.578125 32.71875 42.578125 
Q 25.734375 42.578125 22.0625 37.6875 
Q 18.40625 32.8125 18.40625 23.578125 
Q 18.40625 13.875 22.109375 8.640625 
Q 25.828125 3.421875 32.71875 3.421875 
z
M 16.796875 40.140625 
Q 20.125 43.796875 24.3125 45.59375 
Q 28.515625 47.40625 33.796875 47.40625 
Q 44.671875 47.40625 51 40.859375 
Q 57.328125 34.328125 57.328125 23 
Q 57.328125 11.921875 50.515625 5.25 
Q 43.703125 -1.421875 32.328125 -1.421875 
Q 19.96875 -1.421875 13.328125 7.78125 
Q 6.6875 17 6.6875 34.078125 
Q 6.6875 53.21875 14.546875 63.71875 
Q 22.40625 74.21875 36.71875 74.21875 
Q 40.578125 74.21875 44.828125 73.484375 
Q 49.078125 72.75 53.515625 71.296875 
L 53.515625 59.28125 
L 48 59.28125 
Q 47.40625 64.203125 44.234375 66.796875 
Q 41.0625 69.390625 35.6875 69.390625 
Q 26.21875 69.390625 21.578125 62.203125 
Q 16.9375 55.03125 16.796875 40.140625 
z
" id="DejaVuSerif-36"/>
      </defs>
      <g transform="translate(506.797616 596.793316)scale(0.0694 -0.0694)">
       <use xlink:href="#DejaVuSerif-36"/>
       <use x="63.623047" xlink:href="#DejaVuSerif-2e"/>
       <use x="95.410156" xlink:href="#DejaVuSerif-30"/>
      </g>
     </g>
    </g>
    <g id="xtick_8">
     <g id="line2d_8">
      <g>
       <use style="stroke:#000000;stroke-width:0.8;" x="586.342" xlink:href="#mbfe4f5f446" y="584.52"/>
      </g>
     </g>
     <g id="text_8">
      <!-- 6.5 -->
      <g transform="translate(580.823616 596.793316)scale(0.0694 -0.0694)">
       <use xlink:href="#DejaVuSerif-36"/>
       <use x="63.623047" xlink:href="#DejaVuSerif-2e"/>
       <use x="95.410156" xlink:href="#DejaVuSerif-35"/>
      </g>
     </g>
    </g>
    <g id="xtick_9">
     <g id="line2d_9">
      <g>
       <use style="stroke:#000000;stroke-width:0.8;" x="660.368" xlink:href="#mbfe4f5f446" y="584.52"/>
      </g>
     </g>
     <g id="text_9">
      <!-- 7.0 -->
      <defs>
       <path d="M 56.390625 67.921875 
L 27.875 0 
L 20.609375 0 
L 47.796875 64.890625 
L 14.109375 64.890625 
L 14.109375 55.90625 
L 8.40625 55.90625 
L 8.40625 72.90625 
L 56.390625 72.90625 
z
" id="DejaVuSerif-37"/>
      </defs>
      <g transform="translate(654.849616 596.793316)scale(0.0694 -0.0694)">
       <use xlink:href="#DejaVuSerif-37"/>
       <use x="63.623047" xlink:href="#DejaVuSerif-2e"/>
       <use x="95.410156" xlink:href="#DejaVuSerif-30"/>
      </g>
     </g>
    </g>
   </g>
   <g id="matplotlib.axis_2">
    <g id="ytick_1">
     <g id="line2d_10">
      <defs>
       <path d="M 0 0 
L -3.5 0 
" id="m648f794141" style="stroke:#000000;stroke-width:0.8;"/>
      </defs>
      <g>
       <use style="stroke:#000000;stroke-width:0.8;" x="68.16" xlink:href="#m648f794141" y="486.805714"/>
      </g>
     </g>
     <g id="text_10">
      <!-- 0.01 -->
      <defs>
       <path d="M 14.203125 0 
L 14.203125 5.171875 
L 26.90625 5.171875 
L 26.90625 65.828125 
L 12.203125 56.296875 
L 12.203125 62.703125 
L 29.984375 74.21875 
L 36.71875 74.21875 
L 36.71875 5.171875 
L 49.421875 5.171875 
L 49.421875 0 
z
" id="DejaVuSerif-31"/>
      </defs>
      <g transform="translate(45.707656 489.442372)scale(0.0694 -0.0694)">
       <use xlink:href="#DejaVuSerif-30"/>
       <use x="63.623047" xlink:href="#DejaVuSerif-2e"/>
       <use x="95.410156" xlink:href="#DejaVuSerif-30"/>
       <use x="159.033203" xlink:href="#DejaVuSerif-31"/>
      </g>
     </g>
    </g>
    <g id="ytick_2">
     <g id="line2d_11">
      <g>
       <use style="stroke:#000000;stroke-width:0.8;" x="68.16" xlink:href="#m648f794141" y="378.234286"/>
      </g>
     </g>
     <g id="text_11">
      <!-- 0.02 -->
      <defs>
       <path d="M 12.796875 55.515625 
L 7.328125 55.515625 
L 7.328125 68.5 
Q 12.546875 71.296875 17.84375 72.75 
Q 23.140625 74.21875 28.21875 74.21875 
Q 39.59375 74.21875 46.1875 68.703125 
Q 52.78125 63.1875 52.78125 53.71875 
Q 52.78125 43.015625 37.84375 28.125 
Q 36.671875 27 36.078125 26.421875 
L 17.671875 8.015625 
L 48.09375 8.015625 
L 48.09375 17 
L 53.8125 17 
L 53.8125 0 
L 6.78125 0 
L 6.78125 5.328125 
L 28.90625 27.390625 
Q 36.234375 34.71875 39.359375 40.84375 
Q 42.484375 46.96875 42.484375 53.71875 
Q 42.484375 61.078125 38.640625 65.234375 
Q 34.8125 69.390625 28.078125 69.390625 
Q 21.09375 69.390625 17.28125 65.921875 
Q 13.484375 62.453125 12.796875 55.515625 
z
" id="DejaVuSerif-32"/>
      </defs>
      <g transform="translate(45.707656 380.870944)scale(0.0694 -0.0694)">
       <use xlink:href="#DejaVuSerif-30"/>
       <use x="63.623047" xlink:href="#DejaVuSerif-2e"/>
       <use x="95.410156" xlink:href="#DejaVuSerif-30"/>
       <use x="159.033203" xlink:href="#DejaVuSerif-32"/>
      </g>
     </g>
    </g>
    <g id="ytick_3">
     <g id="line2d_12">
      <g>
       <use style="stroke:#000000;stroke-width:0.8;" x="68.16" xlink:href="#m648f794141" y="269.662857"/>
      </g>
     </g>
     <g id="text_12">
      <!-- 0.03 -->
      <g transform="translate(45.707656 272.299515)scale(0.0694 -0.0694)">
       <use xlink:href="#DejaVuSerif-30"/>
       <use x="63.623047" xlink:href="#DejaVuSerif-2e"/>
       <use x="95.410156" xlink:href="#DejaVuSerif-30"/>
       <use x="159.033203" xlink:href="#DejaVuSerif-33"/>
      </g>
     </g>
    </g>
    <g id="ytick_4">
     <g id="line2d_13">
      <g>
       <use style="stroke:#000000;stroke-width:0.8;" x="68.16" xlink:href="#m648f794141" y="161.091429"/>
      </g>
     </g>
     <g id="text_13">
      <!-- 0.04 -->
      <g transform="translate(45.707656 163.728086)scale(0.0694 -0.0694)">
       <use xlink:href="#DejaVuSerif-30"/>
       <use x="63.623047" xlink:href="#DejaVuSerif-2e"/>
       <use x="95.410156" xlink:href="#DejaVuSerif-30"/>
       <use x="159.033203" xlink:href="#DejaVuSerif-34"/>
      </g>
     </g>
    </g>
    <g id="ytick_5">
     <g id="line2d_14">
      <g>
       <use style="stroke:#000000;stroke-width:0.8;" x="68.16" xlink:href="#m648f794141" y="52.52"/>
      </g>
     </g>
     <g id="text_14">
      <!-- 0.05 -->
      <g transform="translate(45.707656 55.156658)scale(0.0694 -0.0694)">
       <use xlink:href="#DejaVuSerif-30"/>
       <use x="63.623047" xlink:href="#DejaVuSerif-2e"/>
       <use x="95.410156" xlink:href="#DejaVuSerif-30"/>
       <use x="159.033203" xlink:href="#DejaVuSerif-35"/>
      </g>
     </g>
    </g>
   </g>
   <g id="patch_3">
    <path d="M 68.16 584.52 
L 68.16 52.52 
" style="fill:none;stroke:#000000;stroke-linecap:square;stroke-linejoin:miter;stroke-width:0.8;"/>
   </g>
   <g id="patch_4">
    <path d="M 660.368 584.52 
L 660.368 52.52 
" style="fill:none;stroke:#000000;stroke-linecap:square;stroke-linejoin:miter;stroke-width:0.8;"/>
   </g>
   <g id="patch_5">
    <path d="M 68.16 584.52 
L 660.368 584.52 
" style="fill:none;stroke:#000000;stroke-linecap:square;stroke-linejoin:miter;stroke-width:0.8;"/>
   </g>
   <g id="patch_6">
    <path d="M 68.16 52.52 
L 660.368 52.52 
" style="fill:none;stroke:#000000;stroke-linecap:square;stroke-linejoin:miter;stroke-width:0.8;"/>
   </g>
  </g>
  <g id="axes_2">
   <g id="patch_7">
    <path clip-path="url(#p06257ffa10)" d="M 697.381 584.52 
L 697.381 553.225882 
L 697.381 83.814118 
L 697.381 52.52 
L 723.981 52.52 
L 723.981 83.814118 
L 723.981 553.225882 
L 723.981 584.52 
z
" style="fill:#ffffff;stroke:#ffffff;stroke-linejoin:miter;stroke-width:0.01;"/>
   </g>
   <g id="QuadMesh_1">
    <path clip-path="url(#p06257ffa10)" d="M 697.381 584.52 
L 723.981 584.52 
L 723.981 553.225882 
L 697.381 553.225882 
L 697.381 584.52 
" style="fill:#fcfcfc;"/>
    <path clip-path="url(#p06257ffa10)" d="M 697.381 553.225882 
L 723.981 553.225882 
L 723.981 521.931765 
L 697.381 521.931765 
L 697.381 553.225882 
" style="fill:#f5f5f5;"/>
    <path clip-path="url(#p06257ffa10)" d="M 697.381 521.931765 
L 723.981 521.931765 
L 723.981 490.637647 
L 697.381 490.637647 
L 697.381 521.931765 
" style="fill:#ececec;"/>
    <path clip-path="url(#p06257ffa10)" d="M 697.381 490.637647 
L 723.981 490.637647 
L 723.981 459.343529 
L 697.381 459.343529 
L 697.381 490.637647 
" style="fill:#e1e1e1;"/>
    <path clip-path="url(#p06257ffa10)" d="M 697.381 459.343529 
L 723.981 459.343529 
L 723.981 428.049412 
L 697.381 428.049412 
L 697.381 459.343529 
" style="fill:#d6d6d6;"/>
    <path clip-path="url(#p06257ffa10)" d="M 697.381 428.049412 
L 723.981 428.049412 
L 723.981 396.755294 
L 697.381 396.755294 
L 697.381 428.049412 
" style="fill:#c9c9c9;"/>
    <path clip-path="url(#p06257ffa10)" d="M 697.381 396.755294 
L 723.981 396.755294 
L 723.981 365.461176 
L 697.381 365.461176 
L 697.381 396.755294 
" style="fill:#bbbbbb;"/>
    <path clip-path="url(#p06257ffa10)" d="M 697.381 365.461176 
L 723.981 365.461176 
L 723.981 334.167059 
L 697.381 334.167059 
L 697.381 365.461176 
" style="fill:#a9a9a9;"/>
    <path clip-path="url(#p06257ffa10)" d="M 697.381 334.167059 
L 723.981 334.167059 
L 723.981 302.872941 
L 697.381 302.872941 
L 697.381 334.167059 
" style="fill:#959595;"/>
    <path clip-path="url(#p06257ffa10)" d="M 697.381 302.872941 
L 723.981 302.872941 
L 723.981 271.578824 
L 697.381 271.578824 
L 697.381 302.872941 
" style="fill:#858585;"/>
    <path clip-path="url(#p06257ffa10)" d="M 697.381 271.578824 
L 723.981 271.578824 
L 723.981 240.284706 
L 697.381 240.284706 
L 697.381 271.578824 
" style="fill:#757575;"/>
    <path clip-path="url(#p06257ffa10)" d="M 697.381 240.284706 
L 723.981 240.284706 
L 723.981 208.990588 
L 697.381 208.990588 
L 697.381 240.284706 
" style="fill:#656565;"/>
    <path clip-path="url(#p06257ffa10)" d="M 697.381 208.990588 
L 723.981 208.990588 
L 723.981 177.696471 
L 697.381 177.696471 
L 697.381 208.990588 
" style="fill:#555555;"/>
    <path clip-path="url(#p06257ffa10)" d="M 697.381 177.696471 
L 723.981 177.696471 
L 723.981 146.402353 
L 697.381 146.402353 
L 697.381 177.696471 
" style="fill:#414141;"/>
    <path clip-path="url(#p06257ffa10)" d="M 697.381 146.402353 
L 723.981 146.402353 
L 723.981 115.108235 
L 697.381 115.108235 
L 697.381 146.402353 
" style="fill:#2c2c2c;"/>
    <path clip-path="url(#p06257ffa10)" d="M 697.381 115.108235 
L 723.981 115.108235 
L 723.981 83.814118 
L 697.381 83.814118 
L 697.381 115.108235 
" style="fill:#1a1a1a;"/>
    <path clip-path="url(#p06257ffa10)" d="M 697.381 83.814118 
L 723.981 83.814118 
L 723.981 52.52 
L 697.381 52.52 
L 697.381 83.814118 
" style="fill:#080808;"/>
   </g>
   <g id="matplotlib.axis_3"/>
   <g id="matplotlib.axis_4">
    <g id="ytick_6">
     <g id="line2d_15">
      <defs>
       <path d="M 0 0 
L 3.5 0 
" id="m3c4dbc721f" style="stroke:#000000;stroke-width:0.8;"/>
      </defs>
      <g>
       <use style="stroke:#000000;stroke-width:0.8;" x="723.981" xlink:href="#m3c4dbc721f" y="553.225882"/>
      </g>
     </g>
     <g id="text_15">
      <!-- −39.5120 -->
      <defs>
       <path d="M 10.59375 35.296875 
L 73.1875 35.296875 
L 73.1875 27.390625 
L 10.59375 27.390625 
z
" id="DejaVuSerif-2212"/>
       <path d="M 46.78125 32.671875 
Q 43.5 29 39.25 27.1875 
Q 35.015625 25.390625 29.6875 25.390625 
Q 18.84375 25.390625 12.5625 31.9375 
Q 6.296875 38.484375 6.296875 49.8125 
Q 6.296875 60.890625 13.109375 67.546875 
Q 19.921875 74.21875 31.296875 74.21875 
Q 43.65625 74.21875 50.265625 65.015625 
Q 56.890625 55.8125 56.890625 38.71875 
Q 56.890625 19.578125 49.015625 9.078125 
Q 41.15625 -1.421875 26.90625 -1.421875 
Q 23.046875 -1.421875 18.796875 -0.6875 
Q 14.546875 0.046875 10.109375 1.515625 
L 10.109375 13.625 
L 15.578125 13.625 
Q 16.21875 8.6875 19.390625 6.046875 
Q 22.5625 3.421875 27.875 3.421875 
Q 37.359375 3.421875 41.984375 10.5625 
Q 46.625 17.71875 46.78125 32.671875 
z
M 30.90625 69.390625 
Q 23.96875 69.390625 20.28125 64.328125 
Q 16.609375 59.28125 16.609375 49.8125 
Q 16.609375 40.328125 20.28125 35.25 
Q 23.96875 30.171875 30.90625 30.171875 
Q 37.84375 30.171875 41.53125 35.078125 
Q 45.21875 39.984375 45.21875 49.21875 
Q 45.21875 58.9375 41.5 64.15625 
Q 37.796875 69.390625 30.90625 69.390625 
z
" id="DejaVuSerif-39"/>
      </defs>
      <g transform="translate(730.981 555.86254)scale(0.0694 -0.0694)">
       <use xlink:href="#DejaVuSerif-2212"/>
       <use x="83.789062" xlink:href="#DejaVuSerif-33"/>
       <use x="147.412109" xlink:href="#DejaVuSerif-39"/>
       <use x="211.035156" xlink:href="#DejaVuSerif-2e"/>
       <use x="242.822266" xlink:href="#DejaVuSerif-35"/>
       <use x="306.445312" xlink:href="#DejaVuSerif-31"/>
       <use x="370.068359" xlink:href="#DejaVuSerif-32"/>
       <use x="433.691406" xlink:href="#DejaVuSerif-30"/>
      </g>
     </g>
    </g>
    <g id="ytick_7">
     <g id="line2d_16">
      <g>
       <use style="stroke:#000000;stroke-width:0.8;" x="723.981" xlink:href="#m3c4dbc721f" y="490.637647"/>
      </g>
     </g>
     <g id="text_16">
      <!-- −39.5104 -->
      <g transform="translate(730.981 493.274305)scale(0.0694 -0.0694)">
       <use xlink:href="#DejaVuSerif-2212"/>
       <use x="83.789062" xlink:href="#DejaVuSerif-33"/>
       <use x="147.412109" xlink:href="#DejaVuSerif-39"/>
       <use x="211.035156" xlink:href="#DejaVuSerif-2e"/>
       <use x="242.822266" xlink:href="#DejaVuSerif-35"/>
       <use x="306.445312" xlink:href="#DejaVuSerif-31"/>
       <use x="370.068359" xlink:href="#DejaVuSerif-30"/>
       <use x="433.691406" xlink:href="#DejaVuSerif-34"/>
      </g>
     </g>
    </g>
    <g id="ytick_8">
     <g id="line2d_17">
      <g>
       <use style="stroke:#000000;stroke-width:0.8;" x="723.981" xlink:href="#m3c4dbc721f" y="428.049412"/>
      </g>
     </g>
     <g id="text_17">
      <!-- −39.5088 -->
      <defs>
       <path d="M 46.578125 19.921875 
Q 46.578125 27.734375 42.6875 32.046875 
Q 38.8125 36.375 31.78125 36.375 
Q 24.75 36.375 20.875 32.046875 
Q 17 27.734375 17 19.921875 
Q 17 12.0625 20.875 7.734375 
Q 24.75 3.421875 31.78125 3.421875 
Q 38.8125 3.421875 42.6875 7.734375 
Q 46.578125 12.0625 46.578125 19.921875 
z
M 44.578125 55.328125 
Q 44.578125 61.96875 41.203125 65.671875 
Q 37.84375 69.390625 31.78125 69.390625 
Q 25.78125 69.390625 22.390625 65.671875 
Q 19 61.96875 19 55.328125 
Q 19 48.640625 22.390625 44.921875 
Q 25.78125 41.21875 31.78125 41.21875 
Q 37.84375 41.21875 41.203125 44.921875 
Q 44.578125 48.640625 44.578125 55.328125 
z
M 39.3125 38.8125 
Q 47.609375 37.703125 52.25 32.6875 
Q 56.890625 27.6875 56.890625 19.921875 
Q 56.890625 9.671875 50.390625 4.125 
Q 43.890625 -1.421875 31.78125 -1.421875 
Q 19.734375 -1.421875 13.203125 4.125 
Q 6.6875 9.671875 6.6875 19.921875 
Q 6.6875 27.6875 11.328125 32.6875 
Q 15.96875 37.703125 24.3125 38.8125 
Q 16.9375 40.140625 13 44.40625 
Q 9.078125 48.6875 9.078125 55.328125 
Q 9.078125 64.109375 15.125 69.15625 
Q 21.1875 74.21875 31.78125 74.21875 
Q 42.390625 74.21875 48.4375 69.15625 
Q 54.5 64.109375 54.5 55.328125 
Q 54.5 48.6875 50.5625 44.40625 
Q 46.625 40.140625 39.3125 38.8125 
z
" id="DejaVuSerif-38"/>
      </defs>
      <g transform="translate(730.981 430.68607)scale(0.0694 -0.0694)">
       <use xlink:href="#DejaVuSerif-2212"/>
       <use x="83.789062" xlink:href="#DejaVuSerif-33"/>
       <use x="147.412109" xlink:href="#DejaVuSerif-39"/>
       <use x="211.035156" xlink:href="#DejaVuSerif-2e"/>
       <use x="242.822266" xlink:href="#DejaVuSerif-35"/>
       <use x="306.445312" xlink:href="#DejaVuSerif-30"/>
       <use x="370.068359" xlink:href="#DejaVuSerif-38"/>
       <use x="433.691406" xlink:href="#DejaVuSerif-38"/>
      </g>
     </g>
    </g>
    <g id="ytick_9">
     <g id="line2d_18">
      <g>
       <use style="stroke:#000000;stroke-width:0.8;" x="723.981" xlink:href="#m3c4dbc721f" y="365.461176"/>
      </g>
     </g>
     <g id="text_18">
      <!-- −39.5072 -->
      <g transform="translate(730.981 368.097834)scale(0.0694 -0.0694)">
       <use xlink:href="#DejaVuSerif-2212"/>
       <use x="83.789062" xlink:href="#DejaVuSerif-33"/>
       <use x="147.412109" xlink:href="#DejaVuSerif-39"/>
       <use x="211.035156" xlink:href="#DejaVuSerif-2e"/>
       <use x="242.822266" xlink:href="#DejaVuSerif-35"/>
       <use x="306.445312" xlink:href="#DejaVuSerif-30"/>
       <use x="370.068359" xlink:href="#DejaVuSerif-37"/>
       <use x="433.691406" xlink:href="#DejaVuSerif-32"/>
      </g>
     </g>
    </g>
    <g id="ytick_10">
     <g id="line2d_19">
      <g>
       <use style="stroke:#000000;stroke-width:0.8;" x="723.981" xlink:href="#m3c4dbc721f" y="302.872941"/>
      </g>
     </g>
     <g id="text_19">
      <!-- −39.5056 -->
      <g transform="translate(730.981 305.509599)scale(0.0694 -0.0694)">
       <use xlink:href="#DejaVuSerif-2212"/>
       <use x="83.789062" xlink:href="#DejaVuSerif-33"/>
       <use x="147.412109" xlink:href="#DejaVuSerif-39"/>
       <use x="211.035156" xlink:href="#DejaVuSerif-2e"/>
       <use x="242.822266" xlink:href="#DejaVuSerif-35"/>
       <use x="306.445312" xlink:href="#DejaVuSerif-30"/>
       <use x="370.068359" xlink:href="#DejaVuSerif-35"/>
       <use x="433.691406" xlink:href="#DejaVuSerif-36"/>
      </g>
     </g>
    </g>
    <g id="ytick_11">
     <g id="line2d_20">
      <g>
       <use style="stroke:#000000;stroke-width:0.8;" x="723.981" xlink:href="#m3c4dbc721f" y="240.284706"/>
      </g>
     </g>
     <g id="text_20">
      <!-- −39.5040 -->
      <g transform="translate(730.981 242.921364)scale(0.0694 -0.0694)">
       <use xlink:href="#DejaVuSerif-2212"/>
       <use x="83.789062" xlink:href="#DejaVuSerif-33"/>
       <use x="147.412109" xlink:href="#DejaVuSerif-39"/>
       <use x="211.035156" xlink:href="#DejaVuSerif-2e"/>
       <use x="242.822266" xlink:href="#DejaVuSerif-35"/>
       <use x="306.445312" xlink:href="#DejaVuSerif-30"/>
       <use x="370.068359" xlink:href="#DejaVuSerif-34"/>
       <use x="433.691406" xlink:href="#DejaVuSerif-30"/>
      </g>
     </g>
    </g>
    <g id="ytick_12">
     <g id="line2d_21">
      <g>
       <use style="stroke:#000000;stroke-width:0.8;" x="723.981" xlink:href="#m3c4dbc721f" y="177.696471"/>
      </g>
     </g>
     <g id="text_21">
      <!-- −39.5024 -->
      <g transform="translate(730.981 180.333128)scale(0.0694 -0.0694)">
       <use xlink:href="#DejaVuSerif-2212"/>
       <use x="83.789062" xlink:href="#DejaVuSerif-33"/>
       <use x="147.412109" xlink:href="#DejaVuSerif-39"/>
       <use x="211.035156" xlink:href="#DejaVuSerif-2e"/>
       <use x="242.822266" xlink:href="#DejaVuSerif-35"/>
       <use x="306.445312" xlink:href="#DejaVuSerif-30"/>
       <use x="370.068359" xlink:href="#DejaVuSerif-32"/>
       <use x="433.691406" xlink:href="#DejaVuSerif-34"/>
      </g>
     </g>
    </g>
    <g id="ytick_13">
     <g id="line2d_22">
      <g>
       <use style="stroke:#000000;stroke-width:0.8;" x="723.981" xlink:href="#m3c4dbc721f" y="115.108235"/>
      </g>
     </g>
     <g id="text_22">
      <!-- −39.5008 -->
      <g transform="translate(730.981 117.744893)scale(0.0694 -0.0694)">
       <use xlink:href="#DejaVuSerif-2212"/>
       <use x="83.789062" xlink:href="#DejaVuSerif-33"/>
       <use x="147.412109" xlink:href="#DejaVuSerif-39"/>
       <use x="211.035156" xlink:href="#DejaVuSerif-2e"/>
       <use x="242.822266" xlink:href="#DejaVuSerif-35"/>
       <use x="306.445312" xlink:href="#DejaVuSerif-30"/>
       <use x="370.068359" xlink:href="#DejaVuSerif-30"/>
       <use x="433.691406" xlink:href="#DejaVuSerif-38"/>
      </g>
     </g>
    </g>
    <g id="ytick_14">
     <g id="line2d_23">
      <g>
       <use style="stroke:#000000;stroke-width:0.8;" x="723.981" xlink:href="#m3c4dbc721f" y="52.52"/>
      </g>
     </g>
     <g id="text_23">
      <!-- −39.4992 -->
      <g transform="translate(730.981 55.156658)scale(0.0694 -0.0694)">
       <use xlink:href="#DejaVuSerif-2212"/>
       <use x="83.789062" xlink:href="#DejaVuSerif-33"/>
       <use x="147.412109" xlink:href="#DejaVuSerif-39"/>
       <use x="211.035156" xlink:href="#DejaVuSerif-2e"/>
       <use x="242.822266" xlink:href="#DejaVuSerif-34"/>
       <use x="306.445312" xlink:href="#DejaVuSerif-39"/>
       <use x="370.068359" xlink:href="#DejaVuSerif-39"/>
       <use x="433.691406" xlink:href="#DejaVuSerif-32"/>
      </g>
     </g>
    </g>
   </g>
   <g id="patch_8">
    <path d="M 697.381 584.52 
L 697.381 553.225882 
L 697.381 83.814118 
L 697.381 52.52 
L 723.981 52.52 
L 723.981 83.814118 
L 723.981 553.225882 
L 723.981 584.52 
z
" style="fill:none;stroke:#000000;stroke-linejoin:miter;stroke-width:0.8;"/>
   </g>
  </g>
 </g>
 <defs>
  <clipPath id="p88cd90a5e7">
   <rect height="532" width="592.208" x="68.16" y="52.52"/>
  </clipPath>
  <clipPath id="p06257ffa10">
   <rect height="532" width="26.6" x="697.381" y="52.52"/>
  </clipPath>
 </defs>
</svg>
